<svg width="30" height="25" viewBox="0 0 30 25" fill="none" xmlns="http://www.w3.org/2000/svg">
<g filter="url(#filter0_d_64_4512)">
<path fill-rule="evenodd" clip-rule="evenodd" d="M20.5749 15.7C24.1553 16.9 25.0126 16.95 25.0126 16.95V4C25.0126 1.8 23.1972 0 21.0287 0H3.98386C1.81543 0 0 1.8 0 4V21C0 23.2 1.81543 25 3.98386 25H20.9783C23.1972 25 24.9622 23.2 24.9622 21V20.85C24.9622 20.85 18.4569 18.15 15.179 16.55C12.9602 19.25 10.1362 20.9 7.2113 20.9C2.21886 20.9 0.504286 16.55 2.87443 13.65C3.37872 13 4.28643 12.45 5.64801 12.1C7.76601 11.6 11.1447 12.45 14.3217 13.45C14.8765 12.4 15.3807 11.25 15.7337 10H5.95058V9H10.9934V7.25H4.89158V6.25H10.9934V3.75C10.9934 3.75 10.9934 3.3 11.4473 3.3H13.9183V6.25H19.9697V7.25H13.9183V9H18.8603C18.4065 10.95 17.65 12.7 16.7927 14.25C18.2552 14.85 19.5663 15.35 20.5749 15.7Z" fill="#1677FF"/>
</g>
<defs>
<filter id="filter0_d_64_4512" x="-4" y="0" width="33.0127" height="33" filterUnits="userSpaceOnUse" color-interpolation-filters="sRGB">
<feFlood flood-opacity="0" result="BackgroundImageFix"/>
<feColorMatrix in="SourceAlpha" type="matrix" values="0 0 0 0 0 0 0 0 0 0 0 0 0 0 0 0 0 0 127 0" result="hardAlpha"/>
<feOffset dy="4"/>
<feGaussianBlur stdDeviation="2"/>
<feComposite in2="hardAlpha" operator="out"/>
<feColorMatrix type="matrix" values="0 0 0 0 0 0 0 0 0 0 0 0 0 0 0 0 0 0 0.25 0"/>
<feBlend mode="normal" in2="BackgroundImageFix" result="effect1_dropShadow_64_4512"/>
<feBlend mode="normal" in="SourceGraphic" in2="effect1_dropShadow_64_4512" result="shape"/>
</filter>
</defs>
</svg>
