<svg width="14" height="14" viewBox="0 0 14 14" fill="none" xmlns="http://www.w3.org/2000/svg">
<path fill-rule="evenodd" clip-rule="evenodd" d="M3.99985 1.75C3.80093 1.75 3.61017 1.67098 3.46952 1.53033C3.32886 1.38968 3.24985 1.19891 3.24985 1C3.24985 0.801088 3.32886 0.610322 3.46952 0.46967C3.61017 0.329018 3.80093 0.25 3.99985 0.25H12.9998C13.1988 0.25 13.3895 0.329018 13.5302 0.46967C13.6708 0.610322 13.7498 0.801088 13.7498 1V10C13.7498 10.1989 13.6708 10.3897 13.5302 10.5303C13.3895 10.671 13.1988 10.75 12.9998 10.75C12.8009 10.75 12.6102 10.671 12.4695 10.5303C12.3289 10.3897 12.2498 10.1989 12.2498 10V2.81L1.52985 13.53C1.38767 13.6625 1.19963 13.7346 1.00532 13.7312C0.811023 13.7277 0.625638 13.649 0.488225 13.5116C0.350812 13.3742 0.2721 13.1888 0.268672 12.9945C0.265243 12.8002 0.337366 12.6122 0.469846 12.47L11.1898 1.75H3.99985Z" fill="#2563EB"/>
</svg>
