<svg width="14" height="14" viewBox="0 0 14 14" fill="none" xmlns="http://www.w3.org/2000/svg">
<path fill-rule="evenodd" clip-rule="evenodd" d="M0.470316 0.46995C0.610942 0.3295 0.801566 0.25061 1.00032 0.25061C1.19907 0.25061 1.38969 0.3295 1.53032 0.46995L12.2503 11.19V3.99995C12.2503 3.80104 12.3293 3.61027 12.47 3.46962C12.6106 3.32897 12.8014 3.24995 13.0003 3.24995C13.1992 3.24995 13.39 3.32897 13.5306 3.46962C13.6713 3.61027 13.7503 3.80104 13.7503 3.99995V13C13.7503 13.1989 13.6713 13.3896 13.5306 13.5303C13.39 13.6709 13.1992 13.75 13.0003 13.75H4.00032C3.8014 13.75 3.61064 13.6709 3.46999 13.5303C3.32933 13.3896 3.25032 13.1989 3.25032 13C3.25032 12.801 3.32933 12.6103 3.46999 12.4696C3.61064 12.329 3.8014 12.25 4.00032 12.25H11.1903L0.470316 1.52995C0.329866 1.38933 0.250977 1.1987 0.250977 0.99995C0.250977 0.8012 0.329866 0.610576 0.470316 0.46995Z" fill="#2563EB"/>
</svg>
