<svg width="22" height="20" viewBox="0 0 22 20" fill="none" xmlns="http://www.w3.org/2000/svg">
<path fill-rule="evenodd" clip-rule="evenodd" d="M6.348 2.487C6.615 1.177 7.781 0.25 9.116 0.25H12.384C13.719 0.25 14.884 1.177 15.152 2.487C15.1815 2.63125 15.2588 2.76137 15.3712 2.85642C15.4837 2.95147 15.6248 3.00591 15.772 3.011H15.805C17.208 3.073 18.286 3.245 19.186 3.836C19.753 4.208 20.241 4.686 20.621 5.245C21.094 5.939 21.302 6.737 21.402 7.701C21.5 8.644 21.5 9.825 21.5 11.321V11.406C21.5 12.902 21.5 14.084 21.402 15.026C21.302 15.99 21.094 16.788 20.621 17.483C20.2389 18.0416 19.7515 18.5202 19.186 18.892C18.483 19.353 17.676 19.557 16.698 19.654C15.74 19.75 14.539 19.75 13.013 19.75H8.487C6.961 19.75 5.76 19.75 4.802 19.654C3.824 19.557 3.017 19.354 2.314 18.892C1.74844 18.5199 1.26099 18.0409 0.879 17.482C0.406 16.788 0.198 15.99 0.098 15.026C5.21541e-08 14.084 0 12.902 0 11.406V11.321C0 9.825 5.21541e-08 8.644 0.098 7.701C0.198 6.737 0.406 5.939 0.879 5.245C1.26099 4.68607 1.74844 4.20711 2.314 3.835C3.214 3.245 4.292 3.073 5.695 3.012L5.712 3.011H5.728C5.87516 3.00591 6.01632 2.95147 6.12879 2.85642C6.24125 2.76137 6.31846 2.63125 6.348 2.487ZM9.116 1.75C8.476 1.75 7.939 2.193 7.818 2.786C7.623 3.746 6.771 4.502 5.746 4.511C4.398 4.571 3.676 4.736 3.136 5.09C2.73545 5.35393 2.39004 5.69322 2.119 6.089C1.843 6.494 1.677 7.013 1.589 7.856C1.501 8.712 1.5 9.816 1.5 11.364C1.5 12.912 1.5 14.015 1.59 14.871C1.677 15.714 1.843 16.233 2.12 16.639C2.388 17.033 2.733 17.373 3.137 17.638C3.554 17.911 4.088 18.076 4.951 18.162C5.825 18.249 6.951 18.25 8.528 18.25H12.972C14.548 18.25 15.674 18.25 16.549 18.162C17.412 18.076 17.946 17.912 18.363 17.638C18.767 17.373 19.113 17.033 19.381 16.638C19.657 16.233 19.823 15.714 19.911 14.871C19.999 14.015 20 12.911 20 11.364C20 9.817 20 8.712 19.91 7.856C19.823 7.013 19.657 6.494 19.38 6.089C19.1091 5.69286 18.7636 5.35322 18.363 5.089C17.825 4.736 17.103 4.571 15.753 4.511C14.729 4.501 13.877 3.747 13.682 2.786C13.618 2.49027 13.4539 2.22569 13.2174 2.03694C12.9809 1.84819 12.6866 1.74684 12.384 1.75H9.116ZM10.75 8.75C10.1533 8.75 9.58097 8.98705 9.15901 9.40901C8.73705 9.83097 8.5 10.4033 8.5 11C8.5 11.5967 8.73705 12.169 9.15901 12.591C9.58097 13.0129 10.1533 13.25 10.75 13.25C11.3467 13.25 11.919 13.0129 12.341 12.591C12.7629 12.169 13 11.5967 13 11C13 10.4033 12.7629 9.83097 12.341 9.40901C11.919 8.98705 11.3467 8.75 10.75 8.75ZM7 11C7 10.0054 7.39509 9.05161 8.09835 8.34835C8.80161 7.64509 9.75544 7.25 10.75 7.25C11.7446 7.25 12.6984 7.64509 13.4017 8.34835C14.1049 9.05161 14.5 10.0054 14.5 11C14.5 11.9946 14.1049 12.9484 13.4017 13.6517C12.6984 14.3549 11.7446 14.75 10.75 14.75C9.75544 14.75 8.80161 14.3549 8.09835 13.6517C7.39509 12.9484 7 11.9946 7 11ZM16 8C16 7.80109 16.079 7.61032 16.2197 7.46967C16.3603 7.32902 16.5511 7.25 16.75 7.25H17.75C17.9489 7.25 18.1397 7.32902 18.2803 7.46967C18.421 7.61032 18.5 7.80109 18.5 8C18.5 8.19891 18.421 8.38968 18.2803 8.53033C18.1397 8.67098 17.9489 8.75 17.75 8.75H16.75C16.5511 8.75 16.3603 8.67098 16.2197 8.53033C16.079 8.38968 16 8.19891 16 8Z" fill="black"/>
</svg>
