<svg width="20" height="20" viewBox="0 0 20 20" fill="none" xmlns="http://www.w3.org/2000/svg">
<g clip-path="url(#clip0_64_6489)">
<rect width="20" height="20" rx="10" fill="#EE1C25"/>
<path d="M2 0H18.5V20H2V0Z" fill="white"/>
<path d="M-1 0H4.37426V20H-1V0ZM15.1257 0H20.5V20H15.1257V0Z" fill="#D52B1E"/>
<path d="M6 10.059L6.41116 9.91384V9.91686C6.66667 9.65385 6.26138 8.85573 6.13216 8.37504C6.51101 8.45969 7.07783 8.67736 7.24523 8.60783C7.41263 8.52922 7.50073 8.18458 7.62702 7.97296L8.60499 9.11572C8.69897 9.16711 8.7812 9.13688 8.81351 9.04619L8.38767 6.65183L9.09839 7.06298C9.14538 7.09926 9.20118 7.09321 9.25698 7.0388L9.99706 5.5L10.7166 6.98136C10.7577 7.05391 10.8194 7.08112 10.8811 7.05391L11.627 6.6216L11.1571 9.03107C11.1836 9.12781 11.2305 9.17618 11.3421 9.14595L12.3583 7.99714L12.649 8.55643C12.7225 8.76503 13.8414 8.369 13.8414 8.369C13.7827 8.89503 13.3891 9.7264 13.6652 9.94709L14 10.071L12.0793 11.7187C11.9618 12.1661 12.0764 12.3142 12.2056 12.5954L10.1145 12.3415L10.2115 14.4849L9.7768 14.5L9.82966 12.3384L7.74449 12.6105C7.87078 12.3747 8.06755 12.2447 7.92071 11.7973L6 10.059Z" fill="#D52B1E"/>
</g>
<defs>
<clipPath id="clip0_64_6489">
<rect width="20" height="20" rx="10" fill="white"/>
</clipPath>
</defs>
</svg>
