<svg width="24" height="24" viewBox="0 0 24 24" fill="none" xmlns="http://www.w3.org/2000/svg">
<g clip-path="url(#clip0_64_2686)">
<rect width="24" height="24" rx="12" fill="#EE1C25"/>
<path d="M37.7999 2.3999H2.3999V26.3999H37.7999V2.3999Z" fill="#EE1C25"/>
<path d="M8.76664 4.80005L10.8474 11.3125L5.3999 7.28759H12.1334L6.68589 11.3125L8.76664 4.80005Z" fill="#FFFF00"/>
<path d="M15.128 3.69562L14.9309 5.96934L13.7762 4.01208L15.8417 4.90527L13.6544 5.41732L15.128 3.69562Z" fill="#FFFF00"/>
<path d="M17.8742 6.36457L16.825 8.38235L16.5075 6.12276L18.0704 7.76107L15.8591 7.36982L17.8742 6.36457Z" fill="#FFFF00"/>
<path d="M18.1339 10.3885L16.3665 11.7955L16.9831 9.60074L17.7528 11.7449L15.8908 10.4703L18.1339 10.3885Z" fill="#FFFF00"/>
<path d="M15.0818 12.0772L14.9777 14.3573L13.7441 12.4504L15.8442 13.2557L13.6797 13.8596L15.0818 12.0772Z" fill="#FFFF00"/>
</g>
<defs>
<clipPath id="clip0_64_2686">
<rect width="24" height="24" rx="12" fill="white"/>
</clipPath>
</defs>
</svg>
