<svg width="16" height="22" viewBox="0 0 16 22" fill="none" xmlns="http://www.w3.org/2000/svg">
<path fill-rule="evenodd" clip-rule="evenodd" d="M1 0.25C1.19891 0.25 1.38968 0.329018 1.53033 0.46967C1.67098 0.610322 1.75 0.801088 1.75 1V2.085L3.324 1.77C5.11731 1.41177 6.9761 1.58271 8.674 2.262L8.877 2.343C10.2917 2.90878 11.8488 3.01445 13.327 2.645C13.6145 2.57311 13.9146 2.56771 14.2045 2.62919C14.4945 2.69067 14.7665 2.81742 15.0001 2.99982C15.2337 3.18221 15.4226 3.41545 15.5526 3.68181C15.6825 3.94817 15.75 4.24064 15.75 4.537V11.904C15.75 12.892 15.077 13.754 14.118 13.994L13.904 14.047C11.9813 14.5275 9.9561 14.39 8.116 13.654C6.68841 13.0832 5.12567 12.9397 3.618 13.241L1.75 13.615V21C1.75 21.1989 1.67098 21.3897 1.53033 21.5303C1.38968 21.671 1.19891 21.75 1 21.75C0.801088 21.75 0.610322 21.671 0.46967 21.5303C0.329018 21.3897 0.25 21.1989 0.25 21V1C0.25 0.801088 0.329018 0.610322 0.46967 0.46967C0.610322 0.329018 0.801088 0.25 1 0.25ZM1.75 12.085L3.324 11.77C5.11731 11.4118 6.9761 11.5827 8.674 12.262C10.2211 12.8804 11.9236 12.9959 13.54 12.592L13.755 12.538C13.8963 12.5026 14.0218 12.421 14.1115 12.3061C14.2012 12.1912 14.2499 12.0497 14.25 11.904V4.537C14.2501 4.46859 14.2345 4.40107 14.2046 4.33957C14.1746 4.27807 14.131 4.22421 14.0772 4.18208C14.0233 4.13994 13.9605 4.11065 13.8936 4.09643C13.8266 4.08221 13.7574 4.08343 13.691 4.1C11.9069 4.54611 10.0276 4.41874 8.32 3.736L8.116 3.654C6.68841 3.08321 5.12567 2.93972 3.618 3.241L1.75 3.615V12.085Z" fill="#FFA756"/>
</svg>
