<svg width="36" height="29" viewBox="0 0 36 29" fill="none" xmlns="http://www.w3.org/2000/svg">
<path d="M0 6.33319C0 4.44929 0.541944 2.84598 1.70612 1.70361L3.71332 3.70776C1.48533 5.93236 3.43231 12.8467 9.79513 19.1998C16.158 25.553 23.0828 27.497 25.3108 25.2724L27.318 27.2765C23.5445 31.0443 14.9737 28.3588 7.78793 21.204C2.81008 16.2136 0 10.582 0 6.33319Z" fill="#2A3362"/>
<path d="M12.6654 29.0001C10.7787 29.0001 9.17291 28.4589 8.02881 27.2965L10.036 25.2924C12.264 27.517 19.1888 25.573 25.5517 19.2198C31.9145 12.8667 33.8615 5.95238 31.6335 3.72778L33.6407 1.72363C37.4142 5.49143 34.7246 14.0491 27.5589 21.224C22.5609 26.1943 16.9006 29.0001 12.6654 29.0001Z" fill="#2A3362"/>
<path d="M28.2013 18.3579C26.9769 14.8506 24.488 11.1029 21.1962 7.81609C14.0104 0.641243 5.43968 -2.02427 1.66615 1.72348C1.40521 2.00406 1.64608 2.66543 2.18802 3.20655C2.72996 3.74767 3.41241 3.98817 3.67335 3.72763C5.90134 1.50303 12.8262 3.44705 19.189 9.80019C22.1998 12.8064 24.4479 16.1734 25.5318 19.2798C26.4751 22.0054 26.3948 24.21 25.2909 25.3123C25.03 25.5728 25.2507 26.2342 25.8128 26.7954C26.3748 27.3565 27.0372 27.577 27.2981 27.3164C29.225 25.3724 29.5462 22.1858 28.2013 18.3579Z" fill="#2A3362"/>
<path d="M33.6205 1.72351C31.6936 -0.200472 28.5022 -0.521135 24.6684 0.801602C21.1558 2.02413 17.4024 4.50927 14.1106 7.79607C6.92479 14.9709 4.25521 23.5286 8.02875 27.2964C8.28968 27.557 8.97213 27.3365 9.51407 26.7753C10.056 26.2142 10.2969 25.5528 10.0359 25.2923C7.80795 23.0677 9.75494 16.1534 16.1178 9.80022C19.1286 6.794 22.5007 4.54936 25.5917 3.46712C28.3215 2.52517 30.5295 2.60533 31.6334 3.70761C31.8944 3.96815 32.5567 3.7477 33.1187 3.18654C33.6808 2.62538 33.9016 2.00409 33.6205 1.72351Z" fill="#2A3362"/>
</svg>
