<svg width="100" height="25" viewBox="0 0 100 25" fill="none" xmlns="http://www.w3.org/2000/svg">
<path fill-rule="evenodd" clip-rule="evenodd" d="M20.5749 15.7C24.1553 16.9 25.0126 16.95 25.0126 16.95V4C25.0126 1.8 23.1972 0 21.0287 0H3.98386C1.81543 0 0 1.8 0 4V21C0 23.2 1.81543 25 3.98386 25H20.9783C23.1972 25 24.9622 23.2 24.9622 21V20.85C24.9622 20.85 18.4569 18.15 15.179 16.55C12.9602 19.25 10.1362 20.9 7.2113 20.9C2.21886 20.9 0.504286 16.55 2.87443 13.65C3.37872 13 4.28643 12.45 5.64801 12.1C7.76601 11.6 11.1447 12.45 14.3217 13.45C14.8765 12.4 15.3807 11.25 15.7337 10H5.95058V9H10.9934V7.25H4.89158V6.25H10.9934V3.75C10.9934 3.75 10.9934 3.3 11.4473 3.3H13.9183V6.25H19.9697V7.25H13.9183V9H18.8603C18.4065 10.95 17.65 12.7 16.7927 14.25C18.2552 14.85 19.5663 15.35 20.5749 15.7Z" fill="#1677FF"/>
<path fill-rule="evenodd" clip-rule="evenodd" d="M6.05146 13.6C5.44632 13.65 4.23603 13.95 3.63089 14.5C1.7146 16.2 2.87446 19.25 6.75746 19.25C9.02675 19.25 11.296 17.8 13.061 15.5C10.5396 14.25 8.37118 13.35 6.05146 13.6Z" fill="#1677FF"/>
<path fill-rule="evenodd" clip-rule="evenodd" d="M54.2612 3.65C54.2612 4.95 55.2194 5.8 56.5305 5.8C57.8417 5.8 58.7998 4.95 58.7998 3.65C58.7998 2.4 57.8417 1.5 56.5305 1.5C55.2194 1.5 54.2612 2.4 54.2612 3.65Z" fill="#1677FF"/>
<path fill-rule="evenodd" clip-rule="evenodd" d="M47.9072 20.2001H51.8911V2.05005H47.9072V20.2001Z" fill="black"/>
<path fill-rule="evenodd" clip-rule="evenodd" d="M35.1994 13.8999L37.5695 5.7999H37.6704L39.8892 13.8999H35.1994ZM40.9482 2.6499H35.6532L29.7026 20.1999H33.3839L34.3925 16.7499H40.6961L41.6542 20.1999H46.3441L40.9482 2.6499Z" fill="black"/>
<path fill-rule="evenodd" clip-rule="evenodd" d="M54.564 20.2001H58.5478V6.8501H54.564V20.2001Z" fill="black"/>
<path fill-rule="evenodd" clip-rule="evenodd" d="M99.9494 6.8999H96.2177L93.898 14.9999H93.7971L91.074 6.8999H86.6362L91.9817 20.2999L89.7628 24.3999V24.4999H93.2424L99.9494 6.8999Z" fill="black"/>
<path fill-rule="evenodd" clip-rule="evenodd" d="M65.9104 17.9001C65.4565 17.9001 65.0531 17.8501 64.5488 17.7001V10.5001C65.3557 9.9501 66.0617 9.6501 66.9189 9.6501C68.3814 9.6501 69.5917 10.8001 69.5917 13.3001C69.5412 16.5001 67.8267 17.9001 65.9104 17.9001ZM68.4318 6.6001C66.9694 6.6001 65.8599 7.1501 64.5488 8.2001V6.9001H60.5649V24.4501H64.5488V20.1001C65.3052 20.3001 66.0112 20.4001 66.8685 20.4001C70.3985 20.4001 73.5755 17.8001 73.5755 13.2001C73.5755 9.0501 71.2558 6.6001 68.4318 6.6001Z" fill="black"/>
<path fill-rule="evenodd" clip-rule="evenodd" d="M81.8959 16.9501C80.8369 17.5001 80.2317 17.7501 79.5257 17.7501C78.5676 17.7501 77.9625 17.1501 77.9625 16.1501C77.9625 15.8001 78.0129 15.4001 78.3155 15.1001C78.7693 14.6501 79.7275 14.3001 81.8455 13.8001L81.8959 16.9501ZM85.8293 16.8501V11.3001C85.8293 8.2501 84.0139 6.6001 80.8369 6.6001C78.8197 6.6001 77.4077 6.9501 74.8359 7.7001L75.5419 10.7501C77.8616 9.7001 78.9206 9.2501 79.9796 9.2501C81.2908 9.2501 81.8455 10.1501 81.8455 11.6001V11.7001C77.3069 12.5501 75.8949 13.0001 75.0376 13.9001C74.382 14.5501 74.1299 15.4501 74.1299 16.5501C74.1299 19.1001 76.147 20.5001 78.0129 20.5001C79.4249 20.5001 80.5343 20.0001 82.0976 18.8501L82.3498 20.2501H86.3336L85.8293 16.8501Z" fill="black"/>
</svg>
