<svg width="150" height="40" viewBox="0 0 150 40" fill="none" xmlns="http://www.w3.org/2000/svg">
<path d="M130.859 9.61002L127.658 29.6727C127.646 29.7464 127.65 29.8218 127.671 29.8936C127.691 29.9655 127.727 30.032 127.776 30.0886C127.825 30.1451 127.885 30.1904 127.953 30.2211C128.022 30.2518 128.096 30.2673 128.17 30.2665H131.959C132.092 30.2676 132.222 30.221 132.324 30.135C132.426 30.049 132.494 29.9293 132.516 29.7977L135.717 9.73498C135.729 9.6613 135.724 9.58591 135.704 9.51407C135.684 9.44224 135.648 9.37571 135.599 9.31913C135.55 9.26256 135.49 9.21733 135.422 9.18659C135.353 9.15586 135.279 9.14037 135.204 9.14122H131.416C131.282 9.13858 131.152 9.18469 131.049 9.27095C130.947 9.35722 130.879 9.47774 130.859 9.61002ZM126.814 15.4648H123.22C123.086 15.4635 122.957 15.51 122.855 15.5959C122.752 15.6818 122.685 15.8013 122.664 15.9328L122.545 16.6714C122.545 16.6714 119.753 13.6517 114.81 15.6924C111.974 16.8608 110.613 19.2749 110.034 21.0434C110.034 21.0434 108.196 26.4182 112.353 29.3766C112.353 29.3766 116.209 32.2221 120.55 29.2015L120.475 29.6727C120.458 29.7834 120.477 29.8967 120.53 29.9953C120.584 30.0939 120.668 30.1724 120.77 30.2187C120.838 30.2506 120.912 30.2665 120.987 30.2665H124.584C124.718 30.2691 124.848 30.223 124.951 30.1368C125.053 30.0505 125.121 29.93 125.141 29.7977L127.329 16.0585C127.341 15.985 127.337 15.9096 127.316 15.8379C127.295 15.7661 127.259 15.6999 127.21 15.6439C127.161 15.5868 127.1 15.5411 127.032 15.51C126.964 15.479 126.889 15.464 126.814 15.4648ZM121.525 23.0579C121.385 24.0178 120.898 24.8937 120.157 25.5212C119.412 26.151 118.464 26.4911 117.488 26.4787C117.105 26.4832 116.724 26.4278 116.358 26.3147C114.806 25.8213 113.92 24.3456 114.175 22.7459C114.316 21.7864 114.803 20.9112 115.545 20.2841C116.289 19.6539 117.236 19.3128 118.212 19.3234C118.595 19.3195 118.976 19.3753 119.342 19.489C120.903 19.9792 121.785 21.4573 121.529 23.0586H121.525V23.0579ZM102.331 23.4375C104.281 23.4375 106.166 22.7466 107.647 21.4907C109.125 20.239 110.103 18.4998 110.404 16.5894C111.034 12.6154 107.899 9.14679 103.455 9.14679H96.2954C96.1618 9.14551 96.0321 9.19214 95.9301 9.27818C95.828 9.36421 95.7603 9.48395 95.7393 9.61559L92.5374 29.6783C92.5201 29.789 92.5395 29.9023 92.5928 30.0009C92.6462 30.0995 92.7304 30.178 92.8326 30.2243C92.9013 30.2561 92.9747 30.2721 93.0497 30.2721H96.8404C96.974 30.2733 97.1036 30.2267 97.2057 30.1407C97.3077 30.0546 97.3755 29.9349 97.3965 29.8033L98.3364 23.9119C98.3561 23.7795 98.4236 23.6587 98.5261 23.5723C98.6286 23.4859 98.7591 23.4397 98.8933 23.4423L102.331 23.4375ZM105.502 16.4088C105.268 17.878 104.121 18.9597 101.926 18.9597H99.1199L99.972 13.6167H102.728C104.997 13.6206 105.736 14.9459 105.502 16.4127V16.4088Z" fill="#0070E0"/>
<path d="M88.2182 15.8056L83.8826 23.0524L81.6821 15.8589C81.6476 15.7441 81.5767 15.6436 81.48 15.5725C81.3833 15.5015 81.266 15.4637 81.1459 15.4649H77.2331C77.1319 15.4636 77.0336 15.4987 76.9563 15.564C76.8791 15.6292 76.828 15.7201 76.8127 15.8199C76.8031 15.8861 76.81 15.9536 76.8326 16.0165L80.7757 28.1336L77.2092 33.8435C77.1789 33.8905 77.1586 33.9432 77.1494 33.9983C77.1403 34.0534 77.1425 34.1098 77.1559 34.1641C77.1694 34.2183 77.1937 34.2692 77.2276 34.3137C77.2615 34.3582 77.3041 34.3954 77.3528 34.4229C77.4181 34.4603 77.4922 34.4796 77.5674 34.4786H81.7818C81.9021 34.479 82.0204 34.4485 82.1254 34.3899C82.2304 34.3314 82.3184 34.2468 82.381 34.1443L93.3948 16.1033C93.4347 16.0404 93.4567 15.9679 93.4582 15.8936C93.4598 15.8192 93.4409 15.7458 93.4036 15.6814C93.3664 15.6168 93.3125 15.5633 93.2475 15.5265C93.1826 15.4897 93.1089 15.4709 93.0342 15.4721H88.8214C88.7006 15.471 88.5815 15.5011 88.4758 15.5596C88.3701 15.618 88.2814 15.7028 88.2182 15.8056ZM75.015 15.4649H71.4174C71.2836 15.4637 71.1538 15.5104 71.0516 15.5966C70.9493 15.6827 70.8815 15.8027 70.8605 15.9345L70.744 16.6723C70.744 16.6723 67.9499 13.6526 63.0071 15.6934C60.1722 16.8618 58.8103 19.2758 58.2334 21.0443C58.2334 21.0443 56.3935 26.4192 60.5504 29.3776C60.5504 29.3776 64.4065 32.223 68.7478 29.2025L68.6728 29.6737C68.6551 29.7844 68.6745 29.8978 68.7278 29.9965C68.7811 30.0951 68.8655 30.1736 68.968 30.2197C69.0358 30.2515 69.11 30.2674 69.185 30.2674H72.7818C72.9153 30.2684 73.0448 30.2216 73.1468 30.1357C73.2488 30.0497 73.3166 29.9301 73.3379 29.7986L75.5265 16.0595C75.5443 15.9487 75.5251 15.835 75.4717 15.7362C75.4184 15.6374 75.3339 15.5588 75.2313 15.5127C75.1632 15.4814 75.09 15.4652 75.015 15.4649ZM69.7252 23.0596C69.5836 24.0184 69.0969 24.8929 68.356 25.5198C67.6117 26.1495 66.6646 26.4903 65.6887 26.4797C65.3064 26.4839 64.9257 26.4286 64.5605 26.3157C63.0095 25.8222 62.1246 24.3466 62.3791 22.746C62.5209 21.7844 63.0098 20.9076 63.7539 20.2802C64.5008 19.6501 65.451 19.3106 66.4291 19.3243C66.8121 19.3204 67.1943 19.3761 67.5597 19.4899C69.1052 19.9802 69.9853 21.4574 69.7299 23.0596H69.7252ZM50.5323 23.4384C52.4782 23.4374 54.3605 22.7466 55.843 21.4892C57.3194 20.2375 58.2967 18.499 58.5972 16.5896C59.2276 12.6163 56.0919 9.14773 51.6494 9.14773H44.4893C44.3557 9.1464 44.226 9.19288 44.1238 9.27875C44.0216 9.36461 43.9537 9.48417 43.9323 9.61573L40.7408 29.6729C40.723 29.7837 40.7423 29.8973 40.7956 29.9961C40.849 30.095 40.9335 30.1735 41.0361 30.2197C41.1039 30.2507 41.1781 30.2674 41.2531 30.2674H45.0414C45.1752 30.2687 45.3051 30.222 45.4073 30.1358C45.5095 30.0496 45.5773 29.9297 45.5983 29.7978L46.5366 23.9064C46.5565 23.7742 46.624 23.6537 46.7265 23.5674C46.829 23.4811 46.9594 23.435 47.0935 23.4377L50.5323 23.4384ZM53.7031 16.4089C53.4693 17.8782 52.3228 18.9598 50.1278 18.9598H47.3217L48.1722 13.6168H50.9281C53.198 13.6208 53.9361 14.9468 53.7031 16.4129V16.4089Z" fill="#003087"/>
<path d="M26.0417 10.1783C26.127 5.74818 22.464 2.34961 17.427 2.34961H7.00843C6.76564 2.3495 6.53079 2.43587 6.34618 2.59318C6.16158 2.75048 6.03935 2.96837 6.00151 3.20761L1.82704 29.2286C1.80837 29.3465 1.81553 29.467 1.84804 29.5819C1.88054 29.6968 1.93763 29.8033 2.01535 29.8941C2.09308 29.9849 2.1896 30.0578 2.29827 30.1077C2.40695 30.1577 2.52519 30.1836 2.64486 30.1837H8.8172L7.85258 36.2088C7.8339 36.3267 7.84106 36.4472 7.87357 36.5621C7.90608 36.677 7.96316 36.7835 8.04088 36.8743C8.11861 36.9651 8.21513 37.038 8.3238 37.0879C8.43248 37.1379 8.55072 37.1638 8.67039 37.1639H13.6986C13.9411 37.1639 14.1574 37.0771 14.3425 36.9203C14.526 36.7627 14.5563 36.5454 14.5946 36.3059L16.0707 27.6431C16.1082 27.4043 16.2302 27.0939 16.4145 26.9363C16.5989 26.7787 16.76 26.6928 17.0034 26.6928H20.08C25.0132 26.6928 29.1981 23.1947 29.9632 18.3301C30.505 14.8774 29.0209 11.7359 26.0417 10.1783Z" fill="#001C64"/>
<path d="M10.1531 20.5873L8.61559 30.3118L7.65016 36.4118C7.6316 36.5297 7.63888 36.6502 7.67149 36.7651C7.7041 36.8799 7.76127 36.9863 7.83907 37.077C7.91687 37.1677 8.01345 37.2405 8.12216 37.2904C8.23086 37.3403 8.34912 37.3661 8.46878 37.3661H13.7906C14.0331 37.366 14.2677 37.2795 14.452 37.1222C14.6363 36.9649 14.7583 36.7471 14.7959 36.5081L16.1986 27.6423C16.2364 27.4032 16.3585 27.1854 16.5429 27.0282C16.7274 26.8709 16.962 26.7844 17.2047 26.7843H20.3371C25.2704 26.7843 29.4552 23.1947 30.2212 18.3301C30.7637 14.8774 29.0212 11.7351 26.0419 10.1775C26.0339 10.5452 26.002 10.9121 25.9454 11.2759C25.1802 16.1389 20.9938 19.7293 16.0621 19.7293H11.1592C10.9165 19.7296 10.6818 19.8162 10.4974 19.9736C10.313 20.131 10.1909 20.3481 10.1531 20.5873Z" fill="#0070E0"/>
<path d="M8.6145 30.3119H2.42301C2.30336 30.3119 2.18514 30.286 2.0765 30.236C1.96786 30.186 1.87137 30.1131 1.79371 30.0223C1.71604 29.9315 1.65904 29.825 1.62663 29.7101C1.59423 29.5952 1.58718 29.4746 1.60599 29.3568L5.78046 2.9498C5.81827 2.7107 5.94038 2.49291 6.12482 2.33562C6.30926 2.17833 6.54392 2.09187 6.78657 2.0918H17.427C22.464 2.0918 26.127 5.74825 26.0416 10.1775C24.7882 9.5217 23.3153 9.14682 21.702 9.14682H12.8313C12.5885 9.1467 12.3536 9.23308 12.169 9.39038C11.9844 9.54769 11.8622 9.76558 11.8243 10.0048L10.1536 20.5873L8.6137 30.3119H8.6145Z" fill="#003087"/>
</svg>
