<svg width="184" height="29" viewBox="0 0 184 29" fill="none" xmlns="http://www.w3.org/2000/svg">
<path d="M59.5334 6.77393H56.3018V23.3883H59.5334V6.77393Z" fill="#2A3362"/>
<path d="M72.0583 17.4961C72.0583 19.7808 70.573 20.823 68.6059 20.823C66.6389 20.823 65.3141 19.8009 65.3141 17.6164V11.6841H62.0825V18.3579C62.0825 21.6848 64.17 23.6288 67.6425 23.6288C69.8303 23.6288 71.0346 22.8271 71.8576 21.9253H72.0382L72.3192 23.4083H75.2899V11.6841H72.0583V17.4961Z" fill="#2A3362"/>
<path d="M103.772 21.0835C101.404 21.0835 100.079 20.0013 99.8581 18.4381H110.115C110.155 18.1174 110.195 17.7767 110.175 17.456C110.155 13.2473 106.964 11.4636 103.551 11.4636C99.5972 11.4636 96.6064 13.8285 96.6064 17.6364C96.6064 21.2639 99.4567 23.6288 103.752 23.6288C107.345 23.6288 109.734 22.0455 110.215 19.6005H107.024C106.663 20.5624 105.518 21.0835 103.772 21.0835ZM103.571 14.0089C105.639 14.0089 106.823 14.9308 107.024 16.2135H99.9384C100.239 14.9709 101.444 14.0089 103.571 14.0089Z" fill="#2A3362"/>
<path d="M115.695 13.3676H115.494L115.193 11.6841H112.263V23.3883H115.494V18.3579C115.494 16.0932 116.799 14.8306 119.248 14.8306C119.689 14.8306 120.131 14.8707 120.573 14.9508V11.6841H120.131C117.943 11.6841 116.618 12.145 115.695 13.3676Z" fill="#2A3362"/>
<path d="M136.429 19.7408H136.249L133.479 12.4256H130.147L127.437 19.7207H127.216L124.647 11.6841H121.436L125.39 23.3883H128.902L131.712 15.9329H131.913L134.683 23.3883H138.216L142.17 11.6841H138.958L136.429 19.7408Z" fill="#2A3362"/>
<path d="M155.036 19.9812V16.0732C155.036 12.8866 152.347 11.4636 148.995 11.4636C145.442 11.4636 143.214 13.1471 142.913 15.6723H146.144C146.385 14.57 147.308 13.9688 148.995 13.9688C150.681 13.9688 151.805 14.6101 151.805 15.8928V16.1934L146.526 16.5942C144.097 16.7746 142.311 17.8569 142.311 20.1616C142.311 22.5265 144.358 23.6488 147.349 23.6488C149.777 23.6488 151.243 22.9674 152.146 21.9654H152.306C152.808 23.1077 153.852 23.4284 154.956 23.4284H156.321V21.0434H156.02C155.357 21.0034 155.036 20.6827 155.036 19.9812ZM151.805 18.7387C151.805 20.5825 149.597 21.2038 147.71 21.2038C146.425 21.2038 145.582 20.8831 145.582 19.9812C145.582 19.1796 146.305 18.7988 147.389 18.6986L151.825 18.3779L151.805 18.7387Z" fill="#2A3362"/>
<path d="M166.999 11.6841L163.225 20.1616H163.025L159.191 11.6841H155.698L161.158 23.3883H165.032L170.471 11.6841H166.999Z" fill="#2A3362"/>
<path d="M180.808 19.6005C180.407 20.5624 179.263 21.0835 177.537 21.0835C175.168 21.0835 173.843 20.0013 173.623 18.4381H183.879C183.92 18.1174 183.96 17.7767 183.94 17.456C183.92 13.2473 180.728 11.4636 177.316 11.4636C173.362 11.4636 170.391 13.8285 170.391 17.6364C170.391 21.2639 173.241 23.6288 177.537 23.6288C181.13 23.6288 183.518 22.0455 184 19.6005H180.808ZM177.316 14.0089C179.383 14.0089 180.568 14.9308 180.768 16.2135H173.683C173.984 14.9709 175.168 14.0089 177.316 14.0089Z" fill="#2A3362"/>
<path d="M51.0632 10.8223C51.0632 9.80019 51.7857 9.35928 52.7291 9.35928C53.1707 9.35928 53.5922 9.4194 54.0137 9.53965L54.5557 7.1948C53.7729 6.91422 52.9499 6.77393 52.127 6.77393C49.7384 6.77393 47.8115 8.03654 47.8115 10.662V11.6841H45.0215V14.2494H47.8115V23.3883H51.0632V14.2494H54.7163V11.6841H51.0632V10.8223Z" fill="#2A3362"/>
<path d="M82.4559 8.39746H79.4451L79.2845 11.7043H76.7354V14.2696H79.2243V20.0416C79.2243 22.0056 80.2279 23.649 83.2387 23.649C84.0215 23.649 84.8043 23.5688 85.567 23.3885V20.9234C85.1254 21.0236 84.6839 21.0837 84.2222 21.0837C82.6165 21.0837 82.4559 20.1618 82.4559 19.4603V14.2496H85.6674V11.6843H82.4559V8.39746Z" fill="#2A3362"/>
<path d="M92.6121 8.39746H89.6213L89.4608 11.7043H86.9116V14.2696H89.4005V20.0416C89.4005 22.0056 90.4041 23.649 93.4149 23.649C94.1978 23.649 94.9605 23.5488 95.7232 23.3885V20.9234C95.2816 21.0236 94.8401 21.0837 94.3784 21.0837C92.7726 21.0837 92.6121 20.1618 92.6121 19.4603V14.2496H95.8236V11.6843H92.592V8.39746H92.6121Z" fill="#2A3362"/>
<path d="M0 6.33319C0 4.44929 0.541944 2.84598 1.70612 1.70361L3.71332 3.70776C1.48533 5.93236 3.43231 12.8467 9.79513 19.1998C16.158 25.553 23.0828 27.497 25.3108 25.2724L27.318 27.2765C23.5445 31.0443 14.9737 28.3588 7.78793 21.204C2.81008 16.2136 0 10.582 0 6.33319Z" fill="#2A3362"/>
<path d="M12.6654 29.0001C10.7787 29.0001 9.17291 28.4589 8.02881 27.2965L10.036 25.2924C12.264 27.517 19.1888 25.573 25.5517 19.2198C31.9145 12.8667 33.8615 5.95238 31.6335 3.72778L33.6407 1.72363C37.4142 5.49143 34.7246 14.0491 27.5589 21.224C22.5609 26.1943 16.9006 29.0001 12.6654 29.0001Z" fill="#2A3362"/>
<path d="M28.2013 18.3579C26.9769 14.8506 24.488 11.1029 21.1962 7.81609C14.0104 0.641243 5.43968 -2.02427 1.66615 1.72348C1.40521 2.00406 1.64608 2.66543 2.18802 3.20655C2.72996 3.74767 3.41241 3.98817 3.67335 3.72763C5.90134 1.50303 12.8262 3.44705 19.189 9.80019C22.1998 12.8064 24.4479 16.1734 25.5318 19.2798C26.4751 22.0054 26.3948 24.21 25.2909 25.3123C25.03 25.5728 25.2507 26.2342 25.8128 26.7954C26.3748 27.3565 27.0372 27.577 27.2981 27.3164C29.225 25.3724 29.5462 22.1858 28.2013 18.3579Z" fill="#2A3362"/>
<path d="M33.6205 1.72351C31.6936 -0.200472 28.5022 -0.521135 24.6684 0.801602C21.1558 2.02413 17.4024 4.50927 14.1106 7.79607C6.92479 14.9709 4.25521 23.5286 8.02875 27.2964C8.28968 27.557 8.97213 27.3365 9.51407 26.7753C10.056 26.2142 10.2969 25.5528 10.0359 25.2923C7.80795 23.0677 9.75494 16.1534 16.1178 9.80022C19.1286 6.794 22.5007 4.54936 25.5917 3.46712C28.3215 2.52517 30.5295 2.60533 31.6334 3.70761C31.8944 3.96815 32.5567 3.7477 33.1187 3.18654C33.6808 2.62538 33.9016 2.00409 33.6205 1.72351Z" fill="#2A3362"/>
</svg>
