<svg width="26" height="26" viewBox="0 0 26 26" fill="none" xmlns="http://www.w3.org/2000/svg">
<g clip-path="url(#clip0_64_4070)">
<path d="M-6.58154 0.000244141V26.0002H32.7223V0.000244141H-6.58154Z" fill="#012169"/>
<path d="M-6.58154 0.000244141L32.7223 26.0002L-6.58154 0.000244141ZM32.7223 0.000244141L-6.58154 26.0002L32.7223 0.000244141Z" fill="black"/>
<path d="M-6.58154 0.000244141L32.7223 26.0002M32.7223 0.000244141L-6.58154 26.0002" stroke="white" stroke-width="7.61898"/>
<mask id="mask0_64_4070" style="mask-type:luminance" maskUnits="userSpaceOnUse" x="-7" y="0" width="40" height="27">
<path d="M13.0704 13.0002H32.7223V26.0002L13.0704 13.0002ZM13.0704 13.0002V26.0002H-6.58154L13.0704 13.0002ZM13.0704 13.0002H-6.58154V0.000244141L13.0704 13.0002ZM13.0704 13.0002V0.000244141H32.7223L13.0704 13.0002Z" fill="white"/>
</mask>
<g mask="url(#mask0_64_4070)">
<path d="M-6.58154 0.000244141L32.7223 26.0002L-6.58154 0.000244141ZM32.7223 0.000244141L-6.58154 26.0002L32.7223 0.000244141Z" fill="black"/>
<path d="M-6.58154 0.000244141L32.7223 26.0002M32.7223 0.000244141L-6.58154 26.0002" stroke="#C8102E" stroke-width="5.07932"/>
</g>
<path d="M-7.36719 9.53354H9.92653V-0.866455H16.2151V9.53354H33.5089V16.4669H16.2151V26.8669H9.92653V16.4669H-7.36719V9.53354Z" fill="#C8102E" stroke="white" stroke-width="2.53966"/>
</g>
<defs>
<clipPath id="clip0_64_4070">
<rect width="26" height="26" rx="13" fill="white"/>
</clipPath>
</defs>
</svg>
