<svg width="21" height="18" viewBox="0 0 21 18" fill="none" xmlns="http://www.w3.org/2000/svg">
<path d="M18.75 13.5833V9C18.75 7.91659 18.5366 6.8438 18.122 5.84286C17.7074 4.84193 17.0997 3.93245 16.3336 3.16637C15.5675 2.40029 14.6581 1.7926 13.6571 1.37799C12.6562 0.963393 11.5834 0.75 10.5 0.75C9.41659 0.75 8.3438 0.963393 7.34286 1.37799C6.34193 1.7926 5.43245 2.40029 4.66637 3.16637C3.90029 3.93245 3.2926 4.84193 2.87799 5.84286C2.46339 6.8438 2.25 7.91659 2.25 9V13.5833" stroke="#2563EB" stroke-width="1.5"/>
<path d="M19.6668 12.2083V14.0416M1.3335 12.2083V14.0416" stroke="#2563EB" stroke-width="1.5" stroke-linecap="round"/>
<path d="M6.83333 10.6913C6.83333 9.99008 6.83333 9.63992 6.67292 9.39608C6.59385 9.27442 6.48704 9.17325 6.36125 9.10092C6.11283 8.95792 5.77733 8.99092 5.10725 9.05692C3.97792 9.16783 3.41325 9.22375 3.00808 9.52808C2.80301 9.68484 2.63155 9.88123 2.50392 10.1056C2.25 10.5557 2.25 11.1451 2.25 12.3267V13.7613C2.25 14.93 2.25 15.5148 2.5085 15.9668C2.60628 16.136 2.72606 16.2864 2.86783 16.4177C3.24642 16.7661 3.79733 16.8761 4.901 17.0924C5.67742 17.2455 6.06608 17.3225 6.353 17.1612C6.45959 17.1012 6.55309 17.0204 6.628 16.9237C6.83333 16.6597 6.83333 16.2491 6.83333 15.4259V10.6913ZM14.1667 10.6913C14.1667 9.99008 14.1667 9.63992 14.3271 9.39608C14.4077 9.27417 14.5141 9.17242 14.6387 9.10092C14.8872 8.95792 15.2227 8.99092 15.8927 9.05692C17.0221 9.16783 17.5868 9.22375 17.9919 9.52808C18.1963 9.683 18.3677 9.87917 18.4961 10.1056C18.75 10.5548 18.75 11.1442 18.75 12.3258V13.7603C18.75 14.9291 18.75 15.5139 18.4915 15.9658C18.3937 16.1351 18.2739 16.2854 18.1322 16.4168C17.7536 16.7652 17.2027 16.8752 16.099 17.0915C15.3226 17.2446 14.9339 17.3216 14.647 17.1603C14.5404 17.1003 14.4469 17.0195 14.372 16.9228C14.1667 16.6598 14.1667 16.2491 14.1667 15.4259V10.6913Z" stroke="#2563EB" stroke-width="1.5"/>
</svg>
