<svg width="20" height="20" viewBox="0 0 20 20" fill="none" xmlns="http://www.w3.org/2000/svg">
<path d="M7.26764 7.24995C7.17403 6.03602 7.45455 4.82255 8.07145 3.77288C8.68834 2.7232 9.612 1.88771 10.7181 1.37885C11.8242 0.86999 13.0596 0.712196 14.2581 0.926706C15.4566 1.14122 16.5606 1.71773 17.4215 2.57866C18.2824 3.43958 18.859 4.54358 19.0735 5.74207C19.288 6.94055 19.1302 8.17599 18.6213 9.28208C18.1125 10.3882 17.277 11.3118 16.2273 11.9287C15.1776 12.5456 13.9642 12.8261 12.7502 12.7325" stroke="#2563EB" stroke-width="1.5" stroke-linecap="round" stroke-linejoin="round"/>
<path d="M19.1668 14.5833C19.1668 15.3126 18.8771 16.0121 18.3614 16.5278C17.8456 17.0435 17.1462 17.3333 16.4168 17.3333H14.5835M14.5835 17.3333L16.4168 15.4999M14.5835 17.3333L16.4168 19.1666M0.833496 5.41659C0.833496 4.68724 1.12323 3.98777 1.63895 3.47204C2.15468 2.95632 2.85415 2.66659 3.5835 2.66659H5.41683M5.41683 2.66659L3.5835 4.49992M5.41683 2.66659L3.5835 0.833252M6.79183 19.1666C5.21158 19.1666 3.69606 18.5388 2.57865 17.4214C1.46125 16.304 0.833496 14.7885 0.833496 13.2083C0.833496 11.628 1.46125 10.1125 2.57865 8.99507C3.69606 7.87767 5.21158 7.24992 6.79183 7.24992C8.37208 7.24992 9.8876 7.87767 11.005 8.99507C12.1224 10.1125 12.7502 11.628 12.7502 13.2083C12.7502 14.7885 12.1224 16.304 11.005 17.4214C9.8876 18.5388 8.37208 19.1666 6.79183 19.1666Z" stroke="#2563EB" stroke-width="1.5" stroke-linecap="round" stroke-linejoin="round"/>
</svg>
