<svg width="36" height="36" viewBox="0 0 36 36" fill="none" xmlns="http://www.w3.org/2000/svg">
<circle cx="18" cy="18" r="18" fill="#2563EB"/>
<rect width="24" height="24" transform="translate(6 30) rotate(-90)" fill="#2563EB"/>
<path d="M17.8598 23.86L20.6498 26.64C20.8498 26.83 21.1598 26.83 21.3598 26.64L24.1498 23.86C24.4698 23.55 24.2398 23.01 23.7998 23.01L21.9998 23.01L21.9998 17C21.9998 16.45 21.5498 16 20.9998 16C20.4498 16 19.9998 16.45 19.9998 17L19.9998 23.01L18.2098 23.01C17.7598 23.01 17.5398 23.55 17.8598 23.86ZM14.6498 9.34997L11.8598 12.13C11.5398 12.44 11.7698 12.98 12.2098 12.98L13.9998 12.98L13.9998 19C13.9998 19.55 14.4498 20 14.9998 20C15.5498 20 15.9998 19.55 15.9998 19L15.9998 12.99L17.7898 12.99C18.2398 12.99 18.4598 12.45 18.1398 12.14L15.3498 9.35997C15.1598 9.15997 14.8398 9.15997 14.6498 9.34997Z" fill="white"/>
</svg>
