<svg width="30" height="36" viewBox="0 0 30 36" fill="none" xmlns="http://www.w3.org/2000/svg">
<path d="M25.0417 8.17826C25.127 3.74818 21.464 0.349609 16.427 0.349609H6.00843C5.76564 0.349496 5.53079 0.43587 5.34618 0.593175C5.16158 0.75048 5.03935 0.968375 5.00151 1.20761L0.827043 27.2286C0.808366 27.3465 0.815528 27.467 0.848036 27.5819C0.880544 27.6968 0.937626 27.8033 1.01535 27.8941C1.09308 27.9849 1.1896 28.0578 1.29827 28.1077C1.40695 28.1577 1.52519 28.1836 1.64486 28.1837H7.8172L6.85258 34.2088C6.8339 34.3267 6.84106 34.4472 6.87357 34.5621C6.90608 34.677 6.96316 34.7835 7.04088 34.8743C7.11861 34.9651 7.21513 35.038 7.3238 35.0879C7.43248 35.1379 7.55072 35.1638 7.67039 35.1639H12.6986C12.9411 35.1639 13.1574 35.0771 13.3425 34.9203C13.526 34.7627 13.5563 34.5454 13.5946 34.3059L15.0707 25.6431C15.1082 25.4043 15.2302 25.0939 15.4145 24.9363C15.5989 24.7787 15.76 24.6928 16.0034 24.6928H19.08C24.0132 24.6928 28.1981 21.1947 28.9632 16.3301C29.505 12.8774 28.0209 9.73588 25.0417 8.17826Z" fill="#001C64"/>
<path d="M9.15308 18.5873L7.61559 28.3118L6.65016 34.4118C6.6316 34.5297 6.63888 34.6502 6.67149 34.7651C6.7041 34.8799 6.76127 34.9863 6.83907 35.077C6.91687 35.1677 7.01345 35.2405 7.12216 35.2904C7.23086 35.3403 7.34912 35.3661 7.46878 35.3661H12.7906C13.0331 35.366 13.2677 35.2795 13.452 35.1222C13.6363 34.9649 13.7583 34.7471 13.7959 34.5081L15.1986 25.6423C15.2364 25.4032 15.3585 25.1854 15.5429 25.0282C15.7274 24.8709 15.962 24.7844 16.2047 24.7843H19.3371C24.2704 24.7843 28.4552 21.1947 29.2212 16.3301C29.7637 12.8774 28.0212 9.7351 25.0419 8.17749C25.0339 8.5452 25.002 8.91212 24.9454 9.27586C24.1802 14.1389 19.9938 17.7293 15.0621 17.7293H10.1592C9.91648 17.7296 9.68181 17.8162 9.49739 17.9736C9.31296 18.131 9.19088 18.3481 9.15308 18.5873Z" fill="#0070E0"/>
<path d="M7.6145 28.3119H1.42301C1.30336 28.3119 1.18514 28.286 1.0765 28.236C0.967855 28.186 0.871375 28.1131 0.79371 28.0223C0.716044 27.9315 0.659042 27.825 0.626634 27.7101C0.594225 27.5952 0.587182 27.4746 0.605988 27.3568L4.78046 0.949797C4.81827 0.710697 4.94038 0.492909 5.12482 0.335621C5.30926 0.178333 5.54392 0.0918726 5.78657 0.0917969H16.427C21.464 0.0917969 25.127 3.74825 25.0416 8.17753C23.7882 7.5217 22.3153 7.14682 20.702 7.14682H11.8313C11.5885 7.1467 11.3536 7.23308 11.169 7.39038C10.9844 7.54769 10.8622 7.76558 10.8243 8.00482L9.15359 18.5873L7.6137 28.3119H7.6145Z" fill="#003087"/>
</svg>
