<svg width="24" height="25" viewBox="0 0 24 25" fill="none" xmlns="http://www.w3.org/2000/svg">
<path d="M21.3295 0.543945H1.22974C0.58826 0.543945 0.000234224 1.07395 0.000234224 1.76295V3.98895C0.000234224 4.67795 0.58826 5.26095 1.22974 5.26095H21.3295C22.0245 5.26095 22.559 4.67795 22.6125 3.98895V1.81595C22.6125 1.07395 22.0245 0.543945 21.3295 0.543945ZM21.3295 13.0519H1.22974C0.909001 13.0519 0.58826 13.2109 0.320976 13.4229C0.107148 13.6349 -0.0532227 13.9529 -0.0532227 14.3239V16.5499C-0.0532227 17.2389 0.534803 17.8219 1.17629 17.8219H21.2761C21.971 17.8219 22.5056 17.2919 22.559 16.5499V14.3239C22.6125 13.5819 22.0245 13.0519 21.3295 13.0519ZM12.5626 19.2529H1.22974C0.909001 19.2529 0.58826 19.3589 0.374432 19.6239C0.160605 19.8359 0.000234224 20.1539 0.000234224 20.5249V22.7509C0.000234224 23.4399 0.58826 24.0229 1.22974 24.0229H12.5091C13.2041 24.0229 13.7387 23.4399 13.7387 22.7509V20.4719C13.7921 19.8359 13.2575 19.2529 12.5626 19.2529ZM22.6125 6.79795H1.22974C0.909001 6.79795 0.58826 6.90394 0.374432 7.16895C0.160605 7.38095 0.000234224 7.69895 0.000234224 8.06995V10.2959C0.000234224 10.9849 0.58826 11.5679 1.22974 11.5679H22.559C23.254 11.5679 23.7885 10.9849 23.7885 10.2959V8.06995C23.842 7.32795 23.3074 6.79795 22.6125 6.79795Z" fill="#00C3F7"/>
</svg>
