<svg width="20" height="21" viewBox="0 0 20 21" fill="none" xmlns="http://www.w3.org/2000/svg">
<path d="M15.0624 1.79492L18.5399 5.41992V19.2049H5.54932V19.2499H18.5843V5.46555L15.0624 1.79492Z" fill="#909090"/>
<path d="M15.0193 1.75H5.50488V19.205H18.5399V5.42063L15.0193 1.75Z" fill="#F4F4F4"/>
<path d="M5.40928 2.6875H1.41553V6.95437H13.978V2.6875H5.40928Z" fill="#7A7B7C"/>
<path d="M14.045 6.88182H1.49683V2.61182H14.045V6.88182Z" fill="#DD2025"/>
<path d="M5.65745 3.33367H4.84058V6.33367H5.48308V5.32179L5.62495 5.32992C5.76285 5.32802 5.89949 5.30331 6.02933 5.25679C6.14347 5.21804 6.24837 5.15612 6.33745 5.07492C6.4288 4.99832 6.50058 4.90105 6.54683 4.79117C6.6101 4.60912 6.63251 4.41536 6.61245 4.22367C6.60889 4.0867 6.58487 3.95104 6.5412 3.82117C6.50185 3.7273 6.44333 3.64268 6.36939 3.57273C6.29546 3.50277 6.20773 3.44902 6.11183 3.41492C6.02915 3.3843 5.94346 3.36251 5.8562 3.34992C5.79028 3.33918 5.72361 3.33375 5.65683 3.33367M5.5387 4.76742H5.48308V3.84242H5.6037C5.65694 3.83858 5.71036 3.84675 5.76001 3.86633C5.80967 3.88591 5.85429 3.9164 5.89058 3.95554C5.96578 4.05618 6.00595 4.17867 6.00495 4.30429C6.00495 4.45804 6.00495 4.59742 5.8662 4.69554C5.76627 4.75059 5.65247 4.77597 5.5387 4.76742ZM7.83308 3.32554C7.7637 3.32554 7.6962 3.33054 7.6487 3.33242L7.49995 3.33617H7.01245V6.33617H7.5862C7.80544 6.34181 8.02368 6.30466 8.2287 6.22679C8.39377 6.1616 8.53989 6.0561 8.6537 5.91992C8.76523 5.78314 8.84487 5.62322 8.88683 5.45179C8.93612 5.258 8.96007 5.05863 8.95808 4.85867C8.97031 4.62252 8.95204 4.38577 8.9037 4.15429C8.85743 3.9841 8.77179 3.82717 8.6537 3.69617C8.56107 3.59024 8.44713 3.50505 8.31933 3.44617C8.20984 3.39542 8.09464 3.35807 7.9762 3.33492C7.92911 3.3272 7.88142 3.32364 7.8337 3.32429M7.71995 5.78492H7.65745V3.86992H7.66558C7.79443 3.85502 7.92482 3.87827 8.04058 3.93679C8.12537 4.0045 8.19445 4.08979 8.24308 4.18679C8.29555 4.28888 8.3258 4.40092 8.33183 4.51554C8.33745 4.65304 8.33183 4.76554 8.33183 4.85867C8.33414 4.96594 8.32724 5.07321 8.3112 5.17929C8.29154 5.28808 8.25595 5.39338 8.20558 5.49179C8.14867 5.58357 8.07095 5.66065 7.9787 5.71679C7.90165 5.7668 7.81029 5.79008 7.7187 5.78304M10.8937 3.33617H9.37495V6.33617H10.0175V5.14617H10.83V4.58867H10.0175V3.89367H10.8925V3.33617" fill="#464648"/>
<path d="M13.6132 13.1594C13.6132 13.1594 15.6057 12.7982 15.6057 13.4788C15.6057 14.1594 14.3713 13.8826 13.6132 13.1594ZM12.1401 13.2113C11.8234 13.2811 11.5149 13.3835 11.2194 13.5169L11.4694 12.9544C11.7194 12.3919 11.9788 11.6251 11.9788 11.6251C12.2764 12.1276 12.6235 12.5992 13.0151 13.0326C12.7203 13.0765 12.4282 13.1366 12.1401 13.2126V13.2113ZM11.3513 9.14882C11.3513 8.55569 11.5432 8.39382 11.6926 8.39382C11.8419 8.39382 12.0101 8.46569 12.0157 8.98069C11.9669 9.49853 11.8585 10.009 11.6926 10.5019C11.4644 10.0884 11.3467 9.62299 11.3507 9.15069L11.3513 9.14882ZM8.44568 15.7213C7.83443 15.3557 9.72755 14.2301 10.0707 14.1938C10.0688 14.1944 9.08568 16.1038 8.44568 15.7213ZM16.1876 13.5594C16.1813 13.4969 16.1251 12.8051 14.8938 12.8344C14.3806 12.8254 13.8676 12.8616 13.3607 12.9426C12.8694 12.448 12.4464 11.8899 12.1032 11.2832C12.3193 10.6578 12.4503 10.0061 12.4926 9.34569C12.4744 8.59569 12.2951 8.16569 11.7201 8.17194C11.1451 8.17819 11.0613 8.68132 11.1369 9.43007C11.2109 9.93324 11.3507 10.4245 11.5526 10.8913C11.5526 10.8913 11.2869 11.7182 10.9357 12.5407C10.5844 13.3632 10.3444 13.7944 10.3444 13.7944C9.73354 13.9931 9.15851 14.2885 8.6413 14.6694C8.1263 15.1488 7.91693 15.5169 8.18818 15.8851C8.42193 16.2026 9.24005 16.2744 9.9713 15.3163C10.3592 14.821 10.7141 14.3007 11.0338 13.7588C11.0338 13.7588 12.1488 13.4532 12.4957 13.3694C12.8426 13.2857 13.2619 13.2194 13.2619 13.2194C13.2619 13.2194 14.2801 14.2438 15.2619 14.2076C16.2438 14.1713 16.1963 13.6207 16.1901 13.5607" fill="#DD2025"/>
<path d="M14.9712 1.7981V5.46872H18.4918L14.9712 1.7981Z" fill="#909090"/>
<path d="M15.0195 1.75V5.42063H18.5402L15.0195 1.75Z" fill="#F4F4F4"/>
<path d="M5.60936 3.28557H4.79248V6.28557H5.43748V5.27432L5.57998 5.28245C5.71788 5.28055 5.85452 5.25584 5.98436 5.20932C6.09849 5.17057 6.2034 5.10865 6.29248 5.02745C6.38315 4.95064 6.45427 4.85338 6.49998 4.7437C6.56326 4.56164 6.58566 4.36789 6.56561 4.1762C6.56204 4.03923 6.53803 3.90357 6.49436 3.7737C6.455 3.67983 6.39648 3.59521 6.32255 3.52525C6.24861 3.4553 6.16088 3.40155 6.06498 3.36745C5.98192 3.33653 5.89581 3.31453 5.80811 3.30182C5.74219 3.29109 5.67552 3.28566 5.60873 3.28557M5.49061 4.71932H5.43498V3.79432H5.55623C5.60947 3.79048 5.66289 3.79866 5.71254 3.81824C5.7622 3.83782 5.80682 3.86831 5.84311 3.90745C5.9183 4.00808 5.95848 4.13058 5.95748 4.2562C5.95748 4.40995 5.95748 4.54932 5.81873 4.64745C5.7188 4.70249 5.605 4.72725 5.49123 4.7187M7.78498 3.27745C7.71561 3.27745 7.64811 3.28245 7.60061 3.28432L7.45373 3.28807H6.96623V6.28807H7.53998C7.75922 6.29371 7.97746 6.25656 8.18248 6.1787C8.34755 6.11351 8.49367 6.00801 8.60748 5.87182C8.71901 5.73504 8.79865 5.57512 8.84061 5.4037C8.8899 5.2099 8.91385 5.01053 8.91186 4.81057C8.92409 4.57442 8.90581 4.33768 8.85748 4.1062C8.81121 3.936 8.72557 3.77907 8.60748 3.64807C8.51485 3.54214 8.40091 3.45695 8.27311 3.39807C8.16362 3.34732 8.04841 3.30997 7.92998 3.28682C7.88288 3.2791 7.8352 3.27555 7.78748 3.2762M7.67373 5.73682H7.61123V3.82182H7.61936C7.74821 3.80692 7.8786 3.83018 7.99436 3.8887C8.07914 3.9564 8.14823 4.0417 8.19686 4.1387C8.24933 4.24078 8.27958 4.35283 8.28561 4.46745C8.29123 4.60495 8.28561 4.71745 8.28561 4.81057C8.28792 4.91784 8.28102 5.02511 8.26498 5.1312C8.24532 5.23999 8.20973 5.34529 8.15936 5.4437C8.10245 5.53548 8.02473 5.61256 7.93248 5.6687C7.85543 5.7187 7.76407 5.74198 7.67248 5.73495M10.8456 3.28807H9.32686V6.28807H9.96936V5.09807H10.7819V4.54057H9.96936V3.84557H10.8444V3.28807" fill="white"/>
</svg>
