<svg width="16" height="20" viewBox="0 0 16 20" fill="none" xmlns="http://www.w3.org/2000/svg">
<path d="M1.33325 18.3335H14.6666" stroke="#9CA3AF" stroke-width="1.5" stroke-linecap="round"/>
<path d="M13.2807 6.75923L13.8991 6.14256C14.1426 5.89913 14.3357 5.61011 14.4675 5.29202C14.5993 4.97394 14.6672 4.633 14.6672 4.28869C14.6673 3.94438 14.5995 3.60343 14.4678 3.28531C14.336 2.9672 14.1429 2.67814 13.8995 2.43465C13.6561 2.19115 13.367 1.99799 13.049 1.8662C12.7309 1.7344 12.3899 1.66654 12.0456 1.6665C11.7013 1.66647 11.3604 1.73424 11.0422 1.86597C10.7241 1.9977 10.4351 2.19079 10.1916 2.43423L9.57324 3.05256C9.57324 3.05256 9.65074 4.3659 10.8091 5.52423C11.9674 6.68256 13.2807 6.76006 13.2807 6.76006L7.59991 12.4409C7.21491 12.8259 7.02324 13.0176 6.81074 13.1834C6.56019 13.379 6.29102 13.5453 6.00324 13.6826C5.76074 13.7984 5.50241 13.8842 4.98657 14.0559L2.79824 14.7859M9.57324 3.05173L3.89241 8.7334C3.50741 9.1184 3.31491 9.31006 3.14991 9.52256C2.95445 9.77264 2.78706 10.0434 2.65074 10.3301C2.53491 10.5726 2.44907 10.8309 2.27657 11.3467L1.54741 13.5351M1.54741 13.5351L1.36991 14.0692C1.3283 14.1938 1.32222 14.3275 1.35235 14.4553C1.38247 14.5831 1.44762 14.7 1.54047 14.7928C1.63333 14.8857 1.75022 14.9508 1.87803 14.981C2.00585 15.0111 2.13953 15.005 2.26407 14.9634L2.79824 14.7859M1.54741 13.5351L2.79824 14.7859" stroke="#9CA3AF" stroke-width="1.5"/>
</svg>
