<svg width="16" height="21" viewBox="0 0 16 21" fill="none" xmlns="http://www.w3.org/2000/svg">
<path d="M11.25 5.5C11.25 7.29493 9.79493 8.75 8 8.75V10.25C10.6234 10.25 12.75 8.12335 12.75 5.5H11.25ZM8 8.75C6.20507 8.75 4.75 7.29493 4.75 5.5H3.25C3.25 8.12335 5.37665 10.25 8 10.25V8.75ZM4.75 5.5C4.75 3.70507 6.20507 2.25 8 2.25V0.75C5.37665 0.75 3.25 2.87665 3.25 5.5H4.75ZM8 2.25C9.79493 2.25 11.25 3.70507 11.25 5.5H12.75C12.75 2.87665 10.6234 0.75 8 0.75V2.25ZM14.25 16C14.25 16.5294 13.8014 17.2105 12.6143 17.8041C11.4722 18.3751 9.84181 18.75 8 18.75V20.25C10.0242 20.25 11.8938 19.8414 13.2852 19.1457C14.6316 18.4725 15.75 17.4036 15.75 16H14.25ZM8 18.75C6.15819 18.75 4.52782 18.3751 3.38566 17.8041C2.19864 17.2105 1.75 16.5294 1.75 16H0.25C0.25 17.4036 1.36836 18.4725 2.71484 19.1457C4.10618 19.8414 5.97582 20.25 8 20.25V18.75ZM1.75 16C1.75 15.4706 2.19864 14.7895 3.38566 14.1959C4.52782 13.6249 6.15819 13.25 8 13.25V11.75C5.97582 11.75 4.10618 12.1586 2.71484 12.8543C1.36836 13.5275 0.25 14.5964 0.25 16H1.75ZM8 13.25C9.84181 13.25 11.4722 13.6249 12.6143 14.1959C13.8014 14.7895 14.25 15.4706 14.25 16H15.75C15.75 14.5964 14.6316 13.5275 13.2852 12.8543C11.8938 12.1586 10.0242 11.75 8 11.75V13.25Z" fill="#6D7280"/>
</svg>
