<svg width="18" height="18" viewBox="0 0 18 18" fill="none" xmlns="http://www.w3.org/2000/svg">
<path d="M9.06597 0.875008C5.07097 0.875008 1.78763 3.92751 1.46763 7.81917H0.666799C0.542892 7.81912 0.421763 7.85589 0.318801 7.92482C0.215838 7.99375 0.135689 8.09174 0.0885337 8.20632C0.0413786 8.3209 0.0293461 8.44692 0.0539647 8.56835C0.0785833 8.68979 0.138742 8.80117 0.226799 8.88834L1.6268 10.2767C1.74385 10.3927 1.90199 10.4578 2.0668 10.4578C2.23161 10.4578 2.38975 10.3927 2.5068 10.2767L3.9068 8.88834C3.99486 8.80117 4.05501 8.68979 4.07963 8.56835C4.10425 8.44692 4.09222 8.3209 4.04506 8.20632C3.99791 8.09174 3.91776 7.99375 3.8148 7.92482C3.71183 7.85589 3.59071 7.81912 3.4668 7.81917H2.72263C3.0393 4.62667 5.7543 2.12501 9.06597 2.12501C10.1578 2.1229 11.2319 2.40089 12.1857 2.9324C13.1394 3.46391 13.9409 4.23117 14.5135 5.16084C14.5554 5.23298 14.6113 5.296 14.6779 5.3462C14.7445 5.39639 14.8206 5.43273 14.9015 5.45308C14.9824 5.47344 15.0665 5.47739 15.149 5.4647C15.2314 5.45202 15.3105 5.42295 15.3815 5.37923C15.4526 5.3355 15.5142 5.27799 15.5626 5.21009C15.6111 5.14219 15.6455 5.06528 15.6638 4.98388C15.682 4.90249 15.6838 4.81825 15.669 4.73615C15.6542 4.65405 15.6232 4.57574 15.5776 4.50584C14.8933 3.39452 13.9355 2.47722 12.7956 1.84157C11.6557 1.20591 10.3711 0.873127 9.06597 0.875008ZM16.3676 7.72251C16.2507 7.60699 16.0929 7.54221 15.9285 7.54221C15.7641 7.54221 15.6063 7.60699 15.4893 7.72251L14.0835 9.11084C13.9952 9.19792 13.9348 9.30929 13.91 9.43079C13.8852 9.55229 13.897 9.67843 13.9441 9.79315C13.9912 9.90787 14.0714 10.006 14.1744 10.075C14.2774 10.1441 14.3986 10.1809 14.5226 10.1808H15.2718C14.9535 13.3725 12.2293 15.875 8.9018 15.875C7.80654 15.8778 6.72879 15.6003 5.77116 15.0687C4.81353 14.5372 4.00789 13.7693 3.43097 12.8383C3.38785 12.7685 3.33139 12.7078 3.26482 12.6597C3.19824 12.6117 3.12285 12.5772 3.04296 12.5583C2.96306 12.5393 2.88022 12.5363 2.79916 12.5494C2.71811 12.5625 2.64042 12.5915 2.57055 12.6346C2.42943 12.7217 2.32869 12.8612 2.29048 13.0226C2.25227 13.184 2.27972 13.3539 2.3668 13.495C3.05576 14.6075 4.01799 15.5251 5.16189 16.1605C6.30579 16.7959 7.59328 17.1279 8.9018 17.125C12.9085 17.125 16.206 14.075 16.5268 10.1808H17.3335C17.4575 10.1809 17.5787 10.1441 17.6817 10.075C17.7847 10.006 17.8649 9.90787 17.912 9.79315C17.9591 9.67843 17.9709 9.55229 17.9461 9.43079C17.9213 9.30929 17.8609 9.19792 17.7726 9.11084L16.3676 7.72251Z" fill="#374151"/>
</svg>
