<svg width="18" height="18" viewBox="0 0 18 18" fill="none" xmlns="http://www.w3.org/2000/svg">
<path fill-rule="evenodd" clip-rule="evenodd" d="M8.58317 1.29175C7.62562 1.29175 6.67744 1.48035 5.79277 1.84679C4.9081 2.21323 4.10428 2.75033 3.42718 3.42743C2.75009 4.10452 2.21299 4.90835 1.84655 5.79302C1.48011 6.67768 1.2915 7.62586 1.2915 8.58342C1.2915 9.54097 1.48011 10.4892 1.84655 11.3738C2.21299 12.2585 2.75009 13.0623 3.42718 13.7394C4.10428 14.4165 4.9081 14.9536 5.79277 15.32C6.67744 15.6865 7.62562 15.8751 8.58317 15.8751C10.517 15.8751 12.3717 15.1069 13.7392 13.7394C15.1066 12.3719 15.8748 10.5173 15.8748 8.58342C15.8748 6.64954 15.1066 4.79488 13.7392 3.42743C12.3717 2.05998 10.517 1.29175 8.58317 1.29175ZM0.0415039 8.58342C0.0415039 3.86675 3.8665 0.041748 8.58317 0.041748C13.2998 0.041748 17.1248 3.86675 17.1248 8.58342C17.1248 10.7167 16.3423 12.6684 15.049 14.1651L17.7748 16.8917C17.8362 16.949 17.8855 17.018 17.9197 17.0946C17.9538 17.1713 17.9722 17.2541 17.9737 17.338C17.9751 17.4219 17.9597 17.5053 17.9283 17.5831C17.8968 17.6609 17.8501 17.7316 17.7907 17.7909C17.7314 17.8503 17.6607 17.8971 17.5828 17.9285C17.505 17.96 17.4217 17.9754 17.3377 17.9739C17.2538 17.9724 17.1711 17.9541 17.0944 17.9199C17.0177 17.8857 16.9487 17.8365 16.8915 17.7751L14.1648 15.0492C12.6155 16.3916 10.6332 17.1289 8.58317 17.1251C3.8665 17.1251 0.0415039 13.3001 0.0415039 8.58342Z" fill="#374151"/>
</svg>
