<svg width="25" height="25" viewBox="0 0 25 25" fill="none" xmlns="http://www.w3.org/2000/svg">
<path fill-rule="evenodd" clip-rule="evenodd" d="M10.6104 3.75H14.7224C16.5604 3.75 18.0164 3.75 19.1554 3.903C20.3274 4.061 21.2764 4.393 22.0254 5.141C22.7034 5.819 23.0404 6.663 23.2154 7.691C23.3424 8.441 23.3884 9.33 23.4054 10.374C23.4178 10.4501 23.4191 10.5275 23.4094 10.604C23.412 10.89 23.414 11.188 23.4154 11.498C23.4159 11.6969 23.3374 11.8879 23.1971 12.0289C23.1277 12.0987 23.0451 12.1542 22.9542 12.1921C22.8633 12.2301 22.7659 12.2497 22.6674 12.25C22.4685 12.2505 22.2775 12.172 22.1365 12.0317C21.9954 11.8915 21.9159 11.7009 21.9154 11.502V11.25H3.41738C3.41538 11.638 3.41471 12.0547 3.41538 12.5C3.41538 14.407 3.41738 15.762 3.55538 16.79C3.69038 17.795 3.94438 18.375 4.36738 18.798C4.79038 19.221 5.37038 19.475 6.37638 19.61C7.40438 19.748 8.75838 19.75 10.6654 19.75H12.1654C12.3643 19.75 12.5551 19.829 12.6957 19.9697C12.8364 20.1103 12.9154 20.3011 12.9154 20.5C12.9154 20.6989 12.8364 20.8897 12.6957 21.0303C12.5551 21.171 12.3643 21.25 12.1654 21.25H10.6104C8.77238 21.25 7.31638 21.25 6.17738 21.097C5.00538 20.939 4.05638 20.607 3.30738 19.859C2.55938 19.11 2.22738 18.161 2.06938 16.989C1.91638 15.849 1.91638 14.394 1.91638 12.556V12.444C1.91505 11.7827 1.91738 11.1693 1.92338 10.604C1.91329 10.5276 1.91431 10.4501 1.92638 10.374C1.94238 9.467 1.97938 8.684 2.06938 8.011C2.22738 6.839 2.55938 5.89 3.30738 5.141C4.05638 4.393 5.00538 4.061 6.17738 3.903C7.31738 3.75 8.77238 3.75 10.6104 3.75ZM3.44238 9.75H21.8904C21.8664 9.035 21.8204 8.444 21.7364 7.942C21.5934 7.1 21.3494 6.587 20.9644 6.202C20.5414 5.779 19.9614 5.525 18.9554 5.39C17.9284 5.252 16.5734 5.25 14.6664 5.25H10.6664C8.75938 5.25 7.40538 5.252 6.37638 5.39C5.37138 5.525 4.79138 5.779 4.36838 6.202C3.94538 6.625 3.69138 7.205 3.55638 8.21C3.49638 8.655 3.46238 9.162 3.44238 9.749M16.1664 13.749C16.3653 13.749 16.5561 13.828 16.6967 13.9687C16.8374 14.1093 16.9164 14.3001 16.9164 14.499V18.689L17.6364 17.969C17.705 17.8953 17.7878 17.8362 17.8798 17.7952C17.9718 17.7542 18.0712 17.7322 18.1719 17.7304C18.2726 17.7286 18.3726 17.7472 18.466 17.7849C18.5594 17.8226 18.6442 17.8787 18.7154 17.95C18.7866 18.0212 18.8428 18.106 18.8805 18.1994C18.9182 18.2928 18.9367 18.3928 18.935 18.4935C18.9332 18.5942 18.9112 18.6935 18.8702 18.7855C18.8292 18.8775 18.7701 18.9603 18.6964 19.029L16.6964 21.029C16.5558 21.1694 16.3651 21.2483 16.1664 21.2483C15.9676 21.2483 15.777 21.1694 15.6364 21.029L13.6364 19.029C13.5627 18.9603 13.5036 18.8775 13.4626 18.7855C13.4216 18.6935 13.3996 18.5942 13.3978 18.4935C13.396 18.3928 13.4145 18.2928 13.4523 18.1994C13.49 18.106 13.5461 18.0212 13.6173 17.95C13.6886 17.8787 13.7734 17.8226 13.8668 17.7849C13.9602 17.7472 14.0602 17.7286 14.1609 17.7304C14.2616 17.7322 14.3609 17.7542 14.4529 17.7952C14.5449 17.8362 14.6277 17.8953 14.6964 17.969L15.4164 18.689V14.5C15.4164 14.3011 15.4954 14.1103 15.636 13.9697C15.7767 13.829 15.9675 13.75 16.1664 13.75M20.1364 13.97C20.277 13.8295 20.4676 13.7507 20.6664 13.7507C20.8651 13.7507 21.0558 13.8295 21.1964 13.97L23.1964 15.97C23.2701 16.0387 23.3292 16.1215 23.3702 16.2135C23.4112 16.3055 23.4332 16.4048 23.435 16.5055C23.4367 16.6062 23.4182 16.7062 23.3805 16.7996C23.3428 16.893 23.2866 16.9778 23.2154 17.049C23.1442 17.1203 23.0594 17.1764 22.966 17.2141C22.8726 17.2518 22.7726 17.2704 22.6719 17.2686C22.5712 17.2668 22.4718 17.2448 22.3798 17.2038C22.2878 17.1628 22.205 17.1037 22.1364 17.03L21.4164 16.31V20.5C21.4164 20.6989 21.3374 20.8897 21.1967 21.0303C21.0561 21.171 20.8653 21.25 20.6664 21.25C20.4675 21.25 20.2767 21.171 20.136 21.0303C19.9954 20.8897 19.9164 20.6989 19.9164 20.5V16.31L19.1964 17.03C19.1277 17.1037 19.0449 17.1628 18.9529 17.2038C18.8609 17.2448 18.7616 17.2668 18.6609 17.2686C18.5602 17.2704 18.4602 17.2518 18.3668 17.2141C18.2734 17.1764 18.1886 17.1203 18.1173 17.049C18.0461 16.9778 17.99 16.893 17.9523 16.7996C17.9145 16.7062 17.896 16.6062 17.8978 16.5055C17.8996 16.4048 17.9216 16.3055 17.9626 16.2135C18.0036 16.1215 18.0627 16.0387 18.1364 15.97L20.1364 13.97ZM5.91638 16.5C5.91638 16.3011 5.9954 16.1103 6.13605 15.9697C6.2767 15.829 6.46747 15.75 6.66638 15.75H10.6664C10.8653 15.75 11.0561 15.829 11.1967 15.9697C11.3374 16.1103 11.4164 16.3011 11.4164 16.5C11.4164 16.6989 11.3374 16.8897 11.1967 17.0303C11.0561 17.171 10.8653 17.25 10.6664 17.25H6.66638C6.46747 17.25 6.2767 17.171 6.13605 17.0303C5.9954 16.8897 5.91638 16.6989 5.91638 16.5Z" fill="#6D7280"/>
</svg>
