<svg width="25" height="25" viewBox="0 0 25 25" fill="none" xmlns="http://www.w3.org/2000/svg">
<path d="M22.3335 6.5H6.3335C4.12436 6.5 2.3335 8.29086 2.3335 10.5V18.5C2.3335 20.7091 4.12436 22.5 6.3335 22.5H18.3335C20.5426 22.5 22.3335 20.7091 22.3335 18.5V6.5Z" stroke="#6D7280" stroke-width="1.5" stroke-linejoin="round"/>
<path d="M22.3335 6.5C22.3335 4.29086 20.5426 2.5 18.3335 2.5H12.3335C10.1244 2.5 8.3335 4.29086 8.3335 6.5V6.5H22.3335V6.5Z" stroke="#6D7280" stroke-width="1.5" stroke-linejoin="round"/>
<path d="M2.3335 12.5L2.3335 16.5L6.3335 16.5C7.43807 16.5 8.3335 15.6046 8.3335 14.5V14.5C8.3335 13.3954 7.43807 12.5 6.3335 12.5L2.3335 12.5Z" stroke="#6D7280" stroke-width="1.5" stroke-linejoin="round"/>
</svg>
