<svg width="40" height="40" viewBox="0 0 40 40" fill="none" xmlns="http://www.w3.org/2000/svg">
<g clip-path="url(#clip0_1_1485)">
<path d="M49.9804 0H-10V40H49.9804V0Z" fill="#FF0000"/>
<path fill-rule="evenodd" clip-rule="evenodd" d="M21.5403 30.5146C21.1889 30.2099 20.7629 29.5929 20.7689 28.9981C20.8003 28.5547 21.1045 28.297 21.301 28.8384C21.5788 29.4359 22.1747 30.424 22.9958 29.8444C23.3546 29.5811 23.349 29.1934 22.8571 29.2379C22.2497 29.1963 21.8765 28.862 21.6047 28.0015C21.5553 27.5283 21.7521 27.5401 22.0268 27.8445C22.3799 28.2497 23.0827 28.862 23.858 28.5339C24.2889 28.3533 24.4105 27.9807 23.7595 27.889C23.1433 27.898 22.6403 27.4985 22.1395 26.8891C21.865 26.552 22.2699 26.2116 22.5131 26.4986C22.7299 26.6849 23.0337 27.0281 23.2939 27.0754C23.5949 27.1345 23.968 27.1051 24.3814 26.8863C24.827 26.5133 24.6823 26.2442 24.1414 26.1823C23.7221 26.2031 23.4937 26.3624 22.9528 26.0017C21.9806 25.3445 21.2077 24.4665 21.0869 23.4104C21.0076 22.7158 21.3811 22.5055 21.6916 22.5854C22.5362 22.8027 23.0887 24.3809 23.673 25.248C23.8643 25.4979 24.0401 25.5019 24.1645 25.4249C24.3989 25.2239 24.5861 25.0587 24.8205 24.834C24.8205 24.834 26.5396 25.1429 27.4758 25.4481L26.4334 25.8185C26.0387 25.6006 25.5623 25.8356 25.5623 26.2137C25.1889 26.472 25.2189 26.7748 25.3801 27.067C25.4292 26.8635 25.4711 26.5992 25.7662 26.5641C26.1873 26.7383 26.6779 26.4897 26.6779 26.1608L27.9075 25.6775L29.1498 26.3808C29.1498 26.8563 29.6003 27.0069 30.069 26.8785C30.2898 27.0157 30.4318 27.2536 30.5066 27.5081C30.6449 27.1411 30.6161 26.882 30.3995 26.702C30.5238 26.2275 29.8589 25.7713 29.3442 26.0751L28.4505 25.562L29.9802 25.5191C30.1578 25.8334 30.7995 25.8507 30.9867 25.5191C31.1467 25.4753 31.2819 25.4474 31.5938 25.6793C31.4955 25.3041 31.3042 25.1437 31.0173 25.1437C30.7992 24.7573 30.0101 24.7591 29.8961 25.1941L28.3029 25.2384L29.2482 24.5653C29.6011 24.7737 30.0962 24.5421 30.1954 24.1636C30.3361 23.9964 30.5095 23.9178 30.851 24.0313C30.675 23.7196 30.427 23.6265 29.9791 23.8381C29.5706 23.5285 29.0321 23.904 29.1138 24.2157L27.8561 25.0715C26.9431 24.7991 25.2898 24.3749 25.2898 24.3749C25.4866 24.1678 25.6863 23.9754 25.8829 23.7655C25.9538 23.6425 25.8454 23.4993 25.6947 23.4695C24.2195 23.165 23.3749 22.5703 22.8631 21.0588C22.649 20.4258 23.1118 20.2367 23.2709 20.6239C23.4909 21.1624 23.7336 21.7509 24.396 22.2067C24.6245 22.3665 25.3045 22.236 24.9023 21.8545C24.4857 21.5113 24.3064 21.3637 24.1011 20.5293C24.1011 20.1066 24.532 19.9171 24.7723 20.3223C25.0295 21.1534 25.0558 21.5113 25.5213 22.0468C25.8741 22.4521 26.3341 22.7244 26.5625 22.7183C26.9734 22.7125 27.3871 22.2685 26.8375 21.9462C26.0303 21.6238 25.7354 21.1832 25.6166 20.7629C25.4866 20.0296 25.6286 19.6745 26.071 20.0353C26.6984 20.7482 27.8961 22.0763 28.5235 22.6946C29.2267 23.2331 30.0334 23.2506 30.6755 22.7036C31.0431 22.2805 30.9127 21.8252 30.3372 21.9226C29.0386 22.0322 28.0552 21.3873 26.9762 19.6448C26.765 19.2514 26.7071 18.6864 27.1731 19.1067C27.7108 19.8343 28.4948 20.4527 29.2239 20.7188C29.9557 20.9818 30.5599 20.8365 30.7943 20.6064C31.0767 20.324 31.0025 19.6125 30.5137 19.7841C30.1115 19.926 29.5447 19.9615 28.9549 19.7336C28.3645 19.5029 27.7514 19.006 27.1006 18.1631C26.8777 17.6869 26.9503 17.2846 27.4014 17.5299C28.4689 18.4353 29.8457 19.1687 30.5484 18.728C31.0662 18.4056 31.075 17.5773 30.4185 17.6307C29.0963 17.8108 28.5961 17.5182 27.3262 16.3972C27.0371 16.1812 27.0571 15.6337 27.517 15.9831C28.5845 16.6724 30.0422 16.9413 30.615 16.5807C31.13 16.2582 31.0546 15.2729 30.1869 15.6219C29.4926 16.045 28.7261 16.0332 27.1902 14.9359C26.8028 14.6135 27.0918 14.1932 27.4099 14.3737C28.6451 15.0777 30.4444 15.3793 30.9127 13.9478C31.0949 13.4007 30.7653 13.0812 30.2822 13.4598C29.2207 14.4418 28.0173 13.9596 27.3437 13.4655C27.1508 13.3518 26.7969 12.7763 27.4186 12.8831C29.027 13.2499 30.6178 12.9304 30.9071 11.7915C31.075 11.4217 30.7449 10.7679 30.1578 11.3153C29.3857 12.0784 28.567 12.1049 27.5374 12.0992C27.0137 11.9896 27.0081 11.4128 27.4477 11.3272C28.2605 11.3447 29.0617 10.9896 29.7038 10.6289C30.3316 10.2681 30.8522 9.76226 31.0172 9.06117C31.1183 8.4342 30.5138 7.7686 30.1494 8.4342C29.6113 9.40723 28.4195 10.3244 27.0946 10.4899C27.0256 10.3745 26.8518 10.0786 26.6378 10.1617C26.2487 10.3126 25.7852 10.5144 25.3079 10.7411C24.2791 11.2296 23.8504 11.4651 23.9739 12.3091C24.1029 13.1899 23.4239 13.7464 22.8631 13.5927C22.3739 13.4611 22.1041 13.0192 22.1918 12.2529C22.262 11.6423 22.875 10.9036 23.5658 10.5163C24.013 10.266 24.6882 10.1291 25.501 9.94855C25.9956 9.85112 26.2475 9.65872 26.2763 9.45735C26.2763 9.45735 25.9382 9.70477 25.397 9.66763C25.1411 9.64935 24.9697 9.53677 24.9051 9.42192C25.0933 9.38363 25.4345 9.42803 25.741 9.42803C26.1487 9.42477 27.0954 9.33346 27.3465 8.75946C27.4246 8.38083 27.1758 8.31277 26.9443 8.55529C26.6956 8.8174 26.5931 9.053 26.0941 9.141C25.7904 9.19443 25.4866 9.25643 25.096 9.16186C25.316 8.90055 25.6656 8.63317 25.9638 8.68243C26.0618 8.69877 26.1922 8.78929 26.2966 8.95192C26.3603 8.53775 26.2471 8.0702 25.1394 8.26546C25.157 7.95203 24.4973 7.81586 24.1011 7.82197C23.8755 7.82769 23.4155 7.961 23.0831 8.12037C22.5566 8.2834 22.036 8.40163 21.4225 8.44609C21.7785 8.75055 21.8451 8.76849 22.2006 9.02569C21.6629 9.22666 21.2463 9.64083 21.0582 9.91312C21.0582 9.91312 21.686 9.89557 21.8451 9.96649C21.1882 10.1585 20.8931 10.2739 20.5461 10.6289C20.6676 10.6497 20.8497 10.6851 20.9279 10.7149C21.0092 10.7443 20.9881 10.7976 20.9223 10.8478C20.7808 10.9558 20.1961 11.6349 20.0255 11.7975C19.8549 11.6349 19.2702 10.9558 19.1287 10.8478C19.0629 10.7976 19.0418 10.7443 19.1231 10.7149C19.2012 10.6852 19.3834 10.6497 19.5049 10.6289C19.1578 10.2739 18.8628 10.1585 18.2059 9.96649C18.365 9.89557 18.9927 9.91312 18.9927 9.91312C18.8046 9.64083 18.3881 9.22666 17.8503 9.02569C18.2059 8.76849 18.2725 8.75055 18.6284 8.44603C18.015 8.40163 17.4944 8.2834 16.9678 8.12032C16.6354 7.961 16.1754 7.82769 15.9498 7.82197C15.5537 7.81586 14.8939 7.95203 14.9115 8.2654C13.8038 8.0702 13.6906 8.53775 13.7544 8.95192C13.8588 8.78929 13.9891 8.69877 14.0872 8.68249C14.3854 8.63317 14.7349 8.90055 14.955 9.16186C14.5643 9.25643 14.2606 9.19443 13.9569 9.14106C13.4578 9.05306 13.3554 8.8174 13.1066 8.55535C12.8751 8.31277 12.6263 8.38083 12.7045 8.75952C12.9556 9.33346 13.9022 9.42477 14.31 9.42803C14.6165 9.42803 14.9577 9.38357 15.1459 9.42192C15.0813 9.53689 14.9099 9.64935 14.654 9.66763C14.1127 9.70477 13.7747 9.45735 13.7747 9.45735C13.8034 9.65872 14.0553 9.85106 14.55 9.94855C15.3627 10.1291 16.0379 10.2661 16.4851 10.5164C17.1759 10.9036 17.789 11.6423 17.8591 12.2529C17.9468 13.0192 17.677 13.4611 17.1879 13.5927C16.6271 13.7464 15.9481 13.1899 16.077 12.3091C16.2006 11.4651 15.7718 11.2296 14.743 10.7411C14.2658 10.5144 13.8022 10.3125 13.4132 10.1617C13.1991 10.0786 13.0254 10.3745 12.9564 10.4899C11.6314 10.3244 10.4397 9.40723 9.90155 8.4342C9.5372 7.7686 8.93257 8.4342 9.03377 9.06117C9.1988 9.76232 9.71937 10.2681 10.3471 10.6289C10.9893 10.9896 11.7905 11.3447 12.6033 11.3272C13.0429 11.4128 13.0373 11.9896 12.5135 12.0992C11.4839 12.1049 10.6653 12.0784 9.89314 11.3153C9.30606 10.7679 8.976 11.4217 9.14383 11.7915C9.4332 12.9303 11.024 13.2499 12.6323 12.8831C13.2541 12.7762 12.9002 13.3519 12.7072 13.4656C12.0337 13.9596 10.8303 14.4418 9.7688 13.4599C9.28572 13.0812 8.956 13.4007 9.13823 13.9478C9.60657 15.3793 11.4058 15.0777 12.6411 14.3737C12.9592 14.1932 13.2482 14.6135 12.8607 14.9359C11.3249 16.0332 10.5585 16.045 9.86406 15.6219C8.99634 15.2729 8.92097 16.2582 9.436 16.5807C10.0087 16.9414 11.4665 16.6724 12.5339 15.9831C12.9939 15.6337 13.0138 16.1812 12.7247 16.3972C11.4549 17.5182 10.9546 17.8108 9.63252 17.6307C8.97594 17.5773 8.98475 18.4055 9.50257 18.728C10.2053 19.1686 11.582 18.4353 12.6494 17.53C13.1007 17.2846 13.1732 17.6869 12.9504 18.1631C12.2995 19.006 11.6864 19.5029 11.0961 19.7336C10.5062 19.9615 9.93943 19.926 9.53726 19.7841C9.04852 19.6125 8.97423 20.324 9.25663 20.6064C9.49109 20.8365 10.0953 20.9818 10.8271 20.7188C11.5561 20.4527 12.3402 19.8343 12.8779 19.1067C13.3438 18.6864 13.286 19.2514 13.0747 19.6448C11.9958 21.3873 11.0125 22.0322 9.71377 21.9226C9.13823 21.8252 9.00789 22.2805 9.37537 22.7036C10.0175 23.2506 10.8243 23.2331 11.5274 22.6946C12.1548 22.0763 13.3525 20.7482 13.9799 20.0353C14.4224 19.6745 14.5643 20.0296 14.4344 20.7629C14.3155 21.1832 14.0207 21.6238 13.2135 21.9462C12.6638 22.2687 13.0775 22.7125 13.4885 22.7182C13.7169 22.7244 14.1769 22.4521 14.5297 22.0469C14.9952 21.5113 15.0215 21.1534 15.2786 20.3223C15.519 19.9171 15.9498 20.1066 15.9498 20.5293C15.7446 21.3637 15.5652 21.5113 15.1487 21.8544C14.7464 22.236 15.4265 22.3664 15.6549 22.2067C16.3174 21.7509 16.5601 21.1624 16.7801 20.6239C16.9391 20.2367 17.4019 20.4258 17.1879 21.0588C16.6761 22.5703 15.8315 23.165 14.3563 23.4695C14.2056 23.4992 14.0971 23.6425 14.1681 23.7655C14.3646 23.9754 14.5643 24.1677 14.7612 24.3749C14.7612 24.3749 13.1078 24.7991 12.1949 25.0715L10.9371 24.2157C11.0189 23.904 10.4804 23.5285 10.0718 23.838C9.62383 23.6265 9.37589 23.7196 9.19989 24.0313C9.54137 23.9178 9.71486 23.9964 9.85555 24.1636C9.95469 24.5421 10.4498 24.7737 10.8027 24.5653L11.748 25.2384L10.1549 25.1941C10.0409 24.7592 9.25172 24.7573 9.0336 25.1437C8.74675 25.1437 8.55532 25.3041 8.45703 25.6793C8.76903 25.4474 8.90429 25.4753 9.06423 25.5191C9.25143 25.8507 9.89314 25.8334 10.0706 25.5191L11.6004 25.562L10.7067 26.0751C10.192 25.7713 9.52714 26.2275 9.65143 26.702C9.43486 26.882 9.40594 27.1411 9.54429 27.5081C9.61903 27.2536 9.76109 27.0157 9.982 26.8785C10.4506 27.0069 10.9011 26.8563 10.9011 26.3808L12.1434 25.6775L13.3731 26.1608C13.3731 26.4897 13.8637 26.7383 14.2847 26.5641C14.5798 26.5992 14.6217 26.8635 14.6709 27.0669C14.832 26.7748 14.8621 26.472 14.4886 26.2137C14.4886 25.8356 14.0122 25.6005 13.6175 25.8185L12.5751 25.4481C13.5113 25.1429 15.2305 24.8341 15.2305 24.8341C15.4649 25.0587 15.6521 25.2239 15.8865 25.4249C16.0109 25.5019 16.1866 25.4979 16.3779 25.248C16.9623 24.3809 17.5147 22.8027 18.3594 22.5854C18.6699 22.5054 19.0434 22.7158 18.9641 23.4104C18.8433 24.4665 18.0703 25.3446 17.0982 26.0017C16.5573 26.3624 16.3289 26.2031 15.9096 26.1823C15.3687 26.2442 15.224 26.5133 15.6696 26.8863C16.083 27.1051 16.4561 27.1345 16.757 27.0754C17.0173 27.0281 17.321 26.6849 17.5379 26.4986C17.781 26.2116 18.186 26.552 17.9114 26.8891C17.4107 27.4985 16.9077 27.898 16.2914 27.889C15.6405 27.9807 15.7621 28.3533 16.193 28.5339C16.9683 28.862 17.671 28.2497 18.0242 27.8445C18.2988 27.5401 18.4957 27.5283 18.4463 28.0015C18.1744 28.862 17.8013 29.1963 17.1939 29.2379C16.702 29.1934 16.6964 29.5811 17.0551 29.8444C17.8763 30.424 18.4722 29.4359 18.75 28.8384C18.9465 28.2971 19.2506 28.5547 19.2821 28.9981C19.2881 29.5929 18.8621 30.2099 18.5107 30.5146C18.1594 30.8194 20.0254 32.7567 20.0254 32.7567C20.0254 32.7567 21.8915 30.8193 21.5402 30.5145L21.5403 30.5146ZM24.041 8.57517C23.7506 8.57517 23.5711 8.67689 23.5711 8.80032C23.5711 8.92569 23.7506 9.02786 24.041 9.02786C24.3298 9.02786 24.5131 8.91643 24.5131 8.79089C24.5131 8.66746 24.3297 8.57512 24.041 8.57512V8.57517ZM16.0099 8.57517C16.3004 8.57517 16.4798 8.67689 16.4798 8.80032C16.4798 8.92569 16.3004 9.02786 16.0099 9.02786C15.7212 9.02786 15.5378 8.91643 15.5378 8.79089C15.5378 8.66746 15.7213 8.57512 16.0099 8.57512V8.57517Z" fill="black"/>
</g>
<defs>
<clipPath id="clip0_1_1485">
<rect width="40" height="40" rx="20" fill="white"/>
</clipPath>
</defs>
</svg>
