<svg width="40" height="40" viewBox="0 0 40 40" fill="none" xmlns="http://www.w3.org/2000/svg">
<g clip-path="url(#clip0_1_15421)">
<path d="M-10 0H50V40H-10V0Z" fill="black"/>
<path d="M-10 0H50V20H-10V0Z" fill="#CC092F"/>
<path fill-rule="evenodd" clip-rule="evenodd" d="M16.0566 13.7199H18.4996L19.2404 11.4175L20.001 13.7199H22.4437L20.4815 15.1817L21.2421 17.524L19.2404 16.1024L17.2583 17.524L18.019 15.1817L16.0566 13.7199Z" fill="#FFCB00"/>
<path fill-rule="evenodd" clip-rule="evenodd" d="M24.9876 26.3136L23.0658 24.8116C25.0076 23.23 26.2693 20.8073 26.2693 18.1046C26.2693 13.9802 23.3264 10.5163 19.4419 9.69542L19.7422 8.29376C20.2828 8.41396 20.9171 8.64156 21.4376 8.82149L21.9383 7.98096C22.4783 8.24096 23.0795 8.50116 23.5797 8.82149L23.1995 9.72269C23.7002 10.0432 24.3045 10.5394 24.6406 10.9302L25.3924 10.3429C25.7929 10.7832 26.2736 11.2434 26.6139 11.7243L25.9332 12.4251C26.3728 13.0704 26.5427 13.3674 26.8668 14.1109L27.8219 13.8869C28.0023 14.4474 28.2762 15.1337 28.3766 15.7141L27.4722 16.0696C27.5802 16.5206 27.72 17.3085 27.711 17.9712C27.7103 18.0111 27.7073 18.0563 27.7073 18.0964L28.6518 18.2312C28.6118 18.812 28.592 19.4728 28.4715 20.0534H27.4906C27.3506 20.6537 27.1699 21.388 26.9499 21.9484L27.7705 22.4292C27.5104 22.9496 27.2504 23.5704 26.9099 24.071L26.009 23.6908C25.6683 24.1911 25.2883 24.6714 24.8678 25.1122L25.4482 25.8728C25.2883 26.0128 25.148 26.1532 24.9876 26.3135M20.7635 26.1332L22.215 27.0079C22.0796 27.1317 21.6742 27.3416 21.5667 27.3842L21.804 28.2952C21.2436 28.4758 20.6427 28.7358 20.0224 28.856L19.6621 27.9552C19.0814 28.0752 18.501 28.1552 17.9003 28.1552L17.7798 29.0961C17.2194 29.0562 16.5387 29.0961 15.918 28.956V28.0153C15.3572 27.9149 14.8167 27.7749 14.2964 27.5945L13.8357 28.416C13.3552 28.2153 12.7146 27.975 12.1938 27.6549L12.5344 26.754C12.1137 26.5335 11.7334 26.2534 11.373 25.9726L12.274 24.8314C13.7558 26.0129 15.6176 26.7133 17.6598 26.7133C18.7412 26.7133 19.802 26.5335 20.7635 26.1333" fill="#FFCB00"/>
<path fill-rule="evenodd" clip-rule="evenodd" d="M26.8121 28.4541L17.2301 21.1621L17.1428 21.2865L26.7001 28.5913L26.1329 29.3011L16.816 23.3251C14.2934 21.7434 14.3935 20.5022 14.9141 19.1607L15.3547 18.0796C15.595 19.4811 17.0362 20.5425 18.5379 21.7235L26.9988 28.2233L26.8121 28.4541ZM29.2177 30.6275C29.1982 30.6275 29.1788 30.6236 29.1607 30.6161C29.1426 30.6086 29.1262 30.5976 29.1124 30.5837C29.0986 30.5699 29.0877 30.5534 29.0802 30.5353C29.0728 30.5172 29.069 30.4978 29.0691 30.4783C29.069 30.4587 29.0729 30.4394 29.0803 30.4213C29.0878 30.4033 29.0987 30.3869 29.1126 30.373C29.1264 30.3592 29.1428 30.3483 29.1608 30.3408C29.1789 30.3333 29.1982 30.3295 29.2177 30.3295C29.3002 30.3295 29.3671 30.3961 29.3671 30.4783C29.3671 30.4979 29.3632 30.5173 29.3557 30.5354C29.3482 30.5535 29.3372 30.57 29.3233 30.5838C29.3095 30.5977 29.293 30.6087 29.2749 30.6162C29.2568 30.6237 29.2373 30.6275 29.2177 30.6275ZM28.6451 30.207C28.6055 30.2069 28.5677 30.1912 28.5397 30.1633C28.5118 30.1354 28.496 30.0975 28.4959 30.058C28.4959 30.0285 28.5046 29.9997 28.521 29.9752C28.5374 29.9506 28.5607 29.9315 28.5879 29.9202C28.6151 29.9089 28.6451 29.906 28.674 29.9117C28.7029 29.9174 28.7295 29.9316 28.7504 29.9525C28.7712 29.9733 28.7854 29.9999 28.7912 30.0288C28.7969 30.0577 28.794 30.0877 28.7827 30.1149C28.7715 30.1421 28.7524 30.1654 28.7279 30.1818C28.7034 30.1982 28.6745 30.207 28.6451 30.207ZM28.0591 29.7399C27.9769 29.7399 27.91 29.6733 27.91 29.5912C27.9111 29.5524 27.9274 29.5157 27.9552 29.4887C27.983 29.4617 28.0202 29.4466 28.059 29.4466C28.0978 29.4466 28.135 29.4617 28.1628 29.4887C28.1906 29.5157 28.2068 29.5524 28.208 29.5912C28.208 29.6733 28.1413 29.7399 28.0591 29.7399ZM30.0293 30.5666L27.1583 28.3423L26.3241 29.4174L28.8181 31.1664C29.0184 31.3064 29.0381 31.9476 29.7785 32.0479C30.0794 32.0876 30.2791 31.8672 30.2791 31.8672C30.6017 31.4744 30.5138 30.9337 30.0293 30.5666Z" fill="#FFCB00"/>
</g>
<defs>
<clipPath id="clip0_1_15421">
<rect width="40" height="40" rx="20" fill="white"/>
</clipPath>
</defs>
</svg>
