<svg width="40" height="40" viewBox="0 0 40 40" fill="none" xmlns="http://www.w3.org/2000/svg">
<g clip-path="url(#clip0_1_6867)">
<path d="M50.2174 0H-10V40H50.2174V0Z" fill="#74ACDF"/>
<path d="M50.6197 13.3336H-10V26.6672H50.6197V13.3336Z" fill="white"/>
<path d="M19.625 20.1049L21.9013 25.0642C21.9013 25.0642 21.9405 25.159 22.0037 25.1329C22.0669 25.1068 22.0276 25.012 22.0276 25.012L20.1304 19.8955M20.076 21.8251C20.0483 22.5793 20.5122 22.9941 20.4516 23.6677C20.391 24.3413 20.761 24.7221 20.8467 24.984C20.9326 25.2459 20.7539 25.4026 20.8309 25.4398C20.908 25.4771 21.0765 25.2702 21.0216 24.8978C20.9666 24.5254 20.6839 24.4149 20.7504 23.5922C20.8168 22.7696 20.4139 22.578 20.512 21.8276" fill="#F6B40E"/>
<path d="M19.625 20.1049L21.9013 25.0642C21.9013 25.0642 21.9405 25.159 22.0037 25.1329C22.0669 25.1068 22.0276 25.012 22.0276 25.012L20.1304 19.8955M20.076 21.8251C20.0483 22.5793 20.5122 22.9941 20.4516 23.6677C20.391 24.3413 20.761 24.7221 20.8467 24.984C20.9326 25.2459 20.7539 25.4026 20.8309 25.4398C20.908 25.4771 21.0765 25.2702 21.0216 24.8978C20.9666 24.5254 20.6839 24.4149 20.7504 23.5922C20.8168 22.7696 20.4139 22.578 20.512 21.8276" stroke="#85340A" stroke-width="0.088928"/>
<path d="M19.6054 20.0001L19.8106 25.453C19.8106 25.453 19.8105 25.5556 19.8789 25.5557C19.9473 25.5557 19.9473 25.4531 19.9473 25.4531L20.1525 20.0001M19.3638 21.762C19.0496 22.4482 19.3194 23.0089 19.0057 23.608C18.6919 24.2071 18.888 24.7005 18.867 24.9753C18.8461 25.2502 18.6211 25.3265 18.6779 25.3904C18.7349 25.4544 18.9698 25.3277 19.0615 24.9626C19.1533 24.5975 18.9344 24.3872 19.3106 23.6526C19.6868 22.918 19.3879 22.5868 19.7656 21.9311" fill="#F6B40E"/>
<path d="M19.6054 20.0001L19.8106 25.453C19.8106 25.453 19.8105 25.5556 19.8789 25.5557C19.9473 25.5557 19.9473 25.4531 19.9473 25.4531L20.1525 20.0001M19.3638 21.762C19.0496 22.4482 19.3194 23.0089 19.0057 23.608C18.6919 24.2071 18.888 24.7005 18.867 24.9753C18.8461 25.2502 18.6211 25.3265 18.6779 25.3904C18.7349 25.4544 18.9698 25.3277 19.0615 24.9626C19.1533 24.5975 18.9344 24.3872 19.3106 23.6526C19.6868 22.918 19.3879 22.5868 19.7656 21.9311" stroke="#85340A" stroke-width="0.088928"/>
<path d="M19.6254 19.8956L17.7282 25.012C17.7282 25.012 17.6889 25.1067 17.752 25.133C17.8152 25.1592 17.8545 25.0644 17.8545 25.0644L20.1308 20.1049M18.7279 21.4309C18.175 21.9446 18.2097 22.566 17.6906 22.9994C17.1715 23.4328 17.1638 23.9637 17.0392 24.2096C16.9147 24.4555 16.6776 24.4399 16.7057 24.5207C16.7338 24.6016 16.9993 24.5744 17.2238 24.2722C17.4483 23.9701 17.3266 23.692 17.9552 23.1573C18.5839 22.6225 18.4345 22.2022 19.0345 21.7409" fill="#F6B40E"/>
<path d="M19.6254 19.8956L17.7282 25.012C17.7282 25.012 17.6889 25.1067 17.752 25.133C17.8152 25.1592 17.8545 25.0644 17.8545 25.0644L20.1308 20.1049M18.7279 21.4309C18.175 21.9446 18.2097 22.566 17.6906 22.9994C17.1715 23.4328 17.1638 23.9637 17.0392 24.2096C16.9147 24.4555 16.6776 24.4399 16.7057 24.5207C16.7338 24.6016 16.9993 24.5744 17.2238 24.2722C17.4483 23.9701 17.3266 23.692 17.9552 23.1573C18.5839 22.6225 18.4345 22.2022 19.0345 21.7409" stroke="#85340A" stroke-width="0.088928"/>
<path d="M19.6855 19.8067L15.9747 23.8076C15.9747 23.8076 15.9021 23.8801 15.9505 23.9285C15.9988 23.9769 16.0713 23.9043 16.0713 23.9043L20.0723 20.1935M18.2688 20.8817C17.5614 21.1447 17.3557 21.7321 16.7102 21.9338C16.0647 22.1356 15.8545 22.6231 15.6453 22.8026C15.4361 22.9821 15.2231 22.877 15.2181 22.9624C15.2131 23.0479 15.4688 23.1244 15.7918 22.9311C16.1149 22.7378 16.1088 22.4344 16.8943 22.1809C17.6797 21.9275 17.7025 21.4819 18.4334 21.2854" fill="#F6B40E"/>
<path d="M19.6855 19.8067L15.9747 23.8076C15.9747 23.8076 15.9021 23.8801 15.9505 23.9285C15.9988 23.9769 16.0713 23.9043 16.0713 23.9043L20.0723 20.1935M18.2688 20.8817C17.5614 21.1447 17.3557 21.7321 16.7102 21.9338C16.0647 22.1356 15.8545 22.6231 15.6453 22.8026C15.4361 22.9821 15.2231 22.877 15.2181 22.9624C15.2131 23.0479 15.4688 23.1244 15.7918 22.9311C16.1149 22.7378 16.1088 22.4344 16.8943 22.1809C17.6797 21.9275 17.7025 21.4819 18.4334 21.2854" stroke="#85340A" stroke-width="0.088928"/>
<path d="M20.2232 21.9529C20.2594 22.6772 20.6701 22.998 20.5894 23.658C20.7665 23.136 20.3396 22.7314 20.3638 21.9604M19.752 20.0599L21.3109 23.466L20.0046 19.9551" fill="#85340A"/>
<path d="M19.4501 21.9362C19.2064 22.6193 19.4631 23.0728 19.136 23.6517C19.4993 23.2372 19.2597 22.7 19.5772 21.997M19.7392 20.007L19.876 23.7504L20.0127 20.0068" fill="#85340A"/>
<path d="M18.7408 21.6248C18.2543 22.1626 18.3179 22.6798 17.7941 23.0895C18.2884 22.8456 18.2727 22.2576 18.835 21.7296M19.7462 19.953L18.44 23.4639L19.999 20.0575" fill="#85340A"/>
<path d="M18.2056 21.0661C17.5504 21.3768 17.4112 21.8789 16.7705 22.057C17.3205 22.0208 17.531 21.4716 18.2525 21.1989M19.7743 19.9063L17.224 22.6501L19.9678 20.0996" fill="#85340A"/>
<path d="M19.775 19.7471L14.8157 22.0234C14.8157 22.0234 14.7209 22.0626 14.747 22.1258C14.7731 22.189 14.8679 22.1497 14.8679 22.1497L19.9844 20.2525M18.0548 20.1981C17.3006 20.1704 16.8857 20.6343 16.2122 20.5736C15.5386 20.5131 15.1578 20.883 14.8959 20.9688C14.6339 21.0547 14.4773 20.876 14.44 20.953C14.4027 21.03 14.6097 21.1986 14.9821 21.1436C15.3545 21.0887 15.465 20.806 16.2877 20.8724C17.1103 20.9388 17.3019 20.536 18.0523 20.634" fill="#F6B40E"/>
<path d="M19.775 19.7471L14.8157 22.0234C14.8157 22.0234 14.7209 22.0626 14.747 22.1258C14.7731 22.189 14.8679 22.1497 14.8679 22.1497L19.9844 20.2525M18.0548 20.1981C17.3006 20.1704 16.8857 20.6343 16.2122 20.5736C15.5386 20.5131 15.1578 20.883 14.8959 20.9688C14.6339 21.0547 14.4773 20.876 14.44 20.953C14.4027 21.03 14.6097 21.1986 14.9821 21.1436C15.3545 21.0887 15.465 20.806 16.2877 20.8724C17.1103 20.9388 17.3019 20.536 18.0523 20.634" stroke="#85340A" stroke-width="0.088928"/>
<path d="M19.8807 19.7263L14.4277 19.9315C14.4277 19.9315 14.3251 19.9314 14.3251 19.9998C14.325 20.0682 14.4276 20.0681 14.4276 20.0681L19.8807 20.2733M18.1188 19.4847C17.4326 19.1704 16.8718 19.4403 16.2728 19.1265C15.6736 18.8128 15.1802 19.0088 14.9054 18.9879C14.6305 18.9669 14.5542 18.7419 14.4903 18.7988C14.4264 18.8557 14.5531 19.0906 14.9181 19.1824C15.2832 19.2741 15.4935 19.0552 16.2281 19.4314C16.9627 19.8076 17.2939 19.5087 17.9497 19.8865" fill="#F6B40E"/>
<path d="M19.8807 19.7263L14.4277 19.9315C14.4277 19.9315 14.3251 19.9314 14.3251 19.9998C14.325 20.0682 14.4276 20.0681 14.4276 20.0681L19.8807 20.2733M18.1188 19.4847C17.4326 19.1704 16.8718 19.4403 16.2728 19.1265C15.6736 18.8128 15.1802 19.0088 14.9054 18.9879C14.6305 18.9669 14.5542 18.7419 14.4903 18.7988C14.4264 18.8557 14.5531 19.0906 14.9181 19.1824C15.2832 19.2741 15.4935 19.0552 16.2281 19.4314C16.9627 19.8076 17.2939 19.5087 17.9497 19.8865" stroke="#85340A" stroke-width="0.088928"/>
<path d="M19.9848 19.747L14.8684 17.8498C14.8684 17.8498 14.7736 17.8104 14.7474 17.8736C14.7212 17.9368 14.816 17.976 14.816 17.976L19.7754 20.2524M18.4495 18.8495C17.9357 18.2966 17.3144 18.3313 16.881 17.8122C16.4475 17.293 15.9167 17.2854 15.6708 17.1608C15.4249 17.0363 15.4405 16.7992 15.3597 16.8273C15.2788 16.8554 15.306 17.1209 15.6081 17.3454C15.9103 17.5699 16.1884 17.4481 16.7231 18.0768C17.2578 18.7055 17.6782 18.5561 18.1395 19.156" fill="#F6B40E"/>
<path d="M19.9848 19.747L14.8684 17.8498C14.8684 17.8498 14.7736 17.8104 14.7474 17.8736C14.7212 17.9368 14.816 17.976 14.816 17.976L19.7754 20.2524M18.4495 18.8495C17.9357 18.2966 17.3144 18.3313 16.881 17.8122C16.4475 17.293 15.9167 17.2854 15.6708 17.1608C15.4249 17.0363 15.4405 16.7992 15.3597 16.8273C15.2788 16.8554 15.306 17.1209 15.6081 17.3454C15.9103 17.5699 16.1884 17.4481 16.7231 18.0768C17.2578 18.7055 17.6782 18.5561 18.1395 19.156" stroke="#85340A" stroke-width="0.088928"/>
<path d="M20.0742 19.8064L16.0733 16.0957C16.0733 16.0957 16.0008 16.0231 15.9524 16.0714C15.904 16.1197 15.9766 16.1923 15.9766 16.1923L19.6873 20.1932M18.9992 18.3897C18.7362 17.6823 18.1488 17.4766 17.9471 16.8311C17.7453 16.1856 17.2578 15.9754 17.0783 15.7662C16.8987 15.5571 17.0038 15.344 16.9185 15.339C16.833 15.334 16.7565 15.5897 16.9498 15.9127C17.143 16.2358 17.4465 16.2297 17.6999 17.0152C17.9534 17.8006 18.3989 17.8235 18.5955 18.5543" fill="#F6B40E"/>
<path d="M20.0742 19.8064L16.0733 16.0957C16.0733 16.0957 16.0008 16.0231 15.9524 16.0714C15.904 16.1197 15.9766 16.1923 15.9766 16.1923L19.6873 20.1932M18.9992 18.3897C18.7362 17.6823 18.1488 17.4766 17.9471 16.8311C17.7453 16.1856 17.2578 15.9754 17.0783 15.7662C16.8987 15.5571 17.0038 15.344 16.9185 15.339C16.833 15.334 16.7565 15.5897 16.9498 15.9127C17.143 16.2358 17.4465 16.2297 17.6999 17.0152C17.9534 17.8006 18.3989 17.8235 18.5955 18.5543" stroke="#85340A" stroke-width="0.088928"/>
<path d="M17.9278 20.3447C17.2035 20.381 16.8828 20.7917 16.2227 20.711C16.7447 20.8881 17.1493 20.4612 17.9203 20.4854M19.8209 19.8735L16.4147 21.4325L19.9257 20.1262" fill="#85340A"/>
<path d="M17.9446 19.5712C17.2616 19.3275 16.8081 19.5842 16.2291 19.2571C16.6436 19.6204 17.1808 19.3808 17.8838 19.6983M19.8739 19.8603L16.1304 19.9971L19.874 20.1338" fill="#85340A"/>
<path d="M18.2561 18.8629C17.7183 18.3764 17.2011 18.44 16.7914 17.9163C17.0353 18.4106 17.6233 18.3948 18.1513 18.9571M19.9278 19.8683L16.417 18.5622L19.8233 20.1211" fill="#85340A"/>
<path d="M18.8158 18.3277C18.5051 17.6724 18.0029 17.5333 17.8248 16.8926C17.861 17.4426 18.4103 17.6531 18.6829 18.3746M19.9755 19.8963L17.2317 17.346L19.7822 20.0898" fill="#85340A"/>
<path d="M20.1328 19.8951L17.8565 14.9358C17.8565 14.9358 17.8173 14.841 17.7541 14.8671C17.6909 14.8932 17.7302 14.988 17.7302 14.988L19.6274 20.1045M19.6818 18.1749C19.7095 17.4207 19.2456 17.0059 19.3062 16.3323C19.3668 15.6587 18.9969 15.2779 18.9111 15.016C18.8252 14.7541 19.0039 14.5974 18.9269 14.5602C18.8498 14.5229 18.6813 14.7298 18.7363 15.1022C18.7912 15.4746 19.0739 15.5851 19.0074 16.4078C18.941 17.2304 19.3439 17.422 19.2458 18.1724" fill="#F6B40E"/>
<path d="M20.1328 19.8951L17.8565 14.9358C17.8565 14.9358 17.8173 14.841 17.7541 14.8671C17.6909 14.8932 17.7302 14.988 17.7302 14.988L19.6274 20.1045M19.6818 18.1749C19.7095 17.4207 19.2456 17.0059 19.3062 16.3323C19.3668 15.6587 18.9969 15.2779 18.9111 15.016C18.8252 14.7541 19.0039 14.5974 18.9269 14.5602C18.8498 14.5229 18.6813 14.7298 18.7363 15.1022C18.7912 15.4746 19.0739 15.5851 19.0074 16.4078C18.941 17.2304 19.3439 17.422 19.2458 18.1724" stroke="#85340A" stroke-width="0.088928"/>
<path d="M20.1524 19.9999L19.9472 14.547C19.9472 14.547 19.9473 14.4444 19.8789 14.4443C19.8105 14.4443 19.8105 14.5469 19.8105 14.5469L19.6053 19.9999M20.394 18.238C20.7082 17.5518 20.4384 16.9911 20.7522 16.392C21.0659 15.7929 20.8698 15.2995 20.8908 15.0247C20.9117 14.7498 21.1367 14.6735 21.0799 14.6096C21.023 14.5456 20.7881 14.6723 20.6963 15.0374C20.6046 15.4025 20.8234 15.6128 20.4472 16.3474C20.0711 17.082 20.37 17.4132 19.9922 18.0689" fill="#F6B40E"/>
<path d="M20.1524 19.9999L19.9472 14.547C19.9472 14.547 19.9473 14.4444 19.8789 14.4443C19.8105 14.4443 19.8105 14.5469 19.8105 14.5469L19.6053 19.9999M20.394 18.238C20.7082 17.5518 20.4384 16.9911 20.7522 16.392C21.0659 15.7929 20.8698 15.2995 20.8908 15.0247C20.9117 14.7498 21.1367 14.6735 21.0799 14.6096C21.023 14.5456 20.7881 14.6723 20.6963 15.0374C20.6046 15.4025 20.8234 15.6128 20.4472 16.3474C20.0711 17.082 20.37 17.4132 19.9922 18.0689" stroke="#85340A" stroke-width="0.088928"/>
<path d="M20.1324 20.1049L22.0296 14.9885C22.0296 14.9885 22.0689 14.8938 22.0058 14.8675C21.9426 14.8413 21.9034 14.9361 21.9034 14.9361L19.627 19.8955M21.0299 18.5696C21.5828 18.0559 21.5481 17.4345 22.0672 17.0011C22.5863 16.5676 22.594 16.0368 22.7186 15.7909C22.8431 15.545 23.0802 15.5606 23.0521 15.4798C23.024 15.3989 22.7585 15.4261 22.534 15.7283C22.3095 16.0304 22.4313 16.3085 21.8026 16.8432C21.1739 17.378 21.3233 17.7983 20.7234 18.2596" fill="#F6B40E"/>
<path d="M20.1324 20.1049L22.0296 14.9885C22.0296 14.9885 22.0689 14.8938 22.0058 14.8675C21.9426 14.8413 21.9034 14.9361 21.9034 14.9361L19.627 19.8955M21.0299 18.5696C21.5828 18.0559 21.5481 17.4345 22.0672 17.0011C22.5863 16.5676 22.594 16.0368 22.7186 15.7909C22.8431 15.545 23.0802 15.5606 23.0521 15.4798C23.024 15.3989 22.7585 15.4261 22.534 15.7283C22.3095 16.0304 22.4313 16.3085 21.8026 16.8432C21.1739 17.378 21.3233 17.7983 20.7234 18.2596" stroke="#85340A" stroke-width="0.088928"/>
<path d="M20.0723 20.1933L23.7831 16.1924C23.7831 16.1924 23.8557 16.1199 23.8073 16.0715C23.759 16.0231 23.6865 16.0957 23.6865 16.0957L19.6855 19.8065M21.489 19.1183C22.1964 18.8553 22.4021 18.2679 23.0476 18.0662C23.6931 17.8644 23.9034 17.3769 24.1125 17.1974C24.3217 17.0179 24.5347 17.123 24.5397 17.0376C24.5447 16.9521 24.289 16.8756 23.966 17.0689C23.643 17.2622 23.649 17.5656 22.8635 17.8191C22.0781 18.0725 22.0553 18.5181 21.3245 18.7146" fill="#F6B40E"/>
<path d="M20.0723 20.1933L23.7831 16.1924C23.7831 16.1924 23.8557 16.1199 23.8073 16.0715C23.759 16.0231 23.6865 16.0957 23.6865 16.0957L19.6855 19.8065M21.489 19.1183C22.1964 18.8553 22.4021 18.2679 23.0476 18.0662C23.6931 17.8644 23.9034 17.3769 24.1125 17.1974C24.3217 17.0179 24.5347 17.123 24.5397 17.0376C24.5447 16.9521 24.289 16.8756 23.966 17.0689C23.643 17.2622 23.649 17.5656 22.8635 17.8191C22.0781 18.0725 22.0553 18.5181 21.3245 18.7146" stroke="#85340A" stroke-width="0.088928"/>
<path d="M19.5347 18.0471C19.4984 17.3228 19.0877 17.002 19.1684 16.342C18.9913 16.864 19.4182 17.2686 19.394 18.0396M20.0059 19.9401L18.4469 16.534L19.7532 20.0449" fill="#85340A"/>
<path d="M20.3077 18.0638C20.5514 17.3807 20.2947 16.9272 20.6218 16.3483C20.2585 16.7628 20.4981 17.3 20.1806 18.003M20.0186 19.993L19.8818 16.2496L19.7451 19.9932" fill="#85340A"/>
<path d="M21.017 18.3752C21.5035 17.8374 21.4399 17.3202 21.9637 16.9105C21.4694 17.1544 21.4851 17.7424 20.9228 18.2704M20.0116 20.047L21.3178 16.5361L19.7589 19.9425" fill="#85340A"/>
<path d="M21.5522 18.9339C22.2075 18.6232 22.3466 18.1211 22.9873 17.943C22.4373 17.9792 22.2268 18.5284 21.5053 18.8011M19.9835 20.0937L22.5338 17.3499L19.79 19.9004" fill="#85340A"/>
<path d="M19.9848 20.2529L24.9441 17.9766C24.9441 17.9766 25.0389 17.9374 25.0128 17.8742C24.9867 17.811 24.8919 17.8503 24.8919 17.8503L19.7754 19.7475M21.705 19.8019C22.4592 19.8296 22.874 19.3657 23.5476 19.4264C24.2212 19.4869 24.602 19.117 24.8639 19.0312C25.1258 18.9453 25.2825 19.124 25.3197 19.047C25.357 18.97 25.1501 18.8014 24.7777 18.8564C24.4053 18.9113 24.2947 19.194 23.4721 19.1276C22.6494 19.0612 22.4578 19.464 21.7074 19.366" fill="#F6B40E"/>
<path d="M19.9848 20.2529L24.9441 17.9766C24.9441 17.9766 25.0389 17.9374 25.0128 17.8742C24.9867 17.811 24.8919 17.8503 24.8919 17.8503L19.7754 19.7475M21.705 19.8019C22.4592 19.8296 22.874 19.3657 23.5476 19.4264C24.2212 19.4869 24.602 19.117 24.8639 19.0312C25.1258 18.9453 25.2825 19.124 25.3197 19.047C25.357 18.97 25.1501 18.8014 24.7777 18.8564C24.4053 18.9113 24.2947 19.194 23.4721 19.1276C22.6494 19.0612 22.4578 19.464 21.7074 19.366" stroke="#85340A" stroke-width="0.088928"/>
<path d="M19.8791 20.2737L25.3321 20.0685C25.3321 20.0685 25.4346 20.0686 25.4347 20.0002C25.4347 19.9318 25.3321 19.9319 25.3321 19.9319L19.8791 19.7267M21.641 20.5153C22.3272 20.8296 22.888 20.5597 23.487 20.8735C24.0862 21.1872 24.5795 20.9912 24.8544 21.0121C25.1292 21.0331 25.2056 21.2581 25.2694 21.2012C25.3334 21.1443 25.2067 20.9094 24.8416 20.8176C24.4766 20.7259 24.2662 20.9448 23.5316 20.5686C22.797 20.1924 22.4658 20.4913 21.8101 20.1135" fill="#F6B40E"/>
<path d="M19.8791 20.2737L25.3321 20.0685C25.3321 20.0685 25.4346 20.0686 25.4347 20.0002C25.4347 19.9318 25.3321 19.9319 25.3321 19.9319L19.8791 19.7267M21.641 20.5153C22.3272 20.8296 22.888 20.5597 23.487 20.8735C24.0862 21.1872 24.5795 20.9912 24.8544 21.0121C25.1292 21.0331 25.2056 21.2581 25.2694 21.2012C25.3334 21.1443 25.2067 20.9094 24.8416 20.8176C24.4766 20.7259 24.2662 20.9448 23.5316 20.5686C22.797 20.1924 22.4658 20.4913 21.8101 20.1135" stroke="#85340A" stroke-width="0.088928"/>
<path d="M19.775 20.253L24.8914 22.1502C24.8914 22.1502 24.9861 22.1896 25.0124 22.1264C25.0386 22.0632 24.9438 22.024 24.9438 22.024L19.9843 19.7476M21.3103 21.1505C21.824 21.7034 22.4454 21.6687 22.8787 22.1878C23.3122 22.707 23.8431 22.7146 24.089 22.8392C24.3349 22.9637 24.3193 23.2008 24.4001 23.1727C24.481 23.1446 24.4538 22.8791 24.1516 22.6546C23.8495 22.4301 23.5714 22.5519 23.0367 21.9232C22.5019 21.2945 22.0816 21.4439 21.6203 20.844" fill="#F6B40E"/>
<path d="M19.775 20.253L24.8914 22.1502C24.8914 22.1502 24.9861 22.1896 25.0124 22.1264C25.0386 22.0632 24.9438 22.024 24.9438 22.024L19.9843 19.7476M21.3103 21.1505C21.824 21.7034 22.4454 21.6687 22.8787 22.1878C23.3122 22.707 23.8431 22.7146 24.089 22.8392C24.3349 22.9637 24.3193 23.2008 24.4001 23.1727C24.481 23.1446 24.4538 22.8791 24.1516 22.6546C23.8495 22.4301 23.5714 22.5519 23.0367 21.9232C22.5019 21.2945 22.0816 21.4439 21.6203 20.844" stroke="#85340A" stroke-width="0.088928"/>
<path d="M19.6856 20.1936L23.6865 23.9043C23.6865 23.9043 23.759 23.9769 23.8074 23.9286C23.8558 23.8803 23.7832 23.8077 23.7832 23.8077L20.0724 19.8068M20.7606 21.6103C21.0236 22.3177 21.611 22.5234 21.8127 23.1689C22.0145 23.8144 22.502 24.0246 22.6815 24.2338C22.8611 24.4429 22.7559 24.656 22.8413 24.661C22.9268 24.666 23.0033 24.4103 22.81 24.0873C22.6167 23.7642 22.3133 23.7703 22.0598 22.9848C21.8064 22.1994 21.3608 22.1765 21.1643 21.4457" fill="#F6B40E"/>
<path d="M19.6856 20.1936L23.6865 23.9043C23.6865 23.9043 23.759 23.9769 23.8074 23.9286C23.8558 23.8803 23.7832 23.8077 23.7832 23.8077L20.0724 19.8068M20.7606 21.6103C21.0236 22.3177 21.611 22.5234 21.8127 23.1689C22.0145 23.8144 22.502 24.0246 22.6815 24.2338C22.8611 24.4429 22.7559 24.656 22.8413 24.661C22.9268 24.666 23.0033 24.4103 22.81 24.0873C22.6167 23.7642 22.3133 23.7703 22.0598 22.9848C21.8064 22.1994 21.3608 22.1765 21.1643 21.4457" stroke="#85340A" stroke-width="0.088928"/>
<path d="M21.8319 19.6553C22.5563 19.619 22.877 19.2083 23.5371 19.289C23.0151 19.1119 22.6104 19.5388 21.8395 19.5146M19.9389 20.1265L23.3451 18.5675L19.8341 19.8738" fill="#85340A"/>
<path d="M21.8151 20.4288C22.4982 20.6725 22.9517 20.4158 23.5306 20.7429C23.1161 20.3796 22.5789 20.6192 21.8759 20.3017M19.8859 20.1397L23.6294 20.0029L19.8857 19.8662" fill="#85340A"/>
<path d="M21.5037 21.1371C22.0415 21.6236 22.5587 21.56 22.9684 22.0837C22.7245 21.5894 22.1365 21.6052 21.6085 21.0429M19.8319 20.1317L23.3428 21.4378L19.9365 19.8789" fill="#85340A"/>
<path d="M20.944 21.6723C21.2547 22.3276 21.7568 22.4667 21.9349 23.1074C21.8988 22.5574 21.3495 22.3469 21.0769 21.6254M19.7842 20.1037L22.528 22.654L19.9775 19.9102" fill="#85340A"/>
<path d="M19.8804 22.2223C21.1078 22.2223 22.1027 21.2274 22.1027 20.0001C22.1027 18.7728 21.1078 17.7778 19.8804 17.7778C18.6531 17.7778 17.6582 18.7728 17.6582 20.0001C17.6582 21.2274 18.6531 22.2223 19.8804 22.2223Z" fill="#F6B40E" stroke="#85340A" stroke-width="0.12"/>
<path d="M20.6364 19.5249C20.4847 19.5249 20.3394 19.5907 20.2539 19.7274C20.4248 19.8812 20.8024 19.8979 21.0589 19.7099C20.9478 19.5903 20.7881 19.5249 20.6364 19.5249ZM20.6339 19.5599C20.7816 19.5572 20.9196 19.6251 20.9389 19.6924C20.768 19.8804 20.4948 19.8641 20.3239 19.7274C20.3987 19.6077 20.519 19.562 20.6339 19.5599Z" fill="#843511"/>
<path d="M20.6653 19.419C20.4432 19.419 20.3918 19.4703 20.2892 19.5558C20.1866 19.6412 20.1354 19.6241 20.1183 19.6412C20.1013 19.6584 20.1183 19.7096 20.1524 19.6924C20.1866 19.6753 20.2551 19.6412 20.3575 19.5558C20.4602 19.4702 20.5626 19.4703 20.6652 19.4703C20.9729 19.4703 21.1438 19.7267 21.178 19.7095C21.2121 19.6924 21.007 19.4189 20.6652 19.4189L20.6653 19.419Z" fill="#85340A"/>
<path d="M21.2811 19.5216C20.888 19.1797 20.3923 19.1284 20.1187 19.3849C20.0518 19.4745 20.0089 19.5704 19.9913 19.6704C19.9568 19.8651 20.0177 20.0754 20.1702 20.2909C20.153 20.2908 20.1187 20.3079 20.1016 20.325C19.9659 20.0655 19.9179 19.7989 19.9624 19.5454C19.9741 19.4792 19.9923 19.414 20.016 19.3505C20.3921 19.0429 20.9048 19.0087 21.2809 19.5216L21.2811 19.5216Z" fill="#85340A"/>
<path d="M20.6324 19.8458C20.7173 19.8458 20.7862 19.7769 20.7862 19.6919C20.7862 19.607 20.7173 19.5381 20.6324 19.5381C20.5474 19.5381 20.4785 19.607 20.4785 19.6919C20.4785 19.7769 20.5474 19.8458 20.6324 19.8458Z" fill="#85340A"/>
<path d="M21.0763 19.7952C20.7857 20.0174 20.4951 20.0003 20.3242 19.8977C20.1532 19.7952 20.1532 19.761 20.1874 19.761C20.2215 19.761 20.2556 19.7952 20.3924 19.8635C20.5292 19.932 20.7343 19.932 21.0761 19.7952L21.0763 19.7952Z" fill="#85340A"/>
<path d="M19.5391 20.3071C19.466 20.3205 19.4141 20.3853 19.4141 20.4596C19.4141 20.5445 19.4843 20.6121 19.5691 20.6121C19.6192 20.6121 19.6653 20.5884 19.6941 20.5471C19.7532 20.5916 19.8352 20.5963 19.8791 20.5971C19.8858 20.5973 19.8945 20.5971 19.8991 20.5971C19.9429 20.5963 20.0249 20.5916 20.0841 20.5471C20.1129 20.5884 20.1589 20.6121 20.2091 20.6121C20.2939 20.6121 20.3641 20.5445 20.3641 20.4596C20.3641 20.3853 20.3121 20.3205 20.2391 20.3071C20.2801 20.3216 20.3066 20.3612 20.3066 20.4046C20.3066 20.4612 20.2609 20.5071 20.2041 20.5071C20.1496 20.5071 20.1048 20.4639 20.1016 20.4096C20.0849 20.4429 20.0188 20.542 19.8891 20.5471C19.7593 20.542 19.6933 20.4429 19.6766 20.4096C19.6734 20.4639 19.6285 20.5071 19.5741 20.5071C19.5173 20.5071 19.4716 20.4612 19.4716 20.4046C19.4716 20.3613 19.498 20.3216 19.5391 20.3071Z" fill="#85340A"/>
<path d="M19.7067 20.7624C19.5357 20.7624 19.4681 20.9173 19.3142 21.0199C19.3997 20.9858 19.467 20.9184 19.5867 20.8499C19.7064 20.7815 19.8084 20.8649 19.8767 20.8649H19.8792C19.9475 20.8649 20.0495 20.7816 20.1692 20.8499C20.2889 20.9184 20.3587 20.9858 20.4442 21.0199C20.2903 20.9173 20.2202 20.7624 20.0492 20.7624C20.0151 20.7624 19.9475 20.7808 19.8792 20.8149H19.8767C19.8084 20.7808 19.7408 20.7624 19.7067 20.7624Z" fill="#85340A"/>
<path d="M19.6483 20.9647C19.5808 20.9677 19.4915 20.9813 19.3633 21.0197C19.6711 20.9514 19.739 21.0547 19.8758 21.0547H19.8783C20.0151 21.0547 20.083 20.9514 20.3908 21.0197C20.0488 20.9172 19.9808 20.9847 19.8783 20.9847H19.8758C19.8117 20.9847 19.7608 20.9597 19.6483 20.9647Z" fill="#85340A"/>
<path d="M19.3796 21.0176C19.3597 21.0179 19.3381 21.018 19.3146 21.0201C19.6736 21.0543 19.501 21.2601 19.8771 21.2601H19.8796C20.2556 21.2601 20.0855 21.0543 20.4446 21.0201C20.0685 20.986 20.1874 21.2076 19.8796 21.2076H19.8771C19.5885 21.2076 19.6774 21.0139 19.3796 21.0176Z" fill="#85340A"/>
<path d="M20.1876 21.5728C20.1876 21.4029 20.0497 21.2651 19.8798 21.2651C19.71 21.2651 19.5721 21.4029 19.5721 21.5728C19.606 21.4303 19.7335 21.3297 19.8798 21.3297C20.0265 21.3297 20.1538 21.4303 20.1876 21.5728Z" fill="#85340A"/>
<path d="M18.4979 19.5216C18.8911 19.1797 19.3867 19.1284 19.6603 19.3849C19.7273 19.4745 19.7702 19.5704 19.7878 19.6704C19.8222 19.8651 19.7614 20.0754 19.6089 20.2909C19.6261 20.2908 19.6603 20.3079 19.6774 20.325C19.8131 20.0655 19.8611 19.7989 19.8166 19.5454C19.8049 19.4792 19.7867 19.414 19.763 19.3505C19.387 19.0429 18.8742 19.0087 18.4982 19.5216L18.4979 19.5216Z" fill="#85340A"/>
<path d="M19.114 19.419C19.3361 19.419 19.3875 19.4703 19.4901 19.5558C19.5927 19.6412 19.6439 19.6241 19.661 19.6412C19.678 19.6584 19.661 19.7096 19.6269 19.6924C19.5927 19.6753 19.5242 19.6412 19.4218 19.5558C19.3191 19.4702 19.2167 19.4703 19.1141 19.4703C18.8064 19.4703 18.6355 19.7267 18.6013 19.7095C18.5672 19.6924 18.7723 19.4189 19.1141 19.4189L19.114 19.419Z" fill="#85340A"/>
<path d="M19.1032 19.5249C18.9515 19.5249 18.8062 19.5907 18.7207 19.7274C18.8916 19.8812 19.2692 19.8979 19.5257 19.7099C19.4146 19.5903 19.2549 19.5249 19.1032 19.5249ZM19.1007 19.5599C19.2484 19.5572 19.3864 19.6251 19.4057 19.6924C19.2348 19.8804 18.9616 19.8641 18.7907 19.7274C18.8655 19.6077 18.9858 19.562 19.1007 19.5599Z" fill="#843511"/>
<path d="M19.1227 19.8458C19.2077 19.8458 19.2766 19.777 19.2766 19.692C19.2766 19.607 19.2077 19.5381 19.1227 19.5381C19.0377 19.5381 18.9689 19.607 18.9689 19.692C18.9689 19.777 19.0377 19.8458 19.1227 19.8458Z" fill="#85340A"/>
<path d="M18.7031 19.7954C18.9937 20.0176 19.2843 20.0005 19.4553 19.8979C19.6262 19.7954 19.6262 19.7612 19.5921 19.7612C19.5579 19.7612 19.5238 19.7954 19.387 19.8637C19.2502 19.9322 19.0452 19.9322 18.7033 19.7954L18.7031 19.7954Z" fill="#85340A"/>
</g>
<defs>
<clipPath id="clip0_1_6867">
<rect width="40" height="40" rx="20" fill="white"/>
</clipPath>
</defs>
</svg>
