<svg width="40" height="40" viewBox="0 0 40 40" fill="none" xmlns="http://www.w3.org/2000/svg">
<g clip-path="url(#clip0_1_6926)">
<path d="M40 -4H0V48H40V-4Z" fill="#00267F"/>
<path d="M27 -7H13V50H27V-7Z" fill="#FFC726"/>
<path d="M20.0002 13.8734C19.5669 15.055 19.1252 16.285 18.1802 17.2267C18.4736 17.13 18.9869 17.0434 19.3169 17.0517V22.0217L17.9136 22.23C17.8636 22.225 17.8469 22.1467 17.8469 22.04C17.7119 20.4967 17.3469 19.2 16.9269 17.8584C16.8969 17.675 16.3652 16.975 16.7752 17.0984C16.8252 17.105 17.3736 17.3284 17.2869 17.2217C16.5402 16.4484 15.4486 15.8917 14.3886 15.7267C14.2952 15.7034 14.2402 15.75 14.3236 15.8584C15.7302 18.0234 16.9069 20.5784 16.8969 23.61C17.4436 23.61 18.7686 23.2867 19.3169 23.2867V26.7934H20.0086L20.1669 17L20.0002 13.8734Z" fill="black"/>
<path d="M19.9998 13.8734C20.4331 15.055 20.8748 16.285 21.8198 17.2267C21.5264 17.13 21.0131 17.0434 20.6831 17.0517V22.0217L22.0864 22.23C22.1364 22.225 22.1531 22.1467 22.1531 22.04C22.2881 20.4967 22.6531 19.2 23.0731 17.8584C23.1031 17.675 23.6348 16.975 23.2248 17.0984C23.1748 17.105 22.6264 17.3284 22.7131 17.2217C23.4598 16.4484 24.5514 15.8917 25.6114 15.7267C25.7048 15.7034 25.7598 15.75 25.6764 15.8584C24.2698 18.0234 23.0931 20.5784 23.1031 23.61C22.5564 23.61 21.2314 23.2867 20.6831 23.2867V26.7934H19.9914L19.8331 17L19.9998 13.8734Z" fill="black"/>
</g>
<defs>
<clipPath id="clip0_1_6926">
<rect width="40" height="40" rx="20" fill="white"/>
</clipPath>
</defs>
</svg>
