<svg width="40" height="40" viewBox="0 0 40 40" fill="none" xmlns="http://www.w3.org/2000/svg">
<g clip-path="url(#clip0_1_4649)">
<path d="M2 -9.5L43 5V35H-2L2 -9.5Z" fill="#FFD520"/>
<path d="M-2 35L38 47.5L43 5L-2 35Z" fill="#FF4E12"/>
<path d="M22.0881 14.379C21.8388 14.2905 21.6777 14.4192 21.6858 14.7412C21.6938 15.0632 21.8629 15.2483 22.1123 15.1275L22.0881 14.379V14.379Z" fill="white" stroke="black" stroke-width="0.02605"/>
<path d="M22.3061 13.7761C22.0984 13.6121 21.9046 13.6824 21.8088 13.9899C21.713 14.2973 21.8136 14.527 22.0886 14.4928L22.3061 13.7761V13.7761Z" fill="white" stroke="black" stroke-width="0.02605"/>
<path d="M22.6529 13.1927C22.4739 12.9975 22.2714 13.0358 22.1275 13.324C21.9838 13.6121 22.0463 13.8549 22.3234 13.8652L22.6529 13.1927ZM22.4259 16.0292C22.1201 16.1419 22.0878 16.5605 22.2811 16.818C22.4743 17.0756 22.8284 17.1239 23.0215 16.818L22.426 16.029L22.4259 16.0292Z" fill="white" stroke="black" stroke-width="0.02605"/>
<path d="M22.0704 15.1436C21.7806 15.047 21.5195 15.4362 21.4747 15.7875C21.4185 16.2302 20.7906 16.375 21.1368 17.0431C21.2091 16.6165 21.491 16.3831 21.7162 16.367C21.9416 16.3509 22.2797 16.3026 22.4246 16.029L22.0704 15.1436ZM22.9879 16.8661C22.6497 16.9466 22.6014 17.3973 22.8429 17.7193C23.0495 17.9949 23.696 17.9285 23.68 17.6549L22.9879 16.8661ZM23.9459 19.5786C23.9619 19.2888 23.4953 19.1761 23.2698 19.2325C23.0444 19.2888 22.6138 19.2245 22.5132 18.983C22.4328 19.1761 22.5494 19.3854 22.8755 19.49C23.1221 19.5693 23.1169 19.7476 23.0444 19.8281C23.2296 19.8603 23.7769 19.8603 23.9459 19.5786V19.5786Z" fill="white" stroke="black" stroke-width="0.02605"/>
<path d="M23.6818 17.7274C23.3518 17.5825 23.1561 17.8032 23.0299 18.0171C22.8447 18.331 22.2732 17.9286 22.0801 18.3471C22.3417 18.2345 22.608 18.4748 22.732 18.5564C23.0861 18.7898 23.7703 18.7174 23.867 18.1701L23.6818 17.7274Z" fill="white" stroke="black" stroke-width="0.02605"/>
<path d="M23.874 18.1135C23.544 18.363 23.4153 18.6608 23.4234 18.862C23.4315 19.0633 23.7132 19.5059 24.0191 19.5301C24.1961 19.1679 24.2847 18.4032 23.8741 18.1135H23.874ZM22.506 19.667C22.506 19.5462 22.6831 19.498 22.8037 19.5382C22.9246 19.5784 23.1096 19.6992 23.0452 19.828L22.506 19.667ZM20.6865 19.007C20.6544 18.8621 20.8878 18.6126 21.2017 18.7494C21.5155 18.8862 21.5559 19.1519 21.4269 19.2565L20.6865 19.007V19.007Z" fill="white" stroke="black" stroke-width="0.02605"/>
<path d="M21.4522 19.273C21.4281 19.1925 21.6541 19.0317 22.0399 19.1281C22.4262 19.2247 22.5209 19.4734 22.5068 19.6674L21.4522 19.273ZM20.6477 19.0075C20.849 18.8546 20.7727 18.5647 20.5912 18.4762C20.2612 18.3152 20.3821 17.8967 20.1727 17.8162C19.9636 17.7357 19.7623 17.5908 19.7542 17.446C19.6496 17.6472 19.714 17.8323 19.859 17.9611C20.0038 18.0899 19.7463 18.6131 19.9313 18.7499L20.6477 19.0075ZM16.3332 18.895C16.1642 18.6294 15.7617 18.6777 15.5927 18.8628C15.4237 19.0479 15.4479 19.3216 15.6088 19.4423L16.3332 18.895ZM17.2992 18.5005C17.2348 18.1463 16.8082 18.1061 16.5748 18.1946C16.3414 18.2831 16.1804 18.6373 16.3333 18.8949L17.2993 18.5005H17.2992Z" fill="white" stroke="black" stroke-width="0.02605"/>
<path d="M17.9408 18.452C18.0937 18.1542 17.7959 17.7115 17.4578 17.6471C17.1756 17.5934 16.8421 17.5948 16.7334 17.3171C16.665 17.5586 16.8461 17.7115 17.0554 17.8483C17.2647 17.9852 17.0151 18.3393 17.3532 18.5405L17.9408 18.452L17.9408 18.452Z" fill="white" stroke="black" stroke-width="0.02605"/>
<path d="M17.9086 18.4624C17.8382 18.249 17.9811 17.9652 18.2702 17.9851C18.5595 18.005 18.7242 18.2151 18.5967 18.4779L17.9086 18.4624H17.9086Z" fill="white" stroke="black" stroke-width="0.02605"/>
<path d="M18.5523 18.4786C18.5125 18.2575 18.6938 17.9966 18.9773 18.0568C19.2609 18.1171 19.3945 18.3483 19.2315 18.5906L18.5523 18.4786Z" fill="white" stroke="black" stroke-width="0.02605"/>
<path d="M19.1926 18.58C19.1638 18.3572 19.358 18.1056 19.6382 18.18C19.9184 18.2543 20.0403 18.492 19.8653 18.7257L19.1926 18.58ZM14.3356 22.2675C13.7963 22.2675 13.6646 22.3959 13.587 22.9517C13.4904 23.6439 14.4322 23.7244 14.3356 22.2675Z" fill="white" stroke="black" stroke-width="0.02605"/>
<path d="M14.5774 21.5428C13.7484 21.2289 13.2977 22.5409 12.4767 22.3075C12.7704 22.7743 13.4826 22.3083 13.7484 22.3558C14.1991 22.4363 15.173 22.2673 14.5774 21.5428ZM14.0379 23.3378C13.6274 23.1527 13.1847 23.7805 13.2652 24.0542C13.3674 24.4018 14.3035 24.1186 14.0379 23.3378ZM12.1224 26.0423C12.3478 26.1065 12.6214 26.2354 12.5732 26.67C12.5249 27.1046 11.7039 27.99 10.9634 28.0384C10.2229 28.0867 9.95728 28.98 9.32143 28.7305C9.91704 28.618 9.91704 27.9417 10.3839 27.7326C10.0458 27.6117 9.86874 28.3765 9.43414 28.3765C8.99949 28.3765 8.79024 29.0686 8.25899 29.0203C7.72773 28.9721 7.67183 29.863 6.60898 29.8736C5.79598 29.8815 4.78993 30.8313 4.42773 30.4209C5.21653 30.3082 5.53483 29.8711 6.00533 29.3905C6.76193 28.618 7.61514 28.964 7.90484 28.2799C7.55874 28.5132 7.15634 28.6259 6.76193 28.618C6.26683 28.6078 5.72363 29.4068 5.16823 29.0526C5.49018 29.0124 5.69948 28.8755 6.03753 28.5213C6.38368 28.1586 6.89169 28.393 7.29319 28.0224C7.92099 27.4428 8.46029 27.9257 9.06394 27.2013C8.89489 27.1209 8.53268 27.1772 8.19463 27.3542C7.85653 27.5313 7.42193 27.2334 7.03558 27.4428C7.08383 26.968 7.98534 27.2397 8.54879 26.9115C9.18469 26.5413 9.71189 26.6499 10.2149 26.6942C9.51469 26.6903 9.24104 26.0261 8.27519 26.2192C7.85394 26.3036 7.51858 25.6398 7.10003 25.9778C7.11203 25.7284 7.55078 25.5271 8.00153 25.7686C8.45223 26.0101 8.63393 25.5573 9.53084 26.1228C9.90108 26.3561 10.5369 25.9778 10.9393 26.2274C10.887 26.0745 10.6576 25.9778 10.388 25.998C10.557 25.652 11.6477 25.6961 12.1225 26.0424L12.1224 26.0423Z" fill="white" stroke="black" stroke-width="0.02605"/>
<path d="M12.8395 25.5185C12.4853 25.2449 11.9943 25.5749 11.6562 25.4461C11.6562 25.6714 11.7689 26.0096 12.1392 26.1383C12.2519 26.0579 12.759 25.6151 12.8395 25.5185Z" fill="white" stroke="black" stroke-width="0.02605"/>
<path d="M13.3932 24.7381C12.8378 24.4564 12.7413 25.1566 12.3066 25.0118C12.3227 25.213 12.4837 25.4625 12.8379 25.5189L13.3932 24.7381Z" fill="white" stroke="black" stroke-width="0.02605"/>
<path d="M13.725 24.1025C12.904 23.7805 12.7993 24.5693 12.3164 24.4164C12.4291 24.69 13.1213 24.8349 13.4755 24.7384L13.725 24.1025ZM14.8515 20.6495C14.6341 20.3436 14.1754 20.5931 14.1029 20.9553C14.0305 21.3175 14.2075 21.8246 14.5134 21.7119L14.8515 20.6495Z" fill="white" stroke="black" stroke-width="0.02605"/>
<path d="M15.4065 19.6834C15.0282 19.5949 14.5935 19.6351 14.6418 20.0054C14.4969 20.0697 14.4567 20.5446 14.8511 20.6492L15.4065 19.6833V19.6834Z" fill="white" stroke="black" stroke-width="0.02605"/>
<path d="M15.6564 19.4332C15.2862 18.9985 14.8733 19.0087 14.6423 19.1917C14.2157 19.5298 13.8011 19.3366 13.7891 19.6747C14.0467 19.4774 14.272 19.7149 14.4813 19.6424C14.6905 19.57 14.8435 19.9724 15.423 19.8034L15.6564 19.4332ZM14.7629 25.9292C14.8193 26.0338 15.1654 26.0821 15.3344 25.905C15.5584 25.6702 15.3103 25.0195 14.9561 24.9713C14.602 24.923 14.5698 25.7038 14.7629 25.9292Z" fill="white" stroke="black" stroke-width="0.02605"/>
<path d="M14.3611 25.946C14.8681 26.131 15.0855 25.7124 14.8118 25.4469C14.7393 25.5354 14.4737 25.8574 14.3611 25.946Z" fill="white" stroke="black" stroke-width="0.02605"/>
<path d="M12.4611 26.6377C12.3645 26.9275 11.8654 26.9759 11.302 27.8773C10.7386 28.7788 10.1993 28.4005 10.0625 29.0202C10.7386 28.4729 11.2696 28.8365 11.6723 28.2958C12.284 27.4748 12.7877 27.5927 13.0245 27.0402C13.3625 26.2514 14.8435 26.2675 14.924 25.028C14.425 24.9314 12.8474 26.2675 12.4611 26.6377V26.6377ZM25.1626 14.4677C25.8065 14.677 25.8226 15.5141 26.563 15.7877C27.3036 16.0614 27.3762 16.7214 27.9797 16.5604C27.4163 16.4075 27.4565 15.7555 26.869 15.5945C26.1798 15.4057 25.9192 14.355 25.3717 14.194M28.1166 18.8382C28.2293 19.0958 28.2132 19.5546 27.8108 19.6753C28.028 19.8122 28.3499 19.6833 28.527 19.3856C28.2614 19.9731 28.4385 20.5044 28.857 20.609C28.6558 20.1985 29.1066 20.0053 28.9618 19.7397C29.2274 19.8524 29.4608 20.2146 29.4527 20.44C29.7989 20.0536 29.1952 19.5385 29.3079 19.1763L28.1166 18.8383V18.8382ZM23.9471 22.9752C23.5527 22.6291 23.3844 23.0657 23.1904 22.9148C23.0094 22.774 22.768 22.7538 22.6755 22.8947C23.0136 22.9068 22.8483 23.1684 23.5044 23.2328C22.8483 23.2771 22.9692 24.0095 22.5304 23.9733C22.9973 24.416 23.2388 23.5789 23.6171 23.7158C23.5044 23.7479 23.7942 24.0135 23.5929 24.3677C23.9189 24.3597 24.0517 23.9089 24.0921 23.6755L23.9471 22.9752ZM15.2621 26.7342C15.1172 26.6136 14.6986 26.5571 14.5377 26.6538C14.3767 26.7503 14.4331 26.7744 14.6262 26.7907C14.8194 26.8067 15.0689 27.1192 14.6504 27.1367C14.4572 27.1446 14.5216 27.6115 14.1191 27.6438C14.2841 27.8451 14.755 27.7122 14.924 27.4909C14.8918 27.6719 15.1333 27.8369 15.0367 28.0543C15.3345 28.0866 15.1615 27.4507 15.6324 27.4828C15.4392 27.507 15.5197 27.9416 15.8577 27.8289C15.6565 27.9255 15.7611 28.1589 15.9865 28.1026C15.8416 28.1509 15.7933 28.3359 15.9945 28.4407C16.1877 28.1751 15.9704 27.2253 15.2621 26.7343V26.7342ZM32.7931 17.8532C33.4091 17.8532 33.9085 17.3537 33.9085 16.7376C33.9085 16.1216 33.4091 15.6221 32.7931 15.6221C32.1768 15.6221 31.6775 16.1216 31.6775 16.7376C31.6775 17.3537 32.1768 17.8532 32.7931 17.8532Z" fill="white"/>
<path d="M25.1626 14.4677C25.8065 14.677 25.8226 15.5141 26.563 15.7877C27.3036 16.0614 27.3761 16.7214 27.9796 16.5604C27.4163 16.4075 27.4565 15.7555 26.869 15.5945C26.1798 15.4057 25.9192 14.355 25.3717 14.194M12.4611 26.6377C12.3645 26.9275 11.8654 26.9759 11.302 27.8773C10.7386 28.7788 10.1994 28.4005 10.0625 29.0202C10.7386 28.4729 11.2696 28.8365 11.6723 28.2958C12.284 27.4748 12.7877 27.5927 13.0245 27.0402C13.3625 26.2514 14.8435 26.2675 14.924 25.028C14.425 24.9314 12.8474 26.2675 12.4611 26.6377V26.6377ZM28.1166 18.8382C28.2293 19.0958 28.2133 19.5546 27.8108 19.6753C28.0281 19.8122 28.3499 19.6833 28.527 19.3856C28.2614 19.9731 28.4385 20.5044 28.857 20.609C28.6557 20.1985 29.1066 20.0053 28.9618 19.7397C29.2274 19.8524 29.4608 20.2146 29.4527 20.44C29.7989 20.0536 29.1952 19.5385 29.3079 19.1763L28.1166 18.8383V18.8382ZM23.9471 22.9752C23.5527 22.6291 23.3844 23.0657 23.1904 22.9148C23.0094 22.774 22.768 22.7538 22.6755 22.8947C23.0136 22.9068 22.8483 23.1684 23.5044 23.2328C22.8483 23.2771 22.9692 24.0095 22.5304 23.9733C22.9973 24.416 23.2388 23.5789 23.6171 23.7158C23.5044 23.7479 23.7942 24.0135 23.5929 24.3677C23.9189 24.3597 24.0517 23.9089 24.0921 23.6755L23.9471 22.9752ZM15.2621 26.7342C15.1172 26.6136 14.6986 26.5571 14.5377 26.6538C14.3767 26.7503 14.4331 26.7744 14.6262 26.7907C14.8194 26.8067 15.0688 27.1192 14.6504 27.1367C14.4572 27.1446 14.5216 27.6115 14.1191 27.6438C14.2841 27.8451 14.755 27.7122 14.924 27.4909C14.8918 27.6719 15.1333 27.8369 15.0367 28.0543C15.3345 28.0866 15.1615 27.4507 15.6324 27.4828C15.4392 27.507 15.5197 27.9416 15.8578 27.8289C15.6565 27.9255 15.7611 28.1589 15.9865 28.1026C15.8416 28.1509 15.7933 28.3359 15.9945 28.4407C16.1877 28.1751 15.9704 27.2253 15.2621 26.7343V26.7342ZM32.7931 17.8532C33.4091 17.8532 33.9085 17.3537 33.9085 16.7376C33.9085 16.1216 33.4091 15.6221 32.7931 15.6221C32.1768 15.6221 31.6774 16.1216 31.6774 16.7376C31.6774 17.3537 32.1768 17.8532 32.7931 17.8532Z" stroke="black" stroke-width="0.02605"/>
<path d="M26.9646 19.2012C27.3027 18.8792 27.8179 18.7182 28.1719 18.9597C28.526 19.2012 29.7013 19.4909 30.2808 19.0885C30.8602 18.686 31.134 18.4767 31.3915 18.525C31.5849 18.8148 31.8181 18.9516 32.1079 18.9758C32.1964 19.0724 32.5104 19.1529 32.6875 19.1287C32.945 19.1931 33.259 19.1126 33.5084 18.8389C33.8949 18.8953 34.2569 18.6055 34.3938 18.1709C34.8042 18.1226 34.8284 17.6638 34.5709 17.3579C34.3294 17.3097 34.5146 16.4967 33.6371 16.6577C34.0075 16.8831 33.7257 17.3338 34.0317 17.5431C33.8224 17.5431 33.5528 17.6316 33.4884 17.9456C33.5688 17.7282 33.4763 17.5833 33.4199 17.5351C33.428 17.3499 33.0175 16.8952 32.6311 17.0602C32.9088 17.1205 32.7519 17.5673 32.9531 17.7363C32.8081 17.7443 32.6552 17.8168 32.5667 17.9455C32.4621 17.7604 32.0919 17.5672 31.8665 17.5511C31.8665 17.4867 31.8544 17.358 31.8263 17.2936C31.7256 17.1004 31.6411 16.871 31.6813 16.5772C31.4881 16.7865 31.3271 17.0762 31.2306 17.2855C30.9248 17.0763 30.1681 17.3821 29.814 17.4626C29.4599 17.5431 28.2686 17.3499 27.9949 17.0601C27.7214 16.7704 27.19 16.5933 26.6911 16.4484C26.0048 16.2493 25.9988 15.4987 25.2421 14.9835C25.2261 15.9172 26.6428 18.8792 26.9647 19.2012H26.9646ZM19.0766 26.3162C19.6722 26.3162 20.1551 25.8333 20.1551 25.2376C20.1551 24.642 19.6722 24.1591 19.0766 24.1591C18.4809 24.1591 17.998 24.642 17.998 25.2376C17.998 25.8333 18.4809 26.3162 19.0766 26.3162Z" fill="white" stroke="black" stroke-width="0.02605"/>
<path d="M16.5008 25.4867C16.7181 25.7684 17.0884 25.7524 17.2413 25.7282C17.3701 26.0661 17.7806 26.0582 17.9577 26.2432C18.1348 26.4284 18.7383 26.4124 18.9154 26.3076C18.7546 26.2916 18.5453 26.1951 18.344 26.0259C18.1011 25.8219 18.2152 25.4142 18.022 25.2694C18.1669 25.1084 18.1911 24.8428 18.1589 24.7381C18.3119 24.6496 18.4245 24.5047 18.4406 24.4322C18.7063 24.4161 18.9396 24.2793 19.0363 24.1747C19.1731 24.3035 19.5192 24.1344 19.7044 24.3517C19.7446 23.8205 19.2375 23.5388 18.8994 23.7159C18.7625 23.6435 18.4004 23.6918 18.336 23.7884C18.2233 23.74 17.9094 23.901 17.7645 24.0057C17.9255 23.9172 17.9496 23.6515 17.8852 23.5549C18.0221 23.4986 18.175 23.3134 18.1911 23.1766C18.3843 23.2088 18.674 23.08 18.8027 23.1122C18.5936 22.8386 18.2475 22.742 17.8933 22.7661C17.527 22.7863 17.3701 23.0438 17.3218 23.3215C17.1045 23.4503 17.0321 23.8849 17.1126 24.0379C16.9878 24.0339 16.8711 24.1546 16.8228 24.223C16.6538 24.1505 16.4123 24.0983 16.2393 24.0983M16.3158 23.6597C16.2434 23.4504 16.3393 23.262 16.3883 23.0963C16.513 22.6738 16.4366 22.565 16.0583 22.6214C16.0261 22.8226 16.2193 23.4826 16.3158 23.6597Z" fill="white"/>
<path d="M16.5008 25.4867C16.7181 25.7684 17.0884 25.7524 17.2413 25.7282C17.3701 26.0661 17.7806 26.0582 17.9577 26.2432C18.1348 26.4284 18.7383 26.4124 18.9154 26.3076C18.7546 26.2916 18.5453 26.1951 18.344 26.0259C18.1011 25.8219 18.2152 25.4142 18.022 25.2694C18.1669 25.1084 18.1911 24.8428 18.1589 24.7381C18.3119 24.6496 18.4245 24.5047 18.4406 24.4322C18.7063 24.4161 18.9396 24.2793 19.0363 24.1747C19.1731 24.3035 19.5192 24.1344 19.7044 24.3517C19.7446 23.8205 19.2375 23.5388 18.8994 23.7159C18.7625 23.6435 18.4004 23.6918 18.336 23.7884C18.2233 23.74 17.9094 23.901 17.7645 24.0057C17.9255 23.9172 17.9496 23.6515 17.8852 23.5549C18.0221 23.4986 18.175 23.3134 18.1911 23.1766C18.3843 23.2088 18.674 23.08 18.8027 23.1122C18.5936 22.8386 18.2475 22.742 17.8933 22.7661C17.527 22.7863 17.3701 23.0438 17.3218 23.3215C17.1045 23.4503 17.0321 23.8849 17.1126 24.0379C16.9878 24.0339 16.8711 24.1546 16.8228 24.223C16.6538 24.1505 16.4123 24.0983 16.2393 24.0983M16.3158 23.6597C16.2434 23.4504 16.3393 23.262 16.3883 23.0963C16.513 22.6738 16.4366 22.565 16.0583 22.6214C16.0261 22.8226 16.2193 23.4826 16.3158 23.6597Z" stroke="black" stroke-width="0.02605"/>
<path d="M16.0391 22.6454C16.1357 22.742 16.4778 22.7863 16.514 22.4804C16.5556 22.1293 16.4134 21.9934 16.1075 22.1303C16.0834 22.2108 16.0552 22.5408 16.0391 22.6454Z" fill="white" stroke="black" stroke-width="0.02605"/>
<path d="M16.1113 22.1184C16.2401 22.1707 16.5178 22.2754 16.6707 21.9776C16.799 21.7278 16.6305 21.5349 16.3649 21.5509C16.3005 21.6234 16.1717 21.8809 16.1113 22.1184Z" fill="white" stroke="black" stroke-width="0.02605"/>
<path d="M16.3474 21.5272C16.3796 21.6238 16.7096 21.9457 16.9511 21.7123C17.1926 21.4789 17.1926 21.1328 16.8303 21.004C16.7337 21.0201 16.444 21.3581 16.3474 21.5272Z" fill="white" stroke="black" stroke-width="0.02605"/>
<path d="M16.8301 21.0037C16.9025 21.2049 17.1279 21.551 17.5464 21.3901C17.965 21.2291 17.7879 20.7059 17.5947 20.6013C17.482 20.6093 17.0232 20.8186 16.8301 21.0037Z" fill="white" stroke="black" stroke-width="0.02605"/>
<path d="M17.5965 20.6014C17.5643 20.7785 17.5965 21.2614 18.1679 21.2534C18.7393 21.2454 18.5785 20.5773 18.4336 20.4807C18.2001 20.4807 17.8058 20.4887 17.5965 20.6014Z" fill="white" stroke="black" stroke-width="0.02605"/>
<path d="M18.4557 20.5047C18.3913 20.6415 18.2462 21.5422 19.3653 21.2935C19.5101 21.2613 19.8884 20.4322 18.4557 20.5047Z" fill="white" stroke="black" stroke-width="0.02605"/>
<path d="M19.0684 20.5849C18.9559 20.6976 19.2455 21.6071 20.0021 21.4542C20.7588 21.3012 20.123 20.44 19.0684 20.5849Z" fill="white" stroke="black" stroke-width="0.02605"/>
<path d="M19.7109 20.7214C19.5903 20.9709 19.7715 21.7114 20.7051 21.7114C21.5511 21.7114 20.6607 20.7375 19.7109 20.7214Z" fill="white" stroke="black" stroke-width="0.02605"/>
<path d="M20.4456 20.9392C20.385 21.0775 20.3108 21.8626 21.4114 21.9292C22.2083 21.9775 22.0152 20.8507 20.4456 20.9392Z" fill="white" stroke="black" stroke-width="0.02605"/>
<path d="M21.6282 21.2692C21.4916 21.5107 21.3466 22.1144 22.5539 22.1627C23.3274 22.1937 22.8518 21.2853 21.6282 21.2692Z" fill="white" stroke="black" stroke-width="0.02605"/>
<path d="M22.6348 21.4542C22.4577 21.6957 22.5882 22.1694 23.0371 22.2591C23.6006 22.3718 23.6811 21.8406 23.2948 21.583C22.9083 21.3255 22.6348 21.4542 22.6348 21.4542Z" fill="white" stroke="black" stroke-width="0.02605"/>
<path d="M23.1824 21.5671C23.0537 21.7925 23.1334 22.3398 23.9872 22.3398C24.1643 22.3398 24.8406 21.6476 23.1824 21.5671ZM16.5744 32.0636C17.2659 32.0636 17.8265 31.5029 17.8265 30.8115C17.8265 30.1198 17.2659 29.5592 16.5744 29.5592C15.8829 29.5592 15.3223 30.1198 15.3223 30.8115C15.3223 31.5029 15.8829 32.0636 16.5744 32.0636Z" fill="white" stroke="black" stroke-width="0.02605"/>
<path d="M25.7589 13.8564C25.6623 13.953 25.4612 14.2427 25.4208 14.3554C25.0023 15.611 26.1195 16.5489 26.7731 17.8969C27.2883 18.9594 27.2239 20.6335 26.4189 21.696C26.1435 22.0594 26.2258 22.1628 25.8716 22.5331C25.7358 22.6751 25.5818 22.8551 25.6302 23.3702C25.8556 23.2897 26.1775 23.499 26.2418 23.6761C26.4028 23.5956 26.6283 23.6278 26.7087 23.7243C26.9822 23.5956 27.2077 23.6599 27.4491 23.9175C27.6585 23.8853 27.8839 23.9175 28.0931 24.1429C28.2058 23.9175 28.4312 23.837 28.592 23.8853C28.576 23.5956 28.8658 23.3863 29.1233 23.499C29.0428 23.1126 29.397 22.8228 29.7352 22.9355C30.0247 22.7102 30.6043 22.6941 30.8941 23.0321C30.3789 22.8873 30.3951 23.4346 29.9604 23.3863C30.0731 23.7083 29.7833 23.8934 29.4937 23.998C29.6787 23.9095 29.8799 23.8048 29.9443 23.9175C30.1053 23.7767 30.4272 23.829 30.5078 23.9014C30.721 23.833 30.9264 23.8853 31.0228 24.1429C31.3127 24.32 31.5058 24.7707 31.2966 25.1088C31.2322 24.7546 30.9908 24.7707 30.8941 24.6258C30.6687 24.7063 30.4433 24.7063 30.3789 24.5614C30.2502 24.6902 29.8156 24.8029 29.6224 24.6097C29.5499 24.8995 29.3004 25.141 29.0106 25.141C29.0912 25.3663 28.8658 25.7528 28.6887 25.9459C28.9624 26.0907 28.8818 26.4127 28.8174 26.6059C29.236 26.6702 28.8818 27.0405 29.6062 27.2819C29.2522 27.3946 28.5599 27.2819 28.4633 26.8473C28.1091 26.8313 27.8676 26.4771 27.8839 26.1067C27.6101 25.8492 27.5699 25.479 27.9483 25.2214C27.6262 25.318 27.4491 24.8029 26.9822 25.0122C26.7501 25.1163 26.1372 24.9397 26.1453 24.7224C26.0486 24.8834 25.4612 24.819 25.3805 24.5454C25.1874 24.65 24.7365 24.4729 24.7447 24.2073C24.4951 24.32 24.1572 24.1188 24.1732 23.8612C23.9399 23.829 23.9157 23.6197 23.9318 23.4427C23.7224 23.346 23.7788 23.1448 23.8593 22.9034C23.7145 22.7424 23.7788 22.517 23.8915 22.3077C23.7305 22.1467 23.7628 21.9536 23.8109 21.7282C23.0382 21.6638 22.0703 21.4775 19.8509 20.7946C16.5026 19.7643 15.6011 22.179 16.3416 23.6922C17.1959 25.4382 16.245 25.8172 16.5348 27.1212C16.8406 27.1855 17.0016 27.443 16.9855 27.7168C17.1665 27.7247 17.2953 27.8937 17.231 28.2158C17.3839 28.1876 17.5811 28.2318 17.7099 28.3605C17.8226 28.1514 18.1929 28.103 18.386 28.3445C18.8045 28.3122 19.0138 28.6503 18.9978 29.0689C19.223 29.4714 19.1426 29.9624 18.9011 30.2762C18.9253 30.1072 18.9011 29.8658 18.8932 29.721C18.8782 29.4545 18.5067 29.3989 18.547 29.1816C18.3538 29.1976 18.1687 29.0931 18.1043 28.9483C17.9916 29.0447 17.8306 29.077 17.6938 29.0287C17.9111 29.1253 18.0802 29.5116 18.0158 29.7691C18.1285 29.9624 18.1043 30.3166 17.9675 30.4695C17.9031 30.7832 17.6616 30.896 17.3477 30.7591C17.5248 30.6466 17.5892 30.4453 17.5811 30.2761C17.4685 30.1797 17.4121 29.9945 17.4041 29.8818C17.0902 29.9301 16.6555 29.6645 16.5754 29.5595C15.8838 29.5595 15.3232 30.1201 15.3232 30.8118C15.291 30.5541 14.9652 30.3003 15.0055 30.083C14.8123 29.4874 15.086 28.932 15.8748 28.8195C15.7782 28.5941 16.1163 28.3605 15.9875 28.103C15.823 27.774 15.5207 27.3464 15.07 26.8474C15.3436 26.3805 15.2631 25.7528 15.1021 25.3664C14.871 24.8116 14.6514 24.9479 13.8304 25.8493C12.4924 27.3184 10.7074 26.9118 9.12979 27.8776C8.71059 28.1343 8.29274 28.2318 8.74344 27.7811C9.19419 27.3303 10.3854 26.8797 11.1581 26.4933C12.6051 25.7697 13.8303 24.5615 14.3133 22.2113C15.4481 16.6883 19.6253 18.5088 22.2653 19.539C24.7438 20.5063 24.2936 18.3155 23.038 16.9955C21.5288 15.409 21.8307 14.1624 22.539 13.1643C23.8107 12.9872 26.2497 13.4299 25.7586 13.8565L25.7589 13.8564Z" fill="white" stroke="black" stroke-width="0.02605"/>
<path d="M30.2407 27.4234C31.0016 27.4234 31.6184 26.8068 31.6184 26.0459C31.6184 25.285 31.0015 24.6682 30.2407 24.6682C29.4799 24.6682 28.863 25.285 28.863 26.0459C28.863 26.8068 29.4799 27.4234 30.2407 27.4234Z" fill="white" stroke="black" stroke-width="0.02605"/>
<path d="M24.9847 13.9199C24.6789 15.2722 24.9364 15.8839 25.3872 16.4795C26.3187 17.7105 27.0614 20.52 25.9989 22.355" stroke="black" stroke-width="0.02605"/>
<path d="M26.594 20.7702C26.7228 20.7219 26.9642 20.569 27.0207 20.3034M26.6905 20.1827C26.7307 19.9493 27.0928 19.8487 27.1009 19.5992M26.6985 19.2727C26.6744 19.0312 27.0608 18.8139 27.0044 18.5725M26.4895 18.4037C26.4572 18.2669 26.8114 18.0093 26.7149 17.792M26.224 17.5587C26.1515 17.4058 26.393 17.2287 26.2884 17.0677M25.8375 16.8822C25.8134 16.7776 25.9623 16.5482 25.8819 16.4114M25.451 16.0857C25.4831 16.0455 25.612 15.9489 25.5595 15.8282M25.1855 15.5022C25.2378 15.474 25.3947 15.4257 25.3747 15.3091" stroke="black" stroke-width="0.02605" stroke-linecap="round"/>
<path d="M17.1311 30.678C16.8091 30.5653 16.4067 30.7264 16.3262 31.0001M16.5676 31.2495C16.6078 30.976 17.0264 30.8551 17.1551 30.9839C16.8895 30.8391 16.7607 31.3541 16.9941 31.3704M19.1596 24.883C18.9665 24.9796 18.9102 25.3338 19.1596 25.5995M19.4491 24.9635C19.3124 25.0762 19.3203 25.4143 19.5216 25.4948C19.3526 25.374 19.5216 25.1648 19.6424 25.1567C19.763 25.1487 19.8434 25.2935 19.6987 25.4384M30.7581 25.76C30.3075 25.6394 29.9452 26.1625 30.3556 26.6294C30.3477 26.1786 30.6696 25.8809 31.0639 25.9613M30.8826 26.273C30.7717 26.273 30.7095 26.3597 30.7095 26.444C30.7095 26.5326 30.7859 26.6172 30.9107 26.6172C30.9913 26.6172 31.0557 26.5247 31.0557 26.4522M32.4721 16.391C32.5446 16.6647 32.9229 16.7774 33.2206 16.713M33.2206 16.536C32.9872 16.5441 32.7941 16.3268 32.8102 16.1416C32.8102 16.2785 33.1241 16.3429 33.2206 16.2543" stroke="black" stroke-width="0.02605" stroke-linecap="round" stroke-linejoin="round"/>
<path d="M17.2414 25.7282C17.177 25.5672 17.4346 25.4062 17.4427 25.2532C17.4507 25.1004 17.7324 24.9796 18.0222 25.2694M17.8854 23.5552C17.8291 23.5794 17.7808 23.6116 17.7325 23.6277M18.4409 24.4322C18.3725 24.4363 18.2317 24.4282 18.1552 24.3759M18.1594 24.7382C18.1031 24.7664 17.9783 24.8147 17.9058 24.8308M15.3984 29.5997C15.3904 29.7447 15.5353 29.9539 15.6157 30.0182M16.0264 29.2537C15.9459 29.3744 15.8977 29.5837 15.9459 29.7285M17.2254 29.7367C17.0805 29.6401 17.1771 29.3905 17.161 29.2296C17.1449 29.0686 17.33 28.8111 17.6923 29.0284M15.8734 28.8192C16.0183 28.7951 16.1712 28.803 16.2678 28.8432M17.7084 28.3602C17.644 28.4487 17.6279 28.5454 17.6199 28.6098M18.3844 28.3442C18.2717 28.3442 18.1752 28.4246 18.1269 28.5052M16.8229 24.2232C16.9517 24.2675 17.2857 24.4727 17.2978 24.6861M18.1914 23.1767C17.797 23.1687 17.6441 22.7662 17.9419 22.7662M18.8999 23.7157C18.747 23.7801 18.8195 24.0457 19.0368 24.1745M17.9579 26.2432C17.8814 26.1467 17.9821 25.8651 18.2316 25.9495M18.5454 29.1812C18.5614 28.9358 18.8714 28.7908 18.9962 29.0685M17.4024 29.8812C17.3823 29.6116 17.5191 29.5231 17.6398 29.5071C17.7606 29.491 17.9337 29.5914 18.0142 29.7685M15.0039 30.0827C15.02 29.9217 15.1569 29.7527 15.3017 29.7769M29.7334 22.9352C29.6286 23.0117 29.5603 23.3537 29.9586 23.386M29.1219 23.4987C29.1219 23.539 29.1742 23.5953 29.2065 23.6195M31.0214 24.1427C30.9168 24.0622 30.6471 24.3882 30.8927 24.6257M28.4619 26.8472C28.4015 26.6178 28.6148 26.5574 28.8161 26.6057M27.9469 25.2212C28.0676 25.1407 28.1884 25.0522 28.3413 25.012M27.8824 26.1062C27.8824 25.9131 27.9789 25.7522 28.0674 25.7039M28.5904 23.8852C28.5744 24.1186 28.6711 24.344 28.7436 24.4647M30.5064 23.9012C30.3896 23.9375 30.2849 23.9817 30.2408 24.0783M30.3774 24.5612C30.4339 24.5129 30.4983 24.4566 30.5264 24.4164M33.4199 17.5342C33.4199 17.7596 33.1383 17.8803 32.9533 17.7354M34.0319 17.5422C34.1565 17.6388 34.5871 17.5463 34.4865 17.2967M33.5084 18.8382C33.4199 18.8221 33.2669 18.7255 33.2026 18.6451M34.3939 18.1702C34.2491 18.2024 34.1524 18.1702 34.0799 18.138M32.1079 18.9752C32.1883 18.9752 32.3814 18.943 32.5144 18.8746M31.8664 17.5507C31.7618 17.5387 31.6852 17.5588 31.6249 17.599M33.4884 17.9447C33.4603 18.0454 33.3878 18.2023 33.2993 18.2707" stroke="black" stroke-width="0.02605" stroke-linecap="round"/>
<path d="M31.5938 18.2988C31.795 18.2103 32.0446 18.8944 32.5275 18.653M32.5678 17.9443C32.5034 18.0328 32.4632 18.1697 32.4551 18.2904" stroke="black" stroke-width="0.02605" stroke-linecap="round" stroke-linejoin="round"/>
<path d="M22.9407 16.8988C23.0051 16.8908 23.1178 16.8666 23.142 16.7861M14.6582 24.3923C14.8997 24.5291 15.0687 24.7625 14.9641 25.1086M25.7252 16.1583C25.7977 16.2066 26.0715 16.2066 26.2244 16.1503M26.4177 16.3193C26.4096 16.432 26.4419 16.8585 26.2246 16.9471M26.3052 16.8908C26.5065 16.9552 26.909 16.931 27.0377 16.5608M26.7557 16.8743C26.8603 17.0353 26.8924 17.3492 26.5786 17.5182M26.8362 17.1403C27.0696 17.2208 27.6089 17.2288 27.5525 16.77M27.3677 17.1403C27.5287 17.3656 28.2371 17.6313 28.1244 17.1644M26.7157 17.7918C26.9892 17.8562 27.3757 17.671 27.2147 17.1881M27.9872 17.4298C28.0274 17.6149 28.9289 17.8081 28.8083 17.3895M28.6392 17.6313C28.8084 18.0176 29.7017 17.9854 29.4201 17.4703M29.2752 17.8723C29.4523 18.0896 30.2413 17.9608 29.9273 17.4376M29.9187 17.8643C30.4097 18.2345 30.9812 17.7033 30.3614 17.3169M30.6432 17.7438C31.078 18.0899 31.6093 17.462 31.2309 17.285M27.2062 17.5988C27.3431 17.639 27.6329 17.6229 27.6972 17.3734M27.5887 17.5423C27.5727 17.9085 28.1885 18.0494 28.3454 17.6268M28.1402 17.8563C28.2529 18.0978 28.7921 18.1943 28.8806 17.8482M28.7922 18.0093C28.8807 18.2508 29.3476 18.2266 29.4764 17.9771M29.3072 18.1383C29.452 18.4522 30.0476 18.4522 30.1845 17.9934M30.0802 18.1943C30.3136 18.3392 30.8127 18.2828 30.7723 17.8321M30.6757 18.1543C31.0217 18.436 31.5128 18.1623 31.2714 17.6874M31.2472 18.5243C31.4324 18.4921 31.5289 18.1218 31.3357 18.0253M26.9572 18.5888C27.3435 18.3795 27.416 18.0254 27.1503 17.6793M27.2872 18.2348C27.5287 18.3796 27.9874 18.2268 28.0679 17.8726M27.6172 18.2748C27.7539 18.4518 27.7781 18.6692 27.601 18.8704M27.7297 18.5003C28.1562 18.2347 28.6874 18.7257 28.2931 19.0235M28.2207 18.4763C28.3174 18.4521 28.4864 18.2751 28.5024 18.0738M28.4137 18.6613C28.5908 18.4761 29.7983 18.8545 29.0335 19.2408M28.9772 18.1543C29.2106 18.2428 29.3314 18.5728 28.9772 18.6855M29.2832 18.9593C29.5407 18.6937 30.3457 18.8627 30.0559 19.2008M29.8627 18.8543C30.0075 18.3633 30.8688 18.6691 30.5871 18.8704M29.6857 18.3633C29.7099 18.4599 29.7178 18.7013 29.557 18.8301M30.4102 18.2668C30.4423 18.3473 30.4344 18.5002 30.3619 18.5968M30.9572 18.2748C31.0056 18.3633 31.086 18.5323 30.9089 18.6692M24.0677 14.5723C24.0756 15.031 24.2367 15.3369 24.8565 15.0472M24.2607 15.1198C23.9549 15.5303 24.3009 15.973 24.9047 15.5303M23.3187 15.3208C23.7372 15.7715 24.4858 15.4415 24.0029 14.7573M24.5102 15.7073C24.4296 16.15 24.7919 16.2385 25.0896 16.0373M22.9487 15.3933C23.025 15.8383 23.48 16.1901 23.9227 15.9165M23.4962 16.0053C23.4962 16.6412 24.3735 16.7136 24.5748 16.0536M24.2607 16.4558C24.5424 17.0353 25.1541 16.8019 25.3553 16.4478M23.6407 15.5303C23.7534 15.812 23.9789 16.1259 24.502 15.8925M22.0312 15.3933C22.1037 15.6267 22.5222 15.9084 23.0052 15.5864M22.3287 15.6913C22.071 16.0696 22.5862 16.4237 23.206 15.8603M22.6347 16.1583C22.7393 16.6895 22.9485 17.1161 23.7051 16.4319M23.3267 16.7053C23.6005 17.0433 24.019 17.2526 24.4134 16.6811" stroke="black" stroke-width="0.02605"/>
<path d="M24.7044 16.8018C24.6803 17.2042 24.7607 17.4054 25.0746 17.3893C25.3221 17.3767 25.5576 17.1801 25.6944 16.9708M25.0184 17.3898C25.0103 17.8486 25.3724 18.2108 26.0486 17.7439M25.2999 17.9288C25.1712 18.2749 25.5574 18.8383 26.3141 18.5485M23.6984 17.0113C23.6503 17.454 24.0607 17.7518 24.7207 17.1803M24.0204 17.5023C24.0446 17.8645 24.455 18.2991 25.0588 17.6713M24.3099 17.9613C24.2616 18.581 24.8331 18.7581 25.316 18.2833M23.4489 17.5023C23.5777 17.5103 23.6823 17.3977 23.7466 17.3171M23.7224 17.9528C23.8351 17.9769 24.0284 17.8723 24.0928 17.7435M24.0044 18.6853C24.1332 18.8221 24.5678 18.7255 24.624 18.5404M24.4874 18.6773C24.7289 19.2407 25.3726 19.2165 25.6383 18.5807M25.5174 18.8063C25.6381 19.1363 25.9441 19.3455 26.4431 19.2329M25.7589 19.1443C25.4773 19.6031 25.8474 20.1423 26.4752 19.6111M25.9119 19.8283C25.8798 20.118 26.1454 20.448 26.5076 20.4883M24.7204 18.9833C24.6238 19.6352 25.0906 19.9492 25.6783 19.603M24.0364 19.2973C24.1893 19.418 24.4631 19.4341 24.7206 19.3375M25.0344 19.7158C24.8894 20.2631 25.4529 20.6575 25.9359 20.0458M24.2539 19.3858C24.2621 19.6675 24.5358 19.9733 25.0106 19.8848M26.3384 20.4483C26.0163 20.6656 25.9519 21.0519 26.4028 21.3014M25.5494 20.3353C25.5657 20.6653 25.7186 20.8504 26.0807 20.8826M25.0749 20.1663C24.592 20.609 25.0668 21.1241 25.6383 20.6895M25.4129 20.8263C25.2519 21.3334 25.8556 21.6392 26.1775 21.1241M24.4149 19.7478C24.2378 20.2468 24.4633 20.5768 24.8737 20.5446M23.7789 19.6513C23.8031 19.9491 24.0606 20.0537 24.3504 19.9893M23.9639 19.9653C23.7466 20.3838 24.0766 20.6092 24.5114 20.4482M25.8314 21.3818C25.7589 21.6474 25.7991 21.8406 26.1935 21.9291M25.8554 21.7603C25.3804 21.9776 25.3402 22.4364 25.7104 22.7342M25.4729 21.2493C25.2236 21.4747 25.2717 21.865 25.5454 22.0179M23.3604 19.7803C23.0867 20.0499 23.3483 20.7944 23.9519 20.388M24.9299 20.7218C24.5595 21.0276 24.7287 21.583 25.3403 21.4301M24.3179 20.4883C24.1248 21.0356 24.31 21.2288 24.7446 21.2368" stroke="black" stroke-width="0.02605"/>
<path d="M22.9594 19.7556C22.6294 20.0051 22.7179 20.3592 22.8629 20.5202C23.0077 20.6812 23.2813 20.6087 23.3698 20.3995M22.2669 19.5386C21.8967 20.0135 22.2669 20.5769 22.7902 20.4079M24.2474 20.9471C23.869 21.0839 23.5805 21.4274 23.8126 21.7278C23.9495 21.9049 24.5451 21.9291 24.7141 21.2449M23.5629 20.5041C23.3456 20.818 23.4179 21.1158 23.8204 21.2687M23.5389 21.0921C23.3054 21.2209 23.1524 21.3738 23.2089 21.6555M23.0159 20.6011C22.9274 20.9794 23.0319 21.2128 23.2652 21.3255M23.0079 21.0516C22.6456 21.0274 22.4606 21.1803 22.5812 21.5345M22.6134 21.1401C22.2592 21.0113 22.2027 20.7054 22.3557 20.3835M22.3074 20.8586C21.9209 20.8747 21.752 21.0678 21.752 21.3335" stroke="black" stroke-width="0.02605"/>
<path d="M21.7829 19.3534C21.5012 19.4741 21.4127 19.8524 21.5172 20.0617C21.622 20.2709 21.952 20.2871 22.1533 20.1502M20.9944 19.0559C20.7369 19.3456 21.0346 19.9091 21.4935 19.7722M20.3344 18.8304C20.0929 19.1684 20.3585 19.7319 20.9783 19.5709M21.0104 21.1404C20.946 20.7379 21.3645 20.4723 21.8798 20.9955M21.6304 20.1829C21.4775 20.3197 21.4052 20.537 21.4291 20.7141M19.6744 18.6374C19.4087 19.0881 19.7309 19.4986 20.3023 19.3376M21.1634 19.7559C20.785 20.1342 20.9138 20.5125 21.1955 20.7298M20.9219 20.1989C20.3504 20.2069 20.3183 20.8669 20.7852 21.0762M20.4874 19.5389C20.254 19.6999 20.1815 20.1425 20.584 20.3196M20.4714 20.5289C20.2299 20.4162 19.9401 20.553 19.9643 20.8347M20.1089 20.5369C19.8916 20.0217 19.2557 20.1103 19.3122 20.6415M20.2859 19.9009C20.1492 19.925 19.8755 20.0055 19.7709 20.2148M19.8114 19.3214C19.5539 19.6111 19.7549 19.9572 19.9643 20.0297M19.0469 18.5084C18.9985 18.8545 19.1354 19.0235 19.57 18.9913M19.1994 18.9514C19.0302 19.3699 19.2556 19.555 19.6902 19.5309M19.2959 19.4664C19.0384 19.7722 19.2155 20.1023 19.4649 20.2391M19.1754 19.8529C18.7166 19.7965 18.6441 20.3278 18.797 20.5773" stroke="black" stroke-width="0.02605"/>
<path d="M18.8038 18.4678C18.5222 18.5885 18.3612 18.9427 18.5141 19.16C18.6671 19.3773 18.9729 19.3048 19.1419 19.1922M18.6108 19.2563C18.3774 19.6104 18.5866 19.876 18.8362 19.9807" stroke="black" stroke-width="0.02605"/>
<path d="M17.7081 18.4277C17.523 18.6209 17.6356 19.0153 18.0864 19.0234C18.4493 19.0299 18.6336 18.6853 18.521 18.4439M18.0221 19.0232C17.8772 19.3452 17.9657 19.6913 18.5131 19.6349M18.7466 20.1422C18.4086 19.9893 17.9578 20.1422 18.151 20.5447M18.1026 19.5707C17.9657 19.7639 18.0141 20.0376 18.167 20.2066M18.0786 20.0857C17.8532 20.126 17.6359 20.2467 17.7727 20.6009M17.7401 20.3112C17.4503 20.2227 17.0801 20.432 17.3054 20.7297M17.2576 20.4482C17.0081 20.408 16.7103 20.6736 16.9517 20.9392M16.8551 20.7217C16.6297 20.7781 16.3641 21.0356 16.5975 21.2369M17.9901 19.4582C17.6681 19.6031 17.6359 19.9653 17.7888 20.2309M17.6516 18.7902C17.1686 18.9754 17.1767 19.6193 17.7079 19.8205M17.4826 19.6752C17.1928 19.8442 17.1365 20.1662 17.3297 20.3755M16.9756 18.5487C16.7824 18.6131 16.7985 19.2087 17.3136 19.1926M16.4446 18.7497C16.0582 19.0073 16.5251 19.6592 17.1529 19.1924M16.8066 19.3532C16.7502 19.6189 16.8227 19.9086 17.2493 19.9408M16.8306 19.7077C16.5247 19.8204 16.4684 20.4482 17.0237 20.4965M15.8571 19.1362C15.4627 19.4984 16.1791 19.8123 16.4447 19.2892M15.3096 19.7397C15.1164 19.9731 15.7925 20.5849 16.0903 19.5626M16.1626 19.5467C16.1787 19.7882 16.3236 19.9331 16.6213 19.9492M16.6136 20.1827C16.1387 20.2552 15.9858 20.8508 16.517 20.9796M15.7361 20.1022C15.72 20.3276 15.9534 20.5127 16.219 20.4725M16.4606 20.9632C16.0259 21.0598 15.9696 21.6232 16.356 21.591M16.1546 22.1142C15.7923 22.0056 15.7843 21.5749 16.1063 21.414" stroke="black" stroke-width="0.02605"/>
<path d="M15.8576 21.7356C15.5517 21.9208 15.6725 22.3634 15.8334 22.4278C15.9944 22.4922 16.1232 22.4117 16.1393 22.2749M16.1151 22.8946C16.1473 23.1039 15.3705 23.0234 15.769 22.3715M15.7646 22.9311C15.503 23.3416 15.9296 23.6756 16.1992 23.3255M15.8011 23.4261C15.6964 23.7561 16.0948 23.9936 16.3524 23.736M14.9316 20.3351C14.7867 20.6329 15.5111 20.7456 15.5594 20.1339M14.7306 20.7781C14.5857 21.3576 15.6803 21.2369 15.3986 20.4884M15.4226 20.8746C15.5755 20.9631 16.0343 20.9712 16.147 20.4802M15.8171 20.8906C15.8493 21.0435 15.9861 21.2286 16.1149 21.285M15.2941 21.0436C15.2458 21.3575 15.5597 21.6151 15.9219 21.591M15.3501 21.3496C15.173 21.5911 15.1167 22.0579 15.6721 22.0901M14.5051 21.4301C14.4166 21.6796 14.9397 21.9372 15.2456 21.5267M14.3441 22.0656C14.2998 22.2548 14.7707 22.5083 15.0363 21.7034M14.8271 22.1141C14.9398 22.3153 15.3181 22.4763 15.5515 22.0819M15.1731 22.3236C15.0765 22.6053 15.3421 22.8709 15.6641 22.7905M14.5696 22.2591C14.5052 22.6616 14.972 22.895 15.2618 22.6857M14.2636 22.4361C14.1268 22.9513 14.7868 23.1444 15.0363 22.7581M14.8676 22.9111C14.8917 23.2009 15.3425 23.4504 15.6966 23.2089M14.0626 23.1526C14.0304 23.2814 14.5697 23.4102 14.6501 22.9594M14.3766 23.2651C14.5053 23.5951 14.94 23.6756 15.1895 23.2732M15.0446 23.4341C15.1009 23.74 15.4953 23.909 15.8414 23.6997M15.9861 23.8206C15.8976 24.2311 16.3241 24.5611 16.5897 24.3358M15.3021 23.7481C15.1733 24.1989 15.7367 24.4564 16.0506 24.2069M14.6261 23.5226C14.5939 23.9411 14.9239 24.1907 15.3022 24.0055M13.9096 23.5631C13.7969 23.8368 14.3925 24.0621 14.6742 23.8288M13.5391 24.3116C13.692 24.4887 14.2232 24.3116 14.2715 23.9172M14.1271 24.2066C14.3202 24.432 14.779 24.5527 14.9642 24.0698M14.8031 24.3196C14.795 24.6657 15.4148 24.9153 15.616 24.2794M16.3441 24.4041C16.2877 24.5731 16.4206 24.8428 16.6982 24.875M15.8331 24.2996C15.7928 24.4928 16.0746 24.7624 16.3724 24.6538M16.4291 24.7341C16.3486 24.9434 16.417 25.2452 16.6987 25.2412M16.4571 25.1246C16.2478 25.3017 16.3363 25.6156 16.6382 25.6277M16.3486 25.4221C16.0508 25.6232 16.1554 26.066 16.5498 26.042M15.4471 24.5691C15.4471 25.0038 15.9863 25.0681 16.091 24.6657M15.8816 24.9231C15.8011 25.1807 16.0103 25.4302 16.3403 25.3578M15.9461 28.0301C16.0186 28.1349 16.3163 27.9578 16.2358 27.7808C16.1553 27.6037 15.8399 27.6999 15.8736 27.8853M16.1631 27.7081C16.2033 27.354 15.7848 27.2977 15.6801 27.6035M15.8331 27.4266C15.9377 27.2495 15.5836 27.0081 15.4387 27.2656M15.5676 27.1606C15.6642 26.9029 15.2617 26.7904 15.2295 27.0238M15.1411 26.6856C15.1894 26.5569 15.6401 26.6373 15.4469 26.9029M15.7931 27.2251C15.9702 27.0641 15.6724 26.7341 15.4872 26.8549M16.9841 27.7161C16.8432 27.7321 16.6983 27.8246 16.8029 28.1226C16.8755 28.3293 17.1853 28.3399 17.2295 28.2151" stroke="black" stroke-width="0.02605"/>
<path d="M16.7777 27.8655C16.6409 27.777 16.3431 27.9259 16.4799 28.2157C16.5829 28.4339 16.8421 28.3445 16.8824 28.2318M16.0087 28.28C16.0771 28.4007 16.4192 28.3485 16.4796 28.2156M16.2422 27.8815C16.3147 27.8332 16.4474 27.8934 16.4756 27.9538M16.2182 25.8975C15.9848 26.0504 16.1297 26.5173 16.4919 26.3965M16.1457 26.276C15.9606 26.4208 16.1296 26.8717 16.4757 26.7027M16.2022 26.7025C16.0735 26.8313 16.1982 27.1894 16.5322 27.121M16.1537 26.8795C16.0812 26.8472 15.8921 26.8714 15.8116 26.992M15.9447 25.2495C15.7677 25.4185 15.8521 25.7647 16.1821 25.7928M15.8802 25.6035C15.6266 25.7283 15.6266 26.2312 16.1337 26.2514M15.8602 26.171C15.7194 26.2837 15.7878 26.7183 16.15 26.6619M15.9767 26.646C15.9244 26.6983 15.9163 26.8312 15.9606 26.8875M15.8157 26.481C15.687 26.485 15.5179 26.5777 15.4736 26.7104M15.2402 26.2435C15.2885 26.1148 15.687 26.1229 15.7151 26.5012M15.7552 26.0505C15.6989 26.0626 15.5902 26.1149 15.5621 26.2236M15.5822 24.8715C15.4091 25.0285 15.3247 25.5235 15.8518 25.62M15.2322 25.8935C15.2322 25.7606 15.5904 25.6479 15.7152 25.8452M15.0027 25.173C15.055 25.2737 15.3045 25.4105 15.4575 25.2978M13.7067 24.3845C13.6987 24.6179 13.8919 24.8272 14.1575 24.795C14.4231 24.7628 14.4795 24.5294 14.399 24.3765M14.1977 24.803C14.0206 25.0203 14.238 25.3262 14.4392 25.2377M14.3992 24.65C14.5039 24.6098 14.85 24.5615 14.9546 24.7225M13.2802 24.7145C13.1997 24.8353 13.6988 24.956 13.8678 24.7225M13.6987 24.843C13.6826 25.004 13.7631 25.2777 14.1736 25.165" stroke="black" stroke-width="0.02605"/>
<path d="M14.2407 25.4142C14.3051 25.2773 13.9992 25.052 13.7658 25.3015C13.5324 25.551 13.798 25.8327 13.9429 25.7361M13.1702 24.8752C13.0495 25.0844 13.5163 25.4668 13.782 25.1127" stroke="black" stroke-width="0.02605"/>
<path d="M12.8601 25.237C12.6911 25.4101 12.9004 25.728 13.1539 25.6314C13.4074 25.5348 13.3833 25.2692 13.323 25.2008" stroke="black" stroke-width="0.02605"/>
<path d="M12.5338 25.5593C12.397 25.684 12.5298 25.9778 12.719 25.9778C12.9081 25.9778 13.0248 25.829 12.9886 25.6398M13.3023 25.5353C13.2782 25.7204 13.5518 25.8491 13.7289 25.6762M13.7373 25.3378C13.7615 25.2975 13.7414 25.2291 13.7012 25.1969M12.2403 25.8088C12.0834 25.9336 12.4215 26.2796 12.6347 25.9617M13.4513 25.7403C13.3507 25.8368 13.5117 26.0903 13.6726 26.0138M12.9003 25.9173C12.9245 26.0902 13.2625 26.2189 13.4758 25.9535M13.0853 26.0903C13.033 26.199 13.1377 26.3722 13.2665 26.348M16.2888 27.0848C16.1641 27.3302 16.5625 27.616 16.8523 27.3181M16.5783 27.4508C16.518 27.5835 16.5904 27.7687 16.6991 27.837M16.2003 27.7283C16.2285 27.6074 16.4015 27.4948 16.5585 27.5512M15.9908 27.4103C16.015 27.3018 16.1598 27.193 16.2685 27.2213M25.4683 22.3878C24.8969 22.3958 25.1383 23.3134 25.6293 23.1283M25.2833 23.0643C25.1706 23.2494 25.3879 23.5432 25.6293 23.3701M25.5653 23.4063C25.3962 23.688 25.9999 24.1186 26.2414 23.6759M26.0483 23.8448C26.0562 24.1104 26.829 24.2794 26.7165 23.7482M26.6438 24.0378C26.8288 24.3517 27.5211 24.3839 27.4486 23.917M27.2958 24.2393C27.4408 24.4485 28.1169 24.5773 28.0927 24.1427M24.5508 21.5913C24.6473 21.8408 24.9773 21.9293 25.3396 21.7844M24.3418 21.7683C24.5672 21.9131 24.2372 22.5732 23.8912 22.3075M24.3418 22.1788C24.5914 22.2995 24.8972 22.211 24.9858 21.8568M24.8328 22.1303C24.857 22.3154 25.1226 22.4603 25.4687 22.3878M24.2128 22.3238C24.5349 22.5974 24.068 23.1609 23.8587 22.9033M24.3338 22.5328C24.4867 22.6455 24.8811 22.5811 24.9213 22.2833M24.7443 22.5328C24.7766 22.7259 24.9295 22.7984 25.1468 22.8064M24.2453 22.7983C24.4062 23.0237 24.8087 23.088 24.9857 22.7903M25.2833 23.3054C25.0337 23.3537 24.7923 23.1766 24.8083 22.9593C24.8406 23.2651 24.4623 23.4261 24.2208 23.2893M23.9313 23.4423C24.1405 23.5469 24.3659 23.1525 24.1888 22.8789M24.1728 23.8608C24.4224 23.8769 24.4545 23.4986 24.2212 23.2893M24.7443 24.2068C24.9537 24.1585 24.8891 23.6997 24.382 23.6594M25.3798 24.5453C25.5811 24.4889 25.42 23.9818 24.8648 24.014M26.1448 24.7223C26.2815 24.513 25.8308 24.1589 25.4607 24.344M26.5228 25.0118C26.7724 25.0842 26.9413 24.4242 26.1526 24.5288M26.9818 25.0118C27.1993 24.9554 27.3522 24.561 26.7164 24.6898M27.4648 25.0443C27.6579 25.1409 27.7465 24.5774 27.1588 24.7304M24.7118 23.2253C24.7925 23.3701 24.7602 23.6519 24.6072 23.7243M24.7358 23.5633C24.8968 23.6277 25.1142 23.5713 25.2429 23.3138M25.0178 23.5633C25.066 23.676 25.0822 23.9013 24.9774 24.014M25.0583 23.7563C25.2354 23.8529 25.4446 23.7241 25.5331 23.5389M25.4203 23.6998C25.5491 23.7803 25.6618 24.1586 25.4445 24.3115M25.5653 24.1348C25.7182 24.1428 25.9437 24.1428 26.0885 23.9496M25.9838 24.0543C26.1207 24.0945 26.2815 24.3199 26.2253 24.5211M26.2333 24.4483C26.3865 24.4322 26.6518 24.3275 26.7243 24.1424M26.6518 24.2633C26.7808 24.3357 26.8693 24.4886 26.8531 24.6657M26.8528 24.5368C27.0057 24.5288 27.1426 24.4483 27.1828 24.2792M27.1428 24.3923C27.2555 24.4325 27.3924 24.5613 27.4005 24.7143M27.3843 24.6173C27.497 24.6012 27.5774 24.5288 27.65 24.416M27.9558 24.4003C28.1008 24.5452 27.9077 25.0281 27.6098 24.9396M24.8648 14.6448C24.5669 14.8218 23.7217 14.7655 24.1402 14.0653M24.9453 14.1698C24.3578 14.4032 23.6332 13.9525 24.3899 13.4615M24.1888 13.3008C23.6978 13.3008 23.3678 14.0896 24.028 14.3632M22.2813 13.6308C22.1526 13.8803 22.6113 14.1539 22.9253 13.9044C23.1684 13.7111 23.1505 13.1881 23.0057 12.9868M22.0318 14.2263C21.8708 14.7575 23.0541 14.7897 22.8689 13.9445M21.9673 15.0153C22.0075 15.4177 23.1023 15.2889 22.748 14.476M22.8768 14.2503C22.9653 14.371 23.2068 14.5803 23.6172 14.54M23.0698 13.6788C23.1061 13.8236 23.3515 13.9363 23.6655 13.8277M12.0873 25.9253C11.8097 26.1226 12.2363 26.4324 12.3932 26.0903M11.8698 26.0783C11.5922 26.2754 12.0188 26.5852 12.1757 26.2431M11.6403 26.2273C11.3626 26.4246 11.7892 26.7344 11.9462 26.3923M11.3988 26.3643C11.1332 26.5051 11.4431 26.8512 11.7127 26.5453M11.1373 26.4973C10.8717 26.6379 11.1816 26.9842 11.4512 26.6783M12.4858 26.0823C12.4818 26.2875 12.8722 26.3721 13.013 26.066M12.7313 26.2718C12.6106 26.4247 12.832 26.6139 12.9527 26.5453M12.2118 26.2433C12.1997 26.4164 12.5378 26.517 12.7028 26.3279M12.3973 26.4248C12.2886 26.5656 12.5019 26.7548 12.6388 26.6983M11.9868 26.4003C11.9988 26.5371 12.192 26.694 12.4013 26.6055M12.1113 26.5853C12.0308 26.6578 12.0711 26.8269 12.1838 26.8793M11.6928 26.5733C11.6606 26.6981 11.874 26.9195 12.0913 26.7745M11.7368 26.7183C11.6081 26.8189 11.6241 26.9718 11.7891 26.9918M11.4273 26.7023C11.4112 26.7867 11.5199 26.9235 11.6568 26.9075M10.7388 26.6943C10.6101 26.7626 10.9401 27.1128 11.1453 26.7868M10.4208 26.8388C10.2598 26.9154 10.6583 27.3017 10.8354 26.9073M11.4633 26.8228C11.3385 26.8509 11.2581 27.0322 11.3627 27.1044M11.0568 26.8873C11.0407 26.9598 11.1937 27.0804 11.3185 27.0363M10.9523 26.9198C10.8316 26.9963 10.896 27.2094 11.0368 27.1773M10.5218 27.0603C10.4091 27.1447 10.4856 27.3138 10.6426 27.2736M10.7268 27.0483C10.7309 27.0924 10.8315 27.161 10.916 27.1329M10.1313 26.9758C9.99055 27.0362 9.9986 27.3904 10.4735 27.1973M9.81335 27.1168C9.6161 27.2134 9.6805 27.4791 10.1111 27.2255M10.1473 27.2458C10.095 27.286 10.0387 27.4631 10.2358 27.3945M9.78535 27.3298C9.70485 27.4023 9.7572 27.5513 9.93435 27.4948M9.37085 27.3543C9.226 27.4389 9.54385 27.5516 9.7572 27.3261M9.46735 27.4588C9.40295 27.5232 9.40295 27.7123 9.57195 27.644M9.05685 27.5353C8.96025 27.6078 9.12525 27.7044 9.4271 27.5715M9.17735 27.6398C9.06465 27.7323 9.0767 27.8489 9.24175 27.8127M8.84335 27.6923C8.7186 27.805 8.8997 27.8814 9.117 27.7888M8.84735 27.8173C8.634 27.9138 8.7266 28.0908 8.85935 28.0225M15.9708 28.4328C15.9213 28.5393 16.0835 28.6259 16.2365 28.6018C16.3833 28.5786 16.5239 28.4576 16.4135 28.288M16.4213 28.4973C16.5662 28.61 16.8238 28.4813 16.8238 28.3121" stroke="black" stroke-width="0.02605"/>
<path d="M25.2978 11.4418C24.6539 11.1198 23.3178 10.5242 22.9395 11.0071C23.2855 10.8623 24.2997 11.0152 25.1368 11.7879L25.2978 11.4418Z" fill="white" stroke="black" stroke-width="0.02605"/>
<path d="M25.6894 11.4074C24.9448 10.5401 24.5063 10.7342 23.9709 10.4355C23.468 10.1548 22.6669 10.0974 22.5117 10.5438C23.2465 10.186 23.9211 10.7363 24.3355 10.8028C24.9046 10.8942 25.2259 11.3343 25.3924 11.5366L25.6894 11.4074ZM28.4944 11.2964C28.1079 10.411 27.2817 10.6423 26.9167 10.2662C26.3857 9.71885 25.0415 9.21175 24.4861 9.59005C25.7094 9.52565 26.2305 10.4333 26.8846 10.7491C27.3515 10.9745 27.8505 11.4574 28.4944 11.2964Z" fill="white" stroke="black" stroke-width="0.02605"/>
<path d="M27.0462 11.1997C26.3862 10.3787 25.3718 9.65433 24.9051 9.92798C25.5168 9.96018 25.7099 10.3868 26.1447 10.6604C26.5793 10.9341 26.3862 11.3285 27.0462 11.1997ZM23.9067 12.6487C23.2144 12.3912 21.8623 12.2624 21.2344 13.0512C22.2808 13.2282 23.8583 13.1317 23.9067 12.6487Z" fill="white" stroke="black" stroke-width="0.02605"/>
<path d="M23.7773 12.9549C23.085 12.6329 22.5444 13.0826 21.8937 13.0193C20.6543 12.8985 19.7689 12.971 19.6562 13.5666C20.3646 12.9307 21.5558 13.4539 22.0387 13.3251C22.5216 13.1963 24.3086 13.309 24.8719 13.5505C24.5821 13.1963 24.1315 13.0998 23.7773 12.9549ZM25.9503 11.1114C25.7895 10.5801 25.7974 10.0167 26.5942 10.057C26.393 9.80749 25.6526 9.67869 25.5317 10.6124C24.6544 9.96849 23.6965 9.85579 23.5196 10.4112C23.9703 10.0248 24.6705 10.3065 25.5076 11.2563C25.5801 11.2161 25.7732 11.1356 25.9502 11.1114L25.9503 11.1114Z" fill="white" stroke="black" stroke-width="0.02605"/>
<path d="M24.7423 11.8436C24.2433 11.5216 23.5671 10.9984 24.7505 10.7892C24.2434 10.5155 23.5028 10.6362 23.5834 11.5699C22.2311 11.0226 21.26 11.2073 21.0559 11.747C20.8304 12.3426 21.6678 12.6726 21.8125 12.2943C21.6596 12.3587 21.1365 12.1817 21.41 11.8436C21.6838 11.5056 23.0863 11.7593 24.4204 12.4553C24.7906 12.6485 26.0624 12.6163 24.7423 11.8436Z" fill="white" stroke="black" stroke-width="0.02605"/>
<path d="M24.3882 12.7291C24.0032 11.943 22.7543 12.6566 22.5026 11.8952C22.1586 13.0108 24.2786 12.3935 24.3882 12.7291ZM32.3327 13.5821C32.5946 13.7122 32.8211 13.5076 32.4204 13.3472C32.6825 13.4772 32.9111 13.2776 32.5104 13.117C32.7725 13.2471 33.0011 13.0474 32.6004 12.8869C32.4936 12.9945 32.3406 13.3889 32.3327 13.5821ZM32.4692 12.0691C33.0488 11.4574 32.4211 11.2481 33.1292 10.6203C33.7088 10.1066 33.2398 9.76425 33.7894 9.3646C33.9665 9.23585 34.3528 8.97825 34.3851 8.7207C34.6184 9.3002 33.6605 9.3807 33.7249 10.3144C33.7659 10.9089 33.364 10.857 33.2099 11.8598C33.1776 12.0691 33.0328 12.5359 32.4692 12.0691Z" fill="white" stroke="black" stroke-width="0.02605"/>
<path d="M32.7266 12.3429C33.0485 11.6507 33.418 11.664 33.5957 11.3932C33.9339 10.878 34.6501 11.4817 35.2539 11.0229C35.1493 11.6749 34.3364 11.4414 33.9822 11.86C33.6281 12.2785 33.3383 12.4717 32.7266 12.3429Z" fill="white" stroke="black" stroke-width="0.02605"/>
<path d="M32.8078 12.5684C33.3713 12.1176 33.7865 12.4184 34.1761 12.182C35.158 11.5864 35.5526 12.3027 36.4299 12.021C36.1964 12.5844 34.9005 12.1015 34.3372 12.5201C33.7736 12.9386 31.7936 13.3411 32.8078 12.5684ZM31.1658 15.7799C31.1576 15.5223 30.9162 15.1923 30.5781 15.1521C30.2402 15.1118 30.0952 14.7577 29.8377 14.7416C29.5802 14.7255 29.411 14.2103 29.0568 14.2184C28.7027 14.2264 28.5578 14.6852 29.3868 15.1038C30.216 15.5223 31.1335 16.0052 31.1658 15.7799ZM30.1193 15.9974C29.7651 16.0135 29.7168 16.5286 29.3789 16.5447C29.8455 16.7942 30.1837 16.432 30.4251 16.1101L30.1193 15.9974Z" fill="white" stroke="black" stroke-width="0.02605"/>
<path d="M30.411 16.0611C30.1052 16.3186 30.0166 16.8579 30.4594 17.0108C30.1937 16.6446 30.9262 16.4796 30.7008 16.1415L30.411 16.0611Z" fill="white" stroke="black" stroke-width="0.02605"/>
<path d="M30.715 16.0777C30.4735 16.5446 31.0934 16.6009 30.9323 16.9551C31.2865 16.8746 31.3429 16.2065 31.0208 16.0294L30.715 16.0777Z" fill="white" stroke="black" stroke-width="0.02605"/>
<path d="M28.3496 15.0791C28.9292 15.0469 29.4592 15.3604 29.8146 15.8679C30.04 16.1898 30.7965 16.3186 31.0542 16.061C31.3117 15.8035 31.1669 15.2561 30.523 15.4332C30.362 15.1596 29.8951 15.2562 29.6698 15.0308C29.4444 14.8054 28.575 14.1615 28.3496 15.0791Z" fill="white" stroke="black" stroke-width="0.02605"/>
<path d="M30.5231 15.434C30.3702 15.4662 30.3218 15.7318 30.4183 15.8687L30.5231 15.434ZM30.8531 15.595C30.9014 15.6755 30.8691 15.7882 30.8449 15.8445L30.8531 15.595ZM29.2676 15.104C29.5653 15.1201 29.6217 15.3375 29.9436 15.4179L29.2676 15.104Z" fill="white"/>
<path d="M30.5231 15.434C30.3702 15.4662 30.3218 15.7318 30.4183 15.8687M30.8531 15.595C30.9014 15.6755 30.8691 15.7882 30.8449 15.8445M29.2676 15.104C29.5653 15.1201 29.6217 15.3375 29.9436 15.4179" stroke="black" stroke-width="0.02605" stroke-linecap="round"/>
<path d="M29.0705 14.3712C30.0991 14.6287 30.9151 14.8541 31.4212 15.1439C31.9272 15.4336 32.7108 15.5141 33.3964 15.321C34.082 15.1278 35.4041 14.9507 35.3389 15.8039C35.6983 15.3773 35.241 14.9185 34.3268 14.838C34.3433 14.4195 33.8953 14.0411 33.5732 14.2906C33.8711 14.2504 34.1282 14.8058 33.5407 15.0311C33.6549 14.6126 33.2386 14.2343 32.8061 14.4194C33.0836 14.4999 33.3643 14.9653 32.7434 15.1438C32.3515 15.2565 31.7803 15.1117 31.3559 14.8541C30.9315 14.5965 28.5482 13.6628 29.0705 14.3712Z" fill="white" stroke="black" stroke-width="0.02605"/>
<path d="M31.6663 13.9526C31.3444 14.0975 31.5536 14.4356 31.0547 14.6287C30.5555 14.8219 30.2095 15.2646 30.3222 15.6429C30.6603 14.9024 31.2559 14.9346 31.465 14.6448C31.6744 14.3551 31.9803 13.9285 31.6663 13.9526Z" fill="white" stroke="black" stroke-width="0.02605"/>
<path d="M31.7533 14.0003C31.7373 14.5879 31.2748 14.3738 31.4554 15.1996C31.5119 15.4572 31.6164 15.8757 31.4394 16.2943C31.9585 15.916 31.6246 15.1213 31.8579 14.8213C31.9706 14.6765 32.1154 14.4511 32.1719 14.2579C32.051 14.5959 32.0592 15.2238 32.3892 15.3848C32.1235 14.7569 33.1056 14.2418 32.4294 13.5174C32.3329 13.6945 32.0269 14.0084 31.7533 14.0003ZM30.1113 13.4128C30.192 13.5336 30.2723 13.8394 30.1998 14.0085C30.3609 13.9119 30.5945 13.6624 30.6667 13.4933C30.9967 13.5416 31.1255 13.9521 30.8117 14.1292C31.0049 14.1292 31.3349 14.1292 31.5199 13.9119C31.2947 13.6624 30.5945 13.276 30.1114 13.4128H30.1113Z" fill="white" stroke="black" stroke-width="0.02605"/>
<path d="M25.1044 12.259C25.0523 12.2115 24.9644 12.1664 24.8067 12.134C24.3194 12.0341 24.5711 11.5948 24.9859 11.5987C25.8711 10.6328 26.3682 11.3774 27.4467 11.0715C27.8242 10.9645 28.0834 10.9962 28.289 11.0851C28.7719 10.7631 29.3384 10.8531 29.749 11.2314C29.7947 11.1589 29.8559 11.1035 29.9419 11.0796C30.3201 10.9746 30.6259 11.297 30.7305 11.7156C31.0253 11.6609 31.362 11.8068 31.5834 12.0081C31.8901 11.8506 32.1013 11.8436 32.179 12.0055C32.4528 11.8767 32.8074 11.796 32.9844 12.2306C33.1615 12.6652 32.5659 12.5365 32.4692 13.4541C32.4097 14.0201 31.7771 14.2428 31.278 13.9048C30.4796 13.3639 29.7005 13.2769 29.314 14.098C28.9278 14.919 28.6251 15.396 27.6882 15.1282C27.3503 15.0316 26.9155 15.1604 26.6419 15.5307C26.3682 15.9009 25.9496 15.5548 25.4507 15.595C26.0784 15.4985 25.838 15.3405 26.3844 15.3053C26.8834 15.2731 26.7547 14.8063 27.0765 14.7419C25.8209 15.0639 25.8692 14.597 24.839 14.9189C25.2897 14.3394 25.998 14.6614 26.3522 14.3233C25.4184 14.3072 25.0009 13.6972 24.5813 13.9531C23.9213 14.3556 24.2109 15.5013 22.4886 15.4019C21.6515 15.3536 21.1203 15.4663 20.6213 15.9654C21.4907 14.1624 22.6732 15.1529 23.2453 14.5809C23.5834 14.2429 23.8409 13.9853 24.018 13.6633C24.0803 13.55 24.1647 13.4852 24.2701 13.4602C22.8374 13.0094 23.7038 12.3073 25.1045 12.259L25.1044 12.259Z" fill="white" stroke="black" stroke-width="0.02605"/>
<path d="M32.1809 12.0049C32.2028 12.0502 32.214 12.1089 32.214 12.1816C32.214 12.5357 31.6828 12.5518 31.6507 13.075C31.6338 13.3487 31.6024 13.5016 31.4172 13.4694C31.2322 13.4372 31.0711 13.1474 31.2482 12.8094" fill="white"/>
<path d="M32.1809 12.0049C32.2028 12.0502 32.214 12.1089 32.214 12.1816C32.214 12.5357 31.6828 12.5518 31.6507 13.075C31.6338 13.3487 31.6024 13.5016 31.4172 13.4694C31.2322 13.4372 31.0711 13.1474 31.2482 12.8094" stroke="black" stroke-width="0.02605" stroke-linecap="round"/>
<path d="M25.3726 11.731C25.2392 11.6373 25.1059 11.5993 24.9863 11.5982L25.3726 11.731ZM28.2886 11.082C28.7148 11.2665 28.9227 11.7093 29.5419 11.731C30.138 11.7519 30.508 12.6164 31.5059 12.053C31.533 12.0377 31.5594 12.0235 31.585 12.0103M29.7516 11.231C29.6626 11.3725 29.6424 11.5699 29.6668 11.7432L29.7516 11.231ZM27.8036 13.051C27.0471 13.051 26.8538 13.4374 26.8538 13.8076C26.8538 14.1779 27.2079 14.6608 27.8359 14.6608C28.4636 14.6608 28.8017 14.2745 28.8017 13.8559C28.8017 13.4374 28.4152 13.051 27.8036 13.051Z" fill="white"/>
<path d="M25.3726 11.731C25.2392 11.6373 25.1059 11.5993 24.9863 11.5982M28.2886 11.082C28.7148 11.2665 28.9227 11.7093 29.5419 11.731C30.138 11.7519 30.508 12.6164 31.5059 12.053C31.533 12.0377 31.5594 12.0235 31.585 12.0103M29.7516 11.231C29.6626 11.3725 29.6424 11.5699 29.6668 11.7432M27.8036 13.051C27.0471 13.051 26.8538 13.4374 26.8538 13.8076C26.8538 14.1779 27.2079 14.6608 27.8359 14.6608C28.4636 14.6608 28.8017 14.2745 28.8017 13.8559C28.8017 13.4374 28.4152 13.051 27.8036 13.051Z" stroke="black" stroke-width="0.02605"/>
<path d="M27.9374 14.6448C27.9214 14.4356 27.543 14.4677 27.5591 14.3068C27.5751 14.1458 27.7685 14.0814 27.7685 13.856C27.7685 13.6307 28.1064 13.6145 28.2191 13.7916C28.3318 13.9687 28.6699 14.3148 28.7424 14.1377M28.2194 13.7918C28.0423 13.9689 27.9619 14.3311 28.1953 14.6128L28.2194 13.7918ZM28.4609 14.0653C28.4047 14.1861 28.3886 14.3712 28.453 14.4838L28.4609 14.0653Z" fill="white"/>
<path d="M27.9374 14.6448C27.9214 14.4356 27.543 14.4677 27.5591 14.3068C27.5751 14.1458 27.7685 14.0814 27.7685 13.856C27.7685 13.6307 28.1064 13.6145 28.2191 13.7916C28.3318 13.9687 28.6699 14.3148 28.7424 14.1377M28.2194 13.7918C28.0423 13.9689 27.9619 14.3311 28.1953 14.6128M28.4609 14.0653C28.4047 14.1861 28.3886 14.3712 28.453 14.4838" stroke="black" stroke-width="0.02605"/>
<path d="M31.4668 13.4741C32.0585 13.5224 32.1591 12.8704 31.7164 12.8302M30.7388 11.7156C30.5336 11.454 30.0628 11.3655 30.0547 11.9208" stroke="black" stroke-width="0.02605"/>
<path d="M29.9987 12.5522C29.7974 12.0532 29.2822 11.9807 29.0085 12.2302C28.7808 12.4379 28.7751 12.9788 29.2662 13.0915C29.4352 12.8903 29.7652 12.6246 29.9987 12.5522ZM29.7772 12.2382C29.4874 11.9806 29.0607 12.4676 29.4472 12.9143L29.7772 12.2382ZM24.2647 13.4577C24.4587 13.4117 24.7422 13.5066 25.177 13.7111C25.4507 13.8399 26.2718 14.1136 26.7868 13.8399C26.2555 14.0331 25.8532 13.2281 25.4507 13.3247C25.0482 13.4213 24.3118 13.5702 24.002 13.2764C24.7584 13.3247 25.1653 12.7254 26.0301 13.2442C26.2718 13.3891 26.5776 13.4857 26.8512 13.4696C26.143 12.6164 25.2093 13.1637 25.1126 12.4716C25.5393 12.9304 26.5816 12.3669 27.1128 13.2282M25.2657 12.6002C25.1661 12.4762 25.2111 12.3527 25.1042 12.255L25.2657 12.6002Z" fill="white"/>
<path d="M29.7772 12.2382C29.4874 11.9806 29.0607 12.4676 29.4472 12.9143M24.2647 13.4577C24.4587 13.4117 24.7422 13.5066 25.177 13.7111C25.4507 13.8399 26.2718 14.1136 26.7868 13.8399C26.2555 14.0331 25.8532 13.2281 25.4507 13.3247C25.0482 13.4213 24.3118 13.5702 24.002 13.2764C24.7584 13.3247 25.1653 12.7254 26.0301 13.2442C26.2718 13.3891 26.5776 13.4857 26.8512 13.4696C26.143 12.6164 25.2093 13.1637 25.1126 12.4716C25.5393 12.9304 26.5816 12.3669 27.1128 13.2282M25.2657 12.6002C25.1661 12.4762 25.2111 12.3527 25.1042 12.255M29.9987 12.5522C29.7974 12.0532 29.2822 11.9807 29.0085 12.2302C28.7808 12.4379 28.7751 12.9788 29.2662 13.0915C29.4352 12.8903 29.7652 12.6246 29.9987 12.5522Z" stroke="black" stroke-width="0.02605"/>
<path d="M30.74 11.7151C30.5629 11.526 30.1766 11.6749 30.2852 12.0572C30.3698 11.8802 30.5508 11.7312 30.74 11.7151ZM29.6455 12.7461C29.7674 12.6576 29.8932 12.585 29.9992 12.552C29.9413 12.4088 29.8577 12.3007 29.7613 12.2253C29.6692 12.1617 29.4046 12.5175 29.6455 12.7461Z" fill="black"/>
<path d="M29.1699 12.0935C28.8801 11.9003 28.6145 11.9164 28.5259 12.0774C28.3168 12.0694 28.1436 12.2223 28.1355 12.5281M28.5824 12.657C28.2364 12.4196 27.7613 12.5081 27.7936 13.0393M27.5844 13.341C27.7534 13.2041 27.9948 13.1076 28.18 13.349M30.1684 12.818C30.104 12.9065 30.0557 13.0433 30.1602 13.2526C30.0315 13.0836 29.7096 13.0836 29.3633 13.5343M30.9329 12.794C30.5144 12.8423 30.5225 13.1159 30.8604 13.2367M27.9549 11.7715C27.6007 11.699 27.3432 11.9083 27.8342 12.0854M28.6309 11.53C28.1317 11.4092 27.9305 11.538 28.1559 11.6507M27.1899 13.5345C27.1739 13.7116 27.2703 13.945 27.5601 13.6794M27.2869 14.0655C27.2869 14.1138 27.2787 14.1701 27.2465 14.2103M26.1274 11.707C25.8215 11.6185 25.7653 11.3367 26.1195 11.3609M26.0229 12.359C25.6847 12.2463 25.6847 11.9163 25.9664 11.9485M26.6509 12.19C26.2565 12.0934 26.2405 11.8197 26.5384 11.86M26.6989 11.353C26.4897 11.3369 26.1676 11.5703 26.707 11.7071M27.2869 11.82C26.7959 11.7475 26.804 11.9488 27.0935 12.0776M27.6569 11.353C27.2785 11.2805 27.1498 11.5059 27.4073 11.6025M26.4659 12.7455C26.3732 12.669 26.2969 12.3028 26.7394 12.4115M27.3834 12.633C27.0857 12.5525 26.804 12.8422 27.0775 13.0113M27.7774 12.287C27.4636 12.2306 27.198 12.3192 27.367 12.4318" stroke="black" stroke-width="0.02605" stroke-linecap="round"/>
<path d="M30.7233 11.7153C30.5464 11.7481 30.3879 11.852 30.2852 12.0573L30.7233 11.7153Z" fill="white"/>
<path d="M30.7233 11.7153C30.5464 11.7481 30.3879 11.852 30.2852 12.0573" stroke="black" stroke-width="0.02605"/>
</g>
<defs>
<clipPath id="clip0_1_4649">
<rect width="40" height="40" rx="20" fill="white"/>
</clipPath>
</defs>
</svg>
