<svg width="40" height="40" viewBox="0 0 40 40" fill="none" xmlns="http://www.w3.org/2000/svg">
<g clip-path="url(#clip0_1_1653)">
<path d="M45.3627 0.666504H-8L-7 47L45.3627 36V0.666504Z" fill="#002395"/>
<path d="M2.12891 0.666504L49.5 -10L37.4624 36L2.12891 0.666504Z" fill="#FECB00"/>
<path d="M-1.78867 7.40142L0.184337 1.32912L2.15735 7.40142L-3.00806 3.64853H3.37673L-1.78867 7.40142Z" fill="white"/>
<path d="M2.6293 11.8189L4.60231 5.7466L6.57532 11.8189L1.40991 8.06602H7.7947L2.6293 11.8189Z" fill="white"/>
<path d="M7.04543 16.235L9.01844 10.1627L10.9915 16.235L5.82605 12.4821H12.2108L7.04543 16.235Z" fill="white"/>
<path d="M11.4615 20.6515L13.4345 14.5792L15.4075 20.6515L10.2421 16.8986H16.6269L11.4615 20.6515Z" fill="white"/>
<path d="M15.8794 25.069L17.8524 18.9967L19.8254 25.069L14.66 21.3161H21.0448L15.8794 25.069Z" fill="white"/>
<path d="M20.2936 29.4852L22.2666 23.4129L24.2396 29.4852L19.0742 25.7323H25.459L20.2936 29.4852Z" fill="white"/>
<path d="M24.7096 33.9017L26.6826 27.8294L28.6556 33.9017L23.4902 30.1488H29.875L24.7096 33.9017Z" fill="white"/>
<path d="M29.1276 38.3191L31.1006 32.2468L33.0736 38.3191L27.9082 34.5663H34.293L29.1276 38.3191Z" fill="white"/>
</g>
<defs>
<clipPath id="clip0_1_1653">
<rect width="40" height="40" rx="20" fill="white"/>
</clipPath>
</defs>
</svg>
