<svg width="40" height="40" viewBox="0 0 40 40" fill="none" xmlns="http://www.w3.org/2000/svg">
<g clip-path="url(#clip0_1_8681)">
<path d="M-10 0H50.0841V40H-10V0Z" fill="#009B3A"/>
<path d="M3 20.4998L20.2895 30.9996L37.5789 20.4998L20.2895 10L3 20.4998Z" fill="#FEDF00"/>
<path d="M20.2542 27.4331C24.0836 27.4331 27.188 24.3287 27.188 20.4993C27.188 16.6698 24.0836 13.5654 20.2542 13.5654C16.4247 13.5654 13.3203 16.6698 13.3203 20.4993C13.3203 24.3287 16.4247 27.4331 20.2542 27.4331Z" fill="#002776"/>
<mask id="mask0_1_8681" style="mask-type:luminance" maskUnits="userSpaceOnUse" x="13" y="13" width="15" height="15">
<path d="M20.262 27.4341C24.0914 27.4341 27.1958 24.3297 27.1958 20.5002C27.1958 16.6708 24.0914 13.5664 20.262 13.5664C16.4325 13.5664 13.3281 16.6708 13.3281 20.5002C13.3281 24.3297 16.4325 27.4341 20.262 27.4341Z" fill="white"/>
</mask>
<g mask="url(#mask0_1_8681)">
<path d="M-0.539062 34.3667C-0.539062 29.9006 1.23508 25.6175 4.39306 22.4595C7.55105 19.3015 11.8342 17.5273 16.3003 17.5273C20.7663 17.5273 25.0495 19.3015 28.2075 22.4595C31.3654 25.6175 33.1396 29.9006 33.1396 34.3667H32.149C32.149 30.1633 30.4793 26.1321 27.507 23.1599C24.5348 20.1877 20.5036 18.5179 16.3003 18.5179C12.0969 18.5179 8.06571 20.1877 5.09348 23.1599C2.12126 26.1321 0.451486 30.1633 0.451486 34.3667H-0.539062Z" fill="white"/>
</g>
<path fill-rule="evenodd" clip-rule="evenodd" d="M14.352 18.4734C14.4302 18.4638 14.501 18.4201 14.5488 18.3518C14.5965 18.2836 14.6174 18.1964 14.6067 18.1095C14.596 18.0226 14.5547 17.943 14.4919 17.8884C14.429 17.8337 14.3497 17.8084 14.2715 17.818C14.1933 17.8276 14.1225 17.8713 14.0747 17.9396C14.027 18.0078 14.0061 18.095 14.0168 18.1819C14.0275 18.2688 14.0688 18.3484 14.1316 18.403C14.1945 18.4577 14.2738 18.483 14.352 18.4734ZM14.337 18.3517C14.383 18.346 14.4244 18.3189 14.4521 18.2763C14.4799 18.2337 14.4917 18.1791 14.485 18.1244C14.4783 18.0698 14.4536 18.0196 14.4164 17.985C14.3791 17.9503 14.3324 17.9341 14.2865 17.9397C14.2405 17.9453 14.1991 17.9725 14.1714 18.0151C14.1436 18.0577 14.1318 18.1123 14.1385 18.167C14.1452 18.2216 14.1699 18.2718 14.2071 18.3064C14.2444 18.341 14.2911 18.3573 14.337 18.3517Z" fill="#009B3A"/>
<path fill-rule="evenodd" clip-rule="evenodd" d="M14.8976 18.4146L15.02 18.4061L15.0029 18.1614L15.2664 18.143C15.3213 18.1391 15.3724 18.1136 15.4085 18.0721C15.4446 18.0305 15.4628 17.9763 15.4589 17.9214C15.4551 17.8665 15.4296 17.8154 15.388 17.7793C15.3465 17.7432 15.2923 17.725 15.2374 17.7289L14.861 17.7552L14.8976 18.4146ZM14.9943 18.039L15.2484 18.0213C15.2709 18.0197 15.2918 18.0093 15.3066 17.9923C15.3213 17.9753 15.3287 17.9531 15.3272 17.9307C15.3256 17.9082 15.3152 17.8873 15.2982 17.8725C15.2812 17.8577 15.259 17.8503 15.2366 17.8519L14.9825 17.8696L14.9943 18.039Z" fill="#009B3A"/>
<path d="M15.4543 18.3755C15.4477 18.2813 15.4332 18.0743 15.2921 18.0842L15.1133 18.0967C15.3203 18.0822 15.3348 18.2892 15.3414 18.3833" fill="#009B3A"/>
<path fill-rule="evenodd" clip-rule="evenodd" d="M15.7244 18.362L16.0357 18.3566C16.0728 18.356 16.1095 18.348 16.1436 18.3332C16.1777 18.3184 16.2085 18.297 16.2343 18.2702C16.2601 18.2435 16.2804 18.2119 16.2941 18.1774C16.3077 18.1428 16.3144 18.1059 16.3137 18.0687L16.3121 17.9744C16.3114 17.9372 16.3035 17.9006 16.2886 17.8665C16.2738 17.8324 16.2524 17.8016 16.2257 17.7757C16.199 17.7499 16.1674 17.7296 16.1328 17.716C16.0982 17.7024 16.0613 17.6957 16.0242 17.6963L15.7129 17.7018L15.7244 18.362ZM15.8449 18.2373L16.0241 18.2342C16.0716 18.2333 16.1169 18.2137 16.1499 18.1795C16.1829 18.1453 16.201 18.0993 16.2002 18.0518L16.1992 17.9952C16.1984 17.9477 16.1787 17.9024 16.1445 17.8694C16.1103 17.8364 16.0644 17.8183 16.0169 17.8191L15.8377 17.8223L15.8449 18.2373Z" fill="#009B3A"/>
<path d="M16.5629 18.3538L17.1569 18.3746L17.1611 18.252L16.6803 18.2352L16.6862 18.0655L17.0634 18.0787L17.0673 17.9655L16.6902 17.9524L16.6948 17.8204L17.1473 17.8362L17.1516 17.7136L16.5859 17.6938L16.5629 18.3538Z" fill="#009B3A"/>
<path d="M17.3995 18.3883L17.5123 18.3982L17.5517 17.9471L17.6438 18.4097L17.7472 18.4187L17.9182 17.9792L17.8788 18.4303L17.9915 18.4401L18.0491 17.7823L17.8846 17.7679L17.7136 18.2075L17.6215 17.7449L17.457 17.7305L17.3995 18.3883Z" fill="#009B3A"/>
<path d="M18.7704 18.5442L19.2586 18.6281L19.2777 18.5165L18.9012 18.4518L18.9267 18.3031L19.2336 18.3558L19.2527 18.2442L18.9459 18.1915L18.9635 18.0892L19.3284 18.1519L19.3476 18.0404L18.8711 17.9585L18.7704 18.5442Z" fill="#009B3A"/>
<path fill-rule="evenodd" clip-rule="evenodd" d="M20.0244 18.7907L20.1431 18.8214L20.2045 18.5839L20.4602 18.6501C20.5135 18.6639 20.5701 18.6559 20.6175 18.628C20.665 18.6 20.6993 18.5544 20.7131 18.5011C20.7269 18.4478 20.719 18.3912 20.691 18.3438C20.6631 18.2964 20.6175 18.262 20.5642 18.2482L20.1988 18.1537L20.0244 18.7907ZM20.2352 18.4652L20.4818 18.529C20.5036 18.5346 20.5268 18.5314 20.5462 18.5199C20.5656 18.5085 20.5796 18.4898 20.5853 18.468C20.5909 18.4462 20.5876 18.4231 20.5762 18.4037C20.5648 18.3843 20.5461 18.3702 20.5243 18.3646L20.2777 18.3008L20.2352 18.4652Z" fill="#009B3A"/>
<path fill-rule="evenodd" clip-rule="evenodd" d="M20.8385 19.0068L20.9555 19.0436L21.0293 18.8097L21.2812 18.8891C21.3337 18.9057 21.3906 18.9007 21.4394 18.8753C21.4882 18.8499 21.525 18.8061 21.5415 18.7536C21.5581 18.7011 21.5531 18.6442 21.5277 18.5954C21.5023 18.5465 21.4585 18.5098 21.406 18.4933L21.0461 18.3798L20.8385 19.0068ZM21.0661 18.6927L21.3091 18.7693C21.3305 18.7761 21.3538 18.7741 21.3738 18.7637C21.3938 18.7533 21.4088 18.7354 21.4156 18.7139C21.4223 18.6924 21.4203 18.6691 21.4099 18.6492C21.3995 18.6292 21.3816 18.6142 21.3601 18.6074L21.1172 18.5308L21.0661 18.6927Z" fill="#009B3A"/>
<path d="M21.3753 19.1752C21.4037 19.0852 21.4661 18.8873 21.3311 18.8447L21.1602 18.7908C21.3581 18.8532 21.2957 19.0512 21.2673 19.1412" fill="#009B3A"/>
<path fill-rule="evenodd" clip-rule="evenodd" d="M21.9123 19.3691C21.9861 19.3967 22.0691 19.3906 22.143 19.3521C22.2169 19.3136 22.2756 19.2459 22.3063 19.1639C22.337 19.0819 22.337 18.9922 22.3065 18.9147C22.276 18.8372 22.2174 18.7782 22.1436 18.7506C22.0698 18.723 21.9868 18.7291 21.9129 18.7675C21.839 18.806 21.7803 18.8737 21.7496 18.9558C21.7189 19.0378 21.7188 19.1274 21.7494 19.2049C21.7799 19.2824 21.8385 19.3415 21.9123 19.3691ZM21.9553 19.2542C21.9986 19.2704 22.0479 19.2655 22.0921 19.2405C22.1364 19.2155 22.1721 19.1725 22.1914 19.1209C22.2107 19.0694 22.212 19.0135 22.1949 18.9656C22.1779 18.9177 22.144 18.8816 22.1006 18.8654C22.0573 18.8492 22.008 18.8542 21.9637 18.8791C21.9195 18.9041 21.8838 18.9471 21.8645 18.9987C21.8452 19.0503 21.8439 19.1062 21.861 19.1541C21.878 19.202 21.9119 19.238 21.9553 19.2542Z" fill="#009B3A"/>
<mask id="mask1_1_8681" style="mask-type:luminance" maskUnits="userSpaceOnUse" x="22" y="18" width="2" height="2">
<path d="M22.4086 19.5629L22.6719 18.9573L23.2169 19.1943L22.9536 19.7999L22.4086 19.5629ZM22.8579 19.2748L22.8127 19.3786L23.0853 19.4971L23.1304 19.3933L22.8579 19.2748Z" fill="white"/>
</mask>
<g mask="url(#mask1_1_8681)">
<path fill-rule="evenodd" clip-rule="evenodd" d="M22.6791 19.6816C22.7514 19.713 22.8346 19.7113 22.9104 19.6767C22.9862 19.6421 23.0484 19.5776 23.0833 19.4973C23.1182 19.417 23.123 19.3275 23.0966 19.2485C23.0702 19.1695 23.0147 19.1074 22.9424 19.076C22.8702 19.0446 22.787 19.0463 22.7112 19.0809C22.6354 19.1155 22.5732 19.18 22.5383 19.2603C22.5033 19.3406 22.4986 19.4301 22.525 19.5091C22.5514 19.5881 22.6068 19.6502 22.6791 19.6816ZM22.728 19.5691C22.7705 19.5876 22.8199 19.5852 22.8654 19.5626C22.911 19.54 22.9489 19.4989 22.9708 19.4484C22.9928 19.3979 22.997 19.3422 22.9825 19.2934C22.968 19.2447 22.936 19.2069 22.8935 19.1885C22.8511 19.17 22.8017 19.1724 22.7561 19.195C22.7106 19.2177 22.6727 19.2587 22.6507 19.3092C22.6288 19.3597 22.6246 19.4154 22.6391 19.4642C22.6536 19.5129 22.6856 19.5507 22.728 19.5691Z" fill="#009B3A"/>
</g>
<path d="M22.8615 19.3986L23.0907 19.4983L23.0531 19.5848L22.8238 19.4851L22.8615 19.3986Z" fill="#009B3A"/>
<path d="M23 19.4603L23.0865 19.4979L22.9549 19.8007L22.8683 19.7631L23 19.4603Z" fill="#009B3A"/>
<path fill-rule="evenodd" clip-rule="evenodd" d="M23.1819 19.9045L23.2917 19.9592L23.4011 19.7397L23.6375 19.8575C23.6868 19.8821 23.7438 19.8861 23.796 19.8686C23.8482 19.8512 23.8913 19.8137 23.9158 19.7644C23.9404 19.7151 23.9444 19.6581 23.9269 19.6059C23.9095 19.5537 23.872 19.5106 23.8227 19.4861L23.485 19.3177L23.1819 19.9045ZM23.4558 19.6299L23.6838 19.7436C23.7039 19.7536 23.7272 19.7552 23.7486 19.7481C23.77 19.741 23.7876 19.7256 23.7976 19.7055C23.8077 19.6853 23.8093 19.662 23.8022 19.6406C23.795 19.6193 23.7797 19.6017 23.7595 19.5916L23.5316 19.478L23.4558 19.6299Z" fill="#009B3A"/>
<path d="M23.6836 20.155C23.7257 20.0706 23.8183 19.8848 23.6917 19.8217L23.5312 19.7417C23.717 19.8343 23.6244 20.02 23.5823 20.1045" fill="#009B3A"/>
<path d="M23.9248 20.2832L24.4421 20.5759L24.5025 20.4692L24.0837 20.2323L24.1674 20.0845L24.4958 20.2703L24.5515 20.1717L24.2231 19.9859L24.2881 19.871L24.6823 20.094L24.7426 19.9872L24.25 19.7085L23.9248 20.2832Z" fill="#009B3A"/>
<path d="M24.8954 20.6073C24.8599 20.663 24.8959 20.7251 24.9755 20.7757C25.055 20.8264 25.1092 20.8246 25.1321 20.7889C25.2043 20.6755 24.7867 20.5101 24.9154 20.3125C25.0264 20.1427 25.2163 20.2748 25.2879 20.3204C25.3595 20.3661 25.4745 20.4841 25.3851 20.62L25.2637 20.5427C25.3017 20.4831 25.26 20.4257 25.1963 20.3851C25.1347 20.3459 25.0846 20.3279 25.0478 20.3856C24.9863 20.4778 25.3955 20.6519 25.2701 20.8488C25.1776 20.994 25.0166 20.9306 24.9092 20.8622C24.8177 20.8039 24.681 20.6665 24.7701 20.5275L24.8954 20.6073Z" fill="#009B3A"/>
<path d="M25.6041 21.0761C25.5657 21.1298 25.5984 21.1937 25.6752 21.2485C25.752 21.3033 25.8062 21.3043 25.8309 21.2698C25.909 21.1603 25.5006 20.9733 25.6395 20.7827C25.7592 20.6189 25.9419 20.7608 26.011 20.8101C26.0801 20.8595 26.1888 20.9833 26.0924 21.1144L25.9753 21.0309C26.0163 20.9733 25.9776 20.9138 25.9162 20.87C25.8567 20.8275 25.8076 20.807 25.7679 20.8627C25.7016 20.9515 26.1012 21.1468 25.9656 21.3368C25.8656 21.477 25.7082 21.4053 25.6045 21.3313C25.5162 21.2683 25.3868 21.1239 25.4831 20.9898L25.6041 21.0761Z" fill="#009B3A"/>
<path fill-rule="evenodd" clip-rule="evenodd" d="M26.2705 21.8352C26.3321 21.8843 26.4129 21.9041 26.4951 21.8903C26.5773 21.8766 26.654 21.8303 26.7086 21.7618C26.7631 21.6933 26.7909 21.6081 26.7858 21.5249C26.7807 21.4418 26.7432 21.3675 26.6815 21.3184C26.6199 21.2693 26.539 21.2495 26.4569 21.2633C26.3747 21.2771 26.2979 21.3233 26.2434 21.3918C26.1889 21.4604 26.1611 21.5456 26.1662 21.6287C26.1713 21.7119 26.2088 21.7862 26.2705 21.8352ZM26.3468 21.7392C26.383 21.7681 26.4314 21.7786 26.4812 21.7685C26.5311 21.7584 26.5783 21.7285 26.6126 21.6855C26.6468 21.6424 26.6653 21.5896 26.6639 21.5388C26.6625 21.488 26.6414 21.4432 26.6052 21.4144C26.569 21.3856 26.5206 21.3751 26.4708 21.3851C26.4209 21.3952 26.3737 21.4251 26.3394 21.4682C26.3051 21.5112 26.2867 21.564 26.2881 21.6148C26.2894 21.6657 26.3106 21.7104 26.3468 21.7392Z" fill="#009B3A"/>
<path d="M14.5997 18.9551L14.5079 19.2377L14.6492 19.2836" fill="white"/>
<path d="M14.5997 18.9551L14.6916 19.2377L14.5503 19.2836" fill="white"/>
<path d="M14.8965 19.1592H14.5993V19.3078" fill="white"/>
<path d="M14.8965 19.1592L14.6561 19.3338L14.5687 19.2136" fill="white"/>
<path d="M14.3164 19.1611L14.5568 19.3358L14.6442 19.2156" fill="white"/>
<path d="M14.3164 19.1611H14.6136V19.3097" fill="white"/>
<path d="M14.7792 19.4927L14.6873 19.2101L14.546 19.256" fill="white"/>
<path d="M14.7792 19.4927L14.5388 19.318L14.6261 19.1978" fill="white"/>
<path d="M14.4276 19.4927L14.668 19.318L14.5807 19.1978" fill="white"/>
<path d="M14.4276 19.4927L14.5194 19.2101L14.6608 19.256" fill="white"/>
<path d="M15.2169 21.873L15.1251 22.1557L15.2664 22.2016" fill="white"/>
<path d="M15.2169 21.873L15.3087 22.1557L15.1674 22.2016" fill="white"/>
<path d="M15.4902 22.0771H15.1931V22.2257" fill="white"/>
<path d="M15.4902 22.0771L15.2498 22.2518L15.1625 22.1316" fill="white"/>
<path d="M14.9336 22.0796L15.174 22.2543L15.2613 22.1341" fill="white"/>
<path d="M14.9336 22.0796H15.2308V22.2282" fill="white"/>
<path d="M15.3885 22.4097L15.2967 22.127L15.1554 22.173" fill="white"/>
<path d="M15.3885 22.4097L15.1481 22.235L15.2355 22.1148" fill="white"/>
<path d="M15.0448 22.4097L15.2852 22.235L15.1979 22.1148" fill="white"/>
<path d="M15.0448 22.4097L15.1366 22.127L15.2779 22.173" fill="white"/>
<path d="M14.3496 22.5439L14.2731 22.7795L14.3908 22.8177" fill="white"/>
<path d="M14.3496 22.5439L14.4261 22.7795L14.3084 22.8177" fill="white"/>
<path d="M14.6035 22.7129H14.3559V22.8367" fill="white"/>
<path d="M14.6035 22.7129L14.4032 22.8584L14.3304 22.7583" fill="white"/>
<path d="M14.1309 22.7188L14.3312 22.8643L14.404 22.7641" fill="white"/>
<path d="M14.1309 22.7188H14.3785V22.8426" fill="white"/>
<path d="M14.4845 22.9927L14.408 22.7572L14.2902 22.7954" fill="white"/>
<path d="M14.4845 22.9927L14.2842 22.8471L14.3569 22.7469" fill="white"/>
<path d="M14.2013 22.9922L14.4016 22.8466L14.3289 22.7465" fill="white"/>
<path d="M14.2013 22.9922L14.2778 22.7567L14.3956 22.7949" fill="white"/>
<path d="M15.875 21.6025L15.8313 21.7371L15.8986 21.759" fill="white"/>
<path d="M15.875 21.6025L15.9187 21.7371L15.8514 21.759" fill="white"/>
<path d="M16.0098 21.699H15.8683V21.7698" fill="white"/>
<path d="M16.0098 21.699L15.8953 21.7822L15.8537 21.725" fill="white"/>
<path d="M15.748 21.7007L15.8625 21.7839L15.9041 21.7267" fill="white"/>
<path d="M15.748 21.7007H15.8896V21.7715" fill="white"/>
<path d="M15.9534 21.8584L15.9096 21.7238L15.8424 21.7457" fill="white"/>
<path d="M15.9534 21.8584L15.8389 21.7752L15.8805 21.718" fill="white"/>
<path d="M15.801 21.8584L15.9155 21.7752L15.8739 21.718" fill="white"/>
<path d="M15.801 21.8584L15.8448 21.7238L15.912 21.7457" fill="white"/>
<path d="M16.6387 22.6094L16.5621 22.8449L16.6799 22.8832" fill="white"/>
<path d="M16.6387 22.6094L16.7152 22.8449L16.5974 22.8832" fill="white"/>
<path d="M16.9004 22.7793H16.6528V22.9031" fill="white"/>
<path d="M16.9004 22.7793L16.7 22.9249L16.6273 22.8247" fill="white"/>
<path d="M16.4277 22.7842L16.6281 22.9297L16.7009 22.8296" fill="white"/>
<path d="M16.4277 22.7842H16.6754V22.908" fill="white"/>
<path d="M16.7814 23.0581L16.7048 22.8226L16.5871 22.8609" fill="white"/>
<path d="M16.7814 23.0581L16.581 22.9125L16.6538 22.8124" fill="white"/>
<path d="M16.4904 23.0576L16.6907 22.9121L16.6179 22.8119" fill="white"/>
<path d="M16.4904 23.0576L16.5669 22.8221L16.6846 22.8604" fill="white"/>
<path d="M16.4609 23.3477L16.3997 23.5361L16.4939 23.5667" fill="white"/>
<path d="M16.4609 23.3477L16.5222 23.5361L16.428 23.5667" fill="white"/>
<path d="M16.6462 23.4861H16.4481V23.5851" fill="white"/>
<path d="M16.6462 23.4861L16.486 23.6025L16.4277 23.5224" fill="white"/>
<path d="M16.2791 23.4848L16.4393 23.6012L16.4975 23.5211" fill="white"/>
<path d="M16.2791 23.4848H16.4772V23.5839" fill="white"/>
<path d="M16.5742 23.7067L16.513 23.5183L16.4188 23.5489" fill="white"/>
<path d="M16.5742 23.7067L16.4139 23.5903L16.4722 23.5101" fill="white"/>
<path d="M16.3379 23.7064L16.4982 23.5899L16.4399 23.5098" fill="white"/>
<path d="M16.3379 23.7064L16.3991 23.5179L16.4933 23.5486" fill="white"/>
<path d="M22.4122 18.0527L22.3204 18.3354L22.4617 18.3813" fill="white"/>
<path d="M22.4122 18.0527L22.5041 18.3354L22.3628 18.3813" fill="white"/>
<path d="M22.7012 18.2568H22.404V18.4054" fill="white"/>
<path d="M22.7012 18.2568L22.4608 18.4315L22.3734 18.3113" fill="white"/>
<path d="M22.1289 18.2588L22.3693 18.4335L22.4567 18.3133" fill="white"/>
<path d="M22.1289 18.2588H22.4261V18.4074" fill="white"/>
<path d="M22.5839 18.5903L22.492 18.3077L22.3507 18.3536" fill="white"/>
<path d="M22.5839 18.5903L22.3435 18.4157L22.4308 18.2955" fill="white"/>
<path d="M22.2401 18.5903L22.4805 18.4157L22.3932 18.2955" fill="white"/>
<path d="M22.2401 18.5903L22.3319 18.3077L22.4733 18.3536" fill="white"/>
<path d="M25.1232 22.6367L25.0313 22.9193L25.1727 22.9653" fill="white"/>
<path d="M25.1232 22.6367L25.215 22.9193L25.0737 22.9653" fill="white"/>
<path d="M25.4043 22.8398H25.1071V22.9884" fill="white"/>
<path d="M25.4043 22.8398L25.1639 23.0145L25.0766 22.8943" fill="white"/>
<path d="M24.8477 22.8428L25.0881 23.0174L25.1754 22.8972" fill="white"/>
<path d="M24.8477 22.8428H25.1448V22.9914" fill="white"/>
<path d="M25.3104 23.1733L25.2186 22.8907L25.0773 22.9366" fill="white"/>
<path d="M25.3104 23.1733L25.07 22.9987L25.1573 22.8785" fill="white"/>
<path d="M24.9589 23.1753L25.1993 23.0006L25.1119 22.8804" fill="white"/>
<path d="M24.9589 23.1753L25.0507 22.8927L25.192 22.9386" fill="white"/>
<path d="M26.0781 22.7998L26.0169 22.9882L26.1111 23.0188" fill="white"/>
<path d="M26.0781 22.7998L26.1393 22.9882L26.0451 23.0188" fill="white"/>
<path d="M26.2634 22.9373H26.0653V23.0363" fill="white"/>
<path d="M26.2634 22.9373L26.1032 23.0537L26.0449 22.9736" fill="white"/>
<path d="M25.8884 22.9379L26.0487 23.0544L26.1069 22.9742" fill="white"/>
<path d="M25.8884 22.9379H26.0865V23.037" fill="white"/>
<path d="M26.1836 23.1589L26.1224 22.9705L26.0282 23.0011" fill="white"/>
<path d="M26.1836 23.1589L26.0233 23.0424L26.0815 22.9623" fill="white"/>
<path d="M25.9551 23.1585L26.1154 23.0421L26.0571 22.9619" fill="white"/>
<path d="M25.9551 23.1585L26.0163 22.9701L26.1105 23.0007" fill="white"/>
<path d="M25.3887 23.2998L25.3121 23.5353L25.4299 23.5736" fill="white"/>
<path d="M25.3887 23.2998L25.4652 23.5353L25.3474 23.5736" fill="white"/>
<path d="M25.6348 23.4678H25.3871V23.5916" fill="white"/>
<path d="M25.6348 23.4678L25.4344 23.6133L25.3616 23.5132" fill="white"/>
<path d="M25.1777 23.4736L25.3781 23.6192L25.4509 23.519" fill="white"/>
<path d="M25.1777 23.4736H25.4254V23.5975" fill="white"/>
<path d="M25.5314 23.7476L25.4548 23.512L25.3371 23.5503" fill="white"/>
<path d="M25.5314 23.7476L25.331 23.602L25.4038 23.5018" fill="white"/>
<path d="M25.2404 23.7471L25.4407 23.6015L25.3679 23.5013" fill="white"/>
<path d="M25.2404 23.7471L25.3169 23.5116L25.4346 23.5498" fill="white"/>
<path d="M23.709 24.7529L23.6325 24.9884L23.7502 25.0267" fill="white"/>
<path d="M23.709 24.7529L23.7855 24.9884L23.6678 25.0267" fill="white"/>
<path d="M23.9629 24.9199H23.7153V25.0437" fill="white"/>
<path d="M23.9629 24.9199L23.7625 25.0655L23.6898 24.9653" fill="white"/>
<path d="M23.498 24.9258L23.6984 25.0713L23.7712 24.9712" fill="white"/>
<path d="M23.498 24.9258H23.7457V25.0496" fill="white"/>
<path d="M23.8595 25.1997L23.783 24.9642L23.6652 25.0025" fill="white"/>
<path d="M23.8595 25.1997L23.6592 25.0541L23.7319 24.954" fill="white"/>
<path d="M23.5607 25.2002L23.761 25.0546L23.6882 24.9545" fill="white"/>
<path d="M23.5607 25.2002L23.6372 24.9647L23.755 25.0029" fill="white"/>
<path d="M23.7031 25.499L23.6419 25.6874L23.7361 25.718" fill="white"/>
<path d="M23.7031 25.499L23.7643 25.6874L23.6701 25.718" fill="white"/>
<path d="M23.9099 25.6364H23.7118V25.7355" fill="white"/>
<path d="M23.9099 25.6364L23.7496 25.7529L23.6914 25.6727" fill="white"/>
<path d="M23.5212 25.6371L23.6815 25.7536L23.7397 25.6735" fill="white"/>
<path d="M23.5212 25.6371H23.7193V25.7362" fill="white"/>
<path d="M23.832 25.8581L23.7708 25.6697L23.6766 25.7003" fill="white"/>
<path d="M23.832 25.8581L23.6718 25.7416L23.73 25.6615" fill="white"/>
<path d="M23.5879 25.8568L23.7482 25.7403L23.6899 25.6602" fill="white"/>
<path d="M23.5879 25.8568L23.6491 25.6683L23.7433 25.6989" fill="white"/>
<path d="M24.3984 24.2588L24.3372 24.4472L24.4314 24.4778" fill="white"/>
<path d="M24.3984 24.2588L24.4597 24.4472L24.3655 24.4778" fill="white"/>
<path d="M24.5974 24.3933H24.3993V24.4924" fill="white"/>
<path d="M24.5974 24.3933L24.4371 24.5098L24.3789 24.4296" fill="white"/>
<path d="M24.2087 24.395L24.369 24.5114L24.4272 24.4313" fill="white"/>
<path d="M24.2087 24.395H24.4068V24.494" fill="white"/>
<path d="M24.5195 24.6149L24.4583 24.4265L24.3641 24.4571" fill="white"/>
<path d="M24.5195 24.6149L24.3593 24.4985L24.4175 24.4183" fill="white"/>
<path d="M24.291 24.6166L24.4513 24.5001L24.3931 24.42" fill="white"/>
<path d="M24.291 24.6166L24.3522 24.4282L24.4464 24.4588" fill="white"/>
<path d="M24.959 23.8555L24.8825 24.091L25.0002 24.1292" fill="white"/>
<path d="M24.959 23.8555L25.0355 24.091L24.9178 24.1292" fill="white"/>
<path d="M25.2129 24.0234H24.9653V24.1473" fill="white"/>
<path d="M25.2129 24.0234L25.0125 24.169L24.9398 24.0688" fill="white"/>
<path d="M24.748 24.0293L24.9484 24.1749L25.0212 24.0747" fill="white"/>
<path d="M24.748 24.0293H24.9957V24.1531" fill="white"/>
<path d="M25.1017 24.3032L25.0252 24.0677L24.9074 24.106" fill="white"/>
<path d="M25.1017 24.3032L24.9013 24.1577L24.9741 24.0575" fill="white"/>
<path d="M24.8107 24.3037L25.011 24.1582L24.9382 24.058" fill="white"/>
<path d="M24.8107 24.3037L24.8872 24.0682L25.005 24.1065" fill="white"/>
<path d="M23.6953 24.123L23.6341 24.3115L23.7283 24.3421" fill="white"/>
<path d="M23.6953 24.123L23.7565 24.3115L23.6623 24.3421" fill="white"/>
<path d="M23.8884 24.2595H23.6903V24.3586" fill="white"/>
<path d="M23.8884 24.2595L23.7282 24.376L23.6699 24.2958" fill="white"/>
<path d="M23.5056 24.2602L23.6659 24.3766L23.7241 24.2965" fill="white"/>
<path d="M23.5056 24.2602H23.7037V24.3592" fill="white"/>
<path d="M23.8164 24.4811L23.7552 24.2927L23.661 24.3233" fill="white"/>
<path d="M23.8164 24.4811L23.6561 24.3647L23.7144 24.2846" fill="white"/>
<path d="M23.5645 24.4818L23.7247 24.3653L23.6665 24.2852" fill="white"/>
<path d="M23.5645 24.4818L23.6257 24.2933L23.7199 24.3239" fill="white"/>
<path d="M17.5996 20.5361L17.5231 20.7716L17.6408 20.8099" fill="white"/>
<path d="M17.5996 20.5361L17.6761 20.7716L17.5584 20.8099" fill="white"/>
<path d="M17.8457 20.7051H17.5981V20.8289" fill="white"/>
<path d="M17.8457 20.7051L17.6454 20.8506L17.5726 20.7505" fill="white"/>
<path d="M17.3809 20.7109L17.5812 20.8565L17.654 20.7563" fill="white"/>
<path d="M17.3809 20.7109H17.6285V20.8348" fill="white"/>
<path d="M17.7423 20.9854L17.6658 20.7498L17.548 20.7881" fill="white"/>
<path d="M17.7423 20.9854L17.542 20.8398L17.6147 20.7396" fill="white"/>
<path d="M17.4513 20.9844L17.6516 20.8388L17.5789 20.7386" fill="white"/>
<path d="M17.4513 20.9844L17.5278 20.7489L17.6456 20.7871" fill="white"/>
<path d="M22.1562 19.9531L22.095 20.1415L22.1892 20.1721" fill="white"/>
<path d="M22.1562 19.9531L22.2175 20.1415L22.1233 20.1721" fill="white"/>
<path d="M22.3417 20.0895H22.1436V20.1885" fill="white"/>
<path d="M22.3417 20.0895L22.1814 20.2059L22.1232 20.1258" fill="white"/>
<path d="M21.9744 20.0893L22.1346 20.2057L22.1929 20.1256" fill="white"/>
<path d="M21.9744 20.0893H22.1725V20.1883" fill="white"/>
<path d="M22.2773 20.3112L22.2161 20.1228L22.1219 20.1534" fill="white"/>
<path d="M22.2773 20.3112L22.1171 20.1948L22.1753 20.1146" fill="white"/>
<path d="M22.041 20.3109L22.2013 20.1944L22.1431 20.1143" fill="white"/>
<path d="M22.041 20.3109L22.1022 20.1224L22.1964 20.153" fill="white"/>
<path d="M20.2716 23.3164L20.1798 23.599L20.3211 23.6449" fill="white"/>
<path d="M20.2716 23.3164L20.3634 23.599L20.2221 23.6449" fill="white"/>
<path d="M20.5449 23.5205H20.2478V23.6691" fill="white"/>
<path d="M20.5449 23.5205L20.3045 23.6952L20.2172 23.575" fill="white"/>
<path d="M19.9883 23.5229L20.2287 23.6976L20.316 23.5774" fill="white"/>
<path d="M19.9883 23.5229H20.2854V23.6715" fill="white"/>
<path d="M20.4354 23.853L20.3436 23.5704L20.2023 23.6163" fill="white"/>
<path d="M20.4354 23.853L20.195 23.6784L20.2823 23.5582" fill="white"/>
<path d="M20.0995 23.853L20.3399 23.6784L20.2526 23.5582" fill="white"/>
<path d="M20.0995 23.853L20.1913 23.5704L20.3326 23.6163" fill="white"/>
<path d="M21.0527 21.9863L20.9762 22.2218L21.094 22.2601" fill="white"/>
<path d="M21.0527 21.9863L21.1293 22.2218L21.0115 22.2601" fill="white"/>
<path d="M21.3066 22.1553H21.059V22.2791" fill="white"/>
<path d="M21.3066 22.1553L21.1063 22.3008L21.0335 22.2007" fill="white"/>
<path d="M20.834 22.1611L21.0343 22.3067L21.1071 22.2065" fill="white"/>
<path d="M20.834 22.1611H21.0816V22.285" fill="white"/>
<path d="M21.2032 22.4351L21.1267 22.1995L21.009 22.2378" fill="white"/>
<path d="M21.2032 22.4351L21.0029 22.2895L21.0757 22.1893" fill="white"/>
<path d="M20.8966 22.4355L21.0969 22.29L21.0242 22.1898" fill="white"/>
<path d="M20.8966 22.4355L20.9731 22.2L21.0909 22.2383" fill="white"/>
<path d="M20.248 21.3623L20.1715 21.5978L20.2893 21.6361" fill="white"/>
<path d="M20.248 21.3623L20.3246 21.5978L20.2068 21.6361" fill="white"/>
<path d="M20.4883 21.5293H20.2406V21.6531" fill="white"/>
<path d="M20.4883 21.5293L20.2879 21.6749L20.2152 21.5747" fill="white"/>
<path d="M20.0371 21.5371L20.2375 21.6827L20.3102 21.5825" fill="white"/>
<path d="M20.0371 21.5371H20.2847V21.6609" fill="white"/>
<path d="M20.3907 21.811L20.3142 21.5755L20.1965 21.6138" fill="white"/>
<path d="M20.3907 21.811L20.1904 21.6655L20.2632 21.5653" fill="white"/>
<path d="M20.0997 21.8115L20.3001 21.666L20.2273 21.5658" fill="white"/>
<path d="M20.0997 21.8115L20.1763 21.576L20.294 21.6143" fill="white"/>
<path d="M19.5547 22.0381L19.4935 22.2265L19.5877 22.2571" fill="white"/>
<path d="M19.5547 22.0381L19.6159 22.2265L19.5217 22.2571" fill="white"/>
<path d="M19.7478 22.1736H19.5497V22.2726" fill="white"/>
<path d="M19.7478 22.1736L19.5875 22.29L19.5293 22.2099" fill="white"/>
<path d="M19.3728 22.1762L19.5331 22.2927L19.5913 22.2125" fill="white"/>
<path d="M19.3728 22.1762H19.5709V22.2753" fill="white"/>
<path d="M19.668 22.3972L19.6067 22.2087L19.5125 22.2394" fill="white"/>
<path d="M19.668 22.3972L19.5077 22.2807L19.5659 22.2006" fill="white"/>
<path d="M19.4395 22.3968L19.5997 22.2803L19.5415 22.2002" fill="white"/>
<path d="M19.4395 22.3968L19.5007 22.2084L19.5949 22.239" fill="white"/>
<path d="M19.8906 22.5742L19.8469 22.7088L19.9142 22.7307" fill="white"/>
<path d="M19.8906 22.5742L19.9344 22.7088L19.8671 22.7307" fill="white"/>
<path d="M20.0391 22.6722H19.8976V22.7429" fill="white"/>
<path d="M20.0391 22.6722L19.9246 22.7554L19.883 22.6981" fill="white"/>
<path d="M19.7637 22.6724L19.8782 22.7555L19.9197 22.6983" fill="white"/>
<path d="M19.7637 22.6724H19.9052V22.7431" fill="white"/>
<path d="M19.9768 22.8311L19.9331 22.6965L19.8658 22.7183" fill="white"/>
<path d="M19.9768 22.8311L19.8623 22.7479L19.9039 22.6906" fill="white"/>
<path d="M19.8088 22.8301L19.9233 22.7469L19.8817 22.6897" fill="white"/>
<path d="M19.8088 22.8301L19.8526 22.6955L19.9199 22.7174" fill="white"/>
<path d="M22.334 24.9219L22.2575 25.1574L22.3752 25.1957" fill="white"/>
<path d="M22.334 24.9219L22.4105 25.1574L22.2928 25.1957" fill="white"/>
<path d="M22.5957 25.0908H22.3481V25.2146" fill="white"/>
<path d="M22.5957 25.0908L22.3954 25.2364L22.3226 25.1362" fill="white"/>
<path d="M22.123 25.0957L22.3234 25.2413L22.3962 25.1411" fill="white"/>
<path d="M22.123 25.0957H22.3707V25.2195" fill="white"/>
<path d="M22.4767 25.3706L22.4002 25.1351L22.2824 25.1734" fill="white"/>
<path d="M22.4767 25.3706L22.2763 25.225L22.3491 25.1249" fill="white"/>
<path d="M22.1857 25.3691L22.386 25.2236L22.3132 25.1234" fill="white"/>
<path d="M22.1857 25.3691L22.2622 25.1336L22.38 25.1719" fill="white"/>
<path d="M22.9375 24.3623L22.8763 24.5507L22.9705 24.5813" fill="white"/>
<path d="M22.9375 24.3623L22.9987 24.5507L22.9045 24.5813" fill="white"/>
<path d="M23.115 24.4978H22.9169V24.5969" fill="white"/>
<path d="M23.115 24.4978L22.9547 24.6142L22.8965 24.5341" fill="white"/>
<path d="M22.7478 24.4985L22.9081 24.6149L22.9663 24.5348" fill="white"/>
<path d="M22.7478 24.4985H22.9459V24.5975" fill="white"/>
<path d="M23.0586 24.7194L22.9974 24.531L22.9032 24.5616" fill="white"/>
<path d="M23.0586 24.7194L22.8983 24.603L22.9565 24.5228" fill="white"/>
<path d="M22.8066 24.72L22.9669 24.6036L22.9087 24.5234" fill="white"/>
<path d="M22.8066 24.72L22.8679 24.5316L22.9621 24.5622" fill="white"/>
<path d="M21.791 24.1895L21.7298 24.3779L21.824 24.4085" fill="white"/>
<path d="M21.791 24.1895L21.8522 24.3779L21.758 24.4085" fill="white"/>
<path d="M21.99 24.3259H21.7919V24.425" fill="white"/>
<path d="M21.99 24.3259L21.8297 24.4424L21.7715 24.3622" fill="white"/>
<path d="M21.615 24.3276L21.7753 24.444L21.8335 24.3639" fill="white"/>
<path d="M21.615 24.3276H21.8131V24.4266" fill="white"/>
<path d="M21.9121 24.5485L21.8509 24.3601L21.7567 24.3907" fill="white"/>
<path d="M21.9121 24.5485L21.7518 24.4321L21.8101 24.3519" fill="white"/>
<path d="M21.6738 24.5472L21.8341 24.4307L21.7759 24.3506" fill="white"/>
<path d="M21.6738 24.5472L21.735 24.3588L21.8293 24.3894" fill="white"/>
<path d="M17.4749 23.8838L17.383 24.1664L17.5243 24.2123" fill="white"/>
<path d="M17.4749 23.8838L17.5667 24.1664L17.4254 24.2123" fill="white"/>
<path d="M17.7637 24.0869H17.4665V24.2355" fill="white"/>
<path d="M17.7637 24.0869L17.5233 24.2616L17.4359 24.1414" fill="white"/>
<path d="M17.1992 24.0898L17.4396 24.2645L17.527 24.1443" fill="white"/>
<path d="M17.1992 24.0898H17.4964V24.2384" fill="white"/>
<path d="M17.662 24.4214L17.5702 24.1388L17.4288 24.1847" fill="white"/>
<path d="M17.662 24.4214L17.4216 24.2467L17.5089 24.1265" fill="white"/>
<path d="M17.3104 24.4204L17.5508 24.2457L17.4635 24.1255" fill="white"/>
<path d="M17.3104 24.4204L17.4023 24.1378L17.5436 24.1837" fill="white"/>
<path d="M20.2542 25.8232L20.2235 25.9174L20.2706 25.9328" fill="white"/>
<path d="M20.2542 25.8232L20.2848 25.9174L20.2377 25.9328" fill="white"/>
<path d="M20.3457 25.8926H20.2466V25.9421" fill="white"/>
<path d="M20.3457 25.8926L20.2656 25.9508L20.2365 25.9107" fill="white"/>
<path d="M20.1543 25.8888L20.2344 25.947L20.2635 25.9069" fill="white"/>
<path d="M20.1543 25.8888H20.2534V25.9383" fill="white"/>
<path d="M20.3145 26.0039L20.2838 25.9097L20.2367 25.925" fill="white"/>
<path d="M20.3145 26.0039L20.2343 25.9457L20.2634 25.9056" fill="white"/>
<path d="M20.1914 26.001L20.2715 25.9428L20.2424 25.9027" fill="white"/>
<path d="M20.1914 26.001L20.222 25.9068L20.2691 25.9221" fill="white"/>
</g>
<defs>
<clipPath id="clip0_1_8681">
<rect width="40" height="40" rx="20" fill="white"/>
</clipPath>
</defs>
</svg>
