<svg width="40" height="40" viewBox="0 0 40 40" fill="none" xmlns="http://www.w3.org/2000/svg">
<g clip-path="url(#clip0_1_4588)">
<path d="M50 0H-10V40H50V0Z" fill="#F7E017"/>
<path d="M-10 2.77774V20.5555L50 28.8889V19.4444L-10 2.77774Z" fill="white"/>
<path d="M-10 12.2223V20.5556L50 37.2223V28.8889L-10 12.2223Z" fill="black"/>
<path d="M18.6541 31.6507C17.5785 31.5079 16.5924 31.1657 15.9074 30.6968C15.7746 30.6057 15.6496 30.5312 15.6302 30.5312C15.6102 30.5312 15.5941 30.6323 15.5941 30.7573C15.5941 31.1112 15.4519 31.2895 15.0941 31.3823C14.7519 31.4712 14.2296 31.2918 13.8063 30.9407C13.368 30.5768 12.8619 30.299 12.4335 30.1879C12.0808 30.0957 11.6124 30.1107 11.2741 30.224C11.1169 30.2768 10.938 30.3512 10.8757 30.3895C10.8141 30.4279 10.7446 30.459 10.7224 30.459C10.6624 30.459 10.6707 30.0784 10.7335 29.9568C10.8163 29.7973 11.0202 29.6401 11.258 29.5534C11.378 29.5095 11.4763 29.4534 11.4763 29.4284C11.4763 29.4034 11.4357 29.3118 11.3863 29.2257C11.2252 28.9434 11.2913 28.6701 11.5724 28.4551C11.8602 28.2351 12.3474 28.1973 12.778 28.3612C12.8863 28.4023 12.9874 28.4362 13.0024 28.4362C13.0591 28.4362 13.0246 28.3568 12.8685 28.1295C12.6885 27.8662 12.653 27.7362 12.6752 27.4229C12.7041 27.0262 13.0274 26.7018 13.4235 26.6729C13.7469 26.6495 13.948 26.7584 14.4252 27.2129C15.8502 28.5718 17.3996 29.3207 19.2069 29.5234C19.663 29.5745 20.5807 29.5473 21.1191 29.4662C22.7452 29.2212 24.3835 28.4034 25.663 27.1984C26.0174 26.8645 26.188 26.7762 26.4785 26.7751C26.7313 26.774 26.9085 26.8557 27.0896 27.0557C27.2546 27.239 27.3107 27.4129 27.293 27.6912C27.2813 27.8695 27.2524 27.9573 27.1463 28.1301C26.9896 28.3851 27.0163 28.4084 27.3263 28.2884C27.7452 28.1251 28.2613 28.2007 28.5396 28.4651C28.7846 28.6979 28.808 28.9307 28.6174 29.2462C28.548 29.3618 28.4913 29.4701 28.4913 29.4873C28.4913 29.519 28.5441 29.534 28.7985 29.5751C29.1313 29.6284 29.3219 29.8757 29.3219 30.2534C29.3219 30.3668 29.308 30.459 29.2908 30.459C29.2741 30.459 29.148 30.4129 29.0107 30.3562C28.623 30.1962 28.4024 30.1551 27.9491 30.1579C27.6041 30.1601 27.4852 30.1762 27.2446 30.2545C26.8763 30.3751 26.4824 30.6073 26.1613 30.8934C25.8074 31.209 25.5846 31.3084 25.2402 31.3057C24.9202 31.3023 24.7013 31.2095 24.5858 31.0268C24.5241 30.929 24.5152 30.8695 24.5302 30.6484C24.5402 30.5045 24.538 30.3868 24.5263 30.3868C24.5141 30.3868 24.3896 30.4657 24.2491 30.5629C23.8802 30.8162 23.6452 30.9418 23.223 31.109C21.9352 31.6184 20.0769 31.839 18.6541 31.6507Z" fill="#CF1126"/>
<path d="M19.2428 29.1758C17.0994 28.9701 15.0487 27.8537 13.8017 26.0838C12.4478 24.2374 12.0212 21.7995 12.4344 19.5705C12.6541 18.5556 13.0972 17.5401 13.8535 16.8175C13.2508 18.0954 13.0471 19.5602 13.3686 20.9447C13.8679 23.7087 16.2039 26.0486 18.9986 26.4533C20.1041 26.7734 21.2478 26.4354 22.3039 26.0926C24.6336 25.2715 26.4083 23.0602 26.6248 20.5882C26.8102 19.2505 26.6048 17.8597 26.0022 16.6484C26.3457 16.8301 26.7793 17.5422 27.0349 18.021C27.924 19.7434 27.9646 21.8074 27.4412 23.6455C26.7312 25.9842 24.9431 28.0332 22.5795 28.7778C21.5068 29.1283 20.366 29.2351 19.2429 29.176L19.2428 29.1758Z" fill="#CF1126"/>
<path d="M8.44637 26.1054C8.30591 26.0834 8.15103 26.2217 8.204 26.3664C8.30527 26.5127 8.47978 26.5842 8.63722 26.6541C9.01452 26.8054 9.42494 26.8643 9.83005 26.8544C9.69042 26.8541 9.87797 26.8559 9.93014 26.8544C10.2509 26.8554 10.5699 26.7975 10.8715 26.6888C11.0391 26.6299 11.2528 26.5764 11.3215 26.3909C11.3886 26.2701 11.2671 26.1495 11.1445 26.1736C10.9739 26.2109 10.8143 26.2883 10.6451 26.3324C10.28 26.4354 9.89544 26.4752 9.51716 26.4442C9.24054 26.4104 8.9725 26.3219 8.7166 26.214C8.62787 26.1748 8.54463 26.1177 8.44637 26.1054Z" fill="#CF1126"/>
<path d="M8.60319 25.5288C8.4612 25.5077 8.33887 25.6711 8.39809 25.8015C8.50726 25.9597 8.69071 26.044 8.86232 26.1181C9.16068 26.2374 9.48476 26.2874 9.80537 26.2778C9.68361 26.2775 9.84718 26.2793 9.89232 26.2778C10.1649 26.2781 10.4361 26.2242 10.6882 26.1205C10.8422 26.0606 11.0309 26.0025 11.095 25.8329C11.1448 25.7397 11.1069 25.6042 10.9895 25.5969C10.8824 25.5916 10.7899 25.6598 10.6907 25.6904C10.3304 25.8394 9.93395 25.9025 9.5455 25.869C9.30346 25.8378 9.07222 25.7485 8.85272 25.645C8.77024 25.6052 8.69599 25.5431 8.60319 25.5288Z" fill="#CF1126"/>
<path d="M8.79362 24.9759C8.67191 24.9613 8.58818 25.0986 8.60868 25.2082C8.62684 25.3045 8.71326 25.3692 8.78473 25.4282C9.0808 25.6447 9.45601 25.737 9.81951 25.7249C9.67832 25.7244 10.0089 25.7272 9.90811 25.7245C10.1383 25.7235 10.3658 25.6672 10.5729 25.5675C10.7112 25.5074 10.8735 25.4378 10.9201 25.2799C10.9424 25.2064 10.9564 25.1006 10.8734 25.0594C10.7865 25.0108 10.7002 25.0855 10.6212 25.1158C10.3552 25.2512 10.0587 25.3265 9.75974 25.3251C9.50136 25.3339 9.25788 25.2252 9.03374 25.1081C8.9524 25.0666 8.88532 24.9946 8.79362 24.9759Z" fill="#CF1126"/>
<path d="M6.75207 16.8165C6.5711 16.9976 6.70929 17.3316 6.6995 17.5689C6.79327 18.2999 6.90978 19.0402 7.18267 19.7283C7.51683 20.4007 8.22661 20.7602 8.65672 21.3543C8.81047 21.6407 8.75588 21.9852 8.78828 22.2984C8.81373 23.1521 8.80583 24.0064 8.79089 24.8602C9.17638 25.0536 9.595 25.2483 10.0384 25.1739C10.3013 25.1111 10.7891 25.0721 10.8438 24.8104C10.8225 23.3381 10.8088 21.8654 10.7892 20.3934C10.6397 19.9423 10.1808 19.7089 9.83757 19.4204C9.55428 19.1411 9.29068 18.8406 9.04934 18.526C8.90369 18.2806 8.33446 18.1921 8.54039 18.6191C8.66114 18.9888 8.9693 19.2641 9.04645 19.6526C9.06331 19.8654 9.31743 20.2569 9.10051 20.3811C8.96253 20.1466 8.76261 19.9469 8.50707 19.8279C8.26083 19.6443 7.85379 19.5679 7.7649 19.2436C7.69965 18.7836 7.46406 18.3669 7.16007 18.0222C7.23841 17.609 7.16035 17.0924 6.80321 16.8283L6.75207 16.8165Z" fill="#CF1126"/>
<path d="M7.30205 16.8995C7.13745 16.9261 7.14305 17.1358 7.21922 17.2461C7.30024 17.4843 7.3223 17.7431 7.27844 17.9911C7.57108 18.3336 7.7977 18.7434 7.86599 19.1933C7.86765 19.3624 8.04559 19.4184 8.16094 19.5019C8.43156 19.6742 8.73582 19.7992 8.97682 20.0148C9.02754 20.069 9.06581 20.1274 9.02997 20.0168C8.99236 19.8753 8.97302 19.7191 8.86215 19.6121C8.71024 19.4488 8.52049 19.303 8.29921 19.2532C8.28076 19.0246 8.17192 18.8147 8.07134 18.6125C7.95986 18.4192 7.84341 18.2122 7.65241 18.0868C7.66009 17.7481 7.65455 17.3927 7.50876 17.0801C7.466 16.9998 7.40303 16.9043 7.30211 16.8995H7.30205Z" fill="#CF1126"/>
<path d="M7.76358 17.0342C7.6489 17.0683 7.67083 17.2097 7.70715 17.2962C7.76208 17.536 7.77068 17.7836 7.7662 18.0287C7.97682 18.1954 8.10856 18.437 8.22851 18.6724C8.3037 18.8296 8.37499 18.9919 8.40383 19.1649C8.5747 19.2215 8.72423 19.3285 8.85777 19.4469C8.80485 19.2868 8.68685 19.1629 8.60754 19.0167C8.52134 18.8646 8.439 18.7061 8.40252 18.5338C8.23818 18.3584 8.14767 18.1099 8.18358 17.8698C8.19095 17.6045 8.10529 17.3303 7.9277 17.1303C7.88298 17.0863 7.82959 17.0376 7.76358 17.0342Z" fill="#CF1126"/>
<path d="M8.28786 17.1094C8.2255 17.1205 8.18756 17.1798 8.15417 17.2282C8.14127 17.2767 8.20071 17.3288 8.21017 17.3815C8.2831 17.5644 8.31064 17.765 8.28885 17.9607C8.28405 18.0997 8.33379 18.2355 8.40462 18.3532C8.42506 18.2664 8.50554 18.204 8.59276 18.1954C8.62449 18.1898 8.67113 18.2059 8.65265 18.1575C8.63049 17.8916 8.58998 17.6243 8.49705 17.3731C8.46103 17.2834 8.42014 17.1889 8.34241 17.1275C8.32665 17.1163 8.3078 17.1067 8.28786 17.1094Z" fill="#CF1126"/>
<path d="M31.5556 26.1053C31.696 26.0834 31.8509 26.2216 31.798 26.3663C31.6967 26.5126 31.5222 26.5841 31.3647 26.654C30.9874 26.8053 30.577 26.8642 30.1719 26.8543C30.3115 26.854 30.124 26.8558 30.0718 26.8543C29.751 26.8553 29.432 26.7975 29.1305 26.6888C28.9628 26.6298 28.7491 26.5763 28.6804 26.3908C28.6134 26.27 28.7349 26.1494 28.8574 26.1735C29.0281 26.2108 29.1876 26.2882 29.3569 26.3323C29.722 26.4353 30.1065 26.4751 30.4848 26.4441C30.7614 26.4103 31.0295 26.3218 31.2854 26.2139C31.3741 26.1747 31.4573 26.1176 31.5556 26.1053Z" fill="#CF1126"/>
<path d="M31.3988 25.5287C31.5408 25.5076 31.6631 25.671 31.6039 25.8014C31.4947 25.9596 31.3112 26.0439 31.1396 26.118C30.8413 26.2373 30.5172 26.2873 30.1966 26.2777C30.3183 26.2774 30.1548 26.2792 30.1096 26.2777C29.837 26.278 29.5658 26.2241 29.3138 26.1204C29.1597 26.0605 28.9711 26.0024 28.9069 25.8328C28.8571 25.7396 28.8951 25.6041 29.0124 25.5968C29.1196 25.5915 29.212 25.6597 29.3112 25.6903C29.6715 25.8393 30.068 25.9024 30.4565 25.8689C30.6985 25.8377 30.9297 25.7485 31.1492 25.6449C31.2317 25.6051 31.306 25.543 31.3988 25.5287Z" fill="#CF1126"/>
<path d="M31.2083 24.976C31.33 24.9614 31.4138 25.0987 31.3933 25.2083C31.3751 25.3046 31.2887 25.3693 31.2172 25.4283C30.9212 25.6449 30.5459 25.7371 30.1824 25.725C30.3236 25.7245 29.993 25.7273 30.0938 25.7246C29.8636 25.7237 29.6362 25.6673 29.4291 25.5677C29.2908 25.5075 29.1284 25.4379 29.0818 25.28C29.0595 25.2065 29.0456 25.1008 29.1286 25.0595C29.2154 25.0109 29.3017 25.0856 29.3807 25.1159C29.6468 25.2513 29.9432 25.3266 30.2422 25.3253C30.5006 25.334 30.7441 25.2253 30.9682 25.1082C31.0495 25.0668 31.1166 24.9947 31.2083 24.976Z" fill="#CF1126"/>
<path d="M33.2499 16.8164C33.4309 16.9976 33.2927 17.3315 33.3025 17.5688C33.2087 18.2998 33.0922 19.0401 32.8193 19.7282C32.4851 20.4006 31.7753 20.7601 31.3452 21.3542C31.1915 21.6406 31.2461 21.9851 31.2137 22.2984C31.1882 23.152 31.1961 24.0063 31.2111 24.8601C30.8256 25.0535 30.4069 25.2482 29.9635 25.1738C29.7007 25.111 29.2128 25.072 29.1582 24.8103C29.1794 23.338 29.1932 21.8653 29.2128 20.3933C29.3622 19.9422 29.8212 19.7088 30.1644 19.4203C30.4477 19.1411 30.7113 18.8405 30.9526 18.5259C31.0983 18.2805 31.6675 18.192 31.4616 18.619C31.3408 18.9887 31.0327 19.264 30.9555 19.6525C30.9386 19.8653 30.6845 20.2568 30.9014 20.381C31.0394 20.1465 31.2393 19.9468 31.4949 19.8278C31.7411 19.6442 32.1482 19.5678 32.2371 19.2435C32.3023 18.7836 32.5379 18.3668 32.8419 18.0221C32.7635 17.6089 32.8416 17.0923 33.1987 16.8282L33.2499 16.8164Z" fill="#CF1126"/>
<path d="M32.6999 16.8994C32.8645 16.926 32.8589 17.1357 32.7827 17.246C32.7017 17.4843 32.6797 17.743 32.7235 17.991C32.4309 18.3336 32.2043 18.7434 32.136 19.1932C32.1343 19.3623 31.9564 19.4183 31.841 19.5018C31.5704 19.6741 31.2661 19.7991 31.0251 20.0147C30.9744 20.069 30.9361 20.1273 30.972 20.0167C31.0096 19.8752 31.0289 19.719 31.1398 19.612C31.2917 19.4487 31.4815 19.3029 31.7027 19.2531C31.7212 19.0246 31.83 18.8146 31.9306 18.6124C32.0421 18.4192 32.1585 18.2121 32.3495 18.0867C32.3419 17.748 32.3474 17.3926 32.4932 17.08C32.5359 16.9997 32.5989 16.9042 32.6998 16.8994H32.6999Z" fill="#CF1126"/>
<path d="M32.2384 17.0343C32.353 17.0684 32.3311 17.2098 32.2948 17.2964C32.2399 17.5361 32.2313 17.7838 32.2357 18.0288C32.0251 18.1955 31.8934 18.4371 31.7734 18.6725C31.6983 18.8297 31.627 18.992 31.5981 19.165C31.4273 19.2216 31.2777 19.3286 31.1442 19.4471C31.1971 19.2869 31.3151 19.163 31.3944 19.0168C31.4806 18.8648 31.5629 18.7062 31.5994 18.5339C31.7638 18.3585 31.8543 18.11 31.8184 17.8699C31.811 17.6046 31.8967 17.3304 32.0743 17.1304C32.119 17.0864 32.1724 17.0377 32.2384 17.0343Z" fill="#CF1126"/>
<path d="M31.7141 17.1093C31.7765 17.1204 31.8144 17.1797 31.8478 17.2281C31.8607 17.2766 31.8012 17.3287 31.7918 17.3814C31.7189 17.5643 31.6913 17.7649 31.7131 17.9606C31.7179 18.0996 31.6682 18.2354 31.5973 18.3531C31.5769 18.2663 31.4964 18.2039 31.4092 18.1953C31.3775 18.1897 31.3308 18.2058 31.3493 18.1574C31.3715 17.8915 31.412 17.6242 31.5049 17.373C31.5409 17.2833 31.5818 17.1888 31.6595 17.1274C31.6753 17.1162 31.6942 17.1066 31.7141 17.1093Z" fill="#CF1126"/>
<path d="M19.7606 26.4428C19.0109 26.3714 18.3346 25.825 18.1034 25.1095C18.1159 24.9862 18.2693 25.1784 18.3418 25.1914C18.4779 25.267 18.6251 25.3292 18.7819 25.3388C18.9795 25.4237 19.1017 25.6185 19.2903 25.7201C19.3779 25.7883 19.6878 25.9224 19.6302 25.7054C19.5576 25.5921 19.5077 25.4485 19.5702 25.3187C19.6753 25.0881 19.8369 24.8873 19.9996 24.695C20.1192 24.655 20.1993 24.8909 20.2849 24.9704C20.4032 25.1525 20.546 25.3748 20.4764 25.601C20.4086 25.6849 20.364 25.937 20.5453 25.8523C20.7687 25.754 20.9517 25.5888 21.137 25.4346C21.2991 25.3214 21.5067 25.3134 21.6766 25.2141C21.7554 25.1941 21.9194 25.0366 21.9536 25.1239C21.8605 25.3732 21.7046 25.5965 21.5379 25.8023C21.268 26.1107 20.9028 26.3426 20.4943 26.408C20.2528 26.4522 20.0051 26.4615 19.7606 26.4428Z" fill="#CF1126"/>
<path d="M20.6407 25.5673C20.6573 25.4169 20.623 25.2632 20.5461 25.1265C20.4282 24.8862 20.2616 24.6728 20.0992 24.462C19.946 24.3723 19.861 24.6652 19.7591 24.7493C19.6004 24.9869 19.4012 25.2302 19.3915 25.5291C19.3022 25.668 19.1357 25.4157 19.0639 25.3326C18.9269 25.1387 18.8231 24.9093 18.8401 24.6667C18.8238 24.2758 18.8988 23.8866 19.0412 23.5233C19.1487 23.2132 19.3232 22.9119 19.3055 22.573C19.3179 22.318 19.2662 22.0365 19.0596 21.865C18.863 21.7108 19.1869 21.6779 19.2897 21.7579C19.4658 21.7697 19.561 22.0605 19.7218 21.9885C19.7859 21.8366 19.7986 21.6554 19.9307 21.5369C20.0603 21.3593 20.1958 21.6122 20.2402 21.7307C20.3317 21.8347 20.235 22.0921 20.3836 22.0989C20.5617 21.974 20.6887 21.7643 20.9165 21.7186C21.0088 21.6659 21.1667 21.7116 21.0449 21.8178C20.8763 21.9758 20.7323 22.1734 20.7016 22.4084C20.6501 22.7033 20.7238 23.0023 20.8523 23.2678C21.0994 23.7895 21.2904 24.3787 21.1654 24.9592C21.1075 25.2172 20.9322 25.4395 20.7193 25.5892C20.6923 25.6055 20.6498 25.6043 20.6407 25.5673Z" fill="#CF1126"/>
<path d="M20.3747 21.6456C20.2938 21.4998 20.1956 21.3561 20.0595 21.257C19.9273 21.2567 19.8456 21.4236 19.7558 21.511C19.6928 21.6282 19.6162 21.8243 19.461 21.671C19.2141 21.5269 19.1704 21.2113 19.172 20.9511C19.1565 20.5294 19.3263 20.1359 19.4772 19.7518C19.5731 19.5114 19.5495 19.2408 19.4909 18.9944C19.4172 18.7115 19.1902 18.5153 19.0154 18.2946C19.0273 18.2093 19.2507 18.2559 19.3347 18.2722C19.5213 18.3195 19.6329 18.4847 19.772 18.6014C19.871 18.5714 19.8306 18.3714 19.8766 18.2773C19.88 18.145 20.0562 17.9705 20.1289 18.16C20.2377 18.2804 20.1254 18.5191 20.266 18.5941C20.4 18.5445 20.4661 18.3981 20.592 18.3319C20.7158 18.2474 20.8907 18.238 21.0241 18.3043C21.071 18.4272 20.8774 18.5296 20.8213 18.6364C20.5962 18.9145 20.5171 19.298 20.6135 19.6426C20.69 19.9129 20.8254 20.1651 20.8721 20.4445C20.9284 20.7585 20.9265 21.0883 20.8452 21.3978C20.7966 21.5856 20.634 21.7111 20.466 21.7891C20.4246 21.7506 20.4027 21.6939 20.3747 21.6456L20.3747 21.6456Z" fill="#CF1126"/>
<path d="M19.5343 18.1599C19.3476 18.0233 19.2859 17.8927 19.2859 17.6344C19.2859 17.5022 19.3104 17.4305 19.3976 17.3105C19.5259 17.1327 19.5026 17.0766 19.3209 17.1288C19.0287 17.2127 18.8893 17.136 18.8793 16.8872C18.8748 16.7655 18.9004 16.7138 19.0643 16.5172C19.1954 16.3594 19.2432 16.2766 19.217 16.2505C19.1915 16.2249 19.0365 16.3594 18.7182 16.6833C18.4643 16.9416 18.1787 17.2055 18.0837 17.2699C17.537 17.6388 17.0148 17.696 16.7765 17.4122C16.6543 17.2672 16.6609 17.1855 16.802 17.0977C16.867 17.0577 16.9765 16.9655 17.0459 16.8927C17.2098 16.7222 17.6982 16.3699 17.9404 16.2477C18.137 16.1483 18.1837 16.081 18.0559 16.081C17.8904 16.081 17.3593 16.4266 16.9565 16.7966C16.8382 16.906 16.6676 17.0277 16.5782 17.0672C16.377 17.156 15.982 17.1888 15.8065 17.131C15.6826 17.0899 15.4565 16.8766 15.4565 16.8005C15.4565 16.7805 15.5082 16.736 15.5709 16.7022C15.6337 16.6688 15.7465 16.5872 15.8209 16.5222C16.1432 16.2394 16.7537 15.9483 17.2382 15.8466C17.392 15.8144 17.3354 15.7366 17.1637 15.7444C16.8309 15.7588 16.1704 16.0683 15.7759 16.3938C15.3137 16.7749 14.6165 16.7388 14.392 16.3222C14.3532 16.2505 14.3304 16.1833 14.3415 16.1727C14.352 16.1622 14.4893 16.121 14.6465 16.081C14.8165 16.0383 15.1532 15.8988 15.4748 15.7383C15.9809 15.486 16.1309 15.4322 16.4793 15.376C16.6359 15.351 16.6443 15.2744 16.492 15.2566C16.2959 15.2333 15.9954 15.3316 15.4643 15.5927C14.782 15.9283 14.5909 15.986 14.2315 15.9649C13.9037 15.9449 13.7187 15.861 13.4526 15.6094C13.2787 15.4444 13.032 15.0255 13.0804 14.9772C13.092 14.9655 13.172 14.9772 13.2582 15.0022C13.3537 15.0305 13.6276 15.0494 13.9576 15.0499C14.4193 15.051 14.542 15.0388 14.7882 14.9677C15.1998 14.8488 15.747 14.5705 16.1215 14.291C16.8376 13.7555 17.4215 13.5405 18.1659 13.5372C18.8532 13.5344 19.2904 13.6933 19.6776 14.086C19.8087 14.2188 19.9204 14.3049 19.9387 14.2866C19.9559 14.2694 19.9748 14.0372 19.9804 13.7705C19.9804 13.7705 20.1826 13.751 20.2254 13.8077C20.2254 14.2405 20.2304 14.2744 20.2932 14.2744C20.3343 14.2744 20.3782 14.2322 20.4054 14.1666C20.4643 14.0249 20.682 13.831 20.9148 13.7133C21.4176 13.4583 22.2876 13.4505 22.9865 13.6944C23.2809 13.7977 23.6076 13.9822 23.9187 14.2222C24.2309 14.4622 24.8693 14.7833 25.2465 14.8905C25.6282 14.9988 26.3009 15.026 26.6459 14.9477C26.7882 14.9155 26.9215 14.8888 26.9426 14.8888C27.0698 14.8888 26.8532 15.3127 26.5987 15.561C26.1337 16.0155 25.5287 16.0133 24.6776 15.5544C24.147 15.2688 23.5126 15.1127 23.5126 15.2683C23.5126 15.3005 23.5459 15.3222 23.5954 15.3222C23.7798 15.3222 24.1359 15.446 24.6326 15.6816C25.1698 15.9372 25.4715 16.0449 25.6504 16.0449C25.7804 16.0449 25.7843 16.1255 25.6632 16.3033C25.5348 16.4927 25.317 16.5866 25.0093 16.586C24.7154 16.5849 24.552 16.5205 24.2893 16.3022C23.8498 15.9366 22.7548 15.5288 22.797 15.7466C22.8054 15.7899 22.8582 15.8166 22.9709 15.8338C23.352 15.8922 23.7993 16.1055 24.257 16.4483C24.3982 16.5544 24.5448 16.6588 24.582 16.681C24.6448 16.7177 24.6459 16.7288 24.5965 16.8216C24.5143 16.9749 24.307 17.0938 24.0826 17.1172C23.792 17.1472 23.5393 17.0605 23.2776 16.8416C22.7254 16.3794 22.2048 16.0449 22.0382 16.0449C21.902 16.0449 21.9632 16.1199 22.2032 16.2472C22.5187 16.4144 22.8432 16.6405 23.082 16.8599C23.1948 16.9644 23.322 17.0677 23.3643 17.0905C23.4643 17.1438 23.4604 17.2222 23.3504 17.366C23.2382 17.5127 23.0526 17.5772 22.812 17.5516C22.332 17.501 21.9576 17.2694 21.3693 16.6588C21.1393 16.4205 20.9343 16.2255 20.9132 16.2255C20.8348 16.2255 20.8809 16.3316 21.0326 16.5016C21.2204 16.7116 21.2565 16.8299 21.1854 17.0005C21.1226 17.1516 21.0182 17.1866 20.8037 17.1288C20.5843 17.0694 20.5498 17.1233 20.6937 17.3022C20.9082 17.5694 20.8765 17.8966 20.6137 18.1216C20.532 18.191 20.4465 18.2483 20.4232 18.2483C20.4004 18.2483 20.3426 18.1888 20.2943 18.116C20.1254 17.8594 19.977 17.861 19.8126 18.1205C19.7554 18.211 19.707 18.2844 19.7054 18.2838C19.7032 18.2833 19.6259 18.2277 19.5343 18.1599Z" fill="#CF1126"/>
<path d="M20.3726 12.9458L20.0876 13.1714L19.832 12.9786V14.5197L20.3726 14.5264V12.9458Z" fill="#CF1126"/>
<path d="M18.6063 11.3466C18.5496 12.0749 18.3646 12.5832 18.1074 13.1438L18.7241 12.5721L19.153 13.0816L19.6174 12.5632L20.0913 13.001L20.5469 12.5454L21.0202 13.0993L21.4313 12.6438L22.128 13.1438C21.8752 12.5832 21.533 12.1082 21.5758 11.3193C20.9008 11.821 19.2969 11.9116 18.6063 11.3466Z" fill="#CF1126"/>
<path d="M19.8321 10.9751C19.5843 10.9795 19.3232 10.9829 19.0882 11.029C18.9254 11.0612 18.7776 11.114 18.6543 11.2012C18.6743 11.6751 20.9321 11.8729 21.5376 11.2101C21.4104 11.1173 21.2549 11.0623 21.0837 11.029C20.8576 10.9851 20.6076 10.9807 20.3704 10.9768C20.3704 11.1068 20.3715 11.2373 20.3715 11.3679L19.8321 11.3662V10.9751Z" fill="#CF1126"/>
<path d="M20.2724 8.55322L19.9219 8.556V11.2993L20.2797 11.301L20.2724 8.55322Z" fill="#CF1126"/>
<path d="M20.2727 8.62405L20.1388 9.93739L21.4899 10.5974L20.806 9.68294L21.7399 9.38017L20.2727 8.62405Z" fill="#CF1126"/>
<path d="M20.122 8.28174C19.917 8.28174 19.7654 8.35841 19.7654 8.44952C19.7654 8.54063 19.917 8.61785 20.122 8.61785C20.327 8.61785 20.4776 8.54063 20.4776 8.44952C20.4776 8.35841 20.327 8.28174 20.122 8.28174Z" fill="#CF1126"/>
<path d="M19.5049 31.3231C19.7265 31.2498 19.8526 31.1153 19.9432 30.8564C19.9882 30.7275 20.0187 30.5936 20.011 30.5586C19.9921 30.4759 19.8965 30.4803 19.791 30.5681C19.7187 30.6286 19.7099 30.6592 19.7304 30.7825C19.7832 31.0936 19.6726 31.1709 19.0837 31.2342C19.0254 31.2403 18.8565 31.2303 18.7076 31.212C18.4276 31.177 18.3276 31.2048 18.4293 31.2892C18.4599 31.3148 18.5376 31.3492 18.6021 31.3653C18.7593 31.4059 19.3365 31.3786 19.5049 31.3231Z" fill="#F7E017"/>
<path d="M20.7255 31.2714C20.7588 31.2408 20.8733 31.188 20.98 31.1536C21.1222 31.108 21.1955 31.0591 21.2555 30.9697C21.4283 30.7125 21.3961 30.4908 21.1422 30.1919C21.0044 30.0297 20.9433 30.0341 20.8333 30.2141C20.7383 30.3697 20.7405 30.3797 20.8772 30.4152C20.9488 30.4336 21.0177 30.4864 21.0555 30.5514C21.2044 30.8091 21.1605 30.9686 20.94 30.9702C20.74 30.9719 20.685 31.0002 20.6311 31.1297C20.6027 31.1969 20.58 31.2686 20.58 31.2891C20.58 31.3436 20.6555 31.3341 20.7255 31.2714Z" fill="#F7E017"/>
<path d="M20.324 30.98C20.3617 30.8778 20.3751 30.6939 20.3706 30.3189C20.3678 30.0334 20.3567 29.7911 20.3456 29.78C20.3123 29.7467 20.1478 29.8528 20.1262 29.9211C20.1151 29.9567 20.1334 30.0389 20.1667 30.1034C20.2178 30.2028 20.2245 30.2956 20.209 30.685C20.189 31.1773 20.2212 31.26 20.324 30.98Z" fill="#F7E017"/>
<path d="M19.3855 30.7461C19.4055 30.6545 19.431 30.4667 19.4427 30.3295C19.4544 30.1922 19.4827 30.0189 19.5049 29.9439C19.5616 29.7517 19.5044 29.7011 19.3527 29.8089L19.2399 29.8895L19.2633 30.1656C19.2849 30.4145 19.2455 30.8783 19.1883 31.0583C19.1727 31.1061 19.1949 31.0939 19.2577 31.0206C19.3083 30.9617 19.366 30.8378 19.3855 30.7461Z" fill="#F7E017"/>
<path d="M18.5508 30.8797C18.7537 30.71 18.7304 30.4203 18.7753 30.1842C18.7706 30.0272 18.8755 29.8391 18.8078 29.7018C18.6183 29.7365 18.5014 29.916 18.5985 30.0948C18.6065 30.3025 18.5992 30.5286 18.4924 30.7122C18.4052 30.8323 18.129 30.8024 18.1417 30.6322C18.211 30.3763 17.9044 30.5008 17.7847 30.5679C17.6921 30.6323 17.4967 30.6371 17.5647 30.4758C17.5198 30.261 17.2436 30.3954 17.0935 30.3945C16.9517 30.3919 17.0817 30.1072 16.8783 30.1572C16.5002 30.1274 16.0828 30.1605 15.7555 29.9321C15.5639 29.84 15.5923 29.6096 15.6921 29.4605C15.8112 29.2569 15.8451 29.0022 16.0342 28.8442C16.2214 28.6647 15.8577 28.7405 15.7758 28.801C15.5935 28.9008 15.7628 29.1578 15.6136 29.3004C15.5264 29.4482 15.4116 29.6524 15.2097 29.6242C14.9186 29.5692 14.7508 29.2984 14.5421 29.1169C14.3633 29.0812 14.4639 29.407 14.5562 29.4755C14.7388 29.6123 14.9522 29.7119 15.1724 29.771C15.3915 29.7359 15.3986 30.0228 15.586 30.0678C15.9297 30.228 16.3128 30.276 16.6878 30.2955C16.8351 30.3078 16.7522 30.5701 16.9459 30.5183C17.0541 30.5463 17.2986 30.478 17.3108 30.6038C17.1468 30.7985 17.4682 30.7942 17.5872 30.7593C17.7396 30.736 17.9342 30.6778 17.9745 30.8867C18.1017 31.0207 18.3352 31.0009 18.49 30.9242C18.5118 30.9116 18.5323 30.8967 18.5508 30.8797Z" fill="#F7E017"/>
<path d="M15.2312 29.1981C15.2929 29.1197 15.3851 28.9614 15.4362 28.8459C15.4868 28.7297 15.5629 28.5981 15.6045 28.5531C15.7023 28.4475 15.6479 28.3825 15.4901 28.4175C15.4068 28.4359 15.3729 28.4664 15.359 28.5386C15.3118 28.7742 15.2262 29.0153 15.1501 29.1275C15.0123 29.3309 15.009 29.3392 15.0657 29.3392C15.0951 29.3392 15.1695 29.2759 15.2312 29.1981Z" fill="#F7E017"/>
<path d="M13.1498 27.8938C12.9942 27.8938 12.9875 27.9922 13.1392 28.0449C13.2125 28.0705 13.2748 28.1322 13.3248 28.2327C13.4725 28.5266 13.5592 28.5788 13.9514 28.6127L14.2031 28.6355L14.2153 28.7883C14.2214 28.8727 14.2414 28.9427 14.2609 28.9427C14.2803 28.9427 14.3775 28.9005 14.4759 28.8505C14.6603 28.7572 14.8353 28.5394 14.8353 28.4044C14.8353 28.3161 14.6881 28.2205 14.5542 28.2205C14.4948 28.2205 14.3814 28.2683 14.292 28.3333C14.012 28.5361 13.7125 28.4949 13.5486 28.2311C13.4142 28.0133 13.2736 27.8938 13.1498 27.8938ZM14.5086 28.4355C14.5831 28.4355 14.6014 28.4905 14.5609 28.5955C14.5331 28.6677 14.4425 28.6699 14.4153 28.5988C14.3831 28.5149 14.4281 28.4355 14.5086 28.4355Z" fill="#F7E017"/>
<path d="M25.0485 28.0938C24.9469 28.0977 24.9168 28.1199 24.8524 28.2155C24.7468 28.3721 24.7363 28.7116 24.8335 28.8316C24.8941 28.906 24.903 28.9077 25.0313 28.8543C25.2102 28.7793 25.2402 28.7821 25.2396 28.8782C25.2385 29.1238 24.8863 29.5971 24.5174 29.8488C24.418 29.9166 24.3291 29.9921 24.3196 30.0171C24.293 30.0871 24.4296 30.0716 24.5974 29.986C24.8263 29.8693 25.1268 29.5627 25.2502 29.321C25.348 29.1282 25.3618 29.0627 25.3735 28.7254C25.3841 28.4149 25.3757 28.3238 25.323 28.2204C25.2641 28.1043 25.2452 28.0938 25.0974 28.0938C25.0796 28.0938 25.0635 28.0932 25.0485 28.0938ZM25.0607 28.3104C25.1374 28.3104 25.1507 28.3277 25.1596 28.4377C25.1674 28.5288 25.1513 28.5843 25.1007 28.6299C25.0319 28.6921 25.0263 28.6916 24.9652 28.5988C24.8796 28.4677 24.9324 28.3104 25.0607 28.3104Z" fill="#F7E017"/>
<path d="M23.3737 30.6814C23.6987 30.5214 23.8904 30.3414 24.0137 30.0808C24.072 29.9569 24.1198 29.8403 24.1198 29.8203C24.1198 29.7753 23.9598 29.7008 23.8637 29.7008C23.7681 29.7008 23.7487 29.6347 23.7898 29.4519C23.8298 29.2736 23.7815 29.0503 23.7031 29.0503C23.6748 29.0503 23.6248 29.0919 23.5915 29.1425C23.5404 29.2208 23.5376 29.2542 23.5754 29.368C23.6309 29.5369 23.587 29.663 23.4359 29.7708C23.3643 29.8219 23.3248 29.8808 23.3248 29.938C23.3248 29.9864 23.3309 30.0258 23.3381 30.0258C23.3459 30.0258 23.4248 29.9847 23.5137 29.9353L23.6759 29.8447L23.7715 29.9197C23.8237 29.9608 23.867 30.028 23.867 30.0692C23.867 30.2669 23.3031 30.5992 22.9159 30.6303C22.7098 30.6469 22.6748 30.6397 22.6031 30.5686C22.5448 30.5103 22.5281 30.4614 22.5426 30.3925C22.5537 30.3397 22.5737 30.2436 22.587 30.1792C22.6226 30.0069 22.5487 30.0303 22.4209 30.2314C22.3159 30.3975 22.2848 30.5747 22.3437 30.668C22.392 30.7442 22.7131 30.8169 22.9404 30.803C23.0831 30.7947 23.2243 30.7547 23.3737 30.6814Z" fill="#F7E017"/>
<path d="M25.5429 29.4714C25.7474 29.2675 25.834 29.0192 25.8351 28.6353L25.8357 28.347L26.0046 28.267C26.224 28.1625 26.4318 27.9548 26.4318 27.8392C26.4318 27.7203 26.379 27.7264 26.2835 27.8559C26.214 27.9498 26.1213 28.0064 25.7818 28.1625C25.6963 28.202 25.6907 28.2231 25.6713 28.582C25.6485 28.9959 25.5924 29.1509 25.3613 29.4336C25.2196 29.6059 25.2146 29.6286 25.3129 29.6286C25.3535 29.6286 25.4568 29.5581 25.5429 29.4714Z" fill="#F7E017"/>
<path d="M23.3163 29.2402C23.3357 29.1807 23.2229 29.1385 23.1741 29.1868C23.1535 29.2074 23.1479 29.2429 23.1618 29.2657C23.1941 29.3174 23.2963 29.3002 23.3163 29.2402Z" fill="#F7E017"/>
<path d="M26.3867 28.4453C26.4067 28.3859 26.2933 28.3437 26.245 28.392C26.2239 28.4131 26.2183 28.4487 26.2322 28.4714C26.2645 28.5231 26.3667 28.5059 26.3867 28.4453Z" fill="#F7E017"/>
<path d="M22.6904 26.293C22.611 26.3309 22.5698 26.4166 22.5146 26.4821C22.4748 26.5091 22.5067 26.5343 22.5296 26.5598C22.6697 26.7108 22.729 26.9146 22.7956 27.1047C22.861 27.3292 22.9433 27.5702 22.8749 27.8041C22.848 27.8936 22.7776 27.9864 22.6723 27.9566C22.504 27.9461 22.3383 27.9014 22.1695 27.9032C22.0192 27.911 21.9031 28.0478 21.7494 28.0329C21.6513 28.0393 21.6554 27.8319 21.5642 27.8874C21.519 27.9955 21.5413 28.1162 21.5359 28.2306C21.5529 28.247 21.6006 28.2327 21.6292 28.2375H21.9317C21.9531 28.342 21.9504 28.4617 22.0255 28.5448C22.1305 28.5821 22.2486 28.5499 22.3483 28.5091C22.4553 28.4593 22.4696 28.3307 22.4999 28.2305C22.532 28.1228 22.673 28.151 22.7563 28.1087C22.9599 28.0493 23.0933 27.8377 23.0814 27.6294C23.0682 27.3116 22.9469 27.0125 22.8549 26.7116C22.8086 26.5791 22.7766 26.4408 22.7229 26.3114C22.7166 26.3002 22.7037 26.2908 22.6904 26.293ZM22.1865 28.1108C22.2997 28.1034 22.3488 28.2425 22.3248 28.3347C22.2825 28.46 22.1285 28.3796 22.0973 28.2893C22.0401 28.2087 22.0754 28.1002 22.1865 28.1108Z" fill="#F7E017"/>
<path d="M17.9977 27.0677C17.9472 27.0666 17.8905 27.0855 17.8344 27.1249C17.5394 27.3316 17.4638 27.576 17.6644 27.6716C17.8116 27.7421 17.7744 27.8249 17.5427 27.941C17.211 28.1066 16.9183 28.086 16.3622 27.856C16.2255 27.7994 16.1899 27.821 16.2216 27.946C16.2522 28.0688 16.3644 28.136 16.6433 28.1994C16.9433 28.2683 17.306 28.246 17.5394 28.1455C17.6533 28.0966 17.7883 27.9938 17.9022 27.8699L18.0827 27.6716L18.2927 27.6977C18.5516 27.7294 18.5566 27.7321 18.5566 27.856C18.5566 27.9544 18.5622 27.9566 18.7999 27.9788C18.9338 27.9916 19.1099 28.0033 19.1922 28.0033C19.2972 28.0038 19.3566 28.0221 19.3916 28.071C19.4383 28.136 19.466 28.1394 19.8572 28.1044C20.2227 28.071 20.2944 28.0738 20.4594 28.1299C20.5766 28.1699 20.7055 28.186 20.8033 28.1755C21.0833 28.1438 21.4694 27.9149 21.5255 27.7466C21.5322 27.726 21.6338 27.6899 21.751 27.6666C22.0338 27.6099 22.046 27.5483 21.7822 27.5155C21.6677 27.501 21.496 27.4594 21.4005 27.4216C21.3044 27.3838 21.1733 27.3521 21.1088 27.3521C20.9666 27.3521 20.8327 27.441 20.8327 27.5327C20.8327 27.5927 20.8538 27.5988 21.0222 27.5816C21.1805 27.5655 21.2266 27.5744 21.3099 27.6405C21.3649 27.6838 21.4016 27.7349 21.3899 27.7533C21.3527 27.8138 21.0222 27.9644 20.876 27.9877C20.7783 28.0033 20.6994 27.9927 20.6227 27.9533C20.4944 27.8866 20.3055 27.8766 20.2699 27.9338C20.2549 27.9588 20.2144 27.9427 20.1588 27.8905L20.0722 27.8088L19.876 27.8905C19.6766 27.9733 19.6033 27.9699 19.6033 27.8749C19.6033 27.8316 19.5449 27.8266 19.251 27.8455C18.9272 27.8666 18.8933 27.861 18.8327 27.7933C18.7766 27.731 18.7755 27.7094 18.8155 27.6455C18.8522 27.5866 18.8522 27.561 18.8172 27.526C18.7822 27.491 18.7366 27.4916 18.6088 27.526C18.2866 27.6121 18.1955 27.5638 18.1955 27.3121C18.1955 27.161 18.1088 27.0694 17.9977 27.0677ZM17.9177 27.2988C17.9349 27.2988 17.9494 27.3094 17.9716 27.3316C17.9999 27.3599 18.0149 27.4094 18.0027 27.441C17.9738 27.516 17.8372 27.5133 17.8083 27.4377C17.7944 27.401 17.8122 27.3599 17.8533 27.3299C17.8822 27.3088 17.9005 27.2983 17.9177 27.2988Z" fill="#F7E017"/>
<path d="M17.3409 27.5331C17.537 27.4086 17.5326 27.4181 17.5609 27.0725C17.5804 26.8286 17.577 26.8103 17.5109 26.8103C17.4148 26.8103 17.3648 26.9158 17.3648 27.1169C17.3648 27.2458 17.3448 27.3036 17.2759 27.3719C17.1126 27.5353 16.707 27.4608 16.6559 27.2581C16.6387 27.1886 16.6609 27.1258 16.7459 27.0053C16.9232 26.7536 16.8832 26.6919 16.6659 26.8831C16.5165 27.0136 16.4898 27.0175 16.5182 26.9047C16.5443 26.8008 16.4898 26.7597 16.3682 26.7903C16.3059 26.8058 16.272 26.8447 16.257 26.9203C16.2426 26.9942 16.2087 27.0353 16.1498 27.0497C16.0515 27.0747 15.8837 26.9814 15.8837 26.9019C15.8837 26.8431 16.1348 26.5364 16.457 26.2019C16.5787 26.0753 16.6782 25.9575 16.6782 25.9397C16.6782 25.9219 16.6132 25.9075 16.5337 25.9075C16.4176 25.9075 16.3893 25.9203 16.3893 25.9742C16.3893 26.0108 16.227 26.2236 16.0282 26.4475C15.6137 26.9142 15.5793 27.0114 15.7843 27.1358C15.9493 27.2369 16.1609 27.2292 16.327 27.1164L16.4615 27.0247V27.1908C16.4615 27.4031 16.5037 27.4792 16.6704 27.5675C16.8798 27.6781 17.1332 27.6647 17.3409 27.5331Z" fill="#F7E017"/>
<path d="M26.0383 24.6491C25.8846 24.7409 26.0049 24.9338 26.0282 25.0619C25.9654 25.2366 25.7409 25.2837 25.5772 25.3162C25.3453 25.3546 25.181 25.5485 25.0928 25.7546C25.045 25.8884 24.9297 26.096 24.804 25.8922C24.6947 25.7815 24.4938 25.6937 24.3646 25.823C24.2665 25.9164 24.2416 26.0539 24.205 26.1787C24.1471 26.0828 24.1211 25.94 23.9983 25.9096C23.8023 25.9372 23.8732 26.1843 23.9653 26.2862C24.0491 26.405 24.1295 26.5616 24.0474 26.7027C23.975 26.8722 23.7247 26.9866 23.5776 26.8415C23.4403 26.769 23.5321 26.5102 23.3968 26.4959C23.33 26.5442 23.3244 26.8151 23.2174 26.6683C23.1401 26.5428 23.1811 26.3709 23.0866 26.258C22.9749 26.2719 22.8851 26.4642 22.9222 26.5675C23.0712 26.7685 23.1325 27.0206 23.1906 27.2602C23.2268 27.3561 23.1853 27.5505 23.2751 27.5885C23.3373 27.4341 23.2795 27.259 23.3284 27.1032C23.4739 27.0849 23.6357 27.1513 23.7882 27.116C24.0065 27.0877 24.1751 26.9035 24.2517 26.7074C24.2748 26.5599 24.2473 26.4103 24.2432 26.262C24.4156 26.2887 24.5948 26.2882 24.7606 26.3442C24.8429 26.4703 24.7345 26.6468 24.7118 26.7847C24.6252 27.0654 24.4053 27.2691 24.1914 27.4567C24.102 27.5097 24.09 27.65 24.2221 27.5744C24.5095 27.4515 24.7237 27.1912 24.847 26.9095C24.9369 26.6927 24.8646 26.4513 24.9233 26.2296C25.0101 26.0631 25.219 26.0982 25.3735 26.0987C25.5335 26.0926 25.67 25.9063 25.6166 25.7508C25.5657 25.5705 25.7565 25.4836 25.8869 25.4191C26.0598 25.3319 26.1923 25.1547 26.179 24.9547C26.1719 24.8525 26.1769 24.6585 26.0383 24.6491ZM25.4255 25.6908C25.6107 25.74 25.392 26.0937 25.2936 25.8696C25.2633 25.7841 25.3352 25.6877 25.4255 25.6908ZM24.5661 25.9441C24.8071 25.9301 24.7205 26.282 24.5169 26.1222C24.4113 26.0692 24.4462 25.9376 24.5661 25.9441Z" fill="#F7E017"/>
<path d="M15.8404 27.3043C15.8471 27.2693 15.8293 27.2443 15.7976 27.2443C15.7304 27.2443 15.6899 27.3032 15.7215 27.3543C15.7543 27.4071 15.8265 27.3771 15.8404 27.3043Z" fill="#F7E017"/>
<path d="M18.6646 26.9887C18.6646 26.9371 18.6452 26.9176 18.6018 26.926C18.5074 26.9437 18.4968 27.0637 18.5896 27.0637C18.6413 27.0637 18.6646 27.0404 18.6646 26.9887Z" fill="#F7E017"/>
<path d="M15.1697 25.2929C15.057 25.2697 14.9861 25.3651 14.9475 25.456C14.8632 25.5977 14.7602 25.7426 14.6089 25.8177C14.5002 25.8479 14.3815 25.8065 14.2877 25.7504C14.1758 25.6947 14.2012 25.5601 14.1533 25.4671C14.0723 25.4035 13.9288 25.4944 13.932 25.5933C13.923 25.7258 14.047 25.8024 14.15 25.8536C14.2375 25.9072 14.3643 25.937 14.3993 26.0455C14.3968 26.1376 14.4339 26.2431 14.5461 26.2075C14.6717 26.2054 14.7042 26.3584 14.6535 26.4501C14.6019 26.5535 14.567 26.6747 14.5917 26.7899C14.6517 26.8404 14.713 26.7049 14.7565 26.6662C14.786 26.6268 14.8155 26.5874 14.845 26.5481C15.0672 26.5601 15.2891 26.5884 15.5117 26.5805C15.6701 26.5777 15.805 26.4799 15.9057 26.3653C16.0481 26.2164 16.1651 26.0414 16.3277 25.9129C16.4435 25.8847 16.3813 25.6666 16.2604 25.7296C16.1514 25.7705 16.1171 25.8936 16.0417 25.972C15.9131 26.1277 15.7819 26.2857 15.6198 26.4077C15.5017 26.4567 15.3658 26.4353 15.2446 26.4077C15.194 26.3635 15.3451 26.3275 15.3661 26.2783C15.4357 26.2088 15.5183 26.1428 15.5586 26.0515C15.52 25.9674 15.4021 25.9606 15.319 25.9589C15.1142 25.9835 14.9578 26.1553 14.751 26.1715C14.5941 26.177 14.6758 26.0071 14.7465 25.9491C14.885 25.7847 15.0345 25.6298 15.1791 25.4709C15.2201 25.4215 15.3684 25.3746 15.2735 25.3053C15.2404 25.2934 15.2045 25.2934 15.1697 25.2929ZM15.2704 26.1245C15.3736 26.1825 15.2045 26.2776 15.1333 26.2646C15.0398 26.2926 15.0381 26.1973 15.1211 26.1783C15.1678 26.154 15.2171 26.1287 15.2704 26.1245ZM14.9527 26.3415C15.0114 26.3404 15.1346 26.3968 15.0189 26.433C14.9384 26.4954 14.8475 26.3694 14.9527 26.3415Z" fill="#F7E017"/>
<path d="M17.4536 26.4853C17.4536 26.407 17.3131 26.4181 17.2975 26.4975C17.2875 26.5486 17.3036 26.5608 17.3692 26.5514C17.4159 26.5447 17.4536 26.5153 17.4536 26.4853Z" fill="#F7E017"/>
<path d="M23.6798 25.9344C23.6943 25.8594 23.5898 25.8094 23.5348 25.8644C23.4798 25.9194 23.5304 26.0239 23.6048 26.0094C23.6393 26.0027 23.6731 25.9689 23.6798 25.9344Z" fill="#F7E017"/>
<path d="M13.9915 25.1715C14.0892 25.0876 14.0904 25.082 14.0481 24.8976C13.9881 24.6393 13.992 24.6115 14.0904 24.587C14.2148 24.5554 14.5309 24.7248 14.6009 24.8604C14.6554 24.9654 14.6537 24.9726 14.5615 25.0581C14.462 25.1498 14.4626 25.257 14.562 25.257C14.6442 25.257 14.8715 25.042 14.8715 24.9648C14.8715 24.8576 14.6192 24.6043 14.4198 24.5115C14.2965 24.4537 14.1731 24.427 14.0304 24.4265C13.7748 24.4265 13.7404 24.4815 13.8092 24.7787C13.8904 25.127 13.7804 25.1743 13.4998 24.9115C13.2915 24.7165 13.2092 24.5137 13.2104 24.1943C13.2109 23.8515 13.342 23.682 13.6376 23.642C13.8337 23.6159 13.8287 23.5698 13.627 23.5398C13.3326 23.4954 13.0837 23.692 12.9892 24.0431C12.8842 24.4326 13.1248 24.907 13.5504 25.1515C13.7731 25.2793 13.862 25.2831 13.9915 25.1715Z" fill="#F7E017"/>
<path d="M25.593 24.7441C25.6169 24.7202 25.6364 24.6664 25.6364 24.6247C25.6364 24.583 25.6769 24.4936 25.7264 24.4264C25.7764 24.3591 25.8169 24.2902 25.8169 24.2736C25.8169 24.2052 25.7041 24.2075 25.6153 24.278C25.5241 24.3491 25.4558 24.3508 25.4558 24.2814C25.4558 24.2641 25.4991 24.2286 25.5525 24.2025C25.6847 24.138 25.6958 24.0741 25.5841 24.023C25.4408 23.958 25.2969 24.0769 25.2819 24.273C25.2725 24.4041 25.283 24.4269 25.3841 24.4864C25.4764 24.5408 25.4936 24.5697 25.478 24.6475C25.4514 24.7825 25.5075 24.8297 25.593 24.7441Z" fill="#F7E017"/>
<path d="M26.6848 24.6211C26.7648 24.5494 26.8298 24.4677 26.8298 24.4405C26.8298 24.4133 26.8987 24.3411 26.9831 24.2805C27.2226 24.1083 27.2754 23.9344 27.1681 23.6672C27.1265 23.5622 26.9954 23.4172 26.7104 23.1605C26.4915 22.9627 26.2898 22.8011 26.2637 22.8011C26.1859 22.8011 26.1998 23.0872 26.2787 23.1122C26.4209 23.1577 26.507 23.2161 26.7309 23.4177C26.9909 23.6527 27.1109 23.8722 27.0454 23.9944C26.9826 24.1127 26.8993 24.0761 26.6698 23.8299C26.5493 23.7005 26.4298 23.5949 26.4054 23.5949C26.3787 23.5955 26.3598 23.6422 26.3598 23.7077C26.3598 23.7899 26.4037 23.8683 26.5226 24.0005C26.7165 24.2161 26.7354 24.3455 26.5898 24.4599C26.5376 24.5011 26.4837 24.5349 26.4704 24.5349C26.4576 24.5349 26.4148 24.4705 26.3759 24.3922C26.2948 24.2277 25.7987 23.7038 25.7243 23.7038C25.6904 23.7038 25.6737 23.7461 25.6737 23.8294C25.6737 23.9299 25.6937 23.9655 25.7737 24.0066C25.872 24.0577 26.1154 24.3027 26.3598 24.5983C26.4298 24.6827 26.4987 24.7511 26.5137 24.7516C26.5282 24.7516 26.6054 24.6927 26.6848 24.6211Z" fill="#F7E017"/>
<path d="M27.1702 23.2281C27.138 23.1242 26.4725 22.4392 26.4041 22.4392C26.3686 22.4392 26.3575 22.4815 26.3658 22.5904C26.3752 22.7226 26.3897 22.7454 26.4808 22.7692C26.5375 22.7842 26.713 22.922 26.8702 23.0748C27.0269 23.2276 27.1647 23.3437 27.1758 23.332C27.1869 23.3209 27.1847 23.2742 27.1702 23.2281Z" fill="#F7E017"/>
<path d="M23.1958 30.9381C23.1958 30.9622 23.1853 30.9852 23.1668 31.0022C23.1482 31.0192 23.1231 31.0288 23.0968 31.0288C23.0706 31.0288 23.0455 31.0192 23.0269 31.0022C23.0083 30.9852 22.9979 30.9622 22.9979 30.9381C22.9979 30.9141 23.0083 30.891 23.0269 30.874C23.0455 30.857 23.0706 30.8474 23.0968 30.8474C23.1231 30.8474 23.1482 30.857 23.1668 30.874C23.1853 30.891 23.1958 30.9141 23.1958 30.9381Z" fill="#F7E017"/>
<path d="M23.5454 30.8214C23.5454 30.8455 23.535 30.8685 23.5164 30.8855C23.4979 30.9025 23.4727 30.9121 23.4465 30.9121C23.4202 30.9121 23.3951 30.9025 23.3765 30.8855C23.358 30.8685 23.3475 30.8455 23.3475 30.8214C23.3475 30.7974 23.358 30.7743 23.3765 30.7573C23.3951 30.7403 23.4202 30.7307 23.4465 30.7307C23.4727 30.7307 23.4979 30.7403 23.5164 30.7573C23.535 30.7743 23.5454 30.7974 23.5454 30.8214Z" fill="#F7E017"/>
</g>
<defs>
<clipPath id="clip0_1_4588">
<rect width="40" height="40" rx="20" fill="white"/>
</clipPath>
</defs>
</svg>
