<svg width="40" height="40" viewBox="0 0 40 40" fill="none" xmlns="http://www.w3.org/2000/svg">
<g clip-path="url(#clip0_1_15435)">
<path d="M50 0H-10V40H50V0Z" fill="#009E49"/>
<path d="M50 0H-10V20H50V0Z" fill="#EF2B2D"/>
<path d="M19.9824 13.333L17.9223 19.6734L21.0925 20.7034" fill="#FCD116"/>
<path d="M19.9824 13.333L22.0425 19.6734L18.8723 20.7034" fill="#FCD116"/>
<path d="M26.3418 17.9404H19.6751V21.2738" fill="#FCD116"/>
<path d="M26.3418 17.9404L20.9483 21.859L18.9891 19.1623" fill="#FCD116"/>
<path d="M23.9181 25.3936L21.858 19.0532L18.6878 20.0832" fill="#FCD116"/>
<path d="M23.9181 25.3936L18.5246 21.475L20.4839 18.7783" fill="#FCD116"/>
<path d="M16.0819 25.3934L21.4754 21.4749L19.5161 18.7781" fill="#FCD116"/>
<path d="M16.0819 25.3934L18.142 19.0531L21.3122 20.0831" fill="#FCD116"/>
<path d="M13.6621 17.9385L19.0556 21.857L21.0148 19.1603" fill="#FCD116"/>
<path d="M13.6621 17.9385H20.3288V21.2718" fill="#FCD116"/>
</g>
<defs>
<clipPath id="clip0_1_15435">
<rect width="40" height="40" rx="20" fill="white"/>
</clipPath>
</defs>
</svg>
