<svg width="40" height="40" viewBox="0 0 40 40" fill="none" xmlns="http://www.w3.org/2000/svg">
<g clip-path="url(#clip0_1_15454)">
<path d="M-10 0H50.0161V40H-10V0Z" fill="#C8102E"/>
<mask id="mask0_1_15454" style="mask-type:luminance" maskUnits="userSpaceOnUse" x="-10" y="0" width="61" height="40">
<path d="M-10 0H50.0161V40H-10V0Z" fill="white"/>
</mask>
<g mask="url(#mask0_1_15454)">
<path d="M-13 -2V42L53.0177 -2V42L-13 -2Z" fill="#43B02A" stroke="white" stroke-width="5.06032"/>
</g>
<path d="M19.929 31.3761C26.1883 31.3761 31.2624 26.302 31.2624 20.0428C31.2624 13.7836 26.1883 8.70947 19.929 8.70947C13.6698 8.70947 8.5957 13.7836 8.5957 20.0428C8.5957 26.302 13.6698 31.3761 19.929 31.3761Z" fill="white"/>
<path d="M19.9901 12.072L20.6908 13.2853H22.0915L21.3915 14.4986L22.0915 15.712H20.6908L19.9901 16.9253L19.2895 15.712H17.8888L18.5888 14.4986L17.8888 13.2853H19.2895L19.9901 12.072Z" fill="#C8102E" stroke="#43B02A" stroke-width="0.24"/>
<path d="M27.1722 24.5118L25.7711 24.512L25.0708 25.725L24.37 24.5121L22.9692 24.5116L23.6696 23.2986L22.9691 22.0852L24.3702 22.085L25.0706 20.872L25.7713 22.0849L27.1721 22.0854L26.4718 23.2984L27.1722 24.5118Z" fill="#C8102E" stroke="#43B02A" stroke-width="0.24"/>
<path d="M12.8068 24.5117L13.5072 23.2983L12.8069 22.0853L14.2076 22.0848L14.9084 20.8719L15.6088 22.0849L17.0099 22.0851L16.3094 23.2985L17.0098 24.5115L15.609 24.512L14.9082 25.7249L14.2079 24.5119L12.8068 24.5117Z" fill="#C8102E" stroke="#43B02A" stroke-width="0.24"/>
</g>
<defs>
<clipPath id="clip0_1_15454">
<rect width="40" height="40" rx="20" fill="white"/>
</clipPath>
</defs>
</svg>
