<svg width="40" height="40" viewBox="0 0 40 40" fill="none" xmlns="http://www.w3.org/2000/svg">
<g clip-path="url(#clip0_1_5208)">
<path d="M-10 0H50V40H-10V0Z" fill="#032EA1"/>
<path d="M-10 9.99982H49.9783V29.9998H-10V9.99982Z" fill="#E00025"/>
<path d="M14.3884 18.8179H25.7684V23.1967H14.3884V18.8179Z" fill="white" stroke="black" stroke-width="0.096" stroke-linejoin="bevel"/>
<path d="M25.1814 21.2359H25.54V22.8854H25.1814V21.2359ZM14.3884 20.4209H25.7684V20.9299H14.3884V20.4209ZM14.3884 19.7309H25.7684V20.1799H14.3884V19.7309Z" fill="white" stroke="black" stroke-width="0.096" stroke-linejoin="bevel"/>
<path d="M14.3884 19.0421H25.7684V19.4775H14.3884V19.0421Z" fill="white" stroke="black" stroke-width="0.0945" stroke-linejoin="bevel"/>
<path d="M17.3845 21.2358H17.7431V22.8853H17.3845V21.2358ZM22.2835 21.2358H22.6421V22.8853H22.2835V21.2358ZM14.4785 21.2358H14.8371V22.8853H14.4785V21.2358ZM15.1815 21.2358H15.5401V22.8853H15.1815V21.2358ZM15.9315 21.2358H16.2901V22.8853H15.9315V21.2358ZM16.6815 21.2358H17.0401V22.8853H16.6815V21.2358ZM22.9635 21.2358H23.3221V22.8853H22.9635V21.2358ZM23.7135 21.2358H24.0721V22.8853H23.7135V21.2358ZM24.4635 21.2358H24.8221V22.8853H24.4635V21.2358Z" fill="white" stroke="black" stroke-width="0.096" stroke-linejoin="bevel"/>
<path d="M9.9375 23.4269C10.1135 23.3372 10.3142 23.1285 10.3799 22.8949H29.6869C29.7526 23.1285 29.9534 23.3372 30.1294 23.4269H9.9375Z" fill="white" stroke="black" stroke-width="0.096"/>
<path d="M19.7855 12.152C19.7855 12.152 19.7711 11.7408 20.0105 11.7363C20.2501 11.7407 20.2355 12.152 20.2355 12.152H19.7855ZM18.5365 17.606V17.0524C18.5285 16.7756 18.2605 16.7556 18.2527 16.5538C18.2527 16.5538 18.2181 16.2511 18.2979 16.113C18.4062 16.5177 18.6034 16.4434 18.6034 16.277C18.6034 16.1317 18.4918 15.9966 18.2627 15.644C18.1895 15.5312 18.2347 15.178 18.3374 15.0517C18.3771 15.3587 18.4226 15.5057 18.5544 15.5057C18.6349 15.5057 18.7006 15.4533 18.7006 15.2995C18.7006 15.1038 18.5681 15.005 18.5029 14.827C18.4269 14.6192 18.4793 14.4074 18.6055 14.289C18.6597 14.592 18.6435 14.7127 18.7782 14.7127C19.0495 14.6269 18.7782 14.2341 18.7202 14.135C18.6536 14.0195 18.8099 13.789 18.8099 13.789C18.8962 14.058 18.9239 14.08 19.0169 14.055C19.1343 14.0235 19.1192 13.8494 18.9759 13.7087C18.8855 13.6197 18.8951 13.4875 18.9922 13.3813C19.0897 13.5718 19.2145 13.5603 19.2265 13.4471L19.1481 13.0079H20.8736L20.788 13.4329C20.7634 13.5544 20.9275 13.5809 21.0295 13.3814C21.1267 13.4876 21.1363 13.6199 21.0459 13.7088C20.9027 13.8495 20.8875 14.0236 21.0049 14.0551C21.0979 14.0801 21.1257 14.0581 21.2119 13.7891C21.2119 13.7891 21.3521 13.9461 21.3015 14.1351C21.2435 14.2341 20.9722 14.6271 21.2435 14.7128C21.3781 14.7128 21.3621 14.592 21.4162 14.2891C21.5425 14.4075 21.5947 14.6193 21.5187 14.8271C21.4537 15.0051 21.3211 15.1039 21.3211 15.2996C21.3211 15.4534 21.3869 15.5058 21.4672 15.5058C21.5992 15.5058 21.6447 15.3588 21.6845 15.0518C21.787 15.1781 21.8322 15.5313 21.759 15.644C21.53 15.9966 21.4183 16.1317 21.4183 16.277C21.4183 16.4434 21.6153 16.5177 21.7239 16.113C21.8036 16.251 21.7689 16.5538 21.7689 16.5538C21.7611 16.7556 21.4931 16.7756 21.4851 17.0524V17.606H18.5365ZM19.2585 13.004L19.2187 12.6915H20.8026L20.7629 13.004H19.2585ZM19.3644 12.685L19.3305 12.428H20.6907L20.6568 12.685H19.3644ZM19.5805 12.419L19.5578 12.162H20.4636L20.4409 12.419H19.5805ZM22.8825 23.427C22.6798 23.349 22.3847 23.135 22.3847 22.92V20.4903L22.6486 20.1545H17.3711L17.6241 20.4905V22.9201C17.6241 23.1351 17.4213 23.3491 17.2188 23.4271L22.8825 23.427Z" fill="white" stroke="black" stroke-width="0.096"/>
<path d="M18.3103 21.236H18.6689V22.8855H18.3103V21.236ZM21.3423 21.236H21.7009V22.8855H21.3423V21.236Z" fill="white" stroke="black" stroke-width="0.096" stroke-linejoin="bevel"/>
<path d="M17.2773 17.3893V20.1549H22.6796V19.5592L22.6874 17.3892C22.4666 17.476 22.4278 17.6762 22.4278 17.6762V18.854H17.5528V17.6763C17.5528 17.6763 17.4983 17.4761 17.2773 17.3893Z" fill="white" stroke="black" stroke-width="0.096"/>
<path d="M21.9467 23.4272C21.7701 23.3492 21.3855 23.1352 21.3855 22.9202V20.2012C21.4233 20.0494 21.6291 19.9598 21.7615 19.8654H18.1793C18.3498 19.9556 18.5399 20.0306 18.6078 20.2014V22.9204C18.6078 23.1354 18.3038 23.3494 18.1272 23.4274L21.9467 23.4272Z" fill="white" stroke="black" stroke-width="0.096"/>
<path d="M22.4285 19.894V17.9353H21.9375V17.7443H18.0535V17.9353H17.5625V19.894H22.4285ZM21.1735 23.427C21.0005 23.349 20.7485 23.135 20.7485 22.92V20.5986L20.8907 20.3876H19.1217L19.2637 20.5986V22.9201C19.2637 23.1353 19.0117 23.3491 18.8387 23.4271L21.1735 23.427Z" fill="white" stroke="black" stroke-width="0.096"/>
<path d="M19.5586 20.3882H20.4552V23.4259H19.5586V20.3882Z" fill="white" stroke="black" stroke-width="0.0981"/>
<path d="M20.9249 19.7198C20.9269 19.5198 21.5087 19.5108 21.8081 19.3403H18.2129C18.5123 19.5107 19.0804 19.5247 19.0804 19.7198L19.2021 20.108L20.6904 20.1678L20.9249 19.7198Z" fill="white" stroke="black" stroke-width="0.096" stroke-linejoin="bevel"/>
<path d="M21.628 17.6063C21.628 17.1163 21.6485 16.9277 21.799 16.9277V18.4857C21.43 18.6197 21.1665 19.0907 21.1665 19.0907H18.8455C18.8455 19.0907 18.582 18.6197 18.2129 18.4857V16.9277C18.3984 16.9277 18.3996 17.1249 18.3996 17.6063H21.628ZM21.799 17.4053C21.799 16.8435 22.284 16.7803 22.284 16.7803V17.2803C22.0995 17.2723 22.0104 17.4381 22.0104 17.6847C22.0104 17.9313 22.1591 17.9353 22.1591 17.9353V19.3543H21.7991L21.799 17.4053Z" fill="white" stroke="black" stroke-width="0.096"/>
<path d="M18.2155 17.4053C18.2155 16.8435 17.7305 16.7803 17.7305 16.7803V17.2803C17.915 17.2723 18.0041 17.4381 18.0041 17.6847C18.0041 17.9313 17.8554 17.9353 17.8554 17.9353V19.3543H18.2154L18.2155 17.4053Z" fill="white" stroke="black" stroke-width="0.096"/>
<path d="M19.1704 13.5341H20.8832M18.9674 14.0691H21.0594M18.7644 14.7181H21.2548M18.5524 15.5111H21.506M18.4844 16.4151H21.527" stroke="black" stroke-width="0.08"/>
<path d="M17.5625 19.3641H22.4285M19.1065 19.3651H20.9101V20.0281H19.1065V19.3651Z" stroke="black" stroke-width="0.096"/>
<path d="M18.8809 17.8961C19.1799 18.2551 19.1522 18.8641 19.1489 19.2231H20.8831C20.8796 18.8641 20.8519 18.2551 21.1509 17.8961H18.8809ZM19.8559 13.7831L19.6183 13.6607V13.3109C19.7153 13.3399 19.8245 13.352 19.8351 13.5068C19.8689 13.2858 19.9299 13.2965 20.0258 13.2104C20.1215 13.2964 20.1825 13.2858 20.2163 13.5068C20.227 13.352 20.336 13.3401 20.4333 13.3108V13.6606L20.1955 13.783L19.8559 13.7831Z" fill="white" stroke="black" stroke-width="0.096"/>
<path d="M19.838 14.3572L19.4434 14.0859V13.7636C19.5817 13.7956 19.737 13.8086 19.7522 13.9786C19.8004 13.7362 19.8872 13.611 20.0237 13.5166C20.1602 13.611 20.247 13.7362 20.2952 13.9786C20.3104 13.8086 20.4657 13.7956 20.6042 13.7636V14.0859L20.2094 14.3572H19.838Z" fill="white" stroke="black" stroke-width="0.096"/>
<path d="M19.812 15.2518L19.3582 14.8533V14.3797C19.5172 14.4267 19.6959 14.4459 19.7134 14.6953C19.7687 14.3393 19.8686 14.1553 20.0254 14.0166C20.1824 14.1553 20.2824 14.3392 20.3377 14.6952C20.3552 14.4458 20.5337 14.4266 20.6927 14.3795V14.853L20.2391 15.2515L19.812 15.2518ZM20.649 15.7808L20.2386 16.3484H19.774L19.3636 15.7808H20.649ZM19.127 16.7338C19.3323 16.846 19.408 17.0695 19.43 17.4891H20.585C20.607 17.0695 20.6827 16.8461 20.888 16.7338H19.127Z" fill="white" stroke="black" stroke-width="0.096"/>
<path d="M20.9036 15.7811V15.2109C20.7086 15.2646 20.5823 15.3799 20.526 15.5367C20.526 15.3474 20.277 14.911 20.0053 14.6937C19.7329 14.9369 19.4796 15.3317 19.4847 15.5367C19.4384 15.3875 19.3022 15.2647 19.1072 15.2109V15.7811H20.9036Z" fill="white" stroke="black" stroke-width="0.096" stroke-linejoin="bevel"/>
<path d="M20.9909 16.7339V16.1637C20.7771 16.2174 20.6387 16.3327 20.5769 16.4895C20.5769 16.3002 20.3039 15.8637 20.0062 15.6465C19.7076 15.8897 19.4299 16.2845 19.4355 16.4895C19.3847 16.3403 19.2353 16.2175 19.0215 16.1637V16.7339H20.9909Z" fill="white" stroke="black" stroke-width="0.096" stroke-linejoin="bevel"/>
<path d="M21.2313 17.904V17.2463C20.9653 17.315 20.8 17.5116 20.7162 17.6263C20.7162 17.2703 20.3142 16.7273 20.0063 16.5495C19.6902 16.732 19.2962 17.293 19.2962 17.6263C19.2102 17.5123 19.0473 17.315 18.7812 17.2463V17.904H21.2313Z" fill="white" stroke="black" stroke-width="0.096" stroke-linejoin="bevel"/>
<path d="M21.0861 19.3638V18.6876C20.8515 18.7796 20.7813 19.0056 20.7075 19.1593C20.7365 18.4733 20.3213 17.7363 20.0051 17.5493C19.6888 17.7363 19.2658 18.4893 19.3027 19.1593C19.2269 19.0066 19.1587 18.7796 18.9241 18.6876V19.3638H21.0861Z" fill="white" stroke="black" stroke-width="0.096" stroke-linejoin="bevel"/>
<path d="M20.9227 20.3878V19.7116C20.6769 19.7701 20.6617 19.8606 20.5835 20.0122C20.6125 19.6025 20.3225 19.1352 20.0062 18.9482C19.6899 19.1352 19.3998 19.6026 19.4288 20.0122C19.3508 19.8607 19.3411 19.7702 19.0898 19.7116V20.3878H20.9227Z" fill="white" stroke="black" stroke-width="0.096"/>
<path d="M10.3798 22.895V20.851C10.3128 20.5907 10.0918 20.3605 9.92578 20.3144V18.515L10.2998 18.7174L10.727 20.5984V22.895H10.3798Z" fill="white" stroke="black" stroke-width="0.096"/>
<path d="M10.3798 22.9027V20.8507C10.3128 20.5905 10.0918 20.3603 9.92578 20.3142V18.3899C10.1768 18.3899 10.2998 18.7172 10.2998 18.7172L10.727 20.5982V22.8869L10.3798 22.9027Z" fill="white" stroke="black" stroke-width="0.096"/>
<path d="M10.1133 23.4266C10.2863 23.3486 10.5383 23.1346 10.5383 22.9196V20.3649L10.4196 20.1541H14.7719L14.6021 20.3649V22.9196C14.6021 23.1346 14.7751 23.3486 14.9481 23.4266H10.1133Z" fill="white" stroke="black" stroke-width="0.096"/>
<path d="M14.0692 23.427C13.8962 23.349 13.6442 23.135 13.6442 22.92V20.4903L14.0062 20.1543L11.0474 20.1545L11.4094 20.4903V22.92C11.4094 23.135 11.1574 23.349 10.9844 23.427H14.0692Z" fill="white" stroke="black" stroke-width="0.096"/>
<path d="M13.6559 23.4269C13.4829 23.3489 13.2309 23.1349 13.2309 22.9199V20.7234L13.4679 20.3874H11.5881L11.8251 20.7234V22.9199C11.8251 23.1349 11.5731 23.3489 11.4001 23.4269H13.6559Z" fill="white" stroke="black" stroke-width="0.096"/>
<path d="M12.0781 20.3877H12.9763V23.427H12.0781V20.3877Z" fill="white" stroke="black" stroke-width="0.096"/>
<path d="M10.8568 21.2357H11.2154V22.8852H10.8568V21.2357ZM13.9318 21.2357H14.2904V22.8852H13.9318V21.2357ZM10.5508 18.4537H10.9828V20.1447H10.5508V18.4537ZM10.5508 18.1357H10.9803V18.4497H10.5508V18.1357Z" fill="white" stroke="black" stroke-width="0.096" stroke-linejoin="bevel"/>
<path d="M14.1016 18.8174H14.7176V20.1228H14.1016V18.8174Z" fill="white" stroke="black" stroke-width="0.1034" stroke-linejoin="bevel"/>
<path d="M10.9752 20.1318V17.2378C11.0984 17.2378 11.1174 17.6618 11.4002 17.6618C11.5472 17.6618 11.5316 17.4862 11.449 17.3431C11.3758 17.2163 11.2853 17.0413 11.4083 16.7151C11.4927 16.9647 11.7196 17.0439 11.6777 16.8874C11.6057 16.6186 11.3982 16.5744 11.5537 16.1572C11.6079 16.5052 11.8311 16.4899 11.7769 16.2876C11.7159 16.0596 11.5896 15.9662 11.7453 15.6448C11.8326 16.0098 11.9505 15.9883 11.9505 15.7618C11.9505 15.4272 11.9377 15.0662 12.3708 14.9323C12.3708 14.9323 12.3958 14.6255 12.552 14.6255C12.7082 14.6255 12.7333 14.9323 12.7333 14.9323C13.1663 15.0663 13.1535 15.4273 13.1535 15.7619C13.1535 15.9884 13.2715 16.0099 13.3587 15.6449C13.5145 15.9663 13.3882 16.0597 13.3272 16.2877C13.2728 16.49 13.4962 16.5054 13.5502 16.1573C13.7058 16.5745 13.4984 16.6187 13.4262 16.8875C13.3844 17.044 13.6112 16.9648 13.6956 16.7153C13.8186 17.0413 13.7281 17.2163 13.6549 17.3433C13.5723 17.4863 13.5566 17.662 13.7039 17.662C13.9865 17.662 14.0055 17.238 14.1287 17.238V20.132L10.9752 20.1318ZM10.2986 17.9458V20.1538H10.5496V17.9402C10.4592 17.8945 10.3742 17.8875 10.2986 17.9458Z" fill="white" stroke="black" stroke-width="0.096"/>
<path d="M10.3066 19.3748C10.6178 19.5338 10.9261 19.7181 11.0041 20.1541H10.3066V19.3748ZM14.6233 18.7138V20.1545H14.8268V18.7102C14.7633 18.6804 14.6765 18.6757 14.6233 18.7138Z" fill="white" stroke="black" stroke-width="0.096"/>
<path d="M14.8264 19.3643C14.5152 19.5233 14.2069 19.7076 14.1289 20.1436H14.8264V19.3643Z" fill="white" stroke="black" stroke-width="0.096"/>
<path d="M12.7691 15.9987L12.9505 15.8462V15.6509C12.8841 15.6574 12.8479 15.6802 12.7989 15.7445C12.7572 15.615 12.6655 15.514 12.5427 15.4512C12.4197 15.514 12.3281 15.6105 12.2864 15.7399C12.2374 15.6756 12.2012 15.6574 12.1348 15.6509V15.8462L12.3163 15.9987H12.7691Z" fill="white" stroke="black" stroke-width="0.096"/>
<path d="M12.8662 16.488L12.9505 16.3055V16.0515C12.8841 16.0582 12.8479 16.0813 12.7989 16.1465C12.7572 16.0152 12.6655 15.9127 12.5427 15.8491C12.4197 15.9128 12.3281 16.0107 12.2864 16.1419C12.2374 16.0769 12.2012 16.0583 12.1348 16.0517V16.3057L12.2192 16.4881L12.8662 16.488Z" fill="white" stroke="black" stroke-width="0.096"/>
<path d="M12.8794 17.1508L13.1489 16.8221V16.4978C13.0503 16.5088 12.9965 16.5481 12.9237 16.6584C12.8617 16.4362 12.7257 16.3876 12.5431 16.2798C12.3606 16.3876 12.2244 16.4283 12.1625 16.6505C12.0897 16.5402 12.0359 16.5089 11.9375 16.4978V16.8221L12.2068 17.1508H12.8794Z" fill="white" stroke="black" stroke-width="0.096"/>
<path d="M12.958 17.8015C12.958 17.8015 13.272 17.5275 13.2907 17.3771V17.0304C13.169 17.0446 13.0539 17.0762 12.964 17.2186C12.8875 16.9316 12.768 16.8516 12.5428 16.7124C12.3175 16.8516 12.1981 16.9316 12.1216 17.2186C12.0316 17.0761 11.9166 17.0446 11.7949 17.0303V17.3769C11.8345 17.5273 12.1275 17.8013 12.1275 17.8013L12.958 17.8015Z" fill="white" stroke="black" stroke-width="0.096"/>
<path d="M13.0909 19.0038C13.0909 19.0038 13.5209 18.5278 13.5309 18.3422V17.8016C13.3699 17.8239 13.2177 17.9346 13.0989 18.1566C12.9977 17.7092 12.8399 17.3972 12.5419 17.1802C12.2439 17.3972 12.0859 17.7092 11.9849 18.1567C11.8659 17.9345 11.7136 17.8237 11.5527 17.8015V18.3421C11.5835 18.5276 11.9927 19.0037 11.9927 19.0037L13.0909 19.0038Z" fill="white" stroke="black" stroke-width="0.096"/>
<path d="M13.0909 19.7146C13.0909 19.7146 13.4585 19.3404 13.5309 19.178V18.6374C13.3699 18.6597 13.2177 18.7704 13.0989 18.9924C12.9977 18.545 12.8399 18.2888 12.5419 18.0718C12.2439 18.2888 12.0859 18.545 11.9849 18.9925C11.8659 18.7702 11.7136 18.6595 11.5527 18.6373V19.1779C11.646 19.3403 11.9927 19.7145 11.9927 19.7145L13.0909 19.7146Z" fill="white" stroke="black" stroke-width="0.096"/>
<path d="M13.2392 20.1274C13.1319 19.6606 13.0396 19.3144 12.5229 18.9634C12.0062 19.3144 11.9139 19.6606 11.8066 20.1274H13.2392Z" fill="white" stroke="black" stroke-width="0.096"/>
<path d="M13.5054 20.3879V19.7117C13.2708 19.8037 13.0587 19.9397 12.9804 20.0912C12.8932 19.7158 12.7248 19.5504 12.5152 19.3232C12.3055 19.5504 12.1652 19.7158 12.0777 20.0912C11.9995 19.9397 11.7875 19.8037 11.5527 19.7117V20.3879H13.5054Z" fill="white" stroke="black" stroke-width="0.096"/>
<path d="M29.6671 22.8945V20.8505C29.7341 20.5902 29.9551 20.36 30.1211 20.3139V18.5145L29.7471 18.7169L29.3199 20.5979V22.8945H29.6671Z" fill="white" stroke="black" stroke-width="0.096"/>
<path d="M29.6671 22.9027V20.8507C29.7341 20.5905 29.9551 20.3603 30.1211 20.3142V18.3899C29.8701 18.3899 29.7471 18.7172 29.7471 18.7172L29.3199 20.5982V22.8869L29.6671 22.9027Z" fill="white" stroke="black" stroke-width="0.096"/>
<path d="M29.9336 23.4266C29.7606 23.3486 29.5086 23.1346 29.5086 22.9196V20.3649L29.6273 20.1541H25.275L25.4448 20.3649V22.9196C25.4448 23.1346 25.2718 23.3486 25.0988 23.4266H29.9336Z" fill="white" stroke="black" stroke-width="0.096"/>
<path d="M25.9777 23.427C26.1507 23.349 26.4027 23.135 26.4027 22.92V20.4903L26.0407 20.1543L28.9995 20.1545L28.6375 20.4903V22.92C28.6375 23.135 28.8895 23.349 29.0625 23.427H25.9777Z" fill="white" stroke="black" stroke-width="0.096"/>
<path d="M26.3909 23.4269C26.5639 23.3489 26.8159 23.1349 26.8159 22.9199V20.7234L26.5789 20.3874H28.4587L28.2217 20.7234V22.9199C28.2217 23.1349 28.4737 23.3489 28.6467 23.4269H26.3909Z" fill="white" stroke="black" stroke-width="0.096"/>
<path d="M27.9688 20.3877H27.0705V23.427H27.9688V20.3877Z" fill="white" stroke="black" stroke-width="0.096"/>
<path d="M29.1901 21.2357H28.8315V22.8852H29.1901V21.2357ZM26.1151 21.2357H25.7565V22.8852H26.1151V21.2357ZM29.4961 18.4537H29.0641V20.1447H29.4961V18.4537ZM29.4961 18.1357H29.0666V18.4497H29.4961V18.1357Z" fill="white" stroke="black" stroke-width="0.096" stroke-linejoin="bevel"/>
<path d="M25.9453 18.8174H25.3293V20.1228H25.9453V18.8174Z" fill="white" stroke="black" stroke-width="0.1034" stroke-linejoin="bevel"/>
<path d="M29.0717 20.1318V17.2378C28.9485 17.2378 28.9295 17.6618 28.6467 17.6618C28.4997 17.6618 28.5153 17.4862 28.5979 17.3431C28.6711 17.2163 28.7616 17.0413 28.6386 16.7151C28.5542 16.9647 28.3273 17.0439 28.3692 16.8874C28.4412 16.6186 28.6487 16.5744 28.4932 16.1572C28.439 16.5052 28.2158 16.4899 28.27 16.2876C28.331 16.0596 28.4573 15.9662 28.3016 15.6448C28.2143 16.0098 28.0964 15.9883 28.0964 15.7618C28.0964 15.4272 28.1092 15.0662 27.6761 14.9323C27.6761 14.9323 27.6511 14.6255 27.4949 14.6255C27.3387 14.6255 27.3136 14.9323 27.3136 14.9323C26.8806 15.0663 26.8934 15.4273 26.8934 15.7619C26.8934 15.9884 26.7754 16.0099 26.6882 15.6449C26.5324 15.9663 26.6587 16.0597 26.7197 16.2877C26.7741 16.49 26.5507 16.5054 26.4967 16.1573C26.3411 16.5745 26.5485 16.6187 26.6207 16.8875C26.6625 17.044 26.4357 16.9648 26.3513 16.7153C26.2283 17.0413 26.3188 17.2163 26.392 17.3433C26.4746 17.4863 26.4903 17.662 26.343 17.662C26.0604 17.662 26.0414 17.238 25.9182 17.238V20.132L29.0717 20.1318ZM29.7483 17.9458V20.1538H29.4973V17.9402C29.5877 17.8945 29.6727 17.8875 29.7483 17.9458Z" fill="white" stroke="black" stroke-width="0.096"/>
<path d="M29.7402 19.3748C29.429 19.5338 29.1207 19.7181 29.0427 20.1541H29.7402V19.3748ZM25.4235 18.7138V20.1545H25.22V18.7102C25.2835 18.6804 25.3703 18.6757 25.4235 18.7138Z" fill="white" stroke="black" stroke-width="0.096"/>
<path d="M25.2205 19.3643C25.5317 19.5233 25.84 19.7076 25.918 20.1436H25.2205V19.3643Z" fill="white" stroke="black" stroke-width="0.096"/>
<path d="M27.2778 15.9987L27.0964 15.8462V15.6509C27.1628 15.6574 27.199 15.6802 27.248 15.7445C27.2897 15.615 27.3814 15.514 27.5042 15.4512C27.6272 15.514 27.7188 15.6105 27.7605 15.7399C27.8095 15.6756 27.8457 15.6574 27.9121 15.6509V15.8462L27.7306 15.9987H27.2778Z" fill="white" stroke="black" stroke-width="0.096"/>
<path d="M27.1807 16.488L27.0964 16.3055V16.0515C27.1628 16.0582 27.199 16.0813 27.248 16.1465C27.2897 16.0152 27.3814 15.9127 27.5042 15.8491C27.6272 15.9128 27.7188 16.0107 27.7605 16.1419C27.8095 16.0769 27.8457 16.0583 27.9121 16.0517V16.3057L27.8277 16.4881L27.1807 16.488Z" fill="white" stroke="black" stroke-width="0.096"/>
<path d="M27.1675 17.1508L26.898 16.8221V16.4978C26.9966 16.5088 27.0504 16.5481 27.1232 16.6584C27.1852 16.4362 27.3212 16.3876 27.5038 16.2798C27.6863 16.3876 27.8225 16.4283 27.8844 16.6505C27.9572 16.5402 28.011 16.5089 28.1094 16.4978V16.8221L27.8401 17.1508H27.1675Z" fill="white" stroke="black" stroke-width="0.096"/>
<path d="M27.0889 17.8015C27.0889 17.8015 26.7749 17.5275 26.7562 17.3771V17.0304C26.8779 17.0446 26.993 17.0762 27.0829 17.2186C27.1594 16.9316 27.2789 16.8516 27.5041 16.7124C27.7294 16.8516 27.8488 16.9316 27.9253 17.2186C28.0153 17.0761 28.1303 17.0446 28.252 17.0303V17.3769C28.2124 17.5273 27.9194 17.8013 27.9194 17.8013L27.0889 17.8015Z" fill="white" stroke="black" stroke-width="0.096"/>
<path d="M26.9559 19.0038C26.9559 19.0038 26.5259 18.5278 26.5159 18.3422V17.8016C26.6769 17.8239 26.8291 17.9346 26.9479 18.1566C27.0491 17.7092 27.2069 17.3972 27.5049 17.1802C27.8029 17.3972 27.9609 17.7092 28.0619 18.1567C28.1809 17.9345 28.3332 17.8237 28.4941 17.8015V18.3421C28.4633 18.5276 28.0541 19.0037 28.0541 19.0037L26.9559 19.0038Z" fill="white" stroke="black" stroke-width="0.096"/>
<path d="M26.9559 19.7146C26.9559 19.7146 26.5883 19.3404 26.5159 19.178V18.6374C26.6769 18.6597 26.8291 18.7704 26.9479 18.9924C27.0491 18.545 27.2069 18.2888 27.5049 18.0718C27.8029 18.2888 27.9609 18.545 28.0619 18.9925C28.1809 18.7702 28.3332 18.6595 28.4941 18.6373V19.1779C28.4008 19.3403 28.0541 19.7145 28.0541 19.7145L26.9559 19.7146Z" fill="white" stroke="black" stroke-width="0.096"/>
<path d="M26.8076 20.1274C26.9149 19.6606 27.0072 19.3144 27.5239 18.9634C28.0406 19.3144 28.1329 19.6606 28.2402 20.1274H26.8076Z" fill="white" stroke="black" stroke-width="0.096"/>
<path d="M26.5414 20.3879V19.7117C26.776 19.8037 26.9881 19.9397 27.0664 20.0912C27.1536 19.7158 27.322 19.5504 27.5316 19.3232C27.7413 19.5504 27.8816 19.7158 27.9691 20.0912C28.0473 19.9397 28.2593 19.8037 28.4941 19.7117V20.3879H26.5414Z" fill="white" stroke="black" stroke-width="0.096"/>
<path d="M9.42778 23.3998V24.0171H30.6168V23.3997L9.42778 23.3998ZM9.04417 24.0228V24.8278H31.0002V24.0228H9.04417ZM31.0002 24.8278L9.04417 24.8338L8.40237 24.8278V25.89H31.6422V24.828L31.0002 24.8278ZM7.75588 25.8968L7.75608 27.1478H32.2891L32.2889 25.8968H7.75588ZM32.2891 27.1478V27.1498H7.75608V27.1478H7.10938V28.3988H32.9354V27.1478H32.2891Z" fill="white"/>
<path d="M31.0002 24.8278H9.04417V24.0228H31.0002V24.8278ZM31.0002 24.8278L9.04417 24.8338L8.40237 24.8278V25.89H31.6422V24.828L31.0002 24.8278ZM7.75608 27.1478L7.75588 25.8968H32.2889L32.2891 27.1478M7.75608 27.1478H32.2891M7.75608 27.1478V27.1498H32.2891V27.1478M7.75608 27.1478H7.10938V28.3988H32.9354V27.1478H32.2891M9.42778 23.3998V24.0171H30.6168V23.3997L9.42778 23.3998Z" stroke="black" stroke-width="0.096"/>
<path d="M11.7266 23.4026H13.3271V28.3961H11.7266V23.4026Z" fill="white" stroke="black" stroke-width="0.1045"/>
<path d="M12.082 23.4026H12.9737V28.3962H12.082V23.4026Z" fill="white" stroke="black" stroke-width="0.1043"/>
<path d="M19.1953 23.4026H20.7959V28.3961H19.1953V23.4026Z" fill="white" stroke="black" stroke-width="0.1045"/>
<path d="M19.5586 23.4026H20.4503V28.3962H19.5586V23.4026Z" fill="white" stroke="black" stroke-width="0.1043"/>
<path d="M26.7053 23.4026H28.3058V28.3961H26.7053V23.4026Z" fill="white" stroke="black" stroke-width="0.1045"/>
<path d="M27.0586 23.4026H27.9503V28.3962H27.0586V23.4026Z" fill="white" stroke="black" stroke-width="0.1043"/>
<path d="M10.3792 22.8954H29.6861M12.0647 27.7694H12.9891M12.0647 27.1444H12.9891M12.0647 26.5194H12.9891M12.0647 25.8944H12.9891M12.0647 25.2694H12.9891M12.0647 24.6444H12.9891M12.0647 24.0194H12.9891M19.5627 27.7704H20.4233M19.5627 27.1451H20.4233M19.5627 26.5198H20.4233M19.5627 25.8944H20.4233M19.5627 25.2691H20.4233M19.5627 24.6438H20.4233M19.5627 24.0185H20.4233M27.0427 27.7694H27.967M27.0427 27.1444H27.967M27.0427 26.5194H27.967M27.0427 25.8944H27.967M27.0427 25.2694H27.967M27.0427 24.6444H27.967M27.0427 24.0194H27.967" stroke="black" stroke-width="0.096"/>
</g>
<defs>
<clipPath id="clip0_1_5208">
<rect width="40" height="40" rx="20" fill="white"/>
</clipPath>
</defs>
</svg>
