<svg width="40" height="40" viewBox="0 0 40 40" fill="none" xmlns="http://www.w3.org/2000/svg">
<g clip-path="url(#clip0_1_11777)">
<rect width="40" height="40" rx="20" fill="#EE1C25"/>
<path d="M4 0H37V40H4V0Z" fill="white"/>
<path d="M-2 0H8.74852V40H-2V0ZM30.2515 0H41V40H30.2515V0Z" fill="#D52B1E"/>
<path d="M12 20.1179L12.8223 19.8277V19.8337C13.3333 19.3077 12.5228 17.7115 12.2643 16.7501C13.022 16.9194 14.1557 17.3547 14.4905 17.2157C14.8253 17.0584 15.0015 16.3692 15.254 15.9459L17.21 18.2314C17.3979 18.3342 17.5624 18.2738 17.627 18.0924L16.7753 13.3037L18.1968 14.126C18.2907 14.1985 18.4023 14.1864 18.5139 14.0776L19.9941 11L21.4332 13.9627C21.5154 14.1078 21.6388 14.1622 21.7621 14.1078L23.254 13.2432L22.3142 18.0621C22.3671 18.2556 22.4611 18.3524 22.6843 18.2919L24.7166 15.9943L25.2981 17.1129C25.4449 17.5301 27.6828 16.738 27.6828 16.738C27.5653 17.7901 26.7783 19.4528 27.3304 19.8942L28 20.1421L24.1586 23.4374C23.9236 24.3322 24.1527 24.6285 24.4112 25.1908L20.2291 24.6829L20.4229 28.9698L19.5536 29L19.6593 24.6769L15.489 25.221C15.7416 24.7494 16.1351 24.4894 15.8414 23.5946L12 20.1179Z" fill="#D52B1E"/>
</g>
<defs>
<clipPath id="clip0_1_11777">
<rect width="40" height="40" rx="20" fill="white"/>
</clipPath>
</defs>
</svg>
