<svg width="40" height="40" viewBox="0 0 40 40" fill="none" xmlns="http://www.w3.org/2000/svg">
<g clip-path="url(#clip0_1_4967)">
<rect width="40" height="40" rx="20" fill="#003893"/>
<path d="M-5 3H46V37H-5V3Z" fill="#003893"/>
<path d="M-5 20H46V28.5H-5V20Z" fill="white"/>
<path d="M-5 22.8336H46.0085V25.667H-5V22.8336Z" fill="#CF2027"/>
<path d="M16.6794 14.0488L16.1541 15.6656L16.9625 15.9283" fill="#F7D116"/>
<path d="M16.6794 14.0488L17.2048 15.6656L16.3964 15.9283" fill="#F7D116"/>
<path d="M18.2947 15.2239H16.5947V16.0739" fill="#F7D116"/>
<path d="M18.2947 15.2239L16.9193 16.2231L16.4197 15.5355" fill="#F7D116"/>
<path d="M17.678 17.1247L17.1526 15.5079L16.3443 15.7706" fill="#F7D116"/>
<path d="M17.678 17.1247L16.3026 16.1255L16.8023 15.4378" fill="#F7D116"/>
<path d="M15.6799 17.1245L17.0553 16.1252L16.5556 15.4376" fill="#F7D116"/>
<path d="M15.6799 17.1245L16.2053 15.5077L17.0137 15.7703" fill="#F7D116"/>
<path d="M15.0603 15.2239L16.4356 16.2232L16.9352 15.5355" fill="#F7D116"/>
<path d="M15.0603 15.2239H16.7603V16.0739" fill="#F7D116"/>
<path d="M16.6794 31.0488L16.1541 32.6656L16.9625 32.9283" fill="#F7D116"/>
<path d="M16.6794 31.0488L17.2048 32.6656L16.3964 32.9283" fill="#F7D116"/>
<path d="M18.2947 32.2239H16.5947V33.0739" fill="#F7D116"/>
<path d="M18.2947 32.2239L16.9193 33.2231L16.4197 32.5355" fill="#F7D116"/>
<path d="M17.678 34.1247L17.1526 32.5079L16.3443 32.7706" fill="#F7D116"/>
<path d="M17.678 34.1247L16.3026 33.1255L16.8023 32.4378" fill="#F7D116"/>
<path d="M15.6799 34.1245L17.0553 33.1252L16.5556 32.4376" fill="#F7D116"/>
<path d="M15.6799 34.1245L16.2053 32.5077L17.0137 32.7703" fill="#F7D116"/>
<path d="M15.0603 32.2239L16.4356 33.2232L16.9352 32.5355" fill="#F7D116"/>
<path d="M15.0603 32.2239H16.7603V33.0739" fill="#F7D116"/>
<path d="M26.3772 21.097H24.6772V21.947" fill="#F7D116"/>
<path d="M26.3772 21.097L25.0019 22.0962L24.5023 21.4086" fill="#F7D116"/>
<path d="M25.7563 22.9984L25.231 21.3816L24.4226 21.6443" fill="#F7D116"/>
<path d="M25.7563 22.9984L24.381 21.9992L24.8806 21.3115" fill="#F7D116"/>
<path d="M23.7603 22.9973L25.1356 21.9981L24.636 21.3104" fill="#F7D116"/>
<path d="M23.7603 22.9973L24.2856 21.3805L25.094 21.6432" fill="#F7D116"/>
<path d="M23.1428 21.097L24.5182 22.0963L25.0178 21.4086" fill="#F7D116"/>
<path d="M23.1428 21.097H24.8428V21.947" fill="#F7D116"/>
<path d="M24.7617 19.9217L24.2364 21.5385L25.0448 21.8012" fill="#F7D116"/>
<path d="M24.7617 19.9217L25.287 21.5385L24.4786 21.8012" fill="#F7D116"/>
<path d="M10.207 26.3499H8.50703V27.1999" fill="#F7D116"/>
<path d="M10.207 26.3499L8.8317 27.3491L8.33208 26.6615" fill="#F7D116"/>
<path d="M9.58813 28.2509L9.06281 26.6341L8.25441 26.8967" fill="#F7D116"/>
<path d="M9.58813 28.2509L8.21281 27.2516L8.71242 26.564" fill="#F7D116"/>
<path d="M7.59155 28.2509L8.96688 27.2516L8.46726 26.564" fill="#F7D116"/>
<path d="M7.59155 28.2509L8.11688 26.6341L8.92528 26.8967" fill="#F7D116"/>
<path d="M6.97461 26.3499L8.34994 27.3491L8.84956 26.6615" fill="#F7D116"/>
<path d="M6.97461 26.3499H8.67461V27.1999" fill="#F7D116"/>
<path d="M8.59351 25.1751L8.06818 26.7919L8.87658 27.0546" fill="#F7D116"/>
<path d="M8.59351 25.1751L9.11883 26.7919L8.31044 27.0546" fill="#F7D116"/>
<path d="M22.6721 32.502L22.1468 30.8852L21.3384 31.1479" fill="#F7D116"/>
<path d="M22.6721 32.502L21.2968 31.5028L21.7964 30.8151" fill="#F7D116"/>
<path d="M20.6741 32.5014L22.0494 31.5022L21.5498 30.8145" fill="#F7D116"/>
<path d="M20.6741 32.5014L21.1994 30.8846L22.0078 31.1473" fill="#F7D116"/>
<path d="M20.0547 30.6011L21.43 31.6003L21.9296 30.9127" fill="#F7D116"/>
<path d="M20.0547 30.6011H21.7547V31.4511" fill="#F7D116"/>
<path d="M21.6736 29.4263L21.1483 31.0431L21.9567 31.3057" fill="#F7D116"/>
<path d="M21.6736 29.4263L22.1989 31.0431L21.3905 31.3057" fill="#F7D116"/>
<path d="M23.291 30.6016H21.591V31.4516" fill="#F7D116"/>
<path d="M23.291 30.6016L21.9157 31.6008L21.4161 30.9131" fill="#F7D116"/>
<path d="M12.6819 18.7491L12.1566 17.1323L11.3482 17.395" fill="#F7D116"/>
<path d="M12.6819 18.7491L11.3066 17.7498L11.8062 17.0622" fill="#F7D116"/>
<path d="M10.6819 18.7485L12.0572 17.7492L11.5576 17.0616" fill="#F7D116"/>
<path d="M10.6819 18.7485L11.2072 17.1317L12.0156 17.3943" fill="#F7D116"/>
<path d="M10.0645 16.8438L11.4398 17.843L11.9394 17.1553" fill="#F7D116"/>
<path d="M10.0645 16.8438H11.7645V17.6937" fill="#F7D116"/>
<path d="M11.6833 15.6738L11.158 17.2906L11.9664 17.5533" fill="#F7D116"/>
<path d="M11.6833 15.6738L12.2087 17.2906L11.4003 17.5533" fill="#F7D116"/>
<path d="M13.3027 16.8486H11.6027V17.6986" fill="#F7D116"/>
<path d="M13.3027 16.8486L11.9274 17.8479L11.4278 17.1602" fill="#F7D116"/>
<path d="M10.6855 32.5024L12.0609 31.5032L11.5613 30.8155" fill="#F7D116"/>
<path d="M10.6855 32.5024L11.2109 30.8856L12.0193 31.1483" fill="#F7D116"/>
<path d="M10.0664 30.5967L11.4417 31.5959L11.9414 30.9083" fill="#F7D116"/>
<path d="M10.0664 30.5967H11.7664V31.4467" fill="#F7D116"/>
<path d="M11.6853 29.4268L11.16 31.0436L11.9684 31.3062" fill="#F7D116"/>
<path d="M11.6853 29.4268L12.2106 31.0436L11.4022 31.3062" fill="#F7D116"/>
<path d="M13.3027 30.6016H11.6027V31.4516" fill="#F7D116"/>
<path d="M13.3027 30.6016L11.9274 31.6008L11.4278 30.9131" fill="#F7D116"/>
<path d="M12.6858 32.5025L12.1605 30.8857L11.3521 31.1484" fill="#F7D116"/>
<path d="M12.6858 32.5025L11.3105 31.5033L11.8101 30.8156" fill="#F7D116"/>
<path d="M20.6799 18.7446L22.0553 17.7453L21.5556 17.0577" fill="#F7D116"/>
<path d="M20.6799 18.7446L21.2053 17.1278L22.0137 17.3904" fill="#F7D116"/>
<path d="M20.0605 16.8438L21.4359 17.843L21.9355 17.1553" fill="#F7D116"/>
<path d="M20.0605 16.8438H21.7605V17.6937" fill="#F7D116"/>
<path d="M21.6775 15.6699L21.1522 17.2867L21.9606 17.5494" fill="#F7D116"/>
<path d="M21.6775 15.6699L22.2028 17.2867L21.3944 17.5494" fill="#F7D116"/>
<path d="M23.293 16.8481H21.593V17.6981" fill="#F7D116"/>
<path d="M23.293 16.8481L21.9176 17.8474L21.418 17.1597" fill="#F7D116"/>
<path d="M22.678 18.7452L22.1526 17.1284L21.3443 17.391" fill="#F7D116"/>
<path d="M22.678 18.7452L21.3026 17.7459L21.8023 17.0583" fill="#F7D116"/>
<path d="M6.97461 21.1005L8.34994 22.0998L8.84956 21.4121" fill="#F7D116"/>
<path d="M6.97461 21.1005H8.67461V21.9505" fill="#F7D116"/>
<path d="M8.59546 19.9262L8.07013 21.543L8.87853 21.8057" fill="#F7D116"/>
<path d="M8.59546 19.9262L9.12079 21.543L8.31239 21.8057" fill="#F7D116"/>
<path d="M10.207 21.101H8.50703V21.951" fill="#F7D116"/>
<path d="M10.207 21.101L8.8317 22.1002L8.33208 21.4126" fill="#F7D116"/>
<path d="M9.58765 23.0009L9.06232 21.3841L8.25392 21.6467" fill="#F7D116"/>
<path d="M9.58765 23.0009L8.21232 22.0016L8.71194 21.314" fill="#F7D116"/>
<path d="M7.59399 23.0009L8.96932 22.0016L8.46971 21.314" fill="#F7D116"/>
<path d="M7.59399 23.0009L8.11932 21.3841L8.92772 21.6467" fill="#F7D116"/>
<path d="M23.1406 26.3544L24.516 27.3537L25.0156 26.666" fill="#F7D116"/>
<path d="M23.1406 26.3544H24.8406V27.2044" fill="#F7D116"/>
<path d="M24.7595 25.1796L24.2342 26.7964L25.0426 27.0591" fill="#F7D116"/>
<path d="M24.7595 25.1796L25.2849 26.7964L24.4765 27.0591" fill="#F7D116"/>
<path d="M26.375 26.3544H24.675V27.2044" fill="#F7D116"/>
<path d="M26.375 26.3544L24.9997 27.3537L24.5001 26.666" fill="#F7D116"/>
<path d="M25.7561 28.2554L25.2308 26.6386L24.4224 26.9012" fill="#F7D116"/>
<path d="M25.7561 28.2554L24.3808 27.2561L24.8804 26.5685" fill="#F7D116"/>
<path d="M23.76 28.2548L25.1353 27.2555L24.6357 26.5679" fill="#F7D116"/>
<path d="M23.76 28.2548L24.2853 26.638L25.0937 26.9006" fill="#F7D116"/>
</g>
<defs>
<clipPath id="clip0_1_4967">
<rect width="40" height="40" rx="20" fill="white"/>
</clipPath>
</defs>
</svg>
