<svg width="40" height="40" viewBox="0 0 40 40" fill="none" xmlns="http://www.w3.org/2000/svg">
<g clip-path="url(#clip0_1_15960)">
<path d="M0 0H60.0216V40H0V0Z" fill="white"/>
<path d="M0 0H60.0216V10H0V0Z" fill="#FFD100"/>
<path d="M0 20H60.0216V40H0V20Z" fill="#EF3340"/>
<path d="M0 30H60.0216V40H0V30Z" fill="#003DA5"/>
<path d="M33.3333 20L0 40V0L33.3333 20Z" fill="#009639"/>
<path d="M13.9092 10.899C11.6836 11.1666 9.63318 12.2405 8.14572 13.9175C6.65826 15.5945 5.83686 17.7585 5.83686 20.0001C5.83686 22.2418 6.65826 24.4057 8.14572 26.0827C9.63318 27.7598 11.6836 28.8336 13.9092 29.1012C12.5065 29.4901 11.033 29.5495 9.60356 29.2749C8.17414 29.0002 6.82756 28.3988 5.66895 27.5177C4.51034 26.6366 3.57106 25.4997 2.92445 24.1956C2.27785 22.8916 1.94141 21.4557 1.94141 20.0001C1.94141 18.5445 2.27785 17.1087 2.92445 15.8046C3.57106 14.5005 4.51034 13.3636 5.66895 12.4825C6.82756 11.6014 8.17414 11 9.60356 10.7254C11.033 10.4507 12.5065 10.5101 13.9092 10.899Z" fill="white"/>
<path d="M13.9114 11.9448L15.0547 15.4626L12.0625 13.2882H15.7614L12.7692 15.4626L13.9114 11.9448Z" fill="white"/>
<path d="M13.9114 16.1115L15.0547 19.6292L12.0625 17.4548H15.7614L12.7692 19.6292L13.9114 16.1115Z" fill="white"/>
<path d="M13.9114 20.2778L15.0547 23.7956L12.0625 21.6212H15.7614L12.7692 23.7956L13.9114 20.2778Z" fill="white"/>
<path d="M13.9114 24.4445L15.0547 27.9622L12.0625 25.7878H15.7614L12.7692 27.9622L13.9114 24.4445Z" fill="white"/>
</g>
<defs>
<clipPath id="clip0_1_15960">
<rect width="40" height="40" rx="20" fill="white"/>
</clipPath>
</defs>
</svg>
