<svg width="40" height="40" viewBox="0 0 40 40" fill="none" xmlns="http://www.w3.org/2000/svg">
<g clip-path="url(#clip0_1_5294)">
<rect width="40" height="40" rx="20" fill="white"/>
<path d="M42 5H-2V34.3333H42V5Z" fill="white"/>
<path d="M20.6393 29.7736C20.6329 29.7709 20.6271 29.7668 20.6224 29.7617L20.6163 29.7559C20.5891 29.7306 20.5633 29.7037 20.5389 29.6756C20.4738 29.6017 20.3864 29.4934 20.3096 29.3977C20.1573 29.2079 20.0315 29.0443 20.0078 29.0135L19.969 28.9631L19.5893 28.846L19.312 28.7167L19.4602 28.5502L19.969 28.768L20.3487 28.846L21.0509 29.3624L21.0504 29.3629C21.049 29.3641 20.9483 29.4478 20.8482 29.5389C20.8035 29.5795 20.7473 29.6318 20.7075 29.6749C20.6911 29.6925 20.6759 29.7111 20.6621 29.7307C20.6537 29.7446 20.6461 29.7589 20.6393 29.7737M18.0316 28.9905C17.689 28.9874 17.3534 28.8934 17.059 28.7183H17.0586V28.7179C17.0944 28.6582 17.1424 28.6066 17.1993 28.5664C17.2942 28.4967 17.4654 28.4135 17.742 28.4124H17.7477C18.0753 28.4124 18.4761 28.5238 18.9393 28.7434C18.6647 28.9066 18.3509 28.992 18.0316 28.9905ZM16.5957 28.6722C16.5372 28.6734 16.4809 28.6497 16.4408 28.6071C16.4061 28.5668 16.3822 28.5183 16.3713 28.4663C16.3557 28.3988 16.3499 28.3293 16.3542 28.2601C16.3783 28.2497 16.4042 28.2438 16.4305 28.2428H16.436C16.5588 28.2428 16.6555 28.3493 16.697 28.4549C16.7196 28.5016 16.7244 28.5548 16.7104 28.6048C16.6895 28.6484 16.6442 28.675 16.596 28.6718L16.5957 28.6722ZM19.1223 28.3794C18.2736 28.2582 17.9139 27.9514 17.7616 27.7153C17.6651 27.5721 17.6198 27.4006 17.6328 27.2284V27.2277H17.6334C17.6761 27.2179 17.7197 27.2131 17.7634 27.2134C17.9892 27.2134 18.5666 27.3269 19.1225 28.379L19.1228 28.3797L19.1219 28.3792L19.1223 28.3794ZM17.3828 28.2112C17.0203 28.2112 16.7443 28.1486 16.5624 28.0254C16.485 27.9759 16.4228 27.9061 16.3822 27.8238C16.3674 27.7925 16.3576 27.7591 16.3531 27.7249C16.4739 27.6759 16.6025 27.6486 16.7328 27.6442C16.7515 27.6433 16.7704 27.6428 16.7902 27.6427C17.0704 27.6427 17.4965 27.7341 17.9462 28.1697L17.9466 28.1702H17.9461C17.7593 28.196 17.571 28.2096 17.3824 28.2113L17.3828 28.2112ZM15.6272 28.1437C15.2449 28.1437 14.7197 28.027 14.3922 27.6995L14.3918 27.6991H14.3928C14.6418 27.6403 14.896 27.6065 15.1517 27.5983C15.1756 27.5977 15.1996 27.5974 15.2238 27.5974C15.5823 27.5974 15.8566 27.6669 16.0394 27.8039C16.0904 27.8346 16.1284 27.8831 16.1459 27.94C16.1499 27.982 16.1299 28.0226 16.0942 28.0451C16.0119 28.1072 15.8648 28.1404 15.6569 28.1437L15.6276 28.1447L15.6272 28.1437ZM14.3884 27.5082C14.3415 27.5083 14.297 27.4873 14.2672 27.4511C14.2396 27.4149 14.221 27.3727 14.213 27.3278C14.2006 27.2688 14.1958 27.2084 14.1988 27.1482V27.1473C14.2175 27.1387 14.2378 27.1341 14.2583 27.1339C14.3063 27.1356 14.3516 27.1559 14.3849 27.1905C14.4219 27.2268 14.4501 27.271 14.4674 27.3198C14.4847 27.3605 14.4878 27.4059 14.4762 27.4486C14.4619 27.4847 14.427 27.5082 14.3882 27.5078L14.3884 27.5082ZM17.2499 27.4436C17.1913 27.4448 17.135 27.4211 17.0949 27.3785C17.0602 27.3382 17.0363 27.2898 17.0254 27.2378C17.0097 27.1703 17.0039 27.1008 17.0082 27.0316C17.0324 27.0211 17.0583 27.0153 17.0846 27.0143H17.09C17.2128 27.0143 17.3096 27.1208 17.351 27.2263C17.3736 27.273 17.3784 27.3263 17.3644 27.3763C17.3436 27.4199 17.2983 27.4465 17.25 27.4433L17.2499 27.4436ZM15.856 27.386C15.0867 27.3589 14.6876 27.1402 14.4879 26.9615C14.4026 26.8867 14.3322 26.7963 14.2806 26.6952C14.2614 26.6572 14.2466 26.6172 14.2363 26.576L14.2373 26.5755C14.2989 26.5569 14.3629 26.5473 14.4272 26.5472H14.4452C14.7047 26.5472 15.2329 26.6562 15.8557 27.3858V27.3863L15.856 27.386ZM16.6916 27.3082C16.0726 27.214 15.7219 26.9483 15.5367 26.7418C15.4224 26.6191 15.3355 26.4735 15.2818 26.3147C15.3444 26.3003 15.4083 26.2926 15.4725 26.2917C15.4808 26.2917 15.4894 26.2914 15.4981 26.2914C15.5069 26.2914 15.516 26.2914 15.5252 26.2917C15.8365 26.2985 16.4019 26.4395 16.6914 27.3079H16.6919L16.6916 27.3082ZM13.5138 27.011C13.3168 27.0116 13.1204 26.9881 12.9291 26.941C12.605 26.8599 12.4659 26.7362 12.4064 26.6466C12.3807 26.6095 12.3636 26.5672 12.356 26.5227C12.3533 26.5054 12.3528 26.4878 12.3545 26.4703L12.356 26.4697C12.5234 26.4282 12.6951 26.4064 12.8676 26.4048C12.8792 26.4048 12.891 26.4045 12.903 26.4045C13.0436 26.4043 13.1838 26.4179 13.3217 26.4451C13.6344 26.5105 13.9131 26.6865 14.1065 26.9408V26.9413H14.1059C13.912 26.9887 13.7129 27.012 13.5133 27.0107L13.5138 27.011ZM14.9506 26.4888C14.8923 26.4904 14.836 26.4673 14.7955 26.4253C14.7608 26.3845 14.7369 26.3356 14.7261 26.2831C14.7104 26.2161 14.7047 26.1472 14.709 26.0785C14.7331 26.0681 14.759 26.0622 14.7853 26.0612H14.7908C14.9133 26.0612 15.0102 26.1677 15.0518 26.2733C15.074 26.3196 15.0782 26.3724 15.0637 26.4216C15.0438 26.4655 14.9988 26.4924 14.9508 26.4891L14.9506 26.4888ZM13.8702 26.3407C13.6644 26.2825 13.4677 26.1965 13.2851 26.0853C13.0141 25.9184 12.6825 25.6233 12.6421 25.1647H12.6428C12.6634 25.1603 12.6842 25.1578 12.7052 25.1572C12.7101 25.1572 12.7159 25.1569 12.7216 25.1569C12.8025 25.1569 12.9683 25.1797 13.1688 25.3321C13.424 25.5267 13.6596 25.866 13.8703 26.3416L13.8702 26.3407ZM14.5756 26.3148C14.4078 26.2385 14.2518 26.1384 14.1127 26.0174C13.7531 25.7079 13.4729 25.3168 13.2955 24.8768C13.3398 24.856 13.3877 24.8441 13.4366 24.8417C13.4415 24.8413 13.4464 24.8412 13.4515 24.8412C13.4589 24.8412 13.4664 24.8412 13.4742 24.8417C13.592 24.845 13.7716 24.894 13.9706 25.1088C14.1992 25.3555 14.4033 25.7609 14.5768 26.3139L14.5773 26.3155L14.5758 26.315L14.5756 26.3148ZM12.7477 26.2615C12.512 26.2615 12.4313 26.1337 12.4076 26.0787C12.3839 26.0214 12.3746 25.9591 12.3805 25.8974V25.8965C12.4189 25.8869 12.4583 25.8817 12.4978 25.8811H12.5059C12.66 25.8773 12.8067 25.947 12.9011 26.0689C12.9136 26.0874 12.9518 26.1517 12.9202 26.2019C12.8947 26.2415 12.8371 26.2616 12.7476 26.2616L12.7477 26.2615ZM12.2256 25.6029C12.043 25.6034 11.8607 25.5878 11.6809 25.5564C11.471 25.5182 11.352 25.3397 11.2891 25.1968C11.2469 25.099 11.2173 24.9963 11.2011 24.891H11.2017C11.8511 24.9101 12.1577 25.0998 12.3006 25.2556C12.3892 25.3477 12.4444 25.4669 12.4574 25.594H12.4569C12.456 25.594 12.3645 25.6028 12.2252 25.6028L12.2256 25.6029ZM12.9017 24.9273C12.9008 24.9262 12.8266 24.8344 12.7534 24.7206C12.6765 24.6011 12.6054 24.4761 12.6054 24.3743C12.6054 24.2757 12.5822 24.0679 12.5684 23.9529C12.5509 23.8069 12.5332 23.682 12.5317 23.6714H12.5323C12.5488 23.6774 12.9385 23.8237 12.9385 24.1892C12.9385 24.5548 12.9024 24.9232 12.9021 24.9269V24.9274H12.9016L12.9017 24.9273ZM12.3967 24.8926C12.3926 24.8926 12.3885 24.8922 12.3844 24.8916C12.2693 24.8723 12.0667 24.7843 11.8431 24.656C11.5946 24.5135 11.3929 24.3609 11.275 24.2262C11.1674 24.1034 11.1039 23.9105 11.0853 23.653C11.0771 23.5363 11.0786 23.4192 11.0896 23.3028C11.1103 23.2961 11.1321 23.2927 11.1539 23.293C11.2401 23.2944 11.3322 23.3332 11.4564 23.4188C11.5697 23.4994 11.6758 23.5896 11.7737 23.6884C11.898 23.8118 12.0155 23.9419 12.1257 24.0781L12.1273 24.08C12.1402 24.1033 12.2513 24.3035 12.3378 24.4984C12.3811 24.5881 12.4143 24.6824 12.4368 24.7793C12.4453 24.8078 12.4453 24.838 12.4368 24.8664C12.4332 24.8756 12.4265 24.8833 12.418 24.8883C12.4112 24.8913 12.4038 24.8928 12.3965 24.8927L12.3967 24.8926Z" fill="#4E5B31"/>
<path d="M19.3607 29.7736C19.3671 29.7709 19.3729 29.7668 19.3776 29.7617L19.3837 29.7559C19.4109 29.7306 19.4367 29.7037 19.4611 29.6756C19.5262 29.6017 19.6136 29.4934 19.6904 29.3977C19.8427 29.2079 19.9685 29.0443 19.9922 29.0135L20.031 28.9631L20.4107 28.846L20.688 28.7167L20.5398 28.5502L20.031 28.768L19.6513 28.846L18.9491 29.3624L18.9496 29.3629C18.951 29.3641 19.0517 29.4478 19.1518 29.5389C19.1965 29.5795 19.2527 29.6318 19.2925 29.6749C19.3089 29.6925 19.3241 29.7111 19.3379 29.7307C19.3463 29.7446 19.3539 29.7589 19.3607 29.7737M21.9684 28.9905C22.311 28.9874 22.6466 28.8934 22.941 28.7183H22.9414V28.7179C22.9056 28.6582 22.8576 28.6066 22.8007 28.5664C22.7058 28.4967 22.5346 28.4135 22.258 28.4124H22.2523C21.9247 28.4124 21.5239 28.5238 21.0607 28.7434C21.3353 28.9066 21.6491 28.992 21.9684 28.9905ZM23.4043 28.6722C23.4628 28.6734 23.5191 28.6497 23.5592 28.6071C23.5939 28.5668 23.6178 28.5183 23.6287 28.4663C23.6443 28.3988 23.6501 28.3293 23.6458 28.2601C23.6217 28.2497 23.5958 28.2438 23.5695 28.2428H23.564C23.4412 28.2428 23.3445 28.3493 23.303 28.4549C23.2804 28.5016 23.2756 28.5548 23.2896 28.6048C23.3105 28.6484 23.3558 28.675 23.404 28.6718L23.4043 28.6722ZM20.8777 28.3794C21.7264 28.2582 22.0861 27.9514 22.2384 27.7153C22.3349 27.5721 22.3802 27.4006 22.3672 27.2284V27.2277H22.3666C22.3239 27.2179 22.2803 27.2131 22.2366 27.2134C22.0108 27.2134 21.4334 27.3269 20.8775 28.379L20.8772 28.3797L20.8781 28.3792L20.8777 28.3794ZM22.6172 28.2112C22.9797 28.2112 23.2557 28.1486 23.4376 28.0254C23.515 27.9759 23.5772 27.9061 23.6178 27.8238C23.6326 27.7925 23.6424 27.7591 23.6469 27.7249C23.5261 27.6759 23.3975 27.6486 23.2672 27.6442C23.2485 27.6433 23.2296 27.6428 23.2098 27.6427C22.9296 27.6427 22.5035 27.7341 22.0538 28.1697L22.0534 28.1702H22.0539C22.2407 28.196 22.429 28.2096 22.6176 28.2113L22.6172 28.2112ZM24.3728 28.1437C24.7551 28.1437 25.2803 28.027 25.6078 27.6995L25.6082 27.6991H25.6072C25.3582 27.6403 25.104 27.6065 24.8483 27.5983C24.8244 27.5977 24.8004 27.5974 24.7762 27.5974C24.4177 27.5974 24.1434 27.6669 23.9606 27.8039C23.9096 27.8346 23.8716 27.8831 23.8541 27.94C23.8501 27.982 23.8701 28.0226 23.9058 28.0451C23.9881 28.1072 24.1352 28.1404 24.3431 28.1437L24.3724 28.1447L24.3728 28.1437ZM25.6116 27.5082C25.6585 27.5083 25.703 27.4873 25.7328 27.4511C25.7604 27.4149 25.779 27.3727 25.787 27.3278C25.7994 27.2688 25.8042 27.2084 25.8012 27.1482V27.1473C25.7825 27.1387 25.7622 27.1341 25.7417 27.1339C25.6937 27.1356 25.6484 27.1559 25.6151 27.1905C25.5781 27.2268 25.5499 27.271 25.5326 27.3198C25.5153 27.3605 25.5122 27.4059 25.5238 27.4486C25.5381 27.4847 25.573 27.5082 25.6118 27.5078L25.6116 27.5082ZM22.7501 27.4436C22.8087 27.4448 22.865 27.4211 22.9051 27.3785C22.9398 27.3382 22.9637 27.2898 22.9746 27.2378C22.9903 27.1703 22.9961 27.1008 22.9918 27.0316C22.9676 27.0211 22.9417 27.0153 22.9154 27.0143H22.91C22.7872 27.0143 22.6904 27.1208 22.649 27.2263C22.6264 27.273 22.6216 27.3263 22.6356 27.3763C22.6564 27.4199 22.7017 27.4465 22.75 27.4433L22.7501 27.4436ZM24.144 27.386C24.9133 27.3589 25.3124 27.1402 25.5121 26.9615C25.5974 26.8867 25.6678 26.7963 25.7194 26.6952C25.7386 26.6572 25.7534 26.6172 25.7637 26.576L25.7627 26.5755C25.7011 26.5569 25.6371 26.5473 25.5728 26.5472H25.5548C25.2953 26.5472 24.7671 26.6562 24.1443 27.3858V27.3863L24.144 27.386ZM23.3084 27.3082C23.9274 27.214 24.2781 26.9483 24.4633 26.7418C24.5776 26.6191 24.6645 26.4735 24.7182 26.3147C24.6556 26.3003 24.5917 26.2926 24.5275 26.2917C24.5192 26.2917 24.5106 26.2914 24.5019 26.2914C24.4931 26.2914 24.484 26.2914 24.4748 26.2917C24.1635 26.2985 23.5981 26.4395 23.3086 27.3079H23.3081L23.3084 27.3082ZM26.4862 27.011C26.6832 27.0116 26.8796 26.9881 27.0709 26.941C27.395 26.8599 27.5341 26.7362 27.5936 26.6466C27.6193 26.6095 27.6364 26.5672 27.644 26.5227C27.6467 26.5054 27.6472 26.4878 27.6455 26.4703L27.644 26.4697C27.4766 26.4282 27.3049 26.4064 27.1324 26.4048C27.1208 26.4048 27.109 26.4045 27.097 26.4045C26.9564 26.4043 26.8162 26.4179 26.6783 26.4451C26.3656 26.5105 26.0869 26.6865 25.8935 26.9408V26.9413H25.8941C26.088 26.9887 26.2871 27.012 26.4867 27.0107L26.4862 27.011ZM25.0494 26.4888C25.1077 26.4904 25.164 26.4673 25.2045 26.4253C25.2392 26.3845 25.2631 26.3356 25.2739 26.2831C25.2896 26.2161 25.2953 26.1472 25.291 26.0785C25.2669 26.0681 25.241 26.0622 25.2147 26.0612H25.2092C25.0867 26.0612 24.9898 26.1677 24.9482 26.2733C24.926 26.3196 24.9218 26.3724 24.9363 26.4216C24.9562 26.4655 25.0012 26.4924 25.0492 26.4891L25.0494 26.4888ZM26.1298 26.3407C26.3356 26.2825 26.5323 26.1965 26.7149 26.0853C26.9859 25.9184 27.3175 25.6233 27.3579 25.1647H27.3572C27.3366 25.1603 27.3158 25.1578 27.2948 25.1572C27.2899 25.1572 27.2841 25.1569 27.2784 25.1569C27.1975 25.1569 27.0317 25.1797 26.8312 25.3321C26.576 25.5267 26.3404 25.866 26.1297 26.3416L26.1298 26.3407ZM25.4244 26.3148C25.5922 26.2385 25.7482 26.1384 25.8873 26.0174C26.2469 25.7079 26.5271 25.3168 26.7045 24.8768C26.6602 24.856 26.6123 24.8441 26.5634 24.8417C26.5585 24.8413 26.5536 24.8412 26.5485 24.8412C26.5411 24.8412 26.5336 24.8412 26.5258 24.8417C26.408 24.845 26.2284 24.894 26.0294 25.1088C25.8008 25.3555 25.5967 25.7609 25.4232 26.3139L25.4227 26.3155L25.4242 26.315L25.4244 26.3148ZM27.2523 26.2615C27.488 26.2615 27.5687 26.1337 27.5924 26.0787C27.6161 26.0214 27.6254 25.9591 27.6195 25.8974V25.8965C27.5811 25.8869 27.5417 25.8817 27.5022 25.8811H27.4941C27.34 25.8773 27.1933 25.947 27.0989 26.0689C27.0864 26.0874 27.0482 26.1517 27.0798 26.2019C27.1053 26.2415 27.1629 26.2616 27.2524 26.2616L27.2523 26.2615ZM27.7744 25.6029C27.957 25.6034 28.1393 25.5878 28.3191 25.5564C28.529 25.5182 28.648 25.3397 28.7109 25.1968C28.7531 25.099 28.7827 24.9963 28.7989 24.891H28.7983C28.1489 24.9101 27.8423 25.0998 27.6994 25.2556C27.6108 25.3477 27.5556 25.4669 27.5426 25.594H27.5431C27.544 25.594 27.6355 25.6028 27.7748 25.6028L27.7744 25.6029ZM27.0983 24.9273C27.0992 24.9262 27.1734 24.8344 27.2466 24.7206C27.3235 24.6011 27.3946 24.4761 27.3946 24.3743C27.3946 24.2757 27.4178 24.0679 27.4316 23.9529C27.4491 23.8069 27.4668 23.682 27.4683 23.6714H27.4677C27.4512 23.6774 27.0615 23.8237 27.0615 24.1892C27.0615 24.5548 27.0976 24.9232 27.0979 24.9269V24.9274H27.0984L27.0983 24.9273ZM27.6033 24.8926C27.6074 24.8926 27.6115 24.8922 27.6156 24.8916C27.7307 24.8723 27.9333 24.7843 28.1569 24.656C28.4054 24.5135 28.6071 24.3609 28.725 24.2262C28.8326 24.1034 28.8961 23.9105 28.9147 23.653C28.9229 23.5363 28.9214 23.4192 28.9104 23.3028C28.8897 23.2961 28.8679 23.2927 28.8461 23.293C28.7599 23.2944 28.6678 23.3332 28.5436 23.4188C28.4303 23.4994 28.3242 23.5896 28.2263 23.6884C28.102 23.8118 27.9845 23.9419 27.8743 24.0781L27.8727 24.08C27.8598 24.1033 27.7487 24.3035 27.6622 24.4984C27.6189 24.5881 27.5857 24.6824 27.5632 24.7793C27.5547 24.8078 27.5547 24.838 27.5632 24.8664C27.5668 24.8756 27.5735 24.8833 27.582 24.8883C27.5888 24.8913 27.5962 24.8928 27.6035 24.8927L27.6033 24.8926Z" fill="#4E5B31"/>
<path d="M33.5484 10.083L33.4332 10.1289L33.3881 10.1469L33.2486 10.1392L33.1179 10.2019L32.8862 10.3603L32.876 10.3676L32.7896 10.3901L32.7093 10.3555L32.6638 10.3763L32.6481 10.4701L32.6047 10.5375L32.5513 10.575L32.3664 10.594L32.2104 10.6744L32.0075 10.6201L31.9133 10.657L31.7128 10.8375L31.6104 10.886L31.5746 10.8839L31.4388 10.8769L31.3815 10.8957L31.2958 10.9785L31.1338 10.9911L31.0833 11.026L31.0042 11.1854L30.9184 11.2738L30.8696 11.2842L30.8164 11.2646L30.7765 11.2717L30.7584 11.3736L30.7196 11.4164L30.6111 11.4537L30.5245 11.5259L30.4484 11.565L30.3465 11.5625H30.3231L30.2216 11.6185L30.0309 11.6352L29.9515 11.711L29.934 11.7272L29.897 11.7496L29.8363 11.7857L29.8217 11.7947L29.7483 11.7817L29.6628 11.8156L29.6282 11.7623L29.569 11.7979L29.4907 11.8012L29.393 11.7578L29.3186 11.7246L29.2641 11.7325L29.2452 11.8273L29.2433 11.8374L29.1861 11.9135L29.0793 11.9782L29.0647 11.9971L28.9432 12.154L28.7123 12.3967L28.5171 12.4959L28.3148 12.5574L28.173 12.6738L27.8014 12.858L27.215 13.15L27.0951 13.1884L26.923 13.2159L26.6161 13.3289L26.3453 13.4106L26.3302 13.4152L26.2764 13.4314L25.8946 13.547L25.7169 13.5282L25.6117 13.5664L25.3376 13.536L25.147 13.5398L25.0264 13.5648L24.7997 13.6736L24.417 13.8575L24.2906 13.9732L24.0937 14.0758L23.8632 14.1488L23.8637 14.052L23.8624 14.0479L23.7824 14.0731L23.7246 14.0914L23.5376 14.1202H23.4336L23.369 14.1014L23.3593 14.1048L22.977 14.2304L22.5508 14.2716L22.3375 14.34L22.1781 14.3375L22.0785 14.3671L21.8829 14.391L21.8131 14.3724L21.7973 14.3681L21.2229 14.393L20.9603 14.3633L20.8349 14.3918L20.6247 14.3212L20.3182 14.2856L20.2466 14.2642L20.0853 14.2163L20.0124 14.2583L19.9578 14.2642L19.8274 14.2169L19.7805 14.2157L19.6729 14.2548L19.611 14.2389L19.5534 14.1931L19.4185 14.173L19.3362 14.1038L18.8767 14.1648L18.752 14.1281L18.3338 14.0063L18.2672 14.0096L18.1841 14.0718L18.0595 14.1172L17.9514 14.1453L17.8042 14.1502L17.633 14.1053L17.4567 14.0199L17.3916 14.0044L17.2462 14.019L17.2017 14.023L16.9345 13.8797L16.5902 13.6646L16.3566 13.5521L16.2689 13.5379L16.2571 13.5796L16.3006 13.7165L16.3153 13.8521L16.3108 13.9774L16.3084 14.055L16.3302 14.1247L16.4146 14.2181L16.4497 14.312L16.4754 14.5703L16.4752 14.8325L16.4341 15.2505L16.4203 15.3141L16.3714 15.5307L16.3267 15.7296L16.1534 16.2592L16.1058 16.3249L15.9889 16.4046L15.7239 16.5849L15.5289 16.6974L15.4671 16.7229L15.3088 16.7349L15.2101 16.73L15.0872 16.6635L14.9666 16.6324L14.8086 16.5188L14.6326 16.4824L14.44 16.3711L14.3898 16.3108L14.2849 16.301L14.1394 16.2574V16.2571L14.086 16.2411L14.049 16.2304L13.8633 16.2255L13.6902 16.1456L13.5991 16.1236L13.4746 16.1173L13.3442 16.1779L13.2782 16.2086L13.1947 16.1755L13.1343 16.1792L13.0659 16.2826L13.0575 16.2984L13.0104 16.3234L12.9517 16.3225L12.9058 16.3213L12.8561 16.343L12.7892 16.372L12.7302 16.3978L12.7013 16.4102L12.7008 16.4097L12.6831 16.4133L12.6516 16.4188L12.6124 16.4263L12.5435 16.386L12.5068 16.3644L12.4454 16.3519L12.4123 16.3758L12.4058 16.4882L12.3756 16.5556L12.2797 16.6403L12.1823 16.7261L12.1144 16.8262L11.9346 17.2364L11.8222 17.4019L11.7872 17.4405L11.669 17.5705L11.5646 17.6515L11.324 17.838L11.0962 17.9231L10.9 17.9632L10.8046 17.9636L10.6237 17.9396L10.4613 17.8897L10.2828 17.7781L10.0873 17.6209L9.80402 17.341L9.76393 17.3169L9.75557 17.3113L9.66635 17.2543L9.60015 17.256L9.57424 17.2987L9.56007 17.3605L9.54809 17.4152L9.51562 17.7265L9.51802 17.7446L9.53508 17.8727L9.75019 18.1734L9.81659 18.3331L9.82749 18.3514L9.87188 18.4259L9.90566 18.4828L9.90903 18.4885L9.98237 18.708L9.93069 18.8318L9.9568 18.915L9.89148 18.9656L9.87951 19.0373L10.0727 19.2794L10.1148 19.3862L10.0677 19.5343L9.99263 19.616L9.97166 19.6384L9.98222 19.7009L10.0711 19.7809L10.2221 19.9153L10.3026 20.1151L10.3639 20.1689L10.4351 20.1537L10.4747 20.1839L10.5347 20.1829L10.5938 20.2419L10.632 20.2605L10.6924 20.2906L10.7402 20.3528L10.7508 20.544L10.8398 20.7816L10.8412 20.9104L10.8417 20.9287L10.8971 21.0239L10.9145 21.0991L10.8852 21.298L10.9558 21.3619L11.0325 21.3462L11.0819 21.3541L11.1614 21.4203L11.2577 21.5669L11.3518 21.5531L11.4116 21.5819L11.7 21.8427L11.7655 21.8758L11.7691 21.8778L11.8162 21.9014L11.8749 21.9605L11.9656 21.9003L11.9757 21.8992L12.0743 21.8905L12.1176 21.9199L12.2008 21.976L12.31 21.9746L12.5468 22.0472L12.6504 22.0738L12.8587 22.2032L12.9472 22.258L12.9996 22.3006L13.0693 22.3573L13.2083 22.4172L13.3276 22.4457L13.3923 22.4611L13.4412 22.4798L13.4424 22.4768H13.4431L13.4419 22.4799L13.7002 22.5788L13.8401 22.6114L13.9696 22.6591L14.0638 22.6933L14.1329 22.6945L14.2307 22.6122L14.3254 22.6067L14.4041 22.6263L14.4808 22.6134L14.6023 22.5386L14.626 22.5034L14.7122 22.4624L15.0028 22.4263L15.0877 22.4539L15.3057 22.3591L15.4518 22.3997L15.5811 22.3538L15.8637 22.4166L15.9387 22.4695L16.0227 22.5655L16.033 22.566L16.1264 22.5678L16.0873 22.6329L16.2107 22.7623L16.3221 22.9307L16.3296 22.9529L16.4106 23.1907L16.4709 23.275L16.513 23.3925L16.515 23.4692L16.4495 23.5192L16.4388 23.5477L16.4351 23.5582L16.4484 23.5902L16.4731 23.5768L16.5202 23.5507L16.5775 23.5418L16.6785 23.5526L16.7452 23.5595L16.8505 23.5073L16.9202 23.4726L17.0323 23.5208L17.1555 23.5195L17.2073 23.5425L17.3539 23.6089L17.4287 23.6159L17.4563 23.5978L17.4739 23.5559L17.4649 23.507L17.4086 23.4426L17.2849 23.2989L17.2342 23.2251L17.1956 23.1182L17.1837 22.9815L17.1752 22.8894L17.1905 22.7683L17.2238 22.7251L17.2482 22.6288H17.2487L17.255 22.6037L17.3237 22.5124L17.5058 22.3954L17.7013 22.2203L17.8559 22.1184L18.0153 22.0494L18.0196 22.0298L18.0373 22.0369L18.4427 21.8991L18.4494 21.8983L18.6299 21.8669L19.8482 21.9527L19.8934 21.9391V21.9388L19.9339 21.8249L19.9558 21.8037L19.9705 21.79L20.1044 21.731L20.167 21.7221L20.3409 21.765L20.4121 21.7825L20.5261 21.7186L20.6069 21.72L20.774 21.6288L20.8772 21.6314L20.9163 21.6157L21.1174 21.4712L21.311 21.4157L21.3614 21.3889L21.3791 21.3791L21.5776 21.2743L21.7037 21.1775L21.8125 21.1196L21.9317 21.0889L22.2436 21.0669L22.3063 20.9624L22.4405 20.9445L22.5215 20.8531L22.6144 20.8154L22.6808 20.7197L22.7365 20.6395L22.8143 20.5944L23.0636 20.5788L23.3592 20.6154L23.3983 20.5917L23.465 20.3534L23.535 20.3086L23.7232 20.0343L23.7239 19.9343V19.8508L23.7548 19.7319L23.7338 19.5172L23.7587 19.2999L23.8758 19.0236L23.9789 18.9122L24.1451 18.7998L24.2296 18.763L24.3493 18.7428V18.7429L24.3669 18.7399L24.3975 18.7346L24.8097 18.729C24.8155 18.7247 24.9597 18.7269 24.9597 18.7269L25.0972 18.7251L25.445 18.7869L25.4698 18.7912L25.5871 18.8292L25.7227 18.9347L25.8664 19.075L25.8933 19.1011L25.9862 19.1402L26.0143 19.1525L26.0911 19.1402L26.2005 19.0833L26.283 19.0135L26.3954 18.9521L26.3982 18.9481L26.4615 18.8529L26.4634 18.851L26.4648 18.8513V18.8508H26.4637L26.4887 18.8129L26.7061 18.7281L26.9618 18.7135L26.9905 18.6979L27.0065 18.6894L27.0741 18.61L27.1374 18.6095L27.2906 18.665L27.3982 18.6436L27.4838 18.6778L27.5502 18.6699L27.6756 18.6553L27.8103 18.75L27.8888 18.7597L28.1654 18.9216L28.1797 18.9239L28.1872 18.9253L28.203 18.9279L28.2358 18.9181L28.2847 18.904L28.2912 18.9021L28.2973 18.9107L28.3288 18.955L28.3719 18.9612L28.4229 18.893L28.4026 18.8622L28.395 18.8509L28.2961 18.8308L28.2074 18.6793L28.2919 18.5883L28.1594 18.4257L28.1374 18.3987L28.1299 18.3873L28.0841 18.3177L27.852 17.964L27.5498 17.7227L27.444 17.6381L27.4433 17.6376L27.4062 17.6082L27.2449 17.4441L27.1296 17.2911L27.1145 17.2581L27.0907 17.2062L27.0216 17.0557L26.9013 16.9628L26.8032 16.8557L26.7983 16.8494L26.5959 16.5743L26.5626 16.5282L26.5148 16.5006L26.4138 16.4999L26.404 16.4902L26.3984 16.4842L26.4018 16.4806L26.4502 16.4325L26.5043 16.4189L26.5275 16.3656L26.4245 16.0674L26.4238 16.057L26.4161 15.9617L26.5001 15.5288L26.5109 15.476L26.654 15.1847L26.7427 15.1121L26.8395 14.9218L26.9226 14.8002L27.0021 14.7228L27.0159 14.7146L27.1594 14.6278L27.2799 14.6108L27.3947 14.5946L27.5951 14.6564L27.7858 14.6527L27.823 14.6488L27.9095 14.639L28.0518 14.5942L28.119 14.5527L28.1539 14.4993L28.2266 14.2554L28.2499 14.1779L28.2948 14.0936L28.5542 13.795L28.7503 13.6136L29.1912 13.2903L29.407 13.1613L29.5172 13.0954L30.5012 12.6581L30.7569 12.3989L30.8901 12.2641L31.1258 12.106L31.4016 11.993L31.6389 11.8051L31.6907 11.7399L31.756 11.5297L31.8104 11.5165L31.8593 11.4103L31.8733 11.38L32.0669 11.2436L32.0889 11.2327L32.8412 10.8557L32.9505 10.8707L33.0091 10.7831L33.228 10.7464L33.2683 10.7395L33.3221 10.7126L33.368 10.6343V10.6189L33.3743 10.41L33.421 10.3535L33.4465 10.2159L33.4705 10.1841L33.4956 10.151L33.5576 10.1075L33.5468 10.0815L33.5484 10.083Z" fill="#D57800"/>
</g>
<defs>
<clipPath id="clip0_1_5294">
<rect width="40" height="40" rx="20" fill="white"/>
</clipPath>
</defs>
</svg>
