<svg width="40" height="40" viewBox="0 0 40 40" fill="none" xmlns="http://www.w3.org/2000/svg">
<g clip-path="url(#clip0_1_10163)">
<path d="M-10 -0.00012207H50.1451V39.9999H-10V-0.00012207Z" fill="#006B3F"/>
<path d="M-10 14.9999H50.1451V19.9999H-10V14.9999ZM16.3135 -0.00012207H20.0726V39.9999H16.3135V-0.00012207Z" fill="#FCD116"/>
<path d="M-10 19.9999H50.167V24.9999H-10V19.9999ZM20.0835 -0.00012207H23.844V39.9999H20.0835V-0.00012207Z" fill="white"/>
<path d="M18.4062 40.0117V-0.0133057H21.7396V40.0117H18.4062Z" fill="black"/>
<path d="M21.7402 40.0116V-0.0134277H25.0736V40.0116H21.7402Z" fill="white"/>
<path d="M-10 18.3332H50.1497V21.6665H-10V18.3332ZM18.8217 -0.00012207H21.3279V39.9999H18.8217V-0.00012207Z" fill="black"/>
<path d="M15.0742 40.0117V-0.0133057H18.4076V40.0117H15.0742Z" fill="#FFD42A"/>
<path d="M20.0312 29.974C25.5541 29.974 30.0312 25.4968 30.0312 19.974C30.0312 14.4512 25.5541 9.974 20.0312 9.974C14.5084 9.974 10.0312 14.4512 10.0312 19.974C10.0312 25.4968 14.5084 29.974 20.0312 29.974Z" fill="#D41C30"/>
<path d="M20.0172 11.1538L20.33 12.116H21.3411L20.5228 12.7105L20.8356 13.6721L20.0172 13.0777L19.1989 13.6721L19.5117 12.7105L18.6934 12.116H19.7045L20.0172 11.1538Z" fill="#006B3F" stroke="black" stroke-width="0.0666667"/>
<path d="M25.2449 12.8519L24.9323 13.8142L25.7503 14.4085L24.7389 14.4084L24.4267 15.3703L24.114 14.4084L23.1026 14.4083L23.9209 13.8141L23.6082 12.8522L24.4263 13.4465L25.2449 12.8519Z" fill="#006B3F" stroke="black" stroke-width="0.0666667"/>
<path d="M28.4736 17.2982L27.6551 17.893L27.9675 18.8546L27.1493 18.26L26.3314 18.8546L26.6438 17.8927L25.8256 17.2981L26.8369 17.2984L27.1493 16.3364L27.4618 17.298L28.4736 17.2982Z" fill="#006B3F" stroke="black" stroke-width="0.0666667"/>
<path d="M28.4737 22.7942L27.4619 22.7944L27.1495 23.756L26.837 22.794L25.8258 22.7943L26.644 22.1997L26.3315 21.2378L27.1495 21.8324L27.9677 21.2378L27.6552 22.1994L28.4737 22.7942Z" fill="#006B3F" stroke="black" stroke-width="0.0666667"/>
<path d="M25.2434 27.2401L24.4248 26.6455L23.6068 27.2398L23.9194 26.2779L23.1011 25.6837L24.1126 25.6836L24.4252 24.7217L24.7374 25.6835L25.7489 25.6835L24.9309 26.2778L25.2434 27.2401Z" fill="#006B3F" stroke="black" stroke-width="0.0666667"/>
<path d="M20.014 28.938L19.7012 27.9758H18.6901L19.5084 27.3813L19.1957 26.4197L20.014 27.0141L20.8323 26.4197L20.5196 27.3813L21.3379 27.9758H20.3268L20.014 28.938Z" fill="#006B3F" stroke="black" stroke-width="0.0666667"/>
<path d="M14.7864 27.2399L15.0989 26.2776L14.2809 25.6833L15.2924 25.6834L15.6046 24.7215L15.9172 25.6834L16.9287 25.6835L16.1104 26.2777L16.423 27.2396L15.605 26.6453L14.7864 27.2399Z" fill="#006B3F" stroke="black" stroke-width="0.0666667"/>
<path d="M11.5577 22.7936L12.3762 22.1988L12.0637 21.2371L12.8819 21.8317L13.6999 21.2371L13.3874 22.1991L14.2056 22.7937L13.1944 22.7934L12.8819 23.7553L12.5695 22.7937L11.5577 22.7936Z" fill="#006B3F" stroke="black" stroke-width="0.0666667"/>
<path d="M11.5575 17.2975L12.5693 17.2974L12.8818 16.3358L13.1942 17.2978L14.2055 17.2975L13.3873 17.8921L13.6997 18.854L12.8818 18.2594L12.0636 18.854L12.376 17.8924L11.5575 17.2975Z" fill="#006B3F" stroke="black" stroke-width="0.0666667"/>
<path d="M14.7878 12.8517L15.6065 13.4463L16.4245 12.852L16.1118 13.8139L16.9301 14.4081L15.9187 14.4082L15.606 15.3701L15.2938 14.4082L14.2824 14.4083L15.1004 13.814L14.7878 12.8517Z" fill="#006B3F" stroke="black" stroke-width="0.0666667"/>
<path d="M20.7896 22.7319C20.903 24.3541 21.2629 25.6505 21.5935 25.6273C21.9241 25.6042 22.1001 24.2704 21.9866 22.6482C21.8732 21.026 21.5133 19.7297 21.1827 19.7528C20.8521 19.7759 20.6761 21.1097 20.7896 22.7319Z" fill="#006B3F" stroke="black" stroke-width="0.0388889"/>
<path d="M21.3403 22.7268C21.4537 24.349 21.8285 25.6443 22.1774 25.6199C22.5264 25.5955 22.7173 24.2607 22.6038 22.6384C22.4904 21.0162 22.1156 19.721 21.7666 19.7454C21.4177 19.7698 21.2268 21.1046 21.3403 22.7268Z" fill="#006B3F" stroke="black" stroke-width="0.0388889"/>
<path d="M21.195 22.8763C21.3204 24.6699 21.6479 26.1081 21.9264 26.0886C22.205 26.0691 22.3291 24.5993 22.2037 22.8057C22.0782 21.0121 21.7508 19.5739 21.4722 19.5934C21.1937 19.6128 21.0696 21.0826 21.195 22.8763Z" fill="#006B3F" stroke="black" stroke-width="0.0388889"/>
<path d="M22.4553 24.8681C21.5608 24.9625 17.6497 25.007 17.4831 24.8847C17.3164 24.7625 17.0664 24.2459 17.0664 24.2181C17.5775 24.1959 17.3553 23.9236 17.6164 23.7792C17.872 23.6292 18.2386 23.7292 18.3497 23.907C18.4609 24.0903 18.372 24.2681 18.5109 24.2736C18.6553 24.2736 21.4331 24.1403 22.4553 24.2125C22.622 24.2236 22.7497 24.3736 22.7497 24.5403C22.7497 24.707 22.622 24.8514 22.4553 24.8681Z" fill="#9C4A00" stroke="black" stroke-width="0.0388889"/>
<path d="M19.789 24.5905C19.7834 24.9794 20.3501 24.8683 20.3612 25.1905C20.3445 25.5294 19.4056 25.2128 19.3945 24.585C19.4334 23.9628 20.3501 23.6572 20.3612 24.0128C20.3723 24.3072 19.8001 24.2072 19.789 24.5905Z" fill="#FCD116" stroke="black" stroke-width="0.0388889"/>
<path d="M20.121 24.5905C20.1155 24.9794 20.6821 24.8683 20.6932 25.1905C20.6766 25.5294 19.7377 25.2128 19.7266 24.585C19.7655 23.9628 20.6821 23.6572 20.6932 24.0128C20.7043 24.3072 20.1321 24.2072 20.121 24.5905Z" fill="#FCD116" stroke="black" stroke-width="0.0388889"/>
<path d="M20.4823 24.5905C20.4768 24.9794 21.0434 24.8683 21.0546 25.1905C21.0379 25.5294 20.099 25.2128 20.0879 24.585C20.1268 23.9628 21.0434 23.6572 21.0546 24.0128C21.0657 24.3072 20.4934 24.2072 20.4823 24.5905Z" fill="#FCD116" stroke="black" stroke-width="0.0388889"/>
<path d="M20.8222 24.5905C20.8166 24.9794 21.3833 24.8683 21.3944 25.1905C21.3777 25.5294 20.4388 25.2128 20.4277 24.585C20.4666 23.9628 21.3833 23.6572 21.3944 24.0128C21.4055 24.3072 20.8333 24.2072 20.8222 24.5905Z" fill="#FCD116" stroke="black" stroke-width="0.0388889"/>
<path d="M20.2716 23.8212C20.39 24.1007 20.5773 24.1539 20.6899 23.94C20.8025 23.726 20.7977 23.326 20.6793 23.0465C20.5609 22.7669 20.3736 22.7138 20.261 22.9277C20.1484 23.1416 20.1531 23.5416 20.2716 23.8212Z" fill="#006B3F" stroke="black" stroke-width="0.0546742"/>
<path d="M19.7794 23.786C19.8978 24.0655 20.0851 24.1187 20.1977 23.9048C20.3103 23.6909 20.3055 23.2908 20.1871 23.0113C20.0687 22.7318 19.8814 22.6786 19.7688 22.8925C19.6562 23.1065 19.661 23.5065 19.7794 23.786Z" fill="#006B3F" stroke="black" stroke-width="0.0546742"/>
<path d="M19.4298 23.1508C19.5482 23.4303 19.7355 23.4835 19.8481 23.2695C19.9607 23.0556 19.9559 22.6556 19.8375 22.3761C19.7191 22.0965 19.5318 22.0434 19.4192 22.2573C19.3066 22.4712 19.3113 22.8712 19.4298 23.1508Z" fill="#006B3F" stroke="black" stroke-width="0.0546742"/>
<path d="M19.8898 22.9942C19.9756 23.3541 20.1528 23.5307 20.2854 23.3888C20.4181 23.2469 20.4561 22.8401 20.3703 22.4802C20.2844 22.1203 20.1073 21.9437 19.9746 22.0856C19.8419 22.2276 19.8039 22.6343 19.8898 22.9942Z" fill="#006B3F" stroke="black" stroke-width="0.0526804"/>
<path d="M19.7367 22.4925C19.8328 22.8146 20.0126 22.9394 20.1383 22.7712C20.2639 22.6029 20.2878 22.2054 20.1917 21.8833C20.0955 21.5612 19.9157 21.4365 19.7901 21.6047C19.6644 21.7729 19.6405 22.1704 19.7367 22.4925Z" fill="#006B3F" stroke="black" stroke-width="0.0536929"/>
<path d="M19.2992 22.2982C19.3953 22.6203 19.5751 22.745 19.7008 22.5768C19.8264 22.4086 19.8503 22.0111 19.7542 21.689C19.658 21.3669 19.4782 21.2421 19.3526 21.4104C19.2269 21.5786 19.203 21.9761 19.2992 22.2982Z" fill="#006B3F" stroke="black" stroke-width="0.0536929"/>
<path d="M19.0337 16.5347C19.0337 16.5347 18.0559 17.3791 18.167 19.6736C18.2892 21.9847 20.3281 23.068 20.3281 23.068H20.6503V16.5347H19.0337Z" fill="#9461C9" stroke="black" stroke-width="0.0388889"/>
<path d="M21.0241 24.0282C21.139 24.2367 21.3257 24.1745 21.4411 23.8894C21.5565 23.6042 21.5569 23.2041 21.4421 22.9956C21.3272 22.7872 21.1406 22.8493 21.0252 23.1345C20.9097 23.4196 20.9093 23.8198 21.0241 24.0282Z" fill="#006B3F" stroke="black" stroke-width="0.054609"/>
<path d="M20.5495 23.9071C20.6644 24.1156 20.8511 24.0534 20.9665 23.7683C21.0819 23.4831 21.0823 23.083 20.9675 22.8745C20.8526 22.6661 20.666 22.7282 20.5506 23.0134C20.4351 23.2985 20.4347 23.6987 20.5495 23.9071Z" fill="#006B3F" stroke="black" stroke-width="0.054609"/>
<path d="M20.3152 23.2289C20.43 23.4374 20.6167 23.3752 20.7321 23.0901C20.8475 22.8049 20.848 22.4048 20.7331 22.1963C20.6183 21.9878 20.4316 22.05 20.3162 22.3352C20.2008 22.6203 20.2003 23.0204 20.3152 23.2289Z" fill="#006B3F" stroke="black" stroke-width="0.054609"/>
<path d="M20.8787 23.4275C21.0167 23.5583 21.1917 23.366 21.2694 22.9979C21.3472 22.6299 21.2983 22.2255 21.1602 22.0947C21.0221 21.9639 20.8471 22.1563 20.7694 22.5243C20.6917 22.8923 20.7406 23.2967 20.8787 23.4275Z" fill="#006B3F" stroke="black" stroke-width="0.0521"/>
<path d="M21.5508 23.4946C21.6797 23.6515 21.8569 23.5109 21.9466 23.1806C22.0363 22.8502 22.0045 22.4552 21.8757 22.2983C21.7468 22.1414 21.5696 22.282 21.4799 22.6123C21.3902 22.9427 21.422 23.3377 21.5508 23.4946Z" fill="#006B3F" stroke="black" stroke-width="0.0532841"/>
<path d="M21.2227 23.1987C21.3516 23.3556 21.5288 23.2151 21.6185 22.8847C21.7082 22.5543 21.6764 22.1593 21.5475 22.0024C21.4187 21.8455 21.2415 21.9861 21.1518 22.3164C21.0621 22.6468 21.0938 23.0418 21.2227 23.1987Z" fill="#006B3F" stroke="black" stroke-width="0.0532841"/>
<path d="M20.8106 22.7895C20.9395 22.9465 21.1167 22.8059 21.2064 22.4755C21.2961 22.1452 21.2643 21.7501 21.1354 21.5932C21.0066 21.4363 20.8294 21.5769 20.7397 21.9072C20.65 22.2376 20.6817 22.6326 20.8106 22.7895Z" fill="#006B3F" stroke="black" stroke-width="0.0532841"/>
<path d="M20.4102 22.5205C20.5391 22.6774 20.7163 22.5368 20.806 22.2065C20.8957 21.8761 20.8639 21.4811 20.735 21.3242C20.6062 21.1673 20.429 21.3078 20.3393 21.6382C20.2496 21.9686 20.2813 22.3636 20.4102 22.5205Z" fill="#006B3F" stroke="black" stroke-width="0.0532841"/>
<path d="M20.3517 20.8027C20.9096 22.0857 21.6995 22.9791 22.1159 22.798C22.5323 22.617 22.4177 21.43 21.8598 20.1469C21.3019 18.8639 20.512 17.9705 20.0956 18.1516C19.6791 18.3327 19.7938 19.5196 20.3517 20.8027Z" fill="#D41C30" stroke="black" stroke-width="0.0222222"/>
<path d="M20.4067 17.6092C20.5946 17.6092 20.747 17.476 20.747 17.3117C20.747 17.1474 20.5946 17.0142 20.4067 17.0142C20.2188 17.0142 20.0664 17.1474 20.0664 17.3117C20.0664 17.476 20.2188 17.6092 20.4067 17.6092Z" fill="#006B3F" stroke="black" stroke-width="0.0400857"/>
<path d="M20.3637 17.2361C20.5516 17.2361 20.704 17.1029 20.704 16.9386C20.704 16.7743 20.5516 16.6411 20.3637 16.6411C20.1758 16.6411 20.0234 16.7743 20.0234 16.9386C20.0234 17.1029 20.1758 17.2361 20.3637 17.2361Z" fill="#006B3F" stroke="black" stroke-width="0.0400857"/>
<path d="M19.8917 17.7036C20.0681 17.7036 20.2112 17.5619 20.2112 17.3872C20.2112 17.2125 20.0681 17.0708 19.8917 17.0708C19.7153 17.0708 19.5723 17.2125 19.5723 17.3872C19.5723 17.5619 19.7153 17.7036 19.8917 17.7036Z" fill="#006B3F" stroke="black" stroke-width="0.0400857"/>
<path d="M19.9891 17.2927C20.1655 17.2927 20.3086 17.1532 20.3086 16.981C20.3086 16.8089 20.1655 16.6694 19.9891 16.6694C19.8127 16.6694 19.6697 16.8089 19.6697 16.981C19.6697 17.1532 19.8127 17.2927 19.9891 17.2927Z" fill="#006B3F" stroke="black" stroke-width="0.0400857"/>
<path d="M19.4607 17.3071C19.6602 17.3071 19.8218 17.1654 19.8218 16.9907C19.8218 16.816 19.6602 16.6743 19.4607 16.6743C19.2613 16.6743 19.0996 16.816 19.0996 16.9907C19.0996 17.1654 19.2613 17.3071 19.4607 17.3071Z" fill="#006B3F" stroke="black" stroke-width="0.0400857"/>
<path d="M20.1215 16.7639C20.3095 16.7639 20.4618 16.6307 20.4618 16.4664C20.4618 16.3021 20.3095 16.1689 20.1215 16.1689C19.9336 16.1689 19.7812 16.3021 19.7812 16.4664C19.7812 16.6307 19.9336 16.7639 20.1215 16.7639Z" fill="#006B3F" stroke="black" stroke-width="0.0400857"/>
<path d="M19.6691 16.8348C19.8455 16.8348 19.9885 16.6952 19.9885 16.5231C19.9885 16.351 19.8455 16.2114 19.6691 16.2114C19.4926 16.2114 19.3496 16.351 19.3496 16.5231C19.3496 16.6952 19.4926 16.8348 19.6691 16.8348Z" fill="#006B3F" stroke="black" stroke-width="0.0400857"/>
<path d="M18.9894 17.326C19.1658 17.326 19.3088 17.1843 19.3088 17.0096C19.3088 16.8348 19.1658 16.6932 18.9894 16.6932C18.8129 16.6932 18.6699 16.8348 18.6699 17.0096C18.6699 17.1843 18.8129 17.326 18.9894 17.326Z" fill="#006B3F" stroke="black" stroke-width="0.0400857"/>
<path d="M19.1007 17.0848C19.2771 17.0848 19.4201 16.9452 19.4201 16.7731C19.4201 16.601 19.2771 16.4614 19.1007 16.4614C18.9243 16.4614 18.7812 16.601 18.7812 16.7731C18.7812 16.9452 18.9243 17.0848 19.1007 17.0848Z" fill="#006B3F" stroke="black" stroke-width="0.0400857"/>
<path d="M19.2335 16.8206C19.4099 16.8206 19.553 16.6811 19.553 16.5089C19.553 16.3368 19.4099 16.1973 19.2335 16.1973C19.0571 16.1973 18.9141 16.3368 18.9141 16.5089C18.9141 16.6811 19.0571 16.8206 19.2335 16.8206Z" fill="#006B3F" stroke="black" stroke-width="0.0400857"/>
<path d="M20.3901 20.5069C21.0624 22.0313 22.0353 23.0783 22.5631 22.8455C23.0909 22.6128 22.9737 21.1883 22.3013 19.6639C21.629 18.1396 20.6561 17.0925 20.1284 17.3253C19.6006 17.5581 19.7178 18.9825 20.3901 20.5069Z" fill="#006B3F" stroke="black" stroke-width="0.0388889"/>
<path d="M22.0263 20.6481C22.1675 20.9682 22.3638 21.1915 22.4649 21.1469C22.5659 21.1023 22.5334 20.8067 22.3923 20.4867C22.2511 20.1667 22.0548 19.9434 21.9537 19.9879C21.8527 20.0325 21.8852 20.3281 22.0263 20.6481Z" fill="#006B3F" stroke="black" stroke-width="0.0388889"/>
<path d="M22.1164 20.5684C22.9664 21.6073 22.8609 22.2684 22.772 22.8239L21.5664 21.5295V20.2295L22.1164 20.5684Z" fill="#006B3F" stroke="black" stroke-width="0.0388889"/>
<path d="M22.1887 21.4073C23.0443 22.4462 22.9387 23.1073 22.8498 23.6629L21.2109 21.124V19.4185C21.3387 19.7518 21.3387 20.3685 22.1887 21.4073Z" fill="#006B3F" stroke="black" stroke-width="0.0388889"/>
<path d="M22.2172 22.0848C23.0894 23.1015 22.995 23.7682 22.9172 24.3293C22.6394 23.6904 22.4839 23.2848 21.6061 22.2626C20.7339 21.2404 21.145 20.5015 21.195 20.1182C21.3339 20.4459 21.345 21.0626 22.2172 22.0848Z" fill="#006B3F" stroke="black" stroke-width="0.0388889"/>
<path d="M21.2764 19.7401C21.5384 20.3018 21.8995 20.6878 22.083 20.6022C22.2666 20.5166 22.203 19.9919 21.9411 19.4302C21.6791 18.8684 21.318 18.4825 21.1345 18.568C20.951 18.6536 21.0145 19.1784 21.2764 19.7401Z" fill="#006B3F" stroke="black" stroke-width="0.0388889"/>
<path d="M20.9758 20.2952C21.1853 20.7594 21.4867 21.0763 21.6489 21.0031C21.8111 20.9299 21.7727 20.4942 21.5631 20.03C21.3535 19.5658 21.0521 19.2488 20.8899 19.3221C20.7277 19.3953 20.7662 19.831 20.9758 20.2952Z" fill="#006B3F" stroke="black" stroke-width="0.0388889"/>
<path d="M20.5681 20.6857C20.7687 21.1538 21.064 21.4765 21.2276 21.4064C21.3911 21.3363 21.3611 20.9 21.1604 20.4318C20.9598 19.9637 20.6645 19.641 20.501 19.7111C20.3374 19.7812 20.3674 20.2175 20.5681 20.6857Z" fill="#006B3F" stroke="black" stroke-width="0.0388889"/>
<path d="M20.9737 19.254C21.1566 19.598 21.406 19.8232 21.5306 19.757C21.6552 19.6907 21.6079 19.3581 21.425 19.014C21.2421 18.67 20.9927 18.4448 20.8681 18.511C20.7435 18.5773 20.7908 18.9099 20.9737 19.254Z" fill="#006B3F" stroke="black" stroke-width="0.0388889"/>
<path d="M20.6231 19.5021C20.7841 19.8569 21.0188 20.0973 21.1473 20.039C21.2759 19.9807 21.2496 19.6458 21.0886 19.2909C20.9276 18.9361 20.6929 18.6956 20.5644 18.7539C20.4359 18.8123 20.4622 19.1472 20.6231 19.5021Z" fill="#006B3F" stroke="black" stroke-width="0.0388889"/>
<path d="M22.4545 24.2122C22.3676 24.2122 22.2842 24.2467 22.2227 24.3082C22.1612 24.3696 22.1267 24.453 22.1267 24.5399C22.1267 24.6269 22.1612 24.7102 22.2227 24.7717C22.2842 24.8332 22.3676 24.8677 22.4545 24.8677" stroke="black" stroke-width="0.0388889" stroke-linecap="round"/>
<path d="M20.1326 19.2347C20.1926 19.3815 20.258 19.5237 20.3249 19.6533C20.3918 19.7828 20.459 19.8972 20.5226 19.9899C20.5862 20.0826 20.645 20.1517 20.6956 20.1934C20.7463 20.235 20.7877 20.2484 20.8176 20.2327C20.8475 20.217 20.8653 20.1726 20.87 20.1019C20.8746 20.0313 20.8661 19.9358 20.8448 19.821C20.8234 19.7061 20.7898 19.5741 20.7458 19.4326C20.7017 19.291 20.6482 19.1426 20.5881 18.9958" fill="#006B3F"/>
<path d="M20.1326 19.2347C20.1926 19.3815 20.258 19.5237 20.3249 19.6533C20.3918 19.7828 20.459 19.8972 20.5226 19.9899C20.5862 20.0826 20.645 20.1517 20.6956 20.1934C20.7463 20.235 20.7877 20.2484 20.8176 20.2327C20.8475 20.217 20.8653 20.1726 20.87 20.1019C20.8746 20.0313 20.8661 19.9358 20.8448 19.821C20.8234 19.7061 20.7898 19.5741 20.7458 19.4326C20.7017 19.291 20.6482 19.1426 20.5881 18.9958" stroke="black" stroke-width="0.0388889" stroke-linecap="round"/>
<path d="M20.5816 18.7768C20.7426 19.1316 20.9773 19.372 21.1058 19.3137C21.2344 19.2554 21.2081 18.9205 21.0471 18.5656C20.8861 18.2108 20.6514 17.9704 20.5229 18.0287C20.3944 18.087 20.4206 18.4219 20.5816 18.7768Z" fill="#006B3F" stroke="black" stroke-width="0.0388889" stroke-linecap="round"/>
<path d="M20.1556 18.9763C20.3091 19.3345 20.5387 19.5797 20.6684 19.5241C20.7981 19.4685 20.7789 19.1331 20.6254 18.775C20.4719 18.4168 20.2422 18.1715 20.1125 18.2271C19.9828 18.2827 20.0021 18.6182 20.1556 18.9763Z" fill="#006B3F" stroke="black" stroke-width="0.0388889" stroke-linecap="round"/>
<path d="M19.8491 18.3845C19.9079 18.4838 19.9699 18.5791 20.0317 18.6651C20.0935 18.7511 20.1538 18.826 20.2093 18.8856C20.2648 18.9452 20.3143 18.9883 20.3549 19.0125C20.3956 19.0367 20.4267 19.0414 20.4464 19.0265C20.4661 19.0115 20.474 18.9771 20.4697 18.9253C20.4655 18.8735 20.449 18.8053 20.4214 18.7245C20.3938 18.6438 20.3556 18.5521 20.3089 18.4546C20.2621 18.3572 20.2079 18.256 20.1491 18.1567" fill="#006B3F"/>
<path d="M19.8491 18.3845C19.9079 18.4838 19.9699 18.5791 20.0317 18.6651C20.0935 18.7511 20.1538 18.826 20.2093 18.8856C20.2648 18.9452 20.3143 18.9883 20.3549 19.0125C20.3956 19.0367 20.4267 19.0414 20.4464 19.0265C20.4661 19.0115 20.474 18.9771 20.4697 18.9253C20.4655 18.8735 20.449 18.8053 20.4214 18.7245C20.3938 18.6438 20.3556 18.5521 20.3089 18.4546C20.2621 18.3572 20.2079 18.256 20.1491 18.1567" stroke="black" stroke-width="0.0388889" stroke-linecap="round"/>
<path d="M20.0212 18.1067C20.0738 18.1993 20.1305 18.2896 20.1881 18.3723C20.2457 18.4549 20.3031 18.5284 20.357 18.5885C20.4109 18.6487 20.4603 18.6942 20.5023 18.7226C20.5443 18.751 20.5781 18.7616 20.6018 18.754C20.6255 18.7463 20.6387 18.7205 20.6405 18.6779C20.6423 18.6354 20.6327 18.577 20.6123 18.506C20.5919 18.4351 20.5611 18.353 20.5217 18.2645C20.4822 18.1759 20.4349 18.0827 20.3824 17.99" fill="#006B3F"/>
<path d="M20.0212 18.1067C20.0738 18.1993 20.1305 18.2896 20.1881 18.3723C20.2457 18.4549 20.3031 18.5284 20.357 18.5885C20.4109 18.6487 20.4603 18.6942 20.5023 18.7226C20.5443 18.751 20.5781 18.7616 20.6018 18.754C20.6255 18.7463 20.6387 18.7205 20.6405 18.6779C20.6423 18.6354 20.6327 18.577 20.6123 18.506C20.5919 18.4351 20.5611 18.353 20.5217 18.2645C20.4822 18.1759 20.4349 18.0827 20.3824 17.99" stroke="black" stroke-width="0.0388889" stroke-linecap="round"/>
<path d="M20.6658 18.2513C20.7471 18.3867 20.833 18.5168 20.9186 18.6341C21.0042 18.7514 21.0878 18.8537 21.1646 18.935C21.2415 19.0163 21.3101 19.0752 21.3665 19.1081C21.4229 19.1411 21.466 19.1475 21.4933 19.1271C21.5207 19.1067 21.5318 19.0598 21.5259 18.989C21.5201 18.9183 21.4974 18.8252 21.4593 18.715C21.4211 18.6048 21.3682 18.4796 21.3035 18.3467C21.2389 18.2137 21.1638 18.0756 21.0824 17.9402" fill="#006B3F"/>
<path d="M20.6658 18.2513C20.7471 18.3867 20.833 18.5168 20.9186 18.6341C21.0042 18.7514 21.0878 18.8537 21.1646 18.935C21.2415 19.0163 21.3101 19.0752 21.3665 19.1081C21.4229 19.1411 21.466 19.1475 21.4933 19.1271C21.5207 19.1067 21.5318 19.0598 21.5259 18.989C21.5201 18.9183 21.4974 18.8252 21.4593 18.715C21.4211 18.6048 21.3682 18.4796 21.3035 18.3467C21.2389 18.2137 21.1638 18.0756 21.0824 17.9402" stroke="black" stroke-width="0.0388889" stroke-linecap="round"/>
<path d="M20.2827 17.8901C20.3389 17.998 20.3992 18.1026 20.46 18.1973C20.5208 18.2921 20.5807 18.375 20.6362 18.4412C20.6917 18.5073 20.7415 18.5552 20.7826 18.5819C20.8237 18.6086 20.8553 18.6137 20.8754 18.5966C20.8954 18.5796 20.9035 18.5409 20.8993 18.4829C20.895 18.4249 20.8784 18.3488 20.8505 18.2592C20.8226 18.1697 20.7839 18.0686 20.7369 17.9622C20.6899 17.8557 20.6356 17.7461 20.5772 17.6401" fill="#006B3F"/>
<path d="M20.2827 17.8901C20.3389 17.998 20.3992 18.1026 20.46 18.1973C20.5208 18.2921 20.5807 18.375 20.6362 18.4412C20.6917 18.5073 20.7415 18.5552 20.7826 18.5819C20.8237 18.6086 20.8553 18.6137 20.8754 18.5966C20.8954 18.5796 20.9035 18.5409 20.8993 18.4829C20.895 18.4249 20.8784 18.3488 20.8505 18.2592C20.8226 18.1697 20.7839 18.0686 20.7369 17.9622C20.6899 17.8557 20.6356 17.7461 20.5772 17.6401" stroke="black" stroke-width="0.0388889" stroke-linecap="round"/>
<path d="M20.5543 16.9738C20.3932 17.1405 20.5598 17.4405 20.7043 17.5627C20.8765 17.7071 21.821 18.7127 22.4876 17.8738C21.9543 17.8627 20.9543 16.6071 20.5543 16.9738Z" fill="#9461C9" stroke="black" stroke-width="0.0388889"/>
<path d="M20.4391 16.4792C20.2779 16.6459 20.4446 16.9459 20.5891 17.0681C20.7613 17.2125 21.7057 18.2181 22.3724 17.3792C21.8391 17.3681 20.8391 16.1125 20.4391 16.4792Z" fill="#9461C9" stroke="black" stroke-width="0.0388889"/>
<path d="M20.2887 16.0071C20.1276 16.1738 20.2942 16.4738 20.4387 16.596C20.6109 16.7405 21.5553 17.746 22.222 16.9071C21.6887 16.896 20.6887 15.6405 20.2887 16.0071Z" fill="#9461C9" stroke="black" stroke-width="0.0388889"/>
<path d="M19.9603 15.4681C19.7992 15.6348 19.9658 15.9348 20.1103 16.057C20.2825 16.2015 21.227 17.207 21.8936 16.3681C21.3603 16.357 20.3603 15.1015 19.9603 15.4681Z" fill="#9461C9" stroke="black" stroke-width="0.0388889"/>
<path d="M18.7991 14.9514C19.138 14.6959 19.7602 14.6236 20.2435 14.8681C20.6491 15.0681 21.3213 15.8736 21.8269 16.0681C21.4713 16.1292 21.2547 16.0736 21.0269 15.9681C20.5769 16.2903 20.4158 16.3403 19.9602 16.407C19.3213 16.4959 18.7935 16.3292 18.6047 16.0014C18.4158 15.6847 18.4991 15.1847 18.7991 14.9514Z" fill="#9461C9" stroke="black" stroke-width="0.0388889"/>
<path d="M19.5163 15.6244C19.6795 15.6244 19.8118 15.5478 19.8118 15.4533C19.8118 15.3588 19.6795 15.2822 19.5163 15.2822C19.353 15.2822 19.2207 15.3588 19.2207 15.4533C19.2207 15.5478 19.353 15.6244 19.5163 15.6244Z" fill="#D41C30" stroke="black" stroke-width="0.038498"/>
<path d="M19.5015 15.5309C19.5573 15.5309 19.6026 15.4909 19.6026 15.4415C19.6026 15.3921 19.5573 15.3521 19.5015 15.3521C19.4457 15.3521 19.4004 15.3921 19.4004 15.4415C19.4004 15.4909 19.4457 15.5309 19.5015 15.5309Z" fill="black"/>
<path d="M18.2471 16.2765C18.2952 16.4059 18.5044 16.4475 18.7143 16.3695C18.9243 16.2914 19.0554 16.1232 19.0073 15.9938C18.9592 15.8644 18.75 15.8228 18.54 15.9008C18.3301 15.9789 18.1989 16.1471 18.2471 16.2765Z" fill="#FCD116" stroke="black" stroke-width="0.0388889"/>
<path d="M18.8723 15.6796C18.9001 15.8074 18.8056 15.9852 18.5945 16.0463C18.3834 16.1352 18.2223 16.3352 18.1278 16.6629C17.8056 15.9185 18.0112 15.6018 18.3556 15.524C18.6501 15.4296 18.8278 15.4407 18.8723 15.6796Z" fill="#FCD116" stroke="black" stroke-width="0.0388889"/>
<path d="M18.5607 15.9183C18.6006 15.9183 18.633 15.886 18.633 15.8461C18.633 15.8062 18.6006 15.7739 18.5607 15.7739C18.5209 15.7739 18.4885 15.8062 18.4885 15.8461C18.4885 15.886 18.5209 15.9183 18.5607 15.9183Z" fill="black"/>
</g>
<defs>
<clipPath id="clip0_1_10163">
<rect width="40" height="40" rx="20" fill="white"/>
</clipPath>
</defs>
</svg>
