<svg width="40" height="40" viewBox="0 0 40 40" fill="none" xmlns="http://www.w3.org/2000/svg">
<g clip-path="url(#clip0_1_15642)">
<path d="M-10 0H50V40H-10V0Z" fill="black"/>
<path d="M-10 0H50V26.6667H-10V0Z" fill="white"/>
<path d="M-10 0H50V13.3333H-10V0Z" fill="#CE1126"/>
<path d="M20.0543 20.1602L24.6201 24.3988L24.2951 16.7008C24.2473 15.5342 23.2335 15.8018 22.497 16.2227C21.751 16.7008 20.8998 16.7008 20.0006 16.3851C19.1016 16.7008 18.2504 16.7008 17.5044 16.2227C16.768 15.8019 15.7542 15.5341 15.7064 16.7008L15.3811 24.3988L20.0543 20.1602Z" fill="white" stroke="#C09300" stroke-width="0.0846906" stroke-linejoin="round"/>
<path d="M16.2324 16.4329L15.9168 23.9209L15.3811 24.3988L15.7064 16.7008C15.8593 16.5956 16.1272 16.4329 16.2324 16.4329ZM16.8737 16.9689L16.6059 23.2326L16.0704 23.7806L16.3956 16.5479C16.5008 16.6531 16.8165 16.9113 16.8737 16.9686V16.9689ZM17.457 17.4469L17.2467 22.671L16.8164 23.0917L17.0842 17.1313C17.1892 17.2365 17.3996 17.3896 17.457 17.4469ZM18.0884 17.7149L17.878 22.1674L17.4571 22.5087L17.6675 17.5524C17.7728 17.6002 17.9832 17.7149 18.0884 17.7149ZM18.6717 17.7149L18.5186 21.4254L18.0882 21.8462L18.2509 17.7628C18.3559 17.7628 18.6238 17.7628 18.6717 17.7149Z" fill="#C09300"/>
<path d="M23.7703 16.4329L24.0859 23.9209L24.6216 24.3988L24.2963 16.7008C24.1434 16.5956 23.8754 16.4329 23.7703 16.4329ZM23.129 16.9689L23.3968 23.2326L23.9322 23.7806L23.6071 16.5479C23.5018 16.6531 23.1862 16.9113 23.129 16.9686V16.9689ZM22.5457 17.4469L22.756 22.671L23.1863 23.0917L22.9185 17.1313C22.8135 17.2365 22.6031 17.3896 22.5457 17.4469ZM21.9143 17.7149L22.1247 22.1674L22.5456 22.5087L22.3352 17.5524C22.2299 17.6002 22.0195 17.7149 21.9143 17.7149ZM21.331 17.7149L21.4841 21.4254L21.9145 21.8462L21.7518 17.7628C21.6468 17.7628 21.3789 17.7628 21.331 17.7149Z" fill="#C09300"/>
<path d="M20.2101 21.004L20.851 23.9211L20.6404 24.1314L20.4205 23.9688L20.057 21.3676L20.2101 23.9688L19.9996 24.2365L19.7892 23.9688L19.9423 21.3676L19.5789 23.9688L19.3587 24.1314L19.1484 23.9211L19.7892 21.004L20.2101 21.004Z" fill="#C09300" stroke="#C09300" stroke-width="0.0715907"/>
<path d="M18.5672 19.7227L17.2952 24.2363L19.0455 24.5042L19.7914 21.1093L18.5672 19.7227L18.5672 19.7227Z" fill="white" stroke="#C09300" stroke-width="0.0792673" stroke-linejoin="round"/>
<path d="M18.1467 21.2627L18.2998 21.6356L19.1268 20.8457" stroke="#C09300" stroke-width="0.0846595" stroke-linejoin="round"/>
<path d="M18.7208 20.3281L18.8939 21.9512L19.4199 21.2626M19.2095 21.5301L19.4968 22.5218M19.6095 22.1574L19.0283 23.0402M19.2096 23.9212L19.0236 23.0414L18.8612 22.1465L18.4718 22.6738L18.3011 22.0659L17.7561 22.6248L18.0333 23.6416L18.4158 23.0126L18.6261 23.6534L19.0188 23.0426" stroke="#C09300" stroke-width="0.0846595" stroke-linejoin="round"/>
<path d="M17.6685 24.1314L18.0218 23.6351L18.252 24.3989L18.5676 23.8634L18.7781 24.5044" stroke="#C09300" stroke-width="0.0846595" stroke-linejoin="round"/>
<path d="M21.4372 19.7232L22.7092 24.2368L20.9589 24.5047L20.213 21.1097L21.4372 19.7231L21.4372 19.7232Z" fill="white" stroke="#C09300" stroke-width="0.0792673" stroke-linejoin="round"/>
<path d="M21.8577 21.2632L21.7046 21.6361L20.8776 20.8462" stroke="#C09300" stroke-width="0.0846595" stroke-linejoin="round"/>
<path d="M21.2835 20.3286L21.1105 21.9517L20.5845 21.2631M20.7949 21.5306L20.5075 22.5223M20.3949 22.1579L20.9761 23.0407M20.7948 23.9217L20.9808 23.0419L21.1432 22.147L21.5326 22.6743L21.7033 22.0663L22.2483 22.6253L21.9711 23.6421L21.5886 23.0131L21.3782 23.6539L20.9856 23.0431" stroke="#C09300" stroke-width="0.0846595" stroke-linejoin="round"/>
<path d="M22.3359 24.1319L21.9826 23.6356L21.7524 24.3994L21.4368 23.8639L21.2263 24.5048" stroke="#C09300" stroke-width="0.0846595" stroke-linejoin="round"/>
<path d="M20.0031 26.2538C21.3326 26.2538 22.6047 26.1486 23.3506 25.9382C23.6663 25.881 23.6663 25.7184 23.6663 25.5078C23.982 25.4027 23.8193 25.0298 24.0392 25.0298C23.8193 25.0873 23.7715 24.6569 23.5037 24.7144C23.5037 24.3413 23.1307 24.2935 22.815 24.3985C22.1837 24.609 21.0647 24.6569 20.003 24.6569C18.9414 24.609 17.8319 24.609 17.1911 24.3985C16.8755 24.2935 16.5026 24.3413 16.5026 24.7144C16.2348 24.6569 16.187 25.0873 15.967 25.0298C16.187 25.0298 16.0243 25.4027 16.34 25.5078C16.34 25.7184 16.34 25.881 16.6652 25.9382C17.4015 26.1486 18.6737 26.2538 20.0031 26.2538Z" fill="white" stroke="#C09300" stroke-width="0.158535" stroke-linecap="round" stroke-linejoin="round"/>
<path d="M18.193 24.2359C18.6233 24.2934 19.1015 24.3411 19.4746 24.2934C19.6849 24.2934 19.8379 24.6567 19.4171 24.7142C19.0443 24.7619 18.4608 24.7142 18.1451 24.6567C17.8773 24.6089 17.2939 24.5037 16.9209 24.3984C16.5479 24.236 16.8158 23.9205 17.026 23.9682C17.3513 24.0734 17.7721 24.1786 18.193 24.236L18.193 24.2359ZM21.8083 24.2359C21.3778 24.2934 20.8998 24.3411 20.5362 24.2934C20.3162 24.2934 20.1632 24.6567 20.584 24.7142C20.9571 24.7619 21.5405 24.7142 21.8559 24.6567C22.1238 24.6089 22.7072 24.5037 23.0802 24.3984C23.4533 24.236 23.1855 23.9205 22.975 23.9682C22.6498 24.0734 22.229 24.1786 21.8083 24.2359Z" fill="white" stroke="#C09300" stroke-width="0.0846595" stroke-linecap="round" stroke-linejoin="round"/>
<path d="M16.8768 24.026C16.5516 23.9685 16.3986 24.3414 16.5039 24.5517C16.5517 24.4466 16.7717 24.4466 16.8196 24.3414C16.8768 24.1789 16.7717 24.1789 16.8768 24.026ZM18.1488 25.004C18.1488 24.7938 18.3591 24.8196 18.3591 24.6092C18.3591 24.504 18.3018 24.3414 18.1966 24.3414C18.0914 24.3414 17.9861 24.4465 17.9861 24.5517C17.9382 24.7622 18.1488 24.7938 18.1488 25.004ZM19.6628 24.3986C19.9781 24.3986 19.9469 24.8196 19.7938 25.0299C19.7938 24.8769 19.526 24.8196 19.526 24.7145C19.526 24.5517 19.7678 24.5517 19.6628 24.3986ZM23.1314 24.026C23.4566 23.9685 23.6097 24.3414 23.5044 24.5517C23.4566 24.4466 23.2366 24.4466 23.1888 24.3414C23.1314 24.1789 23.2367 24.1789 23.1314 24.026ZM21.8594 25.004C21.8594 24.7938 21.6492 24.8196 21.6492 24.6092C21.6492 24.504 21.7065 24.3414 21.8117 24.3414C21.9169 24.3414 22.0222 24.4465 22.0222 24.5517C22.07 24.7622 21.8594 24.7938 21.8594 25.004ZM20.3454 24.3986C20.0299 24.3986 20.0612 24.8196 20.2143 25.0299C20.2143 24.8769 20.482 24.8196 20.482 24.7145C20.482 24.5517 20.2402 24.5517 20.3454 24.3986Z" fill="white" stroke="#C09300" stroke-width="0.0846595" stroke-linecap="round" stroke-linejoin="round"/>
<path d="M16.983 24.1312C17.0883 24.1312 17.2508 24.1791 17.2987 24.2364L16.9827 24.131L16.983 24.1312ZM17.5083 24.2939C17.5658 24.2939 17.7762 24.3417 17.8814 24.3989L17.508 24.2936L17.5083 24.2939ZM19.4216 24.5039C19.3165 24.5039 19.106 24.5039 19.0488 24.5516L19.4215 24.5036L19.4216 24.5039ZM18.8383 24.5039C18.7811 24.4464 18.5705 24.4464 18.4654 24.5039H18.8381H18.8383ZM23.0276 24.1312C22.9225 24.1312 22.7693 24.1791 22.7119 24.2364L23.0276 24.1312ZM22.5016 24.2939C22.4443 24.2939 22.2338 24.3417 22.1286 24.3989L22.5019 24.2936L22.5016 24.2939ZM20.5883 24.5039C20.6936 24.5039 20.904 24.5039 20.9613 24.5516L20.588 24.5036L20.5883 24.5039ZM21.1716 24.5039C21.229 24.4464 21.4395 24.4464 21.5447 24.5039H21.1713H21.1716Z" fill="white" stroke="#C09300" stroke-width="0.0593922" stroke-linecap="round" stroke-linejoin="round"/>
<path d="M16.8913 24.9718C16.8557 24.965 16.837 24.9369 16.846 24.9035C16.8569 24.8629 16.8894 24.8397 16.9201 24.8506C16.9397 24.8575 16.9755 24.8935 16.9756 24.9065C16.9758 24.9213 16.9569 24.9567 16.9488 24.9567C16.9453 24.9568 16.9398 24.9598 16.9367 24.9635C16.93 24.9714 16.9091 24.9752 16.8913 24.9718V24.9718ZM20.5533 25.2332C20.5401 25.2283 20.519 25.1986 20.519 25.1849C20.5191 25.1591 20.5573 25.1171 20.5809 25.1168C20.5926 25.1168 20.6246 25.1334 20.6365 25.1458C20.6582 25.1683 20.6535 25.2053 20.6262 25.2263C20.6128 25.2367 20.5729 25.2404 20.5533 25.2332L20.5533 25.2332ZM20.5773 25.3985C20.5493 25.389 20.5391 25.3753 20.5368 25.3443C20.5344 25.3119 20.5375 25.3069 20.5717 25.2882L20.5961 25.2749L20.6192 25.2852C20.6512 25.2995 20.6654 25.3149 20.6666 25.3364C20.6678 25.3596 20.6506 25.3833 20.6239 25.3953C20.6005 25.4058 20.5991 25.4058 20.5773 25.3985V25.3985Z" fill="#C09300"/>
<path d="M17.1837 24.6724C17.1606 24.6717 17.129 24.6929 17.1108 24.7036C17.0675 24.7138 17.0172 24.7404 16.9754 24.712C16.9342 24.6992 16.8795 24.7093 16.8733 24.7599C16.8839 24.8033 16.9447 24.8282 16.9816 24.7995C17.009 24.7636 17.0837 24.7426 17.092 24.8036C17.0616 24.8498 17.065 24.9109 17.04 24.9599C17.0359 24.9904 17.0232 25.0194 17.0066 25.0453C16.9758 25.0484 16.943 25.0448 16.9171 25.064C16.8753 25.0663 16.8327 25.0871 16.8087 25.1224C16.7818 25.1609 16.7561 25.2001 16.7483 25.2474C16.7554 25.2957 16.8108 25.3096 16.8525 25.312C16.8969 25.3242 16.9414 25.3402 16.9858 25.3536C17.0581 25.3698 17.1259 25.396 17.1983 25.412C17.3039 25.4438 17.4148 25.4585 17.5212 25.487C17.5324 25.4907 17.5428 25.4939 17.5545 25.4953C17.5987 25.5045 17.6217 25.4564 17.6254 25.4203C17.6473 25.343 17.664 25.2644 17.6858 25.187C17.7008 25.1559 17.7189 25.0858 17.6587 25.1016C17.6244 25.1221 17.5953 25.1531 17.5525 25.1557C17.4942 25.1591 17.5274 25.2187 17.5504 25.2432C17.5554 25.2824 17.5431 25.3291 17.517 25.3599C17.4824 25.3819 17.4389 25.3562 17.4025 25.3474C17.3642 25.348 17.2876 25.3285 17.3233 25.2765C17.336 25.2381 17.3371 25.196 17.3525 25.1578C17.372 25.1168 17.3748 25.0721 17.3837 25.0286C17.3596 24.9768 17.3185 25.0457 17.2858 25.0515C17.2633 25.0672 17.1788 25.0738 17.2233 25.114C17.2616 25.1432 17.2322 25.1938 17.2254 25.2307C17.2229 25.2821 17.1695 25.2943 17.1275 25.2828C17.0856 25.2808 17.0274 25.2496 17.0629 25.2036C17.071 25.1653 17.0843 25.1276 17.092 25.089C17.1079 25.0425 17.1212 24.9982 17.1379 24.9515C17.1451 24.9102 17.1599 24.871 17.1795 24.8349C17.1807 24.7892 17.2114 24.7499 17.2108 24.7036C17.2077 24.681 17.1976 24.6728 17.1837 24.6724ZM16.9441 25.1557C16.9496 25.1548 16.9535 25.1556 16.9587 25.1578C16.9754 25.1649 16.9759 25.1784 16.9587 25.1932C16.9512 25.1997 16.9427 25.2059 16.94 25.2057C16.9088 25.203 16.8996 25.1984 16.8983 25.187C16.8971 25.1769 16.9003 25.174 16.9212 25.164C16.9316 25.1591 16.9387 25.1567 16.9441 25.1557ZM16.875 25.4904C16.842 25.4593 16.8473 25.4366 16.8962 25.4002C16.9171 25.3846 16.9298 25.3863 16.9537 25.4082C16.9906 25.4418 16.992 25.463 16.9595 25.4918C16.9435 25.506 16.9364 25.509 16.9177 25.5092C16.8982 25.5094 16.8926 25.5069 16.875 25.4904ZM17.0784 25.5517C17.0708 25.5499 17.0636 25.5465 17.0573 25.5419C17.0511 25.5372 17.0458 25.5312 17.042 25.5244C17.0381 25.5176 17.0356 25.5101 17.0347 25.5023C17.0339 25.4946 17.0346 25.4867 17.0369 25.4792C17.0454 25.4502 17.0504 25.4474 17.0929 25.447C17.1406 25.4465 17.1498 25.4545 17.1503 25.4964C17.1505 25.52 17.1487 25.5255 17.1369 25.5364C17.1231 25.5493 17.0966 25.5562 17.0784 25.5517V25.5517ZM23.019 25.557C23.0039 25.5445 23.0009 25.5388 23.0007 25.5227C23.0005 25.4954 23.0163 25.4753 23.0504 25.4598C23.0959 25.4392 23.1144 25.442 23.1315 25.4722C23.1543 25.5123 23.1532 25.5286 23.1259 25.5556C23.1109 25.5706 23.1081 25.5714 23.0736 25.5718C23.0398 25.572 23.0359 25.5711 23.019 25.557ZM17.3484 25.6337C17.3241 25.6272 17.3116 25.609 17.3112 25.5799C17.311 25.5577 17.3126 25.5541 17.3281 25.5419C17.3382 25.5341 17.3541 25.5273 17.3667 25.5256C17.3845 25.5231 17.391 25.5247 17.4053 25.5347C17.442 25.5605 17.4498 25.5861 17.4286 25.6108C17.4059 25.6372 17.3845 25.6433 17.3484 25.6337ZM18.8097 25.699C18.8043 25.6923 18.7924 25.6884 18.7912 25.6799C18.7933 25.6429 18.7951 25.6055 18.8069 25.57C18.8133 25.5352 18.8077 25.4987 18.8199 25.4648C18.8323 25.403 18.8323 25.3393 18.8467 25.2779C18.8473 25.2463 18.8503 25.2146 18.8595 25.1842C18.87 25.1361 18.8604 25.0858 18.8746 25.0382C18.873 25.0204 18.8936 24.9727 18.9117 25.0009C18.9379 25.0394 18.9724 25.0706 19.0064 25.1019C19.0356 25.1188 19.0088 25.1436 18.9886 25.1519C18.9609 25.1628 18.9542 25.1933 18.9562 25.2201C18.9523 25.2477 18.9412 25.2739 18.9401 25.3021C18.9342 25.3436 18.9354 25.3857 18.93 25.4272C18.9178 25.4678 18.9225 25.5112 18.9184 25.553C18.9189 25.5796 18.9063 25.6037 18.9081 25.6304C18.9048 25.6574 18.9036 25.69 18.8809 25.7085C18.859 25.7196 18.8273 25.7177 18.8097 25.699H18.8097ZM20.7897 25.0457C20.7576 25.07 20.7288 25.0987 20.7001 25.127C20.6606 25.1569 20.7326 25.1743 20.7418 25.1999C20.7523 25.239 20.7517 25.2806 20.7543 25.3207C20.7662 25.3575 20.7715 25.3966 20.7689 25.4353C20.7654 25.4768 20.7113 25.4681 20.6876 25.4916C20.6548 25.5054 20.6418 25.5376 20.6168 25.5603C20.6004 25.5925 20.596 25.6321 20.5939 25.6686C20.5962 25.6985 20.5737 25.7319 20.5939 25.7582C20.5965 25.7619 20.5996 25.767 20.6022 25.7707C20.609 25.7804 20.6251 25.7727 20.6355 25.7749C20.6691 25.773 20.7041 25.778 20.7355 25.7645C20.8162 25.7505 20.8976 25.7494 20.9793 25.7457C21.0292 25.7473 21.0773 25.7299 21.1272 25.7311C21.1663 25.7398 21.1839 25.6974 21.1835 25.6666C21.1613 25.623 21.1805 25.5713 21.1626 25.527C21.147 25.4821 21.1531 25.4318 21.146 25.3853C21.145 25.3487 21.0986 25.3352 21.0751 25.3624C21.0524 25.3854 21.0156 25.39 20.998 25.4186C20.9783 25.4588 21.0399 25.4588 21.0501 25.4895C21.0619 25.5204 21.058 25.5548 21.0605 25.5874C21.0681 25.6269 21.0253 25.6291 20.998 25.6332C20.9623 25.6466 20.912 25.6556 20.8918 25.6124C20.8791 25.5804 20.8808 25.5462 20.8772 25.5124C20.8763 25.4529 20.862 25.3945 20.8585 25.3353C20.855 25.2622 20.8424 25.1895 20.8376 25.1166C20.837 25.0862 20.8329 25.0367 20.7897 25.0457V25.0457ZM20.748 25.5957L20.7689 25.5978L20.771 25.6228L20.773 25.6478L20.746 25.6561C20.7316 25.6604 20.7191 25.6624 20.7189 25.6624C20.7146 25.6598 20.7104 25.657 20.7064 25.654C20.6917 25.6435 20.6955 25.6284 20.7147 25.6082C20.7255 25.5969 20.7306 25.5947 20.748 25.5957ZM18.7504 24.9771C18.725 24.986 18.6929 25.0232 18.6671 25.0229C18.6084 25.027 18.6166 25.0842 18.6587 25.1041C18.6643 25.1215 18.659 25.1433 18.6608 25.1625C18.669 25.2151 18.6358 25.2575 18.642 25.3104C18.6391 25.3684 18.6216 25.4249 18.6191 25.4833C18.6027 25.5435 18.6025 25.6054 18.592 25.6666C18.5851 25.7215 18.5454 25.7022 18.5108 25.6875C18.5105 25.6637 18.509 25.6404 18.5087 25.6166C18.5231 25.5622 18.4793 25.5463 18.4358 25.5396C18.39 25.5439 18.3676 25.5047 18.3775 25.4646C18.3971 25.4412 18.4465 25.4477 18.4775 25.4437C18.5429 25.4573 18.5402 25.3696 18.5066 25.3396C18.4836 25.2972 18.4267 25.279 18.4108 25.2354C18.4172 25.1776 18.3788 25.1199 18.3316 25.0917C18.2591 25.0866 18.2043 25.1492 18.1775 25.2104C18.1473 25.2191 18.1172 25.2282 18.0879 25.2396C18.0406 25.2514 17.9732 25.3334 18.0379 25.3646C18.0742 25.3746 18.1846 25.3997 18.1358 25.45C18.1083 25.4971 18.0557 25.4979 18.0087 25.4854C17.9605 25.4854 17.9068 25.4619 17.9087 25.4062C17.8989 25.3562 17.9005 25.3024 17.8775 25.2562C17.8676 25.2003 17.8041 25.2134 17.8004 25.2645C17.7515 25.3002 17.758 25.3577 17.7921 25.4C17.8133 25.4486 17.7923 25.5051 17.7712 25.55C17.7585 25.6083 17.6942 25.6103 17.6483 25.6291C17.6258 25.6379 17.5397 25.6239 17.5712 25.6729C17.6214 25.6906 17.6814 25.7065 17.7337 25.6937C17.7886 25.6869 17.8362 25.6494 17.8629 25.6021C17.8997 25.5647 17.963 25.5843 18.0108 25.5833C18.0623 25.5832 18.115 25.6195 18.165 25.5958C18.1795 25.5582 18.2464 25.4961 18.267 25.5604C18.2635 25.6179 18.3143 25.6488 18.367 25.6416C18.4246 25.6384 18.4033 25.6824 18.4025 25.7166C18.4063 25.7789 18.4465 25.8116 18.4983 25.8375C18.516 25.8422 18.5346 25.8406 18.5525 25.8375C18.6023 25.8218 18.656 25.7996 18.6712 25.7437C18.6915 25.6983 18.6919 25.647 18.7066 25.6C18.7184 25.5246 18.7337 25.4493 18.7358 25.3729C18.7542 25.3037 18.7489 25.2305 18.7629 25.1604C18.7717 25.1083 18.7783 25.0562 18.7837 25.0042C18.7776 24.9763 18.7656 24.9717 18.7504 24.9771ZM18.2983 25.2541C18.3084 25.2554 18.314 25.2677 18.315 25.2896C18.316 25.3138 18.3287 25.3336 18.3441 25.3375C18.3563 25.3405 18.3553 25.3534 18.3421 25.3625C18.3344 25.3677 18.3207 25.3709 18.2962 25.3708C18.2577 25.3706 18.2338 25.3606 18.2129 25.3395L18.2004 25.327L18.2191 25.3145C18.2323 25.3042 18.2448 25.293 18.2566 25.2812C18.2756 25.2618 18.2882 25.2529 18.2983 25.2541ZM22.7004 24.729C22.6626 24.7308 22.6246 24.7369 22.59 24.7457C22.5206 24.7414 22.4858 24.8142 22.5525 24.8499C22.5926 24.9522 22.6552 24.8288 22.7191 24.8374C22.815 24.856 22.8231 24.9595 22.8379 25.0374C22.8433 25.1145 22.8655 25.1895 22.8879 25.2624C22.952 25.3337 22.8398 25.3784 22.792 25.3228C22.7513 25.2785 22.664 25.2242 22.615 25.2853C22.5547 25.3108 22.5523 25.3913 22.5025 25.4145C22.4219 25.439 22.4117 25.3399 22.3691 25.2978C22.33 25.2428 22.2551 25.238 22.1941 25.2186C22.1655 25.1607 22.1804 25.0623 22.1212 25.0228C22.0715 25.0431 21.9803 25.1363 22.0566 25.179C22.1311 25.2431 22.0241 25.2724 21.99 25.3165C21.9412 25.3709 21.9334 25.4456 21.9254 25.5145C21.8414 25.5608 21.8251 25.4619 21.815 25.3999C21.8084 25.3258 21.7459 25.3475 21.7025 25.3749C21.639 25.4006 21.6073 25.4609 21.5629 25.5082C21.5576 25.5514 21.5654 25.5986 21.565 25.6436C21.5794 25.6977 21.6451 25.6723 21.6858 25.6686C21.751 25.6413 21.7778 25.7105 21.7254 25.7499C21.6899 25.795 21.5774 25.7714 21.5879 25.8436C21.6241 25.8479 21.6619 25.8465 21.6983 25.8436C21.771 25.8238 21.849 25.7725 21.8566 25.6915C21.8662 25.621 21.9678 25.6338 22.0233 25.6186C22.0927 25.5986 22.1763 25.5935 22.192 25.6811C22.2393 25.7308 22.3419 25.7867 22.3941 25.7186C22.4471 25.6863 22.4725 25.6294 22.4691 25.5686C22.4583 25.5163 22.5537 25.5144 22.5774 25.5436C22.6122 25.6008 22.7208 25.5839 22.7733 25.552C22.829 25.5108 22.8411 25.4383 22.9212 25.4374C23.04 25.4018 23.1635 25.3813 23.2795 25.3374C23.3735 25.3169 23.2655 25.2575 23.242 25.2228C23.1704 25.1874 23.1082 25.3323 23.0274 25.2603C22.9651 25.2126 22.9693 25.1218 22.9462 25.052C22.9304 24.9615 22.9344 24.8571 22.8691 24.7853C22.8243 24.7376 22.7634 24.7261 22.7004 24.729ZM22.2462 25.3603C22.2546 25.3601 22.2641 25.3642 22.2795 25.3728C22.3088 25.3889 22.3296 25.4157 22.3295 25.4374C22.3295 25.4516 22.3259 25.4525 22.3046 25.4624C22.2914 25.4684 22.2765 25.475 22.2712 25.4749C22.2591 25.4748 22.2296 25.4511 22.2296 25.4415C22.2295 25.4376 22.2257 25.4224 22.2212 25.4103C22.2134 25.3889 22.2146 25.3892 22.2254 25.3749C22.2323 25.3657 22.2378 25.3605 22.2462 25.3603ZM22.6816 25.3832C22.7065 25.3816 22.7212 25.3893 22.7316 25.4082C22.7437 25.4301 22.7355 25.447 22.7045 25.4603C22.691 25.4662 22.6774 25.4709 22.6754 25.4707C22.6733 25.4705 22.6621 25.4639 22.6504 25.4561C22.6324 25.4443 22.6297 25.4385 22.6295 25.4249C22.6293 25.4039 22.6528 25.3851 22.6816 25.3832ZM22.0858 25.3895C22.0931 25.3883 22.0997 25.3921 22.1087 25.3999C22.1207 25.4102 22.1245 25.4185 22.1275 25.4395C22.1295 25.4541 22.1292 25.4729 22.1275 25.4811C22.1242 25.4962 22.1239 25.4955 22.09 25.4957C22.0473 25.4961 22.0433 25.4915 22.0441 25.452C22.0447 25.4268 22.0449 25.4201 22.0587 25.4061C22.0694 25.3953 22.0785 25.3906 22.0858 25.3895ZM21.7191 25.4853C21.7324 25.4884 21.745 25.4985 21.7483 25.5145C21.7527 25.5356 21.7488 25.5453 21.7316 25.554C21.7168 25.5616 21.6827 25.5641 21.6733 25.5582C21.6702 25.5563 21.664 25.5513 21.6608 25.5457C21.6563 25.5376 21.6571 25.5337 21.6629 25.529C21.6669 25.5258 21.6712 25.5211 21.6712 25.5186C21.6712 25.5162 21.6757 25.5078 21.6816 25.4999C21.6914 25.4869 21.7058 25.4822 21.7191 25.4853ZM22.3358 25.5645C22.3477 25.5644 22.3577 25.5685 22.365 25.5749C22.3773 25.5857 22.3769 25.6016 22.3629 25.6124C22.3539 25.6193 22.3048 25.6187 22.2879 25.6124C22.2804 25.6096 22.2775 25.6058 22.2775 25.5978C22.2773 25.5884 22.28 25.5826 22.2962 25.5749C22.3098 25.5684 22.3239 25.5645 22.3358 25.5645ZM21.1911 25.8857C21.1847 25.8815 21.1752 25.8779 21.1847 25.8709C21.1962 25.8508 21.2193 25.8438 21.2397 25.8363C21.2762 25.8205 21.3077 25.7936 21.3313 25.7617C21.3346 25.7395 21.3595 25.7275 21.3594 25.7043C21.3596 25.6726 21.3615 25.6402 21.3538 25.6092C21.3452 25.5808 21.3237 25.5591 21.2987 25.5443C21.2816 25.5308 21.2537 25.5272 21.2474 25.5033C21.2439 25.4805 21.2643 25.4631 21.2715 25.4427C21.2863 25.4146 21.2989 25.3852 21.3149 25.3577C21.3321 25.3385 21.3588 25.3567 21.3677 25.3752C21.3803 25.3937 21.3915 25.4136 21.3978 25.435C21.4179 25.4572 21.4358 25.4831 21.443 25.5125C21.4529 25.5332 21.4686 25.5527 21.4677 25.5769C21.4677 25.6047 21.4833 25.6294 21.4823 25.6573C21.4832 25.6947 21.4832 25.7337 21.4696 25.7689C21.4602 25.7885 21.4415 25.8002 21.4291 25.8178C21.4079 25.8375 21.3844 25.8564 21.3571 25.8668C21.3379 25.873 21.3267 25.8952 21.3025 25.8898C21.2682 25.8904 21.2334 25.8951 21.1994 25.8896C21.2015 25.8932 21.189 25.8835 21.1911 25.8857V25.8857ZM20.7344 25.9157C20.7182 25.8991 20.7147 25.892 20.7145 25.8757C20.7143 25.8592 20.7175 25.8526 20.7333 25.8366C20.7625 25.8071 20.7768 25.8064 20.8273 25.8319C20.8755 25.8563 20.8918 25.8585 20.8961 25.8413C20.9003 25.8246 20.928 25.8093 20.9544 25.8092C20.971 25.8091 20.9805 25.8124 20.9938 25.8228C21.0106 25.8359 21.0114 25.8379 21.0118 25.8681C21.0121 25.899 21.0117 25.9001 20.9925 25.9172C20.974 25.9334 20.971 25.9344 20.9481 25.9321C20.919 25.9292 20.9015 25.9159 20.8967 25.8929C20.8933 25.8762 20.8874 25.8723 20.883 25.8836C20.8816 25.8872 20.8745 25.8917 20.8671 25.8936C20.8535 25.897 20.8305 25.9115 20.8142 25.9269C20.808 25.9327 20.7972 25.9355 20.7796 25.9357C20.7559 25.9359 20.7526 25.9344 20.7344 25.9157ZM19.4131 25.3224C19.3687 25.3229 19.321 25.3601 19.3151 25.4036C19.3253 25.4538 19.3669 25.5029 19.3401 25.5557C19.3586 25.6232 19.2894 25.6489 19.2422 25.6099C19.2137 25.5451 19.1993 25.4742 19.1568 25.4161C19.1032 25.401 19.0798 25.4866 19.0422 25.5161C19.0609 25.5665 19.1153 25.6116 19.1214 25.6745C19.1344 25.7355 19.0973 25.8032 19.0443 25.8349C18.9986 25.8785 18.9359 25.8629 18.8797 25.8724C18.8114 25.9123 18.9298 25.9269 18.961 25.9286C19.0308 25.9357 19.1033 25.9265 19.1547 25.8745C19.206 25.85 19.202 25.7613 19.263 25.7515C19.3689 25.7468 19.4739 25.7678 19.5797 25.7703C19.6363 25.7838 19.7239 25.7636 19.763 25.8057C19.7632 25.8795 19.8258 25.9251 19.886 25.9536C19.9192 25.9629 19.9542 25.9217 19.988 25.914C20.0524 25.8935 20.0328 25.8139 20.0714 25.7828C20.1814 25.7768 20.2925 25.7781 20.4026 25.7765C20.4236 25.7771 20.4298 25.7472 20.4443 25.7349C20.4419 25.6923 20.4403 25.65 20.4339 25.6078C20.4127 25.554 20.4373 25.4848 20.3985 25.439C20.3431 25.424 20.296 25.4746 20.2401 25.4786C20.1784 25.5061 20.1264 25.5632 20.1235 25.6328C20.0869 25.6926 20.0283 25.6222 20.0485 25.5724C20.0462 25.5507 20.0532 25.5254 20.0464 25.5057C20.0126 25.4652 19.9534 25.4784 19.9068 25.4724C19.8389 25.4751 19.7726 25.4604 19.7047 25.462C19.6452 25.4575 19.5832 25.4672 19.5255 25.4516C19.4568 25.4496 19.4662 25.3823 19.4547 25.3349C19.4425 25.3258 19.4278 25.3222 19.4131 25.3224ZM19.5464 25.5682C19.5692 25.5687 19.5908 25.5717 19.6131 25.5745C19.6418 25.5792 19.6724 25.5646 19.7005 25.5745C19.7657 25.5855 19.8308 25.5829 19.8964 25.589C19.9137 25.5888 19.9261 25.6014 19.938 25.612C19.9382 25.6575 19.9381 25.7039 19.938 25.7495C19.9361 25.7666 19.9431 25.7893 19.9276 25.8015C19.9226 25.805 19.9171 25.8087 19.911 25.8099C19.8929 25.8052 19.8738 25.7933 19.8651 25.7765C19.8624 25.7527 19.8663 25.7296 19.8672 25.7057C19.8667 25.6995 19.8699 25.6899 19.8672 25.6849C19.853 25.6748 19.8369 25.6683 19.8193 25.6682C19.7627 25.6663 19.7072 25.6621 19.6505 25.6599C19.6034 25.6569 19.555 25.6639 19.5089 25.6515C19.491 25.645 19.4677 25.6473 19.4568 25.6286C19.4412 25.6105 19.4637 25.5888 19.4797 25.5807C19.5009 25.5711 19.5235 25.5678 19.5464 25.5682L19.5464 25.5682ZM20.2984 25.5849C20.309 25.5847 20.3124 25.5882 20.3172 25.6078C20.3203 25.6203 20.3238 25.6356 20.3255 25.6411C20.328 25.649 20.3241 25.6515 20.313 25.6557C20.2801 25.6681 20.2473 25.6669 20.236 25.6515C20.2308 25.6446 20.2368 25.6226 20.2464 25.614C20.2657 25.5968 20.287 25.5849 20.2984 25.5849Z" fill="#C09300"/>
<path d="M20.8233 16.8728C20.8678 16.8755 20.7632 16.635 20.7632 16.635C20.8809 16.7552 21.3252 16.784 21.3252 16.784C21.0585 16.6662 20.792 15.7776 20.8233 15.0692C20.8521 14.3583 20.7215 14.0786 20.6169 13.974C20.4835 13.8407 20.0549 13.7231 19.7726 13.7074C19.6131 13.6996 19.6393 13.8276 19.6393 13.8276C19.3439 13.7518 19.0486 13.7231 18.9153 13.812C18.7897 13.8956 18.7636 14.3138 18.8551 14.2406C19.0773 14.0629 19.2707 14.225 19.404 14.4184C19.5216 14.5883 19.5138 15.0692 19.3439 15.6312C19.1661 16.2219 18.6799 16.8126 18.6799 16.8126C18.9439 16.8126 19.3151 16.5774 19.3151 16.5774L19.2263 16.946C19.5059 16.8126 19.7281 16.6062 19.7281 16.6062L19.9947 16.8858C20.0836 16.7682 20.2614 16.6062 20.2614 16.6062C20.2614 16.6062 20.4835 16.8414 20.8233 16.8728Z" fill="white" stroke="#C09300" stroke-width="0.0811999"/>
<path d="M19.7414 15.1717C19.7414 15.1717 19.5924 16.2669 19.3127 16.578M19.9767 15.1431C19.9767 15.1431 19.9192 16.2513 19.7258 16.6068M20.1854 15.1877C20.1854 15.1877 20.1854 16.4005 20.2586 16.607M20.4494 15.2477C20.4494 15.2477 20.5095 16.2671 20.7605 16.6357" stroke="#C09300" stroke-width="0.0846665"/>
<path d="M19.473 14.641C19.4599 14.5443 19.4364 14.4684 19.4024 14.4188C19.269 14.2254 19.0757 14.0633 18.8535 14.241C18.8535 14.241 18.9293 14.0058 19.0914 13.998C19.2168 13.9901 19.5017 14.092 19.7527 14.5207C19.7527 14.5207 19.5671 14.4789 19.5227 14.5181C19.439 14.5913 19.473 14.641 19.473 14.641Z" fill="#C09300" stroke="#C09300" stroke-width="0.0236"/>
<path d="M18.8336 13.9509C18.8519 13.8908 18.8807 13.8359 18.9173 13.8124C19.0506 13.7235 19.346 13.7523 19.6413 13.8281C19.6413 13.8281 19.6152 13.7 19.7746 13.7079C20.0569 13.7235 20.4856 13.8412 20.6188 13.9745C20.6502 14.0085 20.6868 14.0581 20.7182 14.1339H20.713C20.6476 14.0424 20.462 14.0477 20.4176 14.0529C20.347 14.0607 20.3026 14.0581 20.2084 14.0816C20.164 14.0921 20.096 14.1051 20.0594 14.1339C20.0308 14.1574 20.0072 14.2437 19.9628 14.2437C19.8922 14.2437 19.8974 14.2254 19.8791 14.2045C19.8556 14.1757 19.8425 14.1339 19.819 14.1365C19.7458 14.1496 19.6282 14.0921 19.4792 13.9745C19.3302 13.8568 19.2727 13.8281 19.0793 13.8411C18.8885 13.8568 18.8284 13.964 18.8284 13.964L18.8336 13.9509Z" fill="#C09300" stroke="#C09300" stroke-width="0.0236"/>
<path d="M19.9263 14.1236C19.9696 14.1236 20.0047 14.0885 20.0047 14.0452C20.0047 14.0019 19.9696 13.9668 19.9263 13.9668C19.883 13.9668 19.8479 14.0019 19.8479 14.0452C19.8479 14.0885 19.883 14.1236 19.9263 14.1236Z" fill="white"/>
<path d="M19.997 21.8154C22.1731 20.1417 21.9865 17.6899 21.9865 17.6899C21.9291 17.7014 21.8746 17.7071 21.8171 17.7071C21.3607 17.7071 20.2719 17.446 20.0179 17.1143C19.7458 17.4145 18.6333 17.7071 18.1797 17.7071C18.1222 17.7071 18.0648 17.7014 18.0103 17.6899C18.0103 17.6899 17.8208 20.1416 19.997 21.8154Z" fill="white" stroke="#C09300" stroke-width="0.0766669"/>
<path d="M21.8158 17.8695C21.7971 17.8707 21.7783 17.8713 21.7593 17.8713C21.3456 17.8713 20.3847 17.659 20.0143 17.3408C19.6263 17.6348 18.6496 17.8713 18.2426 17.8713C18.2235 17.8713 18.2046 17.869 18.1859 17.8655C18.185 17.9583 18.1898 18.0544 18.1955 18.1418C18.2171 18.4685 18.2744 18.7964 18.3614 19.1119C18.6353 20.1049 19.1958 20.9488 19.9995 21.5889C20.8039 20.9483 21.3651 20.1036 21.6396 19.1098C21.7267 18.7944 21.7842 18.4665 21.806 18.1398C21.811 18.0484 21.8161 17.9364 21.8158 17.8695Z" stroke="#C09300" stroke-width="0.0610669"/>
<mask id="mask0_1_15642" style="mask-type:luminance" maskUnits="userSpaceOnUse" x="18" y="17" width="4" height="5">
<path d="M21.7987 17.8825C21.7801 17.8837 21.7615 17.8842 21.7427 17.8842C21.3335 17.8842 20.3828 17.6742 20.0163 17.3594C19.6325 17.6502 18.6661 17.8842 18.2634 17.8842C18.2446 17.8842 18.2259 17.882 18.2074 17.8785C18.2064 17.9702 18.2112 18.0653 18.2169 18.1518C18.2382 18.475 18.2949 18.7994 18.381 19.1116C18.652 20.094 19.2065 20.9289 20.0017 21.5622C20.7975 20.9284 21.3528 20.0927 21.6243 19.1096C21.7105 18.7975 21.7674 18.4731 21.7889 18.1499C21.7939 18.0594 21.799 17.9486 21.7987 17.8825Z" fill="white"/>
</mask>
<g mask="url(#mask0_1_15642)">
<path fill-rule="evenodd" clip-rule="evenodd" d="M18.1777 17.3172H19.395V21.6044H18.1777V17.3172Z" fill="#C09300"/>
<path fill-rule="evenodd" clip-rule="evenodd" d="M19.3926 17.3172H20.6098V21.6044H19.3926V17.3172Z" fill="white"/>
<path fill-rule="evenodd" clip-rule="evenodd" d="M20.6133 17.3172H21.8305V21.6044H20.6133V17.3172Z" fill="#C09300"/>
</g>
</g>
<defs>
<clipPath id="clip0_1_15642">
<rect width="40" height="40" rx="20" fill="white"/>
</clipPath>
</defs>
</svg>
