<svg width="40" height="40" viewBox="0 0 40 40" fill="none" xmlns="http://www.w3.org/2000/svg">
<g clip-path="url(#clip0_1_15512)">
<path d="M-10 0H50V40H-10V0Z" fill="#E32118"/>
<path d="M-10 0H50V26.6667H-10V0Z" fill="white"/>
<path d="M-10 0H50V13.3333H-10V0Z" fill="#3E9A00"/>
<path d="M-5 0V40L10 20L-5 0Z" fill="#0073CE"/>
<path d="M16.801 15.98H23.1844V22.6666C23.1844 24.9166 20.406 23.16 19.9927 24.3833C19.6138 23.1616 16.8177 24.9333 16.8177 22.5333C16.8177 20.2 16.801 15.98 16.801 15.98Z" fill="white" stroke="black" stroke-width="0.08"/>
<path d="M20.4508 23.3166C20.4508 23.3166 20.3674 23.4 20.2174 23.3333C20.0674 23.2667 20.0508 19.05 20.0508 19.05C20.3841 18.6833 20.6508 18.5667 20.6508 18.5667L20.8508 18.7333C20.1008 19.1167 20.1674 19.6667 20.2341 20.6167C20.2508 20.9667 20.2508 21.4167 20.3341 21.85C20.4508 22.4 20.6841 22.8667 20.7008 23.2167C20.7174 23.4333 20.4508 23.3166 20.4508 23.3166Z" fill="#73452B" stroke="black" stroke-width="0.0166667"/>
<path d="M19.9339 18.4666H20.2339C19.9839 20.8833 20.2005 22.3166 20.2005 23.0166C20.2005 23.2499 20.3339 23.3333 20.3172 23.3333C20.0172 23.6666 19.8672 23.3166 19.8672 23.3166L19.9339 18.4666Z" fill="#73452B" stroke="black" stroke-width="0.0166667"/>
<path d="M19.4744 23.3131C19.1911 23.4464 19.1506 23.1833 19.1673 23.15C19.7839 21.9 20.0506 19.15 19.4839 18.85L19.5173 18.5833C19.7339 18.65 19.9339 18.9333 19.9339 18.9333C20.0173 22.0166 19.9326 23.2784 19.8826 23.3284C19.5826 23.6451 19.4695 23.2871 19.4528 23.2537" fill="#A36629"/>
<path d="M19.4744 23.3131C19.1911 23.4464 19.1506 23.1833 19.1673 23.15C19.7839 21.9 20.0506 19.15 19.4839 18.85L19.5173 18.5833C19.7339 18.65 19.9339 18.9333 19.9339 18.9333C20.0173 22.0166 19.9326 23.2784 19.8826 23.3284C19.5826 23.6451 19.4695 23.2871 19.4528 23.2537" stroke="black" stroke-width="0.0166667"/>
<path d="M19.4548 23.2588C19.4048 22.9921 19.8846 22.3168 19.8513 21.6001" stroke="black" stroke-width="0.0166667"/>
<path d="M20.2676 22.1831C20.4176 22.5998 20.4842 22.9664 20.4509 23.3164" stroke="black" stroke-width="0.0166667"/>
<path d="M20.9164 17.3335C21.0164 17.2169 21.0164 17.2169 21.1998 17.2169C21.2331 16.9669 21.6498 16.9669 21.6831 17.2835C22.0164 17.2169 22.0831 17.4169 21.9498 17.6169C22.2664 17.5335 22.5498 17.6169 22.4664 17.9835C23.0331 18.1335 22.8164 18.5335 22.5664 18.6169C22.5331 18.8669 22.2998 18.9502 21.9831 18.8502C21.5831 19.1335 21.3498 19.0335 21.1664 18.7502C20.7164 18.8169 20.6831 18.7169 20.4831 18.4669C20.1331 18.6169 20.0664 18.6169 19.7664 18.4335C19.7498 18.6669 19.6664 18.6002 19.5164 18.5835C19.5331 18.8835 19.4164 19.0169 19.1498 18.9169C19.3498 19.3335 18.8331 19.5169 18.5831 19.1669C18.3498 19.1835 18.3331 19.1169 18.2164 19.0335C18.1164 19.3669 17.7498 19.3169 17.6831 19.1335C17.2164 19.0669 17.2664 18.8169 17.6498 18.8002C17.6831 18.5335 17.9164 18.5835 18.0664 18.6169C18.0831 18.4502 18.1831 18.4835 18.2664 18.5169C18.2164 18.4002 18.2498 18.3335 18.3998 18.3002C18.1831 18.0169 18.3164 17.9169 18.5331 17.8169C18.4164 17.5502 18.6164 17.5669 18.7664 17.5502C18.7498 17.2669 18.8331 17.2169 19.1331 17.1835C19.0998 17.0835 19.1498 17.0002 19.3164 17.0002C19.2164 16.7169 19.3498 16.6519 19.6498 16.7002C19.6998 16.2885 20.5831 16.4835 20.5164 17.0502C20.7664 17.0835 20.8498 17.1335 20.9164 17.3335Z" fill="#009A3B" stroke="black" stroke-width="0.0166667"/>
<path d="M19.1348 17.1831C19.2014 17.2164 19.2848 17.1831 19.3014 17.3664C19.4348 17.1331 19.6014 17.2664 19.6014 17.5331" stroke="black" stroke-width="0.0166667"/>
<path d="M20.5182 17.0498C20.4515 17.1498 20.2015 17.1498 20.2349 17.4165C20.1515 17.2998 19.9849 17.2665 19.9182 17.3831" stroke="black" stroke-width="0.0166667"/>
<path d="M20.9193 17.333C20.9193 17.3997 20.9026 17.5997 20.8359 17.6997" stroke="black" stroke-width="0.0166667"/>
<path d="M21.9516 17.6167C21.9682 17.6334 21.7182 17.6167 21.6016 17.7" stroke="black" stroke-width="0.0166667"/>
<path d="M22.5693 18.6166C22.5026 18.5833 22.3693 18.5 22.2693 18.6333C22.2693 18.5666 22.2693 18.3833 22.0859 18.3833" stroke="black" stroke-width="0.0166667"/>
<path d="M21.9846 18.8497C21.9846 18.683 21.9513 18.633 21.918 18.583" stroke="black" stroke-width="0.0166667"/>
<path d="M21.4349 18.6166C21.3015 18.5166 21.1682 18.6666 21.1682 18.7499" stroke="black" stroke-width="0.0166667"/>
<path d="M20.4677 18.4663C20.4677 18.3996 20.4177 18.2663 20.5343 18.2163" stroke="black" stroke-width="0.0166667"/>
<path d="M18.5682 19.1665C18.6016 18.9998 18.7182 18.9998 18.7016 18.9165C18.6849 18.7832 18.5349 18.6665 18.3516 18.8498" stroke="black" stroke-width="0.0166667"/>
<path d="M18.7012 18.9163C18.8012 18.8829 18.9012 18.8996 18.9345 18.9496" stroke="black" stroke-width="0.0166667"/>
<path d="M18.418 18.2998C18.4846 18.2331 18.6513 18.2498 18.7513 18.2998" stroke="black" stroke-width="0.0166667"/>
<path d="M18.7517 17.8999C18.835 17.8999 18.985 17.8665 19.035 18.0165C19.2184 17.7332 19.3517 17.7665 19.385 17.8332" stroke="black" stroke-width="0.0166667"/>
<path d="M19.7188 17.8C19.8521 17.75 20.0854 17.8833 20.2188 18.1167C20.2854 17.9333 20.3854 17.9667 20.4854 17.95" stroke="black" stroke-width="0.0166667"/>
<path d="M21.1172 18.1162C21.3339 18.0162 21.4672 18.2162 21.5339 18.2996C21.6339 18.1662 21.7172 18.1662 21.8172 18.1662" stroke="black" stroke-width="0.0166667"/>
<path d="M19.1016 18.5166C19.1516 18.4333 19.2682 18.4166 19.3516 18.4666C19.3349 18.3166 19.4349 18.25 19.5016 18.2833" stroke="black" stroke-width="0.0166667"/>
<path d="M19.7596 15.0432L19.393 15.0599L19.2096 15.3882L19.0096 15.0749L18.643 15.0899L18.8096 14.7599L18.6096 14.4466L18.993 14.4299L19.1596 14.1016L19.3596 14.4149L19.7263 14.3999L19.5596 14.7299L19.7596 15.0432Z" fill="#FFD700" stroke="black" stroke-width="0.0583333"/>
<path d="M18.1923 15.1649L17.8257 15.2549L17.7257 15.6099L17.459 15.3432L17.109 15.4299L17.209 15.0749L16.959 14.8049L17.309 14.7165L17.409 14.3599L17.6757 14.6265L18.0423 14.5399L17.9257 14.8965L18.1923 15.1649Z" fill="#FFD700" stroke="black" stroke-width="0.0583333"/>
<path d="M16.6759 15.4765L16.3426 15.6415L16.3259 16.0115L16.0092 15.8082L15.6759 15.9715L15.7092 15.6015L15.3926 15.3965L15.7259 15.2299L15.7592 14.8599L16.0592 15.0632L16.3926 14.8999L16.3759 15.2699L16.6759 15.4765Z" fill="#FFD700" stroke="black" stroke-width="0.0583333"/>
<path d="M20.2422 15.0432L20.6089 15.0599L20.7755 15.3882L20.9755 15.0749L21.3422 15.0899L21.1755 14.7599L21.3755 14.4466L21.0089 14.4299L20.8255 14.1016L20.6255 14.4149L20.2589 14.3999L20.4255 14.7299L20.2422 15.0432Z" fill="#FFD700" stroke="black" stroke-width="0.0583333"/>
<path d="M21.8086 15.1649L22.1586 15.2549L22.2586 15.6099L22.5253 15.3432L22.8753 15.4299L22.7753 15.0749L23.0419 14.8049L22.6753 14.7165L22.5753 14.3599L22.3086 14.6265L21.9586 14.5399L22.0586 14.8965L21.8086 15.1649Z" fill="#FFD700" stroke="black" stroke-width="0.0583333"/>
<path d="M23.3086 15.4765L23.6419 15.6415L23.6586 16.0115L23.9753 15.8082L24.3086 15.9715L24.2919 15.6015L24.5919 15.3965L24.2586 15.2299L24.2419 14.8599L23.9253 15.0632L23.5919 14.8999L23.6253 15.2699L23.3086 15.4765Z" fill="#FFD700" stroke="black" stroke-width="0.0583333"/>
<path d="M21.1248 24.283L21.1581 24.883C21.1581 24.883 21.3248 24.883 21.4748 24.833C21.6081 24.783 21.7248 24.683 21.7248 24.683L21.7081 24.3664L21.1248 24.283Z" fill="white" stroke="black" stroke-width="0.0583333"/>
<path d="M18.8926 24.2832L18.8592 24.8665C18.8592 24.8665 18.7092 24.8665 18.5592 24.8332C18.4259 24.7999 18.3092 24.7165 18.3092 24.7165L18.1426 24.3165L18.8926 24.2832Z" fill="white" stroke="black" stroke-width="0.0583333"/>
<path d="M16.1964 22.5328L15.7753 23.1328L15.3086 22.3662L15.6586 21.9995L16.1964 22.5328Z" fill="white" stroke="black" stroke-width="0.05835" stroke-linejoin="round"/>
<path d="M18.291 25.4831C18.291 26.0498 21.7243 26.0498 21.7243 25.4831V24.6831C21.7243 25.0998 18.291 25.0164 18.291 24.6831V25.4831Z" fill="white" stroke="black" stroke-width="0.0583333"/>
<path d="M15.2246 23.633C15.5246 25.1663 18.2913 25.1997 18.2913 25.1997V24.683C18.2246 24.483 18.3413 24.4163 18.7913 24.3497C18.9746 24.333 18.8913 24.0663 18.8913 24.0663C18.8913 24.0663 17.6913 24.283 16.8413 23.9497C15.6913 23.483 15.5246 22.583 15.5246 22.583C15.5246 22.583 15.4413 23.283 15.2246 23.633Z" fill="white" stroke="black" stroke-width="0.0583333"/>
<path d="M24.7749 23.633C24.4915 25.1663 21.7249 25.1997 21.7249 25.1997V24.683C21.7749 24.483 21.6582 24.4163 21.2082 24.3497C21.0249 24.333 21.1249 24.0663 21.1249 24.0663C21.1249 24.0663 22.3249 24.283 23.1749 23.9497C24.3082 23.483 24.4415 22.583 24.4415 22.583C24.4415 22.583 24.5582 23.283 24.7749 23.633Z" fill="white" stroke="black" stroke-width="0.0583333"/>
<path d="M15.4334 23.0496C14.6668 22.633 15.2718 22.1996 15.3384 20.9663C15.7242 21.7507 16.1057 21.7764 16.2146 22.2733C16.228 22.3345 16.2383 22.4455 16.2049 22.5163C15.8549 22.533 15.6884 21.9996 15.5218 22.583L15.4334 23.0496Z" fill="white" stroke="black" stroke-width="0.0583333"/>
<path d="M23.7891 22.5328L24.2102 23.1328L24.6769 22.3662L24.3269 21.9995L23.7891 22.5328Z" fill="white" stroke="black" stroke-width="0.05835" stroke-linejoin="round"/>
<path d="M24.5517 23.0496C25.3184 22.633 24.7134 22.1996 24.6467 20.9663C24.2609 21.7507 23.8794 21.7764 23.7705 22.2733C23.7571 22.3345 23.7468 22.4455 23.7803 22.5163C24.1303 22.533 24.2967 21.9996 24.4634 22.583L24.5517 23.0496Z" fill="white" stroke="black" stroke-width="0.0583333"/>
<path d="M15.9073 23.6163L15.9906 23.683L15.8073 23.883C15.7339 23.9631 15.7162 24.016 15.7671 24.0648C15.8304 24.1252 15.8749 24.1042 15.9406 24.033L16.1406 23.8163L16.2073 23.883L16.0075 24.1161C15.899 24.2427 15.7983 24.2138 15.7138 24.1349C15.6402 24.0661 15.598 23.9665 15.7063 23.844L15.9079 23.6173L15.9073 23.6163Z" fill="black"/>
<path d="M16.2406 23.8995L16.3239 23.9495L16.3073 24.3495L16.4906 24.0662L16.5739 24.1162L16.3073 24.5495L16.2073 24.4995L16.2239 24.0995L16.0406 24.3829L15.9573 24.3329L16.2406 23.8995Z" fill="black"/>
<path d="M16.3906 24.5994L16.624 24.1328L16.7073 24.1828L16.4906 24.6328L16.3906 24.5994Z" fill="black"/>
<path d="M16.7582 24.1996L16.5742 24.6826L16.7582 24.7496C16.9297 24.8121 17.0102 24.7366 17.0647 24.5916C17.1197 24.4441 17.0957 24.3356 16.9242 24.2666L16.7582 24.1996ZM16.8242 24.3166C16.9967 24.3766 17.0072 24.4421 16.9602 24.5606C16.9147 24.6731 16.8722 24.7171 16.7082 24.6326L16.8242 24.3166Z" fill="black"/>
<path d="M17.3078 24.3828L17.0078 24.8328L17.1238 24.8668L17.1908 24.7498L17.3908 24.7998L17.4078 24.9168L17.5238 24.9328L17.4078 24.3998L17.3078 24.3828ZM17.3408 24.4998L17.3738 24.6998L17.2408 24.6828L17.3408 24.4998Z" fill="black"/>
<path d="M17.5923 24.4262L17.5742 24.9427L17.7704 24.9466C17.9528 24.95 18.0046 24.8529 18.0091 24.6981C18.0136 24.5406 17.9556 24.4455 17.7708 24.4361L17.5923 24.4262ZM17.6923 24.5158C17.8751 24.5166 17.9063 24.5749 17.8999 24.7024C17.8938 24.8236 17.8673 24.8789 17.6851 24.8519L17.6923 24.5158Z" fill="black"/>
<path d="M19.3402 25.1495V25.6825H19.4572V25.4825C19.4572 25.4825 19.5572 25.4885 19.6402 25.4665C19.7057 25.4495 19.7512 25.4075 19.7527 25.304C19.7542 25.2025 19.6952 25.1495 19.5932 25.1495H19.3398H19.3402ZM19.4572 25.2325L19.5747 25.234C19.6727 25.234 19.6542 25.3825 19.5777 25.3825H19.4572V25.2325Z" fill="black"/>
<path d="M19.9416 25.1497L19.7246 25.6827H19.8416L19.8916 25.5497H20.1086L20.1586 25.6827H20.2746L20.0579 25.1494H19.9413L19.9416 25.1497ZM19.9916 25.2667L20.0746 25.4667H19.9246L19.9916 25.2667Z" fill="black"/>
<path d="M20.2734 25.5827L20.5568 25.2327H20.3068V25.1494H20.7068V25.2327L20.4068 25.5827H20.7068V25.6827H20.2734V25.5827Z" fill="black"/>
<path d="M21.9577 24.5498L22.0577 24.5331L22.1077 24.8331C22.1255 24.9398 22.0767 25.0125 22.0008 25.0406C21.9143 25.0725 21.804 25.0433 21.791 24.8998L21.8743 24.8831C21.8938 24.969 21.9283 24.9765 21.9683 24.963C22 24.9523 22.0164 24.9023 22.0077 24.8498L21.9577 24.5498Z" fill="black"/>
<path d="M22.123 24.5196L22.2217 24.5009L22.2674 24.7506C22.2869 24.8574 22.3204 24.9028 22.3899 24.8907C22.4761 24.8756 22.4856 24.8274 22.4672 24.7322L22.4059 24.4659L22.5068 24.4506L22.5738 24.7277C22.613 24.8897 22.5284 24.954 22.4147 24.9752C22.3157 24.9937 22.2105 24.9685 22.176 24.8087L22.123 24.5196Z" fill="black"/>
<path d="M22.6417 24.7494L22.725 24.7161C22.7659 24.7895 22.8297 24.7857 22.8793 24.7638C22.9481 24.7334 22.956 24.6731 22.922 24.6528C22.8734 24.6237 22.7575 24.665 22.6951 24.6422C22.6204 24.6149 22.5883 24.5729 22.5921 24.5083C22.5967 24.4306 22.6651 24.3878 22.7395 24.3647C22.8228 24.3389 22.905 24.348 22.9583 24.4494L22.8583 24.4828C22.8258 24.428 22.7839 24.4306 22.7467 24.4481C22.7156 24.4628 22.667 24.4904 22.693 24.5349C22.7143 24.5712 22.8368 24.5476 22.9013 24.5503C22.9681 24.553 23.022 24.5975 23.031 24.6617C23.0436 24.7512 23.0104 24.7997 22.907 24.84C22.7792 24.8898 22.664 24.834 22.6417 24.7494Z" fill="black"/>
<path d="M23.0907 24.333L22.9574 24.3997L22.9241 24.3163L23.2907 24.1663L23.3241 24.233L23.1907 24.2997L23.3407 24.6663L23.2574 24.7163L23.0907 24.333Z" fill="black"/>
<path d="M23.3066 24.1495L23.39 24.0995L23.6233 24.5329L23.54 24.5829L23.3066 24.1495Z" fill="black"/>
<path d="M23.8729 24.1832L23.9729 24.1498C24.02 24.2487 23.9493 24.4284 23.7767 24.4247C23.5239 24.4193 23.4966 24.1409 23.5363 24.0491C23.6031 23.8949 23.7901 23.8979 23.8729 23.9832L23.7896 24.0498C23.7368 23.982 23.6194 24.0248 23.6115 24.0871C23.5985 24.1889 23.6433 24.2836 23.7343 24.3285C23.8115 24.3666 23.9303 24.2708 23.8729 24.1832Z" fill="black"/>
<path d="M23.8242 23.8327L23.9076 23.7661L24.2076 24.1661L24.1242 24.2327L23.8242 23.8327Z" fill="black"/>
<path d="M24.1396 23.5829L24.0566 23.6499L24.2396 24.1499L24.3226 24.0669L24.2726 23.9669L24.4226 23.8329L24.5226 23.8829L24.6066 23.8169L24.1396 23.5829ZM24.1726 23.6999L24.3396 23.7829L24.2396 23.8829L24.1726 23.6999Z" fill="black"/>
</g>
<defs>
<clipPath id="clip0_1_15512">
<rect width="40" height="40" rx="20" fill="white"/>
</clipPath>
</defs>
</svg>
