<svg width="40" height="40" viewBox="0 0 40 40" fill="none" xmlns="http://www.w3.org/2000/svg">
<g clip-path="url(#clip0_1_15583)">
<rect width="40" height="40" rx="20" fill="#3E5EB9"/>
<path d="M-1 6H41V34H-1V6Z" fill="#3E5EB9"/>
<path d="M-1 11.25H41V28.75H-1V11.25Z" fill="#FFD900"/>
<path d="M-1 13H41V27H-1V13Z" fill="#B10C0C"/>
<path d="M33.4988 16.7998L31.7988 17.3998L33.4988 17.9997L35.1987 17.3998L33.4988 16.7998Z" fill="white" stroke="black" stroke-width="0.07056"/>
<path d="M32.3813 17.2001H7.81703C7.69695 17.2001 7.59961 17.2897 7.59961 17.4001C7.59961 17.5106 7.69695 17.6001 7.81703 17.6001H32.3813C32.5014 17.6001 32.5987 17.5106 32.5987 17.4001C32.5987 17.2897 32.5014 17.2001 32.3813 17.2001Z" fill="#FFD900" stroke="black" stroke-width="0.07056"/>
<path d="M32.002 17.6002C32.1019 17.6002 32.2021 17.5001 32.2021 17.4002C32.2021 17.3002 32.1019 17.2002 32.002 17.2002M31.8018 17.6002C31.9017 17.6002 32.0019 17.5001 32.0019 17.4002C32.0019 17.3002 31.9017 17.2002 31.8018 17.2002M31.6016 17.6002C31.7015 17.6002 31.8017 17.5001 31.8017 17.4002C31.8017 17.3002 31.7015 17.2002 31.6016 17.2002" fill="#FFD900"/>
<path d="M32.002 17.6002C32.1019 17.6002 32.2021 17.5001 32.2021 17.4002C32.2021 17.3002 32.1019 17.2002 32.002 17.2002M31.8018 17.6002C31.9017 17.6002 32.0019 17.5001 32.0019 17.4002C32.0019 17.3002 31.9017 17.2002 31.8018 17.2002M31.6016 17.6002C31.7015 17.6002 31.8017 17.5001 31.8017 17.4002C31.8017 17.3002 31.7015 17.2002 31.6016 17.2002" stroke="black" stroke-width="0.07056"/>
<path d="M31.8699 18.0005L30.1699 18.6005L31.8699 19.2004L33.5698 18.6005L31.8699 18.0005Z" fill="white" stroke="black" stroke-width="0.07056"/>
<path d="M30.7524 18.4012H6.18812C6.06805 18.4012 5.9707 18.4908 5.9707 18.6012C5.9707 18.7117 6.06805 18.8012 6.18812 18.8012H30.7524C30.8725 18.8012 30.9698 18.7117 30.9698 18.6012C30.9698 18.4908 30.8725 18.4012 30.7524 18.4012Z" fill="#FFD900" stroke="black" stroke-width="0.07056"/>
<path d="M30.3731 18.8009C30.4729 18.8009 30.5732 18.7008 30.5732 18.6009C30.5732 18.5009 30.473 18.4009 30.3731 18.4009M30.1729 18.8009C30.2727 18.8009 30.373 18.7008 30.373 18.6009C30.373 18.5009 30.2728 18.4009 30.1729 18.4009M29.9727 18.8009C30.0725 18.8009 30.1728 18.7008 30.1728 18.6009C30.1728 18.5009 30.0726 18.4009 29.9727 18.4009" fill="#FFD900"/>
<path d="M30.3731 18.8009C30.4729 18.8009 30.5732 18.7008 30.5732 18.6009C30.5732 18.5009 30.473 18.4009 30.3731 18.4009M30.1729 18.8009C30.2727 18.8009 30.373 18.7008 30.373 18.6009C30.373 18.5009 30.2728 18.4009 30.1729 18.4009M29.9727 18.8009C30.0725 18.8009 30.1728 18.7008 30.1728 18.6009C30.1728 18.5009 30.0726 18.4009 29.9727 18.4009" stroke="black" stroke-width="0.07056"/>
<path d="M36.8908 19.7006H3.48318C3.31988 19.7006 3.1875 19.8349 3.1875 20.0006C3.1875 20.1663 3.31988 20.3006 3.48318 20.3006H36.8908C37.0541 20.3006 37.1865 20.1663 37.1865 20.0006C37.1865 19.8349 37.0541 19.7006 36.8908 19.7006Z" fill="#FFD900" stroke="black" stroke-width="0.0756"/>
<path d="M30.0004 20.0001C28.0005 21.9999 25.3336 25.9999 20.0002 25.9999C15.3334 25.9999 12.0006 22 10 20.0001C12 17.9999 15.3332 14 20.0002 14C25.3334 14 27.9998 17.9999 30.0004 20.0001Z" fill="white" stroke="black" stroke-width="0.07056"/>
<path d="M19.3016 16.087C19.8336 16.6854 19.3893 16.9267 19.9526 16.966C20.5465 17.0096 20.2098 17.5984 20.7094 17.6188C21.0587 17.6341 20.6745 19.0294 21.0107 19.4898C21.3533 19.9699 21.6401 19.6305 21.6461 19.9772C21.6521 20.3359 20.7139 20.2997 20.6975 21.4045C20.67 22.0413 19.9058 22.082 19.8693 22.4917C19.8239 22.8771 21.3748 23.0934 21.3541 23.4383C21.3328 23.7822 19.6796 23.7284 19.6076 24.1206C19.5707 24.473 21.8788 24.7617 22.0645 25.7806C21.7201 25.8932 20.7401 25.9992 19.9995 25.9998C15.3335 26.0031 11.9999 21.9995 10 19.9996C12 17.9995 15.3332 13.9995 20.0002 13.9995C20.0002 13.9995 18.615 15.2653 19.3023 16.0866L19.3016 16.087Z" fill="black"/>
<path d="M13.9707 19.4668V17.8668V19.4668ZM14.9402 17.8668V19.4668V17.8668ZM15.9104 17.8668V19.4668V17.8668Z" fill="black"/>
<path d="M13.9707 19.4668V17.8668M14.9402 17.8668V19.4668M15.9104 17.8668V19.4668" stroke="white" stroke-width="0.48489"/>
<path d="M13.9707 22.1337V20.5338V22.1337ZM14.9402 20.5338V22.1337V20.5338ZM15.9104 20.5338V22.1337V20.5338Z" fill="black"/>
<path d="M13.9707 22.1337V20.5338M14.9402 20.5338V22.1337M15.9104 20.5338V22.1337" stroke="white" stroke-width="0.48489"/>
<path d="M16.8809 19.4667V17.8668V19.4667ZM17.8504 17.8668V19.4667V17.8668ZM18.8206 17.8668V19.4667V17.8668Z" fill="black"/>
<path d="M16.8809 19.4667V17.8668M17.8504 17.8668V19.4667M18.8206 17.8668V19.4667" stroke="white" stroke-width="0.48489"/>
<path d="M16.8809 22.134V20.5341V22.134ZM17.8504 20.5341V22.134V20.5341ZM18.8206 20.5341V22.134V20.5341Z" fill="black"/>
<path d="M16.8809 22.134V20.5341M17.8504 20.5341V22.134M18.8206 20.5341V22.134" stroke="white" stroke-width="0.48489"/>
<path d="M21.3086 19.4662V17.8662V19.4662ZM22.2781 17.8662V19.4662V17.8662ZM23.2483 17.8662V19.4662V17.8662Z" fill="black"/>
<path d="M21.3086 19.4662V17.8662M22.2781 17.8662V19.4662M23.2483 17.8662V19.4662" stroke="black" stroke-width="0.48489"/>
<path d="M21.3086 22.1331V20.5331V22.1331ZM22.2781 20.5331V22.1331V20.5331ZM23.2483 20.5331V22.1331V20.5331Z" fill="black"/>
<path d="M21.3086 22.1331V20.5331M22.2781 20.5331V22.1331M23.2483 20.5331V22.1331" stroke="black" stroke-width="0.48489"/>
<path d="M24.2168 19.4662V17.8662V19.4662ZM25.1863 17.8662V19.4662V17.8662ZM26.1565 17.8662V19.4662V17.8662Z" fill="black"/>
<path d="M24.2168 19.4662V17.8662M25.1863 17.8662V19.4662M26.1565 17.8662V19.4662" stroke="black" stroke-width="0.48489"/>
<path d="M24.2168 22.1331V20.5331V22.1331ZM25.1863 20.5331V22.1331V20.5331ZM26.1565 20.5331V22.1331V20.5331Z" fill="black"/>
<path d="M24.2168 22.1331V20.5331M25.1863 20.5331V22.1331M26.1565 20.5331V22.1331" stroke="black" stroke-width="0.48489"/>
<path d="M34.7962 19.7622C34.4932 20.2869 35.0287 19.5877 36.3352 20.4661C36.5773 20.6293 36.7888 21.0604 36.7888 21.3593C36.7273 21.3182 36.6817 21.2267 36.614 21.1672C36.5193 21.2622 36.7045 21.6977 36.7316 21.9034C36.5274 21.7891 36.547 21.735 36.4792 21.5945C36.4927 21.7643 36.4441 22.232 36.5254 22.4121C36.3644 22.3661 36.3751 22.2366 36.2911 22.2105C36.3482 22.4144 36.2412 22.6362 36.2696 22.8654C36.1756 22.7723 36.0753 22.6994 36.0316 22.6617C36.0243 22.7709 35.8507 23.0577 35.8467 23.1608C35.7669 23.1126 35.7452 23.0375 35.7319 22.9868C35.6327 23.1115 35.2802 23.5719 35.2576 23.7123C34.9859 23.4723 34.2899 22.888 34.1994 22.5779C34.1193 22.7539 34.0034 22.8134 33.7742 22.9419C33.6837 22.4503 33.3452 21.8979 33.5262 21.4765C33.3979 21.5526 33.2923 21.6287 33.1641 21.7223C33.2856 21.0104 33.9051 20.1756 34.7964 19.7622H34.7962Z" fill="#3D5DA7" stroke="black" stroke-width="0.05985"/>
<path d="M33.666 22.3605C33.7918 22.1091 33.9077 22.0294 33.9889 21.8675C34.1325 21.5829 34.153 21.3565 34.2781 21.3897C34.4032 21.4229 34.403 21.5394 34.241 21.8192C34.0789 22.099 34.0019 22.1588 33.666 22.3605ZM34.5165 22.9597C34.5003 22.7683 34.5559 22.6883 34.5458 22.5651C34.5285 22.3481 34.4398 22.1993 34.5552 22.1887C34.6705 22.1781 34.7244 22.2521 34.7247 22.4707C34.7251 22.6893 34.6913 22.7467 34.5166 22.9598L34.5165 22.9597ZM35.1619 23.3349C35.1115 23.0677 35.1493 22.9491 35.117 22.7769C35.0608 22.474 34.9498 22.2746 35.0566 22.2469C35.1635 22.2191 35.2281 22.3171 35.2685 22.6244C35.309 22.9316 35.2876 23.016 35.1619 23.3349ZM35.8332 21.4624C35.6756 21.3428 35.5836 21.3348 35.482 21.2579C35.3029 21.123 35.2123 20.9786 35.1547 21.0503C35.0971 21.122 35.138 21.2004 35.3256 21.3248C35.5132 21.4493 35.5767 21.4591 35.8332 21.4624ZM35.7219 22.3493C35.6388 22.1768 35.5514 22.133 35.4976 22.022C35.4027 21.8269 35.4025 21.6582 35.2995 21.7014C35.1964 21.7447 35.1882 21.833 35.2984 22.0219C35.4085 22.2107 35.4662 22.2449 35.7219 22.3493Z" fill="#B3B3B3"/>
<path d="M4.65589 20.2672C4.63895 20.1145 4.67166 20.0962 4.57763 19.9809C4.7145 20.0382 4.71968 20.1904 4.88609 20.0824C4.94718 20.0508 4.97383 20.0497 4.89958 19.88C5.07309 19.8881 5.6413 20.0829 5.7323 20.0874C5.97124 20.0984 6.40738 19.8364 6.71011 20.1586C7.0007 20.4523 6.90368 20.7571 6.90368 21.1639C6.78692 21.1079 6.8432 21.0804 6.7193 20.9349C6.81217 21.2905 6.71435 21.9315 6.71435 22.3086C6.66666 22.2177 6.67366 22.2571 6.62704 22.163C6.50314 22.5072 6.35465 22.578 6.35465 22.9848C6.30994 22.8253 6.35311 22.859 6.30336 22.7751C6.18296 23.0364 5.37516 23.2597 5.68643 23.5231C5.4055 23.3584 5.28229 23.3757 5.1549 23.2275C5.09997 23.2629 5.05638 23.33 5.00533 23.4219C4.51136 23.1946 4.68799 22.7044 4.30099 22.3769C4.23402 22.5142 4.26454 22.4943 4.19216 22.7178C4.11381 22.4074 4.09239 22.2102 4.00428 21.982C3.92826 22.1084 3.93503 22.0599 3.79699 22.2511C3.73987 21.873 3.64691 21.7838 3.68368 21.5336C3.53696 21.6371 3.633 21.5952 3.48633 21.7226C3.6253 20.7538 4.22539 20.0379 4.65603 20.2672L4.65589 20.2672Z" fill="#3D5DA7" stroke="black" stroke-width="0.07469"/>
<path d="M4.04883 21.8489C4.17613 21.537 4.29084 21.439 4.37311 21.2382C4.51834 20.8853 4.542 20.6031 4.66399 20.6462C4.78602 20.6892 4.78406 20.8346 4.62082 21.1813C4.45758 21.5282 4.38119 21.6017 4.04883 21.8488V21.8489ZM4.53071 22.6294C4.58176 22.3498 4.66226 22.2479 4.69535 22.0678C4.7541 21.7511 4.72134 21.5153 4.83474 21.5277C4.94814 21.5402 4.97376 21.6597 4.8983 21.9747C4.82284 22.2898 4.77081 22.3643 4.53071 22.6294ZM5.10709 23.1719C5.12146 22.9008 5.18502 22.795 5.19454 22.6203C5.21176 22.3131 5.15263 22.0933 5.26076 22.092C5.36889 22.0908 5.40743 22.2012 5.3743 22.5087C5.34117 22.8163 5.30117 22.893 5.10709 23.1719ZM6.34478 21.3988C6.10813 21.163 5.96505 21.119 5.81236 20.9674C5.54342 20.7011 5.4135 20.4511 5.31774 20.5397C5.22198 20.6283 5.27961 20.7612 5.56274 21.0146C5.84591 21.268 5.94438 21.3049 6.34478 21.3988ZM6.20058 22.3102C6.04644 22.0735 5.93332 22.0121 5.83378 21.8598C5.65831 21.5921 5.59793 21.3621 5.49848 21.4191C5.39894 21.4761 5.4212 21.5963 5.61141 21.8558C5.80158 22.1152 5.87807 22.1629 6.20058 22.3103V22.3102Z" fill="#B3B3B3"/>
<path d="M16.7681 15.0649C16.491 15.6008 17.2532 14.8867 18.4479 15.7838C18.6694 15.9504 18.9867 16.6089 18.9867 16.9141C18.7324 16.8599 18.2819 16.6089 18.2819 16.6089C18.2819 16.6089 18.8105 17.1383 18.8105 17.7487C18.6238 17.632 18.5303 17.6495 18.4682 17.5061C18.4682 17.7037 18.6344 17.8297 18.6344 18.1349C18.5207 18.0436 18.3992 17.9625 18.2713 17.8927C18.4475 18.1979 17.9502 18.7899 18.1991 18.9876C17.7638 18.9246 17.3185 18.6465 17.1423 18.3413C17.0489 18.4042 17.0388 18.5031 17.0351 18.6084C17.0489 18.6198 16.3726 18.1064 16.4347 17.9092C16.344 18.0365 16.3313 18.1064 16.3106 18.2499C16.0621 18.0049 15.8344 17.7599 15.7515 17.4431C15.6412 17.5865 15.6342 17.5865 15.5238 17.73C15.441 17.228 15.441 17.2459 15.6066 16.8157C15.4893 16.8934 15.3927 16.9711 15.2754 17.0668C15.3865 16.3398 15.9531 15.4873 16.7682 15.0651L16.7681 15.0649Z" fill="#3D5DA7" stroke="black" stroke-width="0.05782"/>
<path d="M16.084 17.6829C16.1283 17.3137 16.2248 17.1746 16.2537 16.9368C16.3051 16.5186 16.2441 16.2129 16.3923 16.2207C16.5405 16.2284 16.5831 16.3827 16.5099 16.8C16.4366 17.2173 16.3749 17.3186 16.084 17.6829ZM16.8575 18.3591C16.8275 18.0476 16.885 17.915 16.8659 17.7143C16.833 17.3612 16.7239 17.122 16.8531 17.1001C16.9822 17.0781 17.0476 17.1965 17.0615 17.553C17.0754 17.9095 17.0409 18.0045 16.8574 18.3591H16.8575ZM18.065 18.9107C17.9337 18.6411 17.8208 18.5608 17.7361 18.3873C17.5863 18.0823 17.555 17.8333 17.4396 17.8784C17.3241 17.9236 17.3304 18.0524 17.4972 18.3509C17.664 18.6493 17.7394 18.7102 18.065 18.9107ZM18.4829 16.4964C18.1484 16.3204 17.9766 16.3182 17.7611 16.205C17.3816 16.0067 17.1607 15.7826 17.0823 15.9059C17.0038 16.0292 17.1085 16.1519 17.4998 16.3322C17.8911 16.5125 18.0113 16.5211 18.4829 16.4964H18.4829ZM18.6054 17.5051C18.3619 17.3025 18.2179 17.2727 18.0608 17.1424C17.7841 16.9137 17.6464 16.6891 17.5539 16.7802C17.4615 16.8712 17.5233 16.9915 17.8137 17.2069C18.1041 17.4224 18.2034 17.4491 18.6054 17.5051Z" fill="#B3B3B3"/>
</g>
<defs>
<clipPath id="clip0_1_15583">
<rect width="40" height="40" rx="20" fill="white"/>
</clipPath>
</defs>
</svg>
