<svg width="40" height="40" viewBox="0 0 40 40" fill="none" xmlns="http://www.w3.org/2000/svg">
<g clip-path="url(#clip0_1_15144)">
<path d="M50 0H-10V40H50V0Z" fill="#75B2DD"/>
<path d="M19.3474 4.10059L18.1113 7.90481L20.0135 8.52285" fill="white"/>
<path d="M19.3474 4.10059L20.5835 7.90481L18.6814 8.52285" fill="white"/>
<path d="M23.1526 6.86487H19.1526V8.86487" fill="white"/>
<path d="M23.1526 6.86487L19.9165 9.21601L18.7409 7.59798" fill="white"/>
<path d="M21.6975 11.3369L20.4614 7.53263L18.5593 8.15066" fill="white"/>
<path d="M21.6975 11.3369L18.4614 8.98571L19.637 7.36768" fill="white"/>
<path d="M16.9983 11.337L20.2344 8.98589L19.0588 7.36786" fill="white"/>
<path d="M16.9983 11.337L18.2344 7.53281L20.1365 8.15084" fill="white"/>
<path d="M15.543 6.86432L18.779 9.21546L19.9546 7.59743" fill="white"/>
<path d="M15.543 6.86432H19.543V8.86432" fill="white"/>
<path d="M35.3477 20.1006L31.5434 18.8646L30.9254 20.7667" fill="white"/>
<path d="M35.3477 20.1006L31.5434 21.3367L30.9254 19.4346" fill="white"/>
<path d="M32.5859 23.9048V19.9048H30.5859" fill="white"/>
<path d="M32.5859 23.9048L30.2348 20.6687L31.8528 19.4931" fill="white"/>
<path d="M28.1133 22.4512L31.9175 21.2151L31.2995 19.313" fill="white"/>
<path d="M28.1133 22.4512L30.4644 19.2151L32.0825 20.3907" fill="white"/>
<path d="M28.1113 17.7495L30.4625 20.9856L32.0805 19.81" fill="white"/>
<path d="M28.1113 17.7495L31.9156 18.9856L31.2975 20.8877" fill="white"/>
<path d="M32.584 16.2964L30.2328 19.5325L31.8509 20.708" fill="white"/>
<path d="M32.584 16.2964V20.2964H30.584" fill="white"/>
<path d="M19.3479 36.1006L20.584 32.2964L18.6819 31.6783" fill="white"/>
<path d="M19.3479 36.1006L18.1118 32.2964L20.0139 31.6783" fill="white"/>
<path d="M15.5447 33.3363H19.5447V31.3363" fill="white"/>
<path d="M15.5447 33.3363L18.7807 30.9852L19.9563 32.6032" fill="white"/>
<path d="M16.998 28.8648L18.2341 32.669L20.1362 32.051" fill="white"/>
<path d="M16.998 28.8648L20.2341 31.2159L19.0585 32.834" fill="white"/>
<path d="M21.7007 28.8647L18.4646 31.2159L19.6402 32.8339" fill="white"/>
<path d="M21.7007 28.8647L20.4646 32.669L18.5625 32.0509" fill="white"/>
<path d="M23.1526 33.3367L19.9165 30.9855L18.7409 32.6036" fill="white"/>
<path d="M23.1526 33.3367H19.1526V31.3367" fill="white"/>
<path d="M3.3479 20.1014L7.15213 21.3375L7.77016 19.4354" fill="white"/>
<path d="M3.3479 20.1014L7.15213 18.8654L7.77016 20.7675" fill="white"/>
<path d="M6.11133 16.2974V20.2974H8.11133" fill="white"/>
<path d="M6.11133 16.2974L8.46247 19.5334L6.84444 20.709" fill="white"/>
<path d="M10.582 17.7505L6.7778 18.9866L7.39584 20.8887" fill="white"/>
<path d="M10.582 17.7505L8.23089 20.9866L6.61286 19.811" fill="white"/>
<path d="M10.584 22.4526L8.23284 19.2166L6.61481 20.3921" fill="white"/>
<path d="M10.584 22.4526L6.77976 21.2166L7.39779 19.3145" fill="white"/>
<path d="M6.11523 23.9058L8.46638 20.6697L6.84834 19.4941" fill="white"/>
<path d="M6.11523 23.9058V19.9058H8.11523" fill="white"/>
</g>
<defs>
<clipPath id="clip0_1_15144">
<rect width="40" height="40" rx="20" fill="white"/>
</clipPath>
</defs>
</svg>
