<svg width="40" height="40" viewBox="0 0 40 40" fill="none" xmlns="http://www.w3.org/2000/svg">
<g clip-path="url(#clip0_1_15210)">
<rect width="40" height="40" rx="20" fill="#69B3E7"/>
<path d="M39.8784 6.94678H-0.0976562V33.7236H39.8784V6.94678Z" fill="#012169"/>
<path d="M-0.0976562 6.94678L19.8904 20.3352L-0.0976562 6.94678ZM-0.0976562 20.3352L19.8904 6.94678L-0.0976562 20.3352Z" fill="black"/>
<path d="M-0.0976562 6.94678L19.8904 20.3352M-0.0976562 20.3352L19.8904 6.94678" stroke="white" stroke-width="2.31347"/>
<mask id="mask0_1_15210" style="mask-type:luminance" maskUnits="userSpaceOnUse" x="-1" y="6" width="25" height="19">
<path d="M-0.103516 6.94775V13.642H23.2158V20.3362H19.8845L-0.103516 6.94775ZM-0.103516 20.3362V24.799H9.89049V6.94775H19.8845L-0.103516 20.3362Z" fill="white"/>
</mask>
<g mask="url(#mask0_1_15210)">
<path d="M-0.103516 6.94775L19.8845 20.3362L-0.103516 6.94775ZM-0.103516 20.3362L19.8845 6.94775L-0.103516 20.3362Z" fill="black"/>
<path d="M-0.103516 6.94775L19.8845 20.3362M-0.103516 20.3362L19.8845 6.94775" stroke="#C8102E" stroke-width="1.54232"/>
</g>
<path d="M9.89635 6.94678V24.798V6.94678ZM-0.0976562 13.641H23.2217H-0.0976562Z" fill="black"/>
<path d="M9.89635 6.94678V24.798M-0.0976562 13.641H23.2217" stroke="white" stroke-width="3.85579"/>
<path d="M9.89635 6.94678V24.798V6.94678ZM-0.0976562 13.641H23.2217H-0.0976562Z" fill="black"/>
<path d="M9.89635 6.94678V24.798M-0.0976562 13.641H23.2217" stroke="#C8102E" stroke-width="2.31347"/>
<path d="M-0.0976562 20.3352H19.9496V6.94678H39.9969V33.7236H-0.0976562V20.3352Z" fill="#69B3E7"/>
<path d="M24.5918 13.4873V22.6024C24.5918 25.5837 29.9785 27.354 29.9785 27.354C29.9785 27.354 35.3651 25.5836 35.3651 22.6024V13.4873H24.5918Z" fill="white"/>
<path d="M29.2318 16.6899V20.7941H24.5918V22.2874H29.2318V27.0696L29.9785 27.3539L30.7251 27.0696V22.2874H35.3651V20.7941H30.7251V16.6899H29.2318Z" fill="#C8102E"/>
<path d="M24.5918 13.4873H35.3651V17.0073H24.5918V13.4873Z" fill="#C8102E"/>
<path d="M25.4531 16.1201C25.7875 16.1201 26.0586 15.902 26.0586 15.6329C26.0586 15.3638 25.7875 15.1457 25.4531 15.1457C25.1187 15.1457 24.8477 15.3638 24.8477 15.6329C24.8477 15.902 25.1187 16.1201 25.4531 16.1201Z" fill="white" stroke="black" stroke-width="0.0356889" stroke-miterlimit="3"/>
<path d="M25.4544 15.6521C25.7518 15.6521 25.9928 15.5302 25.9928 15.3799C25.9928 15.2296 25.7518 15.1078 25.4544 15.1078C25.1571 15.1078 24.916 15.2296 24.916 15.3799C24.916 15.5302 25.1571 15.6521 25.4544 15.6521Z" fill="white" stroke="black" stroke-width="0.0357778" stroke-miterlimit="3"/>
<path d="M25.4544 16.196C25.7518 16.196 25.9928 16.0742 25.9928 15.9239C25.9928 15.7736 25.7518 15.6517 25.4544 15.6517C25.1571 15.6517 24.916 15.7736 24.916 15.9239C24.916 16.0742 25.1571 16.196 25.4544 16.196Z" fill="white" stroke="black" stroke-width="0.0357778" stroke-miterlimit="3"/>
<path d="M25.4544 15.9045C25.7518 15.9045 25.9928 15.7827 25.9928 15.6324C25.9928 15.4821 25.7518 15.3602 25.4544 15.3602C25.1571 15.3602 24.916 15.4821 24.916 15.6324C24.916 15.7827 25.1571 15.9045 25.4544 15.9045Z" fill="white" stroke="black" stroke-width="0.0357778" stroke-miterlimit="3"/>
<path d="M35.0983 16.3093L35.0101 16.0659C35.0101 16.0659 34.7686 15.9674 34.7502 15.8391C34.7072 15.4972 34.5852 15.369 34.4022 15.3201C34.2189 15.2713 34.097 15.3507 34.097 15.3507C34.0419 15.4301 33.767 15.4301 33.6144 15.4361C33.4617 15.4423 33.4591 15.3698 33.4591 15.3698C33.3406 15.3707 33.2907 15.2835 33.2907 15.2835C33.2131 15.1285 33.1553 15.0706 33.117 15.0509C33.3151 15.0539 33.4643 14.9625 33.6878 14.7278C33.932 14.4713 34.1063 14.5705 34.1063 14.5705C33.9878 14.81 34.1457 14.7889 34.1457 14.7889C34.4693 14.6242 34.1884 14.2088 34.0907 14.2272C33.9931 14.2454 33.9652 14.1796 33.9652 14.1796C33.9682 14.2542 33.8568 14.2839 33.8568 14.2839C33.9403 13.8095 33.6572 13.6837 33.6572 13.6837C33.6144 13.7264 33.5899 13.8118 33.5899 13.8118C33.5106 14.0989 33.2481 14.0562 32.9548 13.9156C32.6617 13.7753 31.8801 14.0623 31.636 14.1599C31.3915 14.2577 30.9459 14.4103 30.5428 14.1844C30.14 13.9583 30.042 14.0011 29.8833 14.0439C29.7245 14.0866 29.4439 14.1539 29.3401 14.0988C29.2362 14.0439 29.1178 14.0405 29.1178 14.0405C29.1461 14.0247 29.1019 13.9584 29.1019 13.9584C28.9798 13.7936 29.1178 13.6926 29.1178 13.6926C29.1178 13.6926 28.8905 13.7566 28.9809 14.1445L29.0224 14.2027C29.0224 14.2027 29.0529 14.3248 29.1202 14.3615L29.1178 14.3882C29.1178 14.3882 29.1753 14.3614 29.1934 14.4408C29.2119 14.5201 29.2974 14.4469 29.334 14.3798C29.334 14.3798 29.2728 14.734 29.7126 14.8194C29.7126 14.8194 29.6634 14.7644 29.6818 14.7278C29.7001 14.6912 29.627 14.6604 29.6332 14.6056C29.6392 14.5508 29.5234 14.5264 29.6148 14.4834C29.7063 14.4407 29.7493 14.3552 29.9446 14.4712C30.1399 14.5873 30.2927 14.5629 30.2927 14.5629C30.2927 14.5629 30.1736 14.3184 30.2392 14.3186C30.3049 14.3187 30.6002 14.6843 30.7456 14.6663C30.8911 14.6483 31.172 14.4834 31.3125 14.5445C31.3125 14.5445 31.3245 14.4712 31.8618 14.3796C32.3992 14.288 33.0621 14.0202 33.3107 14.2548C33.3107 14.2548 33.3397 14.4407 33.4434 14.4896C33.4434 14.4896 33.4248 14.8743 32.7596 14.6604L32.5183 14.5969C32.5183 14.5969 32.4812 14.4801 31.2159 14.8055C31.2159 14.8055 31.1414 14.8315 31.0926 14.8682C31.0436 14.9047 30.9764 14.8498 30.726 14.9413C30.4759 15.0331 29.5414 15.3385 28.9676 15.2284L28.9669 15.23C28.8405 15.1922 28.7221 15.2117 28.7173 15.1918C28.7111 15.1674 28.7845 15.198 28.7845 15.198C28.7419 15.149 28.7235 15.1451 28.7235 15.1451C28.241 15.0922 28.3263 14.8742 28.3263 14.8742L28.3509 14.9415C28.4303 14.8377 28.3201 14.5935 28.3201 14.5935L28.3155 14.5942C28.3142 14.5867 28.3128 14.5793 28.311 14.572L28.3509 14.5445C28.583 14.349 28.8517 14.3124 28.8517 14.3124C28.6928 14.1171 28.3569 14.2209 28.3569 14.2209C28.3631 13.9828 28.2654 13.7079 28.2654 13.7079C27.9355 13.7446 27.7464 14.0193 27.7464 14.0193C27.7342 13.7751 27.4227 13.6348 27.4227 13.6348C27.5385 13.7751 27.4655 14.1109 27.4655 14.1109L27.4777 14.1171C27.4584 14.1166 27.4471 14.1171 27.4471 14.1171L27.4401 14.1891L27.4287 14.1843C27.4287 14.1843 27.3128 14.2269 27.1785 14.5323C27.1785 14.5323 27.1649 14.6044 27.113 14.6695C27.1126 14.6611 27.1135 14.6534 27.1124 14.6446C27.1124 14.6446 26.9624 14.8412 26.6157 14.6446C26.6157 14.6446 26.1447 14.3652 25.9791 14.3755C25.8136 14.3858 25.7047 14.4635 25.7153 14.51C25.7153 14.51 25.3373 14.4789 25.208 14.6962C25.208 14.6962 24.9235 14.7997 25.1667 15.0327C25.1667 15.0327 25.1993 15.1339 25.2701 15.1881C25.2701 15.1881 25.26 14.9755 25.3116 15.038C25.3116 15.038 25.3249 15.0589 25.3504 15.0736C25.3572 15.1034 25.38 15.1863 25.4305 15.2284L25.467 15.2169C25.4725 15.1638 25.484 15.0969 25.4958 15.0687C25.5013 15.0694 25.5057 15.0701 25.5078 15.0703C25.5062 15.0718 25.5047 15.0727 25.5031 15.0741L25.5704 15.1776L25.6479 15.1362C25.6843 15.1309 25.7308 15.1673 25.7308 15.1673L25.8188 15.0948C25.8182 15.094 25.8177 15.0939 25.8172 15.093C25.9038 15.1075 25.9275 14.9395 25.9275 14.9395C26.0054 14.96 26.0782 14.9371 26.1401 14.8995C26.1779 15.0388 26.4864 15.1882 26.4864 15.1882C26.4864 15.1882 26.4918 15.1877 26.4997 15.1871C26.4736 15.2038 26.4581 15.2163 26.4581 15.2163C26.5984 15.3142 26.8611 15.2897 26.8611 15.2897C26.7512 15.3325 26.7666 15.5358 26.7666 15.5358C26.7024 15.5621 26.6961 15.6255 26.6961 15.6255C26.9099 15.7108 27.0559 15.6402 27.0559 15.6402C27.0677 15.7097 27.0504 15.7171 27.0504 15.7171C26.9649 15.9003 26.9283 16.0773 26.9283 16.0773C26.9302 16.0781 26.9324 16.0786 26.9342 16.0792C26.9316 16.084 26.9283 16.0887 26.9263 16.0936C26.9263 16.0936 26.5537 16.2229 26.3881 16.4041C26.3881 16.4041 26.3725 16.3523 26.3259 16.3523C26.2794 16.3523 26.1344 16.2334 26.0671 16.2126C26 16.192 25.9016 16.2334 25.8757 16.2024C25.8523 16.1741 25.8628 15.9621 25.818 15.928C25.8181 15.928 25.8188 15.9281 25.8188 15.9281L25.7722 15.7988C25.7412 15.866 25.6118 15.8504 25.6118 15.8504C25.6067 15.8535 25.5868 15.868 25.5587 15.889C25.5328 15.8904 25.5031 15.8815 25.5031 15.8815C25.4899 15.8842 25.4767 15.9215 25.4671 15.9577C25.4619 15.9616 25.4566 15.9656 25.4514 15.9696V15.9333C25.4256 15.9539 25.3739 15.9229 25.3531 15.9229C25.3429 15.9229 25.3304 15.9526 25.3202 15.983C25.2676 15.9928 25.1978 15.9954 25.1978 15.9954C25.1771 16.0057 25.1925 16.1662 25.1925 16.1662C25.0426 16.249 25.1149 16.3731 25.1149 16.3731C25.1978 16.7768 25.886 16.5957 25.9378 16.6475C25.9894 16.6993 26.1086 16.7095 26.1707 16.7095C26.2327 16.7095 26.3102 16.8597 26.3983 16.8752C26.4864 16.8907 26.3984 16.7562 26.8065 16.6587C27.2144 16.5612 27.3504 16.3939 27.3504 16.3939C27.4782 16.3693 27.5138 16.2139 27.5233 16.1512C27.5245 16.1801 27.528 16.2121 27.5326 16.2486C27.551 16.389 27.4539 16.4402 27.4539 16.4402L27.8075 16.3341C27.9478 16.2974 27.9296 16.1752 27.9296 16.1752C28.0639 16.5599 28.3082 16.5843 28.3082 16.5843C28.357 16.4377 28.351 16.395 28.351 16.395L28.4609 16.389C28.4653 16.3062 28.3922 16.2456 28.3499 16.2175L28.5219 16.3218L28.5889 16.3096C28.5889 16.3706 28.6805 16.4255 28.6805 16.4255L28.6929 16.3463C28.7723 16.4501 28.9188 16.4134 28.9188 16.4134C28.9159 16.3949 28.9114 16.3758 28.9059 16.3563C29.2188 16.5495 29.7186 16.3035 29.7186 16.3035C29.8529 16.334 29.8712 16.2546 29.8712 16.2546C30.0239 16.2728 30.0593 16.1685 30.0593 16.1685C30.4185 16.1374 30.6714 15.882 30.6714 15.882C30.8483 15.8698 30.854 15.7433 30.854 15.7433C30.854 15.7433 31.0314 15.7783 31.2025 15.5645C31.5993 14.9967 32.1927 15.2923 32.1927 15.2923L31.8496 15.3141C30.9521 15.308 31.3242 15.9184 31.3242 15.9184L31.3795 15.9125C31.465 15.9308 31.7579 16.1629 31.6499 16.3357C31.6482 16.3388 31.6459 16.3416 31.6439 16.3443C31.4609 16.5948 31.122 16.3559 31.0255 16.1445C30.9276 15.9309 30.7322 15.9798 30.7322 15.9798C30.7322 15.9798 30.2255 16.0653 30.433 16.4683L30.4406 16.4685C30.4444 16.5669 30.5062 16.6789 30.6869 16.7903C30.7884 16.9339 31.1222 16.9489 31.3673 16.8958C31.4814 16.8709 32.0834 16.612 32.0834 16.612C32.1276 16.4809 32.2772 16.5111 32.4115 16.3218C32.5458 16.1326 32.2222 16.0653 32.1489 15.9616C32.0755 15.8577 32.1673 15.8761 32.1673 15.8761C32.4603 16.0349 32.4847 15.528 32.4847 15.528C32.5153 15.821 32.7717 15.9004 32.7717 15.9004C32.9306 15.7418 32.8147 15.4181 32.8147 15.4181C33.1933 16.0959 33.4226 15.988 33.4226 15.988C33.2188 15.8618 33.3214 15.6929 33.3214 15.6929C33.5044 16.4134 34.2557 15.7845 34.2557 15.7845C34.219 15.8882 34.2559 15.9492 34.3229 16.0164C34.39 16.0836 34.4694 16.1141 34.433 16.2363C34.3962 16.3584 34.0484 16.334 34.0484 16.334C34.0484 16.334 33.7062 16.3158 33.737 16.6028C33.7549 16.6698 33.981 16.6942 34.0665 16.676C34.0665 16.676 34.0312 16.6837 34.1576 16.7006C34.2 16.706 34.2511 16.7069 34.3032 16.7052C34.4489 16.7008 34.6041 16.676 34.6041 16.676C34.7992 16.6334 34.7688 16.566 34.7688 16.566C35.0677 16.5109 35.0985 16.3093 35.0985 16.3093L35.0983 16.3093Z" fill="#FEDD00" stroke="black" stroke-width="0.0533333" stroke-miterlimit="3"/>
<path d="M25.1786 15.0583C25.1789 15.058 25.1947 15.0206 25.2248 15.0161C25.2481 15.0127 25.2763 15.0299 25.3061 15.0661L25.3224 15.0538C25.3217 15.0526 25.2418 14.9362 25.2737 14.8541C25.2879 14.8174 25.3232 14.7923 25.3784 14.7799L25.3739 14.7598C25.3116 14.7741 25.2715 14.8033 25.2546 14.8468C25.2483 14.863 25.2456 14.8801 25.2456 14.8973C25.2456 14.9374 25.2598 14.9781 25.2743 15.0094C25.2562 14.998 25.2386 14.9933 25.2217 14.9959C25.191 15.0005 25.1761 15.0226 25.168 15.037L25.1786 15.0583Z" fill="black"/>
<path d="M34.6015 16.6578C34.3975 16.6901 34.098 16.708 34.0742 16.6463C34.07 16.6354 34.0693 16.5913 34.2363 16.4826L34.2169 16.4526C34.0775 16.5434 34.0214 16.609 34.0409 16.6591C34.0836 16.7702 34.5208 16.7068 34.6081 16.6929L34.6015 16.6578Z" fill="black"/>
<path d="M30.6988 16.7756C30.6523 16.7045 30.6732 16.607 30.7609 16.4857L30.732 16.4648C30.6345 16.599 30.6133 16.7103 30.6688 16.7952L30.6988 16.7756Z" fill="black"/>
<path d="M30.4257 16.468C30.4302 16.5911 30.5171 16.7053 30.6835 16.8072L30.7022 16.7767C30.5464 16.6815 30.4656 16.5771 30.4614 16.4668C30.4553 16.2974 30.6343 16.1667 30.636 16.1653L30.6152 16.1362C30.6071 16.1419 30.4188 16.2792 30.4257 16.468Z" fill="black"/>
<path d="M33.9031 16.5136C33.8472 16.5962 33.8659 16.6963 33.8666 16.7005L33.9017 16.6936C33.9014 16.6927 33.8851 16.6036 33.9329 16.5335C33.9616 16.4913 34.0079 16.4639 34.0706 16.452L34.0641 16.4169C33.9915 16.4307 33.9375 16.4632 33.9031 16.5136Z" fill="black"/>
<path d="M25.9311 14.9516L25.92 14.9488L25.9185 14.9602C25.9182 14.9613 25.9026 15.0697 25.8535 15.0992C25.8397 15.1074 25.8249 15.1083 25.8078 15.102L25.7243 15.0513C25.7076 15.0366 25.6934 15.0258 25.6693 15.0329C25.6645 15.0267 25.6454 15.0007 25.6454 14.959C25.6454 14.9544 25.6457 14.9494 25.6464 14.9444C25.6523 14.8955 25.6864 14.8483 25.7481 14.8043L25.7364 14.7876C25.6695 14.8354 25.6325 14.8873 25.626 14.9423C25.6185 15.006 25.6554 15.0492 25.657 15.0511L25.6619 15.0568L25.6687 15.0537C25.6873 15.0455 25.6927 15.0504 25.7107 15.0664L25.8008 15.1211C25.8237 15.1296 25.8449 15.128 25.864 15.1166C25.9149 15.0861 25.9327 14.9975 25.9369 14.9728C26.1536 15.0194 26.3281 14.756 26.3356 14.7446L26.3183 14.7334C26.3168 14.7362 26.1387 15.006 25.9311 14.9516Z" fill="black"/>
<path d="M25.4111 14.9109C25.4003 14.9548 25.4077 14.9979 25.4327 15.039C25.4567 15.078 25.4803 15.0988 25.5048 15.102C25.5348 15.1062 25.5588 15.084 25.5799 15.0645C25.5952 15.0501 25.6099 15.0367 25.6219 15.0376L25.6405 15.0505L25.6565 15.0377L25.6233 15.0172C25.6023 15.0157 25.5847 15.032 25.566 15.0495C25.5472 15.0667 25.528 15.0848 25.5076 15.0819C25.4898 15.0795 25.4706 15.0614 25.4502 15.0283C25.4282 14.9921 25.4215 14.9541 25.4309 14.9158C25.4542 14.8192 25.5699 14.7481 25.5711 14.7474L25.5606 14.73C25.5554 14.733 25.4365 14.8059 25.4111 14.9109Z" fill="black"/>
<path d="M25.1135 16.2917C25.1239 16.2543 25.1526 16.2224 25.1988 16.1968C25.1897 16.1976 25.2441 16.2419 25.2908 16.2369C25.2908 16.2369 25.3097 16.2268 25.3211 16.2206C25.3334 16.2312 25.4142 16.3048 25.4142 16.398C25.4142 16.4176 25.4107 16.4377 25.4019 16.4581L25.4208 16.4661C25.4799 16.3261 25.3312 16.2019 25.3299 16.2006L25.3244 16.1963L25.3152 16.2022L25.2887 16.2166C25.2505 16.2206 25.2008 16.1802 25.2004 16.1799C25.1377 16.2072 25.1056 16.2434 25.0938 16.2865L25.1135 16.2917Z" fill="black"/>
<path d="M25.8042 15.9343C25.7595 15.9381 25.6352 15.9618 25.5946 16.0263C25.58 16.0497 25.5778 16.0755 25.5885 16.1033L25.6048 16.1467C25.6435 16.2509 25.6837 16.3585 25.7275 16.3829L25.7375 16.365C25.7002 16.3444 25.6597 16.2356 25.6239 16.1397L25.6077 16.0962C25.5993 16.0743 25.6007 16.055 25.6119 16.0372C25.6452 15.9843 25.757 15.9587 25.8059 15.9547C25.8344 15.9524 25.8437 16.0575 25.8493 16.1203L25.8696 16.1185C25.8615 16.0259 25.8529 15.9302 25.8042 15.9343Z" fill="black"/>
<path d="M25.4626 16.0359C25.4365 16.0592 25.4417 16.0944 25.4421 16.096C25.4423 16.1056 25.4539 16.3656 25.5774 16.4194L25.5855 16.4007C25.4737 16.352 25.4625 16.0965 25.4623 16.0939C25.4623 16.0924 25.4586 16.0666 25.4764 16.051C25.4951 16.0344 25.5323 16.0331 25.584 16.0473L25.5894 16.0277C25.5298 16.0112 25.4872 16.0139 25.4626 16.0359Z" fill="black"/>
<path d="M25.3648 16.0579C25.3102 16.0959 25.3125 16.2044 25.3125 16.209L25.333 16.2086C25.333 16.2075 25.3309 16.1063 25.3765 16.0747C25.3935 16.0629 25.4159 16.0624 25.4432 16.0734L25.4508 16.0545C25.4168 16.0407 25.3878 16.0418 25.3648 16.0579Z" fill="black"/>
<path d="M28.3033 14.6229C28.3042 14.6246 28.3615 14.7538 28.3615 14.8587C28.3615 14.8773 28.3527 14.8905 28.3486 14.9068C28.3463 14.9007 28.3263 14.846 28.3263 14.846L28.309 14.8899C28.3082 14.8924 28.2857 14.9514 28.326 15.018C28.3793 15.1059 28.5121 15.1622 28.7208 15.1851H28.7207C28.7207 15.1852 28.7233 15.1875 28.7237 15.1879C28.715 15.1891 28.7085 15.1915 28.7065 15.1934L28.6982 15.2005L28.6993 15.2183C28.7047 15.2399 28.7294 15.241 28.7785 15.2429C28.7869 15.2433 28.8004 15.2453 28.8099 15.2458C28.8221 15.2492 28.8347 15.2526 28.8347 15.2526C28.8347 15.2526 28.8312 15.2487 28.8305 15.2478C28.8781 15.2511 28.9316 15.2628 28.9896 15.2845C28.9768 15.2879 28.9454 15.2957 28.9454 15.2957L28.9971 15.3161C29.0009 15.3176 29.3814 15.4705 29.5389 15.5962C29.4942 15.635 29.3034 15.7775 28.9728 15.6961L28.9175 15.6825L28.955 15.7254C28.9573 15.7279 29.1726 15.9749 29.2173 16.1246C29.1423 16.1254 28.8535 16.1228 28.7525 16.037L28.7264 16.0608C28.7278 16.063 28.8649 16.2641 28.8955 16.421C28.8562 16.4262 28.7621 16.43 28.7065 16.3573L28.6809 16.3239C28.6809 16.3239 28.6705 16.3913 28.6669 16.4145C28.6401 16.3942 28.6062 16.3639 28.6062 16.3315V16.3102C28.6062 16.3102 28.5354 16.323 28.5248 16.3249C28.5153 16.3193 28.3981 16.2481 28.3574 16.2235C28.343 16.2142 28.3336 16.2088 28.3305 16.2073C28.3303 16.2071 28.329 16.2063 28.329 16.2063L28.3277 16.2056L28.3104 16.2369C28.3104 16.2369 28.3304 16.2488 28.3361 16.2524C28.3719 16.2758 28.4332 16.3267 28.4394 16.3941C28.413 16.3957 28.3306 16.4001 28.3306 16.4001L28.3327 16.4191V16.4221C28.3327 16.4333 28.3291 16.48 28.2949 16.5856C28.2435 16.5733 28.0563 16.5081 27.9457 16.1912L27.9113 16.1997C27.9114 16.2006 27.9119 16.2048 27.9119 16.2115C27.9119 16.2404 27.9017 16.3128 27.8023 16.3386C27.8017 16.3388 27.6178 16.3941 27.5155 16.4247C27.5347 16.3973 27.5522 16.3598 27.5522 16.3054C27.5522 16.2938 27.5514 16.2814 27.5499 16.2681C27.5437 16.2221 27.54 16.1838 27.54 16.1518C27.54 16.0851 27.5563 16.0453 27.6024 16.0171L27.5864 15.9852C27.582 15.9869 27.1589 16.155 26.9491 16.0852C26.9587 16.0443 26.9942 15.9003 27.0659 15.7468L27.0566 15.7556C27.0703 15.7497 27.0844 15.7282 27.0728 15.6593L27.069 15.6358L27.0475 15.6462C27.0461 15.6468 26.9118 15.7068 26.7178 15.6357C26.7218 15.6198 26.7321 15.5912 26.7727 15.5743L26.7846 15.5695L26.7835 15.5566C26.7835 15.5561 26.783 15.5471 26.783 15.5329C26.783 15.4806 26.7912 15.3579 26.8666 15.3284L26.8586 15.2939C26.8561 15.2942 26.6292 15.3124 26.4916 15.2358C26.5277 15.2109 26.6035 15.1651 26.6918 15.1524L26.7059 15.1503L26.7069 15.1362C26.7071 15.1355 26.7074 15.1313 26.7074 15.1247C26.7074 15.1068 26.7005 15.0705 26.6847 15.034C26.7371 15.0486 26.7998 15.0617 26.8221 15.0451L26.8297 15.0393L26.8231 14.9016L26.7875 14.9033C26.7875 14.9033 26.7918 14.9947 26.7929 15.0172C26.7705 15.0184 26.7134 15.007 26.658 14.9894L26.6032 14.972L26.6385 15.0175C26.6672 15.0543 26.6708 15.1001 26.6713 15.1211C26.5473 15.1441 26.4501 15.2212 26.446 15.2246L26.4277 15.2396L26.447 15.2531C26.5537 15.3274 26.7205 15.3339 26.8062 15.332C26.7557 15.3888 26.7471 15.484 26.7471 15.5316C26.7471 15.5414 26.7475 15.544 26.7476 15.5488C26.687 15.5815 26.6779 15.6429 26.6775 15.6457L26.6762 15.6591L26.6887 15.6643C26.8721 15.7373 26.9972 15.7021 27.0397 15.6863C27.04 15.692 27.0413 15.6998 27.0413 15.7038C27.0413 15.7206 27.0382 15.7257 27.0382 15.7257C26.9481 15.9145 26.9104 16.094 26.9099 16.0957L26.907 16.1105L26.9209 16.1161C27.091 16.1841 27.3967 16.0912 27.5321 16.0435C27.5143 16.0741 27.504 16.1085 27.504 16.1514C27.504 16.1873 27.5083 16.2278 27.5143 16.2728C27.5159 16.2842 27.5165 16.2948 27.5165 16.3049C27.5165 16.4063 27.448 16.4446 27.4448 16.4463L27.4584 16.4792L27.8119 16.3731C27.8937 16.3518 27.9244 16.3035 27.9374 16.2624C28.0769 16.5933 28.2959 16.6231 28.3056 16.6242L28.3199 16.6254L28.3243 16.612C28.3584 16.5103 28.3662 16.4587 28.3677 16.4338C28.3914 16.4327 28.4772 16.4279 28.4772 16.4279L28.4781 16.4119C28.4783 16.4091 28.4783 16.4064 28.4783 16.4038C28.4783 16.3745 28.4691 16.3487 28.4565 16.3254C28.4786 16.3388 28.5177 16.3625 28.5177 16.3625C28.5177 16.3625 28.5582 16.3551 28.5762 16.3518C28.5915 16.4109 28.6617 16.4573 28.6708 16.4629L28.6935 16.4765C28.6935 16.4765 28.7019 16.4227 28.7054 16.3992C28.7927 16.4773 28.9167 16.4541 28.9225 16.4526L28.9382 16.4486L28.9359 16.4327C28.9181 16.3133 28.8379 16.1711 28.7907 16.0951C28.9459 16.1657 29.2285 16.1605 29.2424 16.1601L29.2635 16.1593L29.2593 16.1387C29.2343 16.0132 29.0774 15.8155 29.0118 15.7369C29.3763 15.8054 29.5721 15.6163 29.5805 15.6077L29.5933 15.5941L29.5792 15.5817C29.4566 15.475 29.1742 15.3511 29.0608 15.3037C29.0669 15.3021 29.1005 15.2936 29.1005 15.2936L29.0612 15.2717C28.9664 15.2183 28.8658 15.2117 28.7978 15.2088L28.7975 15.2083C28.7543 15.1589 28.7324 15.151 28.7268 15.1497C28.4803 15.1225 28.39 15.0535 28.3572 15.0001C28.3544 14.9958 28.3558 14.9928 28.3538 14.9885C28.3591 14.9814 28.3646 14.9744 28.3646 14.9744C28.3884 14.9434 28.3969 14.902 28.3969 14.8581C28.3969 14.7449 28.3394 14.6156 28.3361 14.6081L28.3033 14.6229H28.3033Z" fill="black"/>
<path d="M27.169 14.5501C27.1683 14.5536 27.142 14.6887 27.027 14.752C26.9405 14.7996 26.8261 14.7957 26.6875 14.7402L26.6719 14.734L26.6735 14.7507C26.6739 14.7542 26.683 14.8335 26.7578 14.8917C26.8201 14.9402 26.9093 14.9572 27.021 14.945C26.9837 14.9894 26.8636 15.1429 26.8636 15.2918C26.8636 15.2996 26.864 15.3075 26.8648 15.3152C26.8801 15.3262 27.0683 15.3772 27.1556 15.2656C27.1587 15.3135 27.1725 15.4666 27.2322 15.5265C27.265 15.5591 27.2727 15.6067 27.2727 15.6447C27.2727 15.679 27.2662 15.7055 27.2662 15.706L27.2594 15.7333L27.2822 15.7167C27.2894 15.7114 27.4625 15.5847 27.5178 15.4186C27.5176 15.4191 27.5455 15.377 27.5989 15.3598C27.5978 15.367 27.5969 15.3744 27.5969 15.3848C27.5969 15.4489 27.625 15.5654 27.8118 15.6368L27.8271 15.6427L27.8257 15.6264C27.8256 15.626 27.8245 15.6132 27.8245 15.5941C27.8245 15.5472 27.831 15.4611 27.8757 15.4165C27.905 15.3871 27.9138 15.3541 27.9138 15.3254C27.9138 15.3029 27.9089 15.2846 27.9038 15.2712C27.9415 15.2807 28.0307 15.3095 28.067 15.3774C28.1197 15.4762 28.3042 15.3976 28.3121 15.3943L28.3058 15.3749C28.305 15.375 28.2282 15.3922 28.1797 15.359C28.1584 15.3443 28.1456 15.3217 28.1411 15.2918L28.1326 15.1892C28.1307 15.1426 28.1242 15.1131 28.1009 15.0882C28.1253 15.086 28.1743 15.0869 28.195 15.1327C28.2276 15.2046 28.3395 15.2116 28.3441 15.2119L28.3824 15.214L28.3503 15.1932C28.3492 15.1925 28.2526 15.1284 28.2693 15.0449L28.2832 14.9837C28.3097 14.8735 28.3537 14.6889 28.3178 14.5757L28.2984 14.5819C28.3072 14.6102 28.3109 14.6437 28.3109 14.6795C28.3109 14.7799 28.2825 14.8992 28.2633 14.979L28.2492 15.0409C28.2475 15.049 28.2469 15.0572 28.2469 15.0649C28.2469 15.119 28.282 15.1602 28.3094 15.1851C28.2765 15.178 28.2309 15.1623 28.2137 15.1242C28.1869 15.0653 28.1147 15.0625 28.0802 15.0695L28.0561 15.0744L28.0767 15.088C28.1091 15.1097 28.1101 15.1349 28.1124 15.19L28.121 15.2948C28.1261 15.3305 28.142 15.3578 28.1681 15.3758C28.191 15.3914 28.2177 15.3936 28.2422 15.3953C28.1873 15.4096 28.1122 15.4185 28.0852 15.3678C28.0343 15.273 27.8945 15.2477 27.8886 15.2466L27.8673 15.2429L27.878 15.2616C27.8791 15.2637 27.8938 15.2906 27.8938 15.3248C27.8938 15.3491 27.8864 15.3769 27.8613 15.402C27.8117 15.452 27.8041 15.5427 27.8041 15.5929C27.8041 15.6027 27.8046 15.6041 27.8047 15.6101C27.6449 15.5429 27.6167 15.4434 27.6167 15.3871C27.6167 15.3632 27.6213 15.3472 27.622 15.3452L27.6266 15.3294L27.6104 15.3321C27.5328 15.3449 27.5005 15.4081 27.4991 15.4108C27.4548 15.5438 27.3343 15.649 27.2906 15.6841C27.292 15.673 27.2936 15.66 27.2936 15.6443C27.2936 15.6028 27.2846 15.5498 27.2469 15.512C27.1834 15.4485 27.1748 15.2465 27.1748 15.2445L27.1734 15.208L27.1556 15.2397C27.0853 15.3656 26.8801 15.3052 26.8781 15.3046C26.8694 15.1455 27.0499 14.942 27.0518 14.9399L27.0706 14.9189L27.0428 14.923C26.9249 14.9401 26.8334 14.9243 26.7707 14.8759C26.7216 14.8378 26.7039 14.7893 26.6976 14.7648C26.8343 14.8158 26.949 14.8186 27.0373 14.7698C27.1606 14.7017 27.1876 14.5621 27.1887 14.5562C27.3182 14.2626 27.4313 14.2162 27.4325 14.2159L27.4254 14.1968C27.4203 14.1985 27.3037 14.2445 27.169 14.5501Z" fill="black"/>
<path d="M27.4653 14.1153L27.4566 14.1156L27.3516 14.2596L27.3828 14.2627C27.9529 14.3182 28.2545 14.6622 28.2574 14.6658L28.2706 14.6811L28.3739 14.5687L28.3663 14.5572C28.0772 14.1019 27.4714 14.1151 27.4653 14.1153ZM27.475 14.1511C27.5455 14.1512 28.0649 14.1673 28.3279 14.5658C28.315 14.5797 28.2863 14.6111 28.271 14.6279C28.2094 14.564 27.9172 14.2909 27.416 14.232C27.4355 14.2053 27.4678 14.161 27.475 14.1511Z" fill="black"/>
<path d="M27.3818 14.4166C27.3331 14.483 27.2878 14.5813 27.2878 14.6274C27.2878 14.6362 27.2895 14.6431 27.2933 14.6475C27.2936 14.6479 27.2953 14.6481 27.2959 14.6487C27.2365 14.702 27.2012 14.7908 27.2012 14.8913C27.2012 14.9465 27.2109 15.0041 27.2315 15.0589L27.2429 15.0898C27.2988 15.242 27.347 15.3735 27.589 15.2961C27.8221 15.2217 27.8312 15.2067 27.8899 15.1099L27.9052 15.0849C27.9372 15.0329 27.9722 15.0225 28.0094 15.0114C28.0538 14.9981 28.0998 14.9844 28.1401 14.9047L28.1794 14.8459C28.2217 14.7876 28.2746 14.7153 28.2809 14.6227L28.2605 14.6213C28.2546 14.7079 28.2036 14.7777 28.1628 14.8338L28.1219 14.8954C28.0854 14.9673 28.0457 14.9791 28.0035 14.9917C27.9642 15.0034 27.9239 15.0155 27.8877 15.0741L27.8723 15.0993C27.8158 15.1924 27.8086 15.2044 27.5828 15.2767C27.3594 15.3482 27.3186 15.2367 27.262 15.0828L27.2506 15.0516C27.1869 14.8819 27.2367 14.7108 27.3195 14.6494L27.3479 14.6283C27.3479 14.6283 27.3127 14.6323 27.3085 14.6328C27.3081 14.6311 27.3076 14.6296 27.3076 14.6269C27.3076 14.5992 27.3379 14.5109 27.3982 14.4285C27.4497 14.3584 27.5711 14.2889 27.5724 14.2882L27.5622 14.2705C27.5571 14.2735 27.4357 14.3429 27.3818 14.4166Z" fill="black"/>
<path d="M27.2715 15.0294C27.3115 15.0571 27.3678 15.0552 27.4356 15.0294C27.436 15.0536 27.4413 15.1049 27.4835 15.1422C27.5331 15.1861 27.6153 15.1946 27.728 15.1677L27.7232 15.1479C27.6176 15.1731 27.5415 15.166 27.4971 15.127C27.4495 15.085 27.4561 15.0181 27.4563 15.0176L27.4581 15.0001L27.4419 15.0069C27.3736 15.0364 27.3202 15.0381 27.2831 15.0125C27.2166 14.9663 27.2216 14.8456 27.2217 14.8442L27.2013 14.8433C27.2012 14.8488 27.1956 14.9767 27.2715 15.0294Z" fill="black"/>
<path d="M27.402 14.8674C27.3728 14.8743 27.3652 14.8987 27.3652 14.9176C27.3652 14.9222 27.3657 14.9264 27.3663 14.93C27.3714 14.9825 27.4284 15.0175 27.4802 15.0325C27.5306 15.0471 27.5925 15.048 27.617 15.0167C27.6267 15.0041 27.6338 14.9816 27.6125 14.9451C27.5347 14.8128 27.4089 14.8646 27.402 14.8674ZM27.4859 15.0128C27.4406 14.9998 27.3907 14.9704 27.3867 14.9269C27.3857 14.9227 27.3808 14.8934 27.4066 14.8873L27.4086 14.8866C27.4133 14.8846 27.5247 14.8361 27.5949 14.9555C27.6074 14.9768 27.6094 14.9931 27.6008 15.0041C27.5857 15.0237 27.5361 15.0275 27.4859 15.0128ZM27.4 14.8681C27.4001 14.868 27.402 14.8673 27.402 14.8673L27.4 14.8681Z" fill="black"/>
<path d="M27.4718 15.1333C27.4587 15.245 27.4667 15.2477 27.4747 15.2502L27.4818 15.2524L27.4898 15.243L27.5546 15.1576L27.4733 15.1191L27.4718 15.1333ZM27.4905 15.15C27.5021 15.1554 27.5128 15.1605 27.5233 15.1654C27.5145 15.1767 27.4981 15.1985 27.4857 15.2148C27.486 15.198 27.4881 15.1742 27.4905 15.15Z" fill="black"/>
<path d="M27.3051 15.0436L27.3008 15.1492L27.3895 15.042L27.3056 15.0327L27.3051 15.0436ZM27.325 15.0555C27.3329 15.0564 27.3385 15.0569 27.3496 15.0581C27.3409 15.0685 27.3352 15.0755 27.3236 15.0895C27.3245 15.0731 27.3248 15.064 27.325 15.0555Z" fill="black"/>
<path d="M27.2461 15.0101C27.2468 15.0115 27.3121 15.1391 27.3236 15.1856C27.3311 15.2151 27.3688 15.2488 27.4137 15.2655C27.4585 15.2823 27.5005 15.2796 27.5319 15.2577L27.5908 15.2088C27.6104 15.1899 27.6169 15.1846 27.6328 15.1873L27.6362 15.1672C27.6095 15.1627 27.5965 15.1751 27.5767 15.194L27.5203 15.241C27.4855 15.2652 27.443 15.2549 27.4208 15.2464C27.3787 15.2308 27.3483 15.2007 27.3433 15.1805C27.3311 15.1319 27.2668 15.0064 27.2642 15.001L27.2461 15.0101Z" fill="black"/>
<path d="M27.3302 14.6274C27.2582 14.6606 27.2278 14.7479 27.2266 14.7516L27.2459 14.7583C27.2462 14.7575 27.2749 14.6753 27.3389 14.6459C27.3701 14.6316 27.405 14.632 27.443 14.647L27.4506 14.6281C27.4074 14.6107 27.3669 14.6105 27.3302 14.6274Z" fill="black"/>
<path d="M27.8145 14.8569C27.8202 14.8611 27.9562 14.9642 27.878 15.0899L27.8953 15.1007C27.9835 14.959 27.8281 14.8416 27.8267 14.8403L27.8145 14.8569Z" fill="black"/>
<path d="M27.4045 14.8769C27.4045 14.8769 27.3833 14.9537 27.4915 14.9809C27.4915 14.9809 27.3898 14.98 27.3833 14.9537C27.3765 14.9275 27.3839 14.8693 27.4045 14.8769Z" fill="black"/>
<path d="M27.7373 14.9687C27.7373 14.9755 27.7318 14.9811 27.7251 14.9811C27.7185 14.9811 27.7129 14.9755 27.7129 14.9687C27.7129 14.9621 27.7185 14.9565 27.7251 14.9565C27.7318 14.9565 27.7373 14.9621 27.7373 14.9687Z" fill="black"/>
<path d="M27.7489 15.017C27.7489 15.0238 27.7433 15.0294 27.7367 15.0294C27.73 15.0294 27.7246 15.0238 27.7246 15.017C27.7246 15.0104 27.73 15.0049 27.7367 15.0049C27.7433 15.0049 27.7489 15.0105 27.7489 15.017Z" fill="black"/>
<path d="M27.6664 15.0057C27.6732 15.0057 27.6786 15.0003 27.6786 14.9936C27.6786 14.9869 27.6732 14.9814 27.6664 14.9814C27.6597 14.9814 27.6543 14.9869 27.6543 14.9936C27.6543 15.0003 27.6597 15.0057 27.6664 15.0057Z" fill="black"/>
<path d="M27.7003 15.0656C27.7003 15.0722 27.6948 15.0776 27.6881 15.0776C27.6815 15.0776 27.676 15.0722 27.676 15.0656C27.676 15.0588 27.6815 15.0532 27.6881 15.0532C27.6948 15.0532 27.7003 15.0587 27.7003 15.0656Z" fill="black"/>
<path d="M27.3861 14.7404C27.3861 14.7471 27.3807 14.7526 27.3738 14.7526C27.3672 14.7526 27.3616 14.747 27.3616 14.7404C27.3616 14.7338 27.3672 14.7281 27.3738 14.7281C27.3807 14.7281 27.3861 14.7338 27.3861 14.7404Z" fill="black"/>
<path d="M27.3832 14.8007C27.39 14.8007 27.3954 14.7953 27.3954 14.7886C27.3954 14.7819 27.39 14.7764 27.3832 14.7764C27.3765 14.7764 27.3711 14.7819 27.3711 14.7886C27.3711 14.7953 27.3765 14.8007 27.3832 14.8007Z" fill="black"/>
<path d="M27.3149 14.7772C27.3216 14.7772 27.327 14.7718 27.327 14.7651C27.327 14.7584 27.3216 14.7529 27.3149 14.7529C27.3082 14.7529 27.3027 14.7584 27.3027 14.7651C27.3027 14.7718 27.3082 14.7772 27.3149 14.7772Z" fill="black"/>
<path d="M27.3467 14.8371C27.3467 14.8437 27.3411 14.8493 27.3343 14.8493C27.3277 14.8493 27.3223 14.8437 27.3223 14.8371C27.3223 14.8303 27.3278 14.8247 27.3343 14.8247C27.341 14.8248 27.3467 14.8303 27.3467 14.8371Z" fill="black"/>
<path d="M27.5586 14.4119C27.5586 14.4119 27.715 14.5082 27.5645 14.6887C27.5645 14.6887 27.6385 14.6338 27.6461 14.5393C27.654 14.445 27.5924 14.3697 27.5586 14.4119Z" fill="black"/>
<path d="M28.1589 14.6716C28.1086 14.6974 28.0361 14.6495 27.9998 14.6043C27.9636 14.559 27.8887 14.5474 27.842 14.6301C27.7955 14.7129 27.7283 14.7439 27.7283 14.7439C27.7283 14.7439 27.7939 14.7052 27.8615 14.6327C27.9287 14.5604 27.9675 14.6184 28.0335 14.6534C28.0995 14.6883 28.1098 14.696 28.1563 14.6779L28.1589 14.6716Z" fill="black"/>
<path d="M28.1441 14.6833C28.1236 14.6988 28.0858 14.7117 28.0458 14.6793C28.0058 14.647 27.9721 14.6031 27.9217 14.6289C27.8712 14.6549 27.7754 14.7272 27.7754 14.7272C27.7754 14.7272 27.9307 14.6198 27.9605 14.6431C27.9902 14.6665 28.0602 14.7233 28.1028 14.7066C28.1455 14.6896 28.1441 14.6833 28.1441 14.6833Z" fill="black"/>
<path d="M28.0253 14.7494C27.9762 14.7119 27.927 14.7933 27.8856 14.7831C27.8443 14.7726 27.8105 14.7041 27.8105 14.7041C27.8105 14.7041 27.8495 14.7766 27.9037 14.7597C27.9581 14.743 27.9957 14.7093 28.0292 14.7351C28.0629 14.7611 28.0253 14.7494 28.0253 14.7494Z" fill="black"/>
<path d="M27.9504 14.7595C27.8534 14.7696 27.8438 14.6789 27.8438 14.678C27.8438 14.678 27.8744 14.7571 27.9601 14.7428L27.9504 14.7595Z" fill="black"/>
<path d="M27.9485 14.698C27.955 14.7228 27.9536 14.7341 27.9273 14.7341C27.9008 14.7341 27.8828 14.7253 27.8828 14.6997C27.8828 14.674 27.9446 14.682 27.9485 14.698Z" fill="black"/>
<path d="M27.5991 14.5635C27.5991 14.5805 27.5851 14.5943 27.5677 14.5943C27.5503 14.5943 27.5469 14.5826 27.5469 14.5657C27.5469 14.5488 27.5503 14.5328 27.5677 14.5328C27.5851 14.5328 27.5991 14.5466 27.5991 14.5635Z" fill="black"/>
<path d="M27.4898 14.4547C27.4898 14.4547 27.6561 14.4565 27.5737 14.6645C27.5737 14.6645 27.6371 14.561 27.5974 14.4864C27.5575 14.412 27.4949 14.4308 27.4949 14.4308C27.4949 14.4308 27.4796 14.4449 27.4898 14.4547Z" fill="black"/>
<path d="M27.4863 14.5383C27.4859 14.58 27.5137 14.6231 27.5688 14.6661L27.5815 14.6501C27.5316 14.6112 27.5064 14.5737 27.5068 14.5387C27.5071 14.5038 27.534 14.4831 27.5343 14.4828L27.5221 14.4663C27.5206 14.4675 27.4869 14.4931 27.4863 14.5383Z" fill="black"/>
<path d="M27.5229 14.5733C27.53 14.5973 27.5486 14.6154 27.5782 14.6272L27.5858 14.6083C27.5623 14.599 27.5478 14.5853 27.5425 14.5677C27.532 14.5324 27.5605 14.4911 27.5608 14.4908L27.5442 14.4789C27.5426 14.481 27.5096 14.5287 27.5229 14.5733Z" fill="black"/>
<path d="M27.7497 14.6885C27.7497 14.6885 27.7806 14.7557 27.7355 14.8282C27.6902 14.9006 27.6914 14.8968 27.6914 14.8968C27.6914 14.8968 27.7458 14.7972 27.7251 14.7557C27.7046 14.7143 27.7497 14.6885 27.7497 14.6885Z" fill="black"/>
<path d="M28.3965 15.3906C28.5673 15.4227 28.9525 15.7248 28.9565 15.7279L28.9786 15.6996C28.9624 15.6871 28.5824 15.3892 28.4031 15.3555L28.3965 15.3906Z" fill="black"/>
<path d="M28.5488 15.8167C28.5602 15.9682 28.7251 16.0624 28.7322 16.0662L28.7497 16.0351C28.748 16.0343 28.5945 15.9464 28.5843 15.814L28.5488 15.8167Z" fill="black"/>
<path d="M28.1387 15.8486C28.1387 16.0186 28.298 16.2242 28.3048 16.233L28.3329 16.2109C28.3314 16.209 28.1744 16.0063 28.1744 15.8486H28.1387Z" fill="black"/>
<path d="M27.6003 15.8678C27.6284 15.9239 27.6254 15.9523 27.6182 15.9662C27.6097 15.9819 27.5924 15.9843 27.5918 15.9845L27.596 16.0201C27.6091 16.0185 27.6354 16.0094 27.6493 15.9838C27.6663 15.9526 27.6605 15.9083 27.6323 15.8521L27.6003 15.8678Z" fill="black"/>
<path d="M25.1719 15.0287C25.1719 15.0287 25.1822 15.1424 25.2702 15.21C25.2702 15.21 25.2598 15.0855 25.2857 15.034C25.2857 15.034 25.2392 14.9822 25.1719 15.0287Z" fill="white" stroke="black" stroke-width="0.016" stroke-miterlimit="3"/>
<path d="M25.3477 15.1009C25.3477 15.1009 25.3685 15.2043 25.4305 15.251L25.467 15.2406C25.467 15.2406 25.4824 15.1111 25.5031 15.0957C25.5238 15.0802 25.4152 15.1422 25.3477 15.1009Z" fill="white" stroke="black" stroke-width="0.016" stroke-miterlimit="3"/>
<path d="M25.5039 15.0959L25.5712 15.1994L25.6487 15.158L25.6332 15.0339C25.6332 15.0339 25.5867 15.0234 25.5039 15.0959Z" fill="white" stroke="black" stroke-width="0.016" stroke-miterlimit="3"/>
<path d="M25.8193 15.1167L25.7313 15.1892C25.7313 15.1892 25.6848 15.1529 25.6484 15.1581L25.6641 15.0442C25.6641 15.0442 25.7261 14.9977 25.8193 15.1167Z" fill="white" stroke="black" stroke-width="0.016" stroke-miterlimit="3"/>
<path d="M25.1911 16.1878C25.1911 16.1878 25.1756 16.0273 25.1964 16.017C25.1964 16.017 25.2583 16.0377 25.2843 16.0117C25.2843 16.0117 25.3205 16.1412 25.3101 16.1929C25.2998 16.2446 25.2378 16.2241 25.1911 16.1878Z" fill="white" stroke="black" stroke-width="0.016" stroke-miterlimit="3"/>
<path d="M25.5903 16.0221C25.5903 16.0221 25.5851 15.8876 25.611 15.8719C25.611 15.8719 25.7403 15.8875 25.7713 15.8203L25.8179 15.9496C25.8179 15.9496 25.673 15.9341 25.5903 16.0221Z" fill="white" stroke="black" stroke-width="0.016" stroke-miterlimit="3"/>
<path d="M25.4512 16.0476C25.4512 16.0476 25.477 15.908 25.503 15.9028C25.503 15.9028 25.5702 15.9234 25.5909 15.8975L25.5858 16.0684C25.5858 16.0684 25.5909 15.9959 25.4512 16.0476Z" fill="white" stroke="black" stroke-width="0.0155556" stroke-miterlimit="3"/>
<path d="M25.3008 16.0685C25.3008 16.0685 25.3318 15.9443 25.3526 15.9443C25.3734 15.9443 25.4251 15.9754 25.4509 15.9547V16.0479C25.4509 16.0479 25.3369 16.022 25.3215 16.1772L25.3008 16.0685Z" fill="white" stroke="black" stroke-width="0.0155556" stroke-miterlimit="3"/>
<path d="M27.3183 18.6454C27.3183 18.6454 27.6701 18.9721 27.5781 19.2569C27.5781 19.2569 27.8042 18.771 27.5614 18.6286C27.3183 18.4862 27.31 18.5953 27.3183 18.6454Z" fill="#00AD50" stroke="black" stroke-width="0.0346667" stroke-miterlimit="4.8"/>
<path d="M26.8755 18.9627C26.8755 18.9627 26.7835 19.0887 26.8839 19.1808C26.8839 19.1808 26.7751 19.3396 26.859 19.4739C26.859 19.4739 26.7918 19.6162 26.8086 19.7671C26.8086 19.7671 26.7499 20.0015 26.8755 20.1106C26.8755 20.1106 27.0096 20.1776 27.0684 20.119C27.0684 20.119 27.1855 19.9431 27.1101 19.7586C27.1101 19.7586 27.1939 19.6079 27.1018 19.4152C27.1018 19.4152 27.1269 19.3063 27.0515 19.1808C27.0515 19.1808 27.1018 19.0969 27.0598 19.03C27.0598 19.03 26.8924 18.8539 26.8755 18.9627Z" fill="#862633" stroke="black" stroke-width="0.0346667" stroke-miterlimit="4.8"/>
<path d="M26.975 18.5529C26.975 18.5529 26.5562 17.7489 26.263 17.7152C25.9698 17.6817 25.9531 17.397 25.9531 17.397C25.9531 17.397 25.9866 17.531 26.2212 17.531C26.4557 17.531 26.9081 17.8576 26.9583 18.1089C27.0085 18.3602 27.0589 18.3268 27.0589 18.3268L26.975 18.5529Z" fill="#00AD50" stroke="black" stroke-width="0.0346667" stroke-miterlimit="4.8"/>
<path d="M26.9749 18.4943C26.9749 18.4943 27.1257 17.4807 27.7876 17.4639C28.4492 17.447 28.2316 17.5141 28.3906 17.4052C28.3906 17.4052 27.9468 17.6399 27.6703 17.6733C27.3939 17.7068 27.1677 18.2427 27.1761 18.3434C27.1844 18.4439 27.0254 18.6366 26.9499 18.5697C26.8745 18.5026 26.9749 18.4943 26.9749 18.4943Z" fill="#00AD50" stroke="black" stroke-width="0.0346667" stroke-miterlimit="4.8"/>
<path d="M27.1254 18.8713C27.1254 18.8713 27.2762 18.4692 27.5359 18.6033C27.5359 18.6033 27.3347 18.2178 26.9746 18.5529C26.9746 18.5529 27.1338 18.7707 27.1254 18.8713Z" fill="#00AD50" stroke="black" stroke-width="0.0346667" stroke-miterlimit="4.8"/>
<path d="M26.6212 18.469C26.6212 18.469 26.8391 19.3655 26.504 19.6418C26.504 19.6418 26.5123 19.1813 26.3113 18.9048C26.1104 18.6282 26.5123 18.3269 26.6212 18.469Z" fill="#00AD50" stroke="black" stroke-width="0.0346667" stroke-miterlimit="4.8"/>
<path d="M26.6486 18.6286C26.6486 18.6286 27.0424 19.0057 27.0676 19.1313C27.0928 19.2569 27.1848 18.7544 27.0006 18.6121C26.8162 18.4695 26.6152 18.4444 26.6152 18.4444L26.6486 18.6286Z" fill="#00AD50" stroke="black" stroke-width="0.0346667" stroke-miterlimit="4.8"/>
<path d="M25.9219 19.6166C25.9219 19.6166 25.9576 19.7748 26.0547 19.8054C26.0547 19.8054 26.0597 19.923 26.1466 19.9587C26.1466 19.9587 26.1005 20.0557 26.1773 20.1169C26.1773 20.1169 26.1618 20.311 26.2334 20.352C26.2334 20.352 26.4072 20.3418 26.4683 20.2906C26.4683 20.2906 26.5041 20.1632 26.4072 20.0352C26.4072 20.0352 26.4224 19.9127 26.3253 19.8464C26.3253 19.8464 26.356 19.6827 26.2333 19.6216C26.2333 19.6216 26.213 19.4887 26.1363 19.4224C26.1363 19.4224 25.9883 19.6317 25.9219 19.6166Z" fill="#862633" stroke="black" stroke-width="0.0346667" stroke-miterlimit="4.8"/>
<path d="M26.1163 19.4225C26.1163 19.4225 25.6005 19.2336 25.3145 19.5043C25.3145 19.5043 25.7536 19.5656 25.8099 19.6525C25.866 19.7391 26.1366 19.5095 26.1163 19.4225Z" fill="#00AD50" stroke="black" stroke-width="0.0346667" stroke-miterlimit="4.8"/>
<path d="M25.9592 19.7439C25.9592 19.7439 25.9184 19.7082 25.8674 19.6724C25.8163 19.6367 25.3822 19.5192 25.3208 19.938C25.3208 19.938 25.1624 19.5243 25.3922 19.4681C25.6223 19.4118 25.8061 19.5447 25.9592 19.7439Z" fill="#00AD50" stroke="black" stroke-width="0.0346667" stroke-miterlimit="4.8"/>
<path d="M25.6172 18.8882C25.6172 18.8882 25.7762 19.2315 25.8349 19.2486C25.8936 19.2651 25.9354 19.2067 25.9354 19.2067C25.9354 19.2067 25.726 18.8967 25.6172 18.8882Z" fill="#00AD50" stroke="black" stroke-width="0.0346667" stroke-miterlimit="4.8"/>
<path d="M25.5004 18.3604C25.5004 18.3604 25.3663 17.9165 25.2072 18.0338C25.0481 18.151 25.0899 18.4692 25.0899 18.4692C25.0899 18.4692 24.7716 18.1427 24.9558 17.8829C25.1403 17.6233 25.5004 17.9081 25.5004 18.3604Z" fill="#00AD50" stroke="black" stroke-width="0.0346667" stroke-miterlimit="4.8"/>
<path d="M25.8613 19.2733C25.8613 19.2733 25.8613 19.357 25.92 19.3821C25.9787 19.4072 26.0875 19.4489 26.0875 19.3989C26.0875 19.3487 26.0038 19.156 25.9701 19.1812C25.9366 19.2064 25.8782 19.2061 25.8613 19.2733Z" fill="#862633" stroke="black" stroke-width="0.0346667" stroke-miterlimit="4.8"/>
<path d="M25.76 18.7542C25.76 18.7542 25.7433 18.369 25.9944 18.2264C25.9944 18.2264 26.0448 18.235 26.07 18.1597C26.07 18.1597 25.8687 18.6453 25.9274 18.8882L25.9191 18.9218" fill="#00AD50"/>
<path d="M25.76 18.7542C25.76 18.7542 25.7433 18.369 25.9944 18.2264C25.9944 18.2264 26.0448 18.235 26.07 18.1597C26.07 18.1597 25.8687 18.6453 25.9274 18.8882L25.9191 18.9218" stroke="black" stroke-width="0.0346667" stroke-miterlimit="4.8"/>
<path d="M25.8105 18.2851C25.8105 18.2851 26.2629 17.3468 26.8158 17.6734C26.8158 17.6734 26.2378 17.7908 26.0285 18.2013L25.819 18.5109L25.8106 18.285L25.8105 18.2851Z" fill="#00AD50" stroke="black" stroke-width="0.0346667" stroke-miterlimit="4.8"/>
<path d="M25.5687 18.6288C25.5687 18.6288 25.4346 18.0006 25.3508 17.9169C25.267 17.8331 25.1246 17.741 24.957 17.8833C24.957 17.8833 25.2503 17.6235 25.5602 17.8415C25.87 18.0593 25.8031 18.4027 25.8031 18.4027L25.7697 18.8383L25.5602 18.6456" fill="#00AD50"/>
<path d="M25.5687 18.6288C25.5687 18.6288 25.4346 18.0006 25.3508 17.9169C25.267 17.8331 25.1246 17.741 24.957 17.8833C24.957 17.8833 25.2503 17.6235 25.5602 17.8415C25.87 18.0593 25.8031 18.4027 25.8031 18.4027L25.7697 18.8383L25.5602 18.6456" stroke="black" stroke-width="0.0346667" stroke-miterlimit="4.8"/>
<path d="M26.0535 19.3738C26.0535 19.3738 25.5006 18.327 25.1405 19.0724C25.1405 19.0724 25.0733 19.265 25.1487 19.3402C25.1487 19.3402 24.9476 19.1895 25.0398 18.821C25.1318 18.4526 25.7433 18.6199 25.9194 18.9216C26.0952 19.2231 26.1456 19.374 26.1204 19.3906C26.0952 19.4074 26.0535 19.3738 26.0535 19.3738Z" fill="#00AD50" stroke="black" stroke-width="0.0346667" stroke-miterlimit="4.8"/>
<path d="M27.6133 19.6757C27.6133 19.6757 28.0155 18.8463 28.2499 19.2232C28.2499 19.2232 28.3169 19.4074 28.2163 19.483C28.2163 19.483 28.0573 19.2903 27.9149 19.5249C27.7725 19.7593 27.8311 19.7427 27.8311 19.7427C27.8311 19.7427 27.6803 19.7846 27.6133 19.6757Z" fill="#00AD50" stroke="black" stroke-width="0.0346667" stroke-miterlimit="4.8"/>
<path d="M28.2148 19.4829C28.2148 19.4829 28.4326 19.6001 28.3575 19.8346C28.3575 19.8346 28.6504 19.2735 28.2485 19.2231C28.2485 19.2231 28.324 19.3991 28.2148 19.4829Z" fill="#00AD50" stroke="black" stroke-width="0.0346667" stroke-miterlimit="4.8"/>
<path d="M28.2415 18.9134C28.2415 18.9134 28.7693 19.0641 28.786 19.2905C28.786 19.2905 28.8783 18.8547 28.5766 18.7207C28.5767 18.7207 28.2163 18.7795 28.2415 18.9134Z" fill="#00AD50" stroke="black" stroke-width="0.0346667" stroke-miterlimit="4.8"/>
<path d="M28.4736 18.2179C28.6998 17.7739 28.9846 18.3603 28.9846 18.3603C28.9846 18.3603 29.085 17.8996 28.8004 17.8157C28.5154 17.732 28.3312 18.7957 28.3312 18.7957L27.9961 18.8711C27.9961 18.8711 28.0883 17.9415 28.5909 17.8576L28.6494 17.8661" fill="#00AD50"/>
<path d="M28.4736 18.2179C28.6998 17.7739 28.9846 18.3603 28.9846 18.3603C28.9846 18.3603 29.085 17.8996 28.8004 17.8157C28.5154 17.732 28.3312 18.7957 28.3312 18.7957L27.9961 18.8711C27.9961 18.8711 28.0883 17.9415 28.5909 17.8576L28.6494 17.8661" stroke="black" stroke-width="0.0346667" stroke-miterlimit="4.8"/>
<path d="M28.0746 18.4857C28.0746 18.4857 27.7564 17.8324 27.5385 17.7655C27.3207 17.6984 27.656 17.5979 27.79 17.7235C27.9238 17.849 28.1751 18.0083 28.15 18.3434L28.0746 18.4857Z" fill="#00AD50" stroke="black" stroke-width="0.0346667" stroke-miterlimit="4.8"/>
<path d="M27.7461 19.3819C27.7461 19.3819 27.8382 18.9381 28.0895 18.8039C28.3407 18.6698 28.5753 18.7202 28.5753 18.7202C28.5753 18.7202 28.2737 18.7871 28.2236 18.9381C28.1732 19.0887 28.0895 19.0971 28.0895 19.0971L27.7461 19.3819Z" fill="#00AD50" stroke="black" stroke-width="0.0346667" stroke-miterlimit="4.8"/>
<path d="M27.6111 19.6756C27.6111 19.6756 27.4687 19.9437 27.5021 19.9855C27.5021 19.9855 27.3514 20.2032 27.41 20.3121C27.41 20.3121 27.5608 20.4294 27.6279 20.3791C27.6279 20.3791 27.8035 20.1363 27.7534 20.0022C27.7534 20.0022 27.8706 19.8432 27.8289 19.7427C27.8289 19.7427 27.6531 19.751 27.6111 19.6756Z" fill="#862633" stroke="black" stroke-width="0.0346667" stroke-miterlimit="4.8"/>
<path d="M26.8748 19.1965C26.8842 19.2013 26.9688 19.2424 27.0257 19.2234L27.0664 19.1886L27.0344 19.1727C27.0135 19.2141 26.9214 19.18 26.8906 19.1647L26.8748 19.1965Z" fill="black"/>
<path d="M26.8602 19.4567L26.8533 19.4917C26.8605 19.4931 27.0304 19.526 27.1115 19.454L27.0877 19.4274C27.02 19.4875 26.8619 19.4571 26.8602 19.4567Z" fill="black"/>
<path d="M26.8156 19.7525L26.7947 19.7814C26.7967 19.7829 26.9942 19.9236 27.1206 19.77L27.0929 19.7473C26.988 19.8747 26.8227 19.7576 26.8156 19.7525Z" fill="black"/>
<path d="M26.0486 19.7949L26.056 19.8141C26.0631 19.8112 26.2305 19.744 26.2411 19.6216L26.2207 19.6197C26.2112 19.7296 26.0502 19.7943 26.0486 19.7949Z" fill="black"/>
<path d="M26.1423 19.9482L26.1438 19.9686C26.1503 19.9681 26.3048 19.9566 26.3318 19.8486L26.3118 19.8434C26.2886 19.9371 26.1438 19.9481 26.1423 19.9482Z" fill="black"/>
<path d="M26.1767 20.1063L26.1755 20.1269C26.183 20.1272 26.356 20.1361 26.4147 20.0403L26.3973 20.0295C26.3449 20.1151 26.1784 20.1065 26.1767 20.1063Z" fill="black"/>
<path d="M27.488 19.9977C27.4911 20.0009 27.5657 20.0746 27.6529 20.0714C27.6956 20.0698 27.7334 20.0502 27.7654 20.0135L27.7383 19.99C27.7132 20.019 27.6839 20.0345 27.6518 20.0357C27.5804 20.0383 27.5138 19.9732 27.5132 19.9724L27.488 19.9977Z" fill="black"/>
<path d="M32.6895 20.6102C32.6801 20.6138 32.6707 20.6195 32.6621 20.6284L32.6895 20.6102Z" fill="#862633" stroke="black" stroke-width="0.0186667" stroke-miterlimit="4.8"/>
<path d="M33.3053 20.456C33.2993 20.4407 33.2954 20.4471 33.2875 20.4404C33.2762 20.4311 33.2697 20.4014 33.2598 20.3903C33.2539 20.3836 33.2472 20.3902 33.2408 20.3885C33.2264 20.3568 33.2095 20.3234 33.1943 20.2928C33.1967 20.2893 33.1982 20.2851 33.1985 20.2786C33.1985 20.2774 33.1914 20.2529 33.1909 20.2519C33.1866 20.2451 33.1798 20.2491 33.1756 20.2386C33.171 20.2281 33.1745 20.2074 33.1728 20.195C33.1716 20.1847 33.1675 20.179 33.1682 20.1644C33.1688 20.1518 33.1756 20.1371 33.1748 20.126C33.1745 20.119 33.1663 20.1034 33.1639 20.0975C33.1539 20.0736 33.1456 20.051 33.1444 20.0215C33.1432 19.9948 33.1486 19.9784 33.1505 19.9552C33.153 19.9274 33.1383 19.9139 33.1383 19.8883C33.1385 19.8686 33.1468 19.8465 33.1491 19.8289C33.1524 19.8048 33.1527 19.7699 33.1506 19.7452C33.1488 19.7216 33.1422 19.7073 33.1458 19.6808C33.1468 19.6743 33.1499 19.6691 33.1506 19.6599C33.1505 19.6534 33.1505 19.6471 33.1505 19.6408V19.6027C33.1505 19.5903 33.1517 19.5764 33.1506 19.5643C33.1496 19.5543 33.1437 19.5439 33.1437 19.536C33.1437 19.5224 33.1523 19.516 33.1505 19.4975C33.1493 19.4843 33.1474 19.4812 33.1443 19.4696C33.1385 19.4477 33.1425 19.4255 33.1389 19.4021C33.1372 19.3908 33.1336 19.3872 33.1326 19.3744C33.1311 19.3592 33.1357 19.354 33.1372 19.3433C33.1387 19.3326 33.1403 19.3186 33.1389 19.3073C33.1372 19.2937 33.1307 19.2841 33.1326 19.2693L33.1276 19.4374C33.1234 19.2907 33.1176 19.1549 33.1176 19.1549L32.8945 19.0502C32.8945 19.0502 32.8757 19.4597 32.8805 19.5167C32.8849 19.5738 32.9041 19.9645 32.8945 20.0121C32.8849 20.0597 32.8615 20.2978 32.8615 20.2978C32.8615 20.2978 32.7524 20.374 32.7097 20.4596C32.6669 20.5454 32.6765 20.5739 32.6621 20.5739L32.7681 20.5574L32.6891 20.6101C32.7054 20.604 32.7225 20.6053 32.7383 20.6177C32.7401 20.6192 32.7519 20.6293 32.7534 20.6293C32.7576 20.6293 32.7633 20.6187 32.7684 20.6168C32.7848 20.6113 32.7987 20.6421 32.8143 20.6397C32.8226 20.6385 32.8341 20.6297 32.8409 20.6207C32.8465 20.6131 32.8487 20.5999 32.8546 20.5948C32.8601 20.5902 32.8734 20.5955 32.8791 20.5955C32.8946 20.5955 32.9104 20.596 32.926 20.5955C32.9467 20.595 32.9635 20.5657 32.9827 20.5492C33.0005 20.5342 33.0136 20.5289 33.0327 20.5301C33.0535 20.5316 33.0723 20.5511 33.0936 20.5523C33.1096 20.5531 33.1208 20.5551 33.1337 20.5382C33.1427 20.5265 33.149 20.509 33.1575 20.4968L33.2102 20.4887C33.2207 20.493 33.2313 20.4978 33.2403 20.4975C33.2537 20.4968 33.2677 20.4952 33.281 20.4973C33.2861 20.4979 33.2961 20.5098 33.3002 20.5069C33.3031 20.5047 33.3079 20.4886 33.3107 20.4838C33.3096 20.4774 33.3076 20.4614 33.3053 20.456Z" fill="#862633" stroke="black" stroke-width="0.0186667" stroke-miterlimit="4.8"/>
<path d="M32.857 20.6028C32.8704 20.6028 32.8827 20.5997 32.894 20.6096C32.8959 20.6132 32.8976 20.6166 32.8993 20.62C32.903 20.6225 32.9069 20.6229 32.9105 20.6215C32.918 20.6266 32.9196 20.6295 32.9279 20.6314C32.9356 20.6331 32.9441 20.6311 32.9518 20.6312C32.9616 20.6316 32.9664 20.6349 32.9755 20.6387C32.9914 20.6452 33.0019 20.639 33.0156 20.6291C33.0316 20.6173 33.0374 20.6263 33.0527 20.641C33.0642 20.6519 33.0618 20.6509 33.0722 20.6435C33.0737 20.6399 33.0755 20.6365 33.0773 20.6335C33.0824 20.6314 33.0876 20.63 33.0929 20.6291C33.1014 20.6251 33.1099 20.6255 33.1179 20.6224C33.1264 20.6191 33.1326 20.6097 33.1416 20.6115C33.1493 20.613 33.1581 20.6193 33.1655 20.6216C33.1726 20.6241 33.1757 20.6255 33.1816 20.6298C33.1922 20.6079 33.2157 20.6014 33.2307 20.5908C33.2464 20.5799 33.2609 20.5931 33.278 20.5932C33.2872 20.5932 33.2908 20.5879 33.2973 20.5858C33.3046 20.5831 33.3129 20.587 33.3199 20.5841C33.3273 20.5813 33.3287 20.5742 33.3369 20.5733C33.352 20.5714 33.3689 20.5961 33.384 20.6007C33.3925 20.6036 33.4318 20.6124 33.426 20.5835C33.4205 20.5559 33.3958 20.575 33.3905 20.5557C33.3877 20.5447 33.3934 20.5291 33.39 20.5167C33.3871 20.5055 33.3747 20.4925 33.3673 20.49C33.358 20.4871 33.3526 20.4968 33.3448 20.4892C33.3382 20.4832 33.3358 20.4606 33.3301 20.4517C33.3225 20.4572 33.3177 20.4623 33.3077 20.4603C33.2962 20.4575 33.2973 20.4536 33.2888 20.4428C33.2702 20.4196 33.2596 20.4567 33.2425 20.4509C33.2294 20.4467 33.2174 20.414 33.2072 20.4006C33.2018 20.3935 33.1865 20.3705 33.1786 20.3756C33.1653 20.3843 33.1774 20.4093 33.1705 20.4204C33.1655 20.4281 33.1479 20.4202 33.1416 20.4215C33.1315 20.4237 33.1297 20.4263 33.1224 20.4383C33.1077 20.4626 33.0992 20.4819 33.0764 20.4791C33.0656 20.4779 33.0574 20.4669 33.0468 20.4709C33.0356 20.4752 33.0292 20.4873 33.0169 20.4887C33.0079 20.4894 32.9976 20.4897 32.9888 20.4864C32.9801 20.4825 32.9704 20.4663 32.9625 20.4618C32.9591 20.459 32.9557 20.4584 32.9518 20.4598C32.9509 20.4593 32.939 20.4524 32.9388 20.4524C32.9251 20.4484 32.9262 20.4488 32.9206 20.467C32.9173 20.4783 32.9161 20.4899 32.912 20.5006C32.908 20.5095 32.8992 20.5206 32.894 20.5267C32.8844 20.537 32.8798 20.5342 32.8673 20.538C32.8573 20.5412 32.844 20.5568 32.8386 20.5367C32.8306 20.5064 32.8608 20.4612 32.8271 20.4691C32.8183 20.4711 32.813 20.4727 32.8076 20.4857C32.8017 20.5007 32.8065 20.5104 32.8038 20.5269C32.8003 20.5476 32.7608 20.5823 32.7686 20.6011C32.7739 20.6142 32.7915 20.594 32.7963 20.5972C32.8043 20.6028 32.802 20.6159 32.8077 20.6247C32.8196 20.643 32.855 20.5965 32.857 20.6216" fill="#862633"/>
<path d="M32.857 20.6028C32.8704 20.6028 32.8827 20.5997 32.894 20.6096C32.8959 20.6132 32.8976 20.6166 32.8993 20.62C32.903 20.6225 32.9069 20.6229 32.9105 20.6215C32.918 20.6266 32.9196 20.6295 32.9279 20.6314C32.9356 20.6331 32.9441 20.6311 32.9518 20.6312C32.9616 20.6316 32.9664 20.6349 32.9755 20.6387C32.9914 20.6452 33.0019 20.639 33.0156 20.6291C33.0316 20.6173 33.0374 20.6263 33.0527 20.641C33.0642 20.6519 33.0618 20.6509 33.0722 20.6435C33.0737 20.6399 33.0755 20.6365 33.0773 20.6335C33.0824 20.6314 33.0876 20.63 33.0929 20.6291C33.1014 20.6251 33.1099 20.6255 33.1179 20.6224C33.1264 20.6191 33.1326 20.6097 33.1416 20.6115C33.1493 20.613 33.1581 20.6193 33.1655 20.6216C33.1726 20.6241 33.1757 20.6255 33.1816 20.6298C33.1922 20.6079 33.2157 20.6014 33.2307 20.5908C33.2464 20.5799 33.2609 20.5931 33.278 20.5932C33.2872 20.5932 33.2908 20.5879 33.2973 20.5858C33.3046 20.5831 33.3129 20.587 33.3199 20.5841C33.3273 20.5813 33.3287 20.5742 33.3369 20.5733C33.352 20.5714 33.3689 20.5961 33.384 20.6007C33.3925 20.6036 33.4318 20.6124 33.426 20.5835C33.4205 20.5559 33.3958 20.575 33.3905 20.5557C33.3877 20.5447 33.3934 20.5291 33.39 20.5167C33.3871 20.5055 33.3747 20.4925 33.3673 20.49C33.358 20.4871 33.3526 20.4968 33.3448 20.4892C33.3382 20.4832 33.3358 20.4606 33.3301 20.4517C33.3225 20.4572 33.3177 20.4623 33.3077 20.4603C33.2962 20.4575 33.2973 20.4536 33.2888 20.4428C33.2702 20.4196 33.2596 20.4567 33.2425 20.4509C33.2294 20.4467 33.2174 20.414 33.2072 20.4006C33.2018 20.3935 33.1865 20.3705 33.1786 20.3756C33.1653 20.3843 33.1774 20.4093 33.1705 20.4204C33.1655 20.4281 33.1479 20.4202 33.1416 20.4215C33.1315 20.4237 33.1297 20.4263 33.1224 20.4383C33.1077 20.4626 33.0992 20.4819 33.0764 20.4791C33.0656 20.4779 33.0574 20.4669 33.0468 20.4709C33.0356 20.4752 33.0292 20.4873 33.0169 20.4887C33.0079 20.4894 32.9976 20.4897 32.9888 20.4864C32.9801 20.4825 32.9704 20.4663 32.9625 20.4618C32.9591 20.459 32.9557 20.4584 32.9518 20.4598C32.9509 20.4593 32.939 20.4524 32.9388 20.4524C32.9251 20.4484 32.9262 20.4488 32.9206 20.467C32.9173 20.4783 32.9161 20.4899 32.912 20.5006C32.908 20.5095 32.8992 20.5206 32.894 20.5267C32.8844 20.537 32.8798 20.5342 32.8673 20.538C32.8573 20.5412 32.844 20.5568 32.8386 20.5367C32.8306 20.5064 32.8608 20.4612 32.8271 20.4691C32.8183 20.4711 32.813 20.4727 32.8076 20.4857C32.8017 20.5007 32.8065 20.5104 32.8038 20.5269C32.8003 20.5476 32.7608 20.5823 32.7686 20.6011C32.7739 20.6142 32.7915 20.594 32.7963 20.5972C32.8043 20.6028 32.802 20.6159 32.8077 20.6247C32.8196 20.643 32.855 20.5965 32.857 20.6216" stroke="black" stroke-width="0.0186667" stroke-miterlimit="4.8"/>
<path d="M32.7127 20.4405C32.7126 20.4379 32.7121 20.4354 32.712 20.4327C32.7025 20.431 32.6919 20.4209 32.6832 20.4208C32.6751 20.4203 32.6591 20.4403 32.6535 20.4498C32.6363 20.4784 32.6411 20.5173 32.612 20.5167C32.6049 20.5166 32.5882 20.5118 32.582 20.5161C32.571 20.5238 32.578 20.5467 32.578 20.5623C32.578 20.5769 32.5846 20.5623 32.5768 20.5813C32.5744 20.5865 32.5674 20.5883 32.5655 20.5952C32.5596 20.6201 32.5803 20.6122 32.5894 20.6119C32.6129 20.6118 32.6363 20.6118 32.6595 20.6119C32.6735 20.6122 32.682 20.6073 32.6951 20.6022C32.7038 20.5992 32.7222 20.5994 32.7295 20.5917C32.7321 20.5887 32.7406 20.5691 32.7418 20.5645C32.7437 20.5549 32.74 20.5433 32.7423 20.5353C32.746 20.5212 32.7585 20.5266 32.7608 20.5076C32.7669 20.4611 32.7172 20.4959 32.725 20.4501" fill="#862633"/>
<path d="M32.7127 20.4405C32.7126 20.4379 32.7121 20.4354 32.712 20.4327C32.7025 20.431 32.6919 20.4209 32.6832 20.4208C32.6751 20.4203 32.6591 20.4403 32.6535 20.4498C32.6363 20.4784 32.6411 20.5173 32.612 20.5167C32.6049 20.5166 32.5882 20.5118 32.582 20.5161C32.571 20.5238 32.578 20.5467 32.578 20.5623C32.578 20.5769 32.5846 20.5623 32.5768 20.5813C32.5744 20.5865 32.5674 20.5883 32.5655 20.5952C32.5596 20.6201 32.5803 20.6122 32.5894 20.6119C32.6129 20.6118 32.6363 20.6118 32.6595 20.6119C32.6735 20.6122 32.682 20.6073 32.6951 20.6022C32.7038 20.5992 32.7222 20.5994 32.7295 20.5917C32.7321 20.5887 32.7406 20.5691 32.7418 20.5645C32.7437 20.5549 32.74 20.5433 32.7423 20.5353C32.746 20.5212 32.7585 20.5266 32.7608 20.5076C32.7669 20.4611 32.7172 20.4959 32.725 20.4501" stroke="black" stroke-width="0.0186667" stroke-miterlimit="4.8"/>
<path d="M33.2765 19.1472C33.2765 19.2074 33.2353 19.256 33.1841 19.256C33.1336 19.256 33.092 19.2074 33.092 19.1472C33.092 19.0871 33.1336 19.0382 33.1841 19.0382C33.2352 19.0383 33.2765 19.0871 33.2765 19.1472Z" fill="black" stroke="black" stroke-width="0.0346667" stroke-miterlimit="4.8"/>
<path d="M32.9755 19.0127C32.9755 19.0728 32.9343 19.1215 32.8834 19.1215C32.8324 19.1215 32.791 19.0728 32.791 19.0127C32.791 18.9526 32.8324 18.9038 32.8834 18.9038C32.9343 18.9038 32.9755 18.9526 32.9755 19.0127Z" fill="black" stroke="black" stroke-width="0.0346667" stroke-miterlimit="4.8"/>
<path d="M33.1335 19.0546C33.1335 19.1149 33.0922 19.1634 33.0413 19.1634C32.9904 19.1634 32.9492 19.1149 32.9492 19.0546C32.9492 18.9944 32.9904 18.9457 33.0413 18.9457C33.0922 18.9457 33.1335 18.9944 33.1335 19.0546Z" fill="black" stroke="black" stroke-width="0.0346667" stroke-miterlimit="4.8"/>
<path d="M32.9793 19.1539C32.9793 19.2142 32.9379 19.263 32.887 19.263C32.8362 19.263 32.7949 19.2141 32.7949 19.1539C32.7949 19.0938 32.8361 19.0451 32.887 19.0451C32.9379 19.0451 32.9793 19.0937 32.9793 19.1539Z" fill="black" stroke="black" stroke-width="0.0346667" stroke-miterlimit="4.8"/>
<path d="M33.1239 19.2373C33.1239 19.2974 33.0824 19.3464 33.0317 19.3464C32.9809 19.3464 32.9395 19.2974 32.9395 19.2373C32.9395 19.1772 32.9809 19.1285 33.0317 19.1285C33.0823 19.1286 33.1239 19.1772 33.1239 19.2373Z" fill="black" stroke="black" stroke-width="0.0346667" stroke-miterlimit="4.8"/>
<path d="M33.1694 18.0491C33.1694 18.0491 34.0991 16.7509 35.096 18.0995C35.096 18.0995 35.1043 18.2337 35.0122 18.3759L34.987 18.2671L34.9284 18.2838L34.9117 18.2168L34.8026 18.2085L34.8363 18.066L34.7189 18.1582L34.7357 18.0576L34.6017 18.1918L34.6185 17.9069L34.476 18.1498L34.4927 17.9824L34.4425 18.0577L34.4123 17.9601L34.3673 18.0577L34.3001 18.0075V18.0745L34.183 17.974L34.1411 18.1079L34.0825 17.9657L34.0657 18.0661L34.0069 17.9488L33.9987 18.0745L33.8059 17.9907L33.8478 18.1079L33.7558 18.0411L33.7725 18.1079L33.647 18.0829L33.6552 18.1582L33.5212 18.1331L33.5464 18.2L33.3621 18.175L33.4288 18.2504L33.4103 18.2811C33.4103 18.2811 34.4174 17.949 34.4844 19.2053L34.3001 19.2974L34.3504 19.1972L34.3001 19.1635L34.1494 19.0464L34.1913 18.8871L34.1411 18.9039L34.1326 18.8118L34.1075 18.8285L34.0488 18.7364L34.0321 18.77L33.9902 18.6609L33.9483 18.7365L33.9231 18.5521L33.8562 18.6695L33.8477 18.6025L33.8225 18.6444L33.7388 18.5438L33.7139 18.6108L33.6802 18.5606L33.6552 18.6191L33.563 18.5352V18.6025L33.5045 18.5521L33.4791 18.5856L33.3369 18.5102L33.3282 18.5771L33.253 18.5102L33.2278 18.5771C33.2278 18.5771 34.1411 19.0966 33.8561 19.9427L33.8057 20.0515L33.7892 19.7668L33.7055 19.9175L33.7637 19.5908L33.7055 19.6494L33.6968 19.5239L33.6217 19.6494L33.5962 19.5071L33.563 19.549L33.5124 19.3311L33.4706 19.4234L33.4036 19.1804L33.3535 19.2809L33.3199 19.0716L33.2864 19.1972L33.1858 19.0129L33.1692 19.0881L33.1106 18.9374L33.0769 18.9878C33.0769 18.9878 32.9094 18.9793 32.8592 18.9374C32.809 18.8957 32.6665 19.1889 32.6665 19.1889L32.6833 19.0129L32.6248 19.13V19.0129L32.5158 19.3646L32.4906 19.1133L32.432 19.3311L32.4068 19.2642L32.3901 19.3564L32.3565 19.3228L32.3273 19.4217L32.2727 19.3815V19.5155L32.2225 19.4484L32.1806 19.6495L32.1555 19.5659V19.6579L32.1137 19.6078L32.0716 19.8089L32.0131 19.7252L32.0049 19.8674L32.0298 19.9764L31.9628 19.9429L31.9881 20.1186C31.9881 20.1186 31.7283 19.6329 32.0384 19.1637C32.3481 18.6949 32.767 18.5691 32.767 18.5691L32.725 18.5274L32.7166 18.4854L32.4654 18.611L32.4739 18.5354L32.4068 18.5941L32.3901 18.5104L32.3481 18.5858L32.3399 18.5522L32.2811 18.6445L32.2475 18.5104L32.2057 18.6697L32.1662 18.5583L32.0801 18.7951V18.6193L32.0131 18.8037L31.988 18.6026L31.9378 18.837V18.6276L31.8622 18.837L31.8121 18.6361L31.7785 18.8286L31.7283 18.678L31.6779 18.904L31.6027 18.703L31.5608 19.0046L31.5106 18.8872L31.5021 19.105L31.4437 18.9711L31.5021 19.2557L31.4267 19.1469L31.452 19.3228L31.3432 19.1301L31.3515 19.3565L31.2928 19.2809L31.2675 19.3647C31.2675 19.3647 31.2426 18.4936 31.8371 18.3259C32.4321 18.1585 32.8174 18.3763 32.8174 18.3763L32.5913 18.1921L32.6163 18.1333H32.5326L32.5661 18.0663L32.3903 18.0748L32.4404 18.0077L32.3063 18.0244V17.9826L32.2226 18.0494L32.2561 17.9742L32.1388 18.0494L32.1317 17.938L32.0718 18.0329L32.0385 17.9323L31.7703 18.2002L31.8457 17.9239L31.7955 17.9826L31.7872 17.9239L31.7117 18.0413L31.6949 17.9574L31.6614 18.0579L31.6362 17.9407L31.5778 18.0579L31.519 17.9492L31.494 18.0916L31.452 18.0161L31.4017 18.125L31.3348 18.0579L31.3264 18.125L31.1923 18.0663L31.2259 18.1669L31.1253 18.0831L31.1001 18.2171L31.0416 18.1501L30.9998 18.3178L30.9579 18.1585L30.916 18.2842C30.916 18.2842 31.4398 16.9381 32.7651 17.8163C32.7651 17.8163 32.9094 17.9575 32.943 18.0579C32.9765 18.1585 32.9515 18.0748 32.9515 18.0748L32.9262 17.145L32.9765 17.5471L33.01 17.4046L33.0017 17.6141L33.1355 17.3209C33.1355 17.3209 32.9765 17.8068 33.035 17.9826C33.035 17.9826 33.0938 17.4215 33.295 17.3544L33.1106 17.7564L33.1692 17.748L33.1273 17.8319H33.1776L33.1168 17.9648L33.0854 18.0329L33.1188 18.0999L33.1694 18.0491Z" fill="#00AD50" stroke="black" stroke-width="0.0346667" stroke-miterlimit="4.8"/>
<path d="M33.0312 18.5955L33.0577 18.6193C33.0612 18.6156 33.1441 18.5273 33.2831 18.6448L33.3062 18.6174C33.1399 18.4768 33.032 18.5942 33.0312 18.5955Z" fill="black"/>
<path d="M32.9891 18.1398L32.9836 18.172C32.9836 18.172 33.0315 18.1517 33.0482 18.1445C33.0379 18.1629 33.0039 18.2222 33.0039 18.2222C33.0039 18.2222 33.0742 18.1988 33.1002 18.1901C33.0582 18.2452 32.9807 18.3464 32.9807 18.3464L33.0091 18.3684L33.1992 18.1194C33.1992 18.1194 33.1117 18.1487 33.0811 18.1589C33.0935 18.1374 33.1318 18.0697 33.1318 18.0697C33.1318 18.0697 33.0543 18.1031 33.0297 18.1136C33.0364 18.0724 33.0508 17.9859 33.0508 17.9859L33.0154 17.98L32.9891 18.1398Z" fill="black"/>
<path d="M32.8117 18.1501C32.8117 18.1501 32.8352 18.2021 32.8528 18.2407C32.8452 18.2376 32.7873 18.2144 32.7873 18.2144L32.9806 18.5564C32.9806 18.5564 33.0039 18.5265 33.0053 18.5247C32.9858 18.5746 32.9664 18.6249 32.9664 18.6249L32.9998 18.638L33.0831 18.4236L33.0523 18.4062C33.0523 18.4062 33.0066 18.4647 32.9852 18.4921C32.9672 18.4599 32.9003 18.3416 32.8685 18.2856C32.8725 18.2871 32.9222 18.3071 32.9222 18.3071C32.9222 18.3071 32.8857 18.2266 32.8687 18.1892C32.8913 18.2033 32.9412 18.2345 32.9412 18.2345V18.107H32.9055V18.1701C32.8777 18.1527 32.7871 18.0962 32.7871 18.0962L32.8117 18.1501Z" fill="black"/>
<path d="M32.6914 18.5791L32.7056 18.6118C32.758 18.5894 32.8011 18.5857 32.8339 18.6013C32.8722 18.6197 32.8838 18.6592 32.8839 18.6596L32.9183 18.6503C32.9179 18.648 32.9027 18.5948 32.8498 18.5693C32.8075 18.549 32.7541 18.5522 32.6914 18.5791Z" fill="black"/>
<path d="M32.8105 18.7543L32.8398 18.9416L32.8753 18.936L32.8459 18.7487L32.8105 18.7543Z" fill="black"/>
<path d="M33.05 18.7676L33.0977 18.9106L33.1317 18.8993L33.084 18.7562L33.05 18.7676Z" fill="black"/>
<path d="M33.1575 18.8732L33.1934 19.0161L33.2281 19.0074L33.1923 18.8645L33.1575 18.8732Z" fill="black"/>
<path d="M26.0359 23.3139C26.0359 23.3139 25.8788 23.2426 25.8073 23.2948C25.7358 23.3473 25.7456 23.4234 25.6836 23.4186C25.6836 23.4186 25.9216 23.471 25.9739 23.409C26.0262 23.3473 26.0359 23.3281 26.0359 23.3281" fill="#00AD50"/>
<path d="M26.0359 23.3139C26.0359 23.3139 25.8788 23.2426 25.8073 23.2948C25.7358 23.3473 25.7456 23.4234 25.6836 23.4186C25.6836 23.4186 25.9216 23.471 25.9739 23.409C26.0262 23.3473 26.0359 23.3281 26.0359 23.3281" stroke="black" stroke-width="0.0346667" stroke-miterlimit="4.8"/>
<path d="M26.0654 23.3797C26.0654 23.3797 25.962 23.5179 25.9977 23.5988C26.0334 23.6798 26.1099 23.6867 26.0918 23.7462C26.0918 23.7462 26.1941 23.5251 26.1449 23.4606C26.0958 23.3964 26.0794 23.383 26.0794 23.383" fill="#00AD50"/>
<path d="M26.0654 23.3797C26.0654 23.3797 25.962 23.5179 25.9977 23.5988C26.0334 23.6798 26.1099 23.6867 26.0918 23.7462C26.0918 23.7462 26.1941 23.5251 26.1449 23.4606C26.0958 23.3964 26.0794 23.383 26.0794 23.383" stroke="black" stroke-width="0.0346667" stroke-miterlimit="4.8"/>
<path d="M25.891 22.9969C25.891 22.9969 25.7261 23.048 25.7076 23.1344C25.6887 23.2209 25.7467 23.2716 25.6973 23.3092C25.6973 23.3092 25.9098 23.1901 25.9078 23.1089C25.9058 23.0279 25.9006 23.0074 25.9006 23.0074" fill="#00AD50"/>
<path d="M25.891 22.9969C25.891 22.9969 25.7261 23.048 25.7076 23.1344C25.6887 23.2209 25.7467 23.2716 25.6973 23.3092C25.6973 23.3092 25.9098 23.1901 25.9078 23.1089C25.9058 23.0279 25.9006 23.0074 25.9006 23.0074" stroke="black" stroke-width="0.0346667" stroke-miterlimit="4.8"/>
<path d="M25.9874 23.0536C25.9874 23.0536 26.0656 22.8995 26.0163 22.8261C25.9672 22.7522 25.8905 22.7586 25.8981 22.6971C25.8981 22.6971 25.8352 22.9324 25.8948 22.9876C25.9545 23.0423 25.9731 23.0528 25.9731 23.0528" fill="#00AD50"/>
<path d="M25.9874 23.0536C25.9874 23.0536 26.0656 22.8995 26.0163 22.8261C25.9672 22.7522 25.8905 22.7586 25.8981 22.6971C25.8981 22.6971 25.8352 22.9324 25.8948 22.9876C25.9545 23.0423 25.9731 23.0528 25.9731 23.0528" stroke="black" stroke-width="0.0346667" stroke-miterlimit="4.8"/>
<path d="M25.8269 22.9977C25.8269 22.9977 25.8307 22.8254 25.7544 22.7804C25.6781 22.7353 25.6117 22.7741 25.5918 22.7151C25.5918 22.7151 25.6374 22.9547 25.715 22.9786C25.7926 23.002 25.814 23.0034 25.814 23.0034" fill="#00AD50"/>
<path d="M25.8269 22.9977C25.8269 22.9977 25.8307 22.8254 25.7544 22.7804C25.6781 22.7353 25.6117 22.7741 25.5918 22.7151C25.5918 22.7151 25.6374 22.9547 25.715 22.9786C25.7926 23.002 25.814 23.0034 25.814 23.0034" stroke="black" stroke-width="0.0346667" stroke-miterlimit="4.8"/>
<path d="M26.1099 23.2851C26.1099 23.2851 26.2907 23.223 26.3051 23.4183C26.3194 23.6134 26.2955 23.5469 26.2955 23.5469C26.2955 23.5469 26.2003 23.3374 26.0957 23.3041L26.1099 23.2851Z" fill="#00AD50" stroke="black" stroke-width="0.0346667" stroke-miterlimit="4.8"/>
<path d="M26.0684 23.3822C26.0684 23.3864 26.0873 23.534 26.0873 23.534L26.1127 23.5307L26.0936 23.3831C26.0942 23.3833 26.1554 23.0586 26.1554 23.0586L26.1302 23.054L26.0684 23.3822Z" fill="black"/>
<path d="M25.903 23.3337L25.8945 23.3578C25.981 23.3882 26.1017 23.2932 26.1067 23.2892L26.0907 23.2693C26.0896 23.27 25.9761 23.3597 25.903 23.3337Z" fill="black"/>
<path d="M25.7243 22.9391L26.1289 23.1438L26.145 23.1119L25.7405 22.9073L25.7243 22.9391Z" fill="black"/>
<path d="M25.8108 23.0722L25.8359 23.0974L25.9169 23.0166L25.8917 22.9914L25.8108 23.0722Z" fill="black"/>
<path d="M25.8909 22.8721L25.9766 23.0579L26.009 23.0429L25.9233 22.8571L25.8909 22.8721Z" fill="black"/>
<path d="M26.0957 23.2855L26.098 23.3213C26.208 23.3138 26.2349 23.385 26.2351 23.3858L26.2702 23.3785C26.266 23.3582 26.2219 23.2771 26.0957 23.2855Z" fill="black"/>
<path d="M27.9496 23.3683C28.0845 23.2927 28.1115 23.0279 28.1115 23.0279C28.0793 23.1253 27.831 23.2224 27.831 23.2224C28.0145 23.1088 28.2356 22.5964 28.2356 22.5964C28.1763 22.78 27.6961 22.9309 27.3884 23.1036C27.0807 23.2762 27.2427 23.7728 27.2427 23.7728C27.1565 23.7134 26.9891 23.4492 26.9568 23.2169C26.9243 22.9849 26.8326 22.8933 26.6221 22.8663C26.4116 22.8392 26.2875 23.0766 26.2875 23.0766L25.9746 23.2386L26.2928 23.2493C26.2928 23.2493 26.5197 23.325 26.5197 23.5031C26.5197 23.6813 26.32 24.3935 26.6491 24.7929C26.8781 25.0705 27.7231 25.2299 27.7231 25.2299" fill="white"/>
<path d="M27.9496 23.3683C28.0845 23.2927 28.1115 23.0279 28.1115 23.0279C28.0793 23.1253 27.831 23.2224 27.831 23.2224C28.0145 23.1088 28.2356 22.5964 28.2356 22.5964C28.1763 22.78 27.6961 22.9309 27.3884 23.1036C27.0807 23.2762 27.2427 23.7728 27.2427 23.7728C27.1565 23.7134 26.9891 23.4492 26.9568 23.2169C26.9243 22.9849 26.8326 22.8933 26.6221 22.8663C26.4116 22.8392 26.2875 23.0766 26.2875 23.0766L25.9746 23.2386L26.2928 23.2493C26.2928 23.2493 26.5197 23.325 26.5197 23.5031C26.5197 23.6813 26.32 24.3935 26.6491 24.7929C26.8781 25.0705 27.7231 25.2299 27.7231 25.2299" stroke="black" stroke-width="0.0444444" stroke-miterlimit="4.8"/>
<path d="M27.3301 23.9185C27.3301 23.9185 27.3948 23.6 27.6053 23.6109C27.8157 23.6216 27.8751 23.3735 27.9992 23.3357C28.1233 23.298 28.7655 23.1254 28.8357 22.8176C28.8357 22.8176 28.7763 23.325 28.1882 23.5786C28.1882 23.5786 28.6629 23.422 28.717 23.3195C28.717 23.3195 28.5064 23.7728 27.9938 23.8429C27.9938 23.8429 28.4741 23.8052 28.5443 23.6758C28.5443 23.6758 28.3284 23.9617 27.9723 23.9996C27.9723 23.9996 28.3014 24.1344 28.3878 24.0211C28.3878 24.0211 28.2097 24.2315 27.9884 24.2476L28.0479 24.2638C28.0479 24.2638 27.8374 24.5122 27.6053 24.3448C27.3734 24.1774 27.3678 24.3881 27.3678 24.3881" fill="white"/>
<path d="M27.3301 23.9185C27.3301 23.9185 27.3948 23.6 27.6053 23.6109C27.8157 23.6216 27.8751 23.3735 27.9992 23.3357C28.1233 23.298 28.7655 23.1254 28.8357 22.8176C28.8357 22.8176 28.7763 23.325 28.1882 23.5786C28.1882 23.5786 28.6629 23.422 28.717 23.3195C28.717 23.3195 28.5064 23.7728 27.9938 23.8429C27.9938 23.8429 28.4741 23.8052 28.5443 23.6758C28.5443 23.6758 28.3284 23.9617 27.9723 23.9996C27.9723 23.9996 28.3014 24.1344 28.3878 24.0211C28.3878 24.0211 28.2097 24.2315 27.9884 24.2476L28.0479 24.2638C28.0479 24.2638 27.8374 24.5122 27.6053 24.3448C27.3734 24.1774 27.3678 24.3881 27.3678 24.3881" stroke="black" stroke-width="0.0444444" stroke-miterlimit="4.8"/>
<path d="M27.809 24.3987C27.809 24.3987 28.0801 24.8521 28.1071 25.0949C28.1071 25.0949 28.6252 25.667 28.8195 25.6991C28.8195 25.6991 28.7277 25.7368 28.5603 25.5967C28.5603 25.5967 28.7006 25.7424 28.7277 25.7478C28.7546 25.7534 28.6143 25.737 28.5926 25.6991C28.5926 25.6991 28.6521 25.7857 28.6898 25.7965C28.7277 25.8073 28.6521 25.7857 28.6521 25.7857C28.6521 25.7857 28.5818 25.7749 28.5495 25.7478C28.5171 25.7209 28.5387 25.8178 28.5387 25.8178C28.5387 25.8178 28.4577 25.7962 28.4308 25.7693C28.4038 25.7424 28.4417 25.8288 28.4417 25.8288L28.3715 25.8126L28.323 25.8448C28.323 25.8448 28.3175 25.8773 28.285 25.8503C28.2528 25.8236 28.1933 25.8503 28.1933 25.8503C28.1933 25.8503 28.15 25.8881 28.1286 25.8611C28.1071 25.8342 28.0253 25.9649 28.0253 25.9649L27.6855 25.1447" fill="white"/>
<path d="M27.809 24.3987C27.809 24.3987 28.0801 24.8521 28.1071 25.0949C28.1071 25.0949 28.6252 25.667 28.8195 25.6991C28.8195 25.6991 28.7277 25.7368 28.5603 25.5967C28.5603 25.5967 28.7006 25.7424 28.7277 25.7478C28.7546 25.7534 28.6143 25.737 28.5926 25.6991C28.5926 25.6991 28.6521 25.7857 28.6898 25.7965C28.7277 25.8073 28.6521 25.7857 28.6521 25.7857C28.6521 25.7857 28.5818 25.7749 28.5495 25.7478C28.5171 25.7209 28.5387 25.8178 28.5387 25.8178C28.5387 25.8178 28.4577 25.7962 28.4308 25.7693C28.4038 25.7424 28.4417 25.8288 28.4417 25.8288L28.3715 25.8126L28.323 25.8448C28.323 25.8448 28.3175 25.8773 28.285 25.8503C28.2528 25.8236 28.1933 25.8503 28.1933 25.8503C28.1933 25.8503 28.15 25.8881 28.1286 25.8611C28.1071 25.8342 28.0253 25.9649 28.0253 25.9649L27.6855 25.1447" stroke="black" stroke-width="0.0444444" stroke-miterlimit="4.8"/>
<path d="M27.7031 25.0682L28.1326 25.8857L28.1777 25.862L27.7482 25.0446L27.7031 25.0682Z" fill="black"/>
<path d="M27.7711 25.0082L28.5059 25.8308L28.544 25.7967L27.8093 24.9741L27.7711 25.0082Z" fill="black"/>
<path d="M27.8354 24.9772L28.6738 25.7585L28.7086 25.7212L27.8702 24.9399L27.8354 24.9772Z" fill="black"/>
<path d="M26.5741 23.1273C26.5741 23.1273 26.5194 23.0293 26.4718 23.0661C26.4242 23.1028 26.3969 23.1095 26.3887 23.107C26.3887 23.107 26.4365 23.1096 26.4636 23.0838C26.4909 23.0578 26.5372 23.0742 26.5741 23.1273Z" fill="black"/>
<path d="M26.2767 23.0832C26.2767 23.0832 26.3067 23.1453 26.3071 23.1464C26.3041 23.1466 26.2732 23.2467 26.2732 23.2467L26.2978 23.2543L26.3311 23.1452C26.3305 23.1358 26.2999 23.0723 26.2999 23.0723L26.2767 23.0832Z" fill="black"/>
<path d="M26.5606 23.1121C26.5606 23.1121 26.5198 23.1599 26.4639 23.1461C26.4082 23.1325 26.4082 23.1325 26.4082 23.1325C26.4082 23.1325 26.4556 23.1352 26.4871 23.1367C26.5183 23.138 26.5591 23.1217 26.5606 23.1121Z" fill="black"/>
<path d="M26.5473 23.1224C26.5473 23.1224 26.497 23.0693 26.4629 23.0843C26.4629 23.0843 26.5229 23.0651 26.5569 23.1167L26.5473 23.1224Z" fill="black"/>
<path d="M26.5398 23.1123C26.5398 23.1123 26.4826 23.1517 26.4199 23.1083L26.416 23.1053L26.4242 23.1027C26.4242 23.1028 26.5032 23.1354 26.5398 23.1123Z" fill="black"/>
<path d="M26.4918 23.1201C26.5013 23.1201 26.5091 23.1124 26.5091 23.1029C26.5091 23.0934 26.5013 23.0857 26.4918 23.0857C26.4823 23.0857 26.4746 23.0934 26.4746 23.1029C26.4746 23.1124 26.4823 23.1201 26.4918 23.1201Z" fill="black"/>
<path d="M26.5373 24.6099C26.5373 24.6099 26.4931 24.6914 26.5162 24.7405C26.5397 24.7895 26.6447 24.8149 26.6587 24.8803C26.6728 24.9459 26.7078 24.9457 26.7568 24.9366C26.8059 24.9271 26.8152 24.9248 26.8152 24.9248C26.8152 24.9248 26.6097 24.8149 26.5559 24.6377L26.5373 24.6099Z" fill="black"/>
<path d="M33.1791 22.9489C33.1791 22.9489 33.5533 22.4556 33.885 22.5852C34.2168 22.7148 34.4324 22.7772 34.4324 22.7772C34.4324 22.7772 34.4387 23.1094 34.2623 23.1094C34.0863 23.1094 33.9175 22.7776 33.7571 22.8763C33.5964 22.9747 33.4645 23.1096 33.4541 23.1561C33.4437 23.2027 33.0291 23.2131 33.1791 22.9489Z" fill="#862633" stroke="black" stroke-width="0.0213333" stroke-miterlimit="4.8"/>
<path d="M31.7583 25.3277C31.7583 25.3277 31.6549 25.4364 31.7015 25.4625C31.7484 25.4883 31.8414 25.457 31.8414 25.4209C31.8413 25.3844 31.7794 25.3174 31.7583 25.3277Z" fill="#862633" stroke="black" stroke-width="0.0346667" stroke-miterlimit="4.8"/>
<path d="M31.6774 25.4309C31.6774 25.4309 31.4858 25.3218 31.3354 25.581C31.1849 25.8401 31.0607 26.26 30.9726 26.317C30.8845 26.374 31.8278 25.9024 31.8382 25.7055C31.8382 25.7055 31.9002 25.4515 31.8018 25.4565C31.7034 25.462 31.6981 25.4724 31.6774 25.4309Z" fill="#862633" stroke="black" stroke-width="0.0346667" stroke-miterlimit="4.8"/>
<path d="M31.7028 25.4623C31.7028 25.4623 31.5059 25.5086 31.4645 25.7884C31.4231 26.0685 31.1483 26.2135 31.1328 26.2238" fill="#862633"/>
<path d="M31.7028 25.4623C31.7028 25.4623 31.5059 25.5086 31.4645 25.7884C31.4231 26.0685 31.1483 26.2135 31.1328 26.2238" stroke="black" stroke-width="0.0213333" stroke-miterlimit="4.8"/>
<path d="M34.4315 22.7773C34.4315 22.7773 34.132 22.8815 34.1837 23.0889L34.4315 22.7773Z" fill="#862633"/>
<path d="M34.4315 22.7773C34.4315 22.7773 34.132 22.8815 34.1837 23.0889" stroke="black" stroke-width="0.0213333" stroke-miterlimit="4.8"/>
<path d="M32.1348 23.3846C32.1348 23.3846 32.1451 22.6745 32.7252 22.7056C32.8351 22.7158 32.7827 22.8454 32.7827 22.8454C32.7827 22.8454 32.9082 22.7575 32.9655 22.8972C32.9655 22.8972 33.1485 22.8144 33.1693 22.9958C33.1693 22.9958 33.3679 22.97 33.3417 23.1305C33.3417 23.1305 33.4775 23.0995 33.4725 23.2135C33.4725 23.2135 33.6292 23.1513 33.6134 23.312C33.6134 23.312 33.7859 23.198 33.7599 23.4052C33.7599 23.4052 33.9376 23.2809 34 23.4882C34.0628 23.6954 33.8225 24.1359 33.5873 24.2499" fill="#FEDD00"/>
<path d="M32.1348 23.3846C32.1348 23.3846 32.1451 22.6745 32.7252 22.7056C32.8351 22.7158 32.7827 22.8454 32.7827 22.8454C32.7827 22.8454 32.9082 22.7575 32.9655 22.8972C32.9655 22.8972 33.1485 22.8144 33.1693 22.9958C33.1693 22.9958 33.3679 22.97 33.3417 23.1305C33.3417 23.1305 33.4775 23.0995 33.4725 23.2135C33.4725 23.2135 33.6292 23.1513 33.6134 23.312C33.6134 23.312 33.7859 23.198 33.7599 23.4052C33.7599 23.4052 33.9376 23.2809 34 23.4882C34.0628 23.6954 33.8225 24.1359 33.5873 24.2499" stroke="black" stroke-width="0.0213333" stroke-miterlimit="4.8"/>
<path d="M33.7473 23.4273C33.7481 23.4329 33.8255 23.9828 33.5137 24.184L33.5247 24.2014C33.8478 23.9929 33.7683 23.43 33.7676 23.4243L33.7473 23.4273Z" fill="black"/>
<path d="M33.373 24.0295L33.3874 24.0442C33.5849 23.852 33.6274 23.3342 33.6289 23.3123L33.6087 23.3105C33.6082 23.316 33.5653 23.8427 33.373 24.0295Z" fill="black"/>
<path d="M33.1875 23.9061L33.2079 23.9078C33.2333 23.588 33.4832 23.2222 33.4859 23.2185L33.469 23.207C33.4664 23.2107 33.2134 23.5809 33.1875 23.9061Z" fill="black"/>
<path d="M33.043 23.8133L33.0633 23.8153C33.0989 23.4296 33.3537 23.1399 33.3562 23.1372L33.341 23.1235C33.3384 23.1264 33.0792 23.4207 33.043 23.8133Z" fill="black"/>
<path d="M32.8418 23.6844L32.8622 23.6851C32.8824 23.2296 33.1813 23.006 33.1843 23.0038L33.1721 22.9873C33.1693 22.9896 32.8625 23.2185 32.8418 23.6844Z" fill="black"/>
<path d="M32.6548 23.5713L32.6753 23.5707C32.6604 23.1561 32.9791 22.9079 32.9824 22.9054L32.9701 22.8892C32.9668 22.8918 32.6397 23.1461 32.6548 23.5713Z" fill="black"/>
<path d="M32.3184 23.4192L32.3386 23.4217C32.3941 22.973 32.7935 22.8562 32.7975 22.8551L32.792 22.8354C32.788 22.8365 32.3754 22.9567 32.3184 23.4192Z" fill="black"/>
<path d="M31.7922 24.2448C31.7922 24.2448 31.6939 23.5864 32.0876 23.3793C32.0876 23.3793 32.1604 23.3637 32.2016 23.457C32.2016 23.457 32.4091 23.369 32.4143 23.5449C32.4143 23.5449 32.5178 23.4621 32.5438 23.576C32.5438 23.576 32.7666 23.5295 32.7252 23.6953C32.7252 23.6953 32.9117 23.6435 32.8961 23.804C32.8961 23.804 33.0828 23.7367 33.0515 23.8766C33.0515 23.8766 33.2484 23.8301 33.2019 23.9907C33.2019 23.9907 33.4455 23.9649 33.373 24.1358C33.373 24.1358 33.5543 24.0893 33.5128 24.2292C33.5128 24.2292 33.7512 24.2707 33.6423 24.4209C33.5335 24.5711 33.2588 24.7991 32.9896 24.8976" fill="#00AD50"/>
<path d="M31.7922 24.2448C31.7922 24.2448 31.6939 23.5864 32.0876 23.3793C32.0876 23.3793 32.1604 23.3637 32.2016 23.457C32.2016 23.457 32.4091 23.369 32.4143 23.5449C32.4143 23.5449 32.5178 23.4621 32.5438 23.576C32.5438 23.576 32.7666 23.5295 32.7252 23.6953C32.7252 23.6953 32.9117 23.6435 32.8961 23.804C32.8961 23.804 33.0828 23.7367 33.0515 23.8766C33.0515 23.8766 33.2484 23.8301 33.2019 23.9907C33.2019 23.9907 33.4455 23.9649 33.373 24.1358C33.373 24.1358 33.5543 24.0893 33.5128 24.2292C33.5128 24.2292 33.7512 24.2707 33.6423 24.4209C33.5335 24.5711 33.2588 24.7991 32.9896 24.8976" stroke="black" stroke-width="0.0213333" stroke-miterlimit="4.8"/>
<path d="M31.5812 24.908C31.5812 24.908 31.4205 24.3589 31.7265 24.2187C31.7265 24.2187 31.7832 24.2031 31.7936 24.2603C31.7936 24.2603 31.8611 24.1721 31.913 24.2499C31.913 24.2499 32.0683 24.1774 32.1048 24.2913C32.1048 24.2913 32.2083 24.2031 32.2603 24.3326C32.2603 24.3326 32.3587 24.2913 32.3587 24.3949C32.3587 24.3949 32.4934 24.3378 32.4934 24.4623C32.4934 24.4623 32.6228 24.4105 32.597 24.5503C32.597 24.5503 32.794 24.5814 32.737 24.6746C32.737 24.6746 32.9134 24.7211 32.8458 24.7939C32.8458 24.7939 33.0374 24.7732 32.9338 24.9027C32.9338 24.9027 33.0789 24.8562 32.9961 25.0169C32.9131 25.1775 32.6541 25.3536 32.4727 25.3743" fill="#00AD50"/>
<path d="M31.5812 24.908C31.5812 24.908 31.4205 24.3589 31.7265 24.2187C31.7265 24.2187 31.7832 24.2031 31.7936 24.2603C31.7936 24.2603 31.8611 24.1721 31.913 24.2499C31.913 24.2499 32.0683 24.1774 32.1048 24.2913C32.1048 24.2913 32.2083 24.2031 32.2603 24.3326C32.2603 24.3326 32.3587 24.2913 32.3587 24.3949C32.3587 24.3949 32.4934 24.3378 32.4934 24.4623C32.4934 24.4623 32.6228 24.4105 32.597 24.5503C32.597 24.5503 32.794 24.5814 32.737 24.6746C32.737 24.6746 32.9134 24.7211 32.8458 24.7939C32.8458 24.7939 33.0374 24.7732 32.9338 24.9027C32.9338 24.9027 33.0789 24.8562 32.9961 25.0169C32.9131 25.1775 32.6541 25.3536 32.4727 25.3743" stroke="black" stroke-width="0.0213333" stroke-miterlimit="4.8"/>
<path d="M31.771 25.3431C31.771 25.3431 31.429 25.0115 31.5899 24.9131C31.5899 24.9131 31.6622 24.9336 31.6882 25.0063C31.6882 25.0063 31.771 24.8871 31.8178 25.0114C31.8178 25.0114 31.9423 24.97 31.9423 25.0531L32.0406 25.1257C32.0406 25.1257 32.1548 25.1152 32.1341 25.1878C32.1341 25.1878 32.2584 25.1722 32.2532 25.2396C32.2532 25.2396 32.3621 25.2447 32.3518 25.3171C32.3518 25.3171 32.5381 25.3482 32.4553 25.4417C32.4553 25.4417 32.1288 25.5089 31.9008 25.4158C31.9008 25.4157 31.7814 25.3742 31.771 25.3431Z" fill="#00AD50" stroke="black" stroke-width="0.0213333" stroke-miterlimit="4.8"/>
<path d="M32.9473 24.7947L32.9546 24.8137C33.1572 24.7357 33.5092 24.2553 33.5242 24.2349L33.5076 24.2227C33.5039 24.2278 33.1443 24.7189 32.9473 24.7947Z" fill="black"/>
<path d="M32.8301 24.7066L32.84 24.7244C33.0164 24.626 33.3675 24.161 33.3823 24.1412L33.366 24.1289C33.3625 24.1339 33.0027 24.6104 32.8301 24.7066L32.8301 24.7066Z" fill="black"/>
<path d="M32.7305 24.6661L32.7436 24.6817C32.9298 24.5271 33.201 24.0166 33.2126 23.995L33.1945 23.9854C33.1918 23.9906 32.9136 24.514 32.7305 24.6661Z" fill="black"/>
<path d="M32.6426 24.5483L32.6628 24.5511C32.6982 24.293 33.0608 23.8868 33.0643 23.8828L33.0491 23.8691C33.0342 23.886 32.6787 24.2841 32.6426 24.5483Z" fill="black"/>
<path d="M31.9143 24.2349L31.9347 24.2331C31.9043 23.8686 32.2094 23.467 32.2125 23.463L32.1963 23.4507C32.1931 23.4546 31.8833 23.8623 31.9143 24.2349Z" fill="black"/>
<path d="M32.1072 24.2666L32.1275 24.2631C32.077 23.9707 32.4221 23.5551 32.4257 23.5511L32.4101 23.5378C32.3956 23.5551 32.0552 23.9647 32.1072 24.2666Z" fill="black"/>
<path d="M32.4026 24.3743L32.423 24.3737C32.413 24.0401 32.7331 23.7057 32.7364 23.7022L32.7217 23.688C32.7185 23.6914 32.3922 24.0321 32.4026 24.3743Z" fill="black"/>
<path d="M31.6974 24.9784L31.7166 24.9712C31.6003 24.6629 31.8021 24.2682 31.8042 24.2643L31.7858 24.2549C31.7838 24.2589 31.5779 24.6615 31.6974 24.9784Z" fill="black"/>
<path d="M31.8297 24.9989L31.8491 24.9926C31.7477 24.6786 31.9196 24.2577 31.9214 24.2536L31.9024 24.2457C31.9007 24.2498 31.7261 24.6778 31.8297 24.9989Z" fill="black"/>
<path d="M32.3887 25.3125L32.3957 25.3318C32.7263 25.2129 32.9425 24.9113 32.9447 24.9084L32.928 24.8965C32.926 24.8995 32.7135 25.196 32.3887 25.3125Z" fill="black"/>
<path d="M32.3203 25.2401L32.3286 25.2588C32.5924 25.1398 32.8383 24.8078 32.8406 24.8044L32.8242 24.7925C32.8217 24.7958 32.5791 25.1233 32.3203 25.2401Z" fill="black"/>
<path d="M32.2561 25.2149L32.2681 25.2315C32.4744 25.0821 32.7393 24.699 32.7421 24.6951L32.7253 24.6837C32.7226 24.6875 32.4597 25.0676 32.2561 25.2149Z" fill="black"/>
<path d="M31.9226 25.0227L31.9428 25.0198C31.8972 24.6903 32.1105 24.2994 32.1128 24.2956L32.0949 24.2856C32.0926 24.2897 31.8761 24.6865 31.9226 25.0227Z" fill="black"/>
<path d="M32.0684 25.112L32.0821 25.1272C32.2949 24.9351 32.3674 24.4173 32.3703 24.3954L32.3501 24.3926C32.3494 24.3979 32.2757 24.9251 32.0684 25.112Z" fill="black"/>
<path d="M32.2129 25.1736L32.2248 25.1901C32.5252 24.9729 32.6066 24.5557 32.6073 24.5517L32.5873 24.5479C32.5865 24.5519 32.5067 24.9609 32.2129 25.1736Z" fill="black"/>
<path d="M32.2485 24.2752C32.2485 24.2947 32.2494 24.3141 32.2512 24.3338C32.2509 24.3321 32.0234 25.0708 32.0234 25.0708L32.0429 25.0768L32.2713 24.3357C32.236 23.9775 32.5511 23.5864 32.5542 23.5826L32.5385 23.5698C32.5353 23.5733 32.2485 23.9295 32.2485 24.2752Z" fill="black"/>
<path d="M32.4878 24.4553C32.4848 24.4657 32.4155 24.9717 32.1426 25.1583L32.1542 25.1752C32.4348 24.9832 32.503 24.4843 32.5057 24.4633C32.6268 24.3191 32.9059 23.8138 32.9088 23.8087L32.8908 23.7988C32.888 23.8039 32.61 24.3078 32.4878 24.4553Z" fill="black"/>
<path d="M31.6816 25.008C31.6837 25.0186 31.7293 25.27 31.7815 25.3587L31.7991 25.3484C31.7486 25.2628 31.7024 25.0071 31.7019 25.0044L31.6816 25.008Z" fill="black"/>
<path d="M31.8108 25.0108C31.813 25.136 31.8136 25.3413 31.8066 25.3595L31.8256 25.367C31.8361 25.3407 31.8321 25.0655 31.8313 25.0106L31.8108 25.0108Z" fill="black"/>
<path d="M31.8201 25.3693L31.8386 25.3776C31.9263 25.1869 31.9532 25.0554 31.9536 25.0542L31.9335 25.0502C31.9332 25.0512 31.9067 25.1809 31.8201 25.3693Z" fill="black"/>
<path d="M31.8418 25.3755L31.8521 25.3931C32.0147 25.2987 32.0524 25.1344 32.0537 25.1275L32.0338 25.123C32.0334 25.1247 31.9965 25.2858 31.8418 25.3755Z" fill="black"/>
<path d="M31.873 25.3894L31.8751 25.4096C32.0344 25.3937 32.1429 25.2002 32.1475 25.192L32.1295 25.1821C32.1285 25.1842 32.0216 25.3745 31.873 25.3894Z" fill="black"/>
<path d="M31.8867 25.3997L31.8879 25.4201C32.1437 25.4043 32.2588 25.2515 32.2634 25.245L32.2469 25.2329C32.2458 25.2344 32.1324 25.3847 31.8867 25.3997Z" fill="black"/>
<path d="M31.9046 25.4053L31.9004 25.4252C31.9142 25.4284 32.24 25.4974 32.3516 25.3276L32.3345 25.3164C32.2307 25.4745 31.9078 25.4059 31.9046 25.4053Z" fill="black"/>
<path d="M24.5918 13.4873V22.6024C24.5918 25.5837 29.9785 27.354 29.9785 27.354C29.9785 27.354 35.3651 25.5836 35.3651 22.6024V13.4873H24.5918Z" stroke="black" stroke-width="0.186667" stroke-miterlimit="4.8"/>
</g>
<defs>
<clipPath id="clip0_1_15210">
<rect width="40" height="40" rx="20" fill="white"/>
</clipPath>
</defs>
</svg>
