<svg width="40" height="40" viewBox="0 0 40 40" fill="none" xmlns="http://www.w3.org/2000/svg">
<g clip-path="url(#clip0_1_4740)">
<rect width="40" height="40" rx="20" fill="white"/>
<path d="M0 6.66684H40V33.3335H0V6.66684Z" fill="white"/>
<path d="M17.3333 -8.33316H22.6667V48.3335H17.3333V-8.33316ZM0 17.3335H40V22.6668H0V17.3335Z" fill="#FF0000"/>
<path d="M9.79102 8.27161C10.4134 8.35335 11.0438 8.35335 11.6662 8.27161C11.3049 10.0723 11.3049 11.9269 11.6662 13.7276C11.0438 13.6459 10.4134 13.6459 9.79102 13.7276C10.1523 11.9269 10.1523 10.0723 9.79102 8.27161Z" fill="#FF0000"/>
<path d="M13.4551 10.0616C13.3733 10.684 13.3733 11.3145 13.4551 11.9368C11.6544 11.5755 9.7998 11.5755 7.99908 11.9368C8.08082 11.3145 8.08082 10.684 7.99908 10.0616C9.7998 10.423 11.6544 10.423 13.4551 10.0616Z" fill="#FF0000"/>
<path d="M28.2461 8.27148C28.8685 8.35323 29.4989 8.35323 30.1213 8.27148C29.76 10.0722 29.76 11.9268 30.1213 13.7275C29.4989 13.6457 28.8685 13.6457 28.2461 13.7275C28.6074 11.9268 28.6074 10.0722 28.2461 8.27148Z" fill="#FF0000"/>
<path d="M31.9102 10.0615C31.8284 10.6839 31.8284 11.3143 31.9102 11.9367C30.1094 11.5754 28.2549 11.5754 26.4542 11.9367C26.5359 11.3143 26.5359 10.6839 26.4542 10.0615C28.2549 10.4228 30.1094 10.4228 31.9102 10.0615Z" fill="#FF0000"/>
<path d="M9.79102 26.2715C10.4134 26.3532 11.0438 26.3532 11.6662 26.2715C11.3049 28.0722 11.3049 29.9268 11.6662 31.7275C11.0438 31.6457 10.4134 31.6457 9.79102 31.7275C10.1523 29.9268 10.1523 28.0722 9.79102 26.2715Z" fill="#FF0000"/>
<path d="M13.4551 28.0615C13.3733 28.6839 13.3733 29.3143 13.4551 29.9367C11.6544 29.5754 9.7998 29.5754 7.99908 29.9367C8.08082 29.3143 8.08082 28.6839 7.99908 28.0615C9.7998 28.4228 11.6544 28.4228 13.4551 28.0615Z" fill="#FF0000"/>
<path d="M28.248 26.2715C28.8704 26.3532 29.5009 26.3532 30.1232 26.2715C29.7619 28.0722 29.7619 29.9268 30.1232 31.7275C29.5009 31.6457 28.8704 31.6457 28.248 31.7275C28.6094 29.9268 28.6094 28.0722 28.248 26.2715Z" fill="#FF0000"/>
<path d="M31.9121 28.0615C31.8304 28.6839 31.8304 29.3143 31.9121 29.9367C30.1114 29.5754 28.2568 29.5754 26.4561 29.9367C26.5379 29.3143 26.5379 28.6839 26.4561 28.0615C28.2568 28.4228 30.1114 28.4228 31.9121 28.0615Z" fill="#FF0000"/>
</g>
<defs>
<clipPath id="clip0_1_4740">
<rect width="40" height="40" rx="20" fill="white"/>
</clipPath>
</defs>
</svg>
