<svg width="40" height="40" viewBox="0 0 40 40" fill="none" xmlns="http://www.w3.org/2000/svg">
<rect width="40" height="40" rx="20" fill="#CE1126"/>
<path d="M2 7.99988H37.9107V31.9999H2V7.99988Z" fill="#CE1126"/>
<path d="M5.01562 11.3593H34.8933V28.6393H5.01562V11.3593Z" fill="#007A5E"/>
<path d="M5.01562 11.3593H34.8933L5.01562 28.6393H34.8933L5.01562 11.3593Z" fill="#FCD116"/>
<path d="M20.0477 22.8288C21.6383 22.8288 22.9277 21.5394 22.9277 19.9488C22.9277 18.3583 21.6383 17.0688 20.0477 17.0688C18.4571 17.0688 17.1677 18.3583 17.1677 19.9488C17.1677 21.5394 18.4571 22.8288 20.0477 22.8288Z" fill="#CE1126"/>
<path d="M7.41992 20.0326C7.78024 20.7038 8.48112 21.4342 9.0932 21.691C9.10304 21.0094 8.8612 20.1358 8.53048 19.4398L7.41992 20.0326Z" fill="#CE1126"/>
<path d="M6.80774 17.7299C7.33006 18.8187 5.4531 21.4163 8.58022 22.0251C8.19446 21.4987 7.94574 20.6299 8.03982 19.9323C8.6959 20.1819 9.38622 20.9123 9.66518 21.4707C10.4836 18.4987 7.56598 18.6795 6.80774 17.7299Z" fill="#FCD116"/>
<path d="M12.0344 28.7599L11.1175 31.582L13.5181 29.8379H10.5508L12.9514 31.582L12.0344 28.7599Z" fill="#FCD116"/>
<path d="M20.0344 28.7601L19.1175 31.5822L21.5181 29.8381H18.5508L20.9514 31.5822L20.0344 28.7601Z" fill="#FCD116"/>
<path d="M28.0364 28.7601L27.1194 31.5822L29.52 29.8381H26.5527L28.9533 31.5822L28.0364 28.7601Z" fill="#FCD116"/>
<path d="M28.0364 8.12L27.1194 10.942L29.52 9.19792H26.5527L28.9533 10.942L28.0364 8.12Z" fill="#FCD116"/>
<path d="M20.0344 8.12L19.1175 10.942L21.5181 9.19792H18.5508L20.9514 10.942L20.0344 8.12Z" fill="#FCD116"/>
<path d="M12.0344 8.12L11.1175 10.942L13.5181 9.19792H10.5508L12.9514 10.942L12.0344 8.12Z" fill="#FCD116"/>
<path d="M20.0362 17.3602L18.4844 22.136L22.5469 19.1844H17.5254L21.5879 22.136L20.0362 17.3602Z" fill="#FCD116"/>
</svg>
