<svg width="40" height="40" viewBox="0 0 40 40" fill="none" xmlns="http://www.w3.org/2000/svg">
<g clip-path="url(#clip0_1_10138)">
<path d="M-10 0H50V40H-10V0Z" fill="white"/>
<path d="M-10 0H50V13.3333H-10V0ZM-10 26.6667H50V40H-10V26.6667Z" fill="#00BCE4"/>
<path d="M8.73063 14.4971L10.0369 18.5171L6.61719 16.0326H10.8441L7.42441 18.5171L8.73063 14.4971Z" fill="#00BCE4"/>
<path d="M8.73063 21.1638L10.0369 25.1838L6.61719 22.6994H10.8441L7.42441 25.1838L8.73063 21.1638Z" fill="#00BCE4"/>
<path d="M19.842 17.8308L21.1482 21.8508L17.7285 19.3664H21.9554L18.5357 21.8508L19.842 17.8308Z" fill="#00BCE4"/>
<path d="M30.953 14.4973L32.2593 18.5173L28.8396 16.0329H33.0665L29.6468 18.5173L30.953 14.4973Z" fill="#00BCE4"/>
<path d="M30.9528 21.1638L32.259 25.1838L28.8394 22.6994H33.0662L29.6466 25.1838L30.9528 21.1638Z" fill="#00BCE4"/>
</g>
<defs>
<clipPath id="clip0_1_10138">
<rect width="40" height="40" rx="20" fill="white"/>
</clipPath>
</defs>
</svg>
