<svg width="40" height="40" viewBox="0 0 40 40" fill="none" xmlns="http://www.w3.org/2000/svg">
<g clip-path="url(#clip0_1_6696)">
<path d="M-10 0H50V40H-10V0Z" fill="#EE1C25"/>
<path d="M22.8635 8.3465C22.5909 8.43375 22.3422 8.58267 22.1366 8.78167C21.931 8.98068 21.774 9.22442 21.6779 9.49395C21.5818 9.76348 21.5491 10.0515 21.5825 10.3357C21.6158 10.6199 21.7142 10.8926 21.87 11.1326C22.1097 11.5017 22.2655 11.9188 22.3266 12.3546C22.3877 12.7904 22.3526 13.2343 22.2236 13.6551C22.0947 14.0758 21.8751 14.4632 21.5803 14.7899C21.2855 15.1167 20.9227 15.3748 20.5174 15.5462C20.1181 15.7151 19.7679 15.9819 19.4992 16.3221C19.2305 16.6622 19.0519 17.0646 18.98 17.4921C18.9081 17.9196 18.9452 18.3583 19.0879 18.7676C19.2306 19.1769 19.4742 19.5436 19.7963 19.8338C18.8277 19.1446 18.1666 18.1043 17.9541 16.9347C17.7415 15.7651 17.9942 14.5588 18.6584 13.5729C18.6326 13.5508 18.608 13.5275 18.5845 13.503C17.9048 14.5041 17.6414 15.7304 17.8499 16.9223C18.0583 18.1142 18.7224 19.1782 19.7014 19.8892C18.3283 19.3393 17.2056 18.3032 16.5473 16.9786C15.889 15.6541 15.7412 14.1335 16.132 12.7069C16.5228 11.2804 17.4249 10.0475 18.6664 9.24329C19.9078 8.43911 21.4018 8.1199 22.8635 8.3465Z" fill="white"/>
<path d="M20.1328 12.0733L18.2952 12.8748L20.2529 13.3065L18.9228 11.8065L19.1172 13.8019" fill="#EE1C25"/>
<path d="M31.9693 19.1212C31.8021 18.889 31.5836 18.6984 31.3308 18.5644C31.078 18.4303 30.7977 18.3563 30.5116 18.3482C30.2256 18.3401 29.9415 18.3981 29.6815 18.5176C29.4215 18.6371 29.1926 18.8149 29.0125 19.0373C28.7356 19.3793 28.387 19.6564 27.9914 19.8492C27.5958 20.042 27.1628 20.1457 26.7228 20.1531C26.2828 20.1605 25.8465 20.0713 25.4447 19.8919C25.0428 19.7125 24.6852 19.4472 24.3969 19.1147C24.113 18.7872 23.751 18.5366 23.3445 18.3861C22.9379 18.2357 22.5 18.1902 22.0712 18.2539C21.6425 18.3176 21.2367 18.4885 20.8915 18.7507C20.5463 19.0129 20.2728 19.3579 20.0964 19.7539C20.4525 18.6197 21.2376 17.6695 22.2843 17.106C23.331 16.5424 24.5564 16.41 25.6993 16.737C25.7123 16.7057 25.7268 16.675 25.7428 16.6451C24.5807 16.3081 23.3331 16.4365 22.2639 17.003C21.1948 17.5696 20.388 18.5299 20.0144 19.6808C20.1131 18.205 20.7515 16.817 21.8078 15.7816C22.8642 14.7463 24.2646 14.1358 25.7421 14.0666C27.2196 13.9975 28.671 14.4744 29.8194 15.4066C30.9678 16.3388 31.7331 17.661 31.9693 19.1212Z" fill="white"/>
<path d="M27.5817 17.6759L26.2516 16.1758L26.4459 18.1712L27.4615 16.4427L25.6239 17.2441" fill="#EE1C25"/>
<path d="M10.8346 27.7453C11.1064 27.8349 11.3952 27.8606 11.6785 27.8205C11.9618 27.7803 12.2321 27.6754 12.4682 27.5138C12.7044 27.3523 12.9001 27.1384 13.0402 26.8889C13.1803 26.6394 13.261 26.3609 13.276 26.0752C13.299 25.6357 13.4181 25.2066 13.6249 24.8182C13.8316 24.4297 14.121 24.0912 14.4726 23.8266C14.8242 23.562 15.2296 23.3777 15.6601 23.2867C16.0907 23.1956 16.5359 23.2 16.9646 23.2996C17.3868 23.3976 17.827 23.3876 18.2443 23.2704C18.6616 23.1532 19.0427 22.9326 19.3521 22.629C19.6615 22.3254 19.8893 21.9487 20.0145 21.5337C20.1397 21.1186 20.1581 20.6788 20.0681 20.2547C20.4466 21.3816 20.37 22.6118 19.8545 23.6829C19.339 24.7541 18.4254 25.5815 17.3086 25.9887C17.3165 26.0217 17.3227 26.0551 17.3274 26.0887C18.4656 25.6782 19.3995 24.841 19.9314 23.7542C20.4634 22.6674 20.5516 21.4163 20.1774 20.2656C20.965 21.5176 21.2644 23.0157 21.0184 24.4743C20.7724 25.9328 19.9982 27.2498 18.8435 28.1743C17.6888 29.0987 16.2343 29.5659 14.7573 29.4868C13.2803 29.4076 11.884 28.7878 10.8346 27.7453Z" fill="white"/>
<path d="M15.2344 26.335L17.1921 26.7668L15.862 25.2667L16.0564 27.2621L17.072 25.5335" fill="#EE1C25"/>
<path d="M24.5325 31.1104C24.7017 30.8796 24.8154 30.6129 24.8648 30.3311C24.9142 30.0492 24.8979 29.7598 24.8172 29.4852C24.7366 29.2107 24.5937 28.9584 24.3997 28.7481C24.2056 28.5378 23.9657 28.375 23.6986 28.2724C23.2878 28.1147 22.9165 27.8689 22.6109 27.5522C22.3053 27.2355 22.0729 26.8557 21.9299 26.4395C21.7869 26.0234 21.7369 25.5809 21.7833 25.1433C21.8297 24.7057 21.9715 24.2836 22.1987 23.9067C22.4224 23.5354 22.5489 23.1137 22.5664 22.6805C22.5839 22.2474 22.4918 21.8169 22.2987 21.4288C22.1056 21.0407 21.8177 20.7076 21.4617 20.4603C21.1057 20.213 20.693 20.0596 20.2619 20.0141C21.4506 20.0023 22.5969 20.4554 23.4563 21.2767C24.3157 22.098 24.8203 23.2225 24.8625 24.4105C24.8963 24.4132 24.93 24.4176 24.9634 24.4235C24.9248 23.2142 24.4171 22.0672 23.5479 21.2255C22.6787 20.3838 21.516 19.9132 20.306 19.9135C21.7402 19.5514 23.2574 19.7296 24.5686 20.4143C25.8797 21.099 26.893 22.2422 27.4154 23.626C27.9378 25.0099 27.9326 26.5376 27.401 27.9179C26.8693 29.2982 25.8483 30.4345 24.5325 31.1104Z" fill="white"/>
<path d="M24.5518 26.4902L25.5674 24.7617L23.7297 25.5632L25.6875 25.9949L24.3574 24.4949" fill="#EE1C25"/>
<path d="M9.80179 13.6767C9.80056 13.9628 9.86532 14.2454 9.99105 14.5025C10.1168 14.7595 10.3001 14.9841 10.5267 15.1588C10.7534 15.3335 11.0172 15.4536 11.2978 15.5097C11.5784 15.5658 11.8682 15.5565 12.1446 15.4825C12.5696 15.3686 13.0145 15.3492 13.4479 15.4258C13.8812 15.5024 14.2925 15.673 14.6528 15.9257C15.0131 16.1783 15.3137 16.5069 15.5333 16.8882C15.753 17.2695 15.8864 17.6944 15.9242 18.1328C15.9614 18.5647 16.1069 18.9802 16.3474 19.3409C16.5878 19.7016 16.9154 19.9957 17.2997 20.1962C17.684 20.3967 18.1127 20.497 18.5461 20.4878C18.9795 20.4785 19.4036 20.3601 19.779 20.1435C18.8243 20.8517 17.6306 21.159 16.4526 20.9997C15.2746 20.8404 14.2054 20.2273 13.4729 19.291C13.444 19.3086 13.4142 19.3249 13.3837 19.3397C14.1258 20.2954 15.2106 20.9249 16.4086 21.0949C17.6066 21.265 18.8237 20.9623 19.8025 20.2508C18.8551 21.3868 17.5228 22.1344 16.0597 22.3512C14.5965 22.5679 13.1047 22.2386 11.8687 21.4261C10.6327 20.6136 9.7389 19.3747 9.35771 17.9455C8.97653 16.5163 9.1346 14.9968 9.80179 13.6767Z" fill="white"/>
<path d="M12.5033 17.4251L12.6976 19.4205L13.7133 17.6919L11.8756 18.4934L13.8334 18.9251" fill="#EE1C25"/>
</g>
<defs>
<clipPath id="clip0_1_6696">
<rect width="40" height="40" rx="20" fill="white"/>
</clipPath>
</defs>
</svg>
