<svg width="40" height="40" viewBox="0 0 40 40" fill="none" xmlns="http://www.w3.org/2000/svg">
<g clip-path="url(#clip0_1_4771)">
<path d="M-10 0H50V40H-10V0Z" fill="#FF9933"/>
<path d="M-10 13.3332H50V39.9999H-10V13.3332Z" fill="white"/>
<path d="M-10 26.6668H50V40.0001H-10V26.6668Z" fill="#128807"/>
<path d="M20.0013 25.3337C22.9468 25.3337 25.3346 22.9458 25.3346 20.0003C25.3346 17.0548 22.9468 14.667 20.0013 14.667C17.0558 14.667 14.668 17.0548 14.668 20.0003C14.668 22.9458 17.0558 25.3337 20.0013 25.3337Z" fill="#000088"/>
<path d="M20.0007 24.6668C22.578 24.6668 24.6673 22.5775 24.6673 20.0002C24.6673 17.4228 22.578 15.3335 20.0007 15.3335C17.4233 15.3335 15.334 17.4228 15.334 20.0002C15.334 22.5775 17.4233 24.6668 20.0007 24.6668Z" fill="white"/>
<path d="M19.9997 20.9336C20.5152 20.9336 20.9331 20.5157 20.9331 20.0002C20.9331 19.4848 20.5152 19.0669 19.9997 19.0669C19.4843 19.0669 19.0664 19.4848 19.0664 20.0002C19.0664 20.5157 19.4843 20.9336 19.9997 20.9336Z" fill="#000088"/>
<path d="M24.5884 20.8413C24.7162 20.8581 24.8334 20.7682 24.8502 20.6404C24.867 20.5126 24.7771 20.3954 24.6493 20.3786C24.5215 20.3618 24.4043 20.4517 24.3875 20.5795C24.3707 20.7072 24.4606 20.8245 24.5884 20.8413Z" fill="#000088"/>
<path d="M19.9901 24.6676L20.1501 21.8676L19.9901 20.5342L19.8301 21.8676L19.9901 24.6676Z" fill="#000088"/>
<path d="M24.1913 22.0024C24.3103 22.0517 24.4468 21.9951 24.4961 21.8761C24.5455 21.757 24.4889 21.6205 24.3699 21.5712C24.2508 21.5219 24.1143 21.5784 24.065 21.6975C24.0157 21.8166 24.0722 21.9531 24.1913 22.0024Z" fill="#000088"/>
<path d="M18.7605 24.5085L19.6398 21.8453L19.8303 20.516L19.3307 21.7625L18.7605 24.5085Z" fill="#000088"/>
<path d="M23.5612 23.0274C23.6634 23.1059 23.8099 23.0866 23.8883 22.9843C23.9668 22.8821 23.9475 22.7356 23.8453 22.6572C23.743 22.5787 23.5966 22.598 23.5181 22.7003C23.4397 22.8025 23.4589 22.949 23.5612 23.0274Z" fill="#000088"/>
<path d="M17.6656 24.0429L19.2042 21.698L19.7323 20.4633L18.9271 21.538L17.6656 24.0429Z" fill="#000088"/>
<path d="M22.6546 23.8452C22.7331 23.9474 22.8795 23.9667 22.9818 23.8883C23.084 23.8098 23.1033 23.6633 23.0249 23.5611C22.9464 23.4589 22.7999 23.4396 22.6977 23.518C22.5955 23.5965 22.5762 23.7429 22.6546 23.8452Z" fill="#000088"/>
<path d="M16.6982 23.3005L18.7913 21.4337L19.6209 20.3778L18.565 21.2075L16.6982 23.3005Z" fill="#000088"/>
<path d="M21.5778 24.4005C21.6271 24.5196 21.7636 24.5761 21.8827 24.5268C22.0017 24.4775 22.0583 24.341 22.009 24.2219C21.9597 24.1029 21.8232 24.0463 21.7041 24.0956C21.585 24.145 21.5285 24.2814 21.5778 24.4005Z" fill="#000088"/>
<path d="M15.965 22.3327L18.4699 21.0712L19.5446 20.266L18.3099 20.7941L15.965 22.3327Z" fill="#000088"/>
<path d="M20.3839 24.6565C20.4008 24.7843 20.518 24.8742 20.6457 24.8574C20.7735 24.8406 20.8634 24.7234 20.8466 24.5956C20.8298 24.4678 20.7126 24.3779 20.5848 24.3947C20.4571 24.4115 20.3671 24.5287 20.3839 24.6565Z" fill="#000088"/>
<path d="M15.4979 21.2072L18.2439 20.6371L19.4904 20.1375L18.1611 20.328L15.4979 21.2072Z" fill="#000088"/>
<path d="M19.1355 24.5966C19.1187 24.7243 19.2086 24.8415 19.3364 24.8584C19.4642 24.8752 19.5814 24.7852 19.5982 24.6575C19.615 24.5297 19.5251 24.4125 19.3973 24.3957C19.2696 24.3789 19.1524 24.4688 19.1355 24.5966Z" fill="#000088"/>
<path d="M15.3095 20.0004L18.1095 20.1604L19.4429 20.0004L18.1095 19.8404L15.3095 20.0004Z" fill="#000088"/>
<path d="M17.9715 24.2227C17.9222 24.3417 17.9787 24.4782 18.0978 24.5275C18.2168 24.5768 18.3533 24.5203 18.4027 24.4012C18.452 24.2822 18.3954 24.1457 18.2764 24.0964C18.1573 24.0471 18.0208 24.1036 17.9715 24.2227Z" fill="#000088"/>
<path d="M15.4659 18.7929L18.129 19.6721L19.4583 19.8627L18.2119 19.363L15.4659 18.7929Z" fill="#000088"/>
<path d="M16.9487 23.5661C16.8702 23.6683 16.8895 23.8148 16.9917 23.8933C17.094 23.9717 17.2404 23.9524 17.3189 23.8502C17.3973 23.7479 17.3781 23.6015 17.2758 23.523C17.1736 23.4446 17.0271 23.4639 16.9487 23.5661Z" fill="#000088"/>
<path d="M15.9322 17.6725L18.2771 19.2111L19.5118 19.7392L18.4371 18.9339L15.9322 17.6725Z" fill="#000088"/>
<path d="M16.1343 22.6605C16.0321 22.739 16.0128 22.8854 16.0912 22.9877C16.1697 23.0899 16.3162 23.1092 16.4184 23.0307C16.5206 22.9523 16.5399 22.8058 16.4615 22.7036C16.383 22.6013 16.2365 22.5821 16.1343 22.6605Z" fill="#000088"/>
<path d="M16.677 16.7051L18.5438 18.7981L19.5998 19.6278L18.7701 18.5719L16.677 16.7051Z" fill="#000088"/>
<path d="M15.6078 21.5756C15.4887 21.6249 15.4322 21.7614 15.4815 21.8804C15.5308 21.9995 15.6673 22.056 15.7864 22.0067C15.9054 21.9574 15.962 21.8209 15.9127 21.7018C15.8633 21.5828 15.7269 21.5263 15.6078 21.5756Z" fill="#000088"/>
<path d="M17.6717 15.9637L18.9332 18.4686L19.7384 19.5433L19.2103 18.3086L17.6717 15.9637Z" fill="#000088"/>
<path d="M15.3252 20.3837C15.1974 20.4005 15.1075 20.5177 15.1243 20.6455C15.1411 20.7733 15.2583 20.8632 15.3861 20.8464C15.5139 20.8296 15.6038 20.7123 15.587 20.5846C15.5702 20.4568 15.4529 20.3669 15.3252 20.3837Z" fill="#000088"/>
<path d="M18.7759 15.4981L19.3461 18.2441L19.8457 19.4906L19.6552 18.1613L18.7759 15.4981Z" fill="#000088"/>
<path d="M15.4175 19.1656C15.2897 19.1487 15.1725 19.2387 15.1557 19.3664C15.1389 19.4942 15.2288 19.6114 15.3566 19.6282C15.4843 19.6451 15.6015 19.5551 15.6183 19.4274C15.6352 19.2996 15.5452 19.1824 15.4175 19.1656Z" fill="#000088"/>
<path d="M20.0158 15.3393L19.8558 18.1393L20.0158 19.4726L20.1758 18.1393L20.0158 15.3393Z" fill="#000088"/>
<path d="M15.8146 18.0045C15.6955 17.9552 15.559 18.0117 15.5097 18.1307C15.4604 18.2498 15.5169 18.3863 15.636 18.4356C15.755 18.4849 15.8915 18.4284 15.9409 18.3093C15.9902 18.1903 15.9336 18.0538 15.8146 18.0045Z" fill="#000088"/>
<path d="M21.2453 15.4983L20.3661 18.1615L20.1755 19.4908L20.6752 18.2443L21.2453 15.4983Z" fill="#000088"/>
<path d="M16.4447 16.9789C16.3424 16.9005 16.196 16.9198 16.1175 17.022C16.0391 17.1242 16.0584 17.2707 16.1606 17.3492C16.2628 17.4276 16.4093 17.4083 16.4877 17.3061C16.5662 17.2039 16.5469 17.0574 16.4447 16.9789Z" fill="#000088"/>
<path d="M22.3402 15.9635L20.8016 18.3083L20.2735 19.543L21.0788 18.4683L22.3402 15.9635Z" fill="#000088"/>
<path d="M17.3512 16.1612C17.2728 16.0589 17.1263 16.0396 17.0241 16.1181C16.9218 16.1965 16.9026 16.343 16.981 16.4453C17.0595 16.5475 17.2059 16.5668 17.3082 16.4883C17.4104 16.4099 17.4297 16.2634 17.3512 16.1612Z" fill="#000088"/>
<path d="M23.3076 16.7059L21.2146 18.5726L20.3849 19.6286L21.4409 18.7989L23.3076 16.7059Z" fill="#000088"/>
<path d="M18.4122 15.5995C18.3628 15.4805 18.2264 15.4239 18.1073 15.4732C17.9882 15.5226 17.9317 15.6591 17.981 15.7781C18.0303 15.8972 18.1668 15.9537 18.2859 15.9044C18.4049 15.8551 18.4615 15.7186 18.4122 15.5995Z" fill="#000088"/>
<path d="M24.025 17.6674L21.5201 18.9288L20.4454 19.734L21.6801 19.2059L24.025 17.6674Z" fill="#000088"/>
<path d="M19.606 15.3435C19.5892 15.2158 19.472 15.1258 19.3443 15.1426C19.2165 15.1595 19.1266 15.2767 19.1434 15.4044C19.1602 15.5322 19.2774 15.6221 19.4052 15.6053C19.5329 15.5885 19.6229 15.4713 19.606 15.3435Z" fill="#000088"/>
<path d="M24.4921 18.7928L21.7461 19.3629L20.4996 19.8626L21.8289 19.672L24.4921 18.7928Z" fill="#000088"/>
<path d="M20.8545 15.4035C20.8713 15.2757 20.7813 15.1585 20.6536 15.1417C20.5258 15.1248 20.4086 15.2148 20.3918 15.3425C20.375 15.4703 20.4649 15.5875 20.5927 15.6043C20.7204 15.6212 20.8376 15.5312 20.8545 15.4035Z" fill="#000088"/>
<path d="M24.6805 19.9997L21.8805 19.8397L20.5471 19.9997L21.8805 20.1597L24.6805 19.9997Z" fill="#000088"/>
<path d="M22.0185 15.7784C22.0678 15.6593 22.0113 15.5228 21.8922 15.4735C21.7731 15.4242 21.6367 15.4807 21.5873 15.5998C21.538 15.7188 21.5946 15.8553 21.7136 15.9046C21.8327 15.9539 21.9692 15.8974 22.0185 15.7784Z" fill="#000088"/>
<path d="M24.5241 21.2081L21.861 20.3289L20.5316 20.1383L21.7781 20.638L24.5241 21.2081Z" fill="#000088"/>
<path d="M23.0435 16.4388C23.122 16.3366 23.1027 16.1901 23.0005 16.1117C22.8982 16.0332 22.7517 16.0525 22.6733 16.1547C22.5948 16.257 22.6141 16.4034 22.7164 16.4819C22.8186 16.5603 22.9651 16.5411 23.0435 16.4388Z" fill="#000088"/>
<path d="M24.06 22.3324L21.7151 20.7938L20.4804 20.2657L21.5551 21.071L24.06 22.3324Z" fill="#000088"/>
<path d="M23.8579 17.3444C23.9601 17.2659 23.9794 17.1195 23.9009 17.0172C23.8225 16.915 23.676 16.8957 23.5738 16.9742C23.4716 17.0526 23.4523 17.1991 23.5307 17.3013C23.6092 17.4036 23.7556 17.4228 23.8579 17.3444Z" fill="#000088"/>
<path d="M23.3151 23.2998L21.4484 21.2068L20.3924 20.3771L21.2221 21.433L23.3151 23.2998Z" fill="#000088"/>
<path d="M24.3844 18.4293C24.5034 18.38 24.56 18.2435 24.5107 18.1245C24.4614 18.0054 24.3249 17.9489 24.2058 17.9982C24.0867 18.0475 24.0302 18.184 24.0795 18.3031C24.1288 18.4221 24.2653 18.4787 24.3844 18.4293Z" fill="#000088"/>
<path d="M22.3205 24.0412L21.059 21.5363L20.2538 20.4616L20.7819 21.6963L22.3205 24.0412Z" fill="#000088"/>
<path d="M24.667 19.6212C24.7948 19.6044 24.8847 19.4872 24.8679 19.3594C24.8511 19.2317 24.7339 19.1417 24.6061 19.1585C24.4783 19.1754 24.3884 19.2926 24.4052 19.4203C24.422 19.5481 24.5392 19.638 24.667 19.6212Z" fill="#000088"/>
<path d="M21.2163 24.5068L20.6461 21.7608L20.1465 20.5143L20.337 21.8436L21.2163 24.5068Z" fill="#000088"/>
</g>
<defs>
<clipPath id="clip0_1_4771">
<rect width="40" height="40" rx="20" fill="white"/>
</clipPath>
</defs>
</svg>
