<svg width="40" height="40" viewBox="0 0 40 40" fill="none" xmlns="http://www.w3.org/2000/svg">
<g clip-path="url(#clip0_1_4880)">
<path d="M50 0H-10V40H50V0Z" fill="#DA0000"/>
<path d="M50 0H-10V26.6667H50V0Z" fill="white"/>
<path d="M50 0H-10V13.3333H50V0Z" fill="#239F40"/>
<path d="M-3.75586 11.3103H-0.300731M-3.62297 12.7103V11.9326H-2.55985V12.5548H-1.49674V11.9326H-2.16118M-3.2243 12.5548H-2.95852M-0.300731 12.5548H-0.965179V11.9326H0.0979373M0.0979373 11.1548V12.5548H1.16105V11.1548M0.629495 11.1548V12.5548" stroke="white" stroke-width="0.287553"/>
<path d="M-3.75586 13.3325H-1.36385M-1.09807 13.3325H1.29394" stroke="white" stroke-width="0.575106"/>
<path d="M-3.75586 26.666H-1.36385M-1.09807 26.666H1.29394" stroke="white" stroke-width="0.575106"/>
<path d="M-3.75586 27.4438H-0.300731M-3.62297 28.8438V28.066H-2.55985V28.6882H-1.49674V28.066H-2.16118M-3.2243 28.6882H-2.95852M-0.300731 28.6882H-0.965179V28.066H0.0979373M0.0979373 27.2882V28.6882H1.16105V27.2882M0.629495 27.2882V28.6882" stroke="white" stroke-width="0.287553"/>
<path d="M1.56079 11.3103H5.01592M1.69368 12.7103V11.9326H2.7568V12.5548H3.81991V11.9326H3.15547M2.09235 12.5548H2.35813M5.01592 12.5548H4.35147V11.9326H5.41459M5.41459 11.1548V12.5548H6.4777V11.1548M5.94615 11.1548V12.5548" stroke="white" stroke-width="0.287553"/>
<path d="M1.56079 13.3325H3.9528M4.21858 13.3325H6.61059" stroke="white" stroke-width="0.575106"/>
<path d="M1.56079 26.666H3.9528M4.21858 26.666H6.61059" stroke="white" stroke-width="0.575106"/>
<path d="M1.56079 27.4438H5.01592M1.69368 28.8438V28.066H2.7568V28.6882H3.81991V28.066H3.15547M2.09235 28.6882H2.35813M5.01592 28.6882H4.35147V28.066H5.41459M5.41459 27.2882V28.6882H6.4777V27.2882M5.94615 27.2882V28.6882" stroke="white" stroke-width="0.287553"/>
<path d="M6.875 11.3103H10.3301M7.00789 12.7103V11.9326H8.07101V12.5548H9.13412V11.9326H8.46967M7.40656 12.5548H7.67234M10.3301 12.5548H9.66568V11.9326H10.7288M10.7288 11.1548V12.5548H11.7919V11.1548M11.2604 11.1548V12.5548" stroke="white" stroke-width="0.287553"/>
<path d="M6.875 13.3323H9.26701M9.53279 13.3323H11.9248" stroke="white" stroke-width="0.575106"/>
<path d="M6.875 26.6658H9.26701M9.53279 26.6658H11.9248" stroke="white" stroke-width="0.575106"/>
<path d="M6.875 27.4435H10.3301M7.00789 28.8435V28.0657H8.07101V28.688H9.13412V28.0657H8.46967M7.40656 28.688H7.67234M10.3301 28.688H9.66568V28.0657H10.7288M10.7288 27.288V28.688H11.7919V27.288M11.2604 27.288V28.688" stroke="white" stroke-width="0.287553"/>
<path d="M12.1973 11.3103H15.6524M12.3302 12.7103V11.9326H13.3933V12.5548H14.4564V11.9326H13.7919M12.7288 12.5548H12.9946M15.6524 12.5548H14.9879V11.9326H16.0511M16.0511 11.1548V12.5548H17.1142V11.1548M16.5826 11.1548V12.5548" stroke="white" stroke-width="0.287553"/>
<path d="M12.1973 13.3325H14.5893M14.8551 13.3325H17.2471" stroke="white" stroke-width="0.575106"/>
<path d="M12.1973 26.666H14.5893M14.8551 26.666H17.2471" stroke="white" stroke-width="0.575106"/>
<path d="M12.1973 27.4438H15.6524M12.3302 28.8438V28.066H13.3933V28.6882H14.4564V28.066H13.7919M12.7288 28.6882H12.9946M15.6524 28.6882H14.9879V28.066H16.0511M16.0511 27.2882V28.6882H17.1142V27.2882M16.5826 27.2882V28.6882" stroke="white" stroke-width="0.287553"/>
<path d="M17.5117 11.3103H20.9668M17.6446 12.7103V11.9326H18.7077V12.5548H19.7708V11.9326H19.1064M18.0433 12.5548H18.3091M20.9668 12.5548H20.3024V11.9326H21.3655M21.3655 11.1548V12.5548H22.4286V11.1548M21.8971 11.1548V12.5548" stroke="white" stroke-width="0.287553"/>
<path d="M17.512 13.3323H19.904M20.1698 13.3323H22.5618" stroke="white" stroke-width="0.575106"/>
<path d="M17.512 26.6658H19.904M20.1698 26.6658H22.5618" stroke="white" stroke-width="0.575106"/>
<path d="M17.512 27.4435H20.9671M17.6449 28.8435V28.0657H18.708V28.688H19.7711V28.0657H19.1066M18.0435 28.688H18.3093M20.9671 28.688H20.3026V28.0657H21.3658M21.3658 27.288V28.688H22.4289V27.288M21.8973 27.288V28.688" stroke="white" stroke-width="0.287553"/>
<path d="M22.8281 11.3103H26.2833M22.961 12.7103V11.9326H24.0241V12.5548H25.0872V11.9326H24.4228M23.3597 12.5548H23.6255M26.2833 12.5548H25.6188V11.9326H26.6819M26.6819 11.1548V12.5548H27.745V11.1548M27.2135 11.1548V12.5548" stroke="white" stroke-width="0.287553"/>
<path d="M22.8281 13.3325H25.2201M25.4859 13.3325H27.8779" stroke="white" stroke-width="0.575106"/>
<path d="M22.8281 26.666H25.2201M25.4859 26.666H27.8779" stroke="white" stroke-width="0.575106"/>
<path d="M22.8281 27.4438H26.2833M22.961 28.8438V28.066H24.0241V28.6882H25.0872V28.066H24.4228M23.3597 28.6882H23.6255M26.2833 28.6882H25.6188V28.066H26.6819M26.6819 27.2882V28.6882H27.745V27.2882M27.2135 27.2882V28.6882" stroke="white" stroke-width="0.287553"/>
<path d="M28.1387 11.3106H31.5938M28.2716 12.7106V11.9328H29.3347V12.555H30.3978V11.9328H29.7333M28.6702 12.555H28.936M31.5938 12.555H30.9294V11.9328H31.9925M31.9925 11.155V12.555H33.0556V11.155M32.524 11.155V12.555" stroke="white" stroke-width="0.287553"/>
<path d="M28.1387 13.3328H30.5307M30.7965 13.3328H33.1885" stroke="white" stroke-width="0.575106"/>
<path d="M28.1387 26.6662H30.5307M30.7965 26.6662H33.1885" stroke="white" stroke-width="0.575106"/>
<path d="M28.1387 27.444H31.5938M28.2716 28.844V28.0662H29.3347V28.6885H30.3978V28.0662H29.7333M28.6702 28.6885H28.936M31.5938 28.6885H30.9294V28.0662H31.9925M31.9925 27.2885V28.6885H33.0556V27.2885M32.524 27.2885V28.6885" stroke="white" stroke-width="0.287553"/>
<path d="M33.4531 11.3103H36.9083M33.586 12.7103V11.9326H34.6491V12.5548H35.7122V11.9326H35.0478M33.9847 12.5548H34.2505M36.9083 12.5548H36.2438V11.9326H37.3069M37.3069 11.1548V12.5548H38.37V11.1548M37.8385 11.1548V12.5548" stroke="white" stroke-width="0.287553"/>
<path d="M33.4531 13.3325H35.8451M36.1109 13.3325H38.5029" stroke="white" stroke-width="0.575106"/>
<path d="M33.4531 26.666H35.8451M36.1109 26.666H38.5029" stroke="white" stroke-width="0.575106"/>
<path d="M33.4531 27.4438H36.9083M33.586 28.8438V28.066H34.6491V28.6882H35.7122V28.066H35.0478M33.9847 28.6882H34.2505M36.9083 28.6882H36.2438V28.066H37.3069M37.3069 27.2882V28.6882H38.37V27.2882M37.8385 27.2882V28.6882" stroke="white" stroke-width="0.287553"/>
<path d="M38.7698 11.3103H42.2249M38.9027 12.7103V11.9326H39.9658V12.5548H41.0289V11.9326H40.3644M39.3013 12.5548H39.5671M42.2249 12.5548H41.5605V11.9326H42.6236M42.6236 11.1548V12.5548H43.6867V11.1548M43.1551 11.1548V12.5548" stroke="white" stroke-width="0.287553"/>
<path d="M38.7698 13.3325H41.1618M41.4276 13.3325H43.8196" stroke="white" stroke-width="0.575106"/>
<path d="M38.7698 26.666H41.1618M41.4276 26.666H43.8196" stroke="white" stroke-width="0.575106"/>
<path d="M38.7698 27.4438H42.2249M38.9027 28.8438V28.066H39.9658V28.6882H41.0289V28.066H40.3644M39.3013 28.6882H39.5671M42.2249 28.6882H41.5605V28.066H42.6236M42.6236 27.2882V28.6882H43.6867V27.2882M43.1551 27.2882V28.6882" stroke="white" stroke-width="0.287553"/>
<path fill-rule="evenodd" clip-rule="evenodd" d="M21.9003 15.3348C22.5731 16.1454 24.6158 20.6442 20.6682 23.5947C18.812 24.9889 19.963 25.0537 20.0198 25.2969C23.0027 23.7082 23.9754 21.5682 23.9511 19.639C23.9268 17.718 22.9136 16.0238 21.9084 15.3348H21.9003Z" fill="#DA0000"/>
<path fill-rule="evenodd" clip-rule="evenodd" d="M22.3052 15.1239C23.0315 15.5687 23.6499 16.1692 24.116 16.882C24.5822 17.5947 24.8843 18.4021 25.0006 19.2457C25.1169 20.0894 25.0445 20.9483 24.7887 21.7607C24.5328 22.573 24.0999 23.3184 23.5211 23.9431C25.661 23.473 28.3846 17.1585 22.289 15.1239H22.3052ZM17.774 15.1239C17.0478 15.5687 16.4293 16.1692 15.9632 16.882C15.4971 17.5947 15.195 18.4021 15.0787 19.2457C14.9624 20.0894 15.0347 20.9483 15.2906 21.7607C15.5464 22.573 15.9794 23.3184 16.5582 23.9431C14.4101 23.473 11.6866 17.1585 17.774 15.1239Z" fill="#DA0000"/>
<path fill-rule="evenodd" clip-rule="evenodd" d="M18.1704 15.3348C17.5057 16.1454 15.4549 20.6442 19.4024 23.5947C21.2587 24.9889 20.1077 25.0537 20.0509 25.2969C17.0761 23.7082 16.0953 21.5682 16.1196 19.639C16.1439 17.718 17.1652 16.0238 18.1704 15.3348Z" fill="#DA0000"/>
<path fill-rule="evenodd" clip-rule="evenodd" d="M23.8207 24.8834C22.538 24.933 21.2614 24.6832 20.092 24.1539C20.2703 24.5024 20.4162 24.7213 20.6026 25.0779C21.6402 25.1671 23.0749 25.2887 23.8207 24.8834ZM16.3633 24.8834C17.5305 24.8996 19.0058 24.7213 20.092 24.1539C19.9136 24.5024 19.7677 24.7213 19.5813 25.0779C18.5438 25.1671 17.109 25.2887 16.3633 24.8834ZM18.5032 13.9891C18.7464 14.6133 19.3624 14.7106 20.0271 14.3377C20.5135 14.6295 21.2592 14.6457 21.5186 14.0135C21.7131 15.5698 20.0758 15.205 20.019 14.9051C19.4111 15.4887 18.2763 15.1483 18.5032 13.9891Z" fill="#DA0000"/>
<path fill-rule="evenodd" clip-rule="evenodd" d="M20.0686 25.8644L20.6846 25.1592L20.7657 15.724L20.0362 15.0756L19.3066 15.6916L19.4525 25.1917L20.0686 25.8644Z" fill="#DA0000"/>
</g>
<defs>
<clipPath id="clip0_1_4880">
<rect width="40" height="40" rx="20" fill="white"/>
</clipPath>
</defs>
</svg>
