<svg width="40" height="40" viewBox="0 0 40 40" fill="none" xmlns="http://www.w3.org/2000/svg">
<g clip-path="url(#clip0_1_4875)">
<path d="M-10 0H50V40H-10V0Z" fill="white"/>
<path d="M-10 0H50V13.3333H-10V0Z" fill="#CD1125"/>
<path d="M-10 26.6666H50V40H-10V26.6666Z" fill="black"/>
<path d="M19.6159 22.803H9.84319C9.82287 22.9856 9.75621 23.1622 9.64792 23.3202C9.53962 23.4782 9.39235 23.6137 9.2165 23.7173C9.04066 23.8209 8.84053 23.89 8.63028 23.9196C8.42003 23.9492 8.20478 23.9387 7.99976 23.8889C9.36844 23.2171 9.28258 22.5353 8.41895 21.0202C8.89875 20.8484 8.9745 20.803 9.45935 20.4747C9.11592 21.5151 10.3482 21.3889 11.2573 21.3889C11.2573 21.0252 11.2927 20.6111 11.02 20.5555C11.3735 20.4293 11.4038 20.3889 11.9644 19.9141V21.3131H18.7068V20.3535C18.7068 20.2999 18.6855 20.2485 18.6477 20.2107C18.6098 20.1728 18.5584 20.1515 18.5048 20.1515C18.4512 20.1515 18.3998 20.1728 18.362 20.2107C18.3241 20.2485 18.3028 20.2999 18.3028 20.3535V20.9091C18.3028 20.9492 18.2868 20.9878 18.2584 21.0162C18.23 21.0446 18.1915 21.0606 18.1513 21.0606H12.9998V20.1515L16.8684 16.4141C16.8432 16.606 17.2422 17.1212 17.4088 17.207C17.2826 17.2272 17.1412 17.202 17.0503 17.2929L13.8836 20.3535H17.3937C17.3937 19.5404 18.1513 19.5404 18.5048 19.2525C18.8583 19.5404 19.6159 19.5404 19.6159 20.3535V22.803ZM20.3482 22.803V16.4141C20.7068 16.6111 20.9846 16.8383 21.4291 16.9495C21.4088 17.202 21.1816 17.2828 21.1816 17.4596V21.3889C21.6765 21.5 21.7876 21.2121 22.025 21.0656C22.0856 21.6919 22.4846 22.308 22.4695 22.803H20.3482ZM27.025 18.5353L27.8078 17.8788V21.3131H28.3634V17.4091C28.6361 17.1818 28.9897 16.9343 29.1462 16.6464V22.803H24.222C24.1513 21.5303 24.1513 20.2222 25.6361 20.505V19.9848C25.6361 19.8636 25.4543 19.9596 25.4543 19.8484L26.4695 19V21.3131H27.025V18.5353ZM26.7674 16.7777C26.6715 16.7828 26.525 16.2575 26.5604 16.1565C26.5957 16.0404 26.727 16.0404 26.7826 16.0959C26.8735 16.1818 26.8634 16.7727 26.7674 16.7777ZM25.8533 17.4899C25.5755 17.3282 25.621 17.2626 25.8634 17.3333C26.2826 17.4596 26.4947 17.3535 26.7977 17.0454L27.025 17.1616C27.323 17.3131 27.5048 17.2474 27.6109 16.8838C27.6412 16.7727 27.7321 16.803 27.7573 16.9293C27.8533 17.4343 27.4695 17.5909 27.0806 17.4495C26.8684 17.3788 26.8331 17.3788 26.727 17.4596C26.4947 17.6414 26.1614 17.6717 25.8533 17.4899ZM29.8785 22.803V16.4141C30.2371 16.6111 30.5149 16.8383 30.9594 16.9495C30.9392 17.202 30.7119 17.2828 30.7119 17.4596V21.3889C31.2068 21.5 31.3179 21.2121 31.5553 21.0656C31.6159 21.6919 32.0149 22.308 31.9998 22.803H29.8785ZM10.7321 23.5101C10.7321 23.431 10.7635 23.3552 10.8194 23.2994C10.8752 23.2435 10.951 23.2121 11.0301 23.2121C11.1091 23.2121 11.1849 23.2435 11.2408 23.2994C11.2966 23.3552 11.328 23.431 11.328 23.5101C11.328 23.5891 11.2966 23.6649 11.2408 23.7208C11.1849 23.7767 11.1091 23.808 11.0301 23.808C10.951 23.808 10.8752 23.7767 10.8194 23.7208C10.7635 23.6649 10.7321 23.5891 10.7321 23.5101ZM25.1816 21.1868C25.1816 21.2324 25.2055 21.2761 25.2481 21.3083C25.2908 21.3405 25.3486 21.3586 25.4088 21.3586C25.4691 21.3586 25.5269 21.3405 25.5696 21.3083C25.6122 21.2761 25.6361 21.2324 25.6361 21.1868C25.6361 21.1413 25.6122 21.0976 25.5696 21.0654C25.5269 21.0332 25.4691 21.0151 25.4088 21.0151C25.3486 21.0151 25.2908 21.0332 25.2481 21.0654C25.2055 21.0976 25.1816 21.1413 25.1816 21.1868Z" fill="#017B3D"/>
</g>
<defs>
<clipPath id="clip0_1_4875">
<rect width="40" height="40" rx="20" fill="white"/>
</clipPath>
</defs>
</svg>
