<svg width="40" height="40" viewBox="0 0 40 40" fill="none" xmlns="http://www.w3.org/2000/svg">
<g clip-path="url(#clip0_1_15939)">
<path d="M50 0H-10V40H50V0Z" fill="white"/>
<path d="M50 0H-10V12H50V0Z" fill="black"/>
<path d="M50 14H-10V26H50V14Z" fill="#BB0000"/>
<path d="M50 27.9999H-10V39.9999H50V27.9999Z" fill="#006600"/>
<path d="M12.8555 31.875L13.2885 32.125L24.9667 11.8978C25.6497 11.7147 26.0247 11.0652 26.3997 10.4157C26.6497 9.9827 27.6497 8.25064 28.0831 6C26.3507 7.50064 25.3507 9.2327 25.1007 9.66571C24.7257 10.3152 24.3507 10.9647 24.5337 11.6478L12.8555 31.875Z" fill="black"/>
<path d="M12.8555 31.875L13.2885 32.125L24.9667 11.8978C25.6497 11.7147 26.0247 11.0652 26.3997 10.4157C26.6497 9.9827 27.6497 8.25064 28.0831 6C26.3507 7.50064 25.3507 9.2327 25.1007 9.66571C24.7257 10.3152 24.3507 10.9647 24.5337 11.6478L12.8555 31.875Z" fill="white"/>
<path d="M27.1445 31.875L26.7115 32.125L15.0333 11.8978C14.3503 11.7147 13.9753 11.0652 13.6003 10.4157C13.3503 9.9827 12.3503 8.25064 11.9169 6C13.6493 7.50064 14.6493 9.2327 14.8993 9.66571C15.2743 10.3152 15.6493 10.9647 15.4663 11.6478L27.1445 31.875Z" fill="black"/>
<path d="M27.1445 31.875L26.7115 32.125L15.0333 11.8978C14.3503 11.7147 13.9753 11.0652 13.6003 10.4157C13.3503 9.9827 12.3503 8.25064 11.9169 6C13.6493 7.50064 14.6493 9.2327 14.8993 9.66571C15.2743 10.3152 15.6493 10.9647 15.4663 11.6478L27.1445 31.875Z" fill="white"/>
<path d="M15.25 26C16 28 18.5 32 20 32C21.5 32 24 28 24.75 26V14C24 12 21.5 8 20 8C18.5 8 16 12 15.25 14V26Z" fill="#BB0000"/>
<path d="M24.75 26C25.5 24 26 22 26 20C26 18 25.5 16 24.75 14C24 16 23.5 18 23.5 20C23.5 22 24 24 24.75 26Z" fill="black"/>
<path d="M15.25 26C14.5 24 14 22 14 20C14 18 14.5 16 15.25 14C16 16 16.5 18 16.5 20C16.5 22 16 24 15.25 26Z" fill="black"/>
<path d="M20.0001 21.5C20.5524 21.5 21.0001 20.8284 21.0001 20C21.0001 19.1716 20.5524 18.5 20.0001 18.5C19.4478 18.5 19.0001 19.1716 19.0001 20C19.0001 20.8284 19.4478 21.5 20.0001 21.5Z" fill="white"/>
<path d="M20.2501 21.4626C20.2501 21.4626 21.2501 23.4626 21.2501 26.7126C21.2501 29.9626 20.2501 31.9626 20.2501 31.9626V21.4626Z" fill="white"/>
<path d="M19.7499 18.5374C19.7499 18.5374 18.7499 16.5374 18.7499 13.2874C18.7499 10.0374 19.7499 8.03741 19.7499 8.03741V18.5374Z" fill="white"/>
<path d="M19.7499 21.4626C19.7499 21.4626 18.7499 23.4626 18.7499 26.7126C18.7499 29.9626 19.7499 31.9626 19.7499 31.9626V21.4626Z" fill="white"/>
<path d="M20.2501 18.5374C20.2501 18.5374 21.2501 16.5374 21.2501 13.2874C21.2501 10.0374 20.2501 8.03741 20.2501 8.03741V18.5374Z" fill="white"/>
</g>
<defs>
<clipPath id="clip0_1_15939">
<rect width="40" height="40" rx="20" fill="white"/>
</clipPath>
</defs>
</svg>
