<svg width="40" height="40" viewBox="0 0 40 40" fill="none" xmlns="http://www.w3.org/2000/svg">
<g clip-path="url(#clip0_1_14745)">
<path d="M50.5564 0H-10.5547V22H50.5564V0Z" fill="#C81010"/>
<path d="M20.1538 4.7034C18.2078 3.89867 17.0165 3.75078 15.6855 3.73753C13.7579 3.75078 12.8379 4.57896 11 4.65546C11.7282 5.43978 14.3678 5.63153 15.4805 4.6014C17.1349 4.77377 17.5102 5.2205 17.9539 5.77636C17.2634 5.66723 16.4678 5.46834 15.8079 6.19861C15.2511 6.3108 14.993 6.19861 14.0404 6.19861C13.5957 6.19861 13.4417 6.41687 13.4478 6.81056C13.7354 6.41279 15.7233 6.64738 16.2108 6.81056C16.5851 6.93601 16.9829 7.45516 17.4572 7.53981C18.7004 7.76114 20.4843 7.11144 22.1294 6.66879L25.6869 6.19861H23.2463L26.2989 5.58665C24.8781 5.58665 23.9418 5.58665 22.9801 5.58665C22.9097 5.50608 22.7414 5.40205 22.6068 5.31331C23.4604 4.76357 24.2152 3.76404 24.408 3.28162C25.947 3.26632 26.9404 3.12353 28.1348 2.84407C20.263 1.97305 22.055 2.9124 20.1538 4.7034Z" fill="#F8D000" stroke="black" stroke-width="0.0469166" stroke-miterlimit="22.9256"/>
<path d="M16.5141 5.98352C16.5987 5.98352 16.6671 6.05186 16.6671 6.13651C16.6671 6.22116 16.5987 6.2895 16.5141 6.2895C16.4304 6.2895 16.3611 6.22116 16.3611 6.13651C16.3611 6.05186 16.4304 5.98352 16.5141 5.98352Z" fill="black"/>
<path d="M16.5141 5.98352C16.5987 5.98352 16.6671 6.05186 16.6671 6.13651C16.6671 6.22116 16.5987 6.2895 16.5141 6.2895C16.4304 6.2895 16.3611 6.22116 16.3611 6.13651C16.3611 6.05186 16.4304 5.98352 16.5141 5.98352Z" stroke="black" stroke-width="0.0152989" stroke-miterlimit="22.9256"/>
<path d="M18.5618 5.82013C18.5618 5.82013 17.9223 6.19852 17.498 6.19852" stroke="black" stroke-width="0.0469166" stroke-miterlimit="22.9256"/>
<path d="M22.1289 6.66873C22.1289 6.66873 22.7133 6.19855 23.2457 6.19855" stroke="black" stroke-width="0.0469166" stroke-miterlimit="22.9256"/>
<path d="M12.8164 4.42386C12.8164 4.42386 13.2917 4.175 13.5161 4.1087" stroke="black" stroke-width="0.0469166" stroke-miterlimit="22.9256"/>
<path d="M14.7871 4.06921C14.7871 4.06921 15.5408 3.74386 16.3802 3.76018" stroke="black" stroke-width="0.0469166" stroke-miterlimit="22.9256"/>
<path d="M16.8242 4.14839C16.8242 4.14839 17.8125 3.98214 18.7254 4.18511" stroke="black" stroke-width="0.0469166" stroke-miterlimit="22.9256"/>
<path d="M17.9609 4.38718C17.9609 4.38718 18.781 4.24949 19.5673 4.47183" stroke="black" stroke-width="0.0469166" stroke-miterlimit="22.9256"/>
<path d="M18.8047 4.63751C18.8047 4.63751 19.64 4.64873 20.0551 4.80988" stroke="black" stroke-width="0.0469166" stroke-miterlimit="22.9256"/>
<path d="M11 4.65545C11 4.65545 12.1719 4.97571 13.1245 4.51776" stroke="black" stroke-width="0.0469166" stroke-miterlimit="22.9256"/>
<path d="M11.1484 4.79424C11.1484 4.79424 12.6702 5.16957 13.3658 4.47296" stroke="black" stroke-width="0.0469166" stroke-miterlimit="22.9256"/>
<path d="M11.6582 5.05782C11.6582 5.05782 12.8046 5.42704 13.7062 4.47443" stroke="black" stroke-width="0.0469166" stroke-miterlimit="22.9256"/>
<path d="M12.7247 5.28838C12.7247 5.28838 13.6508 5.0232 14.0017 4.47754" stroke="black" stroke-width="0.0469166" stroke-miterlimit="22.9256"/>
<path d="M13.4473 5.30395C13.4473 5.30395 14.0684 4.87354 14.2918 4.49005" stroke="black" stroke-width="0.0469166" stroke-miterlimit="22.9256"/>
<path d="M21.4492 4.81866C21.4492 4.81866 21.692 5.12362 22.6058 5.31333" stroke="black" stroke-width="0.0469166" stroke-miterlimit="22.9256"/>
<path d="M21.6113 4.67462C21.6113 4.67462 22.004 5.06729 22.822 5.16317" stroke="black" stroke-width="0.0469166" stroke-miterlimit="22.9256"/>
<path d="M21.8085 4.48999C21.8085 4.48999 22.2073 4.83269 23.0752 4.96018" stroke="black" stroke-width="0.0469166" stroke-miterlimit="22.9256"/>
<path d="M22.0039 4.29327C22.0039 4.29327 22.6138 4.70022 23.3084 4.74714" stroke="black" stroke-width="0.0469166" stroke-miterlimit="22.9256"/>
<path d="M22.2461 4.03644C22.2461 4.03644 22.6734 4.43523 23.521 4.53416" stroke="black" stroke-width="0.0469166" stroke-miterlimit="22.9256"/>
<path d="M22.4258 3.83136C22.4258 3.83136 22.9266 4.26177 23.7139 4.32092" stroke="black" stroke-width="0.0469166" stroke-miterlimit="22.9256"/>
<path d="M22.6016 3.617C22.6016 3.617 22.9086 3.97194 23.9213 4.06475" stroke="black" stroke-width="0.0469166" stroke-miterlimit="22.9256"/>
<path d="M22.7812 3.38562C22.7812 3.38562 23.1229 3.76095 24.0847 3.84255" stroke="black" stroke-width="0.0469166" stroke-miterlimit="22.9256"/>
<path d="M22.9219 3.19464C22.9219 3.19464 23.5236 3.64851 24.2202 3.63933" stroke="black" stroke-width="0.0469166" stroke-miterlimit="22.9256"/>
<path d="M23.041 3.0213C23.041 3.0213 23.8366 3.49863 24.3108 3.48333" stroke="black" stroke-width="0.0469166" stroke-miterlimit="22.9256"/>
<path d="M23.1855 2.80109C23.1855 2.80109 23.8179 3.19478 24.4074 3.28147" stroke="black" stroke-width="0.0469166" stroke-miterlimit="22.9256"/>
<path d="M20.4689 5.01331C20.4689 5.01331 20.7239 5.20607 20.9625 5.19791" stroke="black" stroke-width="0.0469166" stroke-miterlimit="22.9256"/>
<path d="M20.6152 4.87042C20.6152 4.87042 20.8366 5.05911 21.1405 5.05809" stroke="black" stroke-width="0.0469166" stroke-miterlimit="22.9256"/>
<path d="M20.7949 4.69513C20.7949 4.69513 21.0458 4.92971 21.3467 4.88688" stroke="black" stroke-width="0.0469166" stroke-miterlimit="22.9256"/>
<path d="M20.9629 4.52618C20.9629 4.52618 21.2627 4.73017 21.531 4.72405" stroke="black" stroke-width="0.0469166" stroke-miterlimit="22.9256"/>
<path d="M21.1504 4.33331C21.1504 4.33331 21.3727 4.52608 21.7246 4.54444" stroke="black" stroke-width="0.0469166" stroke-miterlimit="22.9256"/>
<path d="M21.3184 4.12091C21.3184 4.12091 21.5795 4.35243 21.912 4.36059" stroke="black" stroke-width="0.0469166" stroke-miterlimit="22.9256"/>
<path d="M21.4961 3.96808C21.4961 3.96808 21.749 4.13025 22.107 4.16084" stroke="black" stroke-width="0.0469166" stroke-miterlimit="22.9256"/>
<path d="M21.6562 3.78937C21.6562 3.78937 21.9979 3.90972 22.311 3.9393" stroke="black" stroke-width="0.0469166" stroke-miterlimit="22.9256"/>
<path d="M21.8379 3.57111C21.8379 3.57111 22.0735 3.73633 22.4917 3.72613" stroke="black" stroke-width="0.0469166" stroke-miterlimit="22.9256"/>
<path d="M22.0039 3.35333C22.0039 3.35333 22.2834 3.53896 22.6424 3.54304" stroke="black" stroke-width="0.0469166" stroke-miterlimit="22.9256"/>
<path d="M22.1289 3.14618C22.1289 3.14618 22.5042 3.35628 22.8276 3.30937" stroke="black" stroke-width="0.0469166" stroke-miterlimit="22.9256"/>
<path d="M22.2656 2.89777C22.2656 2.89777 22.5033 3.15785 22.9459 3.14867" stroke="black" stroke-width="0.0469166" stroke-miterlimit="22.9256"/>
<path d="M22.3613 2.78595C22.3613 2.78595 22.7877 3.02563 23.0763 2.96444" stroke="black" stroke-width="0.0469166" stroke-miterlimit="22.9256"/>
<path d="M22.543 2.65021C22.543 2.65021 22.8663 2.84705 23.1621 2.83889" stroke="black" stroke-width="0.0469166" stroke-miterlimit="22.9256"/>
<path d="M22.871 2.55146C22.871 2.55146 23.4472 2.84519 24.2265 2.52698" stroke="black" stroke-width="0.0469166" stroke-miterlimit="22.9256"/>
<path d="M23.3613 2.76027C23.3613 2.76027 24.5261 3.02749 25.0309 2.56036" stroke="black" stroke-width="0.0469166" stroke-miterlimit="22.9256"/>
<path d="M24.2753 2.82942C24.2753 2.82942 25.0759 2.91306 25.9714 2.62952" stroke="black" stroke-width="0.0469166" stroke-miterlimit="22.9256"/>
<path d="M24.8065 2.83453C24.8065 2.83453 26.0223 3.07932 28.1345 2.84371" stroke="black" stroke-width="0.0469166" stroke-miterlimit="22.9256"/>
<path d="M13.7772 5.27664C13.7772 5.27664 14.3208 4.91864 14.5462 4.50659" stroke="black" stroke-width="0.0469166" stroke-miterlimit="22.9256"/>
<path d="M14.1857 5.2102C14.1857 5.2102 14.6232 4.78591 14.7507 4.52277" stroke="black" stroke-width="0.0469166" stroke-miterlimit="22.9256"/>
<path d="M14.5898 5.10132C14.5898 5.10132 14.9499 4.778 15.0294 4.55157" stroke="black" stroke-width="0.0469166" stroke-miterlimit="22.9256"/>
<path d="M12.8301 4.53214C12.8301 4.53214 13.6113 4.36181 15.4798 4.60149" stroke="black" stroke-width="0.0469166" stroke-miterlimit="22.9256"/>
<path d="M13.5527 4.21957C13.5527 4.21957 14.2075 3.90237 14.7909 3.80548" stroke="black" stroke-width="0.0469166" stroke-miterlimit="22.9256"/>
<path d="M14.2031 4.08839C14.2031 4.08839 14.6815 3.86299 15.3873 3.75079" stroke="black" stroke-width="0.0469166" stroke-miterlimit="22.9256"/>
<path d="M15.2911 4.04554C15.2911 4.04554 15.9531 3.76302 16.7629 3.78954" stroke="black" stroke-width="0.0469166" stroke-miterlimit="22.9256"/>
<path d="M16.127 4.05067C16.127 4.05067 17.0347 3.84771 17.871 3.96194" stroke="black" stroke-width="0.0469166" stroke-miterlimit="22.9256"/>
<path d="M18.5586 4.49435C18.5586 4.49435 19.2511 4.46273 20.0477 4.6606" stroke="black" stroke-width="0.0469166" stroke-miterlimit="22.9256"/>
<path d="M17.375 4.21603C17.375 4.21603 18.3674 4.16299 19.0477 4.28844" stroke="black" stroke-width="0.0469166" stroke-miterlimit="22.9256"/>
<path d="M23.5117 2.78925C23.5117 2.78925 23.8544 3.08604 24.8091 3.27473" stroke="black" stroke-width="0.0469166" stroke-miterlimit="22.9256"/>
<path d="M24.0488 2.83722C24.0488 2.83722 24.5853 3.14218 25.4318 3.24825" stroke="black" stroke-width="0.0469166" stroke-miterlimit="22.9256"/>
<path d="M24.6133 2.84113C24.6133 2.84113 25.366 3.16852 26.1615 3.18892" stroke="black" stroke-width="0.0469166" stroke-miterlimit="22.9256"/>
<path d="M25.4473 2.91254C25.4473 2.91254 26.2142 3.09714 27.1648 3.04717" stroke="black" stroke-width="0.0469166" stroke-miterlimit="22.9256"/>
<path d="M15.7324 4.03409C15.7324 4.03409 16.2526 3.8199 17.1746 3.83724" stroke="black" stroke-width="0.0469166" stroke-miterlimit="22.9256"/>
<path d="M19.1641 4.81354C19.1641 4.81354 19.4762 4.7758 19.8637 4.96041" stroke="black" stroke-width="0.0469166" stroke-miterlimit="22.9256"/>
<path d="M17.9531 5.77639C18.1683 5.81005 18.3733 5.83555 18.56 5.82025C19.2902 5.42146 19.789 5.04715 20.1531 4.70343" stroke="black" stroke-width="0.0469166" stroke-miterlimit="22.9256"/>
<path d="M13.8873 19.6662C13.048 19.5521 12.2423 19.2615 11.5233 18.8137C10.8042 18.3658 10.1882 17.7707 9.71572 17.0677C10.4519 17.4867 11.2685 17.745 12.1118 17.8258C12.955 17.9065 13.8058 17.8078 14.6081 17.5361" fill="#F8D000"/>
<path d="M13.8873 19.6662C13.048 19.5521 12.2423 19.2615 11.5233 18.8137C10.8042 18.3658 10.1882 17.7707 9.71572 17.0677C10.4519 17.4867 11.2685 17.745 12.1118 17.8258C12.955 17.9065 13.8058 17.8078 14.6081 17.5361" stroke="black" stroke-width="0.0552" stroke-miterlimit="22.9256"/>
<path d="M13.8529 21.0937L8.83421 19.4995L14.0604 18.8545" fill="#F8D000"/>
<path d="M13.8529 21.0937L8.83421 19.4995L14.0604 18.8545" stroke="black" stroke-width="0.0552" stroke-miterlimit="22.9256"/>
<path d="M14.6091 17.5357C13.8676 17.126 13.2213 16.564 12.7127 15.8866C12.2041 15.2092 11.8447 14.4317 11.6581 13.6055C12.1932 14.2621 12.8613 14.7981 13.6184 15.178C14.3755 15.558 15.2045 15.7733 16.0508 15.8098" fill="#F8D000"/>
<path d="M14.6091 17.5357C13.8676 17.126 13.2213 16.564 12.7127 15.8866C12.2041 15.2092 11.8447 14.4317 11.6581 13.6055C12.1932 14.2621 12.8613 14.7981 13.6184 15.178C14.3755 15.558 15.2045 15.7733 16.0508 15.8098" stroke="black" stroke-width="0.0552" stroke-miterlimit="22.9256"/>
<path d="M14.06 18.8544L9.95633 15.5545L15.0625 16.8414" fill="#F8D000"/>
<path d="M14.06 18.8544L9.95633 15.5545L15.0625 16.8414" stroke="black" stroke-width="0.0552" stroke-miterlimit="22.9256"/>
<path d="M16.0484 15.8099C15.5049 15.1601 15.1052 14.4026 14.8756 13.5873C14.6459 12.7719 14.5915 11.9171 14.7159 11.0792C14.9778 11.8849 15.4072 12.6259 15.976 13.2536C16.5448 13.8813 17.2401 14.3815 18.0161 14.7212" fill="#F8D000"/>
<path d="M16.0484 15.8099C15.5049 15.1601 15.1052 14.4026 14.8756 13.5873C14.6459 12.7719 14.5915 11.9171 14.7159 11.0792C14.9778 11.8849 15.4072 12.6259 15.976 13.2536C16.5448 13.8813 17.2401 14.3815 18.0161 14.7212" stroke="black" stroke-width="0.0552" stroke-miterlimit="22.9256"/>
<path d="M15.0617 16.8412L12.4266 12.2821L16.7235 15.3262" fill="#F8D000"/>
<path d="M15.0617 16.8412L12.4266 12.2821L16.7235 15.3262" stroke="black" stroke-width="0.0552" stroke-miterlimit="22.9256"/>
<path d="M18.0173 14.7207C17.7453 13.9185 17.6463 13.0678 17.7268 12.2245C17.8072 11.3812 18.0653 10.5645 18.4841 9.8282C18.4371 10.674 18.5698 11.5201 18.8734 12.311C19.177 13.1018 19.6446 13.8194 20.2454 14.4165" fill="#F8D000"/>
<path d="M18.0173 14.7207C17.7453 13.9185 17.6463 13.0678 17.7268 12.2245C17.8072 11.3812 18.0653 10.5645 18.4841 9.8282C18.4371 10.674 18.5698 11.5201 18.8734 12.311C19.177 13.1018 19.6446 13.8194 20.2454 14.4165" stroke="black" stroke-width="0.0552" stroke-miterlimit="22.9256"/>
<path d="M16.7236 15.3258L15.9137 10.1226L18.8205 14.5135" fill="#F8D000"/>
<path d="M16.7236 15.3258L15.9137 10.1226L18.8205 14.5135" stroke="black" stroke-width="0.0552" stroke-miterlimit="22.9256"/>
<path d="M20.2453 14.4168C20.2815 13.5705 20.4965 12.7415 20.8762 11.9842C21.2559 11.227 21.7916 10.5587 22.4481 10.0234C22.0988 10.7951 21.9168 11.632 21.9142 12.4791C21.9115 13.3262 22.0883 14.1643 22.4328 14.9381" fill="#F8D000"/>
<path d="M20.2453 14.4168C20.2815 13.5705 20.4965 12.7415 20.8762 11.9842C21.2559 11.227 21.7916 10.5587 22.4481 10.0234C22.0988 10.7951 21.9168 11.632 21.9142 12.4791C21.9115 13.3262 22.0883 14.1643 22.4328 14.9381" stroke="black" stroke-width="0.0552" stroke-miterlimit="22.9256"/>
<path d="M18.82 14.5135L19.9447 9.36922L21.0688 14.5137" fill="#F8D000"/>
<path d="M18.82 14.5135L19.9447 9.36922L21.0688 14.5137" stroke="black" stroke-width="0.0552" stroke-miterlimit="22.9256"/>
<path d="M22.4336 14.937C22.773 14.1609 23.2729 13.4654 23.9004 12.8964C24.528 12.3274 25.2689 11.8977 26.0744 11.6356C25.4699 12.2291 24.998 12.9438 24.6896 13.7328C24.3812 14.5217 24.2434 15.3671 24.2852 16.2131" fill="#F8D000"/>
<path d="M22.4336 14.937C22.773 14.1609 23.2729 13.4654 23.9004 12.8964C24.528 12.3274 25.2689 11.8977 26.0744 11.6356C25.4699 12.2291 24.998 12.9438 24.6896 13.7328C24.3812 14.5217 24.2434 15.3671 24.2852 16.2131" stroke="black" stroke-width="0.0552" stroke-miterlimit="22.9256"/>
<path d="M21.0696 14.5129L23.9762 10.122L23.1665 15.3252" fill="#F8D000"/>
<path d="M21.0696 14.5129L23.9762 10.122L23.1665 15.3252" stroke="black" stroke-width="0.0552" stroke-miterlimit="22.9256"/>
<path d="M24.2882 16.2137C24.8851 15.6127 25.6025 15.1448 26.3933 14.841C27.184 14.5371 28.0301 14.4041 28.8759 14.4508C28.0978 14.7857 27.3995 15.2817 26.8269 15.9059C26.2543 16.5302 25.8204 17.2686 25.5537 18.0726" fill="#F8D000"/>
<path d="M24.2882 16.2137C24.8851 15.6127 25.6025 15.1448 26.3933 14.841C27.184 14.5371 28.0301 14.4041 28.8759 14.4508C28.0978 14.7857 27.3995 15.2817 26.8269 15.9059C26.2543 16.5302 25.8204 17.2686 25.5537 18.0726" stroke="black" stroke-width="0.0552" stroke-miterlimit="22.9256"/>
<path d="M23.1689 15.3254L27.4657 12.2813L24.8308 16.8405" fill="#F8D000"/>
<path d="M23.1689 15.3254L27.4657 12.2813L24.8308 16.8405" stroke="black" stroke-width="0.0552" stroke-miterlimit="22.9256"/>
<path d="M25.5517 18.0733C26.3254 17.7285 27.1634 17.5515 28.0105 17.5539C28.8576 17.5562 29.6946 17.7379 30.4664 18.087C29.6199 18.1182 28.7896 18.3284 28.0301 18.7036C27.2706 19.0788 26.5992 19.6106 26.0601 20.2639" fill="#F8D000"/>
<path d="M25.5517 18.0733C26.3254 17.7285 27.1634 17.5515 28.0105 17.5539C28.8576 17.5562 29.6946 17.7379 30.4664 18.087C29.6199 18.1182 28.7896 18.3284 28.0301 18.7036C27.2706 19.0788 26.5992 19.6106 26.0601 20.2639" stroke="black" stroke-width="0.0552" stroke-miterlimit="22.9256"/>
<path d="M24.8303 16.8415L29.9367 15.5554L25.8325 18.8546" fill="#F8D000"/>
<path d="M24.8303 16.8415L29.9367 15.5554L25.8325 18.8546" stroke="black" stroke-width="0.0552" stroke-miterlimit="22.9256"/>
<path d="M26.0627 20.2639C26.9087 20.2218 27.7541 20.3594 28.5432 20.6675C29.3322 20.9756 30.0471 21.4473 30.6408 22.0516C29.8401 21.775 28.99 21.6711 28.1462 21.7467C27.3025 21.8223 26.4844 22.0757 25.7457 22.4903" fill="#F8D000"/>
<path d="M26.0627 20.2639C26.9087 20.2218 27.7541 20.3594 28.5432 20.6675C29.3322 20.9756 30.0471 21.4473 30.6408 22.0516C29.8401 21.775 28.99 21.6711 28.1462 21.7467C27.3025 21.8223 26.4844 22.0757 25.7457 22.4903" stroke="black" stroke-width="0.0552" stroke-miterlimit="22.9256"/>
<path d="M25.8346 18.8542L31.0608 19.499L26.0422 21.0934" fill="#F8D000"/>
<path d="M25.8346 18.8542L31.0608 19.499L26.0422 21.0934" stroke="black" stroke-width="0.0552" stroke-miterlimit="22.9256"/>
<path d="M19.9462 26.6492C23.3262 26.6492 26.0662 23.9092 26.0662 20.5292C26.0662 17.1492 23.3262 14.4092 19.9462 14.4092C16.5662 14.4092 13.8262 17.1492 13.8262 20.5292C13.8262 23.9092 16.5662 26.6492 19.9462 26.6492Z" fill="#F8D000" stroke="black" stroke-width="0.0552" stroke-miterlimit="22.9256"/>
<path d="M50.98 22H-10.9766V41H50.98V22Z" fill="#183070"/>
<path d="M-7.50586 22.0603C-5.86384 21.0847 -4.22181 21.0847 -2.57979 22.0603C-0.937767 23.036 0.704256 23.036 2.34628 22.0603C3.9883 21.0847 5.63032 21.0847 7.27235 22.0603C8.91437 23.036 10.5564 23.036 12.1984 22.0603C13.8404 21.0847 15.5646 21.0847 17.3708 22.0603C19.177 23.036 20.9832 23.036 22.7895 22.0603C24.5957 21.0847 26.3198 21.0847 27.9618 22.0603C29.6039 23.036 31.2459 23.036 32.8879 22.0603C34.5299 21.0847 36.172 21.0847 37.814 22.0603C39.456 23.036 41.098 23.036 42.74 22.0603C44.3821 21.0847 46.0241 21.0847 47.6661 22.0603" stroke="white" stroke-width="2.40151"/>
<path d="M-7.56421 27.8208C-5.9195 26.8454 -4.27479 26.8454 -2.63008 27.8208C-0.985364 28.7963 0.659347 28.7963 2.30406 27.8208C3.94877 26.8454 5.59348 26.8454 7.23819 27.8208C8.8829 28.7963 10.5276 28.7963 12.1723 27.8208C13.817 26.8454 15.544 26.8454 17.3532 27.8208C19.1623 28.7963 20.9715 28.7963 22.7807 27.8208C24.5899 26.8454 26.3168 26.8454 27.9616 27.8208C29.6063 28.7963 31.251 28.7963 32.8957 27.8208C34.5404 26.8454 36.1851 26.8454 37.8298 27.8208C39.4745 28.7963 41.1192 28.7963 42.764 27.8208C44.4087 26.8454 46.0534 26.8454 47.6981 27.8208" stroke="white" stroke-width="2.40324"/>
<path d="M-7.56641 33.5804C-5.92371 32.6047 -4.28101 32.6047 -2.63831 33.5804C-0.995607 34.5561 0.647093 34.5561 2.28979 33.5804C3.93249 32.6047 5.57519 32.6047 7.21789 33.5804C8.86059 34.5561 10.5033 34.5561 12.146 33.5804C13.7887 32.6047 15.5135 32.6047 17.3205 33.5804C19.1275 34.5561 20.9344 34.5561 22.7414 33.5804C24.5484 32.6047 26.2732 32.6047 27.9159 33.5804C29.5586 34.5561 31.2013 34.5561 32.844 33.5804C34.4867 32.6047 36.1294 32.6047 37.7721 33.5804C39.4148 34.5561 41.0575 34.5561 42.7002 33.5804C44.3429 32.6047 45.9856 32.6047 47.6283 33.5804" stroke="white" stroke-width="2.40206"/>
</g>
<defs>
<clipPath id="clip0_1_14745">
<rect width="40" height="40" rx="20" fill="white"/>
</clipPath>
</defs>
</svg>
