<svg width="40" height="40" viewBox="0 0 40 40" fill="none" xmlns="http://www.w3.org/2000/svg">
<g clip-path="url(#clip0_1_5869)">
<rect width="40" height="40" rx="20" fill="white"/>
<path d="M-2 5H42V34.3333H-2V5Z" fill="white"/>
<path d="M4.74414 13.9036L8.81194 7.80192L9.82889 8.47989L5.76109 14.5816L4.74414 13.9036ZM6.26957 14.9206L10.3374 8.81887L11.3543 9.49684L7.28652 15.5985L6.26957 14.9206ZM7.79499 15.9375L11.8628 9.83582L12.8797 10.5138L8.81194 16.6155L7.79499 15.9375Z" fill="black"/>
<path d="M27.1172 28.8188L31.185 22.7171L32.2019 23.3951L28.1341 29.4968L27.1172 28.8188ZM28.6426 29.8358L32.7104 23.7341L33.7274 24.4121L29.6596 30.5138L28.6426 29.8358ZM30.168 30.8527L34.2358 24.751L35.2528 25.429L31.185 31.5307L30.168 30.8527Z" fill="black"/>
<path d="M28.6445 25.4292L33.7293 28.819L28.6445 25.4292Z" fill="black"/>
<path d="M28.6445 25.4292L33.7293 28.819" stroke="white" stroke-width="0.611111"/>
<path d="M13.8965 15.5986C14.9753 13.9804 16.6528 12.8569 18.56 12.4755C20.4672 12.0941 22.4477 12.4859 24.066 13.5647C25.6843 14.6436 26.8077 16.3211 27.1891 18.2282C27.5705 20.1354 27.1787 22.116 26.0999 23.7342L13.8965 15.5986Z" fill="#CD2E3A"/>
<path d="M13.8979 15.5985C12.819 17.2168 12.4272 19.1973 12.8087 21.1045C13.1901 23.0116 14.3135 24.6891 15.9318 25.768C17.5501 26.8468 19.5306 27.2386 21.4378 26.8572C23.3449 26.4758 25.0224 25.3524 26.1013 23.7341C26.6407 22.925 26.8366 21.9347 26.6459 20.9811C26.4552 20.0275 25.8935 19.1888 25.0843 18.6493C24.2752 18.1099 23.2849 17.914 22.3313 18.1047C21.3778 18.2954 20.539 18.8572 19.9996 19.6663L13.8979 15.5985Z" fill="#0047A0"/>
<path d="M19.9989 19.6664C21.1222 17.9814 20.6669 15.7049 18.9819 14.5816C17.297 13.4583 15.0205 13.9136 13.8972 15.5986C12.7739 17.2835 13.2292 19.56 14.9141 20.6833C16.5991 21.8066 18.8756 21.3513 19.9989 19.6664Z" fill="#CD2E3A"/>
<path d="M8.81226 31.5304L4.74445 25.4287L5.7614 24.7507L9.82921 30.8524L8.81226 31.5304ZM10.3377 30.5134L6.26988 24.4117L7.28683 23.7337L11.3546 29.8354L10.3377 30.5134ZM11.8631 29.4965L7.79531 23.3948L8.81226 22.7168L12.8801 28.8185L11.8631 29.4965Z" fill="black"/>
<path d="M31.1853 16.6153L27.1175 10.5136L28.1345 9.83566L32.2023 15.9374L31.1853 16.6153ZM32.7107 15.5984L28.6429 9.49667L29.6599 8.81871L33.7277 14.9204L32.7107 15.5984ZM34.2362 14.5814L30.1684 8.47972L31.1853 7.80176L35.2531 13.9035L34.2362 14.5814Z" fill="black"/>
<path d="M8.04858 27.6319L9.57401 26.615L8.04858 27.6319ZM28.6418 13.9031L30.4215 12.7167L28.6418 13.9031ZM31.9469 11.6997L33.4723 10.6828L31.9469 11.6997Z" fill="black"/>
<path d="M8.04858 27.6319L9.57401 26.615M28.6418 13.9031L30.4215 12.7167M31.9469 11.6997L33.4723 10.6828" stroke="white" stroke-width="0.611111"/>
</g>
<defs>
<clipPath id="clip0_1_5869">
<rect width="40" height="40" rx="20" fill="white"/>
</clipPath>
</defs>
</svg>
