<svg width="40" height="40" viewBox="0 0 40 40" fill="none" xmlns="http://www.w3.org/2000/svg">
<g clip-path="url(#clip0_1_2498)">
<rect width="40" height="40" rx="20" fill="#244AA5"/>
<path d="M-5 3H45V36.3333H-5V3Z" fill="#244AA5"/>
<path d="M20.2516 13.5631C20.4469 13.791 20.5776 14.0187 20.5776 14.2956C20.4137 14.3767 20.1872 14.4098 20.0564 14.5562C20.8704 14.442 21.0325 15.3859 21.9441 15.0277C21.9772 15.1584 22.1079 15.2725 22.27 15.2232L22.3677 14.9632C22.725 14.8656 22.6274 15.4512 23.0194 15.3371C23.2148 15.5001 23.0841 15.7764 23.2148 15.9725C23.2148 16.1999 23.3125 16.3952 23.41 16.5903C23.5077 16.477 23.5721 16.314 23.8004 16.3629C23.9626 16.5416 24.0933 16.7045 24.1262 16.8997C24.0601 17.2745 23.9625 17.5996 24.3529 17.7947V17.9089C24.6144 18.023 25.2 17.7947 25.2 18.2505C25.1668 18.4135 25.3621 18.2671 25.4283 18.3647C25.5905 18.2993 25.8188 18.3325 26.0139 18.3325C26.1761 18.6741 25.8188 18.9181 25.7211 19.2275C25.8832 19.3896 25.8188 19.6833 25.7857 19.8776L25.688 19.9264C25.9477 19.9752 26.2736 19.895 26.502 20.0414L26.9255 20.2035C27.1207 20.0903 27.3474 20.0729 27.6088 20.0903C27.804 20.2367 27.5426 20.4807 27.7065 20.594C27.9348 20.594 28.13 20.6272 28.1614 20.8224L28.1945 20.8869C28.3566 20.594 28.8132 20.7892 29.0085 20.5784C29.3344 20.5784 29.3989 20.9357 29.5609 21.131C29.6272 21.6364 29.0085 21.8648 29.2037 22.3685C29.073 22.6124 28.8132 22.8078 28.618 23.036C28.6825 23.0691 28.6494 23.1493 28.6494 23.1981C28.4542 23.3132 28.618 23.6548 28.3566 23.6863C28.3252 23.8988 27.9347 23.817 28.0637 24.0452C28.3251 24.3869 27.9347 24.5978 27.9347 24.908C27.7709 25.0875 27.445 24.7442 27.445 25.0875C27.2497 25.1363 27.0545 24.908 26.9255 25.1033C26.8593 25.3316 27.0545 25.4118 27.0232 25.6401C27.3474 25.607 27.445 25.9329 27.5757 26.1282L27.9017 26.4541C27.5757 26.7138 27.1522 26.4209 26.7617 26.5673C26.664 26.5186 26.7617 26.3896 26.664 26.3408C26.5664 26.2257 26.3712 26.2257 26.2091 26.1943C26.2405 26.3408 25.9477 26.3895 26.0784 26.5673C26.0784 26.6161 26.1429 26.7625 26.0139 26.7625C25.7525 26.8445 25.7856 26.536 25.5572 26.6492C25.2644 26.7625 25.4927 27.2018 25.0692 27.153C25.1337 27.5452 24.4191 27.8049 24.9071 28.1465C24.9715 28.2111 24.9384 28.3417 24.9384 28.4394C24.6456 28.7008 24.1261 28.6032 23.8002 28.5056C23.5388 28.4394 23.7026 28.1134 23.605 27.9356C23.5074 27.7718 23.2146 27.6585 23.2146 27.4302C23.0192 27.3499 22.8555 27.2996 22.7248 27.1373C22.2699 27.5766 21.7158 28.0001 21.0655 28.0158C20.7727 28.1622 20.6088 28.7496 20.1539 28.5055C19.9752 28.7984 19.4375 28.5055 19.4052 28.9274C19.1934 29.0093 19.2911 29.2864 19.1612 29.4154C19.1124 29.7413 19.1612 30.0184 19.4375 30.2138C19.5516 30.4577 19.1935 30.4577 19.3399 30.6861C19.373 30.7663 19.3399 30.8813 19.2911 30.9144C19.1935 30.9632 19.1612 31.0121 19.1934 31.1096C19.1124 31.1096 19.0794 31.1584 19.0148 31.2229C18.9328 31.3851 18.6731 31.4669 18.4936 31.5802C18.315 31.629 18.1842 31.5 18.0709 31.3851C18.0378 31.5646 17.8914 31.6622 17.7128 31.6622C17.4522 31.6622 17.501 31.4338 17.3057 31.3363C17.3868 31.0434 17.1262 30.9144 17.2081 30.653C17.4198 30.4909 17.7772 30.3758 17.6796 30.0343C17.4522 29.7588 17.5332 29.3509 17.3057 29.025C17.1593 28.896 16.9153 28.7009 16.9964 28.3906C17.2081 28.1466 16.9964 27.8537 16.8822 27.594C16.8334 27.3814 16.7036 27.1862 16.7036 26.9422C16.3454 26.7313 16.3288 26.177 15.8242 26.1282C15.4661 26.1282 15.4015 25.6732 15.0434 25.7046C15.0103 25.6401 14.9292 25.5914 14.8639 25.5268C14.6041 25.7046 14.2782 25.478 13.9531 25.5582C13.7413 25.2009 14.1318 24.7128 13.5618 24.5001V24.2736C13.6272 24.3049 13.6595 24.2404 13.676 24.2073C13.7082 23.9633 13.269 23.9319 13.4485 23.6547C13.3509 23.5729 13.2368 23.5397 13.3021 23.3776C13.0573 22.8739 12.3252 22.9227 12.1622 22.4173C12.2929 22.304 12.2929 22.1889 12.3418 22.0914C12.2276 21.8961 12.1954 21.6852 12.2276 21.4743C12.3418 21.4411 12.4062 21.2948 12.4716 21.1797C12.3252 21.0821 12.1465 20.9357 11.9835 20.9845C11.6907 20.9357 11.4789 20.7091 11.2183 20.5784C11.153 20.5139 11.1861 20.3989 11.1861 20.3187C11.5443 20.2036 11.1374 19.699 11.5766 19.7644C11.6908 19.618 11.9347 19.5692 12.1135 19.455C12.293 19.4228 12.4394 19.4881 12.618 19.537C12.7645 19.7313 13.0251 19.6503 13.1714 19.8132C13.3178 19.7801 13.4974 19.699 13.676 19.7801C13.676 19.5038 13.8059 19.3408 14.0019 19.1456C14.0342 19.0323 14.2129 18.9504 14.3593 18.8859C14.6365 18.9504 14.9615 18.9504 15.1576 18.7552C15.2875 18.837 15.4017 18.6741 15.5481 18.6741C15.7267 18.641 15.8731 18.6898 16.0038 18.7717C16.0195 18.4458 16.5895 18.7229 16.7037 18.3325C16.8336 18.0719 16.3455 17.9743 16.3777 17.746C16.2967 17.4854 16.4919 17.3555 16.5895 17.1769C16.7036 17.128 16.8335 17.0627 16.9799 17.0949C17.3547 16.965 17.0618 16.1999 17.664 16.477C17.664 16.5581 17.6309 16.6557 17.6797 16.6723C17.8915 16.6723 17.924 16.428 18.0711 16.3464C18.1355 16.1189 17.9892 15.8418 18.1844 15.6631C18.282 15.6466 18.3639 15.6143 18.4284 15.5324C18.4284 15.3537 18.3308 15.2561 18.1844 15.1419C18.1356 15.2233 18.0057 15.1585 17.924 15.1908C17.924 14.9955 17.8104 14.8657 17.7773 14.6861C17.6797 14.6373 17.6309 14.5563 17.664 14.4421C17.8104 14.2957 17.664 13.9375 18.0057 14.0187C18.1356 13.9053 18.3639 13.9863 18.4937 13.7911C18.8354 13.5959 19.2911 13.5959 19.5517 13.2377C19.6659 13.2542 19.7958 13.1401 19.9099 13.2377C19.9422 13.4494 20.2516 13.3675 20.2516 13.5631Z" fill="#D0A650"/>
<path d="M22.7719 9.14993L22.3219 7.7666L21.8774 9.14993H20.4219L21.5997 10.0055L21.1497 11.3888L22.3219 10.5333L23.4997 11.3888L23.0497 10.0055L24.2274 9.14993H22.7719Z" fill="white"/>
<path d="M27.35 9.95557L26.9 8.5778L26.4556 9.95557H25L26.1778 10.8111L25.7278 12.1945L26.9 11.3389L28.0778 12.1945L27.6278 10.8111L28.8056 9.95557H27.35Z" fill="white"/>
<path d="M31.7172 11.5443L31.2727 10.1665L30.8227 11.5443H29.3672L30.545 12.3998L30.095 13.7832L31.2727 12.9276L32.445 13.7832L31.995 12.3998L33.1727 11.5443H31.7172Z" fill="white"/>
<path d="M18.1234 9.14993L17.679 7.7666L17.229 9.14993H15.7734L16.9512 10.0055L16.5012 11.3888L17.679 10.5333L18.8512 11.3888L18.4012 10.0055L19.579 9.14993H18.1234Z" fill="white"/>
<path d="M13.5453 9.95541L13.1009 8.57764L12.6509 9.95541H11.1953L12.3731 10.811L11.9231 12.1943L13.1009 11.3387L14.2731 12.1943L13.8231 10.811L15.0009 9.95541H13.5453Z" fill="white"/>
<path d="M9.17813 11.5443L8.72813 10.1665L8.28368 11.5443H6.82812L8.0059 12.3998L7.5559 13.7832L8.72813 12.9276L9.9059 13.7832L9.4559 12.3998L10.6337 11.5443H9.17813Z" fill="white"/>
</g>
<defs>
<clipPath id="clip0_1_2498">
<rect width="40" height="40" rx="20" fill="white"/>
</clipPath>
</defs>
</svg>
