<svg width="40" height="40" viewBox="0 0 40 40" fill="none" xmlns="http://www.w3.org/2000/svg">
<g clip-path="url(#clip0_1_5330)">
<path d="M-10 0H50V40H-10V0Z" fill="#ED1C24"/>
<path d="M-10 10H50V30H-10V10Z" fill="white"/>
<path d="M19.7266 10C19.2973 10.904 18.4889 11.5358 17.7162 12.1337C17.589 12.2447 17.273 12.4597 17.5022 12.6234C17.6987 12.4039 18.2378 12.6946 17.9245 12.9307C17.6438 13.1934 17.2574 13.2896 16.9457 13.5064C16.6697 13.6564 16.3897 13.8129 16.1708 14.0425C16.156 14.4011 16.6158 14.2026 16.8024 14.352C17.0454 14.6117 16.6994 15.0497 16.3804 14.9495C15.9727 14.9621 15.6911 15.3209 15.5368 15.6631C15.2179 16.1563 14.6135 16.3025 14.1322 16.5831C13.8569 16.7436 13.5898 16.9212 13.3335 17.1085C13.003 17.3345 13.2905 17.7818 13.6422 17.672C14.0217 17.6341 14.3632 17.3359 14.7562 17.4219C15.1125 17.5471 15.2125 18.0128 15.0911 18.338C15.0011 18.5983 14.7831 18.7817 14.6085 18.9851C14.325 19.2723 13.9542 19.4588 13.5632 19.5477C13.1854 19.6746 12.8457 19.9061 12.5978 20.2186C12.3102 20.5082 12.0237 20.8025 11.693 21.0439C11.5886 21.3105 11.8834 21.5375 12.129 21.5304C12.6469 21.4977 13.0057 21.074 13.4467 20.8562C13.8127 20.6917 14.2434 21.0862 14.1538 21.4674C14.1255 21.8383 13.7782 22.0265 13.4695 22.1407C12.5618 22.5969 11.7737 23.2587 11.074 23.9887C10.9292 24.2839 10.5313 24.197 10.3171 24.4028C10.1776 24.6632 10.5278 24.8005 10.7368 24.7738C11.6348 24.6658 12.4728 24.2862 13.2666 23.8686C13.5618 23.7275 13.839 23.5417 14.1459 23.4293C14.4342 23.358 14.8362 23.4833 14.8877 23.8114C14.8873 24.1578 14.5442 24.3496 14.2724 24.4849C13.4344 24.9252 12.5148 25.1686 11.6191 25.4597C11.2838 25.3659 11.0311 25.9625 11.399 26.0698C11.7879 26.2031 12.2014 26.0962 12.5993 26.0787C13.8296 25.8903 14.9056 25.2245 16.0556 24.7942C16.5338 24.6383 17.0981 24.8558 17.334 25.3038C17.5711 25.7031 17.5494 26.2283 17.2994 26.6163C16.9042 27.4617 16.3034 28.2388 15.4968 28.7249C14.9906 28.9756 14.3996 29.0715 13.9657 29.4552C13.5644 29.5875 14.1669 30.1297 14.254 29.6993C14.4951 29.3705 14.9204 29.2721 15.3062 29.2585C15.886 29.1955 16.5017 29.0885 16.9522 28.6872C17.356 28.3735 17.754 27.9409 18.3024 27.9341C18.6055 27.9701 18.9053 28.2136 19.2131 28.065C19.4824 27.9417 19.9049 28.0139 19.9752 28.3451C20.1038 28.7325 20.5031 28.9087 20.8198 29.116C20.9344 29.2769 21.3152 29.692 21.403 29.3261C21.3321 29.0651 21.4334 28.6657 21.7758 28.7529C22.0748 28.7662 22.3598 28.8765 22.6584 28.8946C23.0558 28.9769 23.3874 29.2491 23.6132 29.5777C23.7684 29.7921 24.1086 30.1605 24.3613 29.8762C24.5181 29.5821 24.2188 29.3369 23.975 29.2319C23.6197 29.0117 23.3159 28.7184 23.0052 28.4407C22.5472 28.013 22.1517 27.469 22.079 26.8301C21.9804 26.1931 22.0323 25.5433 22.1154 24.9079C22.2201 24.4989 22.7432 24.2756 23.1089 24.4929C23.6235 24.7277 24.1346 25.0637 24.7246 25.0273C25.5771 25.0457 26.4532 24.8825 27.2863 25.1295C28.0971 25.3849 28.6768 26.0691 29.4665 26.3651C29.6433 26.4726 29.8695 26.3703 29.9343 26.1815C30.0126 26.0118 29.9573 25.7947 29.7938 25.698C28.8785 24.7741 27.6276 24.3253 26.5686 23.6033C26.2352 23.5187 26.1744 22.9822 26.4827 22.8273C26.8879 22.5329 27.4613 22.67 27.8208 22.9736C28.1244 23.1514 28.4664 23.2847 28.8226 23.2849C29.1875 23.1707 29.0106 22.6428 28.684 22.6031C28.092 22.2689 27.668 21.7204 27.1552 21.2857C26.8599 21.0357 26.5368 20.7826 26.1399 20.7341C25.923 20.6946 25.7012 20.686 25.4814 20.7007C25.2753 20.4767 25.55 20.1337 25.8165 20.1618C26.09 20.1802 26.3618 20.2005 26.635 20.1625C26.9402 20.1401 27.2452 20.1085 27.5514 20.1065C27.7987 20.2748 28.2928 19.984 28.0696 19.6937C27.8258 19.4801 27.4734 19.4986 27.1821 19.389C26.6707 19.2218 26.1498 19.0849 25.6222 18.979C25.2534 18.957 25.2989 18.4715 25.6231 18.4179C25.8353 18.3388 26.0198 18.5018 26.2234 18.5271C26.5713 18.6019 26.9304 18.6009 27.2781 18.6767C27.573 18.5311 27.345 18.1005 27.0784 18.0753C26.4492 17.8503 25.9054 17.4443 25.3737 17.0492C24.7868 16.6078 24.2543 16.0973 23.6602 15.6661C23.4446 15.5325 23.0912 15.4941 23.0346 15.198C23.0146 14.9256 23.3351 14.8016 23.5624 14.8653C23.8848 14.9605 24.1852 15.1263 24.5139 15.2077C24.7717 15.2515 25.0376 15.3278 25.286 15.2953C25.6015 15.0971 25.1507 14.9704 24.9876 14.9017C24.567 14.6748 24.1933 14.3726 23.8148 14.0843C23.4949 13.8113 24.0861 13.6907 24.2894 13.7959C24.6294 13.9381 24.6682 13.4427 24.414 13.318C24.1146 13.1907 23.8571 12.9793 23.5856 12.7949C23.0949 12.4457 22.5393 12.1693 21.9362 12.0925C21.26 12.0245 20.6289 11.6357 20.2702 11.0575C20.0477 10.7279 19.8844 10.3635 19.7266 10ZM17.5062 13.7934C17.8546 13.8037 17.801 14.4319 17.458 14.3899C17.1248 14.3685 17.1452 13.7259 17.5062 13.7934ZM20.7934 14.1317C21.1325 14.071 21.2043 14.6898 20.8655 14.7189C20.5124 14.7821 20.3816 14.0925 20.7934 14.1317ZM19.8306 14.2123C20.1744 14.2799 20.1132 14.8789 19.7662 14.8841C19.5124 14.9406 19.2388 15.1139 18.982 14.9841C18.7731 14.7631 19.075 14.4365 19.3081 14.3647C19.4869 14.3287 19.6514 14.2475 19.8306 14.2123ZM22.0464 14.2149C22.3778 14.3357 22.2609 14.9206 21.9114 14.9131C21.581 14.9575 21.427 14.4061 21.7352 14.2754C21.835 14.2401 21.9395 14.2103 22.0464 14.2149ZM18.3084 14.8783C18.5521 15.1102 18.4082 15.5577 18.1078 15.6646C17.8913 15.785 17.5961 16.0699 17.3603 15.8355C17.2323 15.5491 17.5535 15.3335 17.7424 15.1746C17.911 15.0435 18.0971 14.9245 18.3084 14.8783ZM21.0907 16.1715C21.4395 16.3361 21.2624 16.9647 20.8796 16.9257C20.5652 16.846 20.6063 16.3067 20.923 16.2637C20.9828 16.2408 21.0377 16.2071 21.0907 16.1715ZM19.984 16.2339C20.3102 16.3866 20.0611 16.931 19.7325 16.8525C19.3918 16.8125 19.3981 16.2136 19.7738 16.2677C19.8446 16.2642 19.9177 16.2623 19.984 16.2339ZM22.3697 16.5461C22.7272 16.4352 23.1577 16.8035 23.0417 17.1771C22.8824 17.4667 22.4884 17.5033 22.206 17.3951C21.882 17.3791 21.664 16.8918 21.9527 16.6855C22.0722 16.5953 22.2228 16.5581 22.3697 16.5461ZM17.0884 16.6398C17.3841 16.4789 17.698 16.9623 17.4466 17.1755C17.28 17.4204 16.8524 17.5204 16.6638 17.2482C16.5072 16.9822 16.7604 16.5355 17.0884 16.6398ZM15.7244 16.8687C16.0598 16.9146 16.2783 17.2192 16.4023 17.5093C16.4325 17.8627 15.911 18.0566 15.6835 17.7995C15.4276 17.639 15.2037 17.3089 15.3378 17.0026C15.4205 16.8809 15.5851 16.8307 15.7245 16.8687H15.7244ZM23.8847 18.1462C24.2487 18.0503 24.5129 18.6319 24.2004 18.8423C23.9146 19.1019 23.359 18.7581 23.5081 18.3877C23.5821 18.2504 23.7302 18.1592 23.8847 18.1462ZM19.2524 18.8097C19.5576 18.8485 19.4587 19.3775 19.1765 19.3597C18.8737 19.3035 18.943 18.7799 19.2524 18.8097ZM17.7044 19.0907C17.9532 18.9145 18.2743 19.3444 18.0672 19.5447C17.8191 19.7195 17.4972 19.2965 17.7044 19.0907ZM20.1657 19.1427C20.4542 19.318 20.6254 19.6449 20.6613 19.9747C20.523 20.2829 19.989 20.2086 19.9288 19.8804C19.8233 19.6209 19.9206 19.2871 20.1656 19.1427L20.1657 19.1427ZM21.0246 19.6527C21.3964 19.5593 21.263 20.3364 20.9526 20.0669C20.8494 19.9443 20.9046 19.7427 21.0246 19.6527H21.0246ZM15.6301 20.1938C15.8763 20.1217 16.2352 20.1975 16.3031 20.4801C16.3318 20.7456 16.0398 20.8837 15.8258 20.9495C15.4829 21.0554 15.1475 21.2291 14.7787 21.2058C14.5022 21.0478 14.403 20.7245 14.3045 20.4425C14.5712 20.1923 14.9641 20.2657 15.2948 20.2031C15.4064 20.1974 15.5183 20.1947 15.6301 20.1938ZM23.998 21.4115C24.312 21.2575 24.6498 21.756 24.3869 21.9888C24.058 22.3673 23.4249 22.4377 23.0316 22.1197C22.9844 21.7847 23.3189 21.5414 23.6162 21.4933C23.7412 21.458 23.8655 21.4053 23.998 21.4115ZM25.7631 21.7939C26.12 21.7325 26.401 22.2415 26.1462 22.505C25.905 22.8687 25.3299 22.964 25.0011 22.6659C24.8729 22.3645 25.133 22.0503 25.4098 21.9536C25.5287 21.9029 25.6414 21.8381 25.7631 21.7939ZM16.8878 22.3351C17.2183 22.3025 17.521 22.6303 17.4777 22.9561C17.7169 23.1915 17.2933 23.6301 17.055 23.3863C16.845 23.1319 16.846 22.7867 16.7647 22.4821C16.761 22.4144 16.8112 22.3268 16.8878 22.3351ZM19.4246 22.5251C19.7663 22.3773 20.2083 22.7861 20.0223 23.1321C19.8894 23.4139 19.3714 23.3194 19.3886 22.993C19.3878 22.8368 19.3752 22.6767 19.4246 22.525V22.5251ZM18.1905 22.7462C18.533 22.6677 18.8473 23.1117 18.657 23.408C18.3154 23.4384 18.1382 23.0331 18.1905 22.7462Z" fill="#00A651"/>
</g>
<defs>
<clipPath id="clip0_1_5330">
<rect width="40" height="40" rx="20" fill="white"/>
</clipPath>
</defs>
</svg>
