<svg width="40" height="40" viewBox="0 0 40 40" fill="none" xmlns="http://www.w3.org/2000/svg">
<g clip-path="url(#clip0_1_15977)">
<path d="M-10 0H50V40H-10V0Z" fill="white"/>
<path d="M-10 0H50V12H-10V0Z" fill="#00209F"/>
<path d="M-10 28H50V40H-10V28Z" fill="#009543"/>
<path d="M19.999 12.6396C20.102 12.6395 20.203 12.6678 20.291 12.7213C20.3789 12.7749 20.4504 12.8517 20.4976 12.9432C21.6833 13.0846 22.3069 13.9432 22.524 14.9418C22.7776 16.1089 22.509 17.6961 21.6854 19.3625L24.849 23.5604C25.0169 23.4818 25.1829 23.3991 25.3469 23.3125L26.5097 25.7739C24.4976 26.8158 22.2648 27.3595 19.999 27.3595C17.7332 27.3595 15.5004 26.8158 13.4883 25.7739L14.6511 23.3125C14.8151 23.3991 14.9811 23.4818 15.149 23.5604L18.3126 19.3625C17.489 17.6961 17.2204 16.1089 17.474 14.9418C17.6911 13.9432 18.3147 13.0846 19.5004 12.9432C19.5476 12.8517 19.6191 12.7749 19.707 12.7213C19.795 12.6678 19.896 12.6395 19.999 12.6396ZM21.2519 18.7868C21.8933 17.3546 22.1019 15.9968 21.899 15.0989C21.7197 14.3046 21.3176 13.7146 20.519 13.5889V15.6396L21.519 16.6396H20.719V18.0796L21.2519 18.7868ZM19.479 13.5889C18.6804 13.7146 18.2783 14.3046 18.099 15.0989C17.8961 15.9968 18.1047 17.3546 18.7461 18.7868L19.279 18.0796V16.6396H18.479L19.479 15.6396V13.5889ZM15.039 24.3654L14.6969 25.0882L15.2504 24.9396L15.039 24.3654ZM14.7604 25.4025C15.0143 25.5117 15.2716 25.6129 15.5319 25.7061L15.3611 25.2418L14.7604 25.4025ZM16.0197 25.2939L16.7376 25.0668L16.5311 24.6039C16.2349 24.5139 15.9423 24.4124 15.654 24.2997L16.0197 25.2939ZM16.8683 25.3611L16.1304 25.5946L16.2583 25.9418C16.5812 26.0365 16.9076 26.119 17.2369 26.1889L16.8683 25.3611ZM17.6654 25.6754L18.4561 25.3511L18.2669 24.9932C17.9346 24.9443 17.6045 24.8814 17.2776 24.8046L17.6654 25.6754ZM18.6069 25.6354L17.7954 25.9675L17.9526 26.3211C18.3117 26.3771 18.6729 26.4183 19.0354 26.4446L18.6069 25.6354ZM19.404 25.8596L20.3904 25.3439L20.2476 25.1168C19.8279 25.1256 19.408 25.1123 18.9897 25.0768L19.404 25.8596ZM20.5626 25.6154L19.554 26.1425L19.7311 26.4768C20.1815 26.4859 20.6321 26.4721 21.0811 26.4354L20.5626 25.6154ZM21.3904 25.8025L22.1661 25.2696L21.9411 24.9604C21.6078 25.0153 21.2722 25.0561 20.9354 25.0825L21.3904 25.8025ZM22.3547 25.5282L21.5619 26.0732L21.7454 26.3639C22.1083 26.316 22.4691 26.2531 22.8269 26.1754L22.3547 25.5282ZM23.0761 25.4989L23.7219 24.9261L23.4583 24.6068C23.1722 24.6936 22.8829 24.7696 22.5911 24.8346L23.0761 25.4989ZM23.9261 25.1725L23.2654 25.7589L23.4569 26.0218C23.7712 25.9368 24.0824 25.8403 24.3897 25.7325L23.9261 25.1725ZM24.5847 25.0275L25.0226 24.4996L24.8319 24.0961C24.5809 24.2072 24.3263 24.3097 24.0683 24.4032L24.5847 25.0275ZM25.174 24.8189L24.7926 25.2782L24.9833 25.5089C25.1277 25.4505 25.271 25.3895 25.4133 25.3261L25.174 24.8189Z" fill="black"/>
</g>
<defs>
<clipPath id="clip0_1_15977">
<rect width="40" height="40" rx="20" fill="white"/>
</clipPath>
</defs>
</svg>
