<svg width="40" height="40" viewBox="0 0 40 40" fill="none" xmlns="http://www.w3.org/2000/svg">
<g clip-path="url(#clip0_1_15982)">
<path d="M0 0H60.4624V40H0V0Z" fill="#BF0A30"/>
<path d="M0 5.45441H60.5435H0ZM60.5435 12.7271H0H60.5435Z" fill="black"/>
<path d="M0 5.45441H60.5435M60.5435 12.7271H0" stroke="white" stroke-width="3.2456"/>
<path d="M0 0H18.1818V20H0V0Z" fill="#002868"/>
<path d="M0 19.9999H60.4972H0ZM60.4972 27.2726H0H60.4972ZM0 34.5453H60.4972H0Z" fill="black"/>
<path d="M0 19.9999H60.4972M60.4972 27.2726H0M0 34.5453H60.4972" stroke="white" stroke-width="3.24435"/>
<path d="M11.1973 10.9044L10.2891 4.87402L8.60352 10.0616L11.1973 10.9044Z" fill="white"/>
<path d="M9.38082 10.9044L10.2891 4.87402L11.9746 10.0616L9.38082 10.9044Z" fill="white"/>
<path d="M10.022 11.3684L15.4766 8.64111H10.022V11.3684Z" fill="white"/>
<path d="M9.46069 9.6408L15.4766 8.64111L11.0637 11.8472L9.46069 9.6408Z" fill="white"/>
<path d="M9.91145 9.32772L7.10168 14.7402L11.5145 11.5341L9.91145 9.32772Z" fill="white"/>
<path d="M11.381 10.3954L7.10168 14.7402L8.78723 9.55265L11.381 10.3954Z" fill="white"/>
<path d="M9.23287 10.3966L13.5122 14.7415L11.8267 9.55387L9.23287 10.3966Z" fill="white"/>
<path d="M10.7024 9.32894L13.5122 14.7415L9.09939 11.5354L10.7024 9.32894Z" fill="white"/>
<path d="M11.1316 9.64349L5.11572 8.6438L9.52854 11.8499L11.1316 9.64349Z" fill="white"/>
<path d="M10.5703 11.3711L5.11572 8.6438H10.5703V11.3711Z" fill="white"/>
</g>
<defs>
<clipPath id="clip0_1_15982">
<rect width="40" height="40" rx="20" fill="white"/>
</clipPath>
</defs>
</svg>
