<svg width="40" height="40" viewBox="0 0 40 40" fill="none" xmlns="http://www.w3.org/2000/svg">
<g clip-path="url(#clip0_1_16005)">
<path d="M50 0H-10V40H50V0Z" fill="#239E46"/>
<path d="M50.0397 0H-10V30H50.0397V0Z" fill="black"/>
<path d="M50.0397 0H-10V10H50.0397V0Z" fill="#E70013"/>
<path d="M19.4102 25C22.1716 25 24.4102 22.7614 24.4102 20C24.4102 17.2386 22.1716 15 19.4102 15C16.6487 15 14.4102 17.2386 14.4102 20C14.4102 22.7614 16.6487 25 19.4102 25Z" fill="white"/>
<path d="M20.4225 24.3444C22.8218 24.3444 24.7668 22.3994 24.7668 20.0001C24.7668 17.6008 22.8218 15.6558 20.4225 15.6558C18.0232 15.6558 16.0781 17.6008 16.0781 20.0001C16.0781 22.3994 18.0232 24.3444 20.4225 24.3444Z" fill="black"/>
<path d="M21.8418 19.9999L28.5668 17.8148L24.4105 23.5354V16.4644L28.5668 22.185L21.8418 19.9999Z" fill="white"/>
</g>
<defs>
<clipPath id="clip0_1_16005">
<rect width="40" height="40" rx="20" fill="white"/>
</clipPath>
</defs>
</svg>
