<svg width="40" height="40" viewBox="0 0 40 40" fill="none" xmlns="http://www.w3.org/2000/svg">
<g clip-path="url(#clip0_1_2514)">
<path d="M60 0H0V40H60V0Z" fill="#002B7F"/>
<path d="M60 20H0V40H60V20Z" fill="#CE1126"/>
<path d="M19.4311 8.1523L19.3086 12.319H15.0806C14.5604 11.3077 14.1309 10.4489 14.1309 9.28587C14.1309 8.31257 14.8964 7.53955 15.9997 7.53955C17.1677 7.53955 18.451 7.93312 19.4311 8.1523Z" fill="#FFD83D"/>
<path d="M14.6348 8.34326V10.7483V8.34326Z" fill="#FFD83D"/>
<path d="M14.6348 8.34326V10.7483" stroke="black" stroke-width="0.1" stroke-linecap="round" stroke-linejoin="round"/>
<path d="M14.9746 8.09814V11.3004V8.09814Z" fill="#FFD83D"/>
<path d="M14.9746 8.09814V11.3004" stroke="black" stroke-width="0.1" stroke-linecap="round" stroke-linejoin="round"/>
<path d="M15.3145 7.92969V11.7447V7.92969Z" fill="#FFD83D"/>
<path d="M15.3145 7.92969V11.7447" stroke="black" stroke-width="0.1" stroke-linecap="round" stroke-linejoin="round"/>
<path d="M15.6543 7.85059V10.8427V7.85059Z" fill="#FFD83D"/>
<path d="M15.6543 7.85059V10.8427" stroke="black" stroke-width="0.1" stroke-linecap="round" stroke-linejoin="round"/>
<path d="M15.9922 7.83594V10.8577V7.83594Z" fill="#FFD83D"/>
<path d="M15.9922 7.83594V10.8577" stroke="black" stroke-width="0.1" stroke-linecap="round" stroke-linejoin="round"/>
<path d="M16.332 7.73047V10.8561V7.73047Z" fill="#FFD83D"/>
<path d="M16.332 7.73047V10.8561" stroke="black" stroke-width="0.1" stroke-linecap="round" stroke-linejoin="round"/>
<path d="M16.6719 7.73047V10.8561V7.73047Z" fill="#FFD83D"/>
<path d="M16.6719 7.73047V10.8561" stroke="black" stroke-width="0.1" stroke-linecap="round" stroke-linejoin="round"/>
<path d="M17.0118 7.76103V10.8867V7.76103Z" fill="#FFD83D"/>
<path d="M17.0118 7.76103V10.8867" stroke="black" stroke-width="0.1" stroke-linecap="round" stroke-linejoin="round"/>
<path d="M17.3514 7.79173V10.9174V7.79173Z" fill="#FFD83D"/>
<path d="M17.3514 7.79173V10.9174" stroke="black" stroke-width="0.1" stroke-linecap="round" stroke-linejoin="round"/>
<path d="M17.6914 7.99072V11.1164V7.99072Z" fill="#FFD83D"/>
<path d="M17.6914 7.99072V11.1164" stroke="black" stroke-width="0.1" stroke-linecap="round" stroke-linejoin="round"/>
<path d="M18.0312 8.02148V11.5454V8.02148Z" fill="#FFD83D"/>
<path d="M18.0312 8.02148V11.5454" stroke="black" stroke-width="0.1" stroke-linecap="round" stroke-linejoin="round"/>
<path d="M18.3711 8.02148V11.1472V8.02148Z" fill="#FFD83D"/>
<path d="M18.3711 8.02148V11.1472" stroke="black" stroke-width="0.1" stroke-linecap="round" stroke-linejoin="round"/>
<path d="M18.709 8.02148V11.1472V8.02148Z" fill="#FFD83D"/>
<path d="M18.709 8.02148V11.1472" stroke="black" stroke-width="0.1" stroke-linecap="round" stroke-linejoin="round"/>
<path d="M16.7644 7.86104C17.482 7.9794 19.0581 8.71685 18.8784 9.71459C18.6236 11.1285 17.7979 10.5611 16.7031 10.358L15.8759 10.6337C15.5799 10.9358 15.1441 11.2126 14.8496 10.8482H14.3594V12.763H19.7822V8.13677L16.7644 7.86104Z" fill="black" stroke="black" stroke-width="0.1" stroke-linecap="round" stroke-linejoin="round"/>
<path d="M19.1928 7.86117C19.3746 7.86117 19.5221 7.71371 19.5221 7.53182C19.5221 7.34992 19.3746 7.20247 19.1928 7.20247C19.0109 7.20247 18.8634 7.34992 18.8634 7.53182C18.8634 7.71371 19.0109 7.86117 19.1928 7.86117Z" fill="#FFD83D" stroke="black" stroke-width="0.133333" stroke-linecap="round" stroke-linejoin="round"/>
<path d="M18.4525 7.68302C18.6344 7.68302 18.7819 7.53557 18.7819 7.35367C18.7819 7.17178 18.6344 7.02432 18.4525 7.02432C18.2706 7.02432 18.1232 7.17178 18.1232 7.35367C18.1232 7.53557 18.2706 7.68302 18.4525 7.68302Z" fill="#FFD83D" stroke="black" stroke-width="0.133333" stroke-linecap="round" stroke-linejoin="round"/>
<path d="M17.7024 7.49464C17.8843 7.49464 18.0317 7.34718 18.0317 7.16529C18.0317 6.98339 17.8843 6.83594 17.7024 6.83594C17.5205 6.83594 17.373 6.98339 17.373 7.16529C17.373 7.34718 17.5205 7.49464 17.7024 7.49464Z" fill="#FFD83D" stroke="black" stroke-width="0.133333" stroke-linecap="round" stroke-linejoin="round"/>
<path d="M16.9485 7.36866C17.1304 7.36866 17.2778 7.22121 17.2778 7.03931C17.2778 6.85742 17.1304 6.70996 16.9485 6.70996C16.7666 6.70996 16.6191 6.85742 16.6191 7.03931C16.6191 7.22121 16.7666 7.36866 16.9485 7.36866Z" fill="#FFD83D" stroke="black" stroke-width="0.133333" stroke-linecap="round" stroke-linejoin="round"/>
<path d="M16.1946 7.29444C16.3765 7.29444 16.5239 7.14699 16.5239 6.96509C16.5239 6.7832 16.3765 6.63574 16.1946 6.63574C16.0127 6.63574 15.8652 6.7832 15.8652 6.96509C15.8652 7.14699 16.0127 7.29444 16.1946 7.29444Z" fill="#FFD83D" stroke="black" stroke-width="0.133333" stroke-linecap="round" stroke-linejoin="round"/>
<path d="M15.4544 7.33644C15.6362 7.33644 15.7837 7.18898 15.7837 7.00709C15.7837 6.82519 15.6362 6.67773 15.4544 6.67773C15.2725 6.67773 15.125 6.82519 15.125 7.00709C15.125 7.18898 15.2725 7.33644 15.4544 7.33644Z" fill="#FFD83D" stroke="black" stroke-width="0.133333" stroke-linecap="round" stroke-linejoin="round"/>
<path d="M14.7512 7.57765C14.9331 7.57765 15.0806 7.43019 15.0806 7.2483C15.0806 7.0664 14.9331 6.91895 14.7512 6.91895C14.5693 6.91895 14.4219 7.0664 14.4219 7.2483C14.4219 7.43019 14.5693 7.57765 14.7512 7.57765Z" fill="#FFD83D" stroke="black" stroke-width="0.133333" stroke-linecap="round" stroke-linejoin="round"/>
<path d="M14.1575 8.01466C14.3394 8.01466 14.4868 7.8672 14.4868 7.68531C14.4868 7.50341 14.3394 7.35596 14.1575 7.35596C13.9756 7.35596 13.8281 7.50341 13.8281 7.68531C13.8281 7.8672 13.9756 8.01466 14.1575 8.01466Z" fill="#FFD83D" stroke="black" stroke-width="0.133333" stroke-linecap="round" stroke-linejoin="round"/>
<path d="M13.7356 8.62354C13.9175 8.62354 14.065 8.47609 14.065 8.29419C14.065 8.1123 13.9175 7.96484 13.7356 7.96484C13.5537 7.96484 13.4062 8.1123 13.4062 8.29419C13.4062 8.47609 13.5537 8.62354 13.7356 8.62354Z" fill="#FFD83D" stroke="black" stroke-width="0.133333" stroke-linecap="round" stroke-linejoin="round"/>
<path d="M13.5325 9.33955C13.7144 9.33955 13.8618 9.19209 13.8618 9.0102C13.8618 8.8283 13.7144 8.68085 13.5325 8.68085C13.3506 8.68085 13.2031 8.8283 13.2031 9.0102C13.2031 9.19209 13.3506 9.33955 13.5325 9.33955Z" fill="#FFD83D" stroke="black" stroke-width="0.133333" stroke-linecap="round" stroke-linejoin="round"/>
<path d="M13.5403 10.0825C13.7222 10.0825 13.8696 9.93507 13.8696 9.75318C13.8696 9.57128 13.7222 9.42383 13.5403 9.42383C13.3584 9.42383 13.2109 9.57128 13.2109 9.75318C13.2109 9.93507 13.3584 10.0825 13.5403 10.0825Z" fill="#FFD83D" stroke="black" stroke-width="0.133333" stroke-linecap="round" stroke-linejoin="round"/>
<path d="M13.6809 10.8101C13.8628 10.8101 14.0103 10.6626 14.0103 10.4807C14.0103 10.2988 13.8628 10.1514 13.6809 10.1514C13.499 10.1514 13.3516 10.2988 13.3516 10.4807C13.3516 10.6626 13.499 10.8101 13.6809 10.8101Z" fill="#FFD83D" stroke="black" stroke-width="0.133333" stroke-linecap="round" stroke-linejoin="round"/>
<path d="M19.3388 7.9687L19.3082 8.39762C18.4888 8.27208 17.3272 7.81552 16.2444 7.81552C15.244 7.81552 14.4675 8.2157 14.4675 9.22483C14.4675 10.2194 14.8887 11.1238 15.4479 12.0435L14.8658 12.3192C14.3456 11.308 13.916 10.4491 13.916 9.2861C13.916 8.3128 14.6816 7.35596 15.9993 7.35596C17.1673 7.35596 18.3587 7.74953 19.3388 7.9687Z" fill="#FFD83D" stroke="black" stroke-width="0.133333" stroke-linecap="round" stroke-linejoin="round"/>
<path d="M20.1744 8.1523L20.2969 12.319H24.5249C25.045 11.3077 25.4746 10.4489 25.4746 9.28587C25.4746 8.31257 24.7091 7.53955 23.6057 7.53955C22.4378 7.53955 21.1545 7.93312 20.1744 8.1523Z" fill="#FFD83D"/>
<path d="M24.9706 8.34334V10.7484V8.34334Z" fill="#FFD83D"/>
<path d="M24.9706 8.34334V10.7484" stroke="black" stroke-width="0.1" stroke-linecap="round" stroke-linejoin="round"/>
<path d="M24.6307 8.09822V11.3005V8.09822Z" fill="#FFD83D"/>
<path d="M24.6307 8.09822V11.3005" stroke="black" stroke-width="0.1" stroke-linecap="round" stroke-linejoin="round"/>
<path d="M24.2909 7.92976V11.7448V7.92976Z" fill="#FFD83D"/>
<path d="M24.2909 7.92976V11.7448" stroke="black" stroke-width="0.1" stroke-linecap="round" stroke-linejoin="round"/>
<path d="M23.951 7.85066V10.8427V7.85066Z" fill="#FFD83D"/>
<path d="M23.951 7.85066V10.8427" stroke="black" stroke-width="0.1" stroke-linecap="round" stroke-linejoin="round"/>
<path d="M23.6132 7.83601V10.8578V7.83601Z" fill="#FFD83D"/>
<path d="M23.6132 7.83601V10.8578" stroke="black" stroke-width="0.1" stroke-linecap="round" stroke-linejoin="round"/>
<path d="M23.2733 7.73055V10.8562V7.73055Z" fill="#FFD83D"/>
<path d="M23.2733 7.73055V10.8562" stroke="black" stroke-width="0.1" stroke-linecap="round" stroke-linejoin="round"/>
<path d="M22.9335 7.73055V10.8562V7.73055Z" fill="#FFD83D"/>
<path d="M22.9335 7.73055V10.8562" stroke="black" stroke-width="0.1" stroke-linecap="round" stroke-linejoin="round"/>
<path d="M22.5935 7.76111V10.8868V7.76111Z" fill="#FFD83D"/>
<path d="M22.5935 7.76111V10.8868" stroke="black" stroke-width="0.1" stroke-linecap="round" stroke-linejoin="round"/>
<path d="M22.2539 7.79181V10.9175V7.79181Z" fill="#FFD83D"/>
<path d="M22.2539 7.79181V10.9175" stroke="black" stroke-width="0.1" stroke-linecap="round" stroke-linejoin="round"/>
<path d="M21.9139 7.9908V11.1165V7.9908Z" fill="#FFD83D"/>
<path d="M21.9139 7.9908V11.1165" stroke="black" stroke-width="0.1" stroke-linecap="round" stroke-linejoin="round"/>
<path d="M21.5741 8.02156V11.5455V8.02156Z" fill="#FFD83D"/>
<path d="M21.5741 8.02156V11.5455" stroke="black" stroke-width="0.1" stroke-linecap="round" stroke-linejoin="round"/>
<path d="M21.2343 8.02156V11.1472V8.02156Z" fill="#FFD83D"/>
<path d="M21.2343 8.02156V11.1472" stroke="black" stroke-width="0.1" stroke-linecap="round" stroke-linejoin="round"/>
<path d="M20.8964 8.02156V11.1472V8.02156Z" fill="#FFD83D"/>
<path d="M20.8964 8.02156V11.1472" stroke="black" stroke-width="0.1" stroke-linecap="round" stroke-linejoin="round"/>
<path d="M22.8409 7.86111C22.1234 7.97948 20.5472 8.71692 20.727 9.71467C20.9817 11.1286 21.8075 10.5612 22.9022 10.3581L23.7294 10.6338C24.0254 10.9359 24.4613 11.2127 24.7558 10.8482H25.246V12.7631H19.8232V8.13685L22.8409 7.86111Z" fill="black" stroke="black" stroke-width="0.1" stroke-linecap="round" stroke-linejoin="round"/>
<path d="M20.4127 7.86117C20.2308 7.86117 20.0834 7.71371 20.0834 7.53182C20.0834 7.34992 20.2308 7.20247 20.4127 7.20247C20.5946 7.20247 20.7421 7.34992 20.7421 7.53182C20.7421 7.71371 20.5946 7.86117 20.4127 7.86117Z" fill="#FFD83D" stroke="black" stroke-width="0.133333" stroke-linecap="round" stroke-linejoin="round"/>
<path d="M21.1529 7.68302C20.9711 7.68302 20.8236 7.53557 20.8236 7.35367C20.8236 7.17178 20.9711 7.02432 21.1529 7.02432C21.3348 7.02432 21.4823 7.17178 21.4823 7.35367C21.4823 7.53557 21.3348 7.68302 21.1529 7.68302Z" fill="#FFD83D" stroke="black" stroke-width="0.133333" stroke-linecap="round" stroke-linejoin="round"/>
<path d="M21.9031 7.49464C21.7212 7.49464 21.5737 7.34718 21.5737 7.16529C21.5737 6.98339 21.7212 6.83594 21.9031 6.83594C22.085 6.83594 22.2324 6.98339 22.2324 7.16529C22.2324 7.34718 22.085 7.49464 21.9031 7.49464Z" fill="#FFD83D" stroke="black" stroke-width="0.133333" stroke-linecap="round" stroke-linejoin="round"/>
<path d="M22.657 7.36866C22.4751 7.36866 22.3276 7.22121 22.3276 7.03931C22.3276 6.85742 22.4751 6.70996 22.657 6.70996C22.8389 6.70996 22.9863 6.85742 22.9863 7.03931C22.9863 7.22121 22.8389 7.36866 22.657 7.36866Z" fill="#FFD83D" stroke="black" stroke-width="0.133333" stroke-linecap="round" stroke-linejoin="round"/>
<path d="M23.4109 7.29444C23.229 7.29444 23.0815 7.14699 23.0815 6.96509C23.0815 6.7832 23.229 6.63574 23.4109 6.63574C23.5928 6.63574 23.7402 6.7832 23.7402 6.96509C23.7402 7.14699 23.5928 7.29444 23.4109 7.29444Z" fill="#FFD83D" stroke="black" stroke-width="0.133333" stroke-linecap="round" stroke-linejoin="round"/>
<path d="M24.1511 7.33644C23.9692 7.33644 23.8218 7.18898 23.8218 7.00709C23.8218 6.82519 23.9692 6.67773 24.1511 6.67773C24.333 6.67773 24.4805 6.82519 24.4805 7.00709C24.4805 7.18898 24.333 7.33644 24.1511 7.33644Z" fill="#FFD83D" stroke="black" stroke-width="0.133333" stroke-linecap="round" stroke-linejoin="round"/>
<path d="M24.8542 7.57765C24.6723 7.57765 24.5249 7.43019 24.5249 7.2483C24.5249 7.0664 24.6723 6.91895 24.8542 6.91895C25.0361 6.91895 25.1836 7.0664 25.1836 7.2483C25.1836 7.43019 25.0361 7.57765 24.8542 7.57765Z" fill="#FFD83D" stroke="black" stroke-width="0.133333" stroke-linecap="round" stroke-linejoin="round"/>
<path d="M25.448 8.01466C25.2661 8.01466 25.1186 7.8672 25.1186 7.68531C25.1186 7.50341 25.2661 7.35596 25.448 7.35596C25.6299 7.35596 25.7773 7.50341 25.7773 7.68531C25.7773 7.8672 25.6299 8.01466 25.448 8.01466Z" fill="#FFD83D" stroke="black" stroke-width="0.133333" stroke-linecap="round" stroke-linejoin="round"/>
<path d="M25.8699 8.62354C25.688 8.62354 25.5405 8.47609 25.5405 8.29419C25.5405 8.1123 25.688 7.96484 25.8699 7.96484C26.0518 7.96484 26.1992 8.1123 26.1992 8.29419C26.1992 8.47609 26.0518 8.62354 25.8699 8.62354Z" fill="#FFD83D" stroke="black" stroke-width="0.133333" stroke-linecap="round" stroke-linejoin="round"/>
<path d="M26.073 9.33955C25.8911 9.33955 25.7436 9.19209 25.7436 9.0102C25.7436 8.8283 25.8911 8.68085 26.073 8.68085C26.2549 8.68085 26.4023 8.8283 26.4023 9.0102C26.4023 9.19209 26.2549 9.33955 26.073 9.33955Z" fill="#FFD83D" stroke="black" stroke-width="0.133333" stroke-linecap="round" stroke-linejoin="round"/>
<path d="M26.0652 10.0825C25.8833 10.0825 25.7358 9.93507 25.7358 9.75318C25.7358 9.57128 25.8833 9.42383 26.0652 9.42383C26.2471 9.42383 26.3945 9.57128 26.3945 9.75318C26.3945 9.93507 26.2471 10.0825 26.0652 10.0825Z" fill="#FFD83D" stroke="black" stroke-width="0.133333" stroke-linecap="round" stroke-linejoin="round"/>
<path d="M25.9246 10.8101C25.7427 10.8101 25.5952 10.6626 25.5952 10.4807C25.5952 10.2988 25.7427 10.1514 25.9246 10.1514C26.1065 10.1514 26.2539 10.2988 26.2539 10.4807C26.2539 10.6626 26.1065 10.8101 25.9246 10.8101Z" fill="#FFD83D" stroke="black" stroke-width="0.133333" stroke-linecap="round" stroke-linejoin="round"/>
<path d="M20.2667 7.9687L20.2973 8.39762C21.1167 8.27208 22.2783 7.81552 23.361 7.81552C24.3614 7.81552 25.138 8.2157 25.138 9.22483C25.138 10.2194 24.7168 11.1238 24.1576 12.0435L24.7397 12.3192C25.2599 11.308 25.6895 10.4491 25.6895 9.2861C25.6895 8.3128 24.9239 7.35596 23.6061 7.35596C22.4381 7.35596 21.2468 7.74953 20.2667 7.9687Z" fill="#FFD83D" stroke="black" stroke-width="0.133333" stroke-linecap="round" stroke-linejoin="round"/>
<path d="M19.8008 3.5415L19.457 4.18525L19.8008 4.82692L20.1445 4.18525L19.8008 3.5415ZM19.8008 5.1665L19.457 5.80817L19.8008 6.45192L20.1445 5.80817L19.8008 5.1665Z" fill="#FFD83D" stroke="black" stroke-width="0.133333" stroke-linecap="round" stroke-linejoin="round"/>
<path d="M18.5762 4.99658L19.1183 5.34033L19.6586 4.99658L19.1183 4.65283L18.5762 4.99658ZM19.9446 4.99658L20.4849 5.34033L21.027 4.99658L20.4849 4.65283L19.9446 4.99658Z" fill="#FFD83D" stroke="black" stroke-width="0.133333" stroke-linecap="round" stroke-linejoin="round"/>
<path d="M19.8014 5.26497C19.9453 5.26497 20.0618 5.14838 20.0618 5.00456C20.0618 4.86073 19.9453 4.74414 19.8014 4.74414C19.6576 4.74414 19.541 4.86073 19.541 5.00456C19.541 5.14838 19.6576 5.26497 19.8014 5.26497Z" fill="#FFD83D" stroke="black" stroke-width="0.133333" stroke-linecap="round" stroke-linejoin="round"/>
<path d="M19.8005 7.36372C20.1855 7.36372 20.4975 7.05167 20.4975 6.66672C20.4975 6.28178 20.1855 5.96973 19.8005 5.96973C19.4156 5.96973 19.1035 6.28178 19.1035 6.66672C19.1035 7.05167 19.4156 7.36372 19.8005 7.36372Z" fill="#FFD83D" stroke="black" stroke-width="0.133333" stroke-linecap="round" stroke-linejoin="round"/>
<path d="M19.625 5.9917C19.625 6.19933 19.6235 6.31998 19.6229 6.43337C19.4549 6.44082 19.2892 6.45848 19.1271 6.48545M20.4729 6.48545C20.3108 6.45848 20.1451 6.44082 19.9771 6.43337C19.9771 6.32014 19.9771 6.19984 19.9771 5.9917M19.125 6.83753C19.3446 6.80084 19.5699 6.78128 19.8 6.78128C20.0301 6.78128 20.2554 6.80084 20.475 6.83753" stroke="black" stroke-width="0.1" stroke-linecap="round" stroke-linejoin="round"/>
<path d="M19.1203 7.8457C19.0542 8.98452 18.9197 10.1443 18.4766 10.9874L19.1974 10.6957C19.4492 9.74045 19.5021 8.5062 19.5786 7.92279L19.1203 7.8457ZM20.4828 7.8457L20.0245 7.92279C20.1011 8.5062 20.154 9.74045 20.4057 10.6957L21.1266 10.9874C20.6834 10.1443 20.5489 8.98452 20.4828 7.8457Z" fill="#FFD83D" stroke="black" stroke-width="0.133333" stroke-linecap="round" stroke-linejoin="round"/>
<path d="M19.8 10.3124C18.9391 10.3124 18.3067 10.7182 18.2687 11.752C18.0583 11.3817 17.1681 10.2169 16.3375 10.3728C15.8435 10.4655 15.407 11.1505 15.4812 11.9353C15.0723 10.76 13.8741 10.5674 13 11.2624C13.7761 11.9006 14.1214 13.7847 14.775 14.602H19.8H24.825C25.4786 13.7847 25.8259 11.9006 26.6021 11.2624C25.728 10.5674 24.5298 10.76 24.1208 11.9353C24.1951 11.1505 23.7565 10.4655 23.2625 10.3728C22.4319 10.2169 21.5438 11.3817 21.3333 11.752C21.2954 10.7182 20.6609 10.3124 19.8 10.3124Z" fill="#FFD83D" stroke="black" stroke-width="0.133333" stroke-linecap="round" stroke-linejoin="round"/>
<path d="M24.8094 14.6015C24.8094 14.9735 22.5653 15.3827 19.8002 15.3827C17.0351 15.3827 14.791 14.9735 14.791 14.6015C14.791 14.2294 17.0351 14.0347 19.8002 14.0347C22.5653 14.0347 24.8094 14.2294 24.8094 14.6015Z" fill="black" stroke="black" stroke-width="0.1" stroke-linecap="round" stroke-linejoin="round"/>
<path d="M19.802 7.86321C19.931 7.86321 20.0356 7.75862 20.0356 7.62961C20.0356 7.50059 19.931 7.396 19.802 7.396C19.6729 7.396 19.5684 7.50059 19.5684 7.62961C19.5684 7.75862 19.6729 7.86321 19.802 7.86321Z" fill="#FFD83D" stroke="black" stroke-width="0.1" stroke-linecap="round" stroke-linejoin="round"/>
<path d="M19.8017 8.38409C19.9391 8.38409 20.0506 8.27264 20.0506 8.13516C20.0506 7.99768 19.9391 7.88623 19.8017 7.88623C19.6642 7.88623 19.5527 7.99768 19.5527 8.13516C19.5527 8.27264 19.6642 8.38409 19.8017 8.38409Z" fill="#FFD83D" stroke="black" stroke-width="0.1" stroke-linecap="round" stroke-linejoin="round"/>
<path d="M19.8012 8.95104C19.9514 8.95104 20.0731 8.8293 20.0731 8.67913C20.0731 8.52896 19.9514 8.40723 19.8012 8.40723C19.651 8.40723 19.5293 8.52896 19.5293 8.67913C19.5293 8.8293 19.651 8.95104 19.8012 8.95104Z" fill="#FFD83D" stroke="black" stroke-width="0.1" stroke-linecap="round" stroke-linejoin="round"/>
<path d="M19.8004 9.59404C19.9718 9.59404 20.1106 9.45515 20.1106 9.28383C20.1106 9.11252 19.9718 8.97363 19.8004 8.97363C19.6291 8.97363 19.4902 9.11252 19.4902 9.28383C19.4902 9.45515 19.6291 9.59404 19.8004 9.59404Z" fill="#FFD83D" stroke="black" stroke-width="0.1" stroke-linecap="round" stroke-linejoin="round"/>
<path d="M19.8018 10.2989C19.99 10.2989 20.1426 10.1463 20.1426 9.95803C20.1426 9.76979 19.99 9.61719 19.8018 9.61719C19.6135 9.61719 19.4609 9.76979 19.4609 9.95803C19.4609 10.1463 19.6135 10.2989 19.8018 10.2989Z" fill="#FFD83D" stroke="black" stroke-width="0.1" stroke-linecap="round" stroke-linejoin="round"/>
<path d="M19.6656 10.6136C19.6287 10.6132 19.5938 10.6442 19.6031 10.7032C19.6139 10.7728 19.6275 10.9029 19.6406 10.9907C19.6553 11.0903 19.7133 11.0661 19.7281 10.9886C19.7428 10.9112 19.7369 10.8616 19.7406 10.7178C19.7424 10.6459 19.7024 10.6141 19.6656 10.6136ZM19.9364 10.6136C19.8995 10.6141 19.8596 10.6459 19.8614 10.7178C19.8651 10.8616 19.8591 10.9112 19.8739 10.9886C19.8887 11.0661 19.9467 11.0903 19.9614 10.9907C19.9744 10.9029 19.988 10.7728 19.9989 10.7032C20.0081 10.6442 19.9733 10.6132 19.9364 10.6136ZM19.4239 10.6511C19.3902 10.6558 19.3552 10.6898 19.3572 10.7261C19.3609 10.7925 19.3793 10.8721 19.3864 10.972C19.3938 11.0752 19.4665 11.0351 19.4739 10.9761C19.4813 10.9171 19.4896 10.83 19.4822 10.7157C19.4795 10.6728 19.4608 10.654 19.4385 10.6511C19.4338 10.6505 19.4287 10.6505 19.4239 10.6511ZM20.1635 10.6511C20.1412 10.654 20.1225 10.6728 20.1197 10.7157C20.1124 10.83 20.1207 10.9171 20.1281 10.9761C20.1355 11.0351 20.2082 11.0752 20.2156 10.972C20.2227 10.8721 20.2411 10.7925 20.2447 10.7261C20.2468 10.6898 20.2118 10.6558 20.1781 10.6511C20.1732 10.6505 20.1681 10.6505 20.1635 10.6511ZM19.1343 10.7678C19.1034 10.7758 19.0751 10.8129 19.0843 10.8553C19.1027 10.9401 19.1197 11.0338 19.1197 11.1199C19.1197 11.1936 19.1827 11.1673 19.1864 11.1157C19.1901 11.0641 19.1968 10.9548 19.1968 10.8553C19.1968 10.781 19.1652 10.7598 19.1343 10.7678ZM20.4468 10.7678C20.4249 10.7739 20.4052 10.7996 20.4052 10.8553C20.4052 10.9548 20.4119 11.0641 20.4156 11.1157C20.4193 11.1673 20.4822 11.1936 20.4822 11.1199C20.4822 11.0338 20.4992 10.9401 20.5177 10.8553C20.5269 10.8129 20.4985 10.7758 20.4677 10.7678C20.4599 10.7658 20.4541 10.7658 20.4468 10.7678ZM16.5072 10.7792C16.4703 10.778 16.4444 10.8281 16.4697 10.8834C16.5103 10.9718 16.5533 11.0277 16.5947 11.1229C16.6316 11.2077 16.6882 11.1549 16.6697 11.0959C16.6513 11.0369 16.6313 10.9712 16.576 10.8459C16.5552 10.7988 16.5294 10.7799 16.5072 10.7792ZM23.0947 10.7792C23.0726 10.7799 23.0467 10.7988 23.026 10.8459C22.9707 10.9712 22.9507 11.0369 22.9322 11.0959C22.9138 11.1549 22.9704 11.2077 23.0072 11.1229C23.0486 11.0277 23.0917 10.9718 23.1322 10.8834C23.1576 10.8281 23.1317 10.778 23.0947 10.7792ZM16.7739 10.7834C16.7467 10.7917 16.7302 10.8261 16.7468 10.8667C16.78 10.9478 16.8279 11.0309 16.8614 11.1188C16.8909 11.1962 16.9565 11.1742 16.9343 11.1042C16.9122 11.0342 16.9056 10.9932 16.8614 10.8604C16.8393 10.7941 16.8011 10.7751 16.7739 10.7834ZM22.8072 10.7834C22.784 10.7883 22.7572 10.8107 22.7406 10.8604C22.6963 10.9932 22.6898 11.0342 22.6677 11.1042C22.6455 11.1742 22.7111 11.1962 22.7406 11.1188C22.774 11.0309 22.8219 10.9478 22.8552 10.8667C22.8717 10.8261 22.8553 10.7917 22.8281 10.7834C22.8213 10.7813 22.815 10.7817 22.8072 10.7834ZM17.1072 10.8479C17.073 10.8545 17.0464 10.9068 17.0697 10.9709C17.0992 11.052 17.1412 11.1287 17.1781 11.2209C17.2149 11.313 17.2762 11.2944 17.2614 11.2354C17.2466 11.1765 17.2286 11.0787 17.1843 10.9313C17.165 10.8668 17.1339 10.8429 17.1072 10.8479ZM22.4947 10.8479C22.4681 10.8429 22.437 10.8668 22.4177 10.9313C22.3734 11.0787 22.3553 11.1765 22.3406 11.2354C22.3258 11.2944 22.387 11.313 22.4239 11.2209C22.4608 11.1287 22.5027 11.052 22.5322 10.9709C22.5556 10.9068 22.529 10.8545 22.4947 10.8479ZM16.2822 10.8938C16.2451 10.8976 16.2113 10.9581 16.2343 11.0042C16.2712 11.0779 16.2946 11.103 16.3302 11.1813C16.367 11.2624 16.4074 11.1996 16.3927 11.1479C16.3779 11.0963 16.359 11.0362 16.3406 10.9625C16.3271 10.9085 16.3045 10.8915 16.2822 10.8938ZM23.3197 10.8938C23.2975 10.8915 23.2749 10.9085 23.2614 10.9625C23.243 11.0362 23.2241 11.0963 23.2093 11.1479C23.1946 11.1996 23.2349 11.2624 23.2718 11.1813C23.3074 11.103 23.3308 11.0779 23.3677 11.0042C23.3907 10.9581 23.3569 10.8976 23.3197 10.8938ZM18.851 11.0803C18.8121 11.0803 18.7705 11.1319 18.7843 11.1803C18.8064 11.2577 18.8406 11.3264 18.8656 11.4261C18.8877 11.5146 18.9505 11.4705 18.9468 11.4115C18.9431 11.3526 18.933 11.2723 18.9072 11.147C18.8976 11.1 18.8743 11.0803 18.851 11.0803ZM20.751 11.0803C20.7276 11.0803 20.7044 11.1 20.6947 11.147C20.669 11.2723 20.6588 11.3526 20.6552 11.4115C20.6515 11.4705 20.7143 11.5146 20.7364 11.4261C20.7614 11.3264 20.7955 11.2577 20.8177 11.1803C20.8315 11.1319 20.7899 11.0803 20.751 11.0803ZM19.801 11.1595C19.753 11.1595 19.7464 11.2238 19.7447 11.2761C19.7392 11.4475 19.6681 11.614 19.6072 11.697C19.5464 11.7799 19.4569 11.7579 19.3739 11.7136C19.2909 11.6694 19.2415 11.6362 19.1531 11.5699C19.0646 11.5035 18.9975 11.5423 19.1031 11.6928C19.4109 12.1315 19.7447 12.5064 19.7447 13.222C19.7447 13.3145 19.7609 13.3428 19.801 13.3428C19.8411 13.3428 19.8593 13.3145 19.8593 13.222C19.8593 12.5064 20.1911 12.1315 20.4989 11.6928C20.6045 11.5423 20.5374 11.5035 20.4489 11.5699C20.3604 11.6362 20.311 11.6694 20.2281 11.7136C20.1451 11.7579 20.0556 11.7799 19.9947 11.697C19.9339 11.614 19.8627 11.4475 19.8572 11.2761C19.8556 11.2238 19.8489 11.1595 19.801 11.1595ZM17.4489 11.0521C17.4447 11.052 17.4401 11.053 17.4364 11.0542C17.4185 11.0598 17.4066 11.0814 17.4135 11.1188C17.4258 11.1856 17.4721 11.3165 17.4906 11.3792C17.509 11.4419 17.5861 11.4285 17.5677 11.3438C17.5492 11.259 17.5502 11.2334 17.5281 11.1375C17.516 11.0851 17.4783 11.0529 17.4489 11.0521ZM22.1531 11.0521C22.1237 11.0529 22.086 11.0851 22.0739 11.1375C22.0518 11.2334 22.0528 11.259 22.0343 11.3438C22.0159 11.4285 22.093 11.4419 22.1114 11.3792C22.1298 11.3165 22.1761 11.1856 22.1885 11.1188C22.1954 11.0814 22.1835 11.0598 22.1656 11.0542C22.1618 11.053 22.1573 11.052 22.1531 11.0521ZM16.051 11.0792C16.0124 11.0822 15.9847 11.1307 16.0239 11.2021C16.0662 11.2792 16.1386 11.376 16.1718 11.4313C16.205 11.4866 16.2624 11.4493 16.2218 11.3792C16.1813 11.3092 16.1677 11.2287 16.1197 11.1292C16.1018 11.0919 16.0741 11.0774 16.051 11.0792ZM23.551 11.0792C23.5278 11.0774 23.5002 11.0919 23.4822 11.1292C23.4343 11.2287 23.4207 11.3092 23.3802 11.3792C23.3396 11.4493 23.397 11.4866 23.4302 11.4313C23.4633 11.376 23.5358 11.2792 23.5781 11.2021C23.6172 11.1307 23.5896 11.0822 23.551 11.0792ZM13.9385 11.3011C13.894 11.2988 13.88 11.3791 13.9218 11.4324C13.9827 11.5098 14.025 11.5508 14.0947 11.6136C14.15 11.6634 14.1661 11.5988 14.1385 11.549C14.1108 11.4993 14.0709 11.4487 14.0156 11.3657C13.9853 11.3202 13.9587 11.3022 13.9385 11.3011ZM25.6635 11.3011C25.6432 11.3022 25.6167 11.3202 25.5864 11.3657C25.5311 11.4487 25.4911 11.4993 25.4635 11.549C25.4358 11.5988 25.4519 11.6634 25.5072 11.6136C25.577 11.5508 25.6193 11.5098 25.6802 11.4324C25.722 11.3791 25.708 11.2988 25.6635 11.3011ZM14.2739 11.3678C14.2384 11.3683 14.215 11.3945 14.2427 11.4553C14.2822 11.5424 14.3345 11.641 14.3677 11.7074C14.4008 11.7737 14.5019 11.796 14.4614 11.6928C14.4208 11.5896 14.4129 11.5366 14.376 11.4407C14.3576 11.3928 14.3094 11.3673 14.2739 11.3678ZM25.3281 11.3678C25.2926 11.3673 25.2444 11.3928 25.226 11.4407C25.1891 11.5366 25.1811 11.5896 25.1406 11.6928C25.1 11.796 25.2011 11.7737 25.2343 11.7074C25.2675 11.641 25.3197 11.5424 25.3593 11.4553C25.387 11.3945 25.3636 11.3683 25.3281 11.3678ZM13.6239 11.3907C13.5723 11.3912 13.5679 11.443 13.6135 11.4761C13.6743 11.5204 13.7468 11.5694 13.8177 11.6261C13.9006 11.6925 13.9327 11.6314 13.8885 11.5761C13.8443 11.5208 13.8012 11.4648 13.6906 11.4095C13.6629 11.3956 13.6411 11.3905 13.6239 11.3907ZM25.9781 11.3907C25.9609 11.3905 25.9391 11.3956 25.9114 11.4095C25.8008 11.4648 25.7577 11.5208 25.7135 11.5761C25.6693 11.6314 25.7014 11.6925 25.7843 11.6261C25.8551 11.5694 25.9276 11.5204 25.9885 11.4761C26.0341 11.443 26.0297 11.3912 25.9781 11.3907ZM18.6677 11.4386C18.6388 11.4427 18.6139 11.4754 18.626 11.5178C18.6481 11.5952 18.6732 11.6772 18.6885 11.7574C18.7032 11.8348 18.7928 11.8357 18.7781 11.7657C18.7633 11.6957 18.7559 11.608 18.7302 11.5011C18.7205 11.461 18.7003 11.4418 18.6802 11.4386C18.676 11.438 18.6718 11.438 18.6677 11.4386ZM20.9218 11.4386C20.9017 11.4418 20.8815 11.461 20.8718 11.5011C20.846 11.608 20.8386 11.6957 20.8239 11.7657C20.8091 11.8357 20.8987 11.8348 20.9135 11.7574C20.9288 11.6772 20.9539 11.5952 20.976 11.5178C20.9881 11.4754 20.9632 11.4427 20.9343 11.4386C20.9302 11.438 20.926 11.438 20.9218 11.4386ZM16.6614 11.3063C16.6387 11.3125 16.6257 11.3559 16.6427 11.4167C16.7367 11.754 16.7655 11.9316 16.7489 12.0146C16.7323 12.0975 16.6868 12.1089 16.626 12.0813C16.5652 12.0536 16.4938 12.0137 16.4385 11.975C16.3832 11.9363 16.3257 11.9826 16.4052 12.0479C16.8088 12.3797 17.0886 12.7589 17.1968 13.2188C17.2189 13.3128 17.278 13.3238 17.2614 13.2188C17.1699 12.6395 17.1523 12.1632 17.2906 11.8646C17.3425 11.7524 17.2902 11.6446 17.2072 11.8271C17.1519 11.9488 17.0625 11.9968 16.9906 11.8917C16.9187 11.7866 16.7702 11.5064 16.726 11.3792C16.7094 11.3315 16.6889 11.3094 16.6718 11.3063C16.6683 11.3056 16.6646 11.3054 16.6614 11.3063ZM22.9302 11.3063C22.913 11.3094 22.8926 11.3315 22.876 11.3792C22.8318 11.5064 22.6833 11.7866 22.6114 11.8917C22.5395 11.9968 22.45 11.9488 22.3947 11.8271C22.3118 11.6446 22.2594 11.7524 22.3114 11.8646C22.4496 12.1632 22.4321 12.6395 22.3406 13.2188C22.324 13.3238 22.383 13.3128 22.4052 13.2188C22.5134 12.7589 22.7932 12.3797 23.1968 12.0479C23.2763 11.9826 23.2188 11.9363 23.1635 11.975C23.1082 12.0137 23.0368 12.0536 22.976 12.0813C22.9152 12.1089 22.8697 12.0975 22.8531 12.0146C22.8365 11.9316 22.8653 11.754 22.9593 11.4167C22.9763 11.3559 22.9632 11.3125 22.9406 11.3063C22.9373 11.3054 22.9337 11.3056 22.9302 11.3063ZM14.6322 11.4678C14.5958 11.4683 14.5656 11.4938 14.5822 11.549C14.6088 11.6376 14.6638 11.7333 14.6822 11.7886C14.7007 11.8439 14.76 11.8181 14.7489 11.7407C14.7378 11.6633 14.7324 11.6172 14.7177 11.5324C14.7103 11.49 14.6686 11.4673 14.6322 11.4678ZM24.9697 11.4678C24.9333 11.4673 24.8917 11.49 24.8843 11.5324C24.8696 11.6172 24.8641 11.6633 24.8531 11.7407C24.842 11.8181 24.9013 11.8439 24.9197 11.7886C24.9382 11.7333 24.9931 11.6376 25.0197 11.549C25.0363 11.4938 25.0061 11.4683 24.9697 11.4678ZM15.8843 11.3521C15.842 11.3445 15.8359 11.4537 15.8718 11.4979C15.9197 11.557 15.9863 11.6283 16.0531 11.7084C16.1084 11.7747 16.1425 11.7157 16.1093 11.6604C16.0761 11.6051 16.0269 11.5464 15.9385 11.4063C15.9164 11.3713 15.8984 11.3546 15.8843 11.3521ZM23.7177 11.3521C23.7035 11.3546 23.6856 11.3713 23.6635 11.4063C23.575 11.5464 23.5258 11.6051 23.4927 11.6604C23.4595 11.7157 23.4936 11.7747 23.5489 11.7084C23.6157 11.6283 23.6822 11.557 23.7302 11.4979C23.7661 11.4537 23.76 11.3445 23.7177 11.3521ZM14.9177 11.6157C14.8914 11.6139 14.8691 11.6352 14.8802 11.6886C14.8956 11.7631 14.918 11.8248 14.9364 11.8949C14.9548 11.9649 15.0031 11.9529 15.0031 11.8865C15.0031 11.8202 14.9912 11.7462 14.9802 11.6761C14.9746 11.6411 14.9439 11.6176 14.9177 11.6157ZM24.6843 11.6157C24.658 11.6176 24.6273 11.6411 24.6218 11.6761C24.6108 11.7462 24.5989 11.8202 24.5989 11.8865C24.5989 11.9529 24.6471 11.9649 24.6656 11.8949C24.684 11.8248 24.7064 11.7631 24.7218 11.6886C24.7329 11.6352 24.7106 11.6139 24.6843 11.6157ZM15.7906 11.7104C15.7493 11.7167 15.713 11.7566 15.7614 11.8188C15.8388 11.9183 15.9236 11.9882 15.9531 12.025C15.9825 12.0619 16.0572 12.0483 16.0093 11.9709C15.9603 11.8918 15.8862 11.7965 15.8531 11.7375C15.8406 11.7154 15.8153 11.7067 15.7906 11.7104ZM23.7947 11.7104C23.7766 11.7123 23.7582 11.7209 23.7489 11.7375C23.7157 11.7965 23.6416 11.8918 23.5927 11.9709C23.5447 12.0483 23.6194 12.0619 23.6489 12.025C23.6784 11.9882 23.7632 11.9183 23.8406 11.8188C23.889 11.7566 23.8527 11.7167 23.8114 11.7104C23.8052 11.7095 23.8008 11.7098 23.7947 11.7104ZM14.4135 11.9886C14.3809 11.9857 14.3697 12.0119 14.4135 12.072C14.513 12.2083 14.6228 12.4147 14.6302 12.5032C14.6375 12.5917 14.5938 12.5907 14.5531 12.5907C14.4314 12.5907 14.372 12.5019 14.2614 12.4761C14.1508 12.4503 14.1347 12.5085 14.2135 12.5657C14.619 12.8606 15.0254 13.1897 15.1885 13.4886C15.2548 13.6103 15.3445 13.6548 15.2947 13.5386C15.1423 13.1828 15.1053 12.8815 15.1385 12.699C15.1717 12.5166 15.2169 12.3937 15.2114 12.2886C15.2059 12.1836 15.1463 12.1907 15.1218 12.2886C15.1052 12.355 15.0731 12.4429 15.051 12.4761C15.0289 12.5093 14.9399 12.5279 14.8552 12.4136C14.7704 12.2994 14.5564 12.0793 14.4864 12.024C14.4601 12.0033 14.433 11.9904 14.4135 11.9886ZM25.1885 11.9886C25.169 11.9904 25.1418 12.0033 25.1156 12.024C25.0455 12.0793 24.8316 12.2994 24.7468 12.4136C24.662 12.5279 24.5731 12.5093 24.551 12.4761C24.5289 12.4429 24.4967 12.355 24.4802 12.2886C24.4557 12.1907 24.3961 12.1836 24.3906 12.2886C24.385 12.3937 24.4303 12.5166 24.4635 12.699C24.4967 12.8815 24.4597 13.1828 24.3072 13.5386C24.2574 13.6548 24.3471 13.6103 24.4135 13.4886C24.5766 13.1897 24.983 12.8606 25.3885 12.5657C25.4672 12.5085 25.4512 12.4503 25.3406 12.4761C25.23 12.5019 25.1706 12.5907 25.0489 12.5907C25.0082 12.5907 24.9644 12.5917 24.9718 12.5032C24.9792 12.4147 25.089 12.2083 25.1885 12.072C25.2323 12.0119 25.221 11.9857 25.1885 11.9886Z" fill="black"/>
<path d="M15.0116 14.1767L15.1416 14.5883L15.0116 14.1767ZM15.279 14.0987L15.3941 14.5147L15.279 14.0987ZM15.5678 14.0512L15.6469 14.4755L15.5678 14.0512ZM15.8358 13.9976L15.9205 14.4208L15.8358 13.9976ZM16.1795 13.9636L16.2484 14.3898L16.1795 13.9636ZM16.5451 13.9641L16.6193 14.3893L16.5451 13.9641ZM16.9021 13.8434L16.9556 14.2717L16.9021 13.8434ZM17.2378 13.8651L17.2914 14.2934L17.2378 13.8651ZM17.5628 13.8217L17.6164 14.25L17.5628 13.8217ZM17.889 13.7881L17.9185 14.2187L17.889 13.7881ZM18.2376 13.7879L18.2631 14.2188L18.2376 13.7879ZM18.5536 13.7662L18.5754 14.1973L18.5536 13.7662ZM18.902 13.7444L18.9201 14.1757L18.902 13.7444ZM19.3028 13.7336L19.3209 14.1649L19.3028 13.7336ZM24.5905 14.1767L24.4605 14.5883L24.5905 14.1767ZM24.3231 14.0987L24.208 14.5147L24.3231 14.0987ZM24.0343 14.0512L23.9552 14.4755L24.0343 14.0512ZM23.7663 13.9976L23.6816 14.4208L23.7663 13.9976ZM23.4226 13.9636L23.3537 14.3898L23.4226 13.9636ZM23.057 13.9641L22.9828 14.3893L23.057 13.9641ZM22.7001 13.8434L22.6465 14.2717L22.7001 13.8434ZM22.3643 13.8651L22.3107 14.2934L22.3643 13.8651ZM22.0393 13.8217L21.9857 14.25L22.0393 13.8217ZM21.7131 13.7881L21.6837 14.2187L21.7131 13.7881ZM21.3646 13.7879L21.339 14.2188L21.3646 13.7879ZM21.0485 13.7662L21.0268 14.1973L21.0485 13.7662ZM20.7001 13.7444L20.682 14.1757L20.7001 13.7444ZM20.2993 13.7336L20.2812 14.1649L20.2993 13.7336ZM19.8011 13.7055V14.1804V13.7055Z" fill="#FFD83D"/>
<path d="M15.0116 14.1767L15.1416 14.5883M15.279 14.0987L15.3941 14.5147M15.5678 14.0512L15.6469 14.4755M15.8358 13.9976L15.9205 14.4208M16.1795 13.9636L16.2484 14.3898M16.5451 13.9641L16.6193 14.3893M16.9021 13.8434L16.9556 14.2717M17.2379 13.8651L17.2914 14.2934M17.5628 13.8217L17.6164 14.25M17.889 13.7881L17.9185 14.2187M18.2376 13.7879L18.2631 14.2188M18.5536 13.7662L18.5754 14.1973M18.902 13.7444L18.9201 14.1757M19.3028 13.7336L19.3209 14.1649M24.5905 14.1767L24.4605 14.5883M24.3231 14.0987L24.208 14.5147M24.0343 14.0512L23.9552 14.4755M23.7663 13.9976L23.6816 14.4208M23.4226 13.9636L23.3537 14.3898M23.057 13.9641L22.9828 14.3893M22.7001 13.8434L22.6465 14.2717M22.3643 13.8651L22.3107 14.2934M22.0393 13.8217L21.9857 14.25M21.7131 13.7881L21.6837 14.2187M21.3646 13.7879L21.339 14.2188M21.0485 13.7662L21.0268 14.1973M20.7001 13.7444L20.682 14.1757M20.2993 13.7336L20.2812 14.1649M19.8011 13.7055V14.1804" stroke="black" stroke-width="0.1" stroke-linecap="round" stroke-linejoin="round"/>
</g>
<defs>
<clipPath id="clip0_1_2514">
<rect width="40" height="40" rx="20" fill="white"/>
</clipPath>
</defs>
</svg>
