<svg width="40" height="40" viewBox="0 0 40 40" fill="none" xmlns="http://www.w3.org/2000/svg">
<g clip-path="url(#clip0_1_6715)">
<path d="M-10 0H50V40H-10V0Z" fill="#0F7562"/>
<mask id="mask0_1_6715" style="mask-type:luminance" maskUnits="userSpaceOnUse" x="15" y="22" width="10" height="9">
<path d="M15.3359 22H24.6693V30.3333H15.3359V22Z" fill="white"/>
</mask>
<g mask="url(#mask0_1_6715)">
<path d="M15.6471 28.6146C19.3808 28.6146 22.4076 25.5878 22.4076 21.8542C22.4076 18.1205 19.3808 15.0938 15.6471 15.0938C11.9135 15.0938 8.88672 18.1205 8.88672 21.8542C8.88672 25.5878 11.9135 28.6146 15.6471 28.6146Z" fill="white"/>
<path d="M24.3542 28.6146C28.0878 28.6146 31.1146 25.5878 31.1146 21.8542C31.1146 18.1205 28.0878 15.0938 24.3542 15.0938C20.6205 15.0938 17.5938 18.1205 17.5938 21.8542C17.5938 25.5878 20.6205 28.6146 24.3542 28.6146Z" fill="white"/>
</g>
<path d="M24.6667 27.9476C28.4003 27.9476 31.4271 24.9208 31.4271 21.1872C31.4271 17.4535 28.4003 14.4268 24.6667 14.4268C20.933 14.4268 17.9062 17.4535 17.9062 21.1872C17.9062 24.9208 20.933 27.9476 24.6667 27.9476Z" fill="#0F7562"/>
<path d="M15.3346 27.9476C19.0683 27.9476 22.0951 24.9208 22.0951 21.1872C22.0951 17.4535 19.0683 14.4268 15.3346 14.4268C11.601 14.4268 8.57422 17.4535 8.57422 21.1872C8.57422 24.9208 11.601 27.9476 15.3346 27.9476Z" fill="#0F7562"/>
<mask id="mask1_1_6715" style="mask-type:luminance" maskUnits="userSpaceOnUse" x="8" y="9" width="24" height="25">
<path d="M20 33.208C26.6274 33.208 32 27.8354 32 21.208C32 14.5806 26.6274 9.20801 20 9.20801C13.3726 9.20801 8 14.5806 8 21.208C8 27.8354 13.3726 33.208 20 33.208Z" fill="white"/>
</mask>
<g mask="url(#mask1_1_6715)">
<path d="M9.58374 27.9476H15.6462V28.6142H9.58374V27.9476ZM9.58374 29.3017H30.4171V29.6351H9.58374V29.3017ZM9.58374 30.3226H30.4171V30.8434H9.58374V30.3226ZM9.58374 31.3642H30.4171V32.0309H9.58374V31.3642ZM9.58374 32.3642H30.4171V33.4059H9.58374V32.3642ZM30.4171 27.9476H24.3546V28.6142H30.4171V27.9476Z" fill="white"/>
</g>
<mask id="mask2_1_6715" style="mask-type:luminance" maskUnits="userSpaceOnUse" x="9" y="12" width="15" height="14">
<path d="M16.7096 25.6561C20.4433 25.6561 23.4701 22.6293 23.4701 18.8957C23.4701 15.162 20.4433 12.1353 16.7096 12.1353C12.976 12.1353 9.94922 15.162 9.94922 18.8957C9.94922 22.6293 12.976 25.6561 16.7096 25.6561Z" fill="white"/>
</mask>
<g mask="url(#mask2_1_6715)">
<path d="M23.2917 25.6561C27.0253 25.6561 30.0521 22.6293 30.0521 18.8957C30.0521 15.162 27.0253 12.1353 23.2917 12.1353C19.558 12.1353 16.5312 15.162 16.5312 18.8957C16.5312 22.6293 19.558 25.6561 23.2917 25.6561Z" fill="white"/>
</g>
<mask id="mask3_1_6715" style="mask-type:luminance" maskUnits="userSpaceOnUse" x="9" y="12" width="14" height="15">
<path d="M15.8542 26.3021C19.5878 26.3021 22.6146 23.2753 22.6146 19.5417C22.6146 15.808 19.5878 12.7812 15.8542 12.7812C12.1205 12.7812 9.09375 15.808 9.09375 19.5417C9.09375 23.2753 12.1205 26.3021 15.8542 26.3021Z" fill="white"/>
</mask>
<g mask="url(#mask3_1_6715)">
<path d="M24.1471 26.3021C27.8808 26.3021 30.9076 23.2753 30.9076 19.5417C30.9076 15.808 27.8808 12.7812 24.1471 12.7812C20.4135 12.7812 17.3867 15.808 17.3867 19.5417C17.3867 23.2753 20.4135 26.3021 24.1471 26.3021Z" fill="#0F7562"/>
</g>
<path d="M19.9993 17.4997C21.4951 17.4997 22.7077 16.2871 22.7077 14.7913C22.7077 13.2956 21.4951 12.083 19.9993 12.083C18.5036 12.083 17.291 13.2956 17.291 14.7913C17.291 16.2871 18.5036 17.4997 19.9993 17.4997Z" fill="#0F7562"/>
<mask id="mask4_1_6715" style="mask-type:luminance" maskUnits="userSpaceOnUse" x="8" y="13" width="15" height="14">
<path d="M15.5846 26.6766C19.3183 26.6766 22.3451 23.6499 22.3451 19.9162C22.3451 16.1825 19.3183 13.1558 15.5846 13.1558C11.851 13.1558 8.82422 16.1825 8.82422 19.9162C8.82422 23.6499 11.851 26.6766 15.5846 26.6766Z" fill="white"/>
</mask>
<g mask="url(#mask4_1_6715)">
<path d="M24.4167 26.6766C28.1503 26.6766 31.1771 23.6499 31.1771 19.9162C31.1771 16.1825 28.1503 13.1558 24.4167 13.1558C20.683 13.1558 17.6562 16.1825 17.6562 19.9162C17.6562 23.6499 20.683 26.6766 24.4167 26.6766Z" fill="white"/>
</g>
<mask id="mask5_1_6715" style="mask-type:luminance" maskUnits="userSpaceOnUse" x="8" y="13" width="14" height="15">
<path d="M15.1237 27.4271C18.8574 27.4271 21.8841 24.4003 21.8841 20.6667C21.8841 16.933 18.8574 13.9062 15.1237 13.9062C11.39 13.9062 8.36328 16.933 8.36328 20.6667C8.36328 24.4003 11.39 27.4271 15.1237 27.4271Z" fill="white"/>
</mask>
<g mask="url(#mask5_1_6715)">
<path d="M12.1042 36.3436C16.4937 36.3436 20.0521 32.7852 20.0521 28.3957C20.0521 24.0062 16.4937 20.4478 12.1042 20.4478C7.71465 20.4478 4.15625 24.0062 4.15625 28.3957C4.15625 32.7852 7.71465 36.3436 12.1042 36.3436Z" fill="white"/>
</g>
<mask id="mask6_1_6715" style="mask-type:luminance" maskUnits="userSpaceOnUse" x="8" y="13" width="15" height="14">
<path d="M15.5614 26.8642C19.2951 26.8642 22.3219 23.8375 22.3219 20.1038C22.3219 16.3702 19.2951 13.3434 15.5614 13.3434C11.8278 13.3434 8.80103 16.3702 8.80103 20.1038C8.80103 23.8375 11.8278 26.8642 15.5614 26.8642Z" fill="white"/>
</mask>
<g mask="url(#mask6_1_6715)">
<path d="M12.29 37.0937C16.6795 37.0937 20.2379 33.5353 20.2379 29.1458C20.2379 24.7563 16.6795 21.1979 12.29 21.1979C7.90044 21.1979 4.34204 24.7563 4.34204 29.1458C4.34204 33.5353 7.90044 37.0937 12.29 37.0937Z" fill="#0F7562"/>
</g>
<path d="M9.89583 25.1455C11.3916 25.1455 12.6042 23.933 12.6042 22.4372C12.6042 20.9414 11.3916 19.7289 9.89583 19.7289C8.40006 19.7289 7.1875 20.9414 7.1875 22.4372C7.1875 23.933 8.40006 25.1455 9.89583 25.1455Z" fill="#0F7562"/>
<mask id="mask7_1_6715" style="mask-type:luminance" maskUnits="userSpaceOnUse" x="8" y="13" width="14" height="15">
<path d="M15.1237 27.4271C18.8574 27.4271 21.8841 24.4003 21.8841 20.6667C21.8841 16.933 18.8574 13.9062 15.1237 13.9062C11.39 13.9062 8.36328 16.933 8.36328 20.6667C8.36328 24.4003 11.39 27.4271 15.1237 27.4271Z" fill="white"/>
</mask>
<g mask="url(#mask7_1_6715)">
<mask id="mask8_1_6715" style="mask-type:luminance" maskUnits="userSpaceOnUse" x="9" y="13" width="14" height="14">
<path d="M16.2096 26.7606C19.9433 26.7606 22.9701 23.7338 22.9701 20.0002C22.9701 16.2665 19.9433 13.2397 16.2096 13.2397C12.476 13.2397 9.44922 16.2665 9.44922 20.0002C9.44922 23.7338 12.476 26.7606 16.2096 26.7606Z" fill="white"/>
</mask>
<g mask="url(#mask8_1_6715)">
<path d="M12.9382 37.6981C17.3277 37.6981 20.8861 34.1397 20.8861 29.7502C20.8861 25.3607 17.3277 21.8023 12.9382 21.8023C8.54864 21.8023 4.99023 25.3607 4.99023 29.7502C4.99023 34.1397 8.54864 37.6981 12.9382 37.6981Z" fill="white"/>
</g>
<path d="M17.916 23.0415L19.166 24.0832H20.2077V26.1665H18.9577L17.916 23.0415Z" fill="white"/>
</g>
<path d="M20.0002 22L19.9938 22.0198L20.0037 22.023L20.0002 22Z" fill="#FFDE23"/>
<path d="M20.0002 22L20.0067 22.0198L19.9968 22.023L20.0002 22Z" fill="#FFDE23"/>
<path d="M20.0022 21.9995H19.9814V22.0099L20.0022 21.9995Z" fill="#FFDE23"/>
<path d="M20.0022 21.9995L19.9853 22.0118L19.9792 22.0033L20.0022 21.9995Z" fill="#FFDE23"/>
<path d="M20 21.9996L20.0169 21.9873L20.0107 21.9789L20 21.9996Z" fill="#FFDE23"/>
<path d="M20 21.9996L20.0064 21.9798L20.0163 21.983L20 21.9996Z" fill="#FFDE23"/>
<path d="M20 22.0004L19.9936 21.9806L19.9837 21.9838L20 22.0004Z" fill="#FFDE23"/>
<path d="M20 22.0004L19.9831 21.9882L19.9893 21.9798L20 22.0004Z" fill="#FFDE23"/>
<path d="M20.012 22.0014L20.0288 22.0137L20.0349 22.0053L20.012 22.0014Z" fill="#FFDE23"/>
<path d="M20.012 22.0014H20.0328V22.0119L20.012 22.0014Z" fill="#FFDE23"/>
<path d="M20.0002 22L19.9938 22.0198L20.0037 22.023L20.0002 22Z" fill="#FFDE23"/>
<path d="M20.0002 22L20.0067 22.0198L19.9968 22.023L20.0002 22Z" fill="#FFDE23"/>
<path d="M20.0022 21.9995H19.9814V22.0099L20.0022 21.9995Z" fill="#FFDE23"/>
<path d="M20.0022 21.9995L19.9853 22.0118L19.9792 22.0033L20.0022 21.9995Z" fill="#FFDE23"/>
<path d="M20 21.9996L20.0169 21.9873L20.0107 21.9789L20 21.9996Z" fill="#FFDE23"/>
<path d="M20 21.9996L20.0064 21.9798L20.0163 21.983L20 21.9996Z" fill="#FFDE23"/>
<path d="M20 22.0004L19.9936 21.9806L19.9837 21.9838L20 22.0004Z" fill="#FFDE23"/>
<path d="M20 22.0004L19.9831 21.9882L19.9893 21.9798L20 22.0004Z" fill="#FFDE23"/>
<path d="M20.012 22.0014L20.0288 22.0137L20.0349 22.0053L20.012 22.0014Z" fill="#FFDE23"/>
<path d="M20.012 22.0014H20.0328V22.0119L20.012 22.0014Z" fill="#FFDE23"/>
<mask id="mask9_1_6715" style="mask-type:luminance" maskUnits="userSpaceOnUse" x="18" y="13" width="14" height="15">
<path d="M24.8763 27.4271C21.1426 27.4271 18.1159 24.4003 18.1159 20.6667C18.1159 16.933 21.1426 13.9062 24.8763 13.9062C28.61 13.9062 31.6367 16.933 31.6367 20.6667C31.6367 24.4003 28.61 27.4271 24.8763 27.4271Z" fill="white"/>
</mask>
<g mask="url(#mask9_1_6715)">
<path d="M27.8958 36.3436C23.5063 36.3436 19.9479 32.7852 19.9479 28.3957C19.9479 24.0062 23.5063 20.4478 27.8958 20.4478C32.2853 20.4478 35.8438 24.0062 35.8438 28.3957C35.8438 32.7852 32.2853 36.3436 27.8958 36.3436Z" fill="white"/>
</g>
<mask id="mask10_1_6715" style="mask-type:luminance" maskUnits="userSpaceOnUse" x="17" y="13" width="15" height="14">
<path d="M24.4386 26.8642C20.7049 26.8642 17.6781 23.8375 17.6781 20.1038C17.6781 16.3702 20.7049 13.3434 24.4386 13.3434C28.1722 13.3434 31.199 16.3702 31.199 20.1038C31.199 23.8375 28.1722 26.8642 24.4386 26.8642Z" fill="white"/>
</mask>
<g mask="url(#mask10_1_6715)">
<path d="M27.71 37.0937C23.3205 37.0937 19.7621 33.5353 19.7621 29.1458C19.7621 24.7563 23.3205 21.1979 27.71 21.1979C32.0996 21.1979 35.658 24.7563 35.658 29.1458C35.658 33.5353 32.0996 37.0937 27.71 37.0937Z" fill="#0F7562"/>
</g>
<path d="M30.1042 25.1455C28.6084 25.1455 27.3958 23.933 27.3958 22.4372C27.3958 20.9414 28.6084 19.7289 30.1042 19.7289C31.5999 19.7289 32.8125 20.9414 32.8125 22.4372C32.8125 23.933 31.5999 25.1455 30.1042 25.1455Z" fill="#0F7562"/>
<mask id="mask11_1_6715" style="mask-type:luminance" maskUnits="userSpaceOnUse" x="18" y="13" width="14" height="15">
<path d="M24.8763 27.4271C21.1426 27.4271 18.1159 24.4003 18.1159 20.6667C18.1159 16.933 21.1426 13.9062 24.8763 13.9062C28.61 13.9062 31.6367 16.933 31.6367 20.6667C31.6367 24.4003 28.61 27.4271 24.8763 27.4271Z" fill="white"/>
</mask>
<g mask="url(#mask11_1_6715)">
<mask id="mask12_1_6715" style="mask-type:luminance" maskUnits="userSpaceOnUse" x="17" y="13" width="14" height="14">
<path d="M23.7904 26.7606C20.0567 26.7606 17.0299 23.7338 17.0299 20.0002C17.0299 16.2665 20.0567 13.2397 23.7904 13.2397C27.524 13.2397 30.5508 16.2665 30.5508 20.0002C30.5508 23.7338 27.524 26.7606 23.7904 26.7606Z" fill="white"/>
</mask>
<g mask="url(#mask12_1_6715)">
<path d="M27.0618 37.6981C22.6723 37.6981 19.1139 34.1397 19.1139 29.7502C19.1139 25.3607 22.6723 21.8023 27.0618 21.8023C31.4514 21.8023 35.0098 25.3607 35.0098 29.7502C35.0098 34.1397 31.4514 37.6981 27.0618 37.6981Z" fill="white"/>
</g>
<path d="M22.084 23.0415L20.834 24.0832H19.7923V26.1665H21.0423L22.084 23.0415Z" fill="white"/>
</g>
<path d="M19.9998 22L20.0062 22.0198L19.9963 22.023L19.9998 22Z" fill="#FFDE23"/>
<path d="M19.9998 22L19.9933 22.0198L20.0032 22.023L19.9998 22Z" fill="#FFDE23"/>
<path d="M19.9978 21.9995H20.0186V22.0099L19.9978 21.9995Z" fill="#FFDE23"/>
<path d="M19.9978 21.9995L20.0147 22.0118L20.0208 22.0033L19.9978 21.9995Z" fill="#FFDE23"/>
<path d="M20 21.9996L19.9831 21.9873L19.9893 21.9789L20 21.9996Z" fill="#FFDE23"/>
<path d="M20 21.9996L19.9936 21.9798L19.9837 21.983L20 21.9996Z" fill="#FFDE23"/>
<path d="M20 22.0004L20.0064 21.9806L20.0163 21.9838L20 22.0004Z" fill="#FFDE23"/>
<path d="M20 22.0004L20.0169 21.9882L20.0107 21.9798L20 22.0004Z" fill="#FFDE23"/>
<path d="M19.988 22.0014L19.9712 22.0137L19.9651 22.0053L19.988 22.0014Z" fill="#FFDE23"/>
<path d="M19.988 22.0014H19.9672V22.0119L19.988 22.0014Z" fill="#FFDE23"/>
<path d="M19.9998 22L20.0062 22.0198L19.9963 22.023L19.9998 22Z" fill="#FFDE23"/>
<path d="M19.9998 22L19.9933 22.0198L20.0032 22.023L19.9998 22Z" fill="#FFDE23"/>
<path d="M19.9978 21.9995H20.0186V22.0099L19.9978 21.9995Z" fill="#FFDE23"/>
<path d="M19.9978 21.9995L20.0147 22.0118L20.0208 22.0033L19.9978 21.9995Z" fill="#FFDE23"/>
<path d="M20 21.9996L19.9831 21.9873L19.9893 21.9789L20 21.9996Z" fill="#FFDE23"/>
<path d="M20 21.9996L19.9936 21.9798L19.9837 21.983L20 21.9996Z" fill="#FFDE23"/>
<path d="M20 22.0004L20.0064 21.9806L20.0163 21.9838L20 22.0004Z" fill="#FFDE23"/>
<path d="M20 22.0004L20.0169 21.9882L20.0107 21.9798L20 22.0004Z" fill="#FFDE23"/>
<path d="M19.988 22.0014L19.9712 22.0137L19.9651 22.0053L19.988 22.0014Z" fill="#FFDE23"/>
<path d="M19.988 22.0014H19.9672V22.0119L19.988 22.0014Z" fill="#FFDE23"/>
<path d="M20 7L21.8541 13L17 9.2918H23L18.1459 13L20 7Z" fill="#FFDE23"/>
<path d="M7.40782 15.7765L11.0935 17.7221L7.07548 18.2598L9.89112 15.4442L9.35338 19.4623L7.40782 15.7765Z" fill="#FFDE23"/>
<path d="M31.8551 15.4078L29.9095 19.0935L29.3718 15.0755L32.1874 17.8911L28.1694 17.3534L31.8551 15.4078Z" fill="#FFDE23"/>
<path d="M11.4078 10.7768L15.0935 12.7223L11.0755 13.26L13.8911 10.4444L13.3534 14.4625L11.4078 10.7768Z" fill="#FFDE23"/>
<path d="M28.8551 10.4078L26.9095 14.0935L26.3718 10.0755L29.1874 12.8911L25.1694 12.3534L28.8551 10.4078Z" fill="#FFDE23"/>
</g>
<defs>
<clipPath id="clip0_1_6715">
<rect width="40" height="40" rx="20" fill="white"/>
</clipPath>
</defs>
</svg>
