<svg width="40" height="40" viewBox="0 0 40 40" fill="none" xmlns="http://www.w3.org/2000/svg">
<g clip-path="url(#clip0_1_16026)">
<path d="M-10 0H50V40H-10V0Z" fill="black"/>
<path d="M19.8918 21.918C23.7337 21.918 26.8481 18.8036 26.8481 14.9617C26.8481 11.1199 23.7337 8.00543 19.8918 8.00543C16.05 8.00543 12.9355 11.1199 12.9355 14.9617C12.9355 18.8036 16.05 21.918 19.8918 21.918Z" fill="#CE1126"/>
<path d="M19.888 3.96246C19.6543 3.96246 19.5645 4.31297 19.5645 4.66348C19.5645 5.5083 19.6679 5.94996 19.888 7.19794C20.1081 5.94996 20.2115 5.5083 20.2115 4.66348C20.2115 4.31297 20.1217 3.96246 19.888 3.96246Z" fill="#CE1126"/>
<path d="M20.8477 4.00433C20.6149 3.98397 20.4948 4.32531 20.4643 4.67449C20.3907 5.51609 20.4553 5.96509 20.5657 7.2275C20.8937 6.00345 21.0353 5.57249 21.1089 4.73089C21.1395 4.38171 21.0805 4.0247 20.8477 4.00433Z" fill="#CE1126"/>
<path d="M21.7991 4.129C21.569 4.08842 21.4196 4.418 21.3587 4.76319C21.212 5.59517 21.2373 6.04809 21.2373 7.31532C21.6707 6.12452 21.8493 5.70754 21.996 4.87555C22.0569 4.53037 22.0292 4.16958 21.7991 4.129Z" fill="#CE1126"/>
<path d="M22.7364 4.33673C22.5106 4.27625 22.3331 4.59156 22.2424 4.93012C22.0237 5.74616 22.0094 6.19956 21.8989 7.46196C22.4345 6.31346 22.6488 5.91364 22.8674 5.0976C22.9582 4.75904 22.9621 4.39721 22.7364 4.33673Z" fill="#CE1126"/>
<path d="M23.6517 4.62488C23.4321 4.54496 23.2278 4.84359 23.1079 5.17296C22.8189 5.96684 22.7651 6.41726 22.5451 7.66524C23.1787 6.56778 23.427 6.18815 23.716 5.39428C23.8358 5.06491 23.8713 4.7048 23.6517 4.62488Z" fill="#CE1126"/>
<path d="M24.5374 4.99227C24.3256 4.89351 24.096 5.1732 23.9479 5.49087C23.5908 6.25654 23.498 6.70056 23.17 7.92461C23.8969 6.88655 24.1773 6.53001 24.5343 5.76434C24.6825 5.44667 24.7492 5.09102 24.5374 4.99227Z" fill="#CE1126"/>
<path d="M25.3896 5.43527C25.1872 5.31844 24.9341 5.57705 24.7589 5.8806C24.3365 6.61223 24.2053 7.04647 23.7718 8.23728C24.5864 7.26652 24.8969 6.93578 25.3193 6.20415C25.4945 5.9006 25.5919 5.55211 25.3896 5.43527Z" fill="#CE1126"/>
<path d="M26.1986 5.95078C26.0072 5.81675 25.7325 6.05232 25.5315 6.33944C25.0469 7.03148 24.8784 7.45263 24.3428 8.60113C25.2389 7.70506 25.577 7.40263 26.0616 6.7106C26.2626 6.42348 26.39 6.08481 26.1986 5.95078Z" fill="#CE1126"/>
<path d="M26.9607 6.53469C26.7817 6.38449 26.4876 6.59523 26.2623 6.86373C25.7192 7.5109 25.5146 7.91576 24.881 9.01321C25.8518 8.19865 26.2149 7.92685 26.758 7.27968C26.9833 7.01117 27.1397 6.6849 26.9607 6.53469Z" fill="#CE1126"/>
<path d="M27.6685 7.18307C27.5032 7.01784 27.1918 7.20213 26.944 7.44998C26.3466 8.04736 26.1075 8.43284 25.3807 9.4709C26.4187 8.74404 26.8042 8.50492 27.4016 7.90755C27.6494 7.6597 27.8337 7.3483 27.6685 7.18307Z" fill="#CE1126"/>
<path d="M28.3154 7.89098C28.1652 7.71198 27.8389 7.86843 27.5704 8.09373C26.9232 8.63677 26.6514 8.99995 25.8369 9.9707C26.9343 9.33709 27.3392 9.13248 27.9864 8.58944C28.2549 8.36413 28.4656 8.06998 28.3154 7.89098Z" fill="#CE1126"/>
<path d="M28.9004 8.6523C28.7664 8.46089 28.4277 8.58831 28.1406 8.78936C27.4486 9.27393 27.1461 9.61203 26.2501 10.5081C27.3986 9.97254 27.8197 9.80399 28.5118 9.31943C28.7989 9.11838 29.0345 8.84372 28.9004 8.6523Z" fill="#CE1126"/>
<path d="M29.4137 9.46141C29.2969 9.25905 28.9484 9.35647 28.6449 9.53172C27.9132 9.95413 27.5825 10.2646 26.6117 11.0792C27.8025 10.6457 28.2368 10.5145 28.9684 10.0921C29.272 9.91687 29.5306 9.66378 29.4137 9.46141Z" fill="#CE1126"/>
<path d="M29.8555 10.3128C29.7567 10.101 29.4011 10.1677 29.0834 10.3159C28.3177 10.6729 27.9612 10.9533 26.9231 11.6802C28.1472 11.3522 28.5912 11.2594 29.3569 10.9023C29.6746 10.7542 29.9542 10.5246 29.8555 10.3128Z" fill="#CE1126"/>
<path d="M30.2259 11.1991C30.146 10.9795 29.7859 11.015 29.4565 11.1348C28.6626 11.4238 28.283 11.6721 27.1855 12.3057C28.4335 12.0857 28.8839 12.0319 29.6778 11.7429C30.0072 11.623 30.3058 11.4187 30.2259 11.1991Z" fill="#CE1126"/>
<path d="M30.5154 12.1143C30.4549 11.8886 30.0931 11.8925 29.7545 11.9833C28.9385 12.2019 28.5386 12.4162 27.3901 12.9517C28.6526 12.8413 29.106 12.827 29.922 12.6083C30.2606 12.5176 30.5759 12.3401 30.5154 12.1143Z" fill="#CE1126"/>
<path d="M9.05618 13.0511C9.01561 13.2812 9.34519 13.4306 9.69037 13.4914C10.5224 13.6381 10.9753 13.6129 12.2425 13.6129C11.0517 13.1795 10.6347 13.0009 9.80274 12.8542C9.45755 12.7933 9.09676 12.8209 9.05618 13.0511Z" fill="#CE1126"/>
<path d="M9.26343 12.1138C9.20295 12.3395 9.51825 12.517 9.85682 12.6078C10.6729 12.8264 11.1263 12.8408 12.3887 12.9512C11.2402 12.4157 10.8403 12.2014 10.0243 11.9827C9.68573 11.892 9.32391 11.8881 9.26343 12.1138Z" fill="#CE1126"/>
<path d="M9.55402 11.199C9.4741 11.4186 9.77273 11.6229 10.1021 11.7428C10.896 12.0318 11.3464 12.0856 12.5944 12.3056C11.4969 11.672 11.1173 11.4237 10.3234 11.1347C9.99405 11.0149 9.63394 10.9794 9.55402 11.199Z" fill="#CE1126"/>
<path d="M9.92189 10.3119C9.82314 10.5236 10.1028 10.7532 10.4205 10.9014C11.1862 11.2584 11.6302 11.3513 12.8542 11.6792C11.8162 10.9524 11.4596 10.6719 10.694 10.3149C10.3763 10.1668 10.0206 10.1001 9.92189 10.3119Z" fill="#CE1126"/>
<path d="M10.3629 9.46058C10.2461 9.66295 10.5047 9.91604 10.8083 10.0913C11.5399 10.5137 11.9741 10.6449 13.165 11.0783C12.1942 10.2638 11.8635 9.9533 11.1318 9.53089C10.8283 9.35564 10.4798 9.25822 10.3629 9.46058Z" fill="#CE1126"/>
<path d="M10.8789 8.65104C10.7449 8.84246 10.9805 9.11712 11.2676 9.31817C11.9596 9.80273 12.3808 9.97128 13.5293 10.5068C12.6332 9.61077 12.3308 9.27266 11.6388 8.7881C11.3516 8.58705 11.013 8.45963 10.8789 8.65104Z" fill="#CE1126"/>
<path d="M11.4638 7.88997C11.3136 8.06897 11.5244 8.36312 11.7929 8.58842C12.44 9.13146 12.8449 9.33608 13.9424 9.96969C13.1278 8.99894 12.856 8.63576 12.2088 8.09272C11.9403 7.86742 11.614 7.71096 11.4638 7.88997Z" fill="#CE1126"/>
<path d="M12.1116 7.18247C11.9464 7.3477 12.1307 7.6591 12.3785 7.90695C12.9759 8.50433 13.3614 8.74345 14.3994 9.4703C13.6726 8.43225 13.4335 8.04676 12.8361 7.44939C12.5882 7.20154 12.2768 7.01724 12.1116 7.18247Z" fill="#CE1126"/>
<path d="M12.8182 6.53403C12.6392 6.68423 12.7956 7.01051 13.0209 7.27902C13.564 7.92619 13.9271 8.19799 14.8979 9.01255C14.2643 7.9151 14.0597 7.51024 13.5166 6.86307C13.2913 6.59457 12.9972 6.38383 12.8182 6.53403Z" fill="#CE1126"/>
<path d="M13.5795 5.9498C13.3881 6.08383 13.5155 6.4225 13.7165 6.70962C14.2011 7.40165 14.5392 7.70408 15.4353 8.60015C14.8997 7.45165 14.7312 7.03049 14.2466 6.33846C14.0456 6.05134 13.7709 5.81577 13.5795 5.9498Z" fill="#CE1126"/>
<path d="M14.3896 5.43423C14.1872 5.55107 14.2846 5.89956 14.4599 6.20311C14.8823 6.93474 15.1928 7.26549 16.0073 8.23624C15.5739 7.04544 15.4427 6.6112 15.0203 5.87956C14.845 5.57601 14.5919 5.3174 14.3896 5.43423Z" fill="#CE1126"/>
<path d="M15.2425 4.99052C15.0307 5.08928 15.0974 5.44493 15.2455 5.7626C15.6025 6.52826 15.883 6.88481 16.6098 7.92286C16.2818 6.69881 16.189 6.25479 15.832 5.48912C15.6838 5.17145 15.4542 4.89177 15.2425 4.99052Z" fill="#CE1126"/>
<path d="M16.1243 4.62451C15.9048 4.70443 15.9402 5.06454 16.0601 5.39391C16.349 6.18778 16.5973 6.56741 17.2309 7.66486C17.0109 6.41689 16.9571 5.96646 16.6681 5.17259C16.5483 4.84322 16.3439 4.54459 16.1243 4.62451Z" fill="#CE1126"/>
<path d="M17.0391 4.336C16.8134 4.39648 16.8173 4.75831 16.908 5.09687C17.1267 5.9129 17.3409 6.31273 17.8765 7.46123C17.766 6.19882 17.7517 5.74542 17.533 4.92939C17.4423 4.59082 17.2648 4.27552 17.0391 4.336Z" fill="#CE1126"/>
<path d="M17.9788 4.12814C17.7487 4.16872 17.721 4.52951 17.7819 4.8747C17.9286 5.70668 18.1072 6.12366 18.5406 7.31447C18.5406 6.04724 18.5659 5.59431 18.4192 4.76233C18.3583 4.41714 18.2089 4.08757 17.9788 4.12814Z" fill="#CE1126"/>
<path d="M18.9297 4.00281C18.697 4.02317 18.638 4.38018 18.6685 4.72936C18.7422 5.57096 18.8837 6.00192 19.2117 7.22597C19.3222 5.96357 19.3868 5.51456 19.3132 4.67296C19.2826 4.32378 19.1625 3.98244 18.9297 4.00281Z" fill="#CE1126"/>
<path d="M-10 12.3334H50V40H-10V12.3334Z" fill="black"/>
<path d="M-10 13.3334H50V40.0001H-10V13.3334Z" fill="#CE1126"/>
<path d="M-10 26.6666H50V40H-10V26.6666Z" fill="#339E35"/>
</g>
<defs>
<clipPath id="clip0_1_16026">
<rect width="40" height="40" rx="20" fill="white"/>
</clipPath>
</defs>
</svg>
