<svg width="40" height="40" viewBox="0 0 40 40" fill="none" xmlns="http://www.w3.org/2000/svg">
<g clip-path="url(#clip0_1_5334)">
<path d="M0 0H60.4945V40H0V0Z" fill="white"/>
<path d="M2.16016 1.42871H60.4941M60.4941 7.143H2.16016M2.16016 12.8573H60.4941M60.4941 18.5716H2.16016" stroke="#CC0000" stroke-width="2.48453"/>
<path d="M0 0H20V20H0V0Z" fill="#000066"/>
<path d="M0 24.2857H60.4945M60.4945 30H0M0 35.7143H60.4945" stroke="#CC0000" stroke-width="2.48453"/>
<path d="M15.1107 7.58333L15.375 9.3625L16.3973 7.87257L15.8491 9.58854L17.4271 8.68195L16.1775 9.99444L18 9.85104L16.2961 10.5L18 11.149L16.1775 11.0056L17.4271 12.3181L15.8491 11.4115L16.3973 13.1274L15.375 11.6375L15.1107 13.4167L14.8465 11.6375L13.8241 13.1274L14.3724 11.4115L12.7944 12.3181L14.0439 11.0056L12.2215 11.149L13.9254 10.5L12.2215 9.85104L14.0439 9.99444L12.7944 8.68195L14.3724 9.58854L13.8241 7.87257L14.8465 9.3625L15.1107 7.58333ZM13.6291 7.65625C13.1478 7.44609 12.6209 7.35757 12.0961 7.39872C11.5712 7.43986 11.0652 7.60938 10.6238 7.89188C10.1825 8.17438 9.81979 8.56091 9.56873 9.01638C9.31766 9.47184 9.18616 9.98182 9.18616 10.5C9.18616 11.0182 9.31766 11.5282 9.56873 11.9836C9.81979 12.4391 10.1825 12.8256 10.6238 13.1081C11.0652 13.3906 11.5712 13.5601 12.0961 13.6013C12.6209 13.6424 13.1478 13.5539 13.6291 13.3437C13.0977 13.719 12.4714 13.9428 11.8192 13.9904C11.167 14.038 10.514 13.9077 9.9322 13.6138C9.35036 13.3198 8.86215 12.8737 8.52125 12.3243C8.18036 11.775 8 11.1437 8 10.5C8 9.85629 8.18036 9.22505 8.52125 8.6757C8.86215 8.12634 9.35036 7.68016 9.9322 7.38622C10.514 7.09228 11.167 6.96196 11.8192 7.0096C12.4714 7.05724 13.0977 7.28099 13.6291 7.65625Z" fill="#FFCC00"/>
</g>
<defs>
<clipPath id="clip0_1_5334">
<rect width="40" height="40" rx="20" fill="white"/>
</clipPath>
</defs>
</svg>
