<svg width="40" height="40" viewBox="0 0 40 40" fill="none" xmlns="http://www.w3.org/2000/svg">
<g clip-path="url(#clip0_1_5341)">
<rect width="40" height="40" rx="20" fill="#D21034"/>
<path d="M42 5H-2V34.3333H42V5Z" fill="#D21034"/>
<path d="M6 20C6 27.732 12.268 34 20 34C27.732 34 34 27.732 34 20C34 12.268 27.732 6 20 6C12.268 6 6 12.268 6 20Z" fill="#007E3A"/>
<path d="M21.8342 24.5556C24.5343 24.5556 26.7231 22.3668 26.7231 19.6667C26.7231 16.9667 24.5343 14.7778 21.8342 14.7778C19.1341 14.7778 16.9453 16.9667 16.9453 19.6667C16.9453 22.3668 19.1341 24.5556 21.8342 24.5556Z" fill="white"/>
<path d="M23.6662 24.5556C26.3663 24.5556 28.5551 22.3668 28.5551 19.6667C28.5551 16.9667 26.3663 14.7778 23.6662 14.7778C20.9662 14.7778 18.7773 16.9667 18.7773 19.6667C18.7773 22.3668 20.9662 24.5556 23.6662 24.5556Z" fill="#007E3A"/>
</g>
<defs>
<clipPath id="clip0_1_5341">
<rect width="40" height="40" rx="20" fill="white"/>
</clipPath>
</defs>
</svg>
