<svg width="40" height="40" viewBox="0 0 40 40" fill="none" xmlns="http://www.w3.org/2000/svg">
<g clip-path="url(#clip0_1_16017)">
<path d="M-10 0H49.9839V40H-10V0Z" fill="#CD2A3E"/>
<path d="M-10 6H49.9839V34H-10V6Z" fill="#006233"/>
<path d="M32.5007 12.8833C32.5007 16.1985 31.1837 19.3779 28.8395 21.7221C26.4953 24.0663 23.3159 25.3833 20.0007 25.3833C16.6855 25.3833 13.506 24.0663 11.1618 21.7221C8.81762 19.3779 7.50066 16.1985 7.50066 12.8833C7.22287 13.9499 7.08284 15.0478 7.08399 16.15C7.08399 19.5757 8.44485 22.8611 10.8672 25.2834C13.2895 27.7058 16.5749 29.0666 20.0007 29.0666C23.4264 29.0666 26.7118 27.7058 29.1341 25.2834C31.5565 22.8611 32.9173 19.5757 32.9173 16.15C32.9189 15.0477 32.7789 13.9498 32.5007 12.8833Z" fill="#FFC400"/>
<path d="M20 7.81641L18.875 11.2747H15.25L18.1917 13.4081L17.0667 16.8581L20.0083 14.7247L22.95 16.8581L21.825 13.4081L24.7667 11.2747H21.1333L20 7.81641Z" fill="#FFC400"/>
</g>
<defs>
<clipPath id="clip0_1_16017">
<rect width="40" height="40" rx="20" fill="white"/>
</clipPath>
</defs>
</svg>
