<svg width="40" height="40" viewBox="0 0 40 40" fill="none" xmlns="http://www.w3.org/2000/svg">
<g clip-path="url(#clip0_1_2864)">
<path d="M40 -4H0V45H40V-4Z" fill="#CC092F"/>
<path d="M27 -4H0V45H27V-4Z" fill="#FFD200"/>
<path d="M13 -1H0V42H13V-1Z" fill="#0046AE"/>
<path d="M18.4916 12.7132C18.4111 12.7096 18.3315 12.7314 18.264 12.7755C18.3439 12.799 18.3984 12.8727 18.3976 12.956V13.176H18.1776C18.0948 13.1768 18.0213 13.1231 17.997 13.044C17.9141 13.1844 17.9141 13.3588 17.997 13.4991C18.0206 13.4193 18.0943 13.3648 18.1776 13.3656H18.3976V14.4231C18.3982 14.5027 18.3482 14.574 18.2731 14.6005C18.3781 14.6148 18.4684 14.7557 18.4931 14.8327C18.5179 14.7558 18.6082 14.6148 18.7131 14.6005C18.6373 14.5747 18.5866 14.5032 18.5872 14.423V13.3655H18.8072C18.89 13.3647 18.9635 13.4184 18.9878 13.4976C19.0707 13.3572 19.0707 13.1828 18.9878 13.0424C18.9642 13.1223 18.8904 13.1768 18.8072 13.1759H18.5872V12.9559C18.5863 12.8731 18.64 12.7996 18.7192 12.7754C18.6517 12.7313 18.5721 12.7096 18.4916 12.7132V12.7132Z" fill="black"/>
<path d="M18.493 12.7591C18.4486 12.7592 18.4046 12.7664 18.3625 12.7803C18.4142 12.8242 18.4441 12.8885 18.4445 12.9563V13.1763C18.4443 13.1794 18.4437 13.1824 18.4429 13.1854V13.2203H18.408C18.405 13.2211 18.402 13.2216 18.3989 13.2218H18.1789C18.1119 13.2214 18.0483 13.1921 18.0045 13.1414C17.9898 13.1834 17.9821 13.2275 17.9817 13.2719C17.9819 13.3162 17.989 13.3603 18.0029 13.4024C18.0468 13.3507 18.1111 13.3208 18.1789 13.3205H18.4444C18.4441 13.3251 18.4429 13.3295 18.4429 13.3341V13.3569C18.4437 13.3598 18.4442 13.3629 18.4444 13.366V14.4234C18.4422 14.4878 18.4123 14.548 18.3625 14.5888C18.3952 14.6092 18.4244 14.6348 18.4489 14.6647C18.4668 14.6893 18.4821 14.7157 18.4945 14.7435C18.5069 14.7158 18.5221 14.6893 18.54 14.6647C18.5642 14.6355 18.5929 14.6104 18.6249 14.5903C18.5748 14.5491 18.5449 14.4883 18.543 14.4234V13.3219H18.5794C18.5824 13.3211 18.5854 13.3206 18.5885 13.3204H18.8085C18.8755 13.3209 18.9391 13.3502 18.9829 13.4008C18.9976 13.3589 19.0053 13.3148 19.0057 13.2703C19.0055 13.226 18.9984 13.182 18.9845 13.1399C18.9406 13.1915 18.8763 13.2214 18.8085 13.2218H18.5885C18.5854 13.2216 18.5824 13.2211 18.5794 13.2202H18.5445V13.1853C18.5437 13.1824 18.5432 13.1793 18.543 13.1762V12.9563C18.5434 12.8892 18.5727 12.8257 18.6234 12.7818C18.5814 12.7672 18.5373 12.7595 18.4929 12.759" fill="#FFD200"/>
<path d="M21.2463 16.5882C21.1178 16.501 21.0079 16.389 20.9232 16.2589C20.7343 15.9559 20.6547 15.584 20.6547 15.206C20.6547 15.0462 20.8337 14.8664 20.8337 14.7372C20.8348 14.6327 20.8288 14.5283 20.8155 14.4247C20.879 14.4333 20.9899 14.546 20.9899 14.546C20.9899 14.546 20.9861 14.2219 20.8837 14.1652C20.8837 14.1652 20.9251 14.1226 21.0749 14.1182C21.0328 14.0116 20.8246 13.8815 20.8246 13.8815C20.838 13.8607 20.8568 13.8439 20.8791 13.833C20.9367 13.8048 20.998 13.7848 21.0612 13.7738C20.9919 13.7588 20.9236 13.7401 20.8564 13.7177C20.6626 13.6529 20.473 13.5759 20.289 13.4871C20.0536 13.369 19.7937 13.3082 19.5304 13.3096C19.4245 13.3096 19.2684 13.3125 19.1769 13.3733C19.0932 13.4289 19.1 13.5012 19.0707 13.5266C19.0017 13.5863 18.8834 13.5842 18.8264 13.5842C18.4578 13.5842 18.4441 13.9787 18.4441 13.9787C18.4441 13.9787 18.5384 13.836 18.705 13.836C18.9822 13.836 19.192 13.987 19.192 14.0439C19.192 14.0669 19.1635 14.0712 19.1617 14.0712C18.9807 14.0712 18.7075 13.967 18.5624 13.9619V14.0332C18.8863 14.146 19.2148 14.3055 19.2148 15.0088C19.2148 15.4516 19.1618 15.9035 18.9402 16.2589C18.8548 16.389 18.7444 16.501 18.6155 16.5882L19.9309 16.8253L21.2463 16.5882Z" fill="black"/>
<path d="M19.9309 16.2916L18.6155 16.588C18.5557 16.5699 18.2743 16.4825 18.0769 16.3726C17.7294 16.179 17.5492 15.9864 17.1363 15.9675V15.6534C17.1363 15.4856 17.197 15.3344 17.197 15.174C17.0229 15.1273 16.5397 14.5365 16.094 14.2743C15.4382 14.6991 14.9303 15.3964 14.9303 15.7171C14.9303 15.7171 14.9501 22.6078 14.9303 25.0084C14.9303 25.1467 14.8469 25.3422 14.8469 25.3422C15.0864 25.2409 15.5252 24.6404 15.6176 24.4121V24.5214C15.9792 24.3565 16.244 23.9232 16.3626 23.6991C16.3647 23.7315 16.3702 23.8128 16.3702 23.8128C16.6932 23.5296 17.1045 21.8557 17.1045 21.8557L17.7898 22.5292C17.7898 22.5292 17.5419 23.0323 17.4454 23.1224C17.4912 23.1277 17.5373 23.1302 17.5834 23.13C17.5383 23.1948 17.1938 23.6908 17.0858 23.8779C16.9847 24.053 16.9134 23.975 16.7581 23.975C16.6292 23.975 16.3372 24.1803 16.2893 24.2633C16.2374 24.3482 16.2072 24.4446 16.2013 24.544C16.2013 24.64 16.303 24.7716 16.303 24.7716C16.3067 24.7483 16.3173 24.7266 16.3333 24.7094C16.3333 24.7094 16.6004 25.0421 16.6398 25.0856C16.6704 25.1195 16.8071 25.1415 16.8552 25.0978C16.9757 24.9882 17.0924 24.9116 17.1996 24.7534C17.2548 24.6718 17.259 24.5784 17.3225 24.4909C17.5347 24.1981 17.9572 23.6374 18.0538 23.5093C18.0602 23.5449 18.0658 23.5746 18.0719 23.6109C18.1814 23.3899 18.7076 22.9676 18.7076 22.9676L19.2582 23.221C19.2582 23.221 18.2302 25.5841 17.3178 25.9474C17.3178 25.9474 17.7147 26.1161 18.2022 26.3692C18.2734 26.4061 18.3466 26.4458 18.4207 26.4861C18.4821 26.4121 18.5467 26.33 18.6104 26.2448C18.9019 25.8548 19.1869 25.4028 19.1869 25.4028C19.2068 25.5202 19.0529 25.8827 18.7925 26.3298C18.7413 26.4177 18.6879 26.5095 18.6286 26.6028C18.6947 26.6406 18.7602 26.6787 18.8258 26.7182C19.3088 27.0088 19.7623 27.3428 19.9303 27.6497L20.0488 27.3531L19.9303 27.0565V16.6851L19.9896 16.5369L19.9309 16.2916Z" fill="black"/>
<path d="M19.9291 27.0565C19.7587 26.8717 19.4025 26.6459 19.0021 26.4375C19.4862 25.5687 19.7261 24.1954 19.6135 23.922C19.6135 23.922 19.4148 24.6343 19.172 25.0402C18.9472 25.4161 18.6704 25.8389 18.4028 26.1523C18.2017 26.0654 17.9961 25.9894 17.7868 25.9247C18.5887 25.307 19.4087 23.2651 19.4087 23.2651L18.5607 22.8721C18.5607 22.8721 18.2435 23.2419 18.1405 23.3106C18.1405 23.3106 18.0965 23.1267 18.0707 23.0618C18.0707 23.0618 17.9492 23.1537 17.8826 23.1559C17.8826 23.1559 17.8627 23.0311 17.8477 22.9495C17.764 23.0053 17.6247 22.9935 17.6247 22.9935C17.747 22.9356 17.8917 22.5808 17.8917 22.5808L17.082 21.5038C17.082 21.5038 16.7976 22.8705 16.4736 23.1514V17.2663L16.73 17.5044L17.1184 17.1418V16.8657L16.774 17.1873V16.3544C16.8259 16.2759 16.8603 16.2173 16.8863 16.1708C16.942 16.268 17.1222 16.5659 17.3338 16.7489C17.3686 16.6073 17.5978 16.4727 17.5978 16.4727C17.5978 16.4727 17.6799 16.6952 17.8056 16.7504C17.8498 16.6725 18.1137 16.5001 18.1137 16.5001C18.1137 16.5001 17.888 16.5344 17.7966 16.6199C17.7181 16.6024 17.6979 16.2922 17.6979 16.2922C17.6979 16.2922 17.3658 16.454 17.308 16.5699C17.2447 16.5527 17.1461 16.3035 17.1077 16.2012C17.1898 16.192 17.2724 16.1875 17.355 16.1876C17.4498 16.1876 17.5709 16.2324 17.6979 16.2922C17.8374 16.3579 17.9833 16.4411 18.1136 16.5001C18.2806 16.5757 18.5331 16.591 18.6067 16.5942C18.5183 16.6555 18.4255 16.7103 18.3291 16.758C18.3291 16.758 18.7265 16.7543 19.0057 16.6154C19.1072 16.5541 19.2046 16.4862 19.297 16.4121C19.2545 16.5361 19.1897 16.6512 19.1058 16.7519C19.5159 16.7172 19.7201 16.4831 19.7779 16.4045C19.8148 16.5048 19.8659 16.5993 19.9297 16.6851H20.0778V26.7614L19.9291 27.0565Z" fill="#B07E5B"/>
<path d="M16.9079 15.2042L16.9154 15.3923V15.9462C16.7667 15.895 16.5798 15.6506 16.4892 15.5214V15.4455C16.4911 15.387 16.5176 15.3319 16.562 15.2938L16.4725 15.2619C16.4285 15.3084 16.4031 15.3694 16.4012 15.4334V15.4774L16.1342 15.7641L15.8717 15.3666V15.2695C15.8717 15.2041 15.922 15.1311 15.9643 15.0814L15.8762 15.0495C15.8318 15.1071 15.7852 15.1847 15.7852 15.2574V15.3362C15.7235 15.4001 15.4833 15.6473 15.4833 15.6473C15.4833 15.6473 15.3628 15.3884 15.3301 15.3181C15.514 15.0634 15.8121 14.7781 16.0932 14.5735C16.0932 14.5735 16.7026 15.133 16.9079 15.2042Z" fill="#B07E5B"/>
<path d="M15.3628 15.7414V16.1982L15.1504 16.3954V15.7172C15.1565 15.6362 15.1814 15.5577 15.2232 15.4881L15.3628 15.7414Z" fill="#B07E5B"/>
<path d="M16.025 15.9174V16.1996L15.7808 16.4287V15.5457L16.025 15.9174Z" fill="#B07E5B"/>
<path d="M15.6942 16.4272L15.45 16.1996V15.8689L15.6942 15.6125V16.4272Z" fill="#B07E5B"/>
<path d="M16.8092 16.0841C16.7525 16.1642 16.6039 16.3603 16.4436 16.4467V15.6714C16.4804 15.7326 16.6491 16.0055 16.8092 16.0841Z" fill="#B07E5B"/>
<path d="M16.3571 15.7111V16.4272L16.1128 16.1996V15.9463L16.3571 15.7111Z" fill="#B07E5B"/>
<path d="M15.3628 16.474V17.1886L15.1504 16.9898V16.6727L15.3628 16.474Z" fill="#B07E5B"/>
<path d="M15.6929 16.7032V16.9596L15.4486 17.1871V16.4756L15.6929 16.7032Z" fill="#B07E5B"/>
<path d="M16.0237 16.4756V17.1872L15.7794 16.958V16.7047L16.0237 16.4756Z" fill="#B07E5B"/>
<path d="M16.3559 16.7047V16.9581L16.1116 17.1872V16.4756L16.3559 16.7047Z" fill="#B07E5B"/>
<path d="M16.6867 17.1887L16.4424 16.9595V16.7214C16.5266 16.67 16.6114 16.5755 16.6867 16.4756L16.6867 17.1887Z" fill="#B07E5B"/>
<path d="M16.0686 17.5042L16.3265 17.2645V23.1511C16.3265 23.1511 16.3445 23.4432 16.3568 23.6335C16.2421 23.7495 15.8107 24.1858 15.8107 24.1858V17.2629L16.0686 17.5042Z" fill="#B07E5B"/>
<path d="M15.6632 23.9659C15.6632 24.1551 15.3177 24.5963 15.1504 24.6972V17.2662L15.4053 17.5043L15.6632 17.2646V23.9659Z" fill="#B07E5B"/>
<path d="M17.8065 23.3274L17.9947 23.1984C17.9947 23.1984 18.0072 23.2607 18.0235 23.3456C17.9429 23.4558 17.4802 24.0873 17.2512 24.3955C17.1943 24.4721 17.1465 24.6671 17.1465 24.6671C17.1465 24.6671 17.0631 24.6276 17.0631 24.5563C17.0631 24.4863 17.0722 24.4031 17.0722 24.4031C17.0274 24.4487 16.9662 24.4744 16.9023 24.4744C16.9023 24.3884 17.0686 24.295 17.0752 24.1725C16.9483 24.2666 16.8382 24.2183 16.6914 24.2636C16.5316 24.3128 16.4871 24.3799 16.438 24.3774C16.4092 24.3758 16.383 24.326 16.3941 24.2954C16.4131 24.2425 16.6108 24.0959 16.749 24.0694C16.7821 24.063 17.0425 24.1261 17.095 24.0451C17.3111 23.7116 17.6619 23.1703 17.6957 23.1182C17.7165 23.1143 17.7364 23.1071 17.7549 23.0968C17.7549 23.0968 17.7529 23.2673 17.8065 23.3274Z" fill="#CC092F"/>
<path d="M16.5965 24.3667C16.6068 24.3781 16.6061 24.3957 16.5949 24.4062L16.5099 24.4805C16.4978 24.49 16.4802 24.488 16.4705 24.4759C16.4601 24.4646 16.4608 24.447 16.4721 24.4365L16.557 24.3621C16.5624 24.3574 16.5696 24.3552 16.5767 24.3561C16.5844 24.3571 16.5914 24.3609 16.5965 24.3667Z" fill="#CC092F"/>
<path d="M16.7253 24.456C16.7505 24.4825 16.7494 24.5244 16.7229 24.5496L16.7223 24.5501L16.5159 24.7306C16.4846 24.7539 16.4404 24.7474 16.4171 24.716C16.3964 24.6881 16.3991 24.6493 16.4234 24.6245L16.6297 24.4454C16.64 24.4367 16.6527 24.4314 16.6661 24.4303C16.6888 24.429 16.7108 24.4386 16.7253 24.456Z" fill="#CC092F"/>
<path d="M16.8435 24.5957C16.8687 24.6222 16.8676 24.664 16.8411 24.6892L16.8405 24.6898L16.6327 24.8703C16.6039 24.8934 16.5618 24.8888 16.5388 24.86L16.5386 24.8597C16.5132 24.8324 16.5145 24.7898 16.5416 24.7642L16.7479 24.5851C16.7577 24.5765 16.7699 24.5712 16.7829 24.5699C16.806 24.5686 16.8284 24.5782 16.8435 24.5957Z" fill="#CC092F"/>
<path d="M16.9148 24.7065C16.9373 24.7046 16.9593 24.7136 16.974 24.7308C16.9994 24.7581 16.998 24.8007 16.971 24.8263L16.7646 25.0054C16.7332 25.0282 16.6893 25.0212 16.6666 24.9898C16.6469 24.9626 16.6492 24.9252 16.6721 24.9007L16.8799 24.7202C16.8897 24.7119 16.902 24.7071 16.9148 24.7065Z" fill="#CC092F"/>
<path d="M19.9281 16.2917L21.2435 16.5881C21.3033 16.57 21.5847 16.4826 21.7821 16.3726C22.1296 16.1791 22.3098 15.9864 22.7227 15.9675V15.6535C22.7227 15.4857 22.662 15.3345 22.662 15.174C22.8361 15.1274 23.3193 14.5366 23.765 14.2743C24.4209 14.6991 24.9287 15.3965 24.9287 15.7172C24.9287 15.7172 24.909 22.6079 24.9287 25.0084C24.9287 25.1468 25.0121 25.3422 25.0121 25.3422C24.7727 25.2409 24.3338 24.6404 24.2414 24.4122V24.5215C23.8798 24.3566 23.615 23.9233 23.4964 23.6991C23.4943 23.7315 23.4888 23.8129 23.4888 23.8129C23.1658 23.5297 22.7546 21.8558 22.7546 21.8558L22.0693 22.5293C22.0693 22.5293 22.3171 23.0324 22.4137 23.1225C22.3678 23.1277 22.3217 23.1303 22.2756 23.13C22.3207 23.1949 22.6652 23.6909 22.7732 23.878C22.8743 24.053 22.9456 23.9751 23.101 23.9751C23.2298 23.9751 23.5218 24.1803 23.5697 24.2634C23.6216 24.3483 23.6518 24.4447 23.6577 24.5441C23.6577 24.6401 23.556 24.7716 23.556 24.7716C23.5523 24.7484 23.5417 24.7267 23.5257 24.7094C23.5257 24.7094 23.2586 25.0422 23.2193 25.0857C23.1886 25.1195 23.052 25.1416 23.0038 25.0979C22.8833 24.9883 22.7667 24.9117 22.6594 24.7534C22.6042 24.6719 22.6 24.5785 22.5365 24.4909C22.3243 24.1981 21.9019 23.6374 21.8053 23.5094C21.7988 23.545 21.7933 23.5747 21.7871 23.611C21.6776 23.39 21.1514 22.9677 21.1514 22.9677L20.6008 23.2211C20.6008 23.2211 21.6288 25.5842 22.5413 25.9475C22.5413 25.9475 22.1443 26.1162 21.6568 26.3693C21.5857 26.4062 21.5124 26.4459 21.4383 26.4861C21.3769 26.4122 21.3123 26.3301 21.2487 26.2449C20.9572 25.8548 20.6721 25.4028 20.6721 25.4028C20.6522 25.5202 20.8062 25.8828 21.0665 26.3299C21.1178 26.4177 21.1712 26.5096 21.2304 26.6029C21.1643 26.6407 21.0988 26.6788 21.0332 26.7183C20.5503 27.0089 20.0967 27.3429 19.9287 27.6498L19.8102 27.3532L19.9287 27.0565V16.6852L19.8695 16.537L19.9281 16.2917Z" fill="black"/>
<path d="M19.9288 27.0563C20.0992 26.8715 20.4554 26.6457 20.8558 26.4373C20.3717 25.5685 20.1318 24.1952 20.2444 23.9218C20.2444 23.9218 20.4431 24.6341 20.6859 25.04C20.9107 25.4159 21.1875 25.8387 21.4551 26.1521C21.6562 26.0652 21.8618 25.9892 22.0711 25.9245C21.2692 25.3068 20.4492 23.2649 20.4492 23.2649L21.2971 22.8719C21.2971 22.8719 21.6144 23.2417 21.7174 23.3104C21.7174 23.3104 21.7614 23.1265 21.7872 23.0616C21.7872 23.0616 21.9087 23.1535 21.9752 23.1557C21.9752 23.1557 21.9951 23.0309 22.0101 22.9493C22.0939 23.0051 22.2332 22.9933 22.2332 22.9933C22.1109 22.9354 21.9661 22.5806 21.9661 22.5806L22.7759 21.5036C22.7759 21.5036 23.0603 22.8703 23.3842 23.1512V17.2661L23.1278 17.5042L22.7394 17.1416V16.8655L23.0838 17.1871V16.3542C23.0319 16.2757 22.9975 16.2171 22.9716 16.1706C22.9158 16.2678 22.7357 16.5657 22.524 16.7487C22.4892 16.6071 22.26 16.4725 22.26 16.4725C22.26 16.4725 22.1779 16.6951 22.0522 16.7502C22.008 16.6723 21.7442 16.4999 21.7442 16.4999C21.7442 16.4999 21.9699 16.5342 22.0613 16.6197C22.1398 16.6022 22.1599 16.292 22.1599 16.292C22.1599 16.292 22.4921 16.4538 22.5498 16.5697C22.6132 16.5525 22.7118 16.3033 22.7501 16.201C22.668 16.1918 22.5854 16.1873 22.5028 16.1874C22.4081 16.1874 22.2869 16.2322 22.16 16.292C22.0205 16.3577 21.8745 16.4409 21.7442 16.4999C21.5773 16.5755 21.3248 16.5908 21.2512 16.594C21.3395 16.6553 21.4323 16.7101 21.5288 16.7578C21.5288 16.7578 21.1313 16.7541 20.8521 16.6152C20.7506 16.5539 20.6533 16.486 20.5608 16.4119C20.6033 16.5359 20.6681 16.651 20.752 16.7517C20.342 16.717 20.1378 16.4829 20.0799 16.4043C20.043 16.5046 19.992 16.5991 19.9282 16.6849H19.78V26.7612L19.9288 27.0563Z" fill="#B07E5B"/>
<path d="M22.9498 15.2042L22.9423 15.3923V15.9461C23.091 15.895 23.2779 15.6506 23.3685 15.5213V15.4455C23.3666 15.3869 23.3401 15.3319 23.2957 15.2938L23.3852 15.2619C23.4292 15.3084 23.4546 15.3694 23.4565 15.4334V15.4774L23.7235 15.7641L23.986 15.3666V15.2695C23.986 15.2041 23.9357 15.1311 23.8934 15.0814L23.9815 15.0495C24.0259 15.1071 24.0725 15.1846 24.0725 15.2574V15.3362C24.1342 15.4001 24.3744 15.6473 24.3744 15.6473C24.3744 15.6473 24.4949 15.3884 24.5276 15.3181C24.3437 15.0633 24.0456 14.7781 23.7645 14.5735C23.7645 14.5735 23.1551 15.133 22.9498 15.2042Z" fill="#B07E5B"/>
<path d="M24.4948 15.7411V16.1978L24.7072 16.395V15.7168C24.7011 15.6358 24.6762 15.5574 24.6344 15.4877L24.4948 15.7411Z" fill="#B07E5B"/>
<path d="M23.8331 15.917V16.1992L24.0774 16.4283V15.5454L23.8331 15.917Z" fill="#B07E5B"/>
<path d="M24.1639 16.4271L24.4082 16.1996V15.8689L24.1639 15.6124V16.4271Z" fill="#B07E5B"/>
<path d="M23.0492 16.0841C23.1059 16.1643 23.2545 16.3603 23.4148 16.4467V15.6714C23.378 15.7326 23.2093 16.0056 23.0492 16.0841Z" fill="#B07E5B"/>
<path d="M23.501 15.7108V16.4269L23.7453 16.1993V15.9459L23.501 15.7108Z" fill="#B07E5B"/>
<path d="M24.4948 16.474V17.1886L24.7072 16.9898V16.6727L24.4948 16.474Z" fill="#B07E5B"/>
<path d="M24.1639 16.7032V16.9596L24.4083 17.1871V16.4756L24.1639 16.7032Z" fill="#B07E5B"/>
<path d="M23.8331 16.4756V17.1872L24.0774 16.958V16.7047L23.8331 16.4756Z" fill="#B07E5B"/>
<path d="M23.501 16.7047V16.958L23.7453 17.1871V16.4756L23.501 16.7047Z" fill="#B07E5B"/>
<path d="M23.1702 17.1886L23.4145 16.9595V16.7214C23.3302 16.67 23.2455 16.5754 23.1702 16.4756L23.1702 17.1886Z" fill="#B07E5B"/>
<path d="M23.7892 17.5042L23.5313 17.2644V23.1511C23.5313 23.1511 23.5133 23.4432 23.501 23.6335C23.6157 23.7495 24.0471 24.1858 24.0471 24.1858V17.2629L23.7892 17.5042Z" fill="#B07E5B"/>
<path d="M24.1952 23.9658C24.1952 24.155 24.5407 24.5962 24.708 24.6971V17.2661L24.4531 17.5042L24.1952 17.2645V23.9658Z" fill="#B07E5B"/>
<path d="M22.0536 23.3268L21.8655 23.1979C21.8655 23.1979 21.8529 23.2601 21.8367 23.3451C21.9172 23.4552 22.3799 24.0867 22.6089 24.3949C22.6658 24.4715 22.7136 24.6665 22.7136 24.6665C22.7136 24.6665 22.797 24.627 22.797 24.5558C22.797 24.4858 22.7879 24.4025 22.7879 24.4025C22.8327 24.4481 22.8939 24.4738 22.9579 24.4738C22.9579 24.3878 22.7915 24.2945 22.7849 24.1719C22.9118 24.266 23.022 24.2177 23.1687 24.263C23.3286 24.3122 23.3731 24.3794 23.4221 24.3768C23.451 24.3752 23.4771 24.3254 23.4661 24.2948C23.447 24.2419 23.2493 24.0953 23.1111 24.0688C23.078 24.0625 22.8176 24.1255 22.7652 24.0445C22.5491 23.7111 22.1982 23.1697 22.1644 23.1176C22.1437 23.1137 22.1237 23.1065 22.1053 23.0963C22.1053 23.0963 22.1072 23.2667 22.0536 23.3268Z" fill="#CC092F"/>
<path d="M23.2636 24.3658C23.2532 24.3772 23.2539 24.3948 23.2652 24.4053L23.3501 24.4796C23.3623 24.4891 23.3798 24.4871 23.3895 24.475C23.3999 24.4637 23.3993 24.4461 23.388 24.4356L23.303 24.3612C23.2976 24.3565 23.2904 24.3543 23.2833 24.3552C23.2756 24.3562 23.2686 24.36 23.2636 24.3658Z" fill="#CC092F"/>
<path d="M23.1338 24.4554C23.1086 24.482 23.1097 24.5238 23.1362 24.549L23.1368 24.5495L23.3431 24.7301C23.3745 24.7533 23.4187 24.7468 23.442 24.7155C23.4627 24.6876 23.46 24.6487 23.4357 24.6239L23.2294 24.4449C23.2191 24.4362 23.2064 24.4309 23.1929 24.4297C23.1703 24.4284 23.1483 24.438 23.1338 24.4554Z" fill="#CC092F"/>
<path d="M23.0166 24.5951C22.9914 24.6216 22.9925 24.6635 23.019 24.6886L23.0196 24.6892L23.2275 24.8697C23.2562 24.8928 23.2983 24.8882 23.3213 24.8594L23.3216 24.8591C23.347 24.8318 23.3456 24.7892 23.3185 24.7636L23.1123 24.5846C23.1025 24.5759 23.0903 24.5706 23.0773 24.5694C23.0542 24.5681 23.0318 24.5776 23.0167 24.5951H23.0166Z" fill="#CC092F"/>
<path d="M22.9442 24.7059C22.9217 24.704 22.8997 24.7131 22.885 24.7302C22.8596 24.7575 22.861 24.8001 22.888 24.8258L23.0944 25.0048C23.1258 25.0276 23.1697 25.0206 23.1924 24.9892C23.2121 24.962 23.2098 24.9247 23.1869 24.9001L22.9791 24.7196C22.9693 24.7113 22.957 24.7065 22.9442 24.7059Z" fill="#CC092F"/>
<path d="M19.6259 13.4067C19.9654 13.4067 20.2043 13.5615 20.5256 13.704C20.6098 13.7414 20.6871 13.7716 20.7561 13.795C20.7187 13.8237 20.6889 13.8613 20.6696 13.9043C20.6696 13.9043 20.8136 13.931 20.879 14.0515C20.879 14.0515 20.7421 14.067 20.7197 14.1471C20.7964 14.1528 20.8726 14.2495 20.8729 14.3428L20.6787 14.2821C20.7086 14.432 20.7244 14.5844 20.7258 14.7372C20.7258 14.8583 20.5513 15.0008 20.5513 15.206C20.5513 15.8502 20.7136 16.0977 20.829 16.2969C20.8741 16.3748 20.9108 16.4644 20.9868 16.532C20.6543 16.355 20.4072 16.1337 20.4072 15.9282V15.1499H20.3207V15.9282C20.3207 16.0773 20.3571 16.1467 20.3571 16.1467C20.4093 16.3116 20.5148 16.5661 20.5802 16.6686C20.2743 16.5033 20.1189 16.2963 20.1189 16.2195V15.1499H20.0324V16.2347L20.0491 16.309C20.012 16.3647 19.9639 16.4307 19.9308 16.4531C19.8978 16.4307 19.8511 16.3646 19.8139 16.309L19.8306 16.2347V15.1499H19.7442V16.2195C19.7442 16.2962 19.5888 16.5033 19.2829 16.6686C19.3483 16.5661 19.4538 16.3116 19.5059 16.1467C19.5059 16.1467 19.5423 16.0773 19.5423 15.9282V15.1499H19.4559V15.9282C19.4559 16.1335 19.2097 16.3551 18.8778 16.532C18.953 16.4644 18.9892 16.3743 19.034 16.2969C19.1602 16.0791 19.3162 15.8024 19.3162 15.0149C19.3162 14.7193 19.2725 14.5183 19.1964 14.3777C19.1732 14.3312 19.1421 14.2077 19.3193 14.2077C19.411 14.2077 19.6212 14.3701 19.6212 14.3701C19.6128 14.2892 19.571 14.2155 19.5059 14.1668C19.479 14.1456 19.462 14.1143 19.4589 14.0803C19.4711 14.0346 19.5004 13.9955 19.5408 13.971C19.5655 13.9598 19.1797 13.8926 19.1797 13.7177C19.1797 13.6812 19.2026 13.657 19.2828 13.657C19.3879 13.657 19.5588 13.7829 19.7107 13.7829C19.823 13.7829 19.8673 13.7556 19.9823 13.7556C20.1228 13.7556 20.416 14.0217 20.5163 14.0119C20.4042 13.9416 20.2231 13.6751 19.9489 13.6751C19.8537 13.6751 19.7676 13.6964 19.6788 13.6964C19.5649 13.6964 19.4529 13.5917 19.3298 13.5917C19.2474 13.5917 19.1553 13.5963 19.1417 13.575C19.1178 13.5378 19.1393 13.5162 19.1614 13.4855C19.2032 13.4275 19.3205 13.4106 19.4361 13.4066C19.4707 13.4054 19.5054 13.4048 19.5378 13.4051C19.5701 13.4054 19.6 13.4067 19.6259 13.4067Z" fill="#B07E5B"/>
<path d="M18.5236 13.8231C18.5776 13.7359 18.674 13.6842 18.7765 13.6873C18.8523 13.6873 19.1023 13.6821 19.1023 13.6821C19.1356 13.7687 19.2875 13.9133 19.2875 14.0637C19.2875 14.0637 19.1333 13.7858 18.703 13.7858C18.6412 13.7849 18.5799 13.7976 18.5236 13.8231L18.5236 13.8231Z" fill="#CC092F"/>
<path d="M19.2227 14.1169C19.2227 14.1169 19.131 14.2135 19.1111 14.265C19.0204 14.2306 18.8622 14.0676 18.8622 14.0676C18.8622 14.0676 18.9963 14.1459 19.2227 14.1169Z" fill="#CC092F"/>
<path d="M19.0773 13.861C19.0773 13.861 18.9716 13.8271 18.9716 13.7916C18.9716 13.7464 19.0229 13.7464 19.0536 13.7816C19.0682 13.8056 19.0764 13.833 19.0773 13.861L19.0773 13.861Z" fill="black"/>
<path d="M19.5703 14.0848C19.691 14.0848 19.7888 14.0105 19.7888 13.9189C19.7888 13.8273 19.691 13.7531 19.5703 13.7531C19.4496 13.7531 19.3518 13.8273 19.3518 13.9189C19.3518 14.0105 19.4496 14.0848 19.5703 14.0848Z" fill="black"/>
<path d="M19.57 14.0709C19.6538 14.0709 19.7217 14.003 19.7217 13.9192C19.7217 13.8353 19.6538 13.7674 19.57 13.7674C19.4862 13.7674 19.4182 13.8353 19.4182 13.9192C19.4182 14.003 19.4862 14.0709 19.57 14.0709Z" fill="#FFD200"/>
<path d="M19.5711 13.9885C19.6095 13.9885 19.6407 13.9574 19.6407 13.919C19.6407 13.8806 19.6095 13.8494 19.5711 13.8494C19.5327 13.8494 19.5016 13.8806 19.5016 13.919C19.5016 13.9574 19.5327 13.9885 19.5711 13.9885Z" fill="black"/>
<path d="M17.1174 24.8259L17.5976 25.0879L17.4811 25.6222L17.001 25.3602L17.1174 24.8259Z" fill="black"/>
<path d="M14.8818 19.6923L14.7089 19.7712L16.663 24.0513H16.8708L14.8818 19.6923ZM17.1864 24.74L17.0453 24.8856L17.1333 25.0798L17.3047 25.0009L17.1864 24.74Z" fill="black"/>
<path d="M15.4877 23.0668C15.4877 23.0668 15.6523 23.4067 15.7774 23.4534C15.7127 23.4357 15.5026 23.5128 15.5026 23.5128C15.5026 23.5128 15.8731 23.8437 16.1872 23.8654C16.4537 23.8838 16.583 23.7508 16.583 23.7508L16.5296 23.4685C16.4141 23.3393 16.2685 23.2406 16.1058 23.1809C15.8422 23.089 15.4877 23.0668 15.4877 23.0668L15.4877 23.0668Z" fill="black"/>
<path d="M16.7295 22.4579C16.7295 22.4579 16.5023 22.6524 16.4401 22.8778C16.3778 23.1032 16.4806 23.3593 16.4806 23.3593L16.6716 23.7155C16.6716 23.7155 16.9363 23.5747 17.0488 23.364C17.1614 23.1534 17.1201 22.8692 17.1201 22.8692C17.1201 22.8692 16.9105 22.9472 16.8838 22.9818C16.928 22.7481 16.7295 22.4579 16.7295 22.4579H16.7295Z" fill="black"/>
<path d="M15.9988 22.3669C15.9988 22.3669 15.7403 22.4543 15.4893 22.4392C15.2502 22.4248 15.0514 22.224 15.0514 22.224C15.0514 22.224 15.2496 22.0898 15.3474 22.1077C15.2398 22.0684 15.0838 21.7988 15.0838 21.7988C15.0838 21.7988 15.3055 21.7318 15.5021 21.8059C15.6987 21.8801 15.8702 22.0955 15.8702 22.0955L15.9989 22.3669L15.9988 22.3669Z" fill="black"/>
<path d="M16.0877 21.1044C16.0877 21.1044 16.2169 21.3721 16.1863 21.4651C16.2264 21.4032 16.3782 21.3067 16.3782 21.3067C16.3782 21.3067 16.4699 21.7401 16.3822 22.0078C16.2944 22.2754 16.0273 22.3773 16.0273 22.3773L15.7326 21.8043C15.7326 21.8043 15.6888 21.5919 15.7806 21.4238C15.8725 21.2557 16.0877 21.1044 16.0877 21.1044V21.1044Z" fill="black"/>
<path d="M14.4055 20.3957C14.4055 20.3957 14.6848 20.3664 14.9404 20.4723C15.1541 20.561 15.2196 20.7222 15.2196 20.7222L15.3248 21.0044C15.3248 21.0044 15.0207 21.1184 14.7805 21.0312C14.5402 20.9439 14.3636 20.6554 14.3636 20.6554C14.3636 20.6554 14.5316 20.5917 14.5955 20.6156C14.5024 20.5744 14.4055 20.3957 14.4055 20.3957V20.3958L14.4055 20.3957Z" fill="black"/>
<path d="M15.2846 19.8721C15.2846 19.8721 15.4072 20.0296 15.4109 20.2107C15.4436 20.1144 15.5967 20.008 15.5967 20.008C15.5967 20.008 15.7541 20.3889 15.7195 20.6594C15.685 20.9299 15.4585 21.0899 15.4585 21.0899L15.176 20.5538C15.176 20.5538 15.084 20.334 15.1111 20.1635C15.1382 19.9931 15.2846 19.872 15.2846 19.872V19.8721Z" fill="black"/>
<path d="M14.317 18.8468C14.317 18.8468 14.2663 19.1388 14.3525 19.307C14.4295 19.4571 14.4785 19.49 14.4785 19.49C14.3317 19.3932 14.1097 19.3848 14.1097 19.3848C14.1097 19.3848 14.1888 19.7025 14.3776 19.8475C14.5664 19.9924 14.8575 19.9586 14.8575 19.9586C14.8575 19.9586 15.049 19.7037 15.0356 19.4291C15.0223 19.1545 14.8042 18.8602 14.8042 18.8602C14.8042 18.8602 14.7182 19.0386 14.7106 19.1718C14.655 19.0345 14.3169 18.8468 14.3169 18.8468L14.317 18.8468Z" fill="black"/>
<path d="M16.5986 23.7387L16.6064 23.8436C16.7805 23.8452 16.8065 23.8278 16.8511 23.8827C16.8942 23.9311 16.9637 23.9457 17.0226 23.9187C17.0939 23.8857 17.1254 23.8015 17.0931 23.7298C17.0607 23.6587 16.9946 23.6432 16.9309 23.6558C16.8918 23.6635 16.8661 23.6947 16.8329 23.7119C16.7698 23.7445 16.5985 23.7388 16.5985 23.7388L16.5986 23.7387Z" fill="black"/>
<path d="M16.5841 23.6587L16.6689 23.7208C16.578 23.8694 16.5496 23.8822 16.5725 23.9492C16.5907 24.0113 16.5663 24.0781 16.5122 24.1137C16.4464 24.1567 16.3583 24.1388 16.3146 24.0735C16.2715 24.0083 16.2934 23.9441 16.3378 23.8967C16.365 23.8676 16.405 23.8623 16.4371 23.8433C16.4982 23.807 16.5841 23.6587 16.5841 23.6587L16.5841 23.6587Z" fill="black"/>
<path d="M15.9943 22.4139L16.0021 22.5187C16.1763 22.5203 16.2022 22.503 16.2468 22.5579C16.2899 22.6062 16.3595 22.6208 16.4183 22.5939C16.4897 22.5609 16.5211 22.4766 16.4888 22.4049C16.4564 22.3338 16.3903 22.3184 16.3266 22.331C16.2875 22.3387 16.2618 22.3699 16.2287 22.387C16.1656 22.4196 15.9943 22.4139 15.9943 22.4139L15.9943 22.4139Z" fill="black"/>
<path d="M16.0296 22.4511L16.1037 22.5257C15.9908 22.6583 15.9607 22.6665 15.973 22.7362C15.9813 22.8004 15.9468 22.8626 15.8878 22.8894C15.8161 22.9217 15.7319 22.8902 15.6988 22.8189C15.6664 22.7478 15.698 22.6878 15.7492 22.6479C15.7807 22.6234 15.8211 22.6244 15.8557 22.6106C15.9217 22.5843 16.0296 22.4511 16.0296 22.4511V22.4511Z" fill="black"/>
<path d="M15.4082 21.1738L15.4161 21.2786C15.5902 21.2802 15.6161 21.2629 15.6608 21.3178C15.7039 21.3661 15.7735 21.3807 15.8323 21.3537C15.9036 21.3207 15.9351 21.2364 15.9028 21.1647C15.8703 21.0936 15.8043 21.0782 15.7405 21.0908C15.7014 21.0985 15.6757 21.1297 15.6426 21.1468C15.5795 21.1795 15.4082 21.1737 15.4082 21.1737L15.4082 21.1738Z" fill="black"/>
<path d="M15.4565 21.1519L15.5305 21.2265C15.4176 21.3591 15.3876 21.3674 15.3998 21.4371C15.4081 21.5013 15.3736 21.5634 15.3147 21.5903C15.243 21.6225 15.1587 21.5911 15.1257 21.5198C15.0933 21.4486 15.1249 21.3886 15.1761 21.3487C15.2075 21.3242 15.2479 21.3252 15.2826 21.3114C15.3486 21.2851 15.4565 21.1519 15.4565 21.1519Z" fill="black"/>
<path d="M14.7831 19.8645L14.791 19.9693C14.9651 19.971 14.991 19.9536 15.0356 20.0085C15.0787 20.0568 15.1483 20.0715 15.2072 20.0446C15.2785 20.0115 15.31 19.9272 15.2777 19.8556C15.2453 19.7844 15.1791 19.769 15.1154 19.7816C15.0764 19.7893 15.0506 19.8205 15.0175 19.8376C14.9544 19.8703 14.7831 19.8645 14.7831 19.8645H14.7831Z" fill="black"/>
<path d="M14.8313 19.8424L14.9054 19.917C14.7925 20.0496 14.7624 20.0579 14.7747 20.1276C14.783 20.1918 14.7485 20.2539 14.6895 20.2808C14.6179 20.313 14.5336 20.2816 14.5006 20.2103C14.4681 20.1392 14.4998 20.0791 14.551 20.0392C14.5824 20.0148 14.6228 20.0157 14.6575 20.0019C14.7234 19.9756 14.8313 19.8425 14.8313 19.8425L14.8313 19.8424Z" fill="black"/>
<path d="M17.1879 24.977L17.4857 25.1395L17.4134 25.4709L17.1156 25.3084L17.1879 24.977Z" fill="#FFD200"/>
<path d="M15.8849 22.1032C15.8225 22.1291 15.7299 21.8574 15.6619 21.7085C15.5922 21.5558 15.4506 21.3203 15.4908 21.3019C15.535 21.2818 15.5931 21.4054 15.6645 21.5617C15.7358 21.718 15.9434 22.0789 15.8849 22.1032L15.8849 22.1032Z" fill="#FFD200"/>
<path d="M15.2435 20.6721C15.1812 20.6981 15.1128 20.5201 15.0449 20.3712C14.9752 20.2185 14.9072 20.1106 14.9474 20.0922C14.9916 20.0721 15.0568 20.2059 15.1139 20.3309C15.1692 20.4521 15.302 20.6478 15.2435 20.6721L15.2435 20.6721Z" fill="#FFD200"/>
<path d="M16.7261 23.9168C16.6772 23.9299 16.4633 23.4823 16.2904 23.1036C16.1175 22.7248 15.9888 22.4184 16.029 22.4001C16.0732 22.3799 16.2131 22.7377 16.3861 23.1165C16.559 23.4953 16.7628 23.907 16.7261 23.9168Z" fill="#FFD200"/>
<path d="M16.965 23.8665C17.0077 23.8665 17.0423 23.8319 17.0423 23.7892C17.0423 23.7466 17.0077 23.712 16.965 23.712C16.9224 23.712 16.8878 23.7466 16.8878 23.7892C16.8878 23.8319 16.9224 23.8665 16.965 23.8665Z" fill="#FFD200"/>
<path d="M16.4349 24.0723C16.4775 24.0723 16.5121 24.0377 16.5121 23.9951C16.5121 23.9524 16.4775 23.9179 16.4349 23.9179C16.3922 23.9179 16.3577 23.9524 16.3577 23.9951C16.3577 24.0377 16.3922 24.0723 16.4349 24.0723Z" fill="#FFD200"/>
<path d="M16.3606 22.5407C16.4032 22.5407 16.4378 22.5062 16.4378 22.4635C16.4378 22.4209 16.4032 22.3863 16.3606 22.3863C16.3179 22.3863 16.2833 22.4209 16.2833 22.4635C16.2833 22.5062 16.3179 22.5407 16.3606 22.5407Z" fill="#FFD200"/>
<path d="M15.8292 22.8367C15.8718 22.8367 15.9064 22.8021 15.9064 22.7595C15.9064 22.7168 15.8718 22.6822 15.8292 22.6822C15.7865 22.6822 15.752 22.7168 15.752 22.7595C15.752 22.8021 15.7865 22.8367 15.8292 22.8367Z" fill="#FFD200"/>
<path d="M15.7745 21.3009C15.8171 21.3009 15.8517 21.2663 15.8517 21.2236C15.8517 21.181 15.8171 21.1464 15.7745 21.1464C15.7318 21.1464 15.6973 21.181 15.6973 21.2236C15.6973 21.2663 15.7318 21.3009 15.7745 21.3009Z" fill="#FFD200"/>
<path d="M15.2548 21.5376C15.2975 21.5376 15.3321 21.503 15.3321 21.4603C15.3321 21.4177 15.2975 21.3831 15.2548 21.3831C15.2122 21.3831 15.1776 21.4177 15.1776 21.4603C15.1776 21.503 15.2122 21.5376 15.2548 21.5376Z" fill="#FFD200"/>
<path d="M15.1495 19.9917C15.1922 19.9917 15.2268 19.9571 15.2268 19.9144C15.2268 19.8718 15.1922 19.8372 15.1495 19.8372C15.1068 19.8372 15.0723 19.8718 15.0723 19.9144C15.0723 19.9571 15.1068 19.9917 15.1495 19.9917Z" fill="#FFD200"/>
<path d="M14.6311 20.2283C14.6737 20.2283 14.7083 20.1937 14.7083 20.1511C14.7083 20.1084 14.6737 20.0738 14.6311 20.0738C14.5884 20.0738 14.5538 20.1084 14.5538 20.1511C14.5538 20.1937 14.5884 20.2283 14.6311 20.2283Z" fill="#FFD200"/>
<path d="M14.4031 19.0241C14.4031 19.0241 14.3955 19.2375 14.4661 19.3586C14.5367 19.4797 14.6944 19.528 14.6944 19.528C14.6944 19.528 14.7019 19.3146 14.6314 19.1936C14.5607 19.0725 14.4031 19.0241 14.4031 19.0241Z" fill="#007A50"/>
<path d="M14.2556 19.5069C14.2556 19.5069 14.441 19.5178 14.5481 19.5999C14.6551 19.6819 14.6965 19.8528 14.6965 19.8528C14.6141 19.8572 14.5328 19.8325 14.4667 19.7833C14.3596 19.7012 14.2556 19.5069 14.2556 19.5069Z" fill="#007A50"/>
<path d="M14.8377 19.0759C14.7999 19.1691 14.7814 19.2691 14.7832 19.3697C14.7903 19.5221 14.8792 19.6938 14.8792 19.6938C14.8792 19.6938 14.9596 19.5108 14.9525 19.3584C14.9455 19.206 14.8593 19.1191 14.8377 19.0759Z" fill="#007A50"/>
<path d="M14.5251 20.4497C14.587 20.5312 14.6659 20.5982 14.7563 20.6461C14.8964 20.7154 15.1052 20.718 15.1052 20.718C15.0381 20.6343 14.955 20.5648 14.8608 20.5135C14.7207 20.4442 14.5251 20.4497 14.5251 20.4497V20.4497Z" fill="#007A50"/>
<path d="M14.5708 20.7449C14.5708 20.7449 14.6377 20.8759 14.76 20.9321C14.8824 20.9883 15.1327 20.9837 15.1327 20.9837C15.0729 20.9098 14.9985 20.849 14.9143 20.805C14.792 20.7488 14.5708 20.7449 14.5708 20.7449H14.5708Z" fill="#007A50"/>
<path d="M15.2744 20.0462C15.2298 20.1244 15.2068 20.213 15.2077 20.303C15.2149 20.4377 15.3033 20.5849 15.3033 20.5849C15.3033 20.5849 15.3654 20.4162 15.3582 20.2815C15.352 20.1969 15.323 20.1156 15.2744 20.0462Z" fill="#007A50"/>
<path d="M15.5474 20.2191C15.5474 20.2191 15.4209 20.3889 15.4027 20.5635C15.3845 20.738 15.4746 20.9174 15.4746 20.9174C15.4746 20.9174 15.6275 20.7639 15.6456 20.5894C15.6638 20.4148 15.5474 20.2191 15.5474 20.2191V20.2191Z" fill="#007A50"/>
<path d="M15.1985 21.8314C15.2124 21.8786 15.2356 21.9226 15.2666 21.9608C15.3097 22.0112 15.3577 22.0571 15.4099 22.0981C15.4739 22.0809 15.5411 22.0794 15.6059 22.0935C15.7145 22.1171 15.859 22.2138 15.859 22.2138C15.859 22.2138 15.7035 21.9818 15.5421 21.8915C15.4363 21.8371 15.3165 21.8161 15.1985 21.8314L15.1985 21.8314Z" fill="#007A50"/>
<path d="M15.1829 22.23C15.1829 22.23 15.3842 22.144 15.55 22.1662C15.7158 22.1884 15.8653 22.3194 15.8653 22.3194C15.8653 22.3194 15.6412 22.397 15.4754 22.3748C15.3662 22.3551 15.2647 22.3049 15.1829 22.23H15.1829Z" fill="#007A50"/>
<path d="M16.0331 21.2943C16.0331 21.2943 15.855 21.4829 15.8401 21.6465C15.8252 21.8102 15.9845 21.9627 15.9845 21.9627C15.9802 21.904 15.9869 21.845 16.004 21.7886C16.0267 21.7377 16.0555 21.6897 16.0898 21.6457C16.1039 21.5964 16.109 21.545 16.105 21.4939C16.0914 21.4241 16.0671 21.3567 16.0331 21.2943Z" fill="#007A50"/>
<path d="M16.2889 21.5127C16.2889 21.5127 16.1211 21.6825 16.0768 21.8643C16.0324 22.0461 16.1114 22.24 16.1114 22.24C16.1114 22.24 16.264 22.1196 16.3084 21.9378C16.3528 21.756 16.2889 21.5127 16.2889 21.5127H16.2889Z" fill="#007A50"/>
<path d="M16.7087 22.6086C16.7525 22.7014 16.7846 22.7993 16.804 22.9C16.8234 23.0327 16.8054 23.0786 16.8054 23.0786C16.8054 23.0786 16.7269 23.1559 16.6916 23.2013C16.6463 23.2597 16.6397 23.3666 16.6397 23.3666C16.6397 23.3666 16.4819 23.132 16.5062 22.9605C16.5305 22.789 16.7087 22.6086 16.7087 22.6086L16.7087 22.6086Z" fill="#007A50"/>
<path d="M17.0409 22.9759C17.0409 22.9759 16.8388 23.1093 16.7587 23.2463C16.711 23.3303 16.6971 23.4294 16.72 23.5233C16.8136 23.51 16.896 23.455 16.9442 23.3738C17.0244 23.2369 17.0409 22.9759 17.0409 22.9759L17.0409 22.9759Z" fill="#007A50"/>
<path d="M15.7143 23.5394C15.7143 23.5394 16.0055 23.5314 16.1835 23.5752C16.3615 23.6189 16.4262 23.7143 16.4262 23.7143C16.4262 23.7143 16.2261 23.808 16.0481 23.7643C15.8701 23.7206 15.7142 23.5393 15.7142 23.5393L15.7143 23.5394Z" fill="#007A50"/>
<path d="M15.6647 23.194C15.6647 23.194 15.7961 23.3977 15.9659 23.4716C16.2 23.5734 16.471 23.524 16.471 23.524C16.471 23.524 16.3238 23.3436 16.1212 23.2639C15.9185 23.1843 15.6647 23.194 15.6647 23.194L15.6647 23.194Z" fill="#007A50"/>
<path d="M25.6348 19.1948L25.6728 19.2752C25.6351 19.2893 25.6034 19.3161 25.5832 19.351C25.5554 19.4057 25.6015 19.483 25.6015 19.483C25.6015 19.483 25.2813 19.4551 25.2313 19.4876C25.186 19.5169 25.2505 19.7387 25.2206 19.9261C25.1791 20.1872 25.0762 20.1652 25.072 20.2158C25.0679 20.265 25.1114 20.3417 25.1114 20.3417C25.1114 20.3417 25.0514 20.3607 25.0386 20.3858C25.018 20.4261 25.0529 20.5006 25.028 20.5496C24.8887 20.8229 24.683 21.2264 24.547 21.4933C24.528 21.5305 24.477 21.5448 24.4514 21.5949C24.438 21.6314 24.4364 21.6713 24.4469 21.7087C24.4469 21.7087 24.3568 21.7141 24.3255 21.7755C24.3058 21.8241 24.3011 21.8774 24.3118 21.9287C24.2754 21.9352 24.244 21.9581 24.2268 21.9909C24.1969 22.0496 24.2476 22.0804 24.2345 22.1062C24.0517 22.4649 23.8364 22.8877 23.705 23.1455C23.6567 23.2403 23.4875 23.2593 23.3894 23.452C23.3332 23.558 23.3496 23.6879 23.4303 23.7766C23.4303 23.7766 23.2889 23.7894 23.2513 23.8631C23.213 23.9383 23.2433 24.0523 23.3454 24.1043C23.4475 24.1563 23.559 24.1142 23.5973 24.0391C23.6349 23.9654 23.5593 23.8434 23.5593 23.8434C23.6788 23.8555 23.7932 23.7919 23.8461 23.6841C23.9443 23.4914 23.8615 23.345 23.9098 23.2502C24.0412 22.9923 24.2565 22.5696 24.4393 22.2109C24.4525 22.1851 24.5065 22.2074 24.5364 22.1487C24.5528 22.1158 24.5528 22.077 24.5364 22.044C24.5845 22.0225 24.6252 21.9871 24.6532 21.9424C24.6845 21.881 24.6366 21.8043 24.6366 21.8043C24.6731 21.7912 24.7045 21.7668 24.7261 21.7346C24.7516 21.6844 24.7328 21.6353 24.7518 21.598C24.8878 21.3311 25.0935 20.9276 25.2328 20.6543C25.2578 20.6053 25.3381 20.5885 25.3587 20.5481C25.3715 20.523 25.3511 20.4631 25.3511 20.4631C25.3511 20.4631 25.4397 20.4544 25.477 20.4221C25.5155 20.389 25.4374 20.3179 25.6242 20.1309C25.7583 19.9967 25.9745 19.9177 25.9716 19.8638C25.9685 19.8043 25.7577 19.5619 25.7577 19.5619C25.7577 19.5619 25.8467 19.5544 25.8746 19.4997C25.891 19.4625 25.8942 19.4207 25.8837 19.3814L25.9716 19.3662L25.9717 18.949L25.6348 19.1948ZM22.7265 25.0057C22.712 25.0348 22.712 25.069 22.7265 25.0982C22.7265 25.0982 22.6203 25.065 22.5839 25.083C22.5495 25.1 22.5839 25.6004 22.5839 25.6004C22.5839 25.6004 23.0075 25.3331 23.001 25.2954C22.9942 25.2554 22.9055 25.1877 22.9055 25.1877C22.9373 25.1828 22.9649 25.1631 22.9798 25.1346C22.9938 25.1072 22.9956 25.0289 22.8994 24.9798C22.8707 24.9639 22.8381 24.9565 22.8053 24.9586C22.773 24.9607 22.7436 24.9782 22.7265 25.0057Z" fill="black"/>
<path d="M25.7125 19.2113L25.9128 19.313L25.9098 19.0717L25.7125 19.2113Z" fill="#FFD200"/>
<path d="M25.6355 19.3569C25.6002 19.4102 25.6148 19.4821 25.6681 19.5174C25.7214 19.5527 25.7932 19.5381 25.8285 19.4848C25.8638 19.4315 25.8492 19.3596 25.7959 19.3243C25.7921 19.3218 25.7882 19.3196 25.7842 19.3175C25.7641 19.3071 25.7415 19.3024 25.7189 19.3038C25.6836 19.3054 25.6519 19.3257 25.6355 19.3569Z" fill="#FFD200"/>
<path d="M25.2905 19.5405C25.2694 19.5542 25.2981 19.7345 25.292 19.8879C25.2863 20.0326 25.24 20.0734 25.2146 20.1231C25.1913 20.169 25.1069 20.2232 25.1069 20.2232L25.1767 20.293C25.1767 20.293 25.2221 20.2223 25.2935 20.0821C25.3778 19.9167 25.3751 19.6171 25.3998 19.6012C25.4644 19.5784 25.5303 19.5592 25.597 19.5435C25.597 19.5435 25.4357 19.5348 25.3467 19.5359C25.3278 19.5348 25.3089 19.5363 25.2905 19.5405Z" fill="#FFD200"/>
<path d="M25.3089 20.3735C25.3397 20.2968 25.3747 20.2219 25.4136 20.1489C25.5117 19.9563 25.7212 19.8166 25.7261 19.7818C25.7312 19.7458 25.6533 19.577 25.6533 19.577C25.6533 19.577 25.4685 19.6124 25.4423 19.6377C25.4171 19.6621 25.4282 19.9123 25.3301 20.1049C25.2936 20.1799 25.2531 20.2528 25.2087 20.3234L25.3089 20.3735Z" fill="#FFD200"/>
<path d="M25.781 19.7954C25.7825 19.8247 25.5391 19.9987 25.4548 20.164C25.3834 20.3042 25.3531 20.3825 25.3531 20.3825L25.4503 20.3977C25.4503 20.3977 25.4436 20.2979 25.467 20.252C25.4923 20.2023 25.4989 20.1415 25.6126 20.0518C25.7332 19.9567 25.8961 19.8736 25.8948 19.8484C25.8936 19.8253 25.7127 19.6012 25.7127 19.6012C25.7389 19.6647 25.7617 19.7295 25.781 19.7954Z" fill="#FFD200"/>
<path d="M25.0677 20.8772C25.214 20.5901 25.2587 20.5705 25.2771 20.5343C25.2969 20.4954 25.2921 20.4431 25.227 20.4099C25.2076 20.3991 25.1854 20.3944 25.1633 20.3963C25.1349 20.3996 25.1102 20.4174 25.0981 20.4433C25.0796 20.4795 25.0896 20.5279 24.9433 20.815L24.611 21.4659C24.5919 21.4989 24.6032 21.5412 24.6362 21.5603C24.6379 21.5612 24.6396 21.5621 24.6413 21.563C24.6733 21.5809 24.7137 21.5694 24.7316 21.5375C24.733 21.5349 24.7343 21.5323 24.7354 21.5296L25.0677 20.8772Z" fill="#FFD200"/>
<path d="M24.4806 21.6236C24.4625 21.6592 24.4935 21.7115 24.5504 21.7405C24.6073 21.7694 24.6688 21.7639 24.687 21.7283C24.7051 21.6928 24.6726 21.6405 24.6156 21.6115C24.5905 21.598 24.5622 21.5917 24.5337 21.5933C24.5119 21.5935 24.4918 21.605 24.4806 21.6236Z" fill="#FFD200"/>
<path d="M24.3573 21.8086C24.3338 21.8547 24.3705 21.9207 24.4393 21.9559C24.5081 21.9909 24.5827 21.9821 24.6061 21.9361C24.6296 21.89 24.593 21.824 24.5242 21.7889C24.5007 21.7765 24.4749 21.7693 24.4483 21.7677C24.4126 21.7624 24.3771 21.7784 24.3573 21.8086Z" fill="#FFD200"/>
<path d="M24.2799 22.0151C24.2618 22.0507 24.2929 22.1029 24.3497 22.1319C24.4066 22.1609 24.4681 22.1554 24.4863 22.1198C24.5044 22.0842 24.4733 22.032 24.4165 22.003C24.3909 21.9894 24.362 21.9831 24.3331 21.9847C24.3113 21.9849 24.2911 21.9964 24.2799 22.0151Z" fill="#FFD200"/>
<path d="M24.2295 22.2123C24.2295 22.2123 23.8606 22.9384 23.7305 23.1939C23.6889 23.2755 23.5138 23.3264 23.4452 23.4609C23.3762 23.5963 23.4249 23.723 23.515 23.7689C23.6051 23.8148 23.7373 23.7815 23.8063 23.6461C23.8749 23.5115 23.8133 23.3392 23.8548 23.2576C23.985 23.0021 24.354 22.276 24.354 22.276C24.3736 22.2439 24.3635 22.202 24.3315 22.1824C24.3294 22.1811 24.3273 22.18 24.3252 22.1789C24.3121 22.172 24.2973 22.1694 24.2827 22.1714C24.2596 22.1761 24.24 22.1912 24.2295 22.2123Z" fill="#FFD200"/>
<path d="M23.2963 23.8979C23.2686 23.9522 23.3002 24.0244 23.3675 24.0587C23.4349 24.0931 23.5129 24.0766 23.5405 24.0223C23.5682 23.9681 23.535 23.8958 23.4677 23.8615C23.4443 23.8492 23.4182 23.8429 23.3918 23.8433C23.3524 23.8426 23.3157 23.8636 23.2963 23.8979Z" fill="#FFD200"/>
<path d="M22.8054 25.0069C22.7875 25.0053 22.7702 25.0135 22.7599 25.0282C22.7458 25.0559 22.775 25.0997 22.8251 25.1253C22.8753 25.1508 22.9278 25.1485 22.942 25.1207C22.9561 25.0929 22.9269 25.0492 22.8767 25.0236C22.8547 25.0122 22.8302 25.0064 22.8054 25.0069L22.8054 25.0069Z" fill="#FFD200"/>
<path d="M22.6324 25.1434V25.5015L22.9238 25.2921C22.8605 25.1938 22.7492 25.137 22.6324 25.1434V25.1434Z" fill="#FFD200"/>
<path d="M22.8158 17.1691C22.8158 16.9727 23.0737 16.7791 23.0737 16.7791H16.7836C16.7836 16.7791 17.0415 16.9727 17.0415 17.1691V21.8512C17.0392 21.954 17.0743 22.0542 17.1401 22.1333C17.2006 22.2179 17.3295 22.3347 17.4632 22.4216C17.8764 22.6899 18.5671 22.9728 19.0897 23.2105C19.5252 23.4086 19.7023 23.4885 19.9286 23.7688C20.155 23.4885 20.3337 23.4087 20.7692 23.2105C21.2917 22.9728 21.9824 22.6899 22.3956 22.4216C22.5294 22.3347 22.6583 22.2179 22.7187 22.1333C22.7841 22.0541 22.8186 21.9538 22.8158 21.8512L22.8158 17.1691Z" fill="#FFD200"/>
<path d="M17.1889 19.8182V17.1691C17.1903 17.0826 17.1637 16.998 17.113 16.9279H22.7418C22.6911 16.998 22.6645 17.0826 22.6659 17.1691L22.6675 19.8182L19.9282 20.648L17.1889 19.8182Z" fill="#CC092F"/>
<path d="M22.6684 19.8182L20.9722 19.7863H18.886L17.1898 19.8182V21.8513C17.1898 21.9535 17.2959 22.1928 17.9075 22.4976C18.9184 23.0013 19.6954 23.2365 19.9283 23.5232C20.1612 23.2365 20.9382 23.0013 21.9492 22.4976C22.5608 22.1928 22.6668 21.9535 22.6668 21.8513L22.6684 19.8182Z" fill="#0046AE"/>
<path d="M20.9318 19.7122C20.9318 19.7122 21.9104 19.4654 21.9104 18.4195C21.9104 17.6026 20.9293 17.1974 20.9015 17.0025C20.8056 17.3398 21.2292 17.8056 21.2292 18.3573C21.2292 19.0711 20.7027 19.1053 20.7027 19.1053C20.5795 19.1053 20.5296 19.1933 20.4812 19.1933C20.3775 19.1824 20.3288 19.0506 20.2263 19.0506C20.1301 19.0506 20.0562 19.1993 19.9289 19.1993C19.8017 19.1993 19.7293 19.0506 19.6331 19.0506C19.5307 19.0506 19.4818 19.1824 19.3782 19.1933C19.3298 19.1933 19.2799 19.1053 19.1567 19.1053C19.1567 19.1053 18.6302 19.0711 18.6302 18.3573C18.6302 17.8056 19.0539 17.3397 18.9579 17.0025C18.9301 17.1974 17.9491 17.6026 17.9491 18.4195C17.9491 19.4654 18.9277 19.7122 18.9277 19.7122L18.6485 20.2204C18.6485 20.2204 19.0529 20.2406 19.2675 20.4237C19.5263 20.6444 19.5011 21.1121 19.5011 21.4524C19.5011 21.7204 19.4672 22.0033 19.3297 22.1199C19.145 22.2765 19.0201 22.2881 19.0201 22.4719C19.0201 22.6252 19.138 22.656 19.3297 22.7571C19.5753 22.8867 19.5639 23.0606 19.9289 23.0606C20.2941 23.0606 20.2841 22.8868 20.5298 22.7571C20.7214 22.656 20.8393 22.6252 20.8393 22.4719C20.8393 22.2881 20.7144 22.2765 20.5298 22.1199C20.3922 22.0032 20.3583 21.7204 20.3583 21.4524C20.3583 21.1121 20.3332 20.6444 20.592 20.4237C20.8066 20.2407 21.211 20.2204 21.211 20.2204L20.9318 19.7122Z" fill="black"/>
<path d="M19.9279 17.0751L19.7579 17.5576L19.2952 17.3376L19.5152 17.8003L19.0327 17.9718L19.5152 18.1432L19.2952 18.6044L19.7579 18.3844L19.9279 18.8669L20.0993 18.3844L20.5621 18.6044L20.3421 18.1432L20.8245 17.9718L20.3421 17.8003L20.5621 17.3376L20.0993 17.5576L19.9279 17.0751Z" fill="black"/>
<path d="M18.886 19.7865C18.886 19.7865 18.2818 19.6388 18.0561 19.3405C17.8049 19.56 17.5095 19.723 17.1898 19.8184C17.1898 19.8184 17.682 20.0406 18.0561 20.3236C18.2285 20.0766 18.886 19.7865 18.886 19.7865Z" fill="black"/>
<path d="M20.9719 19.7866C20.9719 19.7866 21.6294 20.0766 21.8019 20.3237C22.176 20.0407 22.6681 19.8185 22.6681 19.8185C22.3485 19.723 22.053 19.5601 21.8019 19.3406C21.5762 19.6389 20.9719 19.7866 20.9719 19.7866Z" fill="black"/>
<path d="M19.1337 20.4297L18.8986 20.6648L19.1337 20.9L19.3689 20.6648L19.1337 20.4297Z" fill="black"/>
<path d="M20.7251 20.4296L20.49 20.6647L20.7251 20.8999L20.9603 20.6647L20.7251 20.4296Z" fill="black"/>
<path d="M19.0745 21.8025C19.0772 21.9543 19.0676 22.106 19.0457 22.2562C19.0457 22.2562 19.3772 22.1586 19.4432 21.8223C19.4742 21.6646 19.5086 21.0838 19.3491 20.9848L18.9167 20.8998C19.0213 21.1893 19.0747 21.4948 19.0745 21.8025Z" fill="black"/>
<path d="M20.5101 20.9848C20.3506 21.0838 20.3851 21.6646 20.416 21.8223C20.482 22.1586 20.8135 22.2562 20.8135 22.2562C20.7916 22.106 20.7819 21.9543 20.7847 21.8026C20.7845 21.4948 20.8379 21.1893 20.9425 20.8998L20.5101 20.9848Z" fill="black"/>
<path d="M18.055 21.0016C17.9071 21.0372 17.8161 21.1859 17.8516 21.3337C17.8575 21.3582 17.8667 21.3817 17.879 21.4037C17.8569 21.3962 17.834 21.3917 17.8107 21.39C17.8011 21.3895 17.7915 21.3895 17.7819 21.39C17.6284 21.3965 17.5092 21.5261 17.5156 21.6796C17.5221 21.8331 17.6517 21.9523 17.8052 21.9459C17.8167 21.9454 17.8282 21.9442 17.8395 21.9423C17.826 21.9605 17.8148 21.9804 17.8062 22.0014C17.7481 22.144 17.8165 22.3067 17.9591 22.3648C18.1016 22.423 18.2643 22.3545 18.3225 22.212L18.3235 22.2093C18.3318 22.1884 18.3374 22.1664 18.3403 22.1441C18.3538 22.1627 18.3696 22.1795 18.3873 22.1941C18.5037 22.2945 18.6795 22.2814 18.7799 22.165C18.8802 22.0485 18.8672 21.8727 18.7507 21.7723C18.7316 21.7559 18.7104 21.7422 18.6876 21.7314C18.7095 21.7244 18.7304 21.7148 18.7498 21.7026C18.8801 21.6202 18.9195 21.448 18.8378 21.3172C18.7836 21.2308 18.6862 21.1812 18.5845 21.1883C18.5381 21.1914 18.4933 21.206 18.454 21.2308C18.4346 21.2427 18.4168 21.257 18.4009 21.2733C18.4002 21.1183 18.274 20.9932 18.119 20.9939C18.0974 20.994 18.076 20.9966 18.055 21.0016Z" fill="black"/>
<path d="M21.0129 21.8118C21.0431 22.0959 21.274 22.3339 21.5591 22.4019C21.5096 22.3223 21.4785 22.2326 21.4681 22.1395C21.4323 21.8025 21.6929 21.5295 22.0491 21.5295C22.1043 21.5296 22.1593 21.5362 22.213 21.5493C22.0802 21.3344 21.8465 21.2027 21.5939 21.2003C21.2378 21.2004 20.9771 21.4749 21.0129 21.8118Z" fill="black"/>
<path d="M18.4863 18.3571C18.4863 18.8944 18.7728 19.2113 19.1553 19.2113C19.2283 19.2113 19.3081 19.3099 19.3769 19.3099C19.4889 19.3099 19.5635 19.1855 19.6318 19.1855C19.7185 19.1855 19.777 19.322 19.9276 19.322C20.0782 19.322 20.1382 19.1855 20.225 19.1855C20.2932 19.1855 20.3678 19.3099 20.4798 19.3099C20.5486 19.3099 20.6284 19.2113 20.7014 19.2113C21.0839 19.2113 21.3705 18.8944 21.3705 18.3571C21.3705 17.919 21.0025 17.3848 21.0427 17.2981C21.0427 17.2981 21.7604 17.8129 21.7604 18.4193C21.7604 19.3962 20.7696 19.6376 20.7696 19.6376L20.9927 20.1398C20.9927 20.1398 20.6856 20.1858 20.4981 20.337C20.248 20.5387 20.2447 21.0836 20.2447 21.4521C20.2447 21.8863 20.2608 22.0702 20.4177 22.188C20.583 22.3122 20.7074 22.339 20.7074 22.4656C20.7074 22.576 20.5786 22.6211 20.4116 22.6947C20.2215 22.7785 20.2026 22.9238 19.9276 22.9238C19.6526 22.9238 19.6352 22.7785 19.4451 22.6947C19.2781 22.6211 19.1493 22.576 19.1493 22.4656C19.1493 22.339 19.2736 22.3122 19.439 22.188C19.5958 22.0702 19.612 21.8863 19.612 21.4521C19.612 21.0836 19.6087 20.5387 19.3586 20.337C19.1711 20.1858 18.864 20.1398 18.864 20.1398L19.087 19.6376C19.087 19.6376 18.0963 19.3962 18.0963 18.4193C18.0963 17.8129 18.814 17.2981 18.814 17.2981C18.8542 17.3848 18.4863 17.919 18.4863 18.3571ZM19.5528 22.3914C19.3582 22.3914 19.2342 22.4325 19.2342 22.4915C19.2342 22.5506 19.3582 22.5902 19.5528 22.5902C19.6047 22.5902 19.6636 22.56 19.6636 22.4915C19.6622 22.4348 19.6151 22.3898 19.5584 22.3911C19.5565 22.3911 19.5547 22.3913 19.5528 22.3914ZM20.3038 22.3914C20.2472 22.387 20.1977 22.4294 20.1933 22.486C20.1932 22.4878 20.1931 22.4897 20.1931 22.4915C20.193 22.56 20.2519 22.5902 20.3038 22.5902C20.4985 22.5902 20.6224 22.5507 20.6224 22.4915C20.6224 22.4324 20.4984 22.3914 20.3038 22.3914Z" fill="#FFD200"/>
<path d="M19.9302 17.3997L20.0395 17.7077L20.3338 17.5666L20.1942 17.8625L20.5007 17.9717L20.1942 18.081L20.3338 18.3753L20.0395 18.2357L19.9287 18.5422L19.8195 18.2357L19.5252 18.3753L19.6647 18.081L19.3583 17.9717L19.6647 17.8625L19.5252 17.5666L19.8195 17.7077L19.9302 17.3997Z" fill="#FFD200"/>
<path d="M17.4777 19.827C17.4777 19.827 17.8513 20.0131 18.0391 20.179L18.0496 20.1881L18.0557 20.1805C18.2331 19.9769 18.5624 19.8043 18.5624 19.8043C18.5624 19.8043 18.246 19.717 18.0466 19.4887C17.8358 19.7035 17.4777 19.827 17.4777 19.827Z" fill="#FFD200"/>
<path d="M22.3795 19.8275C22.3795 19.8275 22.0059 20.0136 21.8181 20.1795L21.8076 20.1886L21.8015 20.181C21.6241 19.9774 21.2948 19.8047 21.2948 19.8047C21.2948 19.8047 21.6112 19.7175 21.8106 19.4892C22.0214 19.704 22.3795 19.8275 22.3795 19.8275Z" fill="#FFD200"/>
<path d="M19.1323 20.5417L19.2552 20.6645L19.1323 20.789L19.0079 20.6645L19.1323 20.5417Z" fill="#FFD200"/>
<path d="M20.7249 20.5417L20.8494 20.6645L20.7249 20.789L20.6021 20.6645L20.7249 20.5417Z" fill="#FFD200"/>
<path d="M19.3 21.079C19.3859 21.1974 19.3713 21.389 19.3713 21.6555C19.3765 21.8069 19.2993 21.9491 19.1695 22.0272C19.1695 21.3813 19.1029 21.226 19.0679 21.0304L19.3 21.079Z" fill="#FFD200"/>
<path d="M20.7892 21.0301C20.7541 21.2257 20.6876 21.381 20.6876 22.0269C20.5578 21.9488 20.4806 21.8065 20.4858 21.6552C20.4858 21.3887 20.4712 21.1972 20.5571 21.0786L20.7892 21.0301Z" fill="#FFD200"/>
<path d="M18.3459 21.2745C18.3514 21.2979 18.353 21.322 18.3504 21.3459C18.3484 21.3646 18.3438 21.383 18.3368 21.4005C18.2152 21.3574 18.0796 21.3922 17.9939 21.4885C17.9787 21.4752 17.9654 21.4599 17.9545 21.443C17.9414 21.4235 17.9316 21.4019 17.9256 21.3793C17.8968 21.2632 17.9675 21.1457 18.0836 21.1169C18.1995 21.0881 18.3169 21.1587 18.3459 21.2745Z" fill="#FFD200"/>
<path d="M18.6692 21.6794C18.6487 21.6919 18.6262 21.7009 18.6027 21.7058C18.5843 21.7097 18.5654 21.711 18.5466 21.7097C18.55 21.5808 18.475 21.4626 18.3569 21.4108C18.3649 21.3922 18.3753 21.3749 18.388 21.3592C18.4026 21.3408 18.42 21.3249 18.4397 21.3121C18.5412 21.2488 18.6748 21.2796 18.7381 21.3811C18.8015 21.4825 18.7706 21.6161 18.6692 21.6794Z" fill="#FFD200"/>
<path d="M18.3843 22.1121C18.3661 22.0964 18.3506 22.0778 18.3387 22.057C18.3293 22.0407 18.3222 22.0231 18.3176 22.0048C18.4413 21.9683 18.5305 21.8604 18.5433 21.7321C18.5634 21.7339 18.5831 21.7385 18.6019 21.7457C18.624 21.7538 18.6445 21.7655 18.6627 21.7803C18.7541 21.8575 18.7657 21.9941 18.6886 22.0855C18.6117 22.1766 18.4757 22.1884 18.3843 22.1121Z" fill="#FFD200"/>
<path d="M17.8842 21.9748C17.8934 21.9526 17.9064 21.9322 17.9225 21.9144C17.9351 21.9004 17.9496 21.8882 17.9656 21.8782C18.0386 21.9846 18.1687 22.0361 18.2947 22.0086C18.2992 22.0282 18.3009 22.0484 18.2998 22.0686C18.299 22.092 18.2942 22.1152 18.2857 22.1371C18.2408 22.2479 18.1146 22.3014 18.0037 22.2565C17.893 22.2116 17.8395 22.0856 17.8842 21.9748Z" fill="#FFD200"/>
<path d="M17.8615 21.4571C17.8854 21.459 17.9089 21.465 17.9308 21.4748C17.948 21.4825 17.964 21.4926 17.9785 21.5047C17.8999 21.607 17.8911 21.7466 17.9562 21.858C17.9389 21.8683 17.9202 21.8762 17.9007 21.8814C17.8782 21.8878 17.8547 21.8904 17.8312 21.8891C17.7119 21.8807 17.6221 21.7771 17.6306 21.6578C17.639 21.5387 17.7424 21.4489 17.8615 21.4571Z" fill="#FFD200"/>
<path d="M18.2288 21.9089C18.3444 21.9089 18.4382 21.8151 18.4382 21.6995C18.4382 21.5839 18.3444 21.4901 18.2288 21.4901C18.1132 21.4901 18.0194 21.5839 18.0194 21.6995C18.0194 21.8151 18.1132 21.9089 18.2288 21.9089Z" fill="#FFD200"/>
<path d="M21.9051 21.4173C21.5575 21.4845 21.3073 21.7916 21.3437 22.1501C21.2329 22.0584 21.1519 21.9348 21.1374 21.7981C21.1092 21.532 21.3025 21.3263 21.594 21.3263C21.7041 21.3273 21.8118 21.3588 21.9051 21.4173Z" fill="#FFD200"/>
<path d="M22.9503 16.826H16.9061C16.9862 16.9067 17.088 17.0354 17.088 17.1689V21.235H17.0878V21.851H17.088C17.0871 21.8992 17.0948 21.9473 17.1109 21.9927C17.1265 22.0331 17.1481 22.0708 17.1752 22.1045L17.1763 22.106C17.2352 22.1811 17.3036 22.2482 17.3799 22.3056C17.3971 22.3191 17.4147 22.3324 17.4325 22.3451C17.4498 22.3575 17.4678 22.3699 17.4864 22.3819L17.4868 22.3822C17.8085 22.591 18.304 22.8106 18.7542 23.01C18.8797 23.0656 19.0022 23.1199 19.1068 23.1674L19.1069 23.1676L19.1169 23.1721H19.1171C19.5292 23.3596 19.7129 23.4432 19.9281 23.6952C20.1439 23.4423 20.3271 23.359 20.743 23.1698L20.743 23.1697L20.7477 23.1676C20.8525 23.1199 20.9747 23.0658 21.1002 23.0102C21.5505 22.8108 22.0461 22.5912 22.3678 22.3823L22.3681 22.3821C22.4583 22.3234 22.5419 22.255 22.6173 22.1782C22.6295 22.1654 22.6411 22.1527 22.6515 22.1404C22.6613 22.1288 22.6704 22.1173 22.6784 22.106L22.6791 22.1053L22.6793 22.1051L22.6797 22.1045C22.7069 22.0706 22.7289 22.0328 22.7449 21.9924C22.7613 21.9471 22.7692 21.8992 22.7683 21.851H22.7685V21.235H22.7683V17.1689C22.7683 17.0355 22.8701 16.9067 22.9503 16.826L22.9503 16.826ZM22.8625 17.1689V21.235H22.8623V21.851H22.8625C22.8634 21.9105 22.8533 21.9696 22.8327 22.0254C22.8137 22.0742 22.7874 22.1198 22.7548 22.1607L22.7549 22.1608C22.746 22.1732 22.7353 22.1868 22.7232 22.201C22.7118 22.2145 22.6989 22.2287 22.6849 22.2432C22.6046 22.3253 22.5155 22.3982 22.4192 22.4608L22.4189 22.461C22.0902 22.6744 21.5914 22.8955 21.1381 23.0962C21.0195 23.1487 20.9041 23.1999 20.7867 23.2533L20.7819 23.2554H20.7818C20.357 23.4487 20.1832 23.5277 19.9648 23.7982L19.9282 23.8434L19.8916 23.7982C19.6742 23.5289 19.4994 23.4494 19.0782 23.2578L19.0782 23.2577L19.0683 23.2533L19.068 23.2531L19.0678 23.253L19.0678 23.2531C18.9501 23.1996 18.8349 23.1486 18.7163 23.096C18.2631 22.8953 17.7643 22.6743 17.4356 22.4608L17.4345 22.4601L17.4342 22.4599L17.4342 22.4598C17.4157 22.4478 17.3967 22.4349 17.3777 22.4212C17.3588 22.4076 17.3402 22.3937 17.3221 22.3795C17.2388 22.3165 17.164 22.2428 17.0998 22.1604C17.0673 22.1195 17.0413 22.0739 17.0227 22.0251C17.0027 21.9693 16.9929 21.9103 16.9939 21.851H16.9941V21.235H16.9939V17.1689C16.9939 16.9958 16.7556 16.817 16.7549 16.8165V16.7319H23.1015V16.8165C23.1008 16.817 22.8625 16.9958 22.8625 17.1689ZM22.7201 16.8808L22.7203 16.8806H22.7426L22.84 16.8806L22.7792 16.9569C22.735 17.0186 22.712 17.093 22.7138 17.1689V21.235H22.7136V21.851H22.7138C22.7138 21.9343 22.6555 22.0952 22.3809 22.2957L22.381 22.2958C22.3297 22.3333 22.2704 22.3725 22.2022 22.4132C22.1335 22.4542 22.0567 22.4963 21.971 22.539L21.9709 22.5388L21.9701 22.5393V22.5395C21.6032 22.7222 21.2644 22.8708 20.972 22.9991C20.4696 23.2194 20.1057 23.379 19.9647 23.5524L19.964 23.5533L19.9638 23.5535L19.9272 23.5962L19.8918 23.5526C19.7508 23.3791 19.3869 23.2194 18.8843 22.999C18.592 22.8709 18.2535 22.7224 17.887 22.5398V22.5396L17.8864 22.5393L17.8863 22.5394C17.6262 22.4099 17.4552 22.2911 17.344 22.189C17.3221 22.1688 17.3024 22.1492 17.2849 22.1304C17.172 22.0091 17.1428 21.9111 17.1427 21.8512H17.1426V21.851H17.1427V21.235H17.1426V17.1689C17.1443 17.093 17.1214 17.0186 17.0772 16.9569L17.0163 16.8808H17.2185V16.8806H22.6379V16.8808L22.7201 16.8808ZM22.6379 16.9745V16.9747H17.2184V16.9745H17.195C17.2225 17.0356 17.2367 17.1019 17.2367 17.1689V21.235H17.2365V21.851H17.2367V21.8512H17.2365C17.2365 21.8935 17.2606 21.9664 17.3536 22.0664C17.3696 22.0836 17.3876 22.1015 17.4076 22.1199C17.5128 22.2165 17.6766 22.3299 17.9282 22.4552V22.4554L17.9288 22.4557L17.9289 22.4556C18.2976 22.6392 18.6325 22.7862 18.9218 22.913C19.4 23.1227 19.7556 23.2786 19.9282 23.453C20.1008 23.2787 20.4564 23.1227 20.9345 22.9131C21.2239 22.7861 21.5592 22.6391 21.9282 22.4552L21.9282 22.4554L21.9291 22.4549V22.4547C22.0145 22.4122 22.0891 22.3714 22.154 22.3327C22.2194 22.2937 22.2763 22.256 22.3255 22.22H22.3257C22.5682 22.043 22.6197 21.9147 22.6197 21.851H22.6199V21.235H22.6197V17.1689C22.6196 17.1019 22.6338 17.0356 22.6614 16.9745L22.6379 16.9745Z" fill="black"/>
</g>
<defs>
<clipPath id="clip0_1_2864">
<rect width="40" height="40" rx="20" fill="white"/>
</clipPath>
</defs>
</svg>
