<svg width="40" height="40" viewBox="0 0 40 40" fill="none" xmlns="http://www.w3.org/2000/svg">
<g clip-path="url(#clip0_1_5735)">
<path d="M-10 -0.332916H50V39.6653H-10V-0.332916Z" fill="#DA2032"/>
<path d="M14 -1H26V40H14V-1Z" fill="#0066B3"/>
<path d="M7.63565 19.6078C8.63918 19.6078 9.4527 18.7942 9.4527 17.7907C9.4527 16.7872 8.63918 15.9737 7.63565 15.9737C6.63212 15.9737 5.8186 16.7872 5.8186 17.7907C5.8186 18.7942 6.63212 19.6078 7.63565 19.6078Z" fill="#FFD900"/>
<path d="M7.63458 18.9474C8.72934 18.9474 9.61682 18.0599 9.61682 16.9651C9.61682 15.8704 8.72934 14.9829 7.63458 14.9829C6.53982 14.9829 5.65234 15.8704 5.65234 16.9651C5.65234 18.0599 6.53982 18.9474 7.63458 18.9474Z" fill="#DA2032"/>
<path d="M7.63594 18.6166C8.36578 18.6166 8.95744 18.025 8.95744 17.2951C8.95744 16.5653 8.36578 15.9736 7.63594 15.9736C6.9061 15.9736 6.31445 16.5653 6.31445 17.2951C6.31445 18.025 6.9061 18.6166 7.63594 18.6166Z" fill="#FFD900"/>
<path d="M7.77297 13.0004C7.60878 13.0749 7.54743 13.2092 7.53421 13.343C7.52595 13.4557 7.57567 13.5826 7.58063 13.6928C7.58063 13.8824 7.38445 13.9448 7.38445 14.2154C7.38445 14.3084 7.47035 14.4109 7.47035 14.6523C7.45548 14.779 7.38478 14.8076 7.30516 14.8175C7.26135 14.8175 7.21934 14.8001 7.18836 14.7691C7.15738 14.7381 7.13998 14.6961 7.13998 14.6523C7.1401 14.6099 7.15648 14.5692 7.18573 14.5386C7.19095 14.5327 7.19658 14.5272 7.20258 14.5221C7.24025 14.4841 7.29195 14.4694 7.29162 14.3691C7.29162 14.3176 7.25825 14.2707 7.22637 14.1794C7.19631 14.0909 7.21811 13.9429 7.28964 13.8555C7.17401 13.9001 7.10274 14.011 7.0664 14.1104C7.02808 14.2326 7.06145 14.303 7.00892 14.4046C6.97687 14.4704 6.93871 14.4976 6.90254 14.5525C6.85976 14.6123 6.80954 14.7521 6.80954 14.817C6.80954 15.0361 6.89656 15.2462 7.05145 15.4011C7.20634 15.5559 7.41642 15.643 7.63547 15.643C7.85452 15.643 8.0646 15.5559 8.21949 15.4011C8.37438 15.2462 8.4614 15.0361 8.4614 14.817C8.4614 14.7521 8.41185 14.6123 8.36906 14.5525C8.33289 14.4976 8.29407 14.4704 8.26202 14.4046C8.21015 14.303 8.24352 14.2326 8.2052 14.1104C8.16886 14.011 8.0975 13.9002 7.98193 13.8555C8.05346 13.9429 8.07526 14.0909 8.0452 14.1794C8.01315 14.2706 7.97945 14.3175 7.97945 14.3691C7.97945 14.4694 8.03083 14.4841 8.06849 14.5221C8.07449 14.5272 8.08012 14.5327 8.08534 14.5386C8.1146 14.5692 8.13098 14.6099 8.1311 14.6523C8.1311 14.6961 8.11369 14.7381 8.08271 14.7691C8.05174 14.8001 8.00972 14.8175 7.96591 14.8175C7.87456 14.8059 7.80898 14.7633 7.80072 14.6523C7.80072 14.3343 7.93684 14.314 7.93684 14.0787C7.93684 13.7426 7.6355 13.5836 7.6355 13.3379C7.6355 13.2546 7.655 13.1127 7.77294 13L7.77297 13.0004ZM4 19.9382H5.65186V27.8672H4V19.9382ZM9.61634 19.9382H11.2682V27.8672H9.61634V19.9382ZM5.98224 19.9382H9.28596L7.6341 20.9294L5.98224 19.9382ZM5.98224 21.2597H9.28596V21.9205H5.98224V21.2597ZM5.98224 25.885H9.28596V26.5457H5.98224V25.885ZM5.98224 26.8761H9.28596L7.6341 27.8672L5.98224 26.8761Z" fill="#FFD900"/>
<path d="M7.63429 25.5547C8.54658 25.5547 9.28615 24.8151 9.28615 23.9028C9.28615 22.9905 8.54658 22.251 7.63429 22.251C6.72199 22.251 5.98242 22.9905 5.98242 23.9028C5.98242 24.8151 6.72199 25.5547 7.63429 25.5547Z" fill="#FFD900"/>
<path d="M7.63506 23.357C7.81752 23.357 7.96543 23.2091 7.96543 23.0267C7.96543 22.8442 7.81752 22.6963 7.63506 22.6963C7.4526 22.6963 7.30469 22.8442 7.30469 23.0267C7.30469 23.2091 7.4526 23.357 7.63506 23.357Z" fill="#DA2032"/>
<path d="M7.63506 25.108C7.81752 25.108 7.96543 24.9601 7.96543 24.7776C7.96543 24.5952 7.81752 24.4473 7.63506 24.4473C7.4526 24.4473 7.30469 24.5952 7.30469 24.7776C7.30469 24.9601 7.4526 25.108 7.63506 25.108Z" fill="#DA2032"/>
<path d="M7.63476 22.0522C7.89324 22.0522 8.14113 22.1549 8.3239 22.3377C8.50667 22.5205 8.60936 22.7684 8.60936 23.0268C8.60936 23.2853 8.50667 23.5332 8.3239 23.716C8.14113 23.8988 7.89324 24.0014 7.63476 24.0014C7.42885 24.0014 7.23137 24.0832 7.08578 24.2288C6.94018 24.3744 6.85838 24.5719 6.85838 24.7778C6.85838 24.9837 6.94018 25.1812 7.08578 25.3268C7.23137 25.4724 7.42885 25.5542 7.63476 25.5542V25.7524C7.37628 25.7524 7.12838 25.6497 6.94561 25.467C6.76284 25.2842 6.66016 25.0363 6.66016 24.7778C6.66016 24.5193 6.76284 24.2714 6.94561 24.0887C7.12838 23.9059 7.37628 23.8032 7.63476 23.8032C7.84066 23.8032 8.03814 23.7214 8.18374 23.5758C8.32934 23.4302 8.41113 23.2328 8.41113 23.0268C8.41113 22.8209 8.32934 22.6235 8.18374 22.4779C8.03814 22.3323 7.84066 22.2505 7.63476 22.2505V22.0522Z" fill="#DA2032"/>
</g>
<defs>
<clipPath id="clip0_1_5735">
<rect width="40" height="40" rx="20" fill="white"/>
</clipPath>
</defs>
</svg>
