<svg width="40" height="40" viewBox="0 0 40 40" fill="none" xmlns="http://www.w3.org/2000/svg">
<g clip-path="url(#clip0_1_16101)">
<path d="M63 0H3V40H63V0Z" fill="black"/>
<path d="M63 0H3V13.75H63V0Z" fill="white"/>
<path d="M63 0H3V12.5H63V0Z" fill="#009639"/>
<path d="M63 26.2333H3V39.9999H63V26.2333Z" fill="white"/>
<path d="M63 27.5H3V40H63V27.5Z" fill="#FFD100"/>
<path d="M0 -2.28571V42.2857L29.25 20L0 -2.28571Z" fill="#E4002B"/>
<path d="M16.624 27.4989L11.7471 23.9282L6.87675 27.4999L8.76558 21.7582L3.86371 18.23L9.90801 18.2521L11.7488 12.4999L13.5956 18.2552L19.6351 18.2283L14.7322 21.7632L16.624 27.4989Z" fill="#FFD100"/>
<path fill-rule="evenodd" clip-rule="evenodd" d="M7.51392 23.4952H11.0272C11.3099 23.8123 11.9406 23.9417 12.5413 23.4915C13.6424 22.8885 15.7728 23.4952 15.7728 23.4952L16.1923 23.0495L15.1697 19.6936L14.8026 19.3003C14.8026 19.3003 14.0161 18.8284 12.5216 18.9857C11.0272 19.143 10.5028 18.9333 10.5028 18.9333C10.5028 18.9333 9.1919 19.0906 8.82484 19.2741C8.78449 19.3068 8.40534 19.6936 8.40534 19.6936L7.51392 23.4952Z" fill="white" stroke="black" stroke-width="0.104977" stroke-linecap="round" stroke-linejoin="round"/>
<path d="M8.2229 22.63C8.2229 22.63 11.5788 22.2105 12.549 23.4952C12.0011 23.8701 11.5187 23.901 11.0021 23.5215C11.0844 23.3843 12.2081 22.2105 15.0659 22.6038" stroke="black" stroke-width="0.104977" stroke-linecap="round" stroke-linejoin="round"/>
<path d="M11.8135 19.2741L11.7873 22.971L11.8135 19.2741ZM14.8024 19.3265L15.4317 22.263L14.8024 19.3265ZM8.85923 19.2804L8.51001 20.7948L8.85923 19.2804Z" fill="black"/>
<path d="M11.8135 19.2741L11.7873 22.971M14.8024 19.3265L15.4317 22.263M8.85923 19.2804L8.51001 20.7948" stroke="black" stroke-width="0.104977" stroke-linecap="round" stroke-linejoin="round"/>
<path fill-rule="evenodd" clip-rule="evenodd" d="M5.23267 23.8977L6.05889 24.8664C6.15591 24.9243 6.2421 24.9206 6.32828 24.8664L7.55277 23.3971L8.06705 22.7603C8.14668 22.666 8.1721 22.5608 8.16501 22.4665L9.14821 21.5928C9.22864 21.5984 9.27654 21.6074 9.35697 21.6129C9.26194 21.5883 9.19222 21.542 9.26704 21.4379L9.48743 21.2665L9.65884 21.4868C9.65884 21.4868 9.41398 21.8052 9.38949 21.8052H9.12011L8.60582 22.2706L8.83064 22.4693L9.16909 23.3971L9.58544 23.1031L9.31602 22.1481L9.90381 21.5114L9.68336 21.1685L9.83033 20.9725C9.83033 20.9725 11.8645 22.2533 12.6482 21.9104C12.6694 21.9181 12.6956 20.9971 12.6956 20.9971C12.6956 20.9971 10.5895 20.7767 10.5405 20.3603C10.4915 19.944 11.0058 19.8951 11.0058 19.8951L10.7854 19.5767L10.8344 19.4052L11.2017 19.8705L12.0344 19.1603L16.9323 24.744C17.1997 24.6356 17.2568 24.5701 17.2752 24.3032C17.2683 24.2964 12.4752 18.793 12.4752 18.793L12.8426 18.4012C12.915 18.3196 12.9404 18.2849 12.9405 18.1562L13.5038 17.6665C13.6731 17.7247 13.7811 17.8262 13.8711 17.9603L15.4196 16.6479C15.4604 16.6887 15.5844 16.7296 15.6685 16.6837L18.2287 14.2263L15.4384 16.1971L15.3405 16.1236C15.3405 16.042 15.4417 16.0218 15.3405 15.8787C15.2321 15.7486 15.0711 16.0012 15.0467 16.0012C15.0221 16.0012 14.6428 15.8671 14.5597 15.6973L14.5324 16.1481L13.8221 16.8093L13.2834 16.7848L12.4997 17.544L12.4018 17.8379L12.5242 18.0828C12.5242 18.0828 12.1078 18.4502 12.1078 18.4256C12.1078 18.4012 12.0237 18.3174 12.0201 18.3066L12.3772 17.9848L12.4262 17.7644L12.307 17.5783C12.2709 17.6046 11.814 18.0828 11.7894 18.0338C11.7486 17.9881 10.4671 16.5399 10.4671 16.5399L10.5405 16.2706L9.70789 15.3644C9.40434 15.2596 8.92419 15.242 8.82623 15.9032C8.74995 16.0585 8.11603 15.9277 8.11603 15.9277L7.77317 16.0012L5.83848 18.744L6.91603 20.0419L9.12011 17.2501L9.18554 16.4592L9.64801 16.9763C9.8022 16.9961 9.94908 16.9979 10.0888 16.9274L11.3946 18.3849L11.1772 18.597C11.2507 18.6787 11.3013 18.7308 11.3747 18.8125C11.4482 18.7635 11.5184 18.7047 11.5918 18.6557C11.6164 18.6884 11.6572 18.7505 11.6817 18.7831C11.5723 18.8427 11.4955 18.922 11.3861 18.9815C11.211 18.8674 11.0419 18.7253 11.0548 18.4991L10.3201 19.1113L10.2956 19.2338L8.11603 21.046L7.92011 21.0705L7.87113 21.6338L9.29153 20.4583V20.2868L9.43847 20.4093L10.5405 19.5277C10.5405 19.5277 10.614 19.6256 10.5895 19.6256C10.565 19.6256 9.60988 20.5073 9.60988 20.5073L9.58544 20.6052L9.41398 20.7522L9.31602 20.6787L7.99358 21.8542H7.79766L7.06297 22.5889C6.87348 22.6054 6.70928 22.6255 6.54869 22.7358L5.23267 23.8977Z" fill="black" stroke="black" stroke-width="0.104977" stroke-linecap="round" stroke-linejoin="round"/>
</g>
<defs>
<clipPath id="clip0_1_16101">
<rect width="40" height="40" rx="20" fill="white"/>
</clipPath>
</defs>
</svg>
