<svg width="40" height="40" viewBox="0 0 40 40" fill="none" xmlns="http://www.w3.org/2000/svg">
<g clip-path="url(#clip0_1_16115)">
<path d="M0 40V0H60L0 40Z" fill="#003580"/>
<path d="M60 0V40H0L60 0Z" fill="#009543"/>
<mask id="mask0_1_16115" style="mask-type:luminance" maskUnits="userSpaceOnUse" x="0" y="0" width="60" height="40">
<path d="M0 0H60V40H0V0Z" fill="white"/>
</mask>
<g mask="url(#mask0_1_16115)">
<path d="M0 40L60 0" stroke="white" stroke-width="13.3333"/>
<path d="M0 40L60 0" stroke="#D21034" stroke-width="10"/>
</g>
<path d="M13.0007 5.22754L14.036 8.03087L16.334 6.12087L15.8293 9.06621L18.774 8.56087L16.8647 10.8595L19.6673 11.8942L16.8647 12.9295L18.774 15.2275L15.8293 14.7229L16.334 17.6682L14.036 15.7582L13.0007 18.5609L11.9653 15.7582L9.66732 17.6682L10.172 14.7229L7.22732 15.2275L9.13665 12.9295L6.33398 11.8942L9.13665 10.8595L7.22732 8.56087L10.172 9.06621L9.66732 6.12087L11.9653 8.03087L13.0007 5.22754Z" fill="#FFCE00"/>
<path d="M12.9987 15.5609C15.0237 15.5609 16.6654 13.9193 16.6654 11.8942C16.6654 9.86916 15.0237 8.22754 12.9987 8.22754C10.9737 8.22754 9.33203 9.86916 9.33203 11.8942C9.33203 13.9193 10.9737 15.5609 12.9987 15.5609Z" stroke="#003580" stroke-width="0.666667"/>
</g>
<defs>
<clipPath id="clip0_1_16115">
<rect width="40" height="40" rx="20" fill="white"/>
</clipPath>
</defs>
</svg>
