<svg width="40" height="40" viewBox="0 0 40 40" fill="none" xmlns="http://www.w3.org/2000/svg">
<g clip-path="url(#clip0_1_14849)">
<path d="M50 0H-10V40.0002H50V0Z" fill="#002B7F"/>
<path d="M49.9998 18.3333H-10V21.6667H49.9998V18.3333Z" fill="#FFC61E"/>
<path d="M19.6667 35.0004L18.804 31.5534L16.3333 34.1072L17.3097 30.6907L13.8932 31.667L16.4469 29.1964L13 28.3337L16.4469 27.4709L13.8932 25.0003L17.3097 25.9766L16.3333 22.5602L18.804 25.1139L19.6667 21.667L20.5294 25.1139L23 22.5602L22.0237 25.9766L25.4402 25.0003L22.8865 27.4709L26.3334 28.3337L22.8865 29.1964L25.4402 31.667L22.0237 30.6907L23 34.1072L20.5294 31.5534L19.6667 35.0004Z" fill="white"/>
</g>
<defs>
<clipPath id="clip0_1_14849">
<rect width="40" height="40" rx="20" fill="white"/>
</clipPath>
</defs>
</svg>
