<svg width="40" height="40" viewBox="0 0 40 40" fill="none" xmlns="http://www.w3.org/2000/svg">
<path d="M8.18384 19.3632H35.6923L8.18384 2.13834V38.8162H35.6923L8.18384 11.3078V19.3632Z" fill="#DC143C" stroke="#003893" stroke-width="2.36802"/>
<path d="M8.18384 19.3632H35.6923L8.18384 2.13834V38.8162H35.6923L8.18384 11.3078V19.3632Z" fill="#DC143C"/>
<path d="M15.0606 18.382C18.0866 18.382 20.5394 15.9292 20.5394 12.9033C20.063 14.1156 19.1969 15.135 18.0774 15.8008L17.6097 15.4524L18.5267 14.7647L17.4172 14.4804L18.004 13.4855L16.8578 13.6506L17.0275 12.5136L16.0326 13.1096L15.7483 11.9863L15.0606 12.9033L14.3729 11.9863L14.0841 13.105L13.0938 12.5182L13.2634 13.6643L12.1172 13.4947L12.7132 14.4896L11.5946 14.7738L12.5115 15.4616L12.053 15.8146C10.9665 15.1727 10.0816 14.1824 9.58645 12.917C9.58645 15.943 12.0393 18.3958 15.0652 18.3958L15.0606 18.382ZM12.4198 26.4512L9.9624 26.1486L11.4524 28.12L9.17383 29.092L11.4524 30.0548L9.9624 32.0262L12.4198 31.7236L12.1172 34.1856L14.0887 32.6956L15.0606 34.9788L16.0234 32.6956L18.004 34.1902L17.7014 31.7328L20.1589 32.04L18.6688 30.0685L20.9474 29.1057L18.6688 28.1338L20.1589 26.1623L17.7014 26.4603L18.004 24.0029L16.0326 25.493L15.0606 23.2052L14.0978 25.4838L12.1172 23.9938L12.4198 26.4512Z" fill="white"/>
</svg>
