<svg width="40" height="40" viewBox="0 0 40 40" fill="none" xmlns="http://www.w3.org/2000/svg">
<rect width="40" height="40" rx="20" fill="#012169"/>
<path d="M40 6.66681H0V33.3335H40V6.66681Z" fill="#012169"/>
<mask id="mask0_1_14853" style="mask-type:luminance" maskUnits="userSpaceOnUse" x="0" y="6" width="20" height="15">
<path d="M0 6.66681H20V20.0001H0V6.66681Z" fill="white"/>
</mask>
<g mask="url(#mask0_1_14853)">
<path d="M0 6.66681L20 20.0001L0 6.66681ZM0 20.0001L20 6.66681L0 20.0001Z" fill="black"/>
<path d="M0 6.66681L20 20.0001M0 20.0001L20 6.66681" stroke="white" stroke-width="2.3094"/>
</g>
<mask id="mask1_1_14853" style="mask-type:luminance" maskUnits="userSpaceOnUse" x="0" y="6" width="20" height="15">
<path d="M0 6.66681L10 13.3335H0V6.66681ZM10 6.66681H20L10 13.3335V6.66681ZM10 13.3335H20V20.0001L10 13.3335ZM10 13.3335V20.0001H0L10 13.3335Z" fill="white"/>
</mask>
<g mask="url(#mask1_1_14853)">
<path d="M0 6.66681L20 20.0001L0 6.66681ZM0 20.0001L20 6.66681L0 20.0001Z" fill="black"/>
<path d="M0 6.66681L20 20.0001M0 20.0001L20 6.66681" stroke="#C8102E" stroke-width="1.5396"/>
</g>
<mask id="mask2_1_14853" style="mask-type:luminance" maskUnits="userSpaceOnUse" x="0" y="6" width="20" height="15">
<path d="M0 6.66681H20V20.0001H0V6.66681Z" fill="white"/>
</mask>
<g mask="url(#mask2_1_14853)">
<path d="M10 6.66681V20.0001V6.66681ZM0 13.3335H20H0Z" fill="black"/>
<path d="M10 6.66681V20.0001M0 13.3335H20" stroke="white" stroke-width="3.849"/>
</g>
<mask id="mask3_1_14853" style="mask-type:luminance" maskUnits="userSpaceOnUse" x="0" y="6" width="20" height="15">
<path d="M0 6.66681H20V20.0001H0V6.66681Z" fill="white"/>
</mask>
<g mask="url(#mask3_1_14853)">
<path d="M10 6.66681V20.0001V6.66681ZM0 13.3335H20H0Z" fill="black"/>
<path d="M10 6.66681V20.0001M0 13.3335H20" stroke="#C8102E" stroke-width="2.3094"/>
</g>
<path d="M30.6133 11.5931V12.602L32.6311 11.5931H30.6133Z" fill="white"/>
<path d="M30.9993 12.7789L30.4062 11.9627L32.6317 11.5929L30.9993 12.7789Z" fill="white"/>
<path d="M30.6133 11.5931V12.602L28.5955 11.5931H30.6133Z" fill="white"/>
<path d="M30.2273 12.7789L30.8203 11.9627L28.5949 11.5929L30.2273 12.7789Z" fill="white"/>
<path d="M31.2207 12.0511L30.2612 12.3629L31.8442 13.9701L31.2207 12.0511Z" fill="white"/>
<path d="M30.2136 12.7838L30.8066 11.9676L31.846 13.9698L30.2136 12.7838Z" fill="white"/>
<path d="M29.9901 12.0506L30.9496 12.3624L30.6136 10.1316L29.9901 12.0506Z" fill="white"/>
<path d="M31.2348 12.0504L30.2753 12.3621L30.6113 10.1313L31.2348 12.0504Z" fill="white"/>
<path d="M29.9921 12.0506L30.9516 12.3624L29.3685 13.9696L29.9921 12.0506Z" fill="white"/>
<path d="M31.0011 12.7833L30.4081 11.9671L29.3687 13.9693L31.0011 12.7833Z" fill="white"/>
<path d="M30.6133 11.8143V12.4809L31.9466 11.8143H30.6133Z" fill="#C8102E"/>
<path d="M30.8684 12.5982L30.4766 12.0589L31.9471 11.8145L30.8684 12.5982Z" fill="#C8102E"/>
<path d="M30.6133 11.8143V12.4809L29.2799 11.8143H30.6133Z" fill="#C8102E"/>
<path d="M30.3581 12.5982L30.75 12.0589L29.2795 11.8145L30.3581 12.5982Z" fill="#C8102E"/>
<path d="M31.0254 12.1146L30.3914 12.3206L31.4374 13.3826L31.0254 12.1146Z" fill="#C8102E"/>
<path d="M30.3601 12.5987L30.752 12.0594L31.4388 13.3824L30.3601 12.5987Z" fill="#C8102E"/>
<path d="M30.2051 12.1146L30.8391 12.3206L30.6171 10.8465L30.2051 12.1146Z" fill="#C8102E"/>
<path d="M31.0286 12.1146L30.3945 12.3206L30.6165 10.8465L31.0286 12.1146Z" fill="#C8102E"/>
<path d="M30.207 12.1146L30.8411 12.3206L29.795 13.3826L30.207 12.1146Z" fill="#C8102E"/>
<path d="M30.8723 12.5987L30.4805 12.0594L29.7936 13.3824L30.8723 12.5987Z" fill="#C8102E"/>
<path d="M35.8887 16.2566L35.8887 17.1544L37.6842 16.2566L35.8887 16.2566Z" fill="white"/>
<path d="M36.2328 17.3124L35.7051 16.5861L37.6854 16.257L36.2328 17.3124Z" fill="white"/>
<path d="M35.8906 16.2566L35.8906 17.1544L34.0951 16.2566L35.8906 16.2566Z" fill="white"/>
<path d="M35.5465 17.3123L36.0742 16.5859L34.0939 16.2569L35.5465 17.3123Z" fill="white"/>
<path d="M36.4453 16.6594L35.5915 16.9369L37.0002 18.3671L36.4453 16.6594Z" fill="white"/>
<path d="M35.5466 17.3119L36.0743 16.5856L36.9993 18.3674L35.5466 17.3119Z" fill="white"/>
<path d="M35.3359 16.6599L36.1898 16.9373L35.8908 14.9522L35.3359 16.6599Z" fill="white"/>
<path d="M36.4455 16.6598L35.5917 16.9372L35.8907 14.9521L36.4455 16.6598Z" fill="white"/>
<path d="M35.3379 16.6595L36.1917 16.9369L34.783 18.3672L35.3379 16.6595Z" fill="white"/>
<path d="M36.2347 17.312L35.707 16.5857L34.7821 18.3674L36.2347 17.312Z" fill="white"/>
<path d="M35.8906 16.4788L35.8906 17.0343L37.0017 16.4788L35.8906 16.4788Z" fill="#C8102E"/>
<path d="M36.1039 17.1316L35.7773 16.6821L37.0028 16.4785L36.1039 17.1316Z" fill="#C8102E"/>
<path d="M35.8926 16.4783L35.8926 17.0339L34.7815 16.4783L35.8926 16.4783Z" fill="#C8102E"/>
<path d="M35.6793 17.1312L36.0059 16.6817L34.7804 16.4781L35.6793 17.1312Z" fill="#C8102E"/>
<path d="M36.2344 16.7282L35.706 16.8999L36.5777 17.7849L36.2344 16.7282Z" fill="#C8102E"/>
<path d="M35.6793 17.1315L36.0059 16.682L36.5782 17.7846L35.6793 17.1315Z" fill="#C8102E"/>
<path d="M35.5469 16.7282L36.0752 16.8999L35.8902 15.6715L35.5469 16.7282Z" fill="#C8102E"/>
<path d="M36.2334 16.7286L35.7051 16.9003L35.8901 15.6719L36.2334 16.7286Z" fill="#C8102E"/>
<path d="M35.5469 16.7278L36.0752 16.8995L35.2035 17.7846L35.5469 16.7278Z" fill="#C8102E"/>
<path d="M36.1019 17.1316L35.7754 16.6821L35.203 17.7847L36.1019 17.1316Z" fill="#C8102E"/>
<path d="M24.457 17.7914L24.457 18.8003L26.4748 17.7914L24.457 17.7914Z" fill="white"/>
<path d="M24.843 18.9772L24.25 18.161L26.4754 17.7912L24.843 18.9772Z" fill="white"/>
<path d="M24.457 17.7914L24.457 18.8003L22.4393 17.7914L24.457 17.7914Z" fill="white"/>
<path d="M24.0711 18.9772L24.6641 18.161L22.4386 17.7912L24.0711 18.9772Z" fill="white"/>
<path d="M25.0645 18.2479L24.1049 18.5597L25.688 20.1669L25.0645 18.2479Z" fill="white"/>
<path d="M24.0554 18.9811L24.6484 18.1649L25.6878 20.1671L24.0554 18.9811Z" fill="white"/>
<path d="M23.8339 18.2484L24.7934 18.5602L24.4574 16.3294L23.8339 18.2484Z" fill="white"/>
<path d="M25.0824 18.2487L24.1229 18.5604L24.4589 16.3296L25.0824 18.2487Z" fill="white"/>
<path d="M23.8319 18.2484L24.7914 18.5602L23.2084 20.1674L23.8319 18.2484Z" fill="white"/>
<path d="M24.8409 18.9811L24.2479 18.1649L23.2085 20.1671L24.8409 18.9811Z" fill="white"/>
<path d="M24.4512 18.0135L24.4512 18.6802L25.7845 18.0135L24.4512 18.0135Z" fill="#C8102E"/>
<path d="M24.7063 18.7975L24.3145 18.2581L25.785 18.0137L24.7063 18.7975Z" fill="#C8102E"/>
<path d="M24.4512 18.0135L24.4512 18.6802L23.1178 18.0135L24.4512 18.0135Z" fill="#C8102E"/>
<path d="M24.196 18.7975L24.5879 18.2581L23.1173 18.0137L24.196 18.7975Z" fill="#C8102E"/>
<path d="M24.8613 18.3133L24.2273 18.5193L25.2734 19.5814L24.8613 18.3133Z" fill="#C8102E"/>
<path d="M24.196 18.7975L24.5879 18.2581L25.2747 19.5812L24.196 18.7975Z" fill="#C8102E"/>
<path d="M24.043 18.3123L24.677 18.5183L24.455 17.0442L24.043 18.3123Z" fill="#C8102E"/>
<path d="M24.8665 18.3128L24.2324 18.5189L24.4544 17.0448L24.8665 18.3128Z" fill="#C8102E"/>
<path d="M24.0449 18.3128L24.679 18.5188L23.6329 19.5809L24.0449 18.3128Z" fill="#C8102E"/>
<path d="M24.7102 18.797L24.3184 18.2576L23.6315 19.5807L24.7102 18.797Z" fill="#C8102E"/>
<path d="M30.6133 27.5208V28.6408L32.8533 27.5208H30.6133Z" fill="white"/>
<path d="M31.0411 28.8373L30.3828 27.9312L32.8533 27.5207L31.0411 28.8373Z" fill="white"/>
<path d="M30.6133 27.5208V28.6408L28.3733 27.5208H30.6133Z" fill="white"/>
<path d="M30.1854 28.8373L30.8438 27.9312L28.3732 27.5207L30.1854 28.8373Z" fill="white"/>
<path d="M31.3066 28.0237L30.2415 28.3698L31.9988 30.1541L31.3066 28.0237Z" fill="white"/>
<path d="M30.1874 28.8376L30.8457 27.9315L31.9996 30.1542L30.1874 28.8376Z" fill="white"/>
<path d="M29.9219 28.0233L30.9871 28.3694L30.6141 25.8929L29.9219 28.0233Z" fill="white"/>
<path d="M31.3074 28.0233L30.2422 28.3694L30.6152 25.893L31.3074 28.0233Z" fill="white"/>
<path d="M29.9216 28.0233L30.9868 28.3694L29.2294 30.1537L29.9216 28.0233Z" fill="white"/>
<path d="M31.0409 28.8371L30.3826 27.931L29.2287 30.1538L31.0409 28.8371Z" fill="white"/>
<path d="M30.6133 27.7444V28.5222L32.1688 27.7444H30.6133Z" fill="#C8102E"/>
<path d="M30.9103 28.6586L30.4531 28.0294L32.1688 27.7443L30.9103 28.6586Z" fill="#C8102E"/>
<path d="M30.6133 27.7444V28.5222L29.0577 27.7444H30.6133Z" fill="#C8102E"/>
<path d="M30.3163 28.6586L30.7734 28.0294L29.0578 27.7443L30.3163 28.6586Z" fill="#C8102E"/>
<path d="M31.0917 28.0965L30.352 28.3368L31.5724 29.5759L31.0917 28.0965Z" fill="#C8102E"/>
<path d="M30.3142 28.6618L30.7714 28.0325L31.5727 29.5761L30.3142 28.6618Z" fill="#C8102E"/>
<path d="M30.1172 28.097L30.8569 28.3373L30.5979 26.6176L30.1172 28.097Z" fill="#C8102E"/>
<path d="M31.0776 28.0969L30.3379 28.3372L30.5969 26.6175L31.0776 28.0969Z" fill="#C8102E"/>
<path d="M30.1172 28.0965L30.8569 28.3368L29.6365 29.5759L30.1172 28.0965Z" fill="#C8102E"/>
<path d="M30.8947 28.6618L30.4375 28.0325L29.6362 29.5761L30.8947 28.6618Z" fill="#C8102E"/>
</svg>
