<svg width="40" height="40" viewBox="0 0 40 40" fill="none" xmlns="http://www.w3.org/2000/svg">
<g clip-path="url(#clip0_1_3039)">
<path d="M-10 1.52588e-05H50V40H-10V1.52588e-05Z" fill="#D82126"/>
<path d="M-10 24V16L50 24V16L-10 24ZM17 1.52588e-05H23L20 15.7143L17 1.52588e-05ZM23 40H17L20 24.2857L23 40ZM-10 1.52588e-05H-1L22.7557 22.2057L-10 1.52588e-05ZM-10 40H-1L22.7557 17.7943L-10 40ZM50 1.52588e-05H41L17.2443 22.2057L50 1.52588e-05ZM50 40H41L17.2443 17.7943L50 40Z" fill="#F8E92E"/>
<path d="M20.0003 27.0762C23.9452 27.0762 27.1431 23.8783 27.1431 19.9334C27.1431 15.9885 23.9452 12.7905 20.0003 12.7905C16.0554 12.7905 12.8574 15.9885 12.8574 19.9334C12.8574 23.8783 16.0554 27.0762 20.0003 27.0762Z" fill="#D82126"/>
<path d="M19.9994 25.6478C23.1554 25.6478 25.7137 23.0894 25.7137 19.9335C25.7137 16.7776 23.1554 14.2192 19.9994 14.2192C16.8435 14.2192 14.2852 16.7776 14.2852 19.9335C14.2852 23.0894 16.8435 25.6478 19.9994 25.6478Z" fill="#F8E92E"/>
</g>
<defs>
<clipPath id="clip0_1_3039">
<rect width="40" height="40" rx="20" fill="white"/>
</clipPath>
</defs>
</svg>
