<svg width="40" height="40" viewBox="0 0 40 40" fill="none" xmlns="http://www.w3.org/2000/svg">
<g clip-path="url(#clip0_1_5299)">
<path d="M63 0H0V41.9963H63V0Z" fill="#024FA2"/>
<path d="M63 6.99936H0V34.9969H63V6.99936Z" fill="white"/>
<path d="M63 8.16599H0V33.8304H63V8.16599Z" fill="#ED1C27"/>
<path d="M19.9282 30.2749C25.0824 30.2749 29.2607 26.0966 29.2607 20.9424C29.2607 15.7882 25.0824 11.6099 19.9282 11.6099C14.774 11.6099 10.5957 15.7882 10.5957 20.9424C10.5957 26.0966 14.774 30.2749 19.9282 30.2749Z" fill="white"/>
<path d="M19.926 11.9019L17.1322 20.5002L21.4314 21.8971L19.926 11.9019Z" fill="#ED1C27"/>
<path d="M19.926 11.9019L22.7198 20.5002L18.4206 21.8971L19.926 11.9019Z" fill="#ED1C27"/>
<path d="M28.5254 18.1499H19.4845V22.6703L28.5254 18.1499Z" fill="#ED1C27"/>
<path d="M28.5254 18.1499L21.2112 23.464L18.5541 19.8069L28.5254 18.1499Z" fill="#ED1C27"/>
<path d="M11.3281 18.147L18.6423 23.4611L21.2994 19.804L11.3281 18.147Z" fill="#ED1C27"/>
<path d="M11.3281 18.147H20.369V22.6674L11.3281 18.147Z" fill="#ED1C27"/>
<path d="M25.2422 28.2559L22.4484 19.6575L18.1492 21.0544L25.2422 28.2559Z" fill="#ED1C27"/>
<path d="M25.2422 28.2559L17.928 22.9418L20.585 19.2847L25.2422 28.2559Z" fill="#ED1C27"/>
<path d="M14.6133 28.2578L21.9275 22.9437L19.2704 19.2866L14.6133 28.2578Z" fill="#ED1C27"/>
<path d="M14.6133 28.2578L17.4071 19.6594L21.7062 21.0563L14.6133 28.2578Z" fill="#ED1C27"/>
</g>
<defs>
<clipPath id="clip0_1_5299">
<rect width="40" height="40" rx="20" fill="white"/>
</clipPath>
</defs>
</svg>
