<svg width="40" height="40" viewBox="0 0 40 40" fill="none" xmlns="http://www.w3.org/2000/svg">
<g clip-path="url(#clip0_1_5767)">
<path d="M0 0H60V40H0V0Z" fill="#DB161B"/>
<path d="M20 0H60V13.3333H20V0Z" fill="white"/>
<path d="M20 26.6667H60V40.0001H20V26.6667Z" fill="#008000"/>
<path d="M9.74039 8.2666H8.26971C8.18871 8.2666 8.12305 8.32818 8.12305 8.40414V9.09694C8.12305 9.1729 8.18871 9.23448 8.26971 9.23448H9.74039C9.82139 9.23448 9.88706 9.1729 9.88706 9.09694V8.40414C9.88706 8.32818 9.82139 8.2666 9.74039 8.2666Z" fill="white" stroke="#DB161B" stroke-width="0.0172437"/>
<path d="M9.70238 8.30664H8.3071C8.23026 8.30664 8.16797 8.36309 8.16797 8.43273V9.06778C8.16797 9.13742 8.23026 9.19387 8.3071 9.19387H9.70238C9.77922 9.19387 9.84152 9.13742 9.84152 9.06778V8.43273C9.84152 8.36309 9.77922 8.30664 9.70238 8.30664Z" fill="white" stroke="#DB161B" stroke-width="0.0160576"/>
<path fill-rule="evenodd" clip-rule="evenodd" d="M8.94662 8.54883L9.03116 8.55157L9.03499 8.58988L9.10414 8.62501L9.15797 8.58122L9.22325 8.61634L9.16181 8.65466L9.17718 8.70758L9.254 8.70484V8.77555L9.19255 8.77236L9.16181 8.81661L9.23096 8.86679L9.17718 8.90784L9.11952 8.86359L9.03499 8.88138L9.03882 8.94616L8.94662 8.95209L8.93508 8.89005L8.85826 8.85766L8.81597 8.90191L8.75065 8.86952L8.7891 8.81934L8.74299 8.78696H8.67766L8.67383 8.69572L8.73915 8.70165L8.78523 8.64873L8.73144 8.60768L8.8006 8.56023L8.85055 8.59855L8.93508 8.58715L8.94662 8.54883Z" fill="white" stroke="#DB161B" stroke-width="0.0101272"/>
<path d="M8.97174 8.8196C9.02301 8.8196 9.06457 8.78401 9.06457 8.74012C9.06457 8.69623 9.02301 8.66064 8.97174 8.66064C8.92047 8.66064 8.87891 8.69623 8.87891 8.74012C8.87891 8.78401 8.92047 8.8196 8.97174 8.8196Z" fill="white" stroke="#DB161B" stroke-width="0.0109234"/>
<path fill-rule="evenodd" clip-rule="evenodd" d="M8.39348 8.34753L8.25781 8.46842L8.39348 8.34753ZM8.48394 8.34753L8.34827 8.46842L8.48394 8.34753ZM8.5744 8.34753L8.43873 8.46842L8.5744 8.34753ZM8.66486 8.34753L8.52919 8.46842L8.66486 8.34753ZM8.75532 8.34753L8.61966 8.46842L8.75532 8.34753ZM8.84579 8.34753L8.71012 8.46842L8.84579 8.34753ZM8.93629 8.34753L8.80058 8.46842L8.93629 8.34753ZM9.02675 8.34753L8.89104 8.46842L9.02675 8.34753ZM9.11721 8.34753L8.9815 8.46842L9.11721 8.34753ZM9.20767 8.34753L9.07196 8.46842L9.20767 8.34753ZM9.29813 8.34753L9.16242 8.46842L9.29813 8.34753ZM9.3886 8.34753L9.25288 8.46842L9.3886 8.34753ZM9.02675 8.34753L8.89104 8.46842L9.02675 8.34753ZM9.47906 8.34753L9.34334 8.46842L9.47906 8.34753ZM9.56952 8.34753L9.4338 8.46842L9.56952 8.34753ZM9.65998 8.34753L9.52426 8.46842L9.65998 8.34753ZM9.75048 8.34753L9.61472 8.46842L9.75048 8.34753ZM9.61472 8.34753L9.75048 8.46842L9.61472 8.34753ZM9.52426 8.34753L9.65998 8.46842L9.52426 8.34753ZM9.4338 8.34753L9.56952 8.46842L9.4338 8.34753ZM9.34334 8.34753L9.47906 8.46842L9.34334 8.34753ZM9.25288 8.34753L9.3886 8.46842L9.25288 8.34753ZM9.16242 8.34753L9.29813 8.46842L9.16242 8.34753ZM9.07196 8.34753L9.20767 8.46842L9.07196 8.34753ZM8.9815 8.34753L9.11721 8.46842L8.9815 8.34753ZM8.89104 8.34753L9.02675 8.46842L8.89104 8.34753ZM8.80058 8.34753L8.93629 8.46842L8.80058 8.34753ZM8.71012 8.34753L8.84583 8.46842L8.71012 8.34753ZM8.61966 8.34753L8.75532 8.46842L8.61966 8.34753ZM8.9815 8.34753L9.11721 8.46842L8.9815 8.34753ZM8.52919 8.34753L8.66486 8.46842L8.52919 8.34753ZM8.43873 8.34753L8.5744 8.46842L8.43873 8.34753ZM8.34827 8.34753L8.48394 8.46842L8.34827 8.34753ZM8.25781 8.34753L8.39348 8.46842L8.25781 8.34753ZM8.39348 9.03272L8.25781 9.15406L8.39348 9.03272ZM8.48394 9.03272L8.34827 9.15406L8.48394 9.03272ZM8.5744 9.03272L8.43873 9.15406L8.5744 9.03272ZM8.66486 9.03272L8.52919 9.15406L8.66486 9.03272ZM8.75532 9.03272L8.61966 9.15406L8.75532 9.03272ZM8.84579 9.03272L8.71012 9.15406L8.84579 9.03272ZM8.93629 9.03272L8.80058 9.15406L8.93629 9.03272ZM9.02675 9.03272L8.89104 9.15406L9.02675 9.03272ZM9.11721 9.03272L8.9815 9.15406L9.11721 9.03272ZM9.20767 9.03272L9.07196 9.15406L9.20767 9.03272ZM9.29813 9.03272L9.16242 9.15406L9.29813 9.03272ZM9.3886 9.03272L9.25288 9.15406L9.3886 9.03272ZM9.02675 9.03272L8.89104 9.15406L9.02675 9.03272ZM9.47906 9.03272L9.34334 9.15406L9.47906 9.03272ZM9.56952 9.03272L9.4338 9.15406L9.56952 9.03272ZM9.65998 9.03272L9.52426 9.15406L9.65998 9.03272ZM9.75048 9.03272L9.61472 9.15406L9.75048 9.03272ZM9.61472 9.03272L9.75048 9.15406L9.61472 9.03272ZM9.52426 9.03272L9.65998 9.15406L9.52426 9.03272ZM9.4338 9.03272L9.56952 9.15406L9.4338 9.03272ZM9.34334 9.03272L9.47906 9.15406L9.34334 9.03272ZM9.25288 9.03272L9.3886 9.15406L9.25288 9.03272ZM9.16242 9.03272L9.29813 9.15406L9.16242 9.03272ZM9.07196 9.03272L9.20767 9.15406L9.07196 9.03272ZM8.9815 9.03272L9.11721 9.15406L8.9815 9.03272ZM8.89104 9.03272L9.02675 9.15406L8.89104 9.03272ZM8.80058 9.03272L8.93629 9.15406L8.80058 9.03272ZM8.71012 9.03272L8.84583 9.15406L8.71012 9.03272ZM8.61966 9.03272L8.75532 9.15406L8.61966 9.03272ZM8.9815 9.03272L9.11721 9.15406L8.9815 9.03272ZM8.52919 9.03272L8.66486 9.15406L8.52919 9.03272ZM8.43873 9.03272L8.5744 9.15406L8.43873 9.03272ZM8.34827 9.03272L8.48394 9.15406L8.34827 9.03272ZM8.25781 9.03272L8.39348 9.15406L8.25781 9.03272Z" fill="white"/>
<path d="M8.39348 8.34753L8.25781 8.46842M8.48394 8.34753L8.34827 8.46842M8.5744 8.34753L8.43873 8.46842M8.66486 8.34753L8.52919 8.46842M8.75532 8.34753L8.61966 8.46842M8.84579 8.34753L8.71012 8.46842M8.93629 8.34753L8.80058 8.46842M9.02675 8.34753L8.89104 8.46842M9.11721 8.34753L8.9815 8.46842M9.20767 8.34753L9.07196 8.46842M9.29813 8.34753L9.16242 8.46842M9.3886 8.34753L9.25288 8.46842M9.47906 8.34753L9.34334 8.46842M9.56952 8.34753L9.4338 8.46842M9.65998 8.34753L9.52426 8.46842M9.75048 8.34753L9.61472 8.46842M9.61472 8.34753L9.75048 8.46842M9.52426 8.34753L9.65998 8.46842M9.4338 8.34753L9.56952 8.46842M9.34334 8.34753L9.47906 8.46842M9.25288 8.34753L9.3886 8.46842M9.16242 8.34753L9.29813 8.46842M9.07196 8.34753L9.20767 8.46842M8.9815 8.34753L9.11721 8.46842M8.89104 8.34753L9.02675 8.46842M8.80058 8.34753L8.93629 8.46842M8.71012 8.34753L8.84583 8.46842M8.61966 8.34753L8.75532 8.46842M8.52919 8.34753L8.66486 8.46842M8.43873 8.34753L8.5744 8.46842M8.34827 8.34753L8.48394 8.46842M8.25781 8.34753L8.39348 8.46842M8.39348 9.03272L8.25781 9.15406M8.48394 9.03272L8.34827 9.15406M8.5744 9.03272L8.43873 9.15406M8.66486 9.03272L8.52919 9.15406M8.75532 9.03272L8.61966 9.15406M8.84579 9.03272L8.71012 9.15406M8.93629 9.03272L8.80058 9.15406M9.02675 9.03272L8.89104 9.15406M9.11721 9.03272L8.9815 9.15406M9.20767 9.03272L9.07196 9.15406M9.29813 9.03272L9.16242 9.15406M9.3886 9.03272L9.25288 9.15406M9.47906 9.03272L9.34334 9.15406M9.56952 9.03272L9.4338 9.15406M9.65998 9.03272L9.52426 9.15406M9.75048 9.03272L9.61472 9.15406M9.61472 9.03272L9.75048 9.15406M9.52426 9.03272L9.65998 9.15406M9.4338 9.03272L9.56952 9.15406M9.34334 9.03272L9.47906 9.15406M9.25288 9.03272L9.3886 9.15406M9.16242 9.03272L9.29813 9.15406M9.07196 9.03272L9.20767 9.15406M8.9815 9.03272L9.11721 9.15406M8.89104 9.03272L9.02675 9.15406M8.80058 9.03272L8.93629 9.15406M8.71012 9.03272L8.84583 9.15406M8.61966 9.03272L8.75532 9.15406M8.52919 9.03272L8.66486 9.15406M8.43873 9.03272L8.5744 9.15406M8.34827 9.03272L8.48394 9.15406M8.25781 9.03272L8.39348 9.15406" stroke="#DB161B" stroke-width="0.0160576"/>
<path d="M14.1834 8.2666H15.6541C15.7351 8.2666 15.8008 8.32818 15.8008 8.40414V9.09694C15.8008 9.1729 15.7351 9.23448 15.6541 9.23448H14.1834C14.1024 9.23448 14.0368 9.1729 14.0368 9.09694V8.40414C14.0368 8.32818 14.1024 8.2666 14.1834 8.2666Z" fill="white" stroke="#DB161B" stroke-width="0.0172437"/>
<path d="M14.2214 8.30664H15.6167C15.6936 8.30664 15.7559 8.36309 15.7559 8.43273V9.06778C15.7559 9.13742 15.6936 9.19387 15.6167 9.19387H14.2214C14.1446 9.19387 14.0823 9.13742 14.0823 9.06778V8.43273C14.0823 8.36309 14.1446 8.30664 14.2214 8.30664Z" fill="white" stroke="#DB161B" stroke-width="0.0160576"/>
<path fill-rule="evenodd" clip-rule="evenodd" d="M14.9774 8.54892L14.8929 8.55166L14.8891 8.58998L14.8199 8.6251L14.7661 8.58131L14.7008 8.61643L14.7623 8.65475L14.7469 8.70767L14.6701 8.70493V8.77564L14.7315 8.77245L14.7623 8.8167L14.6931 8.86688L14.7469 8.90793L14.8046 8.86369L14.8891 8.88148L14.8853 8.94625L14.9774 8.95218L14.989 8.89014L15.0658 8.85775L15.1081 8.902L15.1734 8.86962L15.135 8.81944L15.1811 8.78705H15.2464L15.2502 8.69581L15.1849 8.70174L15.1388 8.64882L15.1926 8.60777L15.1235 8.56032L15.0735 8.59864L14.989 8.58724L14.9774 8.54892Z" fill="white" stroke="#DB161B" stroke-width="0.0101272"/>
<path d="M14.9521 8.8196C14.9008 8.8196 14.8593 8.78401 14.8593 8.74012C14.8593 8.69623 14.9008 8.66064 14.9521 8.66064C15.0034 8.66064 15.0449 8.69623 15.0449 8.74012C15.0449 8.78401 15.0034 8.8196 14.9521 8.8196Z" fill="white" stroke="#DB161B" stroke-width="0.0109234"/>
<path fill-rule="evenodd" clip-rule="evenodd" d="M15.5301 8.34747L15.6658 8.46836L15.5301 8.34747ZM15.4396 8.34747L15.5753 8.46836L15.4396 8.34747ZM15.3492 8.34747L15.4849 8.46836L15.3492 8.34747ZM15.2587 8.34747L15.3944 8.46836L15.2587 8.34747ZM15.1683 8.34747L15.3039 8.46836L15.1683 8.34747ZM15.0778 8.34747L15.2135 8.46836L15.0778 8.34747ZM14.9873 8.34747L15.123 8.46836L14.9873 8.34747ZM14.8968 8.34747L15.0325 8.46836L14.8968 8.34747ZM14.8064 8.34747L14.9421 8.46836L14.8064 8.34747ZM14.7159 8.34747L14.8516 8.46836L14.7159 8.34747ZM14.6254 8.34747L14.7612 8.46836L14.6254 8.34747ZM14.535 8.34747L14.6707 8.46836L14.535 8.34747ZM14.8968 8.34747L15.0325 8.46836L14.8968 8.34747ZM14.4445 8.34747L14.5802 8.46836L14.4445 8.34747ZM14.3541 8.34747L14.4898 8.46836L14.3541 8.34747ZM14.2636 8.34747L14.3993 8.46836L14.2636 8.34747ZM14.1731 8.34747L14.3089 8.46836L14.1731 8.34747ZM14.3089 8.34747L14.1731 8.46836L14.3089 8.34747ZM14.3993 8.34747L14.2636 8.46836L14.3993 8.34747ZM14.4898 8.34747L14.3541 8.46836L14.4898 8.34747ZM14.5802 8.34747L14.4445 8.46836L14.5802 8.34747ZM14.6707 8.34747L14.535 8.46836L14.6707 8.34747ZM14.7612 8.34747L14.6254 8.46836L14.7612 8.34747ZM14.8516 8.34747L14.7159 8.46836L14.8516 8.34747ZM14.9421 8.34747L14.8064 8.46836L14.9421 8.34747ZM15.0325 8.34747L14.8968 8.46836L15.0325 8.34747ZM15.123 8.34747L14.9873 8.46836L15.123 8.34747ZM15.2135 8.34747L15.0778 8.46836L15.2135 8.34747ZM15.3039 8.34747L15.1683 8.46836L15.3039 8.34747ZM14.9421 8.34747L14.8064 8.46836L14.9421 8.34747ZM15.3944 8.34747L15.2587 8.46836L15.3944 8.34747ZM15.4849 8.34747L15.3492 8.46836L15.4849 8.34747ZM15.5753 8.34747L15.4396 8.46836L15.5753 8.34747ZM15.6658 8.34747L15.5301 8.46836L15.6658 8.34747ZM15.5301 9.03266L15.6658 9.154L15.5301 9.03266ZM15.4396 9.03266L15.5753 9.154L15.4396 9.03266ZM15.3492 9.03266L15.4849 9.154L15.3492 9.03266ZM15.2587 9.03266L15.3944 9.154L15.2587 9.03266ZM15.1683 9.03266L15.3039 9.154L15.1683 9.03266ZM15.0778 9.03266L15.2135 9.154L15.0778 9.03266ZM14.9873 9.03266L15.123 9.154L14.9873 9.03266ZM14.8968 9.03266L15.0325 9.154L14.8968 9.03266ZM14.8064 9.03266L14.9421 9.154L14.8064 9.03266ZM14.7159 9.03266L14.8516 9.154L14.7159 9.03266ZM14.6254 9.03266L14.7612 9.154L14.6254 9.03266ZM14.535 9.03266L14.6707 9.154L14.535 9.03266ZM14.8968 9.03266L15.0325 9.154L14.8968 9.03266ZM14.4445 9.03266L14.5802 9.154L14.4445 9.03266ZM14.3541 9.03266L14.4898 9.154L14.3541 9.03266ZM14.2636 9.03266L14.3993 9.154L14.2636 9.03266ZM14.1731 9.03266L14.3089 9.154L14.1731 9.03266ZM14.3089 9.03266L14.1731 9.154L14.3089 9.03266ZM14.3993 9.03266L14.2636 9.154L14.3993 9.03266ZM14.4898 9.03266L14.3541 9.154L14.4898 9.03266ZM14.5802 9.03266L14.4445 9.154L14.5802 9.03266ZM14.6707 9.03266L14.535 9.154L14.6707 9.03266ZM14.7612 9.03266L14.6254 9.154L14.7612 9.03266ZM14.8516 9.03266L14.7159 9.154L14.8516 9.03266ZM14.9421 9.03266L14.8064 9.154L14.9421 9.03266ZM15.0325 9.03266L14.8968 9.154L15.0325 9.03266ZM15.123 9.03266L14.9873 9.154L15.123 9.03266ZM15.2135 9.03266L15.0778 9.154L15.2135 9.03266ZM15.3039 9.03266L15.1683 9.154L15.3039 9.03266ZM14.9421 9.03266L14.8064 9.154L14.9421 9.03266ZM15.3944 9.03266L15.2587 9.154L15.3944 9.03266ZM15.4849 9.03266L15.3492 9.154L15.4849 9.03266ZM15.5753 9.03266L15.4396 9.154L15.5753 9.03266ZM15.6658 9.03266L15.5301 9.154L15.6658 9.03266Z" fill="white"/>
<path d="M15.5301 8.34747L15.6658 8.46836M15.4396 8.34747L15.5753 8.46836M15.3492 8.34747L15.4849 8.46836M15.2587 8.34747L15.3944 8.46836M15.1683 8.34747L15.3039 8.46836M15.0778 8.34747L15.2135 8.46836M14.9873 8.34747L15.123 8.46836M14.8968 8.34747L15.0325 8.46836M14.8064 8.34747L14.9421 8.46836M14.7159 8.34747L14.8516 8.46836M14.6254 8.34747L14.7612 8.46836M14.535 8.34747L14.6707 8.46836M14.4445 8.34747L14.5802 8.46836M14.3541 8.34747L14.4898 8.46836M14.2636 8.34747L14.3993 8.46836M14.1731 8.34747L14.3089 8.46836M14.3089 8.34747L14.1731 8.46836M14.3993 8.34747L14.2636 8.46836M14.4898 8.34747L14.3541 8.46836M14.5802 8.34747L14.4445 8.46836M14.6707 8.34747L14.535 8.46836M14.7612 8.34747L14.6254 8.46836M14.8516 8.34747L14.7159 8.46836M14.9421 8.34747L14.8064 8.46836M15.0325 8.34747L14.8968 8.46836M15.123 8.34747L14.9873 8.46836M15.2135 8.34747L15.0778 8.46836M15.3039 8.34747L15.1683 8.46836M15.3944 8.34747L15.2587 8.46836M15.4849 8.34747L15.3492 8.46836M15.5753 8.34747L15.4396 8.46836M15.6658 8.34747L15.5301 8.46836M15.5301 9.03266L15.6658 9.154M15.4396 9.03266L15.5753 9.154M15.3492 9.03266L15.4849 9.154M15.2587 9.03266L15.3944 9.154M15.1683 9.03266L15.3039 9.154M15.0778 9.03266L15.2135 9.154M14.9873 9.03266L15.123 9.154M14.8968 9.03266L15.0325 9.154M14.8064 9.03266L14.9421 9.154M14.7159 9.03266L14.8516 9.154M14.6254 9.03266L14.7612 9.154M14.535 9.03266L14.6707 9.154M14.4445 9.03266L14.5802 9.154M14.3541 9.03266L14.4898 9.154M14.2636 9.03266L14.3993 9.154M14.1731 9.03266L14.3089 9.154M14.3089 9.03266L14.1731 9.154M14.3993 9.03266L14.2636 9.154M14.4898 9.03266L14.3541 9.154M14.5802 9.03266L14.4445 9.154M14.6707 9.03266L14.535 9.154M14.7612 9.03266L14.6254 9.154M14.8516 9.03266L14.7159 9.154M14.9421 9.03266L14.8064 9.154M15.0325 9.03266L14.8968 9.154M15.123 9.03266L14.9873 9.154M15.2135 9.03266L15.0778 9.154M15.3039 9.03266L15.1683 9.154M15.3944 9.03266L15.2587 9.154M15.4849 9.03266L15.3492 9.154M15.5753 9.03266L15.4396 9.154M15.6658 9.03266L15.5301 9.154" stroke="#DB161B" stroke-width="0.0160576"/>
<path fill-rule="evenodd" clip-rule="evenodd" d="M10.8893 10.296C8.69441 12.4423 7.75814 12.7137 8.19754 12.8866C8.63693 13.0595 10.0504 11.9519 11.5211 10.4803C12.9918 9.00908 13.8923 7.69956 13.453 7.52662C13.0137 7.35364 13.2236 8.013 10.8893 10.296Z" fill="white" stroke="#DB161B" stroke-width="0.0257743"/>
<path fill-rule="evenodd" clip-rule="evenodd" d="M9.04202 11.8552L9.81078 12.0568C9.08723 12.7424 8.27308 13.0248 8.04695 12.9039C7.82078 12.783 8.454 12.5007 9.04202 11.8552Z" fill="white" stroke="#DB161B" stroke-width="0.015054"/>
<path fill-rule="evenodd" clip-rule="evenodd" d="M9.04086 11.936L9.67409 12.0975C8.96915 12.7567 8.27192 12.9442 8.0915 12.8639C7.91008 12.7832 8.46808 12.5564 9.04086 11.936Z" fill="white" stroke="#DB161B" stroke-width="0.015054"/>
<path d="M11.4039 10.2017C11.402 10.2122 11.397 10.2582 11.3925 10.2765C11.3925 10.302 11.3897 10.3212 11.387 10.3413C11.3797 10.3586 11.3811 10.3746 11.3587 10.3809C11.3437 10.4019 11.3341 10.4074 11.314 10.4161C11.3003 10.4266 11.2793 10.4371 11.2574 10.4457C11.2351 10.4544 11.2146 10.4553 11.1904 10.4507C11.1703 10.4384 11.1562 10.4261 11.1397 10.4161C11.1356 10.4001 11.1324 10.3768 11.1283 10.3613C11.1343 10.3773 11.1388 10.4028 11.1397 10.4256C11.1375 10.4507 11.1283 10.4617 11.1174 10.4804M11.1958 10.5351C11.194 10.5338 11.1922 10.5319 11.1904 10.5301C11.2036 10.542 11.1981 10.5365 11.1676 10.5205C11.1461 10.5105 11.1229 10.505 11.0946 10.5005H11.0161C10.9855 10.5005 10.965 10.5046 10.9431 10.5105C10.9272 10.5246 10.9034 10.5324 10.887 10.5452C10.8697 10.5557 10.8624 10.568 10.8533 10.5849C10.8377 10.5985 10.8277 10.6195 10.8136 10.63C10.8076 10.6528 10.7944 10.6519 10.7857 10.6697C10.8122 10.6715 10.8336 10.6747 10.8473 10.6893C10.871 10.7003 10.8277 10.6788 10.8195 10.6697C10.8008 10.6647 10.7962 10.6597 10.7689 10.6597C10.7433 10.6524 10.7278 10.6656 10.7013 10.6697C10.6863 10.6775 10.6817 10.6797 10.6621 10.6797M10.8925 10.7842C10.8811 10.7847 10.8286 10.7933 10.8081 10.7842C10.7853 10.7787 10.7716 10.7678 10.7575 10.7491C10.7506 10.7358 10.7575 10.7733 10.7575 10.7892C10.7552 10.8184 10.7451 10.8189 10.7296 10.8389C10.7132 10.8481 10.6959 10.8613 10.679 10.8686C10.6649 10.8795 10.6475 10.8868 10.6284 10.8937C10.6115 10.9005 10.5914 10.9078 10.5777 10.9183C10.559 10.9302 10.5608 10.9448 10.5499 10.963C10.5517 10.9877 10.5563 11.0013 10.5722 11.0132C10.5786 11.0296 10.5937 11.0465 10.606 11.0579C10.6197 11.0807 10.6352 11.0912 10.6001 11.0976C10.5809 11.1049 10.5704 11.099 10.5499 11.0976M10.5385 11.1323C10.5248 11.1295 10.4755 11.1149 10.4541 11.1076H10.3756C10.3451 11.1095 10.3391 11.1177 10.3136 11.1273C10.2972 11.1423 10.2858 11.1528 10.263 11.1624C10.2511 11.1761 10.2274 11.1993 10.2183 11.2171C10.2114 11.234 10.2068 11.2568 10.2068 11.2819C10.2073 11.3106 10.216 11.3157 10.2183 11.3417C10.2246 11.3626 10.2347 11.3823 10.252 11.401C10.2543 11.4073 10.2561 11.4092 10.263 11.411M10.2707 11.4762C10.2684 11.4762 10.263 11.489 10.2547 11.5C10.237 11.5182 10.2347 11.5196 10.2068 11.5196C10.1822 11.5187 10.1845 11.51 10.1672 11.5036C10.1589 11.4913 10.1485 11.4813 10.1393 11.4644C10.1329 11.4543 10.127 11.4384 10.1193 11.4292C10.112 11.4174 10.1028 11.4087 10.0951 11.3978C10.0878 11.3946 10.085 11.3914 10.0755 11.39C10.0983 11.3937 10.1001 11.4014 10.1152 11.4133C10.122 11.4247 10.1293 11.4361 10.1352 11.4489C10.1375 11.4657 10.143 11.479 10.143 11.5C10.143 11.5214 10.143 11.5369 10.1352 11.5547C10.1256 11.5647 10.1188 11.5748 10.1074 11.5825C10.0978 11.5912 10.0864 11.6031 10.0791 11.6135C10.0668 11.6213 10.0577 11.6277 10.0435 11.6373C10.0312 11.6441 10.0184 11.6514 9.99974 11.6532C9.97602 11.6514 9.96918 11.645 9.95184 11.6373C9.93679 11.6263 9.92493 11.6195 9.9117 11.6099C9.9012 11.6026 9.89071 11.5885 9.88387 11.5784C9.86243 11.5729 9.84874 11.5752 9.83597 11.5862C9.82502 11.5935 9.81544 11.6031 9.80814 11.6135C9.8013 11.6167 9.79081 11.6263 9.78397 11.6295M9.83141 11.6386C9.8378 11.6414 9.8606 11.6573 9.8711 11.6633C9.87748 11.6838 9.88752 11.6952 9.89071 11.7171C9.89619 11.7385 9.89573 11.7618 9.89573 11.786C9.89026 11.8111 9.87976 11.8293 9.8711 11.8494C9.85513 11.8603 9.84738 11.8676 9.82639 11.879C9.80678 11.8818 9.78716 11.8841 9.76207 11.8841C9.74656 11.8891 9.71736 11.8914 9.70231 11.8841C9.68041 11.8809 9.66385 11.8722 9.64784 11.8644C9.6295 11.854 9.61824 11.8444 9.59821 11.8348C9.58849 11.8206 9.57339 11.8079 9.55857 11.7905C9.5462 11.7741 9.53713 11.765 9.52878 11.7467C9.53612 11.7677 9.54725 11.786 9.55359 11.8056C9.56486 11.8261 9.57143 11.8339 9.57344 11.8594C9.58033 11.88 9.57841 11.9046 9.57841 11.9279C9.57622 11.9438 9.57508 11.9739 9.56847 11.9867V12.0018M9.09796 12.0798V12.0871C9.09796 12.0679 9.09746 12.0775 9.10594 12.1153C9.121 12.1322 9.15631 12.1368 9.18573 12.1295C9.21155 12.1108 9.21073 12.0962 9.25753 12.0871C9.30274 12.0898 9.31998 12.1017 9.3453 12.1153C9.37532 12.1286 9.38919 12.1354 9.40912 12.1651C9.41902 12.1892 9.42454 12.2057 9.39316 12.2148C9.3682 12.2308 9.33855 12.2394 9.30539 12.2435C9.26853 12.2435 9.24198 12.2394 9.2256 12.2577C9.20028 12.2809 9.2017 12.2951 9.2017 12.3357C9.19317 12.3485 9.19148 12.3859 9.18573 12.4C9.16356 12.4091 9.15056 12.4141 9.11393 12.4141C9.1053 12.3922 9.09577 12.3526 9.08998 12.3288C9.08373 12.3033 9.08181 12.2677 9.06603 12.2504C9.05061 12.2305 9.03168 12.2137 9.01019 12.2006C9.00043 12.1883 8.98182 12.1783 8.96234 12.1724C8.99363 12.1865 8.9981 12.202 9.00221 12.2362C8.9747 12.2485 8.96736 12.2572 8.92242 12.2577C8.87826 12.2545 8.86759 12.2444 8.85062 12.2221C8.84756 12.2577 8.83474 12.2695 8.82671 12.3006C8.81029 12.322 8.80331 12.3439 8.7868 12.3713C8.79382 12.4059 8.80897 12.4073 8.81075 12.4497C8.8211 12.4776 8.81996 12.504 8.84264 12.5209C8.85276 12.5318 8.86033 12.5341 8.88255 12.535C8.83634 12.535 8.80943 12.5305 8.77882 12.5136C8.75514 12.5008 8.73726 12.4844 8.715 12.4712C8.68676 12.4529 8.65186 12.436 8.61924 12.4283C8.58238 12.4283 8.55583 12.4246 8.53946 12.4424C8.51688 12.457 8.50168 12.4817 8.4916 12.5136C8.48421 12.5505 8.48138 12.5752 8.49959 12.5989C8.51309 12.6267 8.51615 12.6372 8.49959 12.6701C8.48102 12.6933 8.45342 12.6961 8.41182 12.7056C8.38471 12.7045 8.35788 12.6997 8.33203 12.6915" stroke="#DB161B" stroke-width="0.015054"/>
<path fill-rule="evenodd" clip-rule="evenodd" d="M13.3952 8.3587C14.3691 6.6773 15.0155 5.24654 14.8376 5.16479C14.6602 5.08309 13.7259 6.3812 12.752 8.06236L13.3952 8.3587Z" fill="white" stroke="#DB161B" stroke-width="0.0203913"/>
<path fill-rule="evenodd" clip-rule="evenodd" d="M13.329 8.3287C14.2683 6.70665 14.9156 5.33733 14.7738 5.27196C14.6319 5.20659 13.7542 6.4698 12.8145 8.09162" fill="white"/>
<path d="M13.329 8.32869C14.2683 6.70665 14.9156 5.33733 14.7738 5.27196C14.6319 5.20659 13.7542 6.4698 12.8145 8.09162" stroke="#DB161B" stroke-width="0.0179279"/>
<path fill-rule="evenodd" clip-rule="evenodd" d="M13.1675 7.48291C13.053 7.67254 12.9321 7.88928 12.8145 8.092L13.329 8.32908C13.4463 8.12617 13.5745 7.91259 13.6817 7.71981L13.1675 7.48291Z" fill="white" stroke="#DB161B" stroke-width="0.0203457"/>
<path fill-rule="evenodd" clip-rule="evenodd" d="M13.2115 7.54834C13.0975 7.73797 13.0176 7.88309 12.9004 8.08581L13.2859 8.2634C13.4036 8.06077 13.4902 7.91881 13.5974 7.72602L13.2115 7.54834Z" fill="white" stroke="#DB161B" stroke-width="0.0203457"/>
<path d="M13.4922 7.76807L13.235 7.64963L13.0067 8.04377L13.2639 8.16221L13.4922 7.76807Z" fill="white" stroke="#DB161B" stroke-width="0.0203913"/>
<path fill-rule="evenodd" clip-rule="evenodd" d="M13.4912 7.76805L13.0059 8.04372L13.4912 7.76805ZM13.2627 8.1621L13.234 7.64958L13.2627 8.1621ZM14.6536 5.76154L14.3963 5.64307L14.6536 5.76154Z" fill="white"/>
<path d="M13.4912 7.76805L13.0059 8.04372M13.2627 8.1621L13.234 7.64958M14.6536 5.76154L14.3963 5.64307" stroke="#DB161B" stroke-width="0.0203457"/>
<path d="M14.6555 5.57579C14.6154 5.5859 14.5756 5.56559 14.5666 5.53043C14.5575 5.49527 14.5827 5.45858 14.6227 5.44847C14.6628 5.43837 14.7026 5.45868 14.7117 5.49384C14.7207 5.52899 14.6956 5.56569 14.6555 5.57579Z" fill="#DB161B" stroke="#DB161B" stroke-width="0.0263887"/>
<path fill-rule="evenodd" clip-rule="evenodd" d="M13.0345 10.2955C15.2294 12.4418 16.1657 12.7132 15.7263 12.8861C15.2869 13.059 13.8735 11.9514 12.4027 10.4798C10.932 9.00859 10.0315 7.69907 10.4708 7.52614C10.9101 7.35315 10.7003 8.01252 13.0345 10.2955Z" fill="white" stroke="#DB161B" stroke-width="0.0257743"/>
<path fill-rule="evenodd" clip-rule="evenodd" d="M14.8818 11.8551L14.113 12.0567C14.8366 12.7424 15.6507 13.0248 15.8769 12.9039C16.103 12.783 15.4698 12.5006 14.8818 11.8551Z" fill="white" stroke="#DB161B" stroke-width="0.015054"/>
<path fill-rule="evenodd" clip-rule="evenodd" d="M14.883 11.936L14.2497 12.0975C14.9547 12.7567 15.6519 12.9442 15.8323 12.8639C16.0138 12.7832 15.4557 12.5564 14.883 11.936Z" fill="white" stroke="#DB161B" stroke-width="0.015054"/>
<path d="M12.52 10.2017C12.5218 10.2122 12.5268 10.2582 12.5314 10.2765C12.5314 10.302 12.5341 10.3212 12.5368 10.3413C12.5441 10.3586 12.5428 10.3746 12.5651 10.3809C12.5802 10.4019 12.5898 10.4074 12.6098 10.4161C12.6235 10.4266 12.6445 10.4371 12.6664 10.4457C12.6887 10.4544 12.7093 10.4553 12.7335 10.4507C12.7535 10.4384 12.7677 10.4261 12.7841 10.4161C12.7882 10.4001 12.7914 10.3768 12.7955 10.3613C12.7896 10.3773 12.785 10.4028 12.7841 10.4256C12.7864 10.4507 12.7955 10.4617 12.8064 10.4804M12.728 10.5351C12.7298 10.5338 12.7316 10.5319 12.7335 10.5301C12.7202 10.542 12.7257 10.5365 12.7563 10.5205C12.7777 10.5105 12.801 10.505 12.8293 10.5005H12.9077C12.9383 10.5005 12.9588 10.5046 12.9807 10.5105C12.9967 10.5246 13.0204 10.5324 13.0368 10.5452C13.0541 10.5557 13.0614 10.568 13.0706 10.5849C13.0861 10.5985 13.0961 10.6195 13.1103 10.63C13.1162 10.6528 13.1294 10.6519 13.1381 10.6697C13.1116 10.6715 13.0902 10.6747 13.0765 10.6893C13.0528 10.7003 13.0961 10.6788 13.1043 10.6697C13.123 10.6647 13.1276 10.6597 13.155 10.6597C13.1805 10.6524 13.196 10.6656 13.2225 10.6697C13.2375 10.6775 13.2421 10.6797 13.2617 10.6797M13.0313 10.7842C13.0427 10.7847 13.0952 10.7933 13.1157 10.7842C13.1385 10.7787 13.1522 10.7678 13.1664 10.7491C13.1732 10.7358 13.1664 10.7733 13.1664 10.7892C13.1687 10.8184 13.1787 10.8189 13.1942 10.8389C13.2106 10.8481 13.228 10.8613 13.2448 10.8686C13.259 10.8795 13.2763 10.8868 13.2955 10.8937C13.3123 10.9005 13.3324 10.9078 13.3461 10.9183C13.3648 10.9302 13.363 10.9448 13.3739 10.963C13.3721 10.9877 13.3675 11.0013 13.3516 11.0132C13.3452 11.0296 13.3301 11.0465 13.3178 11.0579C13.3041 11.0807 13.2886 11.0912 13.3238 11.0976C13.3429 11.1049 13.3534 11.099 13.3739 11.0976M13.3853 11.1323C13.399 11.1295 13.4483 11.1149 13.4697 11.1076H13.5482C13.5788 11.1095 13.5847 11.1177 13.6102 11.1273C13.6267 11.1423 13.6381 11.1528 13.6609 11.1624C13.6727 11.1761 13.6965 11.1993 13.7056 11.2171C13.7124 11.234 13.717 11.2568 13.717 11.2819C13.7165 11.3106 13.7079 11.3157 13.7056 11.3417C13.6992 11.3626 13.6892 11.3823 13.6718 11.401C13.6695 11.4073 13.6677 11.4092 13.6609 11.411M13.6531 11.4762C13.6554 11.4762 13.6609 11.489 13.6691 11.5C13.6869 11.5182 13.6892 11.5196 13.717 11.5196C13.7416 11.5187 13.7393 11.51 13.7567 11.5036C13.7649 11.4913 13.7754 11.4813 13.7845 11.4644C13.7909 11.4543 13.7968 11.4384 13.8046 11.4292C13.8119 11.4174 13.821 11.4087 13.8287 11.3978C13.836 11.3946 13.8388 11.3914 13.8484 11.39C13.8256 11.3937 13.8237 11.4014 13.8087 11.4133C13.8018 11.4247 13.7945 11.4361 13.7886 11.4489C13.7863 11.4657 13.7808 11.479 13.7808 11.5C13.7808 11.5214 13.7808 11.5369 13.7886 11.5547C13.7982 11.5647 13.805 11.5748 13.8164 11.5825C13.826 11.5912 13.8374 11.6031 13.8447 11.6135C13.857 11.6213 13.8662 11.6277 13.8803 11.6373C13.8926 11.6441 13.9054 11.6514 13.9241 11.6532C13.9478 11.6514 13.9547 11.645 13.972 11.6373C13.987 11.6263 13.9989 11.6195 14.0121 11.6099C14.0226 11.6026 14.0331 11.5885 14.04 11.5784C14.0614 11.5729 14.0751 11.5752 14.0879 11.5862C14.0988 11.5935 14.1084 11.6031 14.1157 11.6135C14.1225 11.6167 14.133 11.6263 14.1399 11.6295M14.0924 11.6386C14.086 11.6414 14.0632 11.6573 14.0527 11.6633C14.0463 11.6838 14.0363 11.6952 14.0331 11.7171C14.0276 11.7385 14.0281 11.7618 14.0281 11.786C14.0336 11.8111 14.0441 11.8293 14.0527 11.8494C14.0687 11.8603 14.0765 11.8676 14.0974 11.879C14.1171 11.8818 14.1367 11.8841 14.1618 11.8841C14.1773 11.8891 14.2065 11.8914 14.2215 11.8841C14.2434 11.8809 14.26 11.8722 14.276 11.8644C14.2943 11.854 14.3056 11.8444 14.3256 11.8348C14.3353 11.8206 14.3504 11.8079 14.3653 11.7905C14.3776 11.7741 14.3867 11.765 14.3951 11.7467C14.3877 11.7677 14.3766 11.786 14.3702 11.8056C14.359 11.8261 14.3524 11.8339 14.3504 11.8594C14.3435 11.88 14.3454 11.9046 14.3454 11.9279C14.3476 11.9438 14.3487 11.9739 14.3554 11.9867V12.0018M14.8259 12.0798V12.0871C14.8259 12.0679 14.8264 12.0775 14.8179 12.1153C14.8028 12.1322 14.7675 12.1368 14.7381 12.1295C14.7123 12.1108 14.7131 12.0962 14.6663 12.0871C14.6211 12.0898 14.6038 12.1017 14.5785 12.1153C14.5485 12.1286 14.5346 12.1354 14.5147 12.1651C14.5048 12.1892 14.4993 12.2057 14.5307 12.2148C14.5556 12.2308 14.5853 12.2394 14.6184 12.2435C14.6553 12.2435 14.6819 12.2394 14.6982 12.2577C14.7235 12.2809 14.7221 12.2951 14.7221 12.3357C14.7307 12.3485 14.7324 12.3859 14.7381 12.4C14.7603 12.4091 14.7733 12.4141 14.8099 12.4141C14.8185 12.3922 14.8281 12.3526 14.8339 12.3288C14.8401 12.3033 14.842 12.2677 14.8578 12.2504C14.8732 12.2305 14.8921 12.2137 14.9136 12.2006C14.9234 12.1883 14.942 12.1783 14.9615 12.1724C14.9302 12.1865 14.9257 12.202 14.9216 12.2362C14.9491 12.2485 14.9565 12.2572 15.0014 12.2577C15.0456 12.2545 15.0562 12.2444 15.0732 12.2221C15.0763 12.2577 15.0891 12.2695 15.0971 12.3006C15.1135 12.322 15.1205 12.3439 15.137 12.3713C15.13 12.4059 15.1149 12.4073 15.1131 12.4497C15.1027 12.4776 15.1039 12.504 15.0812 12.5209C15.0711 12.5318 15.0635 12.5341 15.0413 12.535C15.0875 12.535 15.1144 12.5305 15.145 12.5136C15.1687 12.5008 15.1866 12.4844 15.2088 12.4712C15.2371 12.4529 15.272 12.436 15.3046 12.4283C15.3414 12.4283 15.368 12.4246 15.3844 12.4424C15.407 12.457 15.4221 12.4817 15.4322 12.5136C15.4396 12.5505 15.4424 12.5752 15.4242 12.5989C15.4107 12.6267 15.4077 12.6372 15.4242 12.6701C15.4428 12.6933 15.4704 12.6961 15.512 12.7056C15.5391 12.7045 15.5659 12.6997 15.5918 12.6915" stroke="#DB161B" stroke-width="0.015054"/>
<path fill-rule="evenodd" clip-rule="evenodd" d="M10.5287 8.3587C9.55471 6.6773 8.9083 5.24654 9.08621 5.16479C9.26367 5.08309 10.1979 6.3812 11.1719 8.06236L10.5287 8.3587Z" fill="white" stroke="#DB161B" stroke-width="0.0203913"/>
<path fill-rule="evenodd" clip-rule="evenodd" d="M10.5948 8.3287C9.65552 6.70665 9.0082 5.33733 9.15007 5.27196C9.29195 5.20659 10.1696 6.4698 11.1094 8.09162" fill="white"/>
<path d="M10.5948 8.32869C9.65552 6.70665 9.0082 5.33733 9.15007 5.27196C9.29195 5.20659 10.1696 6.4698 11.1094 8.09162" stroke="#DB161B" stroke-width="0.0179279"/>
<path fill-rule="evenodd" clip-rule="evenodd" d="M10.7563 7.48291C10.8708 7.67254 10.9917 7.88928 11.1094 8.092L10.5948 8.32908C10.4776 8.12617 10.3494 7.91259 10.2422 7.71981L10.7563 7.48291Z" fill="white" stroke="#DB161B" stroke-width="0.0203457"/>
<path fill-rule="evenodd" clip-rule="evenodd" d="M10.7123 7.54834C10.8264 7.73797 10.9062 7.88309 11.0234 8.08581L10.638 8.2634C10.5203 8.06077 10.4336 7.91881 10.3264 7.72602L10.7123 7.54834Z" fill="white" stroke="#DB161B" stroke-width="0.0203457"/>
<path d="M10.4316 7.76807L10.6888 7.64963L10.9172 8.04377L10.66 8.16221L10.4316 7.76807Z" fill="white" stroke="#DB161B" stroke-width="0.0203913"/>
<path fill-rule="evenodd" clip-rule="evenodd" d="M10.4326 7.76805L10.918 8.04372L10.4326 7.76805ZM10.6611 8.1621L10.6899 7.64958L10.6611 8.1621ZM9.27024 5.76154L9.52753 5.64307L9.27024 5.76154Z" fill="white"/>
<path d="M10.4326 7.76805L10.918 8.04372M10.6611 8.1621L10.6899 7.64958M9.27024 5.76154L9.52753 5.64307" stroke="#DB161B" stroke-width="0.0203457"/>
<path d="M9.26833 5.57579C9.30841 5.5859 9.34823 5.56559 9.35728 5.53043C9.36632 5.49527 9.34117 5.45858 9.30109 5.44847C9.26101 5.43837 9.22118 5.45868 9.21214 5.49384C9.20309 5.52899 9.22825 5.56569 9.26833 5.57579Z" fill="#DB161B" stroke="#DB161B" stroke-width="0.0263887"/>
<path fill-rule="evenodd" clip-rule="evenodd" d="M11.2896 7.45996C11.2896 8.87148 11.2978 9.40339 11.1938 9.47638C11.0953 9.55438 8.34961 9.47638 8.34961 9.87964C8.34961 10.2829 10.6113 10.6862 11.2896 10.6862C12.1942 10.6862 12.6467 10.2829 12.6467 9.47638V7.45996H11.2896Z" fill="white" stroke="#DB161B" stroke-width="0.0185666"/>
<path fill-rule="evenodd" clip-rule="evenodd" d="M11.291 7.86323V8.06486C11.7409 8.1321 12.1983 8.1321 12.6482 8.06486V7.86323C12.1983 7.93047 11.7409 7.93047 11.291 7.86323ZM11.291 7.45996V7.66159C11.7409 7.72879 12.1983 7.72879 12.6482 7.66159V7.45996C12.1983 7.52716 11.7409 7.52716 11.291 7.45996Z" fill="white" stroke="#DB161B" stroke-width="0.0160576"/>
<path fill-rule="evenodd" clip-rule="evenodd" d="M11.291 7.66162V7.86325C11.7409 7.93049 12.1983 7.93049 12.6482 7.86325V7.66162C12.1983 7.72882 11.7409 7.72882 11.291 7.66162ZM11.291 8.06489V8.26661C11.7435 8.33367 12.1956 8.33367 12.6482 8.26661V8.06489C12.1983 8.13213 11.7409 8.13213 11.291 8.06489Z" fill="white" stroke="#DB161B" stroke-width="0.0160576"/>
<path d="M11.3527 7.81991C11.3868 7.81991 11.4144 7.80043 11.4144 7.77641C11.4144 7.75238 11.3868 7.73291 11.3527 7.73291C11.3186 7.73291 11.291 7.75238 11.291 7.77641C11.291 7.80043 11.3186 7.81991 11.3527 7.81991Z" fill="white" stroke="#DB161B" stroke-width="0.0150665"/>
<path d="M11.5988 7.84139C11.6328 7.84139 11.6605 7.82192 11.6605 7.79789C11.6605 7.77387 11.6328 7.75439 11.5988 7.75439C11.5647 7.75439 11.5371 7.77387 11.5371 7.79789C11.5371 7.82192 11.5647 7.84139 11.5988 7.84139Z" fill="white" stroke="#DB161B" stroke-width="0.0150665"/>
<path d="M11.8449 7.86336C11.8789 7.86336 11.9066 7.84389 11.9066 7.81986C11.9066 7.79584 11.8789 7.77637 11.8449 7.77637C11.8108 7.77637 11.7832 7.79584 11.7832 7.81986C11.7832 7.84389 11.8108 7.86336 11.8449 7.86336Z" fill="white" stroke="#DB161B" stroke-width="0.0150665"/>
<path d="M12.0929 7.86336C12.127 7.86336 12.1546 7.84389 12.1546 7.81986C12.1546 7.79584 12.127 7.77637 12.0929 7.77637C12.0589 7.77637 12.0312 7.79584 12.0312 7.81986C12.0312 7.84389 12.0589 7.86336 12.0929 7.86336Z" fill="white" stroke="#DB161B" stroke-width="0.0150665"/>
<path d="M12.339 7.84139C12.3731 7.84139 12.4007 7.82192 12.4007 7.79789C12.4007 7.77387 12.3731 7.75439 12.339 7.75439C12.305 7.75439 12.2773 7.77387 12.2773 7.79789C12.2773 7.82192 12.305 7.84139 12.339 7.84139Z" fill="white" stroke="#DB161B" stroke-width="0.0150665"/>
<path d="M12.5851 7.81991C12.6192 7.81991 12.6468 7.80043 12.6468 7.77641C12.6468 7.75238 12.6192 7.73291 12.5851 7.73291C12.5511 7.73291 12.5234 7.75238 12.5234 7.77641C12.5234 7.80043 12.5511 7.81991 12.5851 7.81991Z" fill="white" stroke="#DB161B" stroke-width="0.0150665"/>
<path fill-rule="evenodd" clip-rule="evenodd" d="M11.2898 8.46875L12.6469 9.55766L11.2898 8.46875ZM11.4253 8.46875L12.6469 9.43631L11.4253 8.46875ZM11.6064 8.50889L12.6469 9.31542L11.6064 8.50889ZM11.7423 8.50889L12.6469 9.19454L11.7423 8.50889ZM11.8778 8.50889L12.6469 9.07365L11.8778 8.50889ZM12.0133 8.50889L12.6469 8.95276L12.0133 8.50889ZM12.1492 8.50889L12.6469 8.83141L12.1492 8.50889ZM12.2847 8.50889L12.6469 8.75113L12.2847 8.50889ZM12.4207 8.50889L12.6469 8.67038L12.4207 8.50889ZM12.5561 8.50889L12.6469 8.58964L12.5561 8.50889ZM11.2898 8.58964L12.6469 9.67854L11.2898 8.58964ZM12.6469 8.46875L11.1543 9.67854L12.6469 8.46875ZM12.511 8.46875L11.1995 9.51706L12.511 8.46875ZM12.3303 8.50889L11.2898 9.31542L12.3303 8.50889ZM12.1944 8.50889L11.2898 9.19454L12.1944 8.50889ZM12.0589 8.50889L11.2898 9.07365L12.0589 8.50889ZM11.923 8.50889L11.2898 8.95276L11.923 8.50889ZM11.7875 8.50889L11.2898 8.83141L11.7875 8.50889ZM11.6515 8.50889L11.2898 8.75113L11.6515 8.50889ZM11.516 8.50889L11.2898 8.67038L11.516 8.50889ZM11.3801 8.50889L11.2898 8.58964L11.3801 8.50889ZM12.6469 8.58964L11.1543 9.79943L12.6469 8.58964ZM12.6469 8.71053L11.1543 9.92032L12.6469 8.71053ZM12.6469 8.83141L11.1543 10.0417L12.6469 8.83141ZM12.6469 8.95276L11.1543 10.1626L12.6469 8.95276ZM12.6469 9.07365L11.1543 10.2834L12.6469 9.07365ZM12.6469 9.19454L11.1543 10.4043L12.6469 9.19454ZM12.6469 9.31542L11.1543 10.5252L12.6469 9.31542ZM12.6469 9.43677L11.1543 10.6466L12.6469 9.43677ZM12.6469 9.55766L11.2446 10.6867L12.6469 9.55766ZM12.6469 9.67854L11.3801 10.6867L12.6469 9.67854ZM12.6013 9.84003L11.6064 10.6466L12.6013 9.84003ZM12.5561 10.0011L11.7423 10.6466L12.5561 10.0011ZM12.4658 10.2027L12.0589 10.5252L12.4658 10.2027ZM11.2898 8.71053L12.6013 9.75929L11.2898 8.71053ZM11.2898 8.83141L12.6013 9.88018L11.2898 8.83141ZM11.2898 8.95276L12.5561 9.96092L11.2898 8.95276ZM11.2898 9.07365L12.5561 10.0818L11.2898 9.07365ZM11.2898 9.19454L12.511 10.1626L11.2898 9.19454ZM11.2446 9.27528L12.4658 10.2433L11.2446 9.27528ZM11.2446 9.39617L12.3755 10.2834L11.2446 9.39617ZM11.1995 9.47691L12.3303 10.3642L11.1995 9.47691ZM11.1543 9.55766L12.2396 10.4043L11.1543 9.55766ZM11.1543 9.67854L12.1944 10.4851L11.1543 9.67854ZM11.1543 9.79943L12.0589 10.5252L11.1543 9.79943Z" fill="white"/>
<path d="M11.2898 8.46875L12.6469 9.55766L11.2446 10.6867M11.4253 8.46875L12.6469 9.43631M11.6064 8.50889L12.6469 9.31542L11.1543 10.5252M11.7423 8.50889L12.6469 9.19454L11.1543 10.4043M11.8778 8.50889L12.6469 9.07365L11.1543 10.2834M12.0133 8.50889L12.6469 8.95276L11.1543 10.1626M12.1492 8.50889L12.6469 8.83141L11.1543 10.0417M12.2847 8.50889L12.6469 8.75113M12.4207 8.50889L12.6469 8.67038M12.5561 8.50889L12.6469 8.58964L11.1543 9.79943L12.0589 10.5252L12.4658 10.2027M12.6469 8.46875L11.1543 9.67854L12.1944 10.4851M12.511 8.46875L11.1995 9.51706M12.3303 8.50889L11.2898 9.31542M12.1944 8.50889L11.2898 9.19454L12.511 10.1626M12.0589 8.50889L11.2898 9.07365L12.5561 10.0818M11.923 8.50889L11.2898 8.95276L12.5561 9.96092M11.7875 8.50889L11.2898 8.83141L12.6013 9.88018M11.6515 8.50889L11.2898 8.75113M11.516 8.50889L11.2898 8.67038M11.3801 8.50889L11.2898 8.58964L12.6469 9.67854L11.3801 10.6867M12.6469 8.71053L11.1543 9.92032M12.6469 9.43677L11.1543 10.6466M12.6013 9.84003L11.6064 10.6466M12.5561 10.0011L11.7423 10.6466M11.2898 8.71053L12.6013 9.75929M11.2446 9.27528L12.4658 10.2433M11.2446 9.39617L12.3755 10.2834M11.1995 9.47691L12.3303 10.3642M11.1543 9.55766L12.2396 10.4043" stroke="#DB161B" stroke-width="0.0160576"/>
<path fill-rule="evenodd" clip-rule="evenodd" d="M11.2898 8.2666V8.46823C11.7423 8.53529 12.1944 8.53529 12.6469 8.46823V8.2666C12.1944 8.33366 11.7423 8.33366 11.2898 8.2666ZM11.1543 9.9198L11.9681 10.5653L11.1543 9.9198ZM11.1543 10.0411L11.8778 10.6054L11.1543 10.0411ZM11.1543 10.162L11.7875 10.646L11.1543 10.162ZM11.1543 10.2829L11.6064 10.646L11.1543 10.2829ZM11.1543 10.4038L11.516 10.6862L11.1543 10.4038ZM11.1543 10.5247L11.3801 10.6862L11.1543 10.5247Z" fill="white"/>
<path d="M11.1543 9.9198L11.9681 10.5653M11.1543 10.0411L11.8778 10.6054M11.1543 10.162L11.7875 10.646M11.1543 10.2829L11.6064 10.646M11.1543 10.4038L11.516 10.6862M11.1543 10.5247L11.3801 10.6862M11.2898 8.2666V8.46823C11.7423 8.53529 12.1944 8.53529 12.6469 8.46823V8.2666C12.1944 8.33366 11.7423 8.33366 11.2898 8.2666Z" stroke="#DB161B" stroke-width="0.0160576"/>
<path d="M11.3527 8.42489C11.3868 8.42489 11.4144 8.40541 11.4144 8.38139C11.4144 8.35737 11.3868 8.33789 11.3527 8.33789C11.3186 8.33789 11.291 8.35737 11.291 8.38139C11.291 8.40541 11.3186 8.42489 11.3527 8.42489Z" fill="white" stroke="#DB161B" stroke-width="0.0150665"/>
<path d="M11.5988 8.44637C11.6328 8.44637 11.6605 8.4269 11.6605 8.40287C11.6605 8.37885 11.6328 8.35938 11.5988 8.35938C11.5647 8.35938 11.5371 8.37885 11.5371 8.40287C11.5371 8.4269 11.5647 8.44637 11.5988 8.44637Z" fill="white" stroke="#DB161B" stroke-width="0.0150665"/>
<path d="M11.8449 8.46834C11.8789 8.46834 11.9066 8.44887 11.9066 8.42485C11.9066 8.40082 11.8789 8.38135 11.8449 8.38135C11.8108 8.38135 11.7832 8.40082 11.7832 8.42485C11.7832 8.44887 11.8108 8.46834 11.8449 8.46834Z" fill="white" stroke="#DB161B" stroke-width="0.0150665"/>
<path d="M12.0929 8.46834C12.127 8.46834 12.1546 8.44887 12.1546 8.42485C12.1546 8.40082 12.127 8.38135 12.0929 8.38135C12.0589 8.38135 12.0312 8.40082 12.0312 8.42485C12.0312 8.44887 12.0589 8.46834 12.0929 8.46834Z" fill="white" stroke="#DB161B" stroke-width="0.0150665"/>
<path d="M12.339 8.44637C12.3731 8.44637 12.4007 8.4269 12.4007 8.40287C12.4007 8.37885 12.3731 8.35938 12.339 8.35938C12.305 8.35938 12.2773 8.37885 12.2773 8.40287C12.2773 8.4269 12.305 8.44637 12.339 8.44637Z" fill="white" stroke="#DB161B" stroke-width="0.0150665"/>
<path d="M12.5851 8.42489C12.6192 8.42489 12.6468 8.40541 12.6468 8.38139C12.6468 8.35737 12.6192 8.33789 12.5851 8.33789C12.5511 8.33789 12.5234 8.35737 12.5234 8.38139C12.5234 8.40541 12.5511 8.42489 12.5851 8.42489Z" fill="white" stroke="#DB161B" stroke-width="0.0150665"/>
<path fill-rule="evenodd" clip-rule="evenodd" d="M9.3456 10.3632L10.9739 9.51611L9.3456 10.3632ZM9.25514 10.3226L10.7928 9.51611L9.25514 10.3226ZM9.20993 10.2424L10.6122 9.51611L9.20993 10.2424ZM9.16468 10.1616L10.3859 9.51611L9.16468 10.1616ZM9.07422 10.0809L10.2048 9.51611L9.07422 10.0809ZM9.11947 9.95998L9.88823 9.55671L9.11947 9.95998ZM9.07422 9.87923L9.66224 9.55671L9.07422 9.87923ZM9.07422 9.75835L9.48132 9.55671L9.07422 9.75835ZM9.48132 10.4034L11.0191 9.59686L9.48132 10.4034ZM9.61698 10.444L11.0643 9.6776L9.61698 10.444ZM9.75274 10.4841L11.1094 9.75835L9.75274 10.4841ZM9.88823 10.5243L11.0191 9.91938L9.88823 10.5243ZM10.0693 10.5243L11.0643 10.0001L10.0693 10.5243ZM10.2048 10.5649L11.0643 10.121L10.2048 10.5649ZM10.3408 10.605L11.0191 10.2424L10.3408 10.605ZM10.5214 10.605L11.0643 10.3226L10.5214 10.605ZM10.7025 10.6456L11.0643 10.444L10.7025 10.6456ZM10.8836 10.6456L11.1094 10.5243L10.8836 10.6456Z" fill="white"/>
<path d="M9.3456 10.3632L10.9739 9.51611M9.25514 10.3226L10.7928 9.51611M9.20993 10.2424L10.6122 9.51611M9.16468 10.1616L10.3859 9.51611M9.07422 10.0809L10.2048 9.51611M9.11947 9.95998L9.88823 9.55671M9.07422 9.87923L9.66224 9.55671M9.07422 9.75835L9.48132 9.55671M9.48132 10.4034L11.0191 9.59686M9.61698 10.444L11.0643 9.6776M9.75274 10.4841L11.1094 9.75835M9.88823 10.5243L11.0191 9.91938M10.0693 10.5243L11.0643 10.0001M10.2048 10.5649L11.0643 10.121M10.3408 10.605L11.0191 10.2424M10.5214 10.605L11.0643 10.3226M10.7025 10.6456L11.0643 10.444M10.8836 10.6456L11.1094 10.5243" stroke="#DB161B" stroke-width="0.0160576"/>
<path fill-rule="evenodd" clip-rule="evenodd" d="M11.2 9.47656H10.9737C10.8985 9.87631 10.8985 10.2866 10.9737 10.6864H11.2C11.1243 10.2866 11.1243 9.87627 11.2 9.47656ZM8.53125 10.0413L9.07402 9.63805L8.53125 10.0413ZM8.53125 9.75894L9.07402 10.2429L8.53125 9.75894Z" fill="white"/>
<path d="M8.53125 10.0413L9.07402 9.63805M8.53125 9.75894L9.07402 10.2429M11.2 9.47656H10.9737C10.8985 9.87631 10.8985 10.2866 10.9737 10.6864H11.2C11.1243 10.2866 11.1243 9.87627 11.2 9.47656Z" stroke="#DB161B" stroke-width="0.0160576"/>
<path fill-rule="evenodd" clip-rule="evenodd" d="M9.34591 9.55713L9.07453 9.59727C9.01422 9.85273 9.01422 10.0676 9.07453 10.3231L9.34591 10.4038C9.2856 10.1483 9.2856 9.81259 9.34591 9.55713Z" fill="white" stroke="#DB161B" stroke-width="0.0114502"/>
<path fill-rule="evenodd" clip-rule="evenodd" d="M12.6463 7.54054V7.33722C12.4433 7.33891 12.3074 7.21793 12.3074 7.09521L11.63 7.0969C11.63 7.21793 11.4945 7.33891 11.291 7.33891V7.54054H12.6463Z" fill="white" stroke="#DB161B" stroke-width="0.0196614"/>
<path d="M11.6777 6.85501H12.2586V7.09697H11.6777V6.85501ZM11.7261 6.61305H12.2102V6.85501H11.7261V6.61305ZM11.7261 6.37109H12.2102V6.61305H11.7261V6.37109Z" fill="white"/>
<path d="M11.7261 6.61305H12.2102M11.7261 6.61305V6.85501H12.2102V6.61305M11.7261 6.61305V6.37109H12.2102V6.61305M11.6777 6.85501H12.2586V7.09697H11.6777V6.85501Z" stroke="#DB161B" stroke-width="0.016605"/>
<path d="M11.7734 6.04834H12.1607V6.37095H11.7734V6.04834Z" fill="white" stroke="#DB161B" stroke-width="0.016605"/>
<path d="M11.7578 5.76611H12.1785V6.0484H11.7578V5.76611Z" fill="white" stroke="#DB161B" stroke-width="0.0173349"/>
<path d="M11.9906 5.88733C12.3003 5.88733 12.5514 5.71581 12.5514 5.50421C12.5514 5.29262 12.3003 5.12109 11.9906 5.12109C11.6808 5.12109 11.4297 5.29262 11.4297 5.50421C11.4297 5.71581 11.6808 5.88733 11.9906 5.88733Z" fill="white" stroke="#DB161B" stroke-width="0.0163332"/>
<path fill-rule="evenodd" clip-rule="evenodd" d="M12.2715 5.48403C12.2715 5.58982 12.4115 5.76636 12.4115 5.76636C12.3098 5.8357 12.1456 5.88734 11.9909 5.88734C11.8363 5.88734 11.6433 5.85856 11.5703 5.76636C11.5703 5.76636 11.7104 5.58982 11.7104 5.48403C11.7104 5.37829 11.5703 5.24207 11.5703 5.24207C11.6716 5.17273 11.8363 5.12109 11.9909 5.12109C12.1456 5.12109 12.3098 5.17273 12.4115 5.24207C12.4115 5.24207 12.2715 5.37829 12.2715 5.48403Z" fill="white" stroke="#DB161B" stroke-width="0.0163313"/>
<path fill-rule="evenodd" clip-rule="evenodd" d="M12.1782 5.48403C12.1782 5.58982 12.3182 5.80669 12.3182 5.80669C12.217 5.87603 12.1458 5.88734 11.9911 5.88734C11.8365 5.88734 11.7371 5.89888 11.6641 5.80669C11.6641 5.80669 11.8041 5.58982 11.8041 5.48403C11.8041 5.37829 11.6641 5.20175 11.6641 5.20175C11.7653 5.13241 11.8365 5.12109 11.9911 5.12109C12.1458 5.12109 12.217 5.13241 12.3182 5.20175C12.3182 5.20175 12.1782 5.37829 12.1782 5.48403Z" fill="white" stroke="#DB161B" stroke-width="0.0163313"/>
<path d="M11.4312 5.6453C11.5087 5.6453 11.5715 5.59113 11.5715 5.52431C11.5715 5.45749 11.5087 5.40332 11.4312 5.40332C11.3538 5.40332 11.291 5.45749 11.291 5.52431C11.291 5.59113 11.3538 5.6453 11.4312 5.6453Z" fill="white" stroke="#DB161B" stroke-width="0.0163332"/>
<path d="M12.5523 5.6453C12.6298 5.6453 12.6925 5.59113 12.6925 5.52431C12.6925 5.45749 12.6298 5.40332 12.5523 5.40332C12.4749 5.40332 12.4121 5.45749 12.4121 5.52431C12.4121 5.59113 12.4749 5.6453 12.5523 5.6453Z" fill="white" stroke="#DB161B" stroke-width="0.0163332"/>
<path d="M11.9918 5.6453C12.0692 5.6453 12.132 5.59113 12.132 5.52431C12.132 5.45749 12.0692 5.40332 11.9918 5.40332C11.9143 5.40332 11.8516 5.45749 11.8516 5.52431C11.8516 5.59113 11.9143 5.6453 11.9918 5.6453Z" fill="white" stroke="#DB161B" stroke-width="0.0163332"/>
<path d="M11.9918 5.24198C12.0692 5.24198 12.132 5.18781 12.132 5.12099C12.132 5.05417 12.0692 5 11.9918 5C11.9143 5 11.8516 5.05417 11.8516 5.12099C11.8516 5.18781 11.9143 5.24198 11.9918 5.24198Z" fill="white" stroke="#DB161B" stroke-width="0.0163332"/>
<path d="M11.5808 7.5408C11.661 7.5408 11.726 7.48664 11.726 7.41982C11.726 7.353 11.661 7.29883 11.5808 7.29883C11.5006 7.29883 11.4355 7.353 11.4355 7.41982C11.4355 7.48664 11.5006 7.5408 11.5808 7.5408Z" fill="white" stroke="#DB161B" stroke-width="0.0166222"/>
<path d="M12.3542 7.5408C12.4344 7.5408 12.4994 7.48664 12.4994 7.41982C12.4994 7.353 12.4344 7.29883 12.3542 7.29883C12.274 7.29883 12.209 7.353 12.209 7.41982C12.209 7.48664 12.274 7.5408 12.3542 7.5408Z" fill="white" stroke="#DB161B" stroke-width="0.0166222"/>
<path fill-rule="evenodd" clip-rule="evenodd" d="M11.6289 7.09668H12.3063L11.9678 7.45966L11.6289 7.09668Z" fill="white" stroke="#DB161B" stroke-width="0.016605"/>
<path d="M11.9671 7.5404C12.074 7.5404 12.1607 7.46818 12.1607 7.37909C12.1607 7.29 12.074 7.21777 11.9671 7.21777C11.8601 7.21777 11.7734 7.29 11.7734 7.37909C11.7734 7.46818 11.8601 7.5404 11.9671 7.5404Z" fill="white" stroke="#DB161B" stroke-width="0.0221627"/>
<path d="M12.2065 8.58984H11.2791C11.2479 8.58984 11.2227 8.609 11.2227 8.63263V8.78901C11.2227 8.81264 11.2479 8.8318 11.2791 8.8318H12.2065C12.2377 8.8318 12.263 8.81264 12.263 8.78901V8.63263C12.263 8.609 12.2377 8.58984 12.2065 8.58984Z" fill="white" stroke="#DB161B" stroke-width="0.015054"/>
<path fill-rule="evenodd" clip-rule="evenodd" d="M12.5781 8.3878C12.4526 8.3878 12.3518 8.48177 12.3518 8.59856V8.78194C12.3518 8.89872 12.4526 8.9927 12.5781 8.9927C12.7035 8.9927 12.8043 8.89872 12.8043 8.78194V8.59856C12.8043 8.48177 12.7035 8.3878 12.5781 8.3878ZM12.5781 8.46854C12.5028 8.46854 12.4421 8.54381 12.4421 8.63733V8.74362C12.4421 8.83714 12.5028 8.91195 12.5781 8.91195C12.6534 8.91195 12.7136 8.83714 12.7136 8.74362V8.63733C12.7136 8.54381 12.6534 8.46854 12.5781 8.46854ZM11.402 8.4284C11.3268 8.4284 11.2666 8.50321 11.2666 8.59673V8.78377C11.2666 8.87728 11.3268 8.95255 11.402 8.95255C11.4773 8.95255 11.5375 8.87728 11.5375 8.78377V8.59673C11.5375 8.50321 11.4773 8.4284 11.402 8.4284ZM11.402 8.34766C11.2766 8.34766 11.1758 8.44163 11.1758 8.55841V8.82254C11.1758 8.93932 11.2766 9.0333 11.402 9.0333C11.5275 9.0333 11.6283 8.93932 11.6283 8.82254V8.55841C11.6283 8.44163 11.5275 8.34766 11.402 8.34766Z" fill="white" stroke="#DB161B" stroke-width="0.015054"/>
<path fill-rule="evenodd" clip-rule="evenodd" d="M11.0407 8.509C10.9654 8.509 10.9048 8.58427 10.9048 8.67779V8.72158C10.9048 8.8151 10.9654 8.89037 11.0407 8.89037C11.116 8.89037 11.1762 8.8151 11.1762 8.72158V8.67779C11.1762 8.58427 11.116 8.509 11.0407 8.509ZM11.0407 8.42871C10.9153 8.42871 10.8145 8.52268 10.8145 8.63947V8.76035C10.8145 8.87714 10.9153 8.97111 11.0407 8.97111C11.1657 8.97111 11.267 8.87714 11.267 8.76035V8.63947C11.267 8.52268 11.1657 8.42871 11.0407 8.42871Z" fill="white" stroke="#DB161B" stroke-width="0.015054"/>
<path fill-rule="evenodd" clip-rule="evenodd" d="M10.4987 8.39745C10.3632 8.39745 10.2547 8.48139 10.2547 8.58586V8.79479C10.2547 8.89925 10.3632 8.98319 10.4987 8.98319C10.6342 8.98319 10.7428 8.89925 10.7428 8.79479V8.58586C10.7428 8.48139 10.6342 8.39745 10.4987 8.39745ZM10.4987 8.30713C10.2734 8.30713 10.0918 8.41251 10.0918 8.54297V8.83812C10.0918 8.96859 10.2734 9.07351 10.4987 9.07351C10.7241 9.07351 10.9056 8.96859 10.9056 8.83812V8.54297C10.9056 8.41251 10.7241 8.30713 10.4987 8.30713ZM13.4388 8.4376C13.3033 8.4376 13.1943 8.52199 13.1943 8.62646V8.83539C13.1943 8.93985 13.3033 9.02379 13.4388 9.02379C13.5738 9.02379 13.6829 8.93985 13.6829 8.83539V8.62646C13.6829 8.52199 13.5738 8.4376 13.4388 8.4376ZM13.4388 8.34773C13.213 8.34773 13.0314 8.45265 13.0314 8.58312V8.87827C13.0314 9.00874 13.213 9.11366 13.4388 9.11366C13.6642 9.11366 13.8457 9.00874 13.8457 8.87827V8.58312C13.8457 8.45265 13.6642 8.34773 13.4388 8.34773Z" fill="white" stroke="#DB161B" stroke-width="0.015054"/>
<path d="M13.1832 8.58984H12.6994C12.6831 8.58984 12.6699 8.609 12.6699 8.63263V8.78901C12.6699 8.81264 12.6831 8.8318 12.6994 8.8318H13.1832C13.1995 8.8318 13.2127 8.81264 13.2127 8.78901V8.63263C13.2127 8.609 13.1995 8.58984 13.1832 8.58984Z" fill="white" stroke="#DB161B" stroke-width="0.015054"/>
<path d="M12.4713 8.54932H12.1891C12.1796 8.54932 12.1719 8.57487 12.1719 8.60639V8.81486C12.1719 8.84638 12.1796 8.87193 12.1891 8.87193H12.4713C12.4808 8.87193 12.4885 8.84638 12.4885 8.81486V8.60639C12.4885 8.57487 12.4808 8.54932 12.4713 8.54932Z" fill="white" stroke="#DB161B" stroke-width="0.015054"/>
<path d="M10.9791 8.54932H10.6969C10.6874 8.54932 10.6797 8.57487 10.6797 8.60639V8.81486C10.6797 8.84638 10.6874 8.87193 10.6969 8.87193H10.9791C10.9886 8.87193 10.9963 8.84638 10.9963 8.81486V8.60639C10.9963 8.57487 10.9886 8.54932 10.9791 8.54932Z" fill="white" stroke="#DB161B" stroke-width="0.015054"/>
<path d="M10.2844 8.50879H9.7199C9.70093 8.50879 9.68555 8.54071 9.68555 8.58009V8.84075C9.68555 8.88013 9.70093 8.91205 9.7199 8.91205H10.2844C10.3034 8.91205 10.3188 8.88013 10.3188 8.84075V8.58009C10.3188 8.54071 10.3034 8.50879 10.2844 8.50879Z" fill="white" stroke="#DB161B" stroke-width="0.015054"/>
<path d="M14.1752 8.54932H13.6511C13.6334 8.54932 13.6191 8.58124 13.6191 8.62062V8.88128C13.6191 8.92066 13.6334 8.95258 13.6511 8.95258H14.1752C14.1929 8.95258 14.2072 8.92066 14.2072 8.88128V8.62062C14.2072 8.58124 14.1929 8.54932 14.1752 8.54932Z" fill="white" stroke="#DB161B" stroke-width="0.015054"/>
</g>
<defs>
<clipPath id="clip0_1_5767">
<rect width="40" height="40" rx="20" fill="white"/>
</clipPath>
</defs>
</svg>
