<svg width="40" height="40" viewBox="0 0 40 40" fill="none" xmlns="http://www.w3.org/2000/svg">
<g clip-path="url(#clip0_1_5853)">
<path d="M40 0H0V40H40V0Z" fill="white"/>
<path d="M40 -1H10V42H40V-1Z" fill="#01411C"/>
<path d="M25 28.0228C29.4183 28.0228 33 24.3964 33 19.9228C33 15.4493 29.4183 11.8228 25 11.8228C20.5817 11.8228 17 15.4493 17 19.9228C17 24.3964 20.5817 28.0228 25 28.0228Z" fill="white"/>
<path d="M31.9203 25.0319C34.9474 22.3076 35.2201 17.6144 32.5293 14.5495C29.8386 11.4846 25.2034 11.2085 22.1763 13.9329C19.1492 16.6573 18.8766 21.3504 21.5673 24.4153C24.258 27.4802 28.8932 27.7563 31.9203 25.0319Z" fill="#01411C"/>
<path d="M27.9172 13.8618L31.287 17.7003L26.3324 16.6004L30.9793 14.5416L28.4151 18.9727L27.9172 13.8618Z" fill="white"/>
</g>
<defs>
<clipPath id="clip0_1_5853">
<rect width="40" height="40" rx="20" fill="white"/>
</clipPath>
</defs>
</svg>
