<svg width="40" height="40" viewBox="0 0 40 40" fill="none" xmlns="http://www.w3.org/2000/svg">
<g clip-path="url(#clip0_1_5860)">
<path d="M0.0579381 39.6863C0.0787667 39.4461 0.821656 38.6794 6.61897 32.8965L13.1522 26.3745H36.5914H60.0306V33.1643V39.9542H30.0304H0.0371094L0.0579381 39.6863Z" fill="#009639"/>
<path d="M6.75126 7.03897C1.49172 1.80109 0.145611 0.415413 0.145611 0.25837L0.138672 0.0458984H30.0792H60.0197V6.83574V13.6256H36.6918H13.3569L6.75126 7.03897Z" fill="black"/>
<path d="M17.5977 26.5033C17.5977 26.3463 18.2591 25.5795 20.4953 23.1315C22.0826 21.3855 23.3866 19.9352 23.3866 19.9075C23.3866 19.8797 22.1141 18.4663 20.5582 16.7666C17.9567 13.9213 17.7299 13.6534 17.7236 13.3948C17.7236 13.1915 17.7425 13.1546 17.7992 13.2377C17.8559 13.3209 22.6433 13.3486 38.9643 13.3486H60.0538V19.9998V26.6511L38.8257 26.6696L17.5977 26.6973V26.5033Z" fill="white"/>
<path d="M0.046875 19.9997C0.046875 0.396938 0.046875 0.0458984 0.222395 0.0458984C0.324011 0.0458984 0.41639 0.0828499 0.434866 0.119801C0.453341 0.156753 6.35634 4.60941 13.5526 10.0043C20.7582 15.3992 26.652 19.8519 26.652 19.9073C26.652 19.9628 20.7582 24.4154 13.5619 29.8011C6.35634 35.196 0.397914 39.6856 0.305535 39.778C0.222395 39.8796 0.130016 39.9535 0.102302 39.9535C0.0745886 39.9535 0.046875 30.9743 0.046875 19.9997Z" fill="#ED2E38" stroke="#FF0000" stroke-width="0.0923788"/>
</g>
<defs>
<clipPath id="clip0_1_5860">
<rect width="40" height="40" rx="20" fill="white"/>
</clipPath>
</defs>
</svg>
