<svg width="40" height="40" viewBox="0 0 40 40" fill="none" xmlns="http://www.w3.org/2000/svg">
<g clip-path="url(#clip0_1_15010)">
<path d="M0 7H40V33.6738L-4.5 55L0 7Z" fill="black"/>
<path d="M0 7L43 -20.5L40 33.6738L0 7Z" fill="#CE1126"/>
<path d="M23.6256 14.3002C23.363 14.6394 22.7414 13.9589 21.9967 13.9433C21.2521 13.9278 20.7246 14.6569 20.5074 14.9052C20.2903 15.1534 19.5922 16.4565 19.6077 16.5961C19.6232 16.7358 20.0421 16.2083 20.1972 16.1152C20.2127 16.3014 20.0265 16.5186 20.0731 16.5806C20.1196 16.6427 20.616 16.2083 20.7867 16.1928C20.8332 16.3169 20.6936 16.441 20.7401 16.6272C20.8022 16.6892 21.0815 16.3169 21.2676 16.2394C21.2986 16.379 21.097 16.6427 21.2055 16.8133C21.2831 16.8288 21.7485 16.2859 21.9036 16.2238C22.0588 16.1617 21.8261 16.7358 21.9036 16.7823C22.0433 16.6892 22.4777 16.1928 22.6173 16.1307C22.7569 16.0687 22.6018 16.7668 22.6638 16.7668C22.8345 16.6427 23.2689 16.0532 23.3154 15.9601C23.3619 15.867 23.2689 16.8599 23.7498 17.3874C24.2307 17.9149 24.9598 18.5198 25.0374 18.5198C25.1305 18.3492 25.0064 17.9924 25.0839 18.0079C25.3011 18.2406 25.7044 18.5819 25.7975 18.5819C25.8906 18.5819 25.7354 18.2096 25.8596 18.2096C26.1078 18.4423 26.8214 19.3576 28.2176 19.7764C28.1245 19.5127 27.9228 19.28 27.9073 19.1559C28.0004 19.1714 28.3262 19.3266 28.3883 19.311C28.4503 19.2955 27.7057 18.3802 27.7522 18.2561C27.9229 18.2406 28.0005 18.3492 28.0625 18.2716C27.9849 18.1475 27.3334 17.4184 27.3334 17.2477C27.3334 17.077 27.5351 17.2787 27.5971 17.2477C27.6591 17.2167 27.3489 16.5651 27.4109 16.4876C27.473 16.41 28.1555 16.9064 28.3262 16.9064C28.4969 16.9064 28.3727 16.3014 28.4503 16.2704C28.5279 16.2393 29.1019 16.5961 29.226 16.5961C29.3501 16.5961 29.3346 16.3324 29.3811 16.3634C29.4277 16.3945 30.7773 17.7441 30.3119 19.3265C29.8465 20.459 28.9158 21.064 27.5506 20.5676C27.6281 20.6917 28.3572 21.2968 29.1484 21.0795C29.9396 20.8623 30.9014 20.2418 30.7928 18.6905C30.6842 17.1392 30.1723 16.922 30.0947 16.6893C30.0172 16.4566 30.2189 16.7513 30.3895 16.8134C30.5601 16.8755 30.3585 16.4876 30.3119 16.3169C30.2654 16.1462 30.8239 16.6737 30.9635 16.7203C31.1031 16.7668 30.6377 15.4482 30.4981 15.3551C30.3585 15.262 30.6377 15.3861 30.7308 15.4171C30.8239 15.4482 29.8775 13.9744 29.6759 13.9744C29.4742 13.9744 29.8465 13.8968 29.9551 13.8968C30.0637 13.8968 28.8692 12.935 28.6675 12.935C28.4658 12.935 29.1018 12.6867 29.1639 12.6712C29.2725 12.6867 27.7833 11.88 26.4491 12.6867C26.3715 12.6247 27.0774 12.136 27.1007 11.9266C27.1084 11.8723 26.868 11.756 26.8525 11.6939C26.8369 11.6319 27.2248 11.4457 27.2403 11.3061C27.1472 11.182 26.9765 11.2285 26.8834 11.1975C26.8602 11.0812 27.2093 10.7942 27.1782 10.6701C27.155 10.6003 26.8989 10.577 26.8369 10.6235C26.7749 10.6701 26.9998 10.2978 26.961 10.1892C26.93 10.1426 26.8059 10.1737 26.6818 10.2047C26.6042 10.1892 27.0852 9.52207 26.9921 9.42899C26.899 9.33591 25.5958 10.1115 25.1149 10.9803C24.634 11.8491 25.0064 12.5472 24.9443 12.8419C24.8822 13.1367 24.8046 13.4315 24.603 13.4315C24.4013 13.4315 23.936 13.1212 23.7808 12.966C23.6256 12.8109 23.5946 12.7023 23.3774 12.6403C23.1602 12.5782 22.6638 12.7644 22.4777 12.7799C22.2915 12.7954 21.5624 12.6403 21.5158 12.6868C21.4693 12.7333 22.2294 13.0126 22.4001 13.1057C22.5708 13.1987 22.5863 13.3229 22.7104 13.4004C22.8345 13.4779 23.998 13.8193 23.6256 14.3002ZM28.1711 16.4876C28.5434 16.8599 31.0566 18.5353 31.0566 20.5831C31.0566 22.6309 29.226 22.5689 28.6985 22.5068C29.288 23.0032 31.522 22.9101 31.522 20.5831C31.522 18.5353 28.6365 16.4876 28.2642 16.3014C27.8918 16.1152 27.7988 16.1152 28.1711 16.4876Z" fill="#FCD116"/>
<path d="M8.89068 15.1802L9.30878 16.383L10.5819 16.409L9.56717 17.1783L9.93591 18.3971L8.89068 17.6698L7.84545 18.3971L8.21419 17.1783L7.19946 16.409L8.47259 16.383L8.89068 15.1802Z" fill="white"/>
<path d="M4.97882 20.5151L5.39691 21.7179L6.67004 21.7438L5.65531 22.5131L6.02405 23.732L4.97882 23.0046L3.93359 23.732L4.30233 22.5131L3.2876 21.7438L4.56072 21.7179L4.97882 20.5151Z" fill="white"/>
<path d="M8.89068 27.628L9.30878 28.8308L10.5819 28.8567L9.56717 29.626L9.93591 30.8449L8.89068 30.1175L7.84545 30.8449L8.21419 29.626L7.19946 28.8567L8.47259 28.8308L8.89068 27.628Z" fill="white"/>
<path d="M12.4473 20.1597L12.8654 21.3625L14.1385 21.3885L13.1238 22.1578L13.4926 23.3766L12.4473 22.6493L11.4021 23.3766L11.7708 22.1578L10.7561 21.3885L12.0292 21.3625L12.4473 20.1597Z" fill="white"/>
<path d="M10.6681 24.605L10.8772 25.2064L11.5137 25.2194L11.0064 25.6041L11.1907 26.2135L10.6681 25.8498L10.1455 26.2135L10.3299 25.6041L9.82251 25.2194L10.4591 25.2064L10.6681 24.605Z" fill="white"/>
</g>
<defs>
<clipPath id="clip0_1_15010">
<rect width="40" height="40" rx="20" fill="white"/>
</clipPath>
</defs>
</svg>
