<svg width="40" height="40" viewBox="0 0 40 40" fill="none" xmlns="http://www.w3.org/2000/svg">
<g clip-path="url(#clip0_1_12332)">
<path d="M-10 0H50.0032V40H-10V0Z" fill="#0038A8"/>
<path d="M-10 0H50.0032V26.6667H-10V0Z" fill="white"/>
<path d="M-10 0H50.0032V13.3333H-10V0Z" fill="#D52B1E"/>
<path d="M25.0249 19.9022C25.0249 22.7033 22.7557 24.9736 19.9547 24.9736C17.1551 24.9736 14.8848 22.7033 14.8848 19.9022C14.8848 17.1023 17.1552 14.8335 19.9547 14.8335C22.7557 14.8335 25.0249 17.1023 25.0249 19.9022Z" fill="white" stroke="black" stroke-width="0.223455" stroke-miterlimit="10"/>
<path d="M22.4051 19.1168C22.282 19.112 22.2812 19.2476 22.2812 19.2476C22.2812 19.2476 22.2855 19.2075 22.282 19.2531C22.2796 19.2981 22.3022 19.4079 22.3931 19.4169C22.489 19.4253 22.5209 19.3132 22.5217 19.2588C22.5217 19.2372 22.5146 19.1196 22.4051 19.1169" fill="#009B3A"/>
<path d="M22.4051 19.1168C22.282 19.112 22.2812 19.2476 22.2812 19.2476C22.2812 19.2476 22.2855 19.2075 22.282 19.2531C22.2796 19.2981 22.3022 19.4079 22.3931 19.4169C22.489 19.4253 22.5209 19.3132 22.5217 19.2588C22.5217 19.2372 22.5146 19.1196 22.4051 19.1169" stroke="black" stroke-width="0.059697"/>
<path d="M16.7733 21.9319L16.7298 21.86C16.7255 21.852 16.7141 21.8388 16.696 21.8191C16.6874 21.8094 16.6754 21.8034 16.6624 21.8025C16.6487 21.8005 16.6348 21.8034 16.6229 21.8105C16.6061 21.8208 16.595 21.8346 16.5932 21.8514C16.59 21.8686 16.598 21.8922 16.617 21.924L16.661 21.9988L16.7733 21.9319ZM17.2024 21.9072L16.6509 22.2352L16.4825 21.9523C16.4513 21.8992 16.4323 21.857 16.4249 21.8237C16.4163 21.7898 16.4204 21.758 16.4344 21.7265C16.4483 21.6946 16.4737 21.668 16.5089 21.6469C16.5361 21.6304 16.5669 21.6208 16.5986 21.6192C16.6295 21.6192 16.6577 21.6268 16.685 21.6413C16.7019 21.651 16.7215 21.666 16.7429 21.6879C16.7378 21.6643 16.7349 21.6457 16.7361 21.6313C16.7379 21.6227 16.7418 21.6086 16.7495 21.587C16.7569 21.5664 16.764 21.552 16.7684 21.5428L16.8799 21.3654L16.9935 21.5581L16.8799 21.7494C16.8657 21.7736 16.857 21.7922 16.8558 21.8052C16.8552 21.8231 16.8591 21.8388 16.8677 21.8541L16.8771 21.8697L17.1006 21.7368L17.2024 21.9072ZM16.2315 21.4581L16.0631 20.955L16.1929 20.9113L16.2984 21.2267L16.3957 21.194L16.2966 20.9013L16.4213 20.8606L16.5192 21.1519L16.6386 21.1133L16.5309 20.7887L16.6686 20.7418L16.8397 21.2544L16.2315 21.4581ZM16.2494 20.4339L16.2426 20.3868C16.2382 20.3475 16.2287 20.3222 16.2141 20.309C16.2068 20.3024 16.1982 20.2975 16.1888 20.2945C16.1795 20.2916 16.1696 20.2907 16.1598 20.2919C16.1402 20.2951 16.1242 20.3034 16.112 20.3171C16.0992 20.3325 16.095 20.3579 16.1003 20.3947L16.1057 20.4513L16.2494 20.4339ZM16 20.6636L15.9617 20.3367C15.954 20.2665 15.9641 20.2105 15.9935 20.171C16.0238 20.1318 16.0701 20.1082 16.1324 20.1011C16.1966 20.0931 16.2498 20.107 16.2901 20.141C16.33 20.1754 16.3555 20.2329 16.365 20.3119L16.3772 20.4195L16.6133 20.392L16.6364 20.5899L16 20.6636ZM15.9777 19.4127L15.9982 19.2157L16.3789 19.2567C16.4148 19.2607 16.4498 19.2706 16.4826 19.2859C16.515 19.3004 16.5434 19.3227 16.5651 19.351C16.5871 19.3793 16.6026 19.4064 16.6097 19.4356C16.6194 19.4742 16.6221 19.5214 16.6159 19.5756C16.6123 19.6094 16.6064 19.6429 16.5981 19.6759C16.5901 19.712 16.5777 19.7419 16.5621 19.7649C16.5457 19.7894 16.5247 19.8106 16.5004 19.8273C16.477 19.8439 16.4504 19.8552 16.4223 19.8607C16.3801 19.8693 16.3439 19.871 16.3124 19.8674L15.9335 19.8274L15.9539 19.6302L16.3427 19.6723C16.3778 19.6759 16.4057 19.6694 16.4273 19.6516C16.449 19.6342 16.4612 19.609 16.4654 19.5756C16.469 19.5405 16.4618 19.5134 16.4448 19.4925C16.428 19.471 16.4018 19.4589 16.3664 19.4548L15.9777 19.4127ZM16.6155 18.8737L16.6497 18.7788C16.66 18.7467 16.663 18.7219 16.6559 18.7039C16.6525 18.6955 16.6473 18.688 16.6405 18.6819C16.6338 18.6758 16.6257 18.6714 16.617 18.6689C16.5979 18.6623 16.5822 18.6636 16.5668 18.673C16.5508 18.6827 16.537 18.7033 16.5261 18.7354L16.4923 18.831L16.6155 18.8737ZM16.3777 18.7903L16.4064 18.7098C16.4161 18.6803 16.4189 18.658 16.4117 18.6429C16.4064 18.6284 16.3939 18.617 16.3746 18.6114C16.3671 18.6083 16.359 18.6068 16.3509 18.6072C16.3428 18.6075 16.3349 18.6097 16.3277 18.6134C16.3138 18.6217 16.3021 18.6393 16.2927 18.6677L16.2626 18.7505L16.3777 18.7903ZM16.0749 18.8967L16.1967 18.5457C16.2178 18.4873 16.2478 18.4483 16.2882 18.4263C16.307 18.4162 16.3277 18.4101 16.349 18.4086C16.3703 18.407 16.3917 18.4099 16.4118 18.4171C16.4468 18.4309 16.4735 18.4522 16.492 18.4834C16.5029 18.504 16.5098 18.5312 16.5098 18.5627C16.535 18.5227 16.5641 18.4973 16.5964 18.4863C16.6294 18.4746 16.6653 18.4752 16.7043 18.4888C16.7348 18.4993 16.7604 18.5167 16.7806 18.5397C16.7999 18.5639 16.8126 18.5905 16.8189 18.6205C16.8218 18.6399 16.8204 18.6659 16.8135 18.698C16.8035 18.7431 16.7975 18.7717 16.7924 18.785L16.6796 19.108L16.0749 18.8967ZM16.4017 18.0752L16.5054 17.906L16.9181 18.1562L17.0789 17.8922L17.2134 17.9744L16.9515 18.4074L16.4017 18.0752ZM16.8251 17.4445L16.9526 17.2927L17.4417 17.7062L17.314 17.858L16.8251 17.4445ZM17.7134 17.0999L17.8801 17.0287C17.9015 17.0735 17.9137 17.1162 17.9153 17.158C17.917 17.1982 17.9089 17.2381 17.8917 17.2744C17.8726 17.3113 17.8415 17.347 17.7987 17.3844C17.7443 17.4287 17.6944 17.4575 17.6472 17.4702C17.6006 17.4823 17.5483 17.4793 17.4901 17.461C17.434 17.4425 17.3806 17.4021 17.3289 17.3416C17.2618 17.2595 17.2309 17.179 17.2377 17.0999C17.2443 17.0195 17.2876 16.9473 17.3666 16.8807C17.4293 16.8288 17.4875 16.8017 17.5447 16.7973C17.6006 16.7919 17.66 16.8088 17.7197 16.8462L17.6101 16.9882C17.5935 16.9773 17.5796 16.97 17.5677 16.9676C17.5504 16.9624 17.5319 16.9622 17.5145 16.967C17.4965 16.971 17.4798 16.9793 17.4658 16.9912C17.431 17.0203 17.4159 17.0563 17.4209 17.0993C17.4239 17.1314 17.4444 17.169 17.48 17.2134C17.5261 17.268 17.5658 17.2985 17.5986 17.3048C17.633 17.3119 17.6647 17.3022 17.6944 17.2774C17.7233 17.2527 17.739 17.2267 17.7396 17.1984C17.7404 17.1683 17.7324 17.1356 17.7134 17.0999ZM18.3619 16.7148L18.1944 16.5414L18.2366 16.7793L18.3619 16.7148ZM18.4617 16.82L18.261 16.922L18.2815 17.0308L18.1012 17.1224L18.0248 16.4418L18.2175 16.3433L18.7233 16.8053L18.5389 16.8996L18.4617 16.82ZM19.2413 16.1518L19.2906 16.4979L19.3387 16.4908C19.38 16.4857 19.4088 16.4766 19.4251 16.4651C19.4409 16.4524 19.4516 16.4362 19.4581 16.4108C19.4652 16.3873 19.4652 16.3505 19.4578 16.2991C19.4484 16.2322 19.4305 16.1874 19.4055 16.1662C19.3801 16.145 19.3417 16.1373 19.2906 16.145L19.2413 16.1518ZM19.0257 16.0359L19.3167 15.994C19.3741 15.9864 19.4207 15.987 19.4581 15.9976C19.4967 16.0085 19.5284 16.0262 19.5564 16.0522C19.5835 16.078 19.6051 16.1096 19.6206 16.1465C19.6372 16.1851 19.6484 16.2258 19.6538 16.2676C19.6642 16.3348 19.6642 16.389 19.6532 16.4276C19.644 16.4655 19.6268 16.501 19.6027 16.5316C19.5783 16.5603 19.5513 16.5818 19.5213 16.5939C19.4848 16.6107 19.4461 16.6225 19.4064 16.629L19.1147 16.67L19.0257 16.0359ZM19.8979 15.9117L20.4268 15.9509L20.417 16.0873L20.0858 16.0626L20.0781 16.1643L20.3853 16.187L20.3742 16.317L20.0687 16.2951L20.0597 16.4202L20.4004 16.4454L20.3897 16.5899L19.8506 16.5501L19.8979 15.9117ZM20.7128 15.9865L20.9032 16.0396L20.7716 16.5053L21.0689 16.5893L21.0255 16.7402L20.5375 16.602L20.7128 15.9865ZM21.794 16.6975L21.835 16.724C21.8665 16.745 21.8932 16.7538 21.9126 16.7517C21.9222 16.751 21.9316 16.748 21.9399 16.7428C21.9481 16.7377 21.955 16.7306 21.9598 16.7222C21.9704 16.706 21.9744 16.6878 21.972 16.668C21.9681 16.6492 21.9506 16.63 21.9197 16.6097L21.8724 16.5778L21.794 16.6975ZM21.7783 16.36L22.0537 16.5416C22.1133 16.5808 22.1483 16.625 22.1591 16.6727C22.1706 16.7211 22.1591 16.7718 22.1237 16.8243C22.0893 16.8776 22.0447 16.9089 21.9918 16.918C21.9384 16.9265 21.8798 16.91 21.813 16.8661L21.7225 16.806L21.5924 17.0043L21.4263 16.8944L21.7783 16.36ZM22.4735 17.3371L22.5852 17.1234L22.3732 17.2381L22.4735 17.3371ZM22.4058 17.4644L22.2451 17.3065L22.1484 17.3596L22.0044 17.218L22.3004 17.0813L22.6265 16.9306L22.7797 17.0822L22.5012 17.7085L22.3539 17.5623L22.4058 17.4644ZM23.001 17.7424L23.0462 17.8137C23.0516 17.8209 23.0613 17.8347 23.0815 17.8535C23.0908 17.8626 23.1031 17.868 23.1161 17.8686C23.1295 17.8702 23.1429 17.8668 23.154 17.8591C23.171 17.8482 23.1804 17.8347 23.1835 17.8173C23.1858 17.8008 23.1769 17.776 23.157 17.746L23.1112 17.6729L23.001 17.7424ZM22.5726 17.7804L23.1127 17.4356L23.2901 17.7135C23.323 17.7648 23.3438 17.807 23.3539 17.8397C23.3616 17.8722 23.3586 17.9063 23.3455 17.937C23.3324 17.9694 23.3084 17.9962 23.2746 18.0184C23.244 18.0378 23.2146 18.0487 23.1843 18.0487C23.1555 18.0505 23.1261 18.0431 23.0973 18.031C23.0762 18.018 23.0565 18.0027 23.0388 17.9853C23.0444 18.0089 23.048 18.028 23.0473 18.0413C23.0446 18.0563 23.0408 18.0711 23.0361 18.0856C23.0313 18.1013 23.0248 18.1165 23.0168 18.1309L22.9123 18.3119L22.791 18.123L22.8998 17.929C22.9144 17.9031 22.9215 17.8845 22.9215 17.8716C22.9221 17.8541 22.9194 17.8376 22.9078 17.8228L22.8992 17.8082L22.6795 17.9482L22.5726 17.7804ZM23.3299 18.6434L23.522 18.4984L23.2818 18.5117L23.3299 18.6434ZM23.2133 18.7293L23.1363 18.5173L23.027 18.525L22.9572 18.3348L23.642 18.3428L23.716 18.545L23.196 18.9907L23.1247 18.795L23.2133 18.7293ZM23.52 19.4108L23.6518 19.3934L23.69 19.6989L23.4189 19.7316C23.3732 19.6785 23.3382 19.631 23.3195 19.5877C23.2986 19.5447 23.2853 19.4925 23.2777 19.4315C23.2678 19.356 23.2728 19.293 23.2939 19.2422C23.3129 19.1916 23.3468 19.1494 23.3943 19.116C23.4421 19.0845 23.4986 19.0636 23.5642 19.0557C23.6334 19.0466 23.696 19.0536 23.7506 19.0763C23.8053 19.0981 23.8493 19.135 23.8835 19.1868C23.9098 19.2279 23.9274 19.2842 23.9357 19.3573C23.9455 19.4271 23.9455 19.4804 23.9363 19.5167C23.9294 19.5522 23.9126 19.5849 23.8879 19.6113C23.8619 19.6397 23.8297 19.6617 23.7937 19.6756L23.7361 19.4907C23.759 19.4793 23.7759 19.4646 23.786 19.4436C23.7964 19.4236 23.7991 19.3982 23.7964 19.3705C23.7893 19.3268 23.7715 19.2945 23.7389 19.2727C23.7053 19.2508 23.6559 19.244 23.5912 19.252C23.5223 19.2605 23.4757 19.2803 23.4486 19.3089C23.4232 19.339 23.4137 19.3775 23.4184 19.4236C23.4208 19.4454 23.4272 19.4657 23.4356 19.4846C23.4448 19.5046 23.4581 19.525 23.4766 19.5503L23.5369 19.542L23.52 19.4108ZM23.9257 20.3718L23.9031 20.568L23.5242 20.5253C23.4879 20.5214 23.4525 20.5113 23.4196 20.4955C23.3877 20.4804 23.3596 20.4581 23.3377 20.4304C23.316 20.4028 23.3011 20.3747 23.294 20.3464C23.2847 20.3054 23.2824 20.2594 23.2886 20.2055C23.2928 20.1748 23.2988 20.141 23.3061 20.1047C23.3148 20.0684 23.3275 20.039 23.3436 20.016C23.3603 19.992 23.381 19.9712 23.4048 19.9543C23.4327 19.937 23.4582 19.926 23.4837 19.9216C23.5253 19.9137 23.5624 19.9111 23.5937 19.9158L23.9732 19.9591L23.9506 20.1548L23.5624 20.1102C23.5271 20.1065 23.4992 20.1127 23.4772 20.13C23.4558 20.1477 23.443 20.1725 23.4395 20.2064C23.4357 20.2411 23.4422 20.2686 23.4594 20.2895C23.4761 20.3107 23.5021 20.3234 23.5369 20.3287L23.9257 20.3718ZM23.3358 21.1011L23.5773 21.1097L23.3824 20.9676L23.3358 21.1011ZM23.1926 21.0939L23.2657 20.8813L23.1763 20.8173L23.2428 20.626L23.7697 21.0638L23.6972 21.2686L23.0144 21.2854L23.0815 21.0891L23.1926 21.0939ZM23.5464 21.6838L23.4349 21.8733L23.1826 21.8742L23.3033 22.0959L23.1926 22.2831L22.9978 21.8794L22.7668 21.7433L22.8683 21.572L23.0991 21.7091L23.5464 21.6838Z" fill="black"/>
<path d="M24.1971 19.9039C24.1971 22.2487 22.297 24.149 19.9533 24.149C17.6089 24.149 15.7089 22.2486 15.7089 19.9039C15.7089 17.5608 17.6089 15.6608 19.9532 15.6608C22.297 15.6608 24.197 17.5608 24.197 19.9038L24.1971 19.9039Z" stroke="black" stroke-width="0.0893939" stroke-miterlimit="10"/>
<path d="M23.1116 19.8887C23.1116 21.634 21.6981 23.0477 19.9536 23.0477C18.209 23.0477 16.7949 21.634 16.7949 19.8887C16.7949 18.145 18.209 16.731 19.9535 16.731C21.6981 16.731 23.1116 18.145 23.1116 19.8887Z" stroke="black" stroke-width="0.0893939" stroke-miterlimit="10"/>
<path d="M19.9531 18.7529L20.2184 19.5123L21.0211 19.5302L20.3814 20.0166L20.614 20.7862L19.9531 20.3287L19.292 20.7862L19.5234 20.0166L18.8828 19.5302L19.6871 19.5123L19.9531 18.7529Z" fill="#FEDF00" stroke="black" stroke-width="0.0364848"/>
<path d="M21.4117 22.069C21.3849 22.0914 21.2771 22.1035 21.2487 22.1082C21.2198 22.112 21.1067 22.1132 21.0588 22.1149C21.0324 22.1167 20.9816 22.1241 20.9552 22.1241C20.7232 22.0976 21.3321 22.1013 21.4117 22.0689M20.8038 21.8895C20.8189 21.8624 20.895 21.6932 20.9223 21.6451C20.9502 21.5979 21.0131 21.472 21.0508 21.4196C21.0702 21.3913 21.1459 21.3091 21.1639 21.3459C21.0321 21.4598 20.9282 21.6588 20.8728 21.7925C20.8656 21.807 20.8223 21.8815 20.8063 21.901C20.7908 21.9201 20.7971 21.9562 20.7728 21.9592C20.7472 21.9624 20.7651 21.967 20.7651 21.967C20.7651 21.967 20.7871 21.9181 20.8038 21.8895V21.8895ZM21.6784 22.0189C21.6784 22.0189 21.5735 22.0032 21.5085 21.9802C21.4438 21.9584 21.335 21.9417 21.2424 21.944C21.1506 21.9452 21.0666 21.9729 20.9918 22.0015C20.9172 22.0292 20.8207 22.0315 20.8207 22.0315C20.8207 22.0315 20.766 22.0401 20.7916 22.0275C20.8159 22.0153 20.9005 21.9493 20.9005 21.9493L20.9552 21.8744C20.971 21.8701 21.2483 21.5061 21.2181 21.4084C21.2606 21.3365 21.3104 21.2082 21.2917 21.1859C21.2828 21.1768 21.0758 21.2516 21.0304 21.2928C20.9778 21.3382 20.9407 21.4329 20.9249 21.4875C20.9095 21.5416 20.8299 21.5864 20.8299 21.5864C20.7651 21.633 20.7182 21.7804 20.6962 21.901C20.674 22.02 20.3806 22.086 20.3806 22.086C20.3806 22.086 20.2992 22.1164 20.3714 22.1393C20.3839 22.1428 20.4161 22.1973 20.442 22.1982C20.4779 22.2024 20.6601 22.1244 20.6882 22.1305C20.7501 22.1446 20.8113 22.1613 20.8718 22.1807C20.9413 22.2043 20.9986 22.2164 21.0472 22.1984C21.0965 22.1807 21.167 22.1875 21.2198 22.1978C21.2718 22.209 21.33 22.2043 21.3635 22.1939C21.3994 22.183 21.4939 22.1305 21.4939 22.1305C21.4939 22.1305 21.5961 22.0863 21.6551 22.0586C21.7143 22.031 21.6784 22.0188 21.6784 22.0188" fill="#009B3A"/>
<path d="M21.4117 22.069C21.3849 22.0914 21.2771 22.1035 21.2487 22.1082C21.2198 22.112 21.1067 22.1132 21.0588 22.1149C21.0324 22.1167 20.9816 22.1241 20.9552 22.1241C20.7232 22.0976 21.3321 22.1013 21.4117 22.0689M21.6784 22.0189C21.6784 22.0189 21.5735 22.0032 21.5085 21.9802C21.4438 21.9584 21.335 21.9417 21.2424 21.944C21.1506 21.9452 21.0666 21.9729 20.9918 22.0015C20.9172 22.0292 20.8207 22.0315 20.8207 22.0315C20.8207 22.0315 20.766 22.0401 20.7916 22.0275C20.8159 22.0153 20.9005 21.9493 20.9005 21.9493L20.9552 21.8744C20.971 21.8701 21.2483 21.5061 21.2181 21.4084C21.2606 21.3365 21.3104 21.2082 21.2917 21.1859C21.2828 21.1768 21.0758 21.2516 21.0304 21.2928C20.9778 21.3382 20.9407 21.4329 20.9249 21.4875C20.9095 21.5416 20.8299 21.5864 20.8299 21.5864C20.7651 21.633 20.7182 21.7804 20.6962 21.901C20.674 22.02 20.3806 22.086 20.3806 22.086C20.3806 22.086 20.2992 22.1164 20.3714 22.1393C20.3839 22.1428 20.4161 22.1973 20.442 22.1982C20.4779 22.2024 20.6601 22.1244 20.6882 22.1305C20.7501 22.1446 20.8113 22.1613 20.8718 22.1807C20.9413 22.2043 20.9986 22.2164 21.0472 22.1984C21.0965 22.1807 21.167 22.1875 21.2198 22.1978C21.2718 22.209 21.33 22.2043 21.3635 22.1939C21.3994 22.183 21.4939 22.1305 21.4939 22.1305C21.4939 22.1305 21.5961 22.0863 21.6551 22.0586C21.7143 22.031 21.6784 22.0188 21.6784 22.0188M20.8038 21.8895C20.8189 21.8624 20.895 21.6932 20.9223 21.6451C20.9502 21.5979 21.0131 21.472 21.0508 21.4196C21.0702 21.3913 21.1459 21.3091 21.1639 21.3459C21.0321 21.4598 20.9282 21.6588 20.8728 21.7925C20.8656 21.807 20.8223 21.8815 20.8063 21.901C20.7908 21.9201 20.7971 21.9562 20.7728 21.9592C20.7472 21.9624 20.7651 21.967 20.7651 21.967C20.7651 21.967 20.7871 21.9181 20.8038 21.8895V21.8895Z" stroke="black" stroke-width="0.045697"/>
<path d="M20.8816 22.3731C20.8816 22.3731 20.4777 22.1617 20.456 22.1567C20.4432 22.1549 20.2727 22.061 20.1947 22.0367C20.1383 22.0185 20.0605 22.0137 20.0325 22.0155C19.966 22.0202 19.8574 22.0495 19.8574 22.0495L19.9578 22.0905C19.9578 22.0905 20.052 22.1368 20.098 22.1616C20.1639 22.1963 20.1669 22.2387 20.1669 22.2387L20.5326 22.3996L20.6068 22.4529C20.6068 22.4529 20.6743 22.3598 20.8816 22.3731Z" fill="#009B3A" stroke="black" stroke-width="0.0364848"/>
<path d="M21.2877 21.5339C21.4147 21.4205 21.4768 21.2594 21.5814 21.1702C21.5983 21.1824 21.5983 21.2026 21.5776 21.2383C21.5579 21.2734 21.5316 21.2856 21.52 21.3039C21.4987 21.3325 21.4351 21.3853 21.4179 21.4171C21.4026 21.4471 21.3828 21.4892 21.3274 21.5212C21.2722 21.5542 21.2896 21.6066 21.2849 21.6286C21.2805 21.6528 21.1956 21.7137 21.1545 21.7889C21.1467 21.8673 21.1432 21.8344 21.0956 21.8623C21.1822 21.7318 21.2277 21.6477 21.2877 21.5338M21.0022 21.8924C20.994 21.9096 20.7434 22.0518 20.8218 22.0307C20.8997 22.0102 21.1312 21.9267 21.197 21.8974C21.2774 21.8623 21.3256 21.7886 21.386 21.7287C21.4477 21.6675 21.6383 21.4853 21.6713 21.415C21.7036 21.3427 21.7329 21.2421 21.6036 21.0161C21.6036 21.0161 21.5836 21.0593 21.5354 21.1016C21.4877 21.1448 21.4167 21.1926 21.4167 21.1926L21.3338 21.271C21.3338 21.271 21.041 21.8088 21.0022 21.8925" fill="#009B3A"/>
<path d="M21.2877 21.5339C21.4147 21.4205 21.4768 21.2594 21.5814 21.1702C21.5983 21.1824 21.5983 21.2026 21.5776 21.2383C21.5579 21.2734 21.5316 21.2856 21.52 21.3039C21.4987 21.3325 21.4351 21.3853 21.4179 21.4171C21.4026 21.4471 21.3828 21.4892 21.3274 21.5212C21.2722 21.5542 21.2896 21.6066 21.2849 21.6286C21.2805 21.6528 21.1956 21.7137 21.1545 21.7889C21.1467 21.8673 21.1432 21.8344 21.0956 21.8623C21.1822 21.7318 21.2277 21.6477 21.2877 21.5338M21.0022 21.8924C20.994 21.9096 20.7434 22.0518 20.8218 22.0307C20.8997 22.0102 21.1312 21.9267 21.197 21.8974C21.2774 21.8623 21.3256 21.7886 21.386 21.7287C21.4477 21.6675 21.6383 21.4853 21.6713 21.415C21.7036 21.3427 21.7329 21.2421 21.6036 21.0161C21.6036 21.0161 21.5836 21.0593 21.5354 21.1016C21.4877 21.1448 21.4167 21.1926 21.4167 21.1926L21.3338 21.271C21.3338 21.271 21.041 21.8088 21.0022 21.8925" stroke="black" stroke-width="0.0481212"/>
<path d="M22.0193 21.7035C22.0193 21.7035 21.8589 21.6892 21.845 21.6892C21.8298 21.6892 21.7419 21.677 21.6142 21.677C21.4876 21.677 21.4401 21.7209 21.4069 21.7562C21.371 21.7958 21.2711 21.8872 21.2711 21.8872L21.325 21.8824C21.4532 21.7825 21.553 21.8192 21.5928 21.8162C21.6344 21.8148 21.6844 21.8189 21.8128 21.7735C21.9431 21.7278 21.9355 21.7705 21.9212 21.7749C21.859 21.7973 21.7938 21.8105 21.7277 21.8139C21.631 21.8193 21.5461 21.838 21.5081 21.838C21.4698 21.838 21.1875 21.9153 21.1875 21.9153C21.1875 21.9153 21.493 21.9332 21.5259 21.9441C21.5587 21.9574 21.61 21.9512 21.6525 21.9308C21.7695 21.8769 21.8224 21.8665 21.8705 21.8556C21.9189 21.8462 21.9765 21.8135 21.9765 21.8135C21.9765 21.8135 22.0074 21.794 22.0359 21.7422C22.0653 21.6892 22.0193 21.7035 22.0193 21.7035ZM22.1691 20.8665C22.1884 20.8187 22.2366 20.7064 22.2877 20.6622C22.3188 20.6351 22.3725 20.6224 22.4011 20.6104C22.4132 20.6062 22.501 20.602 22.3914 20.6321C22.3459 20.6442 22.2845 20.6711 22.2572 20.7169C22.2189 20.8232 22.1854 20.9158 22.1143 20.9838C22.062 21.0386 22.029 21.11 22.029 21.11L21.973 21.1294C22.0756 21.0665 22.1202 20.9499 22.1691 20.8665ZM22.6657 20.8067C22.6072 20.8262 22.5867 20.8423 22.5867 20.8423C22.4557 20.8816 22.4022 20.9638 22.3448 21.0307C22.3157 21.0657 22.2748 21.0919 22.1367 21.1511C22.0105 21.2053 21.9128 21.2892 21.9105 21.2892C21.9105 21.2892 21.8705 21.2973 21.8781 21.3168C21.8811 21.326 21.9152 21.3186 21.9152 21.3186C21.9152 21.3186 22.1752 21.2815 22.2836 21.2156C22.3528 21.1722 22.3919 21.1406 22.4575 21.0392C22.4869 20.9944 22.5199 20.9101 22.5214 20.9644C22.5265 21.1082 22.303 21.2476 22.2057 21.2907C22.1536 21.3128 22.0842 21.3219 21.9934 21.3369C21.9036 21.3535 21.849 21.3485 21.8556 21.3287C21.8647 21.3001 21.8752 21.2942 21.8989 21.2659C21.9417 21.215 22.045 21.1969 22.121 21.1612C22.211 21.1209 22.2963 21.0616 22.339 21.0109C22.3827 20.9597 22.3978 20.9408 22.4097 20.8975C22.443 20.7842 22.4447 20.7215 22.4759 20.6811C22.5857 20.5458 22.6018 20.5022 22.6072 20.4418C22.6083 20.4279 22.5502 20.4739 22.5199 20.4907C22.4608 20.5257 22.4388 20.5257 22.3177 20.5573C22.1947 20.588 22.1974 20.6673 22.1783 20.7047C22.1727 20.7197 22.1228 20.7819 22.099 20.7935C22.0753 20.8055 22.0168 20.8901 21.9951 20.9396C21.9791 20.9758 21.9505 21.0018 21.9277 20.9989C21.9037 20.9944 21.9737 20.7324 21.9891 20.6891C22.0058 20.6461 22.0091 20.562 22.0091 20.5337C22.0091 20.5066 22.01 20.4353 21.9625 20.4273C21.9153 20.4193 21.9131 20.354 21.9131 20.354C21.7994 20.4525 21.8629 20.626 21.8751 20.7289C21.8873 20.8308 21.8517 21.0195 21.8517 21.0195C21.9615 21.0664 21.8751 21.1998 21.841 21.243C21.8051 21.2868 21.737 21.2948 21.7065 21.3335C21.6741 21.3732 21.444 21.6936 21.444 21.6936L21.7302 21.6125C21.7302 21.6125 21.7569 21.6173 21.7142 21.5849C21.6708 21.5539 21.7281 21.4336 21.765 21.4042C21.8353 21.349 21.9304 21.3892 21.9304 21.3892C21.9304 21.3892 22.0631 21.4095 22.2259 21.3449C22.3619 21.2913 22.4203 21.2043 22.4848 21.1389C22.5199 21.1033 22.584 20.985 22.6244 20.9149C22.6488 20.8744 22.6924 20.7975 22.6656 20.8067" fill="#009B3A"/>
<path d="M22.6657 20.8067C22.6072 20.8262 22.5867 20.8423 22.5867 20.8423C22.4557 20.8816 22.4022 20.9638 22.3448 21.0307C22.3157 21.0657 22.2748 21.0919 22.1367 21.1511C22.0105 21.2053 21.9128 21.2892 21.9105 21.2892C21.9105 21.2892 21.8705 21.2973 21.8781 21.3168C21.8811 21.326 21.9152 21.3186 21.9152 21.3186C21.9152 21.3186 22.1752 21.2815 22.2836 21.2156C22.3528 21.1722 22.3919 21.1406 22.4575 21.0392C22.4869 20.9944 22.5199 20.9101 22.5214 20.9644C22.5265 21.1082 22.303 21.2476 22.2057 21.2907C22.1536 21.3128 22.0842 21.3219 21.9934 21.3369C21.9036 21.3535 21.849 21.3485 21.8556 21.3287C21.8647 21.3001 21.8752 21.2942 21.8989 21.2659C21.9417 21.215 22.045 21.1969 22.121 21.1612C22.211 21.1209 22.2963 21.0616 22.339 21.0109C22.3827 20.9597 22.3978 20.9408 22.4097 20.8975C22.443 20.7842 22.4447 20.7215 22.4759 20.6811C22.5857 20.5458 22.6018 20.5022 22.6072 20.4418C22.6083 20.4279 22.5502 20.4739 22.5199 20.4907C22.4608 20.5257 22.4388 20.5257 22.3177 20.5573C22.1947 20.588 22.1974 20.6673 22.1783 20.7047C22.1727 20.7197 22.1228 20.7819 22.099 20.7935C22.0753 20.8055 22.0168 20.8901 21.9951 20.9396C21.9791 20.9758 21.9505 21.0018 21.9277 20.9989C21.9037 20.9944 21.9737 20.7324 21.9891 20.6891C22.0058 20.6461 22.0091 20.562 22.0091 20.5337C22.0091 20.5066 22.01 20.4353 21.9625 20.4273C21.9153 20.4193 21.9131 20.354 21.9131 20.354C21.7994 20.4525 21.8629 20.626 21.8751 20.7289C21.8873 20.8308 21.8517 21.0195 21.8517 21.0195C21.9615 21.0664 21.8751 21.1998 21.841 21.243C21.8051 21.2868 21.737 21.2948 21.7065 21.3335C21.6741 21.3732 21.444 21.6936 21.444 21.6936L21.7302 21.6125C21.7302 21.6125 21.7569 21.6173 21.7142 21.5849C21.6708 21.5539 21.7281 21.4336 21.765 21.4042C21.8353 21.349 21.9304 21.3892 21.9304 21.3892C21.9304 21.3892 22.0631 21.4095 22.2259 21.3449C22.3619 21.2913 22.4203 21.2043 22.4848 21.1389C22.5199 21.1033 22.584 20.985 22.6244 20.9149C22.6488 20.8744 22.6924 20.7975 22.6656 20.8067M22.0193 21.7035C22.0193 21.7035 21.8589 21.6892 21.845 21.6892C21.8298 21.6892 21.7419 21.677 21.6142 21.677C21.4876 21.677 21.4401 21.7209 21.4069 21.7562C21.371 21.7958 21.2711 21.8872 21.2711 21.8872L21.325 21.8824C21.4532 21.7825 21.553 21.8192 21.5928 21.8162C21.6344 21.8148 21.6844 21.8189 21.8128 21.7735C21.9431 21.7278 21.9355 21.7705 21.9212 21.7749C21.859 21.7973 21.7938 21.8105 21.7277 21.8139C21.631 21.8193 21.5461 21.838 21.5081 21.838C21.4698 21.838 21.1875 21.9153 21.1875 21.9153C21.1875 21.9153 21.493 21.9332 21.5259 21.9441C21.5587 21.9574 21.61 21.9512 21.6525 21.9308C21.7695 21.8769 21.8224 21.8665 21.8705 21.8556C21.9189 21.8462 21.9765 21.8135 21.9765 21.8135C21.9765 21.8135 22.0074 21.794 22.0359 21.7422C22.0653 21.6892 22.0193 21.7035 22.0193 21.7035ZM22.1691 20.8665C22.1884 20.8187 22.2366 20.7064 22.2877 20.6622C22.3188 20.6351 22.3725 20.6224 22.4011 20.6104C22.4132 20.6062 22.501 20.602 22.3914 20.6321C22.3459 20.6442 22.2845 20.6711 22.2572 20.7169C22.2189 20.8232 22.1854 20.9158 22.1143 20.9838C22.062 21.0386 22.029 21.11 22.029 21.11L21.973 21.1294C22.0756 21.0665 22.1202 20.9499 22.1691 20.8665Z" stroke="black" stroke-width="0.045697"/>
<path d="M21.8549 21.576C21.8767 21.5672 21.88 21.5632 21.9201 21.5195C21.9595 21.4759 21.9247 21.4022 21.8638 21.4052C21.834 21.4072 21.8023 21.4003 21.7437 21.4791C21.6871 21.558 21.7707 21.5869 21.8026 21.5901C21.8161 21.5909 21.8341 21.5849 21.8549 21.576Z" fill="#009B3A" stroke="black" stroke-width="0.0509091"/>
<path d="M21.7068 21.0771C21.6688 21.1405 21.6486 21.2134 21.6784 21.2359C21.6851 21.2396 21.7115 21.2628 21.7338 21.2628C21.7557 21.2628 21.818 21.2329 21.8535 21.1781C21.8891 21.125 21.9181 21.0667 21.8454 21.0305C21.7795 20.9978 21.7341 21.0284 21.7068 21.077" fill="#009B3A"/>
<path d="M21.7068 21.0771C21.6688 21.1405 21.6486 21.2134 21.6784 21.2359C21.6851 21.2396 21.7115 21.2628 21.7338 21.2628C21.7557 21.2628 21.818 21.2329 21.8535 21.1781C21.8891 21.125 21.9181 21.0667 21.8454 21.0305C21.7795 20.9978 21.7341 21.0284 21.7068 21.077" stroke="black" stroke-width="0.052"/>
<path d="M21.9236 20.3025C21.9236 20.3025 21.9296 20.2927 21.9047 20.2668C21.8651 20.2264 21.8157 20.1543 21.8157 20.1543C21.737 20.1973 21.7108 20.2843 21.7108 20.3188C21.7108 20.3547 21.7242 20.4328 21.7121 20.5125C21.7078 20.5396 21.7035 20.5705 21.6645 20.669C21.6247 20.7662 21.6702 20.8556 21.6791 20.8871C21.6859 20.9184 21.7184 21.0156 21.7184 21.0156C21.7184 21.0156 21.7491 20.9958 21.7596 20.9935C21.7717 20.9902 21.8136 20.9921 21.8136 20.9921C21.8136 20.9921 21.861 20.9064 21.8627 20.8587C21.8636 20.8236 21.8581 20.7641 21.8414 20.6727C21.8182 20.5397 21.8197 20.5018 21.8355 20.4274C21.8512 20.3519 21.9236 20.3024 21.9236 20.3024" fill="#009B3A"/>
<path d="M21.9236 20.3025C21.9236 20.3025 21.9296 20.2927 21.9047 20.2668C21.8651 20.2264 21.8157 20.1543 21.8157 20.1543C21.737 20.1973 21.7108 20.2843 21.7108 20.3188C21.7108 20.3547 21.7242 20.4328 21.7121 20.5125C21.7078 20.5396 21.7035 20.5705 21.6645 20.669C21.6247 20.7662 21.6702 20.8556 21.6791 20.8871C21.6859 20.9184 21.7184 21.0156 21.7184 21.0156C21.7184 21.0156 21.7491 20.9958 21.7596 20.9935C21.7717 20.9902 21.8136 20.9921 21.8136 20.9921C21.8136 20.9921 21.861 20.9064 21.8627 20.8587C21.8636 20.8236 21.8581 20.7641 21.8414 20.6727C21.8182 20.5397 21.8197 20.5018 21.8355 20.4274C21.8512 20.3519 21.9236 20.3024 21.9236 20.3024" stroke="black" stroke-width="0.045697"/>
<path d="M22.0398 20.4353C22.0398 20.4353 22.0845 20.4247 22.107 20.3842C22.1354 20.3353 22.1279 20.2835 22.1279 20.2835C22.0587 20.1493 21.9657 20.2576 21.9657 20.2576C21.8824 20.4279 22.0398 20.4354 22.0398 20.4354" fill="#009B3A"/>
<path d="M22.0398 20.4353C22.0398 20.4353 22.0845 20.4247 22.107 20.3842C22.1354 20.3353 22.1279 20.2835 22.1279 20.2835C22.0587 20.1493 21.9657 20.2576 21.9657 20.2576C21.8824 20.4279 22.0398 20.4354 22.0398 20.4354" stroke="black" stroke-width="0.0501818"/>
<path d="M22.276 20.1893C22.1727 20.1946 22.1219 20.3802 22.1219 20.3802C22.1219 20.3802 22.1052 20.4261 22.0502 20.4615C21.9916 20.4977 22.0262 20.5497 22.0262 20.6421C22.0262 20.7345 21.9617 20.8979 21.9617 20.8979L21.9377 20.9533C21.9377 20.9533 21.94 20.9949 21.9776 20.9194C22.0416 20.7923 22.1118 20.8232 22.1382 20.6865C22.155 20.5848 22.3233 20.5524 22.3233 20.5524L22.276 20.5435C22.101 20.4615 22.2861 20.2571 22.316 20.2208C22.3477 20.1847 22.378 20.1847 22.276 20.1893Z" fill="#009B3A" stroke="black" stroke-width="0.0596364"/>
<path d="M22.2465 20.4094C22.1993 20.5108 22.3338 20.5157 22.3648 20.498C22.3774 20.4908 22.4058 20.457 22.4058 20.457C22.4604 20.3786 22.4105 20.3255 22.382 20.3179C22.3546 20.3088 22.2961 20.3019 22.2465 20.4094Z" fill="#009B3A" stroke="black" stroke-width="0.0507879"/>
<path d="M21.9916 20.016C22.0269 20.0818 22.1255 20.2647 22.1487 20.2533C22.1632 20.2462 22.1517 20.2088 22.1517 20.2088C22.1517 20.2088 22.1488 20.1593 22.1327 20.0994C22.1169 20.039 22.1208 19.9618 22.0893 19.9122C22.0588 19.8628 21.9854 19.8041 21.9566 19.7259C21.9281 19.6476 21.9505 19.4993 21.9528 19.481C21.9557 19.4639 21.9644 19.4751 21.9492 19.4574C21.9338 19.4382 21.8092 19.3719 21.8092 19.3719C21.8092 19.3719 21.8165 19.4203 21.8134 19.5079C21.8122 19.5291 21.8063 19.5538 21.803 19.5907C21.8001 19.6258 21.8212 19.6699 21.8723 19.7708C21.9316 19.8875 21.9601 19.9591 21.9916 20.016ZM22.7392 19.1455C22.7392 19.1455 22.7033 19.2054 22.6905 19.2186C22.6772 19.2319 22.4741 19.4064 22.4625 19.4137C22.4527 19.4214 22.3466 19.4553 22.2501 19.7162C22.1534 19.9762 22.1952 20.2193 22.1952 20.2193L22.2421 20.2135L22.2501 20.1881C22.2501 20.1881 22.2659 20.1018 22.278 20.0363C22.2915 19.9718 22.3638 19.8815 22.4119 19.8149C22.4577 19.7498 22.4946 19.6561 22.4946 19.6561C22.5491 19.5464 22.5752 19.4484 22.6292 19.3719C22.6313 19.463 22.2851 20.0229 22.248 20.2134L22.3506 20.1978C22.4325 20.123 22.5397 19.9658 22.6122 19.8645C22.6852 19.7628 22.7162 19.6039 22.7295 19.5334C22.7422 19.4639 22.7393 19.1456 22.7393 19.1456" fill="#009B3A"/>
<path d="M22.7392 19.1455C22.7392 19.1455 22.7033 19.2054 22.6905 19.2186C22.6772 19.2319 22.4741 19.4064 22.4625 19.4137C22.4527 19.4214 22.3466 19.4553 22.2501 19.7162C22.1534 19.9762 22.1952 20.2193 22.1952 20.2193L22.2421 20.2135L22.2501 20.1881C22.2501 20.1881 22.2659 20.1018 22.278 20.0363C22.2915 19.9718 22.3638 19.8815 22.4119 19.8149C22.4577 19.7498 22.4946 19.6561 22.4946 19.6561C22.5491 19.5464 22.5752 19.4484 22.6292 19.3719C22.6313 19.463 22.2851 20.0229 22.248 20.2134L22.3506 20.1978C22.4325 20.123 22.5397 19.9658 22.6122 19.8645C22.6852 19.7628 22.7162 19.6039 22.7295 19.5334C22.7422 19.4639 22.7393 19.1456 22.7393 19.1456M21.9916 20.016C22.0269 20.0818 22.1255 20.2647 22.1487 20.2533C22.1632 20.2462 22.1517 20.2088 22.1517 20.2088C22.1517 20.2088 22.1488 20.1593 22.1327 20.0994C22.1169 20.039 22.1208 19.9618 22.0893 19.9122C22.0588 19.8628 21.9854 19.8041 21.9566 19.7259C21.9281 19.6476 21.9505 19.4993 21.9528 19.481C21.9557 19.4639 21.9644 19.4751 21.9492 19.4574C21.9338 19.4382 21.8092 19.3719 21.8092 19.3719C21.8092 19.3719 21.8165 19.4203 21.8134 19.5079C21.8122 19.5291 21.8063 19.5538 21.803 19.5907C21.8001 19.6258 21.8212 19.6699 21.8723 19.7708C21.9316 19.8875 21.9601 19.9591 21.9916 20.016Z" stroke="black" stroke-width="0.045697"/>
<path d="M22.048 19.203C21.9957 19.1546 21.9551 19.1402 21.9551 19.1402C21.9551 19.1402 21.9676 19.2351 21.9676 19.2929C21.9676 19.3509 21.9727 19.4482 21.9696 19.5002C21.9676 19.5519 21.9417 19.6377 21.9785 19.7217C22.0163 19.8046 22.0587 19.8468 22.0887 19.8989C22.116 19.9499 22.1661 20.2151 22.1661 20.2151C22.1661 20.2151 22.1478 19.8565 22.1636 19.7551C22.1781 19.6554 22.1829 19.5001 22.1607 19.4223C22.1374 19.3441 22.0991 19.2525 22.048 19.203ZM22.287 18.8529C22.3028 18.8223 22.3396 18.7589 22.355 18.6625C22.3607 18.6216 22.3645 18.5552 22.363 18.5092C22.3619 18.4785 22.3497 18.4252 22.363 18.4217C22.3749 18.4188 22.365 18.4383 22.3717 18.4837C22.375 18.4999 22.3639 18.5448 22.3618 18.6023C22.3591 18.6482 22.3573 18.6866 22.3368 18.7488C22.319 18.8036 22.3351 18.8645 22.3241 18.8816C22.3123 18.8989 22.2808 18.9646 22.2808 18.9646C22.2808 18.9646 22.2615 19.0177 22.2648 19.066C22.2665 19.1155 22.2695 19.1689 22.2695 19.1689C22.2695 19.1689 22.2924 19.1265 22.3434 19.1194C22.3434 19.1194 22.355 19.0365 22.355 19.0106C22.355 18.9846 22.3883 18.8149 22.4052 18.763C22.4284 18.687 22.4447 18.5546 22.4079 18.401C22.3977 18.3595 22.3904 18.2295 22.3904 18.2295C22.3904 18.2295 22.3414 18.2687 22.3123 18.4169C22.3033 18.462 22.3224 18.5829 22.3149 18.7117C22.312 18.7828 22.2438 19.0707 22.2346 19.0887" fill="#009B3A"/>
<path d="M22.287 18.8529C22.3028 18.8223 22.3396 18.7589 22.355 18.6625C22.3607 18.6216 22.3645 18.5552 22.363 18.5092C22.3619 18.4785 22.3497 18.4252 22.363 18.4217C22.3749 18.4188 22.365 18.4383 22.3717 18.4837C22.375 18.4999 22.3639 18.5448 22.3618 18.6023C22.3591 18.6482 22.3573 18.6866 22.3368 18.7488C22.319 18.8036 22.3351 18.8645 22.3241 18.8816C22.3123 18.8989 22.2808 18.9646 22.2808 18.9646C22.2808 18.9646 22.2615 19.0177 22.2648 19.066C22.2665 19.1155 22.2695 19.1689 22.2695 19.1689C22.2695 19.1689 22.2924 19.1265 22.3434 19.1194C22.3434 19.1194 22.355 19.0365 22.355 19.0106C22.355 18.9846 22.3883 18.8149 22.4052 18.763C22.4284 18.687 22.4447 18.5546 22.4079 18.401C22.3977 18.3595 22.3904 18.2295 22.3904 18.2295C22.3904 18.2295 22.3414 18.2687 22.3123 18.4169C22.3033 18.462 22.3224 18.5829 22.3149 18.7117C22.312 18.7828 22.2438 19.0707 22.2346 19.0887M22.048 19.203C21.9957 19.1546 21.9551 19.1402 21.9551 19.1402C21.9551 19.1402 21.9676 19.2351 21.9676 19.2929C21.9676 19.3509 21.9727 19.4482 21.9696 19.5002C21.9676 19.5519 21.9417 19.6377 21.9785 19.7217C22.0163 19.8046 22.0587 19.8468 22.0887 19.8989C22.116 19.9499 22.1661 20.2151 22.1661 20.2151C22.1661 20.2151 22.1478 19.8565 22.1636 19.7551C22.1781 19.6554 22.1829 19.5001 22.1607 19.4223C22.1374 19.3441 22.0991 19.2525 22.048 19.203Z" stroke="black" stroke-width="0.045697"/>
<path d="M22.2886 18.853C22.2861 18.8577 22.2852 18.8596 22.2852 18.8596C22.2852 18.8596 22.2874 18.8577 22.2886 18.853Z" fill="#009B3A" stroke="black" stroke-width="0.045697"/>
<path d="M22.0943 18.1057C22.1205 18.1057 22.1205 18.134 22.1151 18.1564C22.111 18.1794 22.1116 18.2221 22.1116 18.2309C22.1116 18.241 22.1225 18.302 22.1312 18.3338C22.1407 18.3665 22.157 18.3768 22.1499 18.4425C22.145 18.4839 22.1026 18.5324 22.1175 18.6026C22.1255 18.6395 22.1519 18.6781 22.165 18.7099C22.1759 18.732 22.17 18.786 22.173 18.8302C22.1742 18.8733 22.1979 18.9024 22.1979 18.9024C22.1979 18.9024 22.1685 18.9573 22.1587 18.8886C22.1481 18.8098 22.1445 18.7748 22.1294 18.7391C22.1047 18.6807 22.0821 18.5757 22.1204 18.4947C22.127 18.4791 22.1321 18.45 22.1321 18.4154C22.1321 18.3804 22.1105 18.3204 22.1063 18.2833C22.1027 18.2538 22.1051 18.1916 22.1051 18.1691M21.9678 18.4988C21.974 18.5433 21.9883 18.5687 22.0385 18.6654C22.0539 18.6973 22.089 18.7786 22.0943 18.8045C22.1005 18.8305 22.1059 18.8617 22.1059 18.8697C22.1059 18.8782 22.1116 18.9393 22.1116 18.9393V18.9646C22.1116 18.9646 21.9725 18.8836 21.9117 18.8402C21.8511 18.7966 21.7822 18.7367 21.7382 18.7005C21.6884 18.6595 21.5695 18.5186 21.5681 18.4057L21.5135 18.3562C21.5135 18.3562 21.4718 18.6071 21.6684 18.7694C21.7251 18.816 21.787 18.8673 21.9191 18.9271C22.0516 18.9882 22.0342 19.0428 22.0894 19.1602C22.1438 19.278 22.1778 19.3459 22.1847 19.3792C22.1894 19.4148 22.1696 19.916 22.1696 19.916L22.1743 19.9614C22.1743 19.9614 22.2954 19.4972 22.3536 19.4454C22.3536 19.4454 22.2381 19.4276 22.2473 19.2461L22.227 19.1264C22.227 19.1264 22.2039 18.9825 22.2473 18.8933C22.2473 18.8933 22.2987 18.7296 22.2811 18.5882C22.2702 18.5036 22.2662 18.4782 22.2559 18.3971C22.2402 18.271 22.1896 18.0906 22.184 18.0688C22.1667 18.0054 22.1608 17.9957 22.1407 17.9456C22.1347 17.9279 22.1234 17.8695 22.1047 17.8687C22.094 17.868 22.0776 17.9438 22.0776 17.9438C22.0776 17.9438 22.0534 18.0264 22.0483 18.0487C22.0325 18.1154 21.9957 18.1713 21.9788 18.3211C21.9758 18.3482 21.9728 18.4213 21.9696 18.4311C21.9678 18.4393 21.9643 18.4824 21.9678 18.4988Z" fill="#009B3A"/>
<path d="M22.0943 18.1057C22.1205 18.1057 22.1205 18.134 22.1151 18.1564C22.111 18.1794 22.1116 18.2221 22.1116 18.2309C22.1116 18.241 22.1225 18.302 22.1312 18.3338C22.1407 18.3665 22.157 18.3768 22.1499 18.4425C22.145 18.4839 22.1026 18.5324 22.1175 18.6026C22.1255 18.6395 22.1519 18.6781 22.165 18.7099C22.1759 18.732 22.17 18.786 22.173 18.8302C22.1742 18.8733 22.1979 18.9024 22.1979 18.9024C22.1979 18.9024 22.1685 18.9573 22.1587 18.8886C22.1481 18.8098 22.1445 18.7748 22.1294 18.7391C22.1047 18.6807 22.0821 18.5757 22.1204 18.4947C22.127 18.4791 22.1321 18.45 22.1321 18.4154C22.1321 18.3804 22.1105 18.3204 22.1063 18.2833C22.1027 18.2538 22.1051 18.1916 22.1051 18.1691M21.9678 18.4988C21.974 18.5433 21.9883 18.5687 22.0385 18.6654C22.0539 18.6973 22.089 18.7786 22.0943 18.8045C22.1005 18.8305 22.1059 18.8617 22.1059 18.8697C22.1059 18.8782 22.1116 18.9393 22.1116 18.9393V18.9646C22.1116 18.9646 21.9725 18.8836 21.9117 18.8402C21.8511 18.7966 21.7822 18.7367 21.7382 18.7005C21.6884 18.6595 21.5695 18.5186 21.5681 18.4057L21.5135 18.3562C21.5135 18.3562 21.4718 18.6071 21.6684 18.7694C21.7251 18.816 21.787 18.8673 21.9191 18.9271C22.0516 18.9882 22.0342 19.0428 22.0894 19.1602C22.1438 19.278 22.1778 19.3459 22.1847 19.3792C22.1894 19.4148 22.1696 19.916 22.1696 19.916L22.1743 19.9614C22.1743 19.9614 22.2954 19.4972 22.3536 19.4454C22.3536 19.4454 22.2381 19.4276 22.2473 19.2461L22.227 19.1264C22.227 19.1264 22.2039 18.9825 22.2473 18.8933C22.2473 18.8933 22.2987 18.7296 22.2811 18.5882C22.2702 18.5036 22.2662 18.4782 22.2559 18.3971C22.2402 18.271 22.1896 18.0906 22.184 18.0688C22.1667 18.0054 22.1608 17.9957 22.1407 17.9456C22.1347 17.9279 22.1234 17.8695 22.1047 17.8687C22.094 17.868 22.0776 17.9438 22.0776 17.9438C22.0776 17.9438 22.0534 18.0264 22.0483 18.0487C22.0325 18.1154 21.9957 18.1713 21.9788 18.3211C21.9758 18.3482 21.9728 18.4213 21.9696 18.4311C21.9678 18.4393 21.9643 18.4824 21.9678 18.4988Z" stroke="black" stroke-width="0.045697"/>
<path d="M22.0713 19.1323C22.0713 19.1323 22.0511 19.0874 22.0306 19.0645C21.9893 19.0159 21.9338 18.9746 21.7758 18.8974C21.6184 18.819 21.5768 18.6901 21.4966 18.6371C21.4598 18.6117 21.3885 18.5996 21.3885 18.5996C21.3885 18.5996 21.4586 18.696 21.4752 18.7293C21.4966 18.7717 21.5017 18.8007 21.5884 18.8814C21.6745 18.9625 21.7796 18.9908 21.8473 19.0109C21.943 19.0406 22.0713 19.1324 22.0713 19.1324M21.5752 18.3874C21.5795 18.4001 21.6201 18.5387 21.7053 18.6463C21.8356 18.811 22.0866 18.9287 22.0866 18.9287C22.0631 18.8262 22.0222 18.7076 21.9898 18.6551C21.8757 18.4709 21.5744 18.3806 21.5744 18.3806C21.5744 18.3806 21.569 18.3736 21.5752 18.3874ZM21.935 18.4651C22.0025 18.3172 21.8009 18.176 21.7441 18.073C21.7651 18.0562 21.7901 18.1001 21.8132 18.1293C21.8462 18.1732 21.9392 18.3002 21.9392 18.3002L21.9679 18.165L21.7279 17.9465C21.725 17.9783 21.6508 18.0044 21.6508 18.0044C21.6149 18.2066 21.935 18.465 21.935 18.465" fill="#009B3A"/>
<path d="M22.0713 19.1323C22.0713 19.1323 22.0511 19.0874 22.0306 19.0645C21.9893 19.0159 21.9338 18.9746 21.7758 18.8974C21.6184 18.819 21.5768 18.6901 21.4966 18.6371C21.4598 18.6117 21.3885 18.5996 21.3885 18.5996C21.3885 18.5996 21.4586 18.696 21.4752 18.7293C21.4966 18.7717 21.5017 18.8007 21.5884 18.8814C21.6745 18.9625 21.7796 18.9908 21.8473 19.0109C21.943 19.0406 22.0713 19.1324 22.0713 19.1324M21.935 18.4651C22.0025 18.3172 21.8009 18.176 21.7441 18.073C21.7651 18.0562 21.7901 18.1001 21.8132 18.1293C21.8462 18.1732 21.9392 18.3002 21.9392 18.3002L21.9679 18.165L21.7279 17.9465C21.725 17.9783 21.6508 18.0044 21.6508 18.0044C21.6149 18.2066 21.935 18.465 21.935 18.465M21.5752 18.3874C21.5795 18.4001 21.6201 18.5387 21.7053 18.6463C21.8356 18.811 22.0866 18.9287 22.0866 18.9287C22.0631 18.8262 22.0222 18.7076 21.9898 18.6551C21.8757 18.4709 21.5744 18.3806 21.5744 18.3806C21.5744 18.3806 21.569 18.3736 21.5752 18.3874Z" stroke="black" stroke-width="0.045697"/>
<path d="M21.5159 18.1224C21.458 18.1484 21.4375 18.1484 21.4375 18.1484L21.4698 18.2341L21.4886 18.2573C21.4886 18.2573 21.564 18.3664 21.6079 18.38C21.6263 18.3868 21.695 18.3988 21.7639 18.4283C21.8505 18.4652 21.992 18.5889 21.992 18.5889C21.992 18.5889 21.7567 18.3235 21.6664 18.1244L21.636 18.0098L21.5507 18.0154C21.5507 18.0154 21.5741 18.0959 21.5159 18.1224Z" fill="#009B3A" stroke="black" stroke-width="0.045697"/>
<path d="M20.6356 17.9526C20.6751 17.9882 20.718 18.02 20.7636 18.0475C20.8155 18.0788 20.9652 18.1668 21.0772 18.1881C21.1034 18.1922 21.244 18.2099 21.244 18.2099C21.2496 18.1483 21.3165 18.1429 21.3165 18.1429L21.1173 18.1211C20.9566 18.1092 20.8344 18.0421 20.7392 17.9346C20.8668 18.012 21.0504 18.1338 21.1991 18.1273C21.8097 18.0673 21.0151 18.0521 20.9462 18.008C20.8731 17.9629 20.8108 17.888 20.8108 17.888L20.6318 17.88C20.6318 17.88 20.5438 17.8745 20.6356 17.9526Z" fill="#009B3A" stroke="black" stroke-width="0.045697"/>
<path d="M21.3553 18.3003C21.3948 18.2973 21.4224 18.29 21.4313 18.2467C21.4393 18.1983 21.421 18.1632 21.3627 18.1505C21.3304 18.1425 21.2736 18.1408 21.2505 18.1983C21.2253 18.2572 21.317 18.295 21.317 18.295C21.317 18.295 21.3345 18.3027 21.3553 18.3003ZM21.4238 17.9502C21.3721 17.9502 21.3545 17.9924 21.3656 18.0746C21.3792 18.1575 21.506 18.1212 21.506 18.1212L21.5295 18.1091C21.5295 18.1091 21.5467 18.0958 21.5371 18.0298C21.5282 17.9623 21.4758 17.9502 21.4238 17.9502ZM21.6313 18.0084H21.6293C21.6284 18.009 21.6313 18.0084 21.6313 18.0084Z" fill="#009B3A" stroke="black" stroke-width="0.045697"/>
<path d="M21.6283 18.0084C21.6298 18.0078 21.6334 18.006 21.6468 18.0022C21.6731 17.9922 21.6999 17.9288 21.6999 17.9288C21.7132 17.8431 21.6519 17.8219 21.6519 17.8219C21.5484 17.8013 21.5457 17.892 21.5457 17.892C21.5173 18.0102 21.6131 18.009 21.6283 18.0083M21.168 17.6025C21.1737 17.6417 21.2295 17.6986 21.2382 17.7083C21.2482 17.7171 21.3196 17.7915 21.3436 17.8247C21.3676 17.8581 21.4476 18.0091 21.4476 18.0091C21.4476 18.0091 21.4616 18.0068 21.4675 17.9953C21.4814 17.9718 21.4139 17.7888 21.4071 17.7762C21.3824 17.7206 21.342 17.6791 21.3014 17.6358C21.2919 17.6297 21.2586 17.5869 21.2221 17.541C21.2944 17.6334 21.4797 17.8964 21.5343 18.0133C21.5343 18.0133 21.5277 17.8887 21.5208 17.8218C21.4977 17.6267 21.4469 17.5662 21.4306 17.538C21.4018 17.4853 21.3288 17.434 21.2764 17.4159C21.2242 17.397 21.1624 17.3711 21.0962 17.3499C21.0279 17.329 21.0805 17.3906 21.1057 17.4437C21.1372 17.5065 21.1624 17.5628 21.1681 17.6025" fill="#009B3A"/>
<path d="M21.6283 18.0084C21.6298 18.0078 21.6334 18.006 21.6468 18.0022C21.6731 17.9922 21.6999 17.9288 21.6999 17.9288C21.7132 17.8431 21.6519 17.8219 21.6519 17.8219C21.5484 17.8013 21.5457 17.892 21.5457 17.892C21.5173 18.0102 21.6131 18.009 21.6283 18.0083M21.168 17.6025C21.1737 17.6417 21.2295 17.6986 21.2382 17.7083C21.2482 17.7171 21.3196 17.7915 21.3436 17.8247C21.3676 17.8581 21.4476 18.0091 21.4476 18.0091C21.4476 18.0091 21.4616 18.0068 21.4675 17.9953C21.4814 17.9718 21.4139 17.7888 21.4071 17.7762C21.3824 17.7206 21.342 17.6791 21.3014 17.6358C21.2919 17.6297 21.2586 17.5869 21.2221 17.541C21.2944 17.6334 21.4797 17.8964 21.5343 18.0133C21.5343 18.0133 21.5277 17.8887 21.5208 17.8218C21.4977 17.6267 21.4469 17.5662 21.4306 17.538C21.4018 17.4853 21.3288 17.434 21.2764 17.4159C21.2242 17.397 21.1624 17.3711 21.0962 17.3499C21.0279 17.329 21.0805 17.3906 21.1057 17.4437C21.1372 17.5065 21.1624 17.5628 21.1681 17.6025" stroke="black" stroke-width="0.045697"/>
<path d="M20.9129 17.9237C20.9803 17.9808 21.0106 18.0206 21.1505 18.0412C21.2915 18.0633 21.3034 18.054 21.3034 18.054C21.3034 18.054 21.3765 18.0186 21.3394 17.9877C21.1321 17.8965 20.9358 17.788 20.8362 17.666C20.8362 17.666 20.8535 17.6492 20.9253 17.7212C20.9669 17.7633 20.9949 17.7845 21.0204 17.8043C21.0958 17.857 21.1285 17.8721 21.2037 17.913C21.2437 17.9349 21.3438 17.9584 21.3438 17.9584C21.3438 17.9584 21.358 17.9281 21.3708 17.9245C21.383 17.9216 21.3631 17.874 21.276 17.8036C21.2276 17.7636 21.1849 17.7171 21.1489 17.6656C21.1489 17.6656 21.0459 17.643 20.9343 17.6244C20.8511 17.6112 20.6946 17.4898 20.6973 17.5227C20.7001 17.5567 20.7208 17.6619 20.7629 17.7288C20.8054 17.796 20.8458 17.8647 20.9129 17.9237" fill="#009B3A"/>
<path d="M20.9129 17.9237C20.9803 17.9808 21.0106 18.0206 21.1505 18.0412C21.2915 18.0633 21.3034 18.054 21.3034 18.054C21.3034 18.054 21.3765 18.0186 21.3394 17.9877C21.1321 17.8965 20.9358 17.788 20.8362 17.666C20.8362 17.666 20.8535 17.6492 20.9253 17.7212C20.9669 17.7633 20.9949 17.7845 21.0204 17.8043C21.0958 17.857 21.1285 17.8721 21.2037 17.913C21.2437 17.9349 21.3438 17.9584 21.3438 17.9584C21.3438 17.9584 21.358 17.9281 21.3708 17.9245C21.383 17.9216 21.3631 17.874 21.276 17.8036C21.2276 17.7636 21.1849 17.7171 21.1489 17.6656C21.1489 17.6656 21.0459 17.643 20.9343 17.6244C20.8511 17.6112 20.6946 17.4898 20.6973 17.5227C20.7001 17.5567 20.7208 17.6619 20.7629 17.7288C20.8054 17.796 20.8458 17.8647 20.9129 17.9237" stroke="black" stroke-width="0.045697"/>
<path d="M19.7491 22.1406C19.688 22.1586 19.2296 22.3307 19.2296 22.3307L19.1016 22.3819C19.2783 22.3422 19.4137 22.4312 19.4137 22.4312L19.9243 22.1949C19.9243 22.1949 19.9228 22.1871 19.9101 22.1779C19.8967 22.1689 19.8109 22.1219 19.7491 22.1406Z" fill="#009B3A" stroke="black" stroke-width="0.0364848"/>
<path d="M19.0815 22.3977C19.0781 22.4006 19.0746 22.4127 19.0835 22.4166C19.109 22.4307 19.1021 22.4363 19.2178 22.4502C19.3345 22.4629 19.4106 22.4407 19.4305 22.4187C19.4539 22.393 19.1415 22.3453 19.0814 22.3977" fill="#009B3A"/>
<path d="M19.0815 22.3977C19.0781 22.4006 19.0746 22.4127 19.0835 22.4166C19.109 22.4307 19.1021 22.4363 19.2178 22.4502C19.3345 22.4629 19.4106 22.4407 19.4305 22.4187C19.4539 22.393 19.1415 22.3453 19.0814 22.3977" stroke="black" stroke-width="0.0390303"/>
<path d="M18.3477 20.7486L18.3264 20.6053C18.3264 20.6053 18.2998 20.2179 18.2558 20.1402C18.2473 20.123 18.2512 20.0828 18.2232 20.0821C18.1698 20.0781 18.1698 20.2041 18.1633 20.3183C18.0764 20.8941 18.5356 21.3337 18.5356 21.3337L18.3477 20.7486Z" fill="#009B3A" stroke="black" stroke-width="0.0506667"/>
<path d="M20.6216 22.4544C20.6216 22.4544 20.5734 22.4437 20.6039 22.4061C20.6331 22.3703 20.7199 22.3512 20.7373 22.3512C20.7544 22.3504 20.8031 22.3547 20.8394 22.3648C20.876 22.3738 20.9265 22.4061 20.9117 22.4295C20.8963 22.4517 20.8468 22.4795 20.7792 22.4795C20.7212 22.4795 20.6915 22.478 20.6659 22.4707C20.6412 22.4613 20.6215 22.4544 20.6215 22.4544" fill="#009B3A"/>
<path d="M20.6216 22.4544C20.6216 22.4544 20.5734 22.4437 20.6039 22.4061C20.6331 22.3703 20.7199 22.3512 20.7373 22.3512C20.7544 22.3504 20.8031 22.3547 20.8394 22.3648C20.876 22.3738 20.9265 22.4061 20.9117 22.4295C20.8963 22.4517 20.8468 22.4795 20.7792 22.4795C20.7212 22.4795 20.6915 22.478 20.6659 22.4707C20.6412 22.4613 20.6215 22.4544 20.6215 22.4544" stroke="black" stroke-width="0.0466667"/>
<path d="M20.1227 22.1807C20.1227 22.1807 19.965 22.1082 19.8156 22.0351C19.6187 21.9389 19.382 21.8054 19.2172 21.5604C19.0109 21.2572 18.8314 21.0947 18.7881 21.0621C18.7435 21.0293 18.737 21.0172 18.7207 21.0403C18.7058 21.0603 18.7162 21.0777 18.7287 21.0989C18.7711 21.1679 18.8754 21.2975 18.9128 21.3672C18.9772 21.4915 19.1106 21.6273 19.1094 21.7079C19.1094 21.7191 19.0705 21.6999 19.0705 21.6999C19.0705 21.6999 18.7584 21.593 18.6319 21.2148C18.5398 20.9406 18.579 20.8601 18.5576 20.7231C18.5211 20.4796 18.5136 20.4598 18.3931 20.1869C18.3898 20.1801 18.3194 20.066 18.3099 20.0913C18.2969 20.1241 18.3218 20.2461 18.3218 20.2461L18.3346 20.3867C18.3346 20.3867 18.3244 20.6989 18.3244 20.7178C18.3244 20.7367 18.2458 20.9315 18.5798 21.259C18.5798 21.259 18.5849 21.3146 18.5401 21.2657C18.5083 21.2306 18.2692 21.047 18.1965 20.7449C18.1216 20.4427 18.1107 20.1403 18.1674 20.0147C18.2187 19.9013 18.3218 19.6238 18.2779 19.3815C18.2728 19.3563 18.2656 19.2819 18.2496 19.3014C18.2429 19.3109 18.2128 19.4335 18.1947 19.476C18.1695 19.534 18.1302 19.5911 18.1181 19.6312C18.0946 19.6993 17.9794 19.8046 18.0019 19.9982C18.0275 20.2207 18.042 20.2555 18.0688 20.3349C18.0779 20.3637 18.1003 20.4374 18.0858 20.4448C18.0724 20.4519 18.0252 20.3567 18.0252 20.3567C18.0252 20.3567 17.8136 19.941 17.9441 19.6038C18.0759 19.2681 18.4067 18.9497 18.4067 18.9497C18.4067 18.9497 18.6755 18.7269 18.7302 18.675C18.7516 18.655 18.7465 18.64 18.7393 18.6423C18.6726 18.6591 18.1555 18.7661 17.9738 19.3821C17.9738 19.3821 17.9643 19.4081 17.9509 19.4017C17.9342 19.3942 17.9509 19.3653 17.9509 19.3653C17.9509 19.3653 18.0647 18.9286 18.3838 18.7304C18.7322 18.5132 18.6913 18.545 18.8065 18.4766C18.879 18.4315 18.9446 18.3712 19.0256 18.237C19.0339 18.222 19.0669 18.1439 19.0625 18.1306C19.0589 18.1173 19.0432 18.1356 19.0358 18.1577C19.0358 18.1577 18.9372 18.3101 18.7895 18.3614C18.6414 18.4127 18.521 18.3395 18.3723 18.504C18.2232 18.6694 18.1047 18.8984 18.1047 18.8984C18.1047 18.8984 18.0658 18.9577 18.0572 18.9559C18.0409 18.9509 18.0652 18.8929 18.0652 18.8929C18.0652 18.8929 18.2642 18.4707 18.424 18.385C18.584 18.2986 18.7266 18.2157 18.8175 18.1456C18.928 18.0589 19.1183 17.8467 19.1869 17.7737C19.2015 17.758 19.3036 17.6545 19.3262 17.6209C19.3398 17.6026 19.3722 17.5761 19.3669 17.5715C19.3524 17.5606 19.2555 17.6071 19.2555 17.6071C19.2555 17.6071 18.7285 17.7523 18.4007 18.2475C18.3855 18.2705 18.3495 18.3172 18.3301 18.337C18.2951 18.3733 18.2776 18.4338 18.2776 18.4338C18.2562 18.4161 18.4629 18.1577 18.4629 18.1577L18.4991 17.9906C18.4991 17.9906 18.5603 17.7395 18.6889 17.5622C18.7016 17.5461 18.7776 17.4694 18.7905 17.4535C18.8159 17.4258 18.742 17.4777 18.7551 17.4661C18.7551 17.4661 18.2636 17.819 18.2636 18.2635C18.2636 18.3433 18.214 18.4163 18.1454 18.5155C18.0652 18.6308 18.0385 18.7016 18.0038 18.8731C17.9893 18.9452 17.9742 19.0172 17.9586 19.0891C17.9586 19.0891 17.9633 19.1526 17.9429 19.1478C17.9215 19.1431 17.9289 19.0906 17.9289 19.0906C17.9289 19.0906 17.9791 18.7593 18.0147 18.6573C18.0495 18.5583 18.0723 18.4908 18.0723 18.4908C18.0723 18.4908 18.0518 18.2417 18.1071 18.1052C18.154 17.9861 18.2728 17.8293 18.2912 17.7901C18.2992 17.773 18.3542 17.6614 18.3696 17.534C18.3717 17.5169 18.3583 17.5311 18.3361 17.5808C18.282 17.7026 18.2369 17.7344 18.1481 17.849C18.1481 17.849 17.9203 18.0141 17.8378 18.5052C17.8378 18.5052 17.835 18.6882 17.8072 18.9751C17.787 19.1853 17.8042 19.3821 17.8279 19.5007C17.8431 19.5732 17.8719 19.5738 17.8541 19.5826C17.843 19.5882 17.8612 19.5835 17.8353 19.5287C17.8038 19.463 17.7797 19.3618 17.7797 19.2221C17.7797 18.9659 17.8019 18.7603 17.8019 18.7603C17.8019 18.7603 17.8187 18.3463 17.647 18.1597C17.6387 18.15 17.6771 18.2435 17.6943 18.3366C17.7154 18.4522 17.6771 18.6126 17.6658 18.675C17.6549 18.7378 17.5404 19.0114 17.5809 19.2681C17.5809 19.2681 17.6776 19.7035 17.8024 19.9145C17.8024 19.9145 17.8799 20.0054 17.8113 19.9202C17.7433 19.835 17.6037 19.4962 17.5916 19.4673C17.5809 19.4397 17.4808 19.2288 17.3866 19.1431C17.3379 19.0977 17.204 19.0173 17.204 19.0173C17.204 19.0173 17.1313 18.9618 17.1864 19.0355C17.2301 19.0937 17.2887 19.1979 17.3165 19.2433C17.3745 19.3372 17.4262 19.4348 17.471 19.5357C17.5158 19.6342 17.6201 19.924 17.6201 19.924L17.6867 20.1077C17.6867 20.1077 17.7986 20.1698 17.8595 20.2375C17.9093 20.2924 18.0127 20.4183 18.0985 20.6423C18.1371 20.7413 18.2141 20.8321 18.2141 20.8321C18.2141 20.8321 18.1978 20.8635 18.1292 20.7448C18.0615 20.6244 17.9952 20.3987 17.8322 20.2232C17.7083 20.0884 17.375 19.9526 17.375 19.9526C17.375 19.9526 17.5892 20.3257 17.6423 20.3923C17.7323 20.499 17.8624 20.6487 17.8959 20.6883C17.9307 20.7287 18.1321 20.9774 18.1618 21.0173C18.2087 21.0795 18.2396 21.1069 18.2642 21.1322C18.3173 21.1887 18.4747 21.292 18.4869 21.3082C18.4892 21.3247 18.4924 21.3111 18.479 21.3013C18.4092 21.2597 18.3259 21.194 18.2398 21.138C18.1539 21.0811 17.8226 20.9397 17.5993 20.632C17.5464 20.5409 17.5212 20.5047 17.5033 20.5141C17.476 20.5286 17.6536 21.1163 18.0189 21.3032C18.0189 21.3032 18.4219 21.4824 18.5113 21.5363C18.5603 21.5658 18.6592 21.6094 18.7049 21.6463C18.731 21.6678 18.6812 21.6666 18.6779 21.666C18.4638 21.6493 18.1564 21.6209 17.9678 21.5115C17.9678 21.5115 17.8867 21.4546 17.9532 21.5346C18.0061 21.5964 18.1065 21.7488 18.3001 21.8346C18.4941 21.9197 18.7759 21.9693 18.879 21.9746C18.9802 21.9803 19.3413 21.982 19.4105 22.0044C19.4782 22.0273 19.5935 22.1012 19.6594 22.1224C19.7193 22.1418 19.9002 22.2112 19.9002 22.2112C19.9002 22.2112 19.9546 22.241 19.9837 22.2515C20.0164 22.2646 20.1518 22.2634 20.1614 22.238C20.1705 22.2153 20.1227 22.1807 20.1227 22.1807Z" fill="#009B3A" stroke="black" stroke-width="0.0364848"/>
<path d="M22.4655 19.1205C22.5064 19.1354 22.5245 19.2569 22.5245 19.2569C22.5245 19.2569 22.5209 19.1874 22.5209 19.1531C22.5209 19.1186 22.5041 18.9893 22.5041 18.9893L22.4678 19.0152C22.4245 19.0497 22.4004 19.1107 22.4004 19.1107C22.4004 19.1107 22.4253 19.1066 22.4655 19.1204" fill="#009B3A"/>
<path d="M22.4655 19.1205C22.5064 19.1354 22.5245 19.2569 22.5245 19.2569C22.5245 19.2569 22.5209 19.1874 22.5209 19.1531C22.5209 19.1186 22.5041 18.9893 22.5041 18.9893L22.4678 19.0152C22.4245 19.0497 22.4004 19.1107 22.4004 19.1107C22.4004 19.1107 22.4253 19.1066 22.4655 19.1204" stroke="black" stroke-width="0.045697"/>
</g>
<defs>
<clipPath id="clip0_1_12332">
<rect width="40" height="40" rx="20" fill="white"/>
</clipPath>
</defs>
</svg>
