<svg width="40" height="40" viewBox="0 0 40 40" fill="none" xmlns="http://www.w3.org/2000/svg">
<g clip-path="url(#clip0_1_6624)">
<path d="M3 7L6 -27L46 -4.5L43 20.3333L9.22222 33.3704L3 7Z" fill="#0038A8"/>
<path d="M9.22222 20.3333H43V64.9998L-8.5 47.4998L3 33.6667L9.22222 20.3333Z" fill="#CE1126"/>
<path d="M26.0939 20.3333L3 33.6667L0 64L-17 3.5L3 -19.5V7L26.0939 20.3333Z" fill="white"/>
<path d="M11.2956 23C12.7683 23 13.9622 21.8061 13.9622 20.3333C13.9622 18.8606 12.7683 17.6667 11.2956 17.6667C9.82281 17.6667 8.62891 18.8606 8.62891 20.3333C8.62891 21.8061 9.82281 23 11.2956 23Z" fill="#FCD116"/>
<path d="M11.2988 20.3337L10.3613 15.62L10.6413 15.3397L11.2988 20.3337ZM11.2988 20.3337L10.9524 15.0505L11.2988 14.7041L11.6452 15.0505L11.2988 20.3337ZM11.2988 20.3337L11.9563 15.3397L12.2363 15.62L11.2988 20.3337Z" fill="#FCD116"/>
<path d="M11.2988 20.3341L12.2363 25.0479L11.9563 25.3282L11.2988 20.3341ZM11.2988 20.3341L11.6452 25.6173L11.2988 25.9637L10.9525 25.6173L11.2988 20.3341ZM11.2988 20.3341L10.6414 25.3282L10.3614 25.0479L11.2988 20.3341Z" fill="#FCD116"/>
<path d="M11.2981 20.334L16.0119 19.3965L16.2922 19.6765L11.2981 20.334ZM11.2981 20.334L16.5814 19.9876L16.9277 20.334L16.5814 20.6803L11.2981 20.334ZM11.2981 20.334L16.2922 20.9914L16.0119 21.2714L11.2981 20.334Z" fill="#FCD116"/>
<path d="M11.2976 20.334L6.58382 21.2715L6.30352 20.9915L11.2976 20.334ZM11.2976 20.334L6.01434 20.6804L5.66797 20.334L6.01434 19.9876L11.2976 20.334ZM11.2976 20.334L6.30352 19.6765L6.58382 19.3965L11.2976 20.334Z" fill="#FCD116"/>
<path d="M11.2954 20.3334L13.9657 16.3374L14.3619 16.3372L11.2954 20.3334ZM11.2954 20.3334L14.7863 16.3527L15.2762 16.3527L15.2762 16.8425L11.2954 20.3334ZM11.2954 20.3334L15.2917 17.267L15.2915 17.6632L11.2954 20.3334Z" fill="#FCD116"/>
<path d="M11.2964 20.3332L8.62612 24.3293L8.22993 24.3295L11.2964 20.3332ZM11.2964 20.3332L7.80546 24.314L7.31562 24.314L7.31562 23.8242L11.2964 20.3332ZM11.2964 20.3332L7.30011 23.3997L7.30032 23.0035L11.2964 20.3332Z" fill="#FCD116"/>
<path d="M11.2939 20.3335L15.2899 23.0038L15.2901 23.4L11.2939 20.3335ZM11.2939 20.3335L15.2746 23.8244L15.2746 24.3143L14.7848 24.3143L11.2939 20.3335ZM11.2939 20.3335L14.3603 24.3298L13.9641 24.3296L11.2939 20.3335Z" fill="#FCD116"/>
<path d="M11.294 20.334L7.298 17.6637L7.29779 17.2675L11.294 20.334ZM11.294 20.334L7.31329 16.8431L7.31329 16.3532L7.80313 16.3532L11.294 20.334ZM11.294 20.334L8.22761 16.3377L8.62379 16.3379L11.294 20.334Z" fill="#FCD116"/>
<path d="M23.428 20.3332L22.426 20.6817L22.4043 21.7421L21.7635 20.8968L20.748 21.204L21.354 20.3332L20.748 19.4624L21.7635 19.7697L22.4043 18.9243L22.426 19.9848L23.428 20.3332Z" fill="#FCD116"/>
<path d="M4.33244 31.3572L4.53172 30.3152L3.62416 29.7662L4.67669 29.6339L4.9183 28.6009L5.36948 29.561L6.42659 29.4717L5.65279 30.1974L6.06443 31.1751L5.13524 30.6636L4.33244 31.3572Z" fill="#FCD116"/>
<path d="M4.33326 9.30957L5.13606 10.0032L6.06524 9.49168L5.65361 10.4694L6.42741 11.1951L5.3703 11.1058L4.91911 12.0659L4.6775 11.0329L3.62498 10.9006L4.53253 10.3516L4.33326 9.30957Z" fill="#FCD116"/>
</g>
<defs>
<clipPath id="clip0_1_6624">
<rect width="40" height="40" rx="20" fill="white"/>
</clipPath>
</defs>
</svg>
