<svg width="40" height="40" viewBox="0 0 40 40" fill="none" xmlns="http://www.w3.org/2000/svg">
<g clip-path="url(#clip0_1_3047)">
<path d="M51 0H-9V40H51V0Z" fill="#FF0000"/>
<path d="M15 0H-9V40H15V0Z" fill="#006600"/>
<path fill-rule="evenodd" clip-rule="evenodd" d="M22.824 26.2038C19.803 26.1128 5.94998 17.4658 5.85498 16.0888L6.61994 14.8131C7.99404 16.8097 22.1559 25.2191 23.5469 24.9211L22.8239 26.2034" fill="#FFFF00"/>
<path d="M22.824 26.2038C19.803 26.1128 5.94998 17.4658 5.85498 16.0888L6.61994 14.8131C7.99404 16.8097 22.1559 25.2191 23.5469 24.9211L22.8239 26.2034" stroke="black" stroke-width="0.0573" stroke-linecap="round" stroke-linejoin="round"/>
<path fill-rule="evenodd" clip-rule="evenodd" d="M6.45924 14.6397C6.18823 15.369 10.0741 17.7715 14.7495 20.6151C19.4247 23.4585 23.456 25.2157 23.7548 24.9637C23.7731 24.9311 23.9019 24.7096 23.89 24.7113C23.834 24.7957 23.6977 24.8224 23.485 24.7611C22.2219 24.3967 18.9275 22.8846 14.8476 20.4105C10.7678 17.9362 7.21818 15.6561 6.66648 14.6873C6.62812 14.6202 6.60078 14.4977 6.60634 14.4024L6.59293 14.4022L6.47546 14.6075L6.45932 14.6397L6.45924 14.6397ZM22.8952 26.2437C22.844 26.3366 22.7485 26.3397 22.5671 26.3198C21.4371 26.1947 18.0082 24.5273 13.9509 22.0985C9.22988 19.2725 5.33088 16.6975 5.75388 16.0245L5.86897 15.821L5.89164 15.8281C5.51127 16.9686 13.5864 21.5859 14.0618 21.8803C18.7342 24.775 22.6733 26.4654 23.0219 26.0261L22.8951 26.2442V26.244L22.8952 26.2437Z" fill="#FFFF00" stroke="black" stroke-width="0.0573" stroke-linecap="round" stroke-linejoin="round"/>
<path fill-rule="evenodd" clip-rule="evenodd" d="M15.0177 16.923C18.0414 16.8991 21.7727 16.5098 23.92 15.654L23.4574 14.9023C22.1882 15.6048 18.4364 16.0667 14.9922 16.1358C10.9186 16.0983 8.04319 15.719 6.60249 14.7523L6.16577 15.5528C8.81417 16.6735 11.528 16.9114 15.0177 16.923Z" fill="#FFFF00" stroke="black" stroke-width="0.0573" stroke-linecap="round" stroke-linejoin="round"/>
<path fill-rule="evenodd" clip-rule="evenodd" d="M24.0434 15.671C23.9695 15.7891 22.5691 16.2721 20.5061 16.6285C19.1073 16.8417 17.2827 17.024 15.0057 17.0263C12.8424 17.0283 11.0752 16.8743 9.73727 16.693C7.57167 16.3534 6.45397 15.881 6.04077 15.714C6.08028 15.6354 6.10568 15.5803 6.14378 15.5069C7.33328 15.9805 8.45618 16.2661 9.77168 16.4685C11.1008 16.6485 12.8467 16.8047 14.9993 16.8027C17.2657 16.8004 19.0702 16.6042 20.4609 16.3973C22.5764 16.0561 23.732 15.617 23.8943 15.4131L24.0437 15.671H24.0435H24.0434ZM23.6373 14.9087C23.408 15.0929 22.2655 15.498 20.2554 15.819C18.9139 16.0113 17.2082 16.1834 15.0289 16.1855C12.9585 16.1875 11.267 16.048 9.98044 15.8606C7.93904 15.594 6.85254 15.113 6.46084 14.9728C6.49982 14.9054 6.53951 14.8386 6.58025 14.7715C6.88504 14.9249 7.93355 15.3506 10.0029 15.6437C11.2749 15.8241 12.969 15.9585 15.0291 15.9564C17.1981 15.9542 18.8844 15.7787 20.2174 15.5875C22.2379 15.3095 23.3251 14.7928 23.4902 14.6634L23.6374 14.9085L23.6373 14.9087Z" fill="#FFFF00" stroke="black" stroke-width="0.0573" stroke-linecap="round" stroke-linejoin="round"/>
<path fill-rule="evenodd" clip-rule="evenodd" d="M5.0875 20.5658C6.9473 21.5661 11.078 22.0702 14.9869 22.1049C18.546 22.1105 23.1827 21.5547 24.9166 20.6359L24.8689 19.6347C24.3264 20.4824 19.3576 21.2956 14.9483 21.2623C10.539 21.229 6.44449 20.548 5.07959 19.6664L5.08753 20.5655" fill="#FFFF00"/>
<path d="M5.0875 20.5658C6.9473 21.5661 11.078 22.0702 14.9869 22.1049C18.546 22.1105 23.1827 21.5547 24.9166 20.6359L24.8689 19.6347C24.3264 20.4824 19.3576 21.2956 14.9483 21.2623C10.539 21.229 6.44449 20.548 5.07959 19.6664L5.08753 20.5655" stroke="black" stroke-width="0.0573" stroke-linecap="round" stroke-linejoin="round"/>
<path fill-rule="evenodd" clip-rule="evenodd" d="M25.0131 20.4221L25.0132 20.6608C24.7526 20.9724 23.1186 21.4434 21.0695 21.775C19.51 22.0141 17.4768 22.1945 14.9433 22.1945C12.5364 22.1945 10.617 22.0228 9.12851 21.7943C6.77561 21.4517 5.27061 20.8517 4.96851 20.6726L4.96983 20.3941C5.87731 20.9974 8.33593 21.4388 9.16153 21.5739C10.6403 21.8009 12.5483 21.9712 14.9432 21.9712C17.4648 21.9712 19.4866 21.7921 21.0363 21.5546C22.5064 21.3422 24.6007 20.7899 25.013 20.4222L25.0131 20.4221ZM25.0141 19.5729L25.0142 19.8116C24.7536 20.123 23.1196 20.594 21.0705 20.9256C19.511 21.1647 17.4778 21.345 14.9443 21.345C12.5374 21.345 10.618 21.1736 9.12951 20.9449C6.77661 20.6024 5.27161 20.0025 4.96951 19.8233L4.97083 19.5448C5.87831 20.148 8.33693 20.5895 9.16253 20.7244C10.6413 20.9516 12.5493 21.122 14.9442 21.122C17.4658 21.122 19.4876 20.9428 21.0373 20.7051C22.5074 20.4927 24.6017 19.9404 25.014 19.5727L25.0141 19.5729Z" fill="#FFFF00" stroke="black" stroke-width="0.0573" stroke-linecap="round" stroke-linejoin="round"/>
<path fill-rule="evenodd" clip-rule="evenodd" d="M14.9792 26.0317C10.702 26.0062 7.03708 24.8658 6.26318 24.6773L6.82751 25.5607C8.19451 26.1358 11.7699 26.9927 15.0202 26.8978C18.2706 26.803 21.1112 26.5512 23.113 25.5767L23.6916 24.6612C22.3274 25.3037 17.6849 26.0251 14.9792 26.0317Z" fill="#FFFF00" stroke="black" stroke-width="0.0573" stroke-linecap="round" stroke-linejoin="round"/>
<path fill-rule="evenodd" clip-rule="evenodd" d="M23.3301 25.3715C23.245 25.5014 23.1583 25.6297 23.0704 25.7545C22.1263 26.0874 20.6385 26.4369 20.0107 26.5389C18.7283 26.8031 16.7442 26.9983 14.9833 26.9991C11.1943 26.9437 8.09283 26.2019 6.63373 25.5692L6.516 25.3668L6.53522 25.3364L6.73488 25.4138C9.32968 26.3422 12.244 26.7125 15.0047 26.779C16.7585 26.7852 18.5142 26.578 19.9339 26.3241C22.111 25.8879 22.9913 25.5591 23.2614 25.4101L23.3301 25.3715ZM23.8318 24.544C23.834 24.5465 23.8362 24.549 23.8383 24.5517C23.7747 24.6591 23.7092 24.7683 23.6421 24.878C23.1385 25.058 21.7719 25.4579 19.7762 25.7369C18.4613 25.916 17.644 26.0895 15.0283 26.1403C10.1268 26.0156 6.95329 25.0572 6.19939 24.8208L6.08765 24.6065C8.92825 25.348 11.8298 25.8657 15.0284 25.9186C17.4215 25.8676 18.4396 25.6914 19.7436 25.5136C22.0707 25.1517 23.2432 24.7686 23.5951 24.658C23.5907 24.6517 23.5855 24.645 23.5797 24.6381L23.832 24.5438L23.8318 24.544Z" fill="#FFFF00" stroke="black" stroke-width="0.055" stroke-linecap="round" stroke-linejoin="round"/>
<path fill-rule="evenodd" clip-rule="evenodd" d="M23.883 19.7757C23.8969 22.5894 22.457 25.1143 21.2972 26.2282C19.6564 27.8041 17.4809 28.8178 14.9403 28.8645C12.1033 28.9166 9.42832 27.0671 8.71082 26.2546C7.30802 24.6661 6.16592 22.6489 6.12932 19.9303C6.30308 16.8594 7.50862 14.7203 9.25612 13.2534C11.0036 11.7865 13.3304 11.0721 15.2682 11.1232C17.504 11.1822 20.1157 12.279 21.9203 14.4564C23.1026 15.883 23.6146 17.4312 23.883 19.7757ZM14.9644 10.1415C20.4129 10.1415 24.894 14.5753 24.894 20.0118C24.894 25.4482 20.4129 29.8822 14.9644 29.8822C9.51592 29.8822 5.07202 25.4483 5.07202 20.0118C5.07202 14.5753 9.51592 10.1415 14.9644 10.1415Z" fill="#FFFF00" stroke="black" stroke-width="0.0573" stroke-linecap="round" stroke-linejoin="round"/>
<path fill-rule="evenodd" clip-rule="evenodd" d="M14.9907 10.1078C20.4441 10.1078 24.8918 14.5561 24.8918 20.01C24.8918 25.4638 20.444 29.912 14.9907 29.912C9.5373 29.912 5.0896 25.4639 5.0896 20.01C5.0896 14.5561 9.5374 10.1078 14.9907 10.1078ZM5.3075 20.01C5.3075 25.336 9.6811 29.6942 14.9907 29.6942C20.3004 29.6942 24.674 25.336 24.674 20.01C24.674 14.6838 20.3003 10.3256 14.9907 10.3256C9.6811 10.3256 5.3075 14.684 5.3075 20.01Z" fill="#FFFF00" stroke="black" stroke-width="0.0573" stroke-linecap="round" stroke-linejoin="round"/>
<path fill-rule="evenodd" clip-rule="evenodd" d="M14.9987 10.9305C19.9718 10.9305 24.068 15.0126 24.068 20.0009C24.068 24.9893 19.9717 29.0712 14.9987 29.0712C10.0257 29.0712 5.92944 24.9893 5.92944 20.0009C5.92944 15.0126 10.0258 10.9305 14.9987 10.9305ZM6.14724 20.0009C6.14724 24.8694 10.1451 28.8533 14.9987 28.8533C19.8523 28.8533 23.8502 24.8694 23.8502 20.0009C23.8502 15.1323 19.8524 11.1484 14.9987 11.1484C10.1451 11.1484 6.14724 15.1323 6.14724 20.0009Z" fill="#FFFF00" stroke="black" stroke-width="0.0573" stroke-linecap="round" stroke-linejoin="round"/>
<path fill-rule="evenodd" clip-rule="evenodd" d="M15.3971 10.0677H14.5486L14.5496 29.9637H15.401L15.3971 10.0677Z" fill="#FFFF00" stroke="black" stroke-width="0.0573" stroke-linecap="round" stroke-linejoin="round"/>
<path fill-rule="evenodd" clip-rule="evenodd" d="M15.3126 9.95445H15.5286L15.5304 30.0795H15.3143L15.3126 9.95445ZM14.4705 9.95463H14.6881L14.6884 30.0796H14.4706V9.95463H14.4705Z" fill="#FFFF00" stroke="black" stroke-width="0.0573" stroke-linecap="round" stroke-linejoin="round"/>
<path fill-rule="evenodd" clip-rule="evenodd" d="M24.8995 20.3936V19.6581L24.3005 19.1001L20.9005 18.2001L16.0005 17.7001L10.1005 18.0001L5.90049 19.0001L5.05249 19.6281V20.3638L7.20049 19.4001L12.3005 18.6001H17.2005L20.8005 19.0001L23.3005 19.6001L24.8995 20.3936Z" fill="#FFFF00" stroke="black" stroke-width="0.0573" stroke-linecap="round" stroke-linejoin="round"/>
<path fill-rule="evenodd" clip-rule="evenodd" d="M14.9952 18.4769C17.3335 18.4726 19.6022 18.6984 21.4017 19.0488C23.2586 19.42 24.5654 19.8844 25.0122 20.4059L25.0117 20.6642C24.4728 20.0151 22.7144 19.5394 21.3599 19.2674C19.5741 18.92 17.3206 18.6957 14.9952 18.7C12.5414 18.7046 10.2565 18.937 8.49675 19.2803C7.08475 19.5605 5.20165 20.1171 4.96655 20.6661V20.3972C5.09566 20.0172 6.49785 19.4493 8.46495 19.0555C10.2379 18.7098 12.527 18.4814 14.9952 18.4769ZM14.9962 17.6277C17.3345 17.6234 19.6032 17.8494 21.4027 18.1996C23.2596 18.571 24.5664 19.0352 25.0132 19.5567L25.0127 19.8149C24.4738 19.1661 22.7154 18.6902 21.3609 18.4183C19.5751 18.0708 17.3216 17.8465 14.9962 17.851C12.5424 17.8554 10.2686 18.088 8.50865 18.4311C7.14605 18.6894 5.18605 19.2681 4.96745 19.8171V19.548C5.09656 19.1722 6.52715 18.5839 8.46595 18.2063C10.2389 17.8606 12.528 17.6323 14.9962 17.6277Z" fill="#FFFF00" stroke="black" stroke-width="0.0573" stroke-linecap="round" stroke-linejoin="round"/>
<path fill-rule="evenodd" clip-rule="evenodd" d="M14.9487 13.2957C18.6336 13.2773 21.8477 13.811 23.3182 14.5642L23.8546 15.4921C22.5765 14.8033 19.109 14.0871 14.9541 14.1942C11.5687 14.215 7.95137 14.5669 6.13647 15.5352L6.77682 14.4643C8.26632 13.6919 11.779 13.3 14.9488 13.2959" fill="#FFFF00"/>
<path d="M14.9487 13.2957C18.6336 13.2773 21.8477 13.811 23.3182 14.5642L23.8546 15.4921C22.5765 14.8033 19.109 14.0871 14.9541 14.1942C11.5687 14.2151 7.95137 14.5669 6.13647 15.5352L6.77682 14.4643C8.26632 13.6919 11.779 13.3 14.9488 13.2959" stroke="black" stroke-width="0.0573" stroke-linecap="round" stroke-linejoin="round"/>
<path fill-rule="evenodd" clip-rule="evenodd" d="M14.9962 14.0618C17.0979 14.0563 19.1287 14.1748 20.7438 14.4662C22.2479 14.7461 23.6823 15.1663 23.8874 15.3923L24.0464 15.6732C23.5476 15.3475 22.3063 14.9849 20.7125 14.6827C19.1119 14.3818 17.0825 14.2822 14.9925 14.2876C12.6203 14.2795 10.7773 14.4048 9.19563 14.6805C7.52283 14.9935 6.36223 15.4407 6.07593 15.6532L6.23176 15.3561C6.78807 15.0723 7.67076 14.7302 9.15406 14.4631C10.7898 14.1643 12.6524 14.0747 14.9964 14.0619L14.9962 14.0618ZM14.9953 13.2134C17.0066 13.2081 18.9925 13.3202 20.5405 13.5985C21.7614 13.8362 22.9688 14.2072 23.4109 14.5374L23.6435 14.9069C23.2481 14.4675 21.7599 14.051 20.4461 13.8177C18.91 13.5528 17.0066 13.4479 14.9953 13.4312C12.8845 13.4371 10.9338 13.5664 9.42008 13.842C7.97598 14.1168 7.04408 14.4421 6.64978 14.6962L6.85429 14.3876C7.39843 14.1011 8.27749 13.838 9.38459 13.6229C10.9095 13.3453 12.8721 13.2193 14.9953 13.2134Z" fill="#FFFF00" stroke="black" stroke-width="0.0573" stroke-linecap="round" stroke-linejoin="round"/>
<path fill-rule="evenodd" clip-rule="evenodd" d="M19.9146 24.1259C18.0928 23.7858 16.2677 23.7364 14.9929 23.7514C8.85222 23.8234 6.86852 25.0123 6.62642 25.3723L6.16748 24.6242C7.73088 23.491 11.0748 22.8555 15.0262 22.9205C17.078 22.9541 18.8486 23.0903 20.3381 23.3788L19.9145 24.1261" fill="#FFFF00"/>
<path d="M19.9146 24.1259C18.0928 23.7858 16.2677 23.7364 14.9929 23.7514C8.85222 23.8234 6.86852 25.0123 6.62642 25.3723L6.16748 24.6242C7.73088 23.491 11.0748 22.8555 15.0262 22.9205C17.078 22.9541 18.8486 23.0903 20.3381 23.3788L19.9145 24.1261" stroke="black" stroke-width="0.0573" stroke-linecap="round" stroke-linejoin="round"/>
<path fill-rule="evenodd" clip-rule="evenodd" d="M14.9586 23.6456C16.6668 23.6711 18.3435 23.7417 19.9619 24.0435L19.8447 24.2504C18.3416 23.9729 16.7392 23.8667 14.9644 23.8754C12.6981 23.8576 10.4059 24.0693 8.41032 24.6421C7.78064 24.8173 6.73822 25.2221 6.63192 25.5566L6.51533 25.3644C6.54893 25.1666 7.17896 24.7563 8.35673 24.4254C10.6425 23.7708 12.7806 23.6605 14.9586 23.6455L14.9586 23.6456ZM15.0361 22.786C16.8059 22.8191 18.6336 22.9009 20.4101 23.2528L20.2881 23.4682C18.6839 23.1497 17.1512 23.0435 15.0466 23.0112C12.7731 23.0153 10.3615 23.1774 8.16878 23.8149C7.46087 24.0211 6.23908 24.4669 6.19838 24.8199L6.08179 24.6133C6.10833 24.2927 7.16599 23.8745 8.11759 23.5977C10.3272 22.9553 12.745 22.7901 15.0361 22.786Z" fill="#FFFF00" stroke="black" stroke-width="0.055" stroke-linecap="round" stroke-linejoin="round"/>
<path fill-rule="evenodd" clip-rule="evenodd" d="M23.7572 24.7378L23.0193 25.8827L20.8992 23.9998L15.3992 20.2998L9.19922 16.8998L5.98022 15.7988L6.66622 14.5268L6.89922 14.3998L8.89922 14.8998L15.4992 18.2998L19.2992 20.6998L22.4992 22.9998L23.7992 24.4998L23.7572 24.7378Z" fill="#FFFF00" stroke="black" stroke-width="0.0573" stroke-linecap="round" stroke-linejoin="round"/>
<path fill-rule="evenodd" clip-rule="evenodd" d="M5.86468 15.8289C6.42928 15.4459 10.5786 17.2944 14.9202 19.9123C19.2503 22.5377 23.3879 25.5044 23.0144 26.0596L22.8915 26.2528L22.8352 26.2972C22.8473 26.2886 22.9095 26.2125 22.8291 26.0066C22.6446 25.3996 19.7096 23.0575 14.8397 20.1171C10.0922 17.2862 6.13559 15.58 5.73999 16.0677L5.86468 15.8289ZM23.9087 24.7216C24.2657 24.0164 20.4171 21.1172 15.6455 18.2944C10.7642 15.5278 7.24608 13.8993 6.60348 14.3849L6.4607 14.6448C6.45946 14.6591 6.4659 14.627 6.49607 14.6038C6.61292 14.5018 6.80659 14.5087 6.89399 14.5071C8.00049 14.5237 11.1607 15.978 15.5946 18.5199C17.5374 19.6514 23.8017 23.669 23.7778 24.7988C23.7795 24.8959 23.7858 24.9159 23.7493 24.964L23.9087 24.7216Z" fill="#FFFF00"/>
<path d="M23.9087 24.7216C24.2657 24.0164 20.4171 21.1172 15.6455 18.2944C10.7642 15.5278 7.24608 13.8993 6.60348 14.3849L6.4607 14.6448C6.45946 14.6591 6.4659 14.627 6.49607 14.6038C6.61292 14.5018 6.80659 14.5087 6.89399 14.5071C8.00049 14.5237 11.1607 15.978 15.5946 18.5199C17.5374 19.6514 23.8017 23.669 23.7778 24.7988C23.7795 24.8959 23.7858 24.9159 23.7493 24.964L23.9087 24.7216ZM23.9087 24.7216L23.9087 24.7214M5.86468 15.8289C6.42928 15.4459 10.5786 17.2944 14.9202 19.9123C19.2503 22.5377 23.3879 25.5044 23.0144 26.0596L22.8915 26.2528L22.8352 26.2972C22.8473 26.2886 22.9095 26.2125 22.8291 26.0066C22.6446 25.3996 19.7096 23.0575 14.8397 20.1171C10.0922 17.2862 6.13559 15.58 5.73999 16.0677L5.86468 15.8289Z" stroke="black" stroke-width="0.0573" stroke-linecap="round" stroke-linejoin="round"/>
<path d="M9.05999 21.1009C9.05999 22.728 9.72627 24.1996 10.8057 25.2751C11.8872 26.3529 13.3569 27.033 14.9866 27.033C16.6247 27.033 18.1113 26.3678 19.1882 25.2941C20.2651 24.2206 20.9325 22.7389 20.9328 21.1061H20.9326V13.1872L9.05859 13.1731L9.05982 21.1009L9.05999 21.1009Z" fill="white" stroke="black" stroke-width="0.067037"/>
<path d="M9.28337 21.1116V21.1161C9.28337 22.6718 9.92751 24.0885 10.9609 25.117C11.9963 26.1475 13.4223 26.7882 14.9823 26.7882C16.5504 26.7882 17.9735 26.1522 19.0045 25.1256C20.0353 24.0991 20.6742 22.6823 20.6744 21.1212H20.6742V13.4386L9.29017 13.4368L9.2832 21.1116M18.3854 15.7369L18.3858 20.626L18.3817 21.1431C18.3817 21.2792 18.3736 21.4344 18.3577 21.5665C18.2652 22.3394 17.9097 23.0132 17.3832 23.5373C16.7668 24.1508 15.9161 24.5314 14.9785 24.5314C14.0458 24.5314 13.2146 24.1376 12.5956 23.5214C11.9606 22.8894 11.5926 22.0228 11.5926 21.1267L11.5912 15.7244L18.3852 15.7367L18.3854 15.7369Z" fill="#FF0000"/>
<path d="M9.28337 21.1116V21.1161C9.28337 22.6718 9.92751 24.0885 10.9609 25.117C11.9963 26.1475 13.4223 26.7882 14.9823 26.7882C16.5504 26.7882 17.9735 26.1522 19.0045 25.1256C20.0353 24.0991 20.6742 22.6823 20.6744 21.1212H20.6742V13.4386L9.29017 13.4368L9.2832 21.1116M18.3854 15.7369L18.3858 20.626L18.3817 21.1431C18.3817 21.2792 18.3736 21.4344 18.3577 21.5665C18.2652 22.3394 17.9097 23.0132 17.3832 23.5373C16.7668 24.1508 15.9161 24.5314 14.9785 24.5314C14.0458 24.5314 13.2146 24.1376 12.5956 23.5214C11.9606 22.8894 11.5926 22.0228 11.5926 21.1267L11.5912 15.7244L18.3852 15.7367L18.3854 15.7369Z" stroke="black" stroke-width="0.050734"/>
<path d="M10.0215 15.4428C10.035 14.8907 10.4267 14.76 10.4295 14.7581C10.4324 14.7562 10.8527 14.8988 10.8513 15.4479L10.0215 15.4428Z" fill="#FFFF00"/>
<path d="M9.68341 14.7688L9.61523 15.4033L10.0293 15.4042C10.0333 14.8793 10.4267 14.792 10.4362 14.7939C10.4451 14.7934 10.8351 14.91 10.8455 15.4042H11.2606L11.1856 14.7649L9.68344 14.7687L9.68341 14.7688Z" fill="#FFFF00" stroke="black" stroke-width="0.05"/>
<path d="M9.58639 15.4058H11.281C11.3167 15.4058 11.3459 15.4411 11.3459 15.4842C11.3459 15.5272 11.3167 15.5623 11.281 15.5623H9.58639C9.55068 15.5623 9.52148 15.5272 9.52148 15.4842C9.52148 15.4411 9.55068 15.4058 9.58639 15.4058Z" fill="#FFFF00" stroke="black" stroke-width="0.05"/>
<path d="M10.2031 15.4031C10.205 15.0718 10.4293 14.9781 10.4305 14.9783C10.4306 14.9783 10.6647 15.0749 10.6666 15.4031H10.2031Z" fill="#FFFF00" stroke="black" stroke-width="0.05"/>
<path d="M9.62281 14.5051H11.2473C11.2815 14.5051 11.3096 14.537 11.3096 14.5756C11.3096 14.6143 11.2815 14.6461 11.2473 14.6461H9.62281C9.58859 14.6461 9.56055 14.6145 9.56055 14.5756C9.56055 14.537 9.58859 14.5051 9.62281 14.5051Z" fill="#FFFF00" stroke="black" stroke-width="0.05"/>
<path d="M9.65719 14.6472H11.211C11.2437 14.6472 11.2705 14.6789 11.2705 14.7176C11.2705 14.7564 11.2437 14.7881 11.211 14.7881H9.65719C9.62447 14.7881 9.59766 14.7564 9.59766 14.7176C9.59766 14.6789 9.62447 14.6472 9.65719 14.6472Z" fill="#FFFF00" stroke="black" stroke-width="0.05"/>
<path d="M10.1584 13.5879L10.281 13.5881V13.6753H10.3705V13.5862L10.4962 13.5866V13.6753H10.586V13.5862H10.7117L10.7115 13.7874C10.7115 13.819 10.6862 13.8394 10.6567 13.8394H10.2156C10.1859 13.8394 10.1586 13.8157 10.1585 13.7868L10.1582 13.588L10.1584 13.5879Z" fill="#FFFF00" stroke="black" stroke-width="0.05"/>
<path d="M10.6194 13.8569L10.6471 14.502L10.2168 14.5005L10.2453 13.8552L10.6194 13.8569Z" fill="#FFFF00" stroke="black" stroke-width="0.05"/>
<path d="M10.0967 14.156L10.1098 14.5038L9.69727 14.504L9.70891 14.156L10.0967 14.156Z" fill="#FFFF00" stroke="black" stroke-width="0.05"/>
<path d="M11.1553 14.156L11.1684 14.5038L10.7559 14.504L10.7675 14.156L11.1553 14.156Z" fill="#FFFF00" stroke="black" stroke-width="0.05"/>
<path d="M9.63125 13.9039L9.75119 13.9042V13.9914H9.83894V13.9022L9.96188 13.9026V13.9915H10.0498V13.9022L10.1728 13.9024L10.1726 14.1036C10.1726 14.135 10.1478 14.1555 10.119 14.1555H9.68732C9.65839 14.1555 9.63149 14.1319 9.6314 14.1029L9.6311 13.904L9.63125 13.9039Z" fill="#FFFF00" stroke="black" stroke-width="0.05"/>
<path d="M10.6916 13.9038L10.8115 13.9041V13.9914H10.8992V13.9021L11.0222 13.9025V13.9914H11.1101V13.9021L11.2331 13.9023L11.2329 14.1035C11.2329 14.1349 11.2081 14.1554 11.1793 14.1554H10.7476C10.7187 14.1554 10.6918 14.1318 10.6917 14.1028L10.6914 13.9039L10.6916 13.9038Z" fill="#FFFF00" stroke="black" stroke-width="0.05"/>
<path d="M10.3907 14.0607C10.388 13.998 10.4783 13.9973 10.4773 14.0607V14.2144H10.3907L10.3907 14.0607Z" fill="black"/>
<path d="M9.85938 14.2839C9.85908 14.2234 9.94307 14.2221 9.94201 14.2839V14.4027H9.85941L9.85938 14.2839Z" fill="black"/>
<path d="M10.9219 14.2839C10.9216 14.2233 11.0056 14.2221 11.0045 14.2839V14.4026H10.9219L10.9219 14.2839Z" fill="black"/>
<path d="M10.0215 20.0746C10.035 19.5225 10.4267 19.3918 10.4295 19.3899C10.4324 19.388 10.8527 19.5306 10.8513 20.0797L10.0215 20.0746Z" fill="#FFFF00"/>
<path d="M9.68341 19.4006L9.61523 20.0351L10.0293 20.036C10.0333 19.5111 10.4267 19.4238 10.4362 19.4257C10.4451 19.4252 10.8351 19.5418 10.8455 20.036H11.2606L11.1856 19.3967L9.68344 19.4005L9.68341 19.4006Z" fill="#FFFF00" stroke="black" stroke-width="0.05"/>
<path d="M9.58639 20.0376H11.281C11.3167 20.0376 11.3459 20.0729 11.3459 20.116C11.3459 20.159 11.3167 20.1941 11.281 20.1941H9.58639C9.55068 20.1941 9.52148 20.159 9.52148 20.116C9.52148 20.0729 9.55068 20.0376 9.58639 20.0376Z" fill="#FFFF00" stroke="black" stroke-width="0.05"/>
<path d="M10.2031 20.0349C10.205 19.7036 10.4293 19.6099 10.4305 19.6101C10.4306 19.6101 10.6647 19.7067 10.6666 20.0349H10.2031Z" fill="#FFFF00" stroke="black" stroke-width="0.05"/>
<path d="M9.62281 19.1369H11.2473C11.2815 19.1369 11.3096 19.1688 11.3096 19.2074C11.3096 19.2461 11.2815 19.2779 11.2473 19.2779H9.62281C9.58859 19.2779 9.56055 19.2463 9.56055 19.2074C9.56055 19.1688 9.58859 19.1369 9.62281 19.1369Z" fill="#FFFF00" stroke="black" stroke-width="0.05"/>
<path d="M9.65719 19.279H11.211C11.2437 19.279 11.2705 19.3107 11.2705 19.3494C11.2705 19.3882 11.2437 19.4199 11.211 19.4199H9.65719C9.62447 19.4199 9.59766 19.3882 9.59766 19.3494C9.59766 19.3107 9.62447 19.279 9.65719 19.279Z" fill="#FFFF00" stroke="black" stroke-width="0.05"/>
<path d="M10.1584 18.2197L10.281 18.2199V18.3071H10.3705V18.218L10.4962 18.2184V18.3071H10.586V18.218H10.7117L10.7115 18.4192C10.7115 18.4508 10.6862 18.4712 10.6567 18.4712H10.2156C10.1859 18.4712 10.1586 18.4475 10.1585 18.4186L10.1582 18.2198L10.1584 18.2197Z" fill="#FFFF00" stroke="black" stroke-width="0.05"/>
<path d="M10.6194 18.4887L10.6471 19.1338L10.2168 19.1323L10.2453 18.487L10.6194 18.4887Z" fill="#FFFF00" stroke="black" stroke-width="0.05"/>
<path d="M10.0967 18.7878L10.1098 19.1356L9.69727 19.1358L9.70891 18.7878L10.0967 18.7878Z" fill="#FFFF00" stroke="black" stroke-width="0.05"/>
<path d="M11.1553 18.7878L11.1684 19.1356L10.7559 19.1358L10.7675 18.7878L11.1553 18.7878Z" fill="#FFFF00" stroke="black" stroke-width="0.05"/>
<path d="M9.63125 18.5357L9.75119 18.536V18.6232H9.83894V18.534L9.96188 18.5344V18.6233H10.0498V18.534L10.1728 18.5342L10.1726 18.7354C10.1726 18.7668 10.1478 18.7873 10.119 18.7873H9.68732C9.65839 18.7873 9.63149 18.7637 9.6314 18.7347L9.6311 18.5358L9.63125 18.5357Z" fill="#FFFF00" stroke="black" stroke-width="0.05"/>
<path d="M10.6916 18.5356L10.8115 18.5359V18.6232H10.8992V18.5339L11.0222 18.5343V18.6232H11.1101V18.534L11.2331 18.5342L11.2329 18.7353C11.2329 18.7667 11.2081 18.7872 11.1793 18.7872H10.7476C10.7187 18.7872 10.6918 18.7636 10.6917 18.7346L10.6914 18.5357L10.6916 18.5356Z" fill="#FFFF00" stroke="black" stroke-width="0.05"/>
<path d="M10.3907 18.6925C10.388 18.6298 10.4783 18.6291 10.4773 18.6925V18.8462H10.3907L10.3907 18.6925Z" fill="black"/>
<path d="M9.85938 18.9157C9.85908 18.8552 9.94307 18.8539 9.94201 18.9157V19.0345H9.85941L9.85938 18.9157Z" fill="black"/>
<path d="M10.9219 18.9157C10.9216 18.8551 11.0056 18.8539 11.0045 18.9157V19.0344H10.9219L10.9219 18.9157Z" fill="black"/>
<path d="M11.8275 24.8962C11.4452 24.4977 11.6285 24.1276 11.6291 24.1242C11.6298 24.1209 12.0271 23.9231 12.4158 24.311L11.8275 24.8962Z" fill="#FFFF00"/>
<path d="M11.1111 24.661L11.5133 25.1564L11.8057 24.8632C11.436 24.4905 11.6513 24.1498 11.6594 24.1444C11.6653 24.1378 12.0228 23.9432 12.3808 24.284L12.6733 23.9895L12.1668 23.5922L11.1111 24.6608L11.1111 24.661Z" fill="#FFFF00" stroke="black" stroke-width="0.05"/>
<path d="M11.4945 25.1781L12.6885 23.9756C12.7137 23.9503 12.7593 23.9544 12.7899 23.9848C12.8204 24.0151 12.8247 24.0606 12.7996 24.0859L11.6055 25.2884C11.5804 25.3137 11.5349 25.3097 11.5044 25.2794C11.4738 25.249 11.4693 25.2034 11.4945 25.1781Z" fill="#FFFF00" stroke="black" stroke-width="0.05"/>
<path d="M11.9262 24.7393C11.6925 24.5046 11.784 24.2793 11.785 24.2786C11.785 24.2785 12.0186 24.1805 12.2528 24.4104L11.9262 24.7393Z" fill="#FFFF00" stroke="black" stroke-width="0.05"/>
<path d="M10.8796 24.5178L12.0242 23.3651C12.0483 23.3408 12.0907 23.3433 12.1181 23.3706C12.1456 23.3978 12.1483 23.4401 12.1242 23.4644L10.9796 24.6171C10.9555 24.6414 10.9133 24.6391 10.8857 24.6117C10.8583 24.5844 10.8555 24.5421 10.8796 24.5178Z" fill="#FFFF00" stroke="black" stroke-width="0.05"/>
<path d="M11.0065 24.5935L12.1014 23.4909C12.1244 23.4677 12.1658 23.471 12.1933 23.4983C12.2208 23.5256 12.2244 23.567 12.2013 23.5902L11.1065 24.6927C11.0834 24.716 11.0421 24.7127 11.0145 24.6853C10.9871 24.6581 10.9835 24.6167 11.0065 24.5935Z" fill="#FFFF00" stroke="black" stroke-width="0.05"/>
<path d="M10.6083 23.4914L10.6949 23.4045L10.7567 23.4659L10.8198 23.4023L10.7565 23.3396L10.8454 23.2507L10.9083 23.3132L10.9716 23.2495L10.9084 23.1867L10.997 23.0975L11.1396 23.2394C11.162 23.2616 11.1586 23.2941 11.1379 23.315L10.8271 23.628C10.8062 23.649 10.7701 23.6517 10.7495 23.6314L10.6082 23.4915L10.6083 23.4914Z" fill="#FFFF00" stroke="black" stroke-width="0.05"/>
<path d="M11.1245 23.3532L11.6018 23.7881L11.2975 24.0923L10.8597 23.6175L11.1245 23.3532Z" fill="#FFFF00" stroke="black" stroke-width="0.05"/>
<path d="M10.9667 23.9363L11.2228 24.172L10.9322 24.4649L10.6935 24.2115L10.9667 23.9363Z" fill="#FFFF00" stroke="black" stroke-width="0.05"/>
<path d="M11.7148 23.1834L11.9708 23.4191L11.6803 23.712L11.4416 23.4586L11.7148 23.1834Z" fill="#FFFF00" stroke="black" stroke-width="0.05"/>
<path d="M10.462 24.088L10.5467 24.0031L10.6086 24.0646L10.6705 24.0023L10.6071 23.9394L10.694 23.8525L10.7571 23.9151L10.8191 23.8527L10.7557 23.7898L10.8426 23.7027L10.9852 23.8446C11.0075 23.8667 11.0045 23.8988 10.9842 23.9192L10.68 24.2255C10.6596 24.246 10.624 24.2485 10.6033 24.2281L10.462 24.0882L10.462 24.088Z" fill="#FFFF00" stroke="black" stroke-width="0.05"/>
<path d="M11.2081 23.3351L11.2928 23.2502L11.3547 23.3117L11.4166 23.2494L11.3532 23.1865L11.4401 23.0995L11.5032 23.1622L11.5652 23.0998L11.5018 23.0369L11.5887 22.9498L11.7313 23.0916C11.7536 23.1138 11.7505 23.1458 11.7303 23.1662L11.4261 23.4726C11.4057 23.4931 11.3701 23.4956 11.3494 23.4752L11.2081 23.3353L11.2081 23.3351Z" fill="#FFFF00" stroke="black" stroke-width="0.05"/>
<path d="M11.1076 23.6593C11.0612 23.617 11.1243 23.5524 11.1686 23.5978L11.2776 23.7061L11.2166 23.7675L11.1076 23.6593Z" fill="black"/>
<path d="M10.8898 24.1945C10.8465 24.152 10.9049 24.0915 10.948 24.1358L11.0322 24.2195L10.974 24.2781L10.8898 24.1945Z" fill="black"/>
<path d="M11.64 23.4395C11.5968 23.397 11.6551 23.3366 11.6982 23.3809L11.7825 23.4645L11.7243 23.5231L11.64 23.4395Z" fill="black"/>
<path d="M14.5898 15.4428C14.6033 14.8907 14.9951 14.76 14.9979 14.7581C15.0007 14.7562 15.421 14.8988 15.4196 15.4479L14.5898 15.4428Z" fill="#FFFF00"/>
<path d="M14.2518 14.7688L14.1836 15.4033L14.5977 15.4042C14.6016 14.8793 14.995 14.792 15.0046 14.7939C15.0135 14.7934 15.4035 14.91 15.4139 15.4042H15.829L15.754 14.7649L14.2518 14.7687L14.2518 14.7688Z" fill="#FFFF00" stroke="black" stroke-width="0.05"/>
<path d="M14.1548 15.4058H15.8494C15.8851 15.4058 15.9143 15.4411 15.9143 15.4842C15.9143 15.5272 15.8851 15.5623 15.8494 15.5623H14.1548C14.119 15.5623 14.0898 15.5272 14.0898 15.4842C14.0898 15.4411 14.119 15.4058 14.1548 15.4058Z" fill="#FFFF00" stroke="black" stroke-width="0.05"/>
<path d="M14.7715 15.4031C14.7733 15.0718 14.9977 14.9781 14.9988 14.9783C14.9989 14.9783 15.2331 15.0749 15.2349 15.4031H14.7715Z" fill="#FFFF00" stroke="black" stroke-width="0.05"/>
<path d="M14.1912 14.5051H15.8157C15.8499 14.5051 15.8779 14.537 15.8779 14.5756C15.8779 14.6143 15.8499 14.6461 15.8157 14.6461H14.1912C14.157 14.6461 14.1289 14.6145 14.1289 14.5756C14.1289 14.537 14.157 14.5051 14.1912 14.5051Z" fill="#FFFF00" stroke="black" stroke-width="0.05"/>
<path d="M14.2255 14.6472H15.7793C15.8121 14.6472 15.8389 14.6789 15.8389 14.7176C15.8389 14.7564 15.8121 14.7881 15.7793 14.7881H14.2255C14.1928 14.7881 14.166 14.7564 14.166 14.7176C14.166 14.6789 14.1928 14.6472 14.2255 14.6472Z" fill="#FFFF00" stroke="black" stroke-width="0.05"/>
<path d="M14.7267 13.5879L14.8494 13.5881V13.6753H14.9389V13.5862L15.0646 13.5866V13.6753H15.1543V13.5862H15.2801L15.2799 13.7874C15.2799 13.819 15.2545 13.8394 15.2251 13.8394H14.7839C14.7543 13.8394 14.727 13.8157 14.7269 13.7868L14.7266 13.588L14.7267 13.5879Z" fill="#FFFF00" stroke="black" stroke-width="0.05"/>
<path d="M15.1877 13.8569L15.2154 14.502L14.7852 14.5005L14.8136 13.8552L15.1877 13.8569Z" fill="#FFFF00" stroke="black" stroke-width="0.05"/>
<path d="M14.665 14.156L14.6782 14.5038L14.2656 14.504L14.2773 14.156L14.665 14.156Z" fill="#FFFF00" stroke="black" stroke-width="0.05"/>
<path d="M15.7236 14.156L15.7368 14.5038L15.3242 14.504L15.3359 14.156L15.7236 14.156Z" fill="#FFFF00" stroke="black" stroke-width="0.05"/>
<path d="M14.1996 13.9039L14.3196 13.9042V13.9914H14.4073V13.9022L14.5302 13.9026V13.9915H14.6182V13.9022L14.7412 13.9024L14.741 14.1036C14.741 14.135 14.7161 14.1555 14.6874 14.1555H14.2557C14.2268 14.1555 14.1999 14.1319 14.1998 14.1029L14.1995 13.904L14.1996 13.9039Z" fill="#FFFF00" stroke="black" stroke-width="0.05"/>
<path d="M15.2599 13.9038L15.3799 13.9041V13.9914H15.4676V13.9021L15.5905 13.9025V13.9914H15.6785V13.9021L15.8015 13.9023L15.8013 14.1035C15.8013 14.1349 15.7764 14.1554 15.7477 14.1554H15.316C15.2871 14.1554 15.2602 14.1318 15.2601 14.1028L15.2598 13.9039L15.2599 13.9038Z" fill="#FFFF00" stroke="black" stroke-width="0.05"/>
<path d="M14.959 14.0607C14.9564 13.998 15.0467 13.9973 15.0456 14.0607V14.2144H14.959L14.959 14.0607Z" fill="black"/>
<path d="M14.4277 14.2839C14.4274 14.2234 14.5114 14.2221 14.5104 14.2839V14.4027H14.4278L14.4277 14.2839Z" fill="black"/>
<path d="M15.4902 14.2839C15.4899 14.2233 15.5739 14.2221 15.5729 14.2839V14.4026H15.4903L15.4902 14.2839Z" fill="black"/>
<path d="M19.959 15.4428C19.9455 14.8907 19.5537 14.76 19.5509 14.7581C19.5481 14.7562 19.1278 14.8988 19.1292 15.4479L19.959 15.4428Z" fill="#FFFF00"/>
<path d="M20.2971 14.7688L20.3652 15.4033L19.9512 15.4042C19.9472 14.8793 19.5538 14.792 19.5443 14.7939C19.5354 14.7934 19.1454 14.91 19.135 15.4042H18.7199L18.7948 14.7649L20.297 14.7687L20.2971 14.7688Z" fill="#FFFF00" stroke="black" stroke-width="0.05"/>
<path d="M20.3941 15.4058H18.6995C18.6638 15.4058 18.6346 15.4411 18.6346 15.4842C18.6346 15.5272 18.6638 15.5623 18.6995 15.5623H20.3941C20.4298 15.5623 20.459 15.5272 20.459 15.4842C20.459 15.4411 20.4298 15.4058 20.3941 15.4058Z" fill="#FFFF00" stroke="black" stroke-width="0.05"/>
<path d="M19.7773 15.4031C19.7755 15.0718 19.5511 14.9781 19.55 14.9783C19.5499 14.9783 19.3158 15.0749 19.3139 15.4031H19.7773Z" fill="#FFFF00" stroke="black" stroke-width="0.05"/>
<path d="M20.3577 14.5051H18.7332C18.6989 14.5051 18.6709 14.537 18.6709 14.5756C18.6709 14.6143 18.6989 14.6461 18.7332 14.6461H20.3577C20.3919 14.6461 20.4199 14.6145 20.4199 14.5756C20.4199 14.537 20.3919 14.5051 20.3577 14.5051Z" fill="#FFFF00" stroke="black" stroke-width="0.05"/>
<path d="M20.3233 14.6472H18.7695C18.7368 14.6472 18.71 14.6789 18.71 14.7176C18.71 14.7564 18.7368 14.7881 18.7695 14.7881H20.3233C20.356 14.7881 20.3828 14.7564 20.3828 14.7176C20.3828 14.6789 20.356 14.6472 20.3233 14.6472Z" fill="#FFFF00" stroke="black" stroke-width="0.05"/>
<path d="M19.8221 13.5879L19.6994 13.5881V13.6753H19.6099V13.5862L19.4843 13.5866V13.6753H19.3945V13.5862H19.2687L19.2689 13.7874C19.2689 13.819 19.2943 13.8394 19.3238 13.8394H19.7649C19.7945 13.8394 19.8219 13.8157 19.822 13.7868L19.8223 13.588L19.8221 13.5879Z" fill="#FFFF00" stroke="black" stroke-width="0.05"/>
<path d="M19.3611 13.8569L19.3334 14.502L19.7637 14.5005L19.7352 13.8552L19.3611 13.8569Z" fill="#FFFF00" stroke="black" stroke-width="0.05"/>
<path d="M19.8838 14.156L19.8706 14.5038L20.2832 14.504L20.2716 14.156L19.8838 14.156Z" fill="#FFFF00" stroke="black" stroke-width="0.05"/>
<path d="M18.8252 14.156L18.812 14.5038L19.2246 14.504L19.213 14.156L18.8252 14.156Z" fill="#FFFF00" stroke="black" stroke-width="0.05"/>
<path d="M20.3492 13.9039L20.2293 13.9042V13.9914H20.1415V13.9022L20.0186 13.9026V13.9915H19.9307V13.9022L19.8076 13.9024L19.8078 14.1036C19.8078 14.135 19.8327 14.1555 19.8615 14.1555H20.2932C20.3221 14.1555 20.349 14.1319 20.3491 14.1029L20.3494 13.904L20.3492 13.9039Z" fill="#FFFF00" stroke="black" stroke-width="0.05"/>
<path d="M19.2889 13.9038L19.169 13.9041V13.9914H19.0812V13.9021L18.9583 13.9025V13.9914H18.8704V13.9021L18.7473 13.9023L18.7475 14.1035C18.7475 14.1349 18.7724 14.1554 18.8012 14.1554H19.2328C19.2618 14.1554 19.2887 14.1318 19.2888 14.1028L19.2891 13.9039L19.2889 13.9038Z" fill="#FFFF00" stroke="black" stroke-width="0.05"/>
<path d="M19.5898 14.0607C19.5924 13.998 19.5021 13.9973 19.5032 14.0607V14.2144H19.5898L19.5898 14.0607Z" fill="black"/>
<path d="M20.1211 14.2839C20.1214 14.2234 20.0374 14.2221 20.0385 14.2839V14.4027H20.1211L20.1211 14.2839Z" fill="black"/>
<path d="M19.0586 14.2839C19.0589 14.2233 18.9749 14.2221 18.976 14.2839V14.4026H19.0586L19.0586 14.2839Z" fill="black"/>
<path d="M19.959 20.0746C19.9455 19.5225 19.5537 19.3918 19.5509 19.3899C19.5481 19.388 19.1278 19.5306 19.1292 20.0797L19.959 20.0746Z" fill="#FFFF00"/>
<path d="M20.2971 19.4006L20.3652 20.0351L19.9512 20.036C19.9472 19.5111 19.5538 19.4238 19.5443 19.4257C19.5354 19.4252 19.1454 19.5418 19.135 20.036H18.7199L18.7948 19.3967L20.297 19.4005L20.2971 19.4006Z" fill="#FFFF00" stroke="black" stroke-width="0.05"/>
<path d="M20.3941 20.0376H18.6995C18.6638 20.0376 18.6346 20.0729 18.6346 20.116C18.6346 20.159 18.6638 20.1941 18.6995 20.1941H20.3941C20.4298 20.1941 20.459 20.159 20.459 20.116C20.459 20.0729 20.4298 20.0376 20.3941 20.0376Z" fill="#FFFF00" stroke="black" stroke-width="0.05"/>
<path d="M19.7773 20.0349C19.7755 19.7036 19.5511 19.6099 19.55 19.6101C19.5499 19.6101 19.3158 19.7067 19.3139 20.0349H19.7773Z" fill="#FFFF00" stroke="black" stroke-width="0.05"/>
<path d="M20.3577 19.1369H18.7332C18.6989 19.1369 18.6709 19.1688 18.6709 19.2074C18.6709 19.2461 18.6989 19.2779 18.7332 19.2779H20.3577C20.3919 19.2779 20.4199 19.2463 20.4199 19.2074C20.4199 19.1688 20.3919 19.1369 20.3577 19.1369Z" fill="#FFFF00" stroke="black" stroke-width="0.05"/>
<path d="M20.3233 19.279H18.7695C18.7368 19.279 18.71 19.3107 18.71 19.3494C18.71 19.3882 18.7368 19.4199 18.7695 19.4199H20.3233C20.356 19.4199 20.3828 19.3882 20.3828 19.3494C20.3828 19.3107 20.356 19.279 20.3233 19.279Z" fill="#FFFF00" stroke="black" stroke-width="0.05"/>
<path d="M19.8221 18.2197L19.6994 18.2199V18.3071H19.6099V18.218L19.4843 18.2184V18.3071H19.3945V18.218H19.2687L19.2689 18.4192C19.2689 18.4508 19.2943 18.4712 19.3238 18.4712H19.7649C19.7945 18.4712 19.8219 18.4475 19.822 18.4186L19.8223 18.2198L19.8221 18.2197Z" fill="#FFFF00" stroke="black" stroke-width="0.05"/>
<path d="M19.3611 18.4887L19.3334 19.1338L19.7637 19.1323L19.7352 18.487L19.3611 18.4887Z" fill="#FFFF00" stroke="black" stroke-width="0.05"/>
<path d="M19.8838 18.7878L19.8706 19.1356L20.2832 19.1358L20.2716 18.7878L19.8838 18.7878Z" fill="#FFFF00" stroke="black" stroke-width="0.05"/>
<path d="M18.8252 18.7878L18.812 19.1356L19.2246 19.1358L19.213 18.7878L18.8252 18.7878Z" fill="#FFFF00" stroke="black" stroke-width="0.05"/>
<path d="M20.3492 18.5357L20.2293 18.536V18.6232H20.1415V18.534L20.0186 18.5344V18.6233H19.9307V18.534L19.8076 18.5342L19.8078 18.7354C19.8078 18.7668 19.8327 18.7873 19.8615 18.7873H20.2932C20.3221 18.7873 20.349 18.7637 20.3491 18.7347L20.3494 18.5358L20.3492 18.5357Z" fill="#FFFF00" stroke="black" stroke-width="0.05"/>
<path d="M19.2889 18.5356L19.169 18.5359V18.6232H19.0812V18.5339L18.9583 18.5343V18.6232H18.8704V18.534L18.7473 18.5342L18.7475 18.7353C18.7475 18.7667 18.7724 18.7872 18.8012 18.7872H19.2328C19.2618 18.7872 19.2887 18.7636 19.2888 18.7346L19.2891 18.5357L19.2889 18.5356Z" fill="#FFFF00" stroke="black" stroke-width="0.05"/>
<path d="M19.5898 18.6925C19.5924 18.6298 19.5021 18.6291 19.5032 18.6925V18.8462H19.5898L19.5898 18.6925Z" fill="black"/>
<path d="M20.1211 18.9157C20.1214 18.8552 20.0374 18.8539 20.0385 18.9157V19.0345H20.1211L20.1211 18.9157Z" fill="black"/>
<path d="M19.0586 18.9157C19.0589 18.8551 18.9749 18.8539 18.976 18.9157V19.0344H19.0586L19.0586 18.9157Z" fill="black"/>
<path d="M18.1528 24.8963C18.535 24.4977 18.3517 24.1277 18.3511 24.1243C18.3505 24.121 17.9531 23.9232 17.5645 24.3111L18.1528 24.8963Z" fill="#FFFF00"/>
<path d="M18.8691 24.6617L18.4669 25.1571L18.1745 24.8639C18.5442 24.4913 18.329 24.1506 18.3209 24.1452C18.315 24.1385 17.9575 23.9439 17.5994 24.2848L17.3069 23.9902L17.8134 23.5929L18.8692 24.6616L18.8691 24.6617Z" fill="#FFFF00" stroke="black" stroke-width="0.05"/>
<path d="M18.4855 25.1788L17.2915 23.9763C17.2663 23.951 17.2207 23.9551 17.1901 23.9855C17.1596 24.0158 17.1552 24.0613 17.1804 24.0866L18.3744 25.2891C18.3996 25.3145 18.4451 25.3104 18.4756 25.2801C18.5062 25.2497 18.5107 25.2042 18.4855 25.1788Z" fill="#FFFF00" stroke="black" stroke-width="0.05"/>
<path d="M18.054 24.7391C18.2878 24.5043 18.1962 24.2791 18.1953 24.2784C18.1952 24.2783 17.9616 24.1803 17.7275 24.4102L18.054 24.7391Z" fill="#FFFF00" stroke="black" stroke-width="0.05"/>
<path d="M19.0987 24.5181L17.9541 23.3654C17.93 23.3411 17.8876 23.3436 17.8602 23.3708C17.8327 23.3981 17.83 23.4404 17.8541 23.4647L18.9987 24.6174C19.0228 24.6417 19.065 24.6393 19.0926 24.6119C19.12 24.5847 19.1228 24.5424 19.0987 24.5181Z" fill="#FFFF00" stroke="black" stroke-width="0.05"/>
<path d="M18.9756 24.5938L17.8808 23.4912C17.8578 23.468 17.8164 23.4713 17.7889 23.4985C17.7614 23.5259 17.7578 23.5672 17.7809 23.5904L18.8757 24.693C18.8987 24.7162 18.9401 24.7129 18.9676 24.6856C18.9951 24.6583 18.9987 24.617 18.9756 24.5938Z" fill="#FFFF00" stroke="black" stroke-width="0.05"/>
<path d="M19.3717 23.4916L19.2851 23.4047L19.2233 23.4661L19.1602 23.4026L19.2234 23.3398L19.1346 23.2509L19.0716 23.3134L19.0084 23.2497L19.0716 23.187L18.983 23.0977L18.8404 23.2396C18.818 23.2619 18.8213 23.2943 18.8421 23.3152L19.1529 23.6282C19.1738 23.6493 19.2099 23.6519 19.2305 23.6316L19.3718 23.4918L19.3717 23.4916Z" fill="#FFFF00" stroke="black" stroke-width="0.05"/>
<path d="M18.8558 23.353L18.3785 23.7879L18.6828 24.0921L19.1206 23.6173L18.8558 23.353Z" fill="#FFFF00" stroke="black" stroke-width="0.05"/>
<path d="M19.0135 23.9366L18.7575 24.1723L19.048 24.4652L19.2867 24.2117L19.0135 23.9366Z" fill="#FFFF00" stroke="black" stroke-width="0.05"/>
<path d="M18.2674 23.1836L18.0114 23.4193L18.3019 23.7122L18.5406 23.4588L18.2674 23.1836Z" fill="#FFFF00" stroke="black" stroke-width="0.05"/>
<path d="M19.5202 24.0883L19.4354 24.0034L19.3735 24.0648L19.3117 24.0026L19.375 23.9397L19.2881 23.8527L19.225 23.9154L19.1631 23.853L19.2264 23.7901L19.1396 23.7029L18.997 23.8448C18.9747 23.867 18.9777 23.899 18.998 23.9194L19.3022 24.2257C19.3225 24.2463 19.3582 24.2488 19.3788 24.2284L19.5202 24.0885L19.5202 24.0883Z" fill="#FFFF00" stroke="black" stroke-width="0.05"/>
<path d="M18.7721 23.3354L18.6874 23.2505L18.6255 23.3119L18.5637 23.2497L18.627 23.1868L18.5401 23.0998L18.477 23.1624L18.415 23.1001L18.4784 23.0372L18.3916 22.95L18.249 23.0919C18.2267 23.114 18.2297 23.1461 18.2499 23.1665L18.5541 23.4728C18.5745 23.4933 18.6101 23.4958 18.6308 23.4755L18.7721 23.3355L18.7721 23.3354Z" fill="#FFFF00" stroke="black" stroke-width="0.05"/>
<path d="M18.8726 23.6595C18.919 23.6172 18.8559 23.5526 18.8116 23.5981L18.7026 23.7063L18.7636 23.7678L18.8726 23.6595Z" fill="black"/>
<path d="M19.0885 24.1952C19.1317 24.1527 19.0734 24.0923 19.0303 24.1366L18.9461 24.2202L19.0043 24.2788L19.0885 24.1952Z" fill="black"/>
<path d="M18.3405 23.4398C18.3837 23.3974 18.3254 23.3369 18.2822 23.3812L18.198 23.4648L18.2562 23.5235L18.3405 23.4398Z" fill="black"/>
<path d="M14.2637 20.2404V20.2409C14.2637 20.462 14.3486 20.6636 14.4849 20.8098C14.6214 20.9565 14.8094 21.0476 15.0151 21.0476C15.2218 21.0476 15.4095 20.9571 15.5454 20.811C15.6812 20.6652 15.7656 20.4638 15.7656 20.2417V19.1649L14.2664 19.1637L14.2637 20.2404Z" fill="#003399"/>
<path d="M14.6076 19.7216C14.6897 19.7216 14.7562 19.6551 14.7562 19.573C14.7562 19.491 14.6897 19.4244 14.6076 19.4244C14.5255 19.4244 14.459 19.491 14.459 19.573C14.459 19.6551 14.5255 19.7216 14.6076 19.7216Z" fill="white"/>
<path d="M15.4396 19.7226C15.5217 19.7226 15.5882 19.656 15.5882 19.574C15.5882 19.4919 15.5217 19.4254 15.4396 19.4254C15.3575 19.4254 15.291 19.4919 15.291 19.574C15.291 19.656 15.3575 19.7226 15.4396 19.7226Z" fill="white"/>
<path d="M15.0216 20.1215C15.1037 20.1215 15.1702 20.055 15.1702 19.9729C15.1702 19.8909 15.1037 19.8243 15.0216 19.8243C14.9396 19.8243 14.873 19.8909 14.873 19.9729C14.873 20.055 14.9396 20.1215 15.0216 20.1215Z" fill="white"/>
<path d="M14.6076 20.54C14.6897 20.54 14.7562 20.4735 14.7562 20.3914C14.7562 20.3093 14.6897 20.2428 14.6076 20.2428C14.5255 20.2428 14.459 20.3093 14.459 20.3914C14.459 20.4735 14.5255 20.54 14.6076 20.54Z" fill="white"/>
<path d="M15.4377 20.539C15.5197 20.539 15.5863 20.4725 15.5863 20.3904C15.5863 20.3084 15.5197 20.2418 15.4377 20.2418C15.3556 20.2418 15.2891 20.3084 15.2891 20.3904C15.2891 20.4725 15.3556 20.539 15.4377 20.539Z" fill="white"/>
<path d="M14.2637 17.6389V17.6394C14.2637 17.8606 14.3486 18.0621 14.4849 18.2084C14.6214 18.355 14.8094 18.4461 15.0151 18.4461C15.2218 18.4461 15.4095 18.3556 15.5454 18.2096C15.6812 18.0637 15.7656 17.8624 15.7656 17.6403V16.5635L14.2664 16.5623L14.2637 17.6389Z" fill="#003399"/>
<path d="M14.6076 17.1202C14.6897 17.1202 14.7562 17.0537 14.7562 16.9716C14.7562 16.8895 14.6897 16.823 14.6076 16.823C14.5255 16.823 14.459 16.8895 14.459 16.9716C14.459 17.0537 14.5255 17.1202 14.6076 17.1202Z" fill="white"/>
<path d="M15.4396 17.1212C15.5217 17.1212 15.5882 17.0547 15.5882 16.9726C15.5882 16.8906 15.5217 16.824 15.4396 16.824C15.3575 16.824 15.291 16.8906 15.291 16.9726C15.291 17.0547 15.3575 17.1212 15.4396 17.1212Z" fill="white"/>
<path d="M15.0216 17.5201C15.1037 17.5201 15.1702 17.4536 15.1702 17.3715C15.1702 17.2894 15.1037 17.2229 15.0216 17.2229C14.9396 17.2229 14.873 17.2894 14.873 17.3715C14.873 17.4536 14.9396 17.5201 15.0216 17.5201Z" fill="white"/>
<path d="M14.6076 17.9386C14.6897 17.9386 14.7562 17.872 14.7562 17.79C14.7562 17.7079 14.6897 17.6414 14.6076 17.6414C14.5255 17.6414 14.459 17.7079 14.459 17.79C14.459 17.872 14.5255 17.9386 14.6076 17.9386Z" fill="white"/>
<path d="M15.4377 17.9376C15.5197 17.9376 15.5863 17.871 15.5863 17.789C15.5863 17.7069 15.5197 17.6404 15.4377 17.6404C15.3556 17.6404 15.2891 17.7069 15.2891 17.789C15.2891 17.871 15.3556 17.9376 15.4377 17.9376Z" fill="white"/>
<path d="M12.1836 20.2404V20.2409C12.1836 20.462 12.2686 20.6636 12.4048 20.8098C12.5413 20.9565 12.7294 21.0476 12.935 21.0476C13.1417 21.0476 13.3294 20.9571 13.4653 20.811C13.6011 20.6652 13.6855 20.4638 13.6855 20.2417V19.1649L12.1863 19.1637L12.1836 20.2404Z" fill="#003399"/>
<path d="M12.5275 19.7216C12.6096 19.7216 12.6761 19.6551 12.6761 19.573C12.6761 19.491 12.6096 19.4244 12.5275 19.4244C12.4454 19.4244 12.3789 19.491 12.3789 19.573C12.3789 19.6551 12.4454 19.7216 12.5275 19.7216Z" fill="white"/>
<path d="M13.3595 19.7226C13.4416 19.7226 13.5081 19.656 13.5081 19.574C13.5081 19.4919 13.4416 19.4254 13.3595 19.4254C13.2775 19.4254 13.2109 19.4919 13.2109 19.574C13.2109 19.656 13.2775 19.7226 13.3595 19.7226Z" fill="white"/>
<path d="M12.9416 20.1215C13.0236 20.1215 13.0902 20.055 13.0902 19.9729C13.0902 19.8909 13.0236 19.8243 12.9416 19.8243C12.8595 19.8243 12.793 19.8909 12.793 19.9729C12.793 20.055 12.8595 20.1215 12.9416 20.1215Z" fill="white"/>
<path d="M12.5275 20.54C12.6096 20.54 12.6761 20.4735 12.6761 20.3914C12.6761 20.3093 12.6096 20.2428 12.5275 20.2428C12.4454 20.2428 12.3789 20.3093 12.3789 20.3914C12.3789 20.4735 12.4454 20.54 12.5275 20.54Z" fill="white"/>
<path d="M13.3576 20.539C13.4397 20.539 13.5062 20.4725 13.5062 20.3904C13.5062 20.3084 13.4397 20.2418 13.3576 20.2418C13.2755 20.2418 13.209 20.3084 13.209 20.3904C13.209 20.4725 13.2755 20.539 13.3576 20.539Z" fill="white"/>
<path d="M16.3379 20.2405V20.241C16.3379 20.4622 16.4229 20.6637 16.5591 20.8099C16.6956 20.9566 16.8837 21.0477 17.0893 21.0477C17.296 21.0477 17.4837 20.9572 17.6196 20.8111C17.7554 20.6653 17.8398 20.4639 17.8398 20.2418V19.165L16.3406 19.1638L16.3379 20.2405Z" fill="#003399"/>
<path d="M16.6818 19.7218C16.7639 19.7218 16.8304 19.6552 16.8304 19.5732C16.8304 19.4911 16.7639 19.4246 16.6818 19.4246C16.5997 19.4246 16.5332 19.4911 16.5332 19.5732C16.5332 19.6552 16.5997 19.7218 16.6818 19.7218Z" fill="white"/>
<path d="M17.5138 19.7228C17.5959 19.7228 17.6624 19.6563 17.6624 19.5742C17.6624 19.4921 17.5959 19.4256 17.5138 19.4256C17.4318 19.4256 17.3652 19.4921 17.3652 19.5742C17.3652 19.6563 17.4318 19.7228 17.5138 19.7228Z" fill="white"/>
<path d="M17.0959 20.1217C17.1779 20.1217 17.2445 20.0551 17.2445 19.9731C17.2445 19.891 17.1779 19.8245 17.0959 19.8245C17.0138 19.8245 16.9473 19.891 16.9473 19.9731C16.9473 20.0551 17.0138 20.1217 17.0959 20.1217Z" fill="white"/>
<path d="M16.6818 20.5401C16.7639 20.5401 16.8304 20.4736 16.8304 20.3915C16.8304 20.3095 16.7639 20.2429 16.6818 20.2429C16.5997 20.2429 16.5332 20.3095 16.5332 20.3915C16.5332 20.4736 16.5997 20.5401 16.6818 20.5401Z" fill="white"/>
<path d="M17.5119 20.5391C17.5939 20.5391 17.6605 20.4726 17.6605 20.3905C17.6605 20.3085 17.5939 20.2419 17.5119 20.2419C17.4298 20.2419 17.3633 20.3085 17.3633 20.3905C17.3633 20.4726 17.4298 20.5391 17.5119 20.5391Z" fill="white"/>
<path d="M14.2637 22.8188V22.8193C14.2637 23.0405 14.3486 23.242 14.4849 23.3882C14.6214 23.5349 14.8094 23.626 15.0151 23.626C15.2218 23.626 15.4095 23.5355 15.5454 23.3894C15.6812 23.2436 15.7656 23.0422 15.7656 22.8201V21.7433L14.2664 21.7421L14.2637 22.8188Z" fill="#003399"/>
<path d="M14.6076 22.3005C14.6897 22.3005 14.7562 22.234 14.7562 22.1519C14.7562 22.0699 14.6897 22.0033 14.6076 22.0033C14.5255 22.0033 14.459 22.0699 14.459 22.1519C14.459 22.234 14.5255 22.3005 14.6076 22.3005Z" fill="white"/>
<path d="M15.4396 22.3013C15.5217 22.3013 15.5882 22.2347 15.5882 22.1527C15.5882 22.0706 15.5217 22.0041 15.4396 22.0041C15.3575 22.0041 15.291 22.0706 15.291 22.1527C15.291 22.2347 15.3575 22.3013 15.4396 22.3013Z" fill="white"/>
<path d="M15.0216 22.7004C15.1037 22.7004 15.1702 22.6339 15.1702 22.5518C15.1702 22.4698 15.1037 22.4032 15.0216 22.4032C14.9396 22.4032 14.873 22.4698 14.873 22.5518C14.873 22.6339 14.9396 22.7004 15.0216 22.7004Z" fill="white"/>
<path d="M14.6076 23.1189C14.6897 23.1189 14.7562 23.0524 14.7562 22.9703C14.7562 22.8882 14.6897 22.8217 14.6076 22.8217C14.5255 22.8217 14.459 22.8882 14.459 22.9703C14.459 23.0524 14.5255 23.1189 14.6076 23.1189Z" fill="white"/>
<path d="M15.4377 23.1174C15.5197 23.1174 15.5863 23.0509 15.5863 22.9688C15.5863 22.8868 15.5197 22.8202 15.4377 22.8202C15.3556 22.8202 15.2891 22.8868 15.2891 22.9688C15.2891 23.0509 15.3556 23.1174 15.4377 23.1174Z" fill="white"/>
</g>
<defs>
<clipPath id="clip0_1_3047">
<rect width="40" height="40" rx="20" fill="white"/>
</clipPath>
</defs>
</svg>
