<svg width="40" height="40" viewBox="0 0 40 40" fill="none" xmlns="http://www.w3.org/2000/svg">
<g clip-path="url(#clip0_1_16152)">
<path d="M40 0H-20V40H40V0Z" fill="#20603D"/>
<path d="M40 0H-20V30H40V0Z" fill="#FAD201"/>
<path d="M40 0H-20V20H40V0Z" fill="#00A1DE"/>
<path d="M35.7028 10.45L31.2357 10.711L35.483 12.1193L31.1006 11.2153L34.8387 13.675L30.8395 11.6675L33.8137 15.0108L30.4703 12.0367L32.4778 16.0358L30.0182 12.2977L30.9222 16.6802L29.5139 12.4329L29.2528 16.9L29.1973 10.3944L35.7028 10.45Z" fill="#E5BE01"/>
<path d="M35.7028 10.4501L31.2357 10.189L35.483 8.78068L31.1006 9.68469L34.8387 7.22506L30.8395 9.23254L33.8137 5.88922L30.4703 8.86335L32.4778 4.8642L30.0182 8.6023L30.9222 4.21984L29.5139 8.46717L29.2528 4.00006L29.1973 10.5056L35.7028 10.4501Z" fill="#E5BE01"/>
<path d="M22.8013 10.4498L27.2684 10.7109L23.0211 12.1192L27.4036 11.2152L23.6655 13.6748L27.6646 11.6674L24.6905 15.0107L28.0338 12.0365L26.0263 16.0357L28.486 12.2976L27.5819 16.6801L28.9903 12.4327L29.2513 16.8998L29.3069 10.3943L22.8013 10.4498Z" fill="#E5BE01"/>
<path d="M22.8013 10.4498L27.2684 10.1888L23.0211 8.78043L27.4036 9.68445L23.6655 7.22482L27.6646 9.23229L24.6905 5.88898L28.0338 8.86311L26.0263 4.86395L28.486 8.60206L27.5819 4.21959L28.9903 8.46693L29.2513 3.99982L29.3069 10.5054L22.8013 10.4498Z" fill="#E5BE01"/>
<path d="M29.2513 12.3555C30.3037 12.3555 31.1568 11.5024 31.1568 10.45C31.1568 9.39758 30.3037 8.54443 29.2513 8.54443C28.1988 8.54443 27.3457 9.39758 27.3457 10.45C27.3457 11.5024 28.1988 12.3555 29.2513 12.3555Z" fill="#E5BE01" stroke="#00A1DE" stroke-width="0.188889"/>
</g>
<defs>
<clipPath id="clip0_1_16152">
<rect width="40" height="40" rx="20" fill="white"/>
</clipPath>
</defs>
</svg>
