<svg width="40" height="40" viewBox="0 0 40 40" fill="none" xmlns="http://www.w3.org/2000/svg">
<g clip-path="url(#clip0_1_15020)">
<rect width="40" height="40" rx="20" fill="#CE1126"/>
<path d="M40.1393 2.53979H0V36.7325H40.1393V2.53979Z" fill="#CE1126"/>
<path d="M20 -3.00024L0 2.44981V19.9998H20V-3.00024Z" fill="#002B7F"/>
<path d="M11.5745 5L12.4933 7.82776L10.0879 6.08011H13.0612L10.6557 7.82776L11.5745 5Z" fill="white"/>
<path d="M7.48664 8.34497L8.40544 11.1727L6 9.42508H8.97328L6.56785 11.1727L7.48664 8.34497Z" fill="white"/>
<path d="M15.7553 7.78778L16.6167 10.4388L14.3616 8.80038H17.149L14.8939 10.4388L15.7553 7.78778Z" fill="white"/>
<path d="M13.6206 11.2236L14.1948 12.991L12.6914 11.8987H14.5497L13.0463 12.991L13.6206 11.2236Z" fill="white"/>
<path d="M11.5751 13.73L12.7236 17.2647L9.7168 15.0801H13.4334L10.4266 17.2647L11.5751 13.73Z" fill="white"/>
</g>
<defs>
<clipPath id="clip0_1_15020">
<rect width="40" height="40" rx="20" fill="white"/>
</clipPath>
</defs>
</svg>
