<svg width="40" height="40" viewBox="0 0 40 40" fill="none" xmlns="http://www.w3.org/2000/svg">
<g clip-path="url(#clip0_1_5884)">
<path d="M-10 0H50V40H-10V0Z" fill="#006C35"/>
<path d="M27.6215 27.5C27.5231 27.5 27.2569 27.7719 27.2569 27.8703C27.2569 27.9455 27.39 28.096 27.5 28.1828V28.4086H8.75C9.41551 29.0741 10.4051 29.0914 12.3958 29.0914H27.5V29.3172C27.3843 29.4098 27.2569 29.5545 27.2569 29.6297C27.2569 29.7281 27.5231 30 27.6215 30C27.7025 30 27.8473 29.8554 27.9398 29.7339H28.7732C28.7993 29.7763 28.8438 29.8126 28.901 29.8382C28.9582 29.8637 29.0255 29.8773 29.0943 29.8773C29.1632 29.8773 29.2305 29.8637 29.2876 29.8382C29.3448 29.8126 29.3893 29.7763 29.4155 29.7339H30.4051C30.5266 29.8727 30.6886 29.8785 30.787 29.8785C31.0705 29.8785 31.25 29.7569 31.25 29.0914C31.25 28.4664 30.9722 28.4086 30.2893 28.4086H27.7431V28.1828C27.8531 28.096 27.9861 27.9455 27.9861 27.8703C27.9861 27.7719 27.7199 27.5 27.6215 27.5ZM27.7431 29.0914H30.2893C30.243 29.265 30.243 29.3982 30.2893 29.5255H29.4155C29.3893 29.4831 29.3448 29.4468 29.2876 29.4212C29.2305 29.3957 29.1632 29.382 29.0943 29.382C29.0255 29.382 28.9582 29.3957 28.901 29.4212C28.8438 29.4468 28.7993 29.4831 28.7732 29.5255H27.9398C27.8935 29.4619 27.8068 29.3635 27.7431 29.3172V29.0914Z" fill="white"/>
<path d="M32.4733 10.9119C32.8317 10.6141 33.1793 10.3082 33.5238 10C33.539 10.277 33.359 10.5316 33.158 10.748C33.0503 10.8738 32.8985 10.9679 32.762 11.0725C32.6966 11.1194 32.6332 11.1676 32.5704 11.2165C32.5885 11.2905 32.616 11.3635 32.6261 11.4387C32.6209 11.5084 32.6067 11.5778 32.5962 11.6473C32.5189 11.5513 32.4637 11.4442 32.3753 11.3543C32.4142 11.6685 32.4331 11.984 32.4596 12.299C32.5287 13.2238 32.592 14.1487 32.6516 15.0739C32.6481 15.0978 32.6745 15.1129 32.6915 15.1298C32.9466 15.3542 33.2006 15.5795 33.4393 15.815C33.6269 16.0125 33.8044 16.2166 33.955 16.4334C34.1522 16.7172 34.3084 17.0245 34.3545 17.3485C34.3795 17.5522 34.3671 17.7625 34.2833 17.9576C34.199 17.4673 33.9334 17.0027 33.5574 16.6097C33.5494 16.6087 33.5329 16.6068 33.5248 16.6059C33.529 16.6029 33.5378 16.5968 33.542 16.5937C33.2756 16.3065 32.9893 16.031 32.6952 15.7614C32.7157 16.0912 32.7362 16.4212 32.7522 16.7511C32.7678 17.1768 32.748 17.6026 32.7252 18.0278C32.7253 18.1084 32.6794 18.182 32.6558 18.259C32.5872 18.4318 32.532 18.6088 32.4442 18.7763C32.4302 18.3835 32.4133 17.9903 32.3834 17.598C32.3295 16.8952 32.2729 16.1927 32.2221 15.49C32.2146 15.4347 32.2184 15.3782 32.2051 15.3238C32.0116 15.1448 31.8026 14.9764 31.6005 14.8036C31.2445 14.5093 30.8848 14.2178 30.5114 13.9373C30.5823 14.6714 30.6555 15.4054 30.7218 16.1398C30.7502 16.4732 30.7877 16.8066 30.7917 17.141C30.7968 17.4318 30.7931 17.7228 30.7849 18.0135C30.7859 18.197 30.7891 18.3866 30.7069 18.5611C30.5852 18.7772 30.367 18.9576 30.1039 19.069C29.8985 19.1552 29.6662 19.2011 29.4338 19.2027C29.2769 19.2054 29.1209 19.1724 28.9822 19.1157C28.7394 19.0074 28.5663 18.8226 28.4548 18.6238C28.3784 18.4869 28.3235 18.3422 28.2939 18.1942C28.2767 18.1295 28.2585 18.0546 28.1854 18.0141C28.1272 17.983 28.0576 18.0078 28.0013 18.0286C27.8644 18.0863 27.7326 18.1559 27.6335 18.2518C27.311 18.5589 27.1576 18.9508 27.0616 19.3365C27.0146 19.5029 26.9401 19.6684 26.8093 19.8058C26.7145 19.9037 26.5786 19.9885 26.4188 20C26.2935 19.9929 26.1722 19.9596 26.0602 19.9158C25.8123 19.8124 25.6379 19.6237 25.538 19.4201C25.5082 19.3671 25.4943 19.3094 25.464 19.2569C25.4589 19.2562 25.4489 19.2551 25.4438 19.2544C25.4487 19.2519 25.4585 19.2468 25.4633 19.2441C25.3607 18.9332 25.3457 18.6085 25.3681 18.2889C25.379 18.258 25.3385 18.2468 25.3162 18.2296C25.2279 18.1697 25.1918 18.0745 25.193 17.9849C25.1905 17.6561 25.2508 17.3216 25.4258 17.0207C25.5676 16.7726 25.78 16.556 25.9869 16.3402C26.0063 16.3169 26.0407 16.2983 26.0502 16.2711C25.9213 16.1547 25.7853 16.0432 25.6479 15.9332C25.5695 15.8615 25.4742 15.8033 25.397 15.7309C25.1071 15.4822 24.8221 15.2301 24.5372 14.9778C24.5644 15.3469 24.5851 15.7162 24.6084 16.0855C24.6261 16.4275 24.6561 16.7694 24.6499 17.1119C24.6512 17.4171 24.6338 17.7221 24.618 18.0269C24.6172 18.1029 24.5784 18.1737 24.5539 18.2461C24.4848 18.4246 24.4224 18.6052 24.3386 18.7799C24.323 18.6354 24.3325 18.4899 24.3209 18.3452C24.2892 17.6236 24.2179 16.9037 24.1672 16.1829C24.1241 15.6315 24.086 15.0796 24.0401 14.5284C23.8503 14.342 23.6499 14.1616 23.4622 13.9734C23.2424 13.754 23.0227 13.533 22.8387 13.2935C22.5745 12.9174 22.2779 12.5522 21.9118 12.2326C21.8909 12.2171 21.8974 12.194 21.8976 12.1741C21.9102 11.9673 21.9202 11.7605 21.9331 11.5538C22.1938 11.688 22.4424 11.8368 22.6813 11.9945C22.8664 12.1209 23.0426 12.2564 23.1924 12.4096C23.2697 12.482 23.3411 12.5744 23.3151 12.6733C23.2271 12.6457 23.1362 12.6236 23.0529 12.5878C23.0194 12.5733 22.983 12.564 22.9455 12.5595C22.94 12.6174 22.9898 12.663 23.0271 12.7085C23.2987 13.0232 23.5819 13.3312 23.8726 13.635C23.9099 13.6739 23.9511 13.7111 23.9798 13.7549C23.9614 13.3988 23.9271 13.043 23.9027 12.687C23.8615 12.1372 23.8193 11.5876 23.7781 11.0378C23.7705 10.9557 23.7756 10.871 23.7339 10.7937C23.7137 10.7629 23.7435 10.7348 23.76 10.7082C23.8598 10.5556 23.9562 10.4015 24.0508 10.2467C24.0554 10.2359 24.0773 10.208 24.0839 10.2348C24.2633 10.6036 24.4028 10.9844 24.5059 11.371C24.5376 11.4635 24.4985 11.5578 24.4868 11.6503C24.4198 11.5456 24.3439 11.4447 24.2696 11.3432C24.3648 12.3087 24.42 13.2765 24.4913 14.243C24.5395 14.3071 24.6135 14.3578 24.6724 14.4164C25.2412 14.9354 25.8318 15.439 26.422 15.9426C26.8605 15.5573 27.3035 15.175 27.748 14.794C27.7673 14.7799 27.7805 14.7626 27.7736 14.7411C27.6399 13.5393 27.506 12.3374 27.372 11.1356C27.355 11.0141 27.3596 10.889 27.3019 10.7736C27.4115 10.5874 27.5315 10.4048 27.6404 10.2182C27.7 10.3162 27.741 10.4209 27.788 10.5233C27.8984 10.7783 27.994 11.0376 28.0695 11.3004C28.0853 11.3596 28.1112 11.4194 28.1009 11.4807C28.093 11.536 28.0833 11.5912 28.0758 11.6467C28.0025 11.5488 27.9323 11.4495 27.8585 11.3518C27.8478 11.355 27.8376 11.3583 27.8278 11.3617C27.8383 11.3638 27.8492 11.3657 27.8604 11.3675C27.9717 12.3897 28.0555 13.414 28.1647 14.4366C28.6255 14.0493 29.0827 13.659 29.5456 13.2733C29.5964 13.2275 29.6543 13.1866 29.7011 13.1381C29.4758 12.8985 29.2657 12.6504 29.056 12.4023C28.9831 12.3206 28.9265 12.231 28.8569 12.1476C28.7103 11.9679 28.5607 11.7861 28.3594 11.6411C28.3419 11.4076 28.3324 11.1735 28.3198 10.9395C28.7924 11.2663 29.2725 11.5866 29.7318 11.9253C29.7758 11.9565 29.8108 11.9948 29.8353 12.0375C29.794 11.6721 29.7561 11.3065 29.717 10.9409C29.7123 10.9073 29.7137 10.8724 29.696 10.841C29.6842 10.8088 29.6518 10.7744 29.6781 10.7416C29.7868 10.5647 29.8893 10.3856 29.9968 10.2082C30.1849 10.5604 30.3314 10.9263 30.4475 11.2975C30.4594 11.3496 30.4881 11.4008 30.4794 11.4546C30.4708 11.514 30.4657 11.5736 30.4571 11.633C30.3907 11.5456 30.3242 11.4582 30.2585 11.3707C30.2471 11.3568 30.2364 11.3429 30.2268 11.3288C30.2867 11.747 30.3263 12.1668 30.3731 12.5859C30.7193 12.2952 31.0748 12.0116 31.4329 11.7299C31.5924 11.6105 31.7579 11.4959 31.9108 11.371C31.8964 11.2087 31.8881 11.0461 31.872 10.884C31.869 10.8326 31.8093 10.7807 31.8512 10.7315C31.9642 10.5614 32.0713 10.3887 32.1768 10.2155C32.3004 10.4402 32.3839 10.6777 32.4733 10.9119ZM30.4112 12.949C30.4166 13.0146 30.4236 13.0802 30.4312 13.1457C30.5437 13.2557 30.658 13.3647 30.7768 13.4705C31.2299 13.8752 31.6987 14.2687 32.1585 14.6685C32.0873 13.6795 32.0074 12.6906 31.9367 11.7015C31.418 12.1095 30.9094 12.5253 30.4112 12.949ZM29.4326 12.052C29.5779 12.2317 29.7291 12.4088 29.8904 12.5798C29.8774 12.4213 29.858 12.2629 29.8404 12.1047C29.8317 12.1187 29.8222 12.1327 29.8149 12.147C29.7053 12.0837 29.5715 12.0341 29.4326 12.052ZM28.5011 14.6103C28.4071 14.6978 28.3025 14.7785 28.2141 14.8695C28.235 15.1499 28.2802 15.4297 28.3081 15.71C28.3217 16.1733 28.2245 16.6651 27.8644 17.0443C27.8748 16.984 27.8698 16.923 27.8707 16.8622C27.8702 16.6543 27.8705 16.4464 27.8705 16.2384C27.8681 16.0391 27.8807 15.8398 27.8735 15.6405C27.8634 15.5387 27.8502 15.4369 27.8402 15.3351C27.8357 15.3187 27.8416 15.2897 27.8124 15.2889C27.8355 15.266 27.8304 15.2376 27.825 15.2107C27.6993 15.3158 27.5796 15.4254 27.4542 15.5308C27.2076 15.7488 26.9454 15.9552 26.6926 16.1686C26.9494 16.3875 27.1105 16.6755 27.152 16.9719C27.1939 17.2872 27.0947 17.6224 26.8332 17.8675C26.6025 18.0823 26.2716 18.2179 25.9278 18.2804C25.7666 18.3086 25.5943 18.3281 25.4342 18.2854C25.4542 18.4177 25.4793 18.5496 25.5127 18.6802C25.5702 18.9004 25.6451 19.1228 25.7936 19.3168C25.873 19.416 25.9818 19.5121 26.1315 19.5412C26.2916 19.572 26.4544 19.5085 26.5669 19.4214C26.6672 19.3502 26.7137 19.247 26.7559 19.1488C26.883 18.8597 26.9259 18.549 27.094 18.2709C27.212 18.0503 27.3619 17.8361 27.5782 17.6661C27.6904 17.5737 27.8194 17.4949 27.9545 17.4248C28.0476 17.3806 28.1603 17.3439 28.2699 17.3697C28.3742 17.394 28.4445 17.4668 28.4927 17.5401C28.6024 17.7053 28.631 17.8942 28.7198 18.0659C28.7849 18.2078 28.8711 18.3519 29.0243 18.4476C29.1791 18.5443 29.3831 18.5738 29.5761 18.5674C29.913 18.5559 30.2296 18.4362 30.4952 18.2774C30.4715 18.0045 30.4466 17.7317 30.4173 17.459C30.2699 16.1273 30.1304 14.795 29.987 13.4632C29.9821 13.4265 29.9405 13.4017 29.92 13.3706C29.4385 13.7777 28.9717 14.1954 28.5011 14.6103ZM26.3057 16.521C26.2049 16.6131 26.1098 16.7092 26.0149 16.8052C25.8346 16.9977 25.654 17.1925 25.5205 17.4083C25.4868 17.463 25.4561 17.5314 25.4949 17.5897C25.5406 17.6493 25.6384 17.6582 25.7187 17.6583C26.0731 17.6471 26.4037 17.5216 26.6916 17.3648C26.7878 17.3273 26.8782 17.244 26.842 17.1538C26.7943 17.0324 26.704 16.9253 26.6157 16.8203C26.524 16.7171 26.4274 16.6163 26.3245 16.5199C26.3198 16.5202 26.3105 16.5208 26.3057 16.521Z" fill="white"/>
<path d="M34.0256 10.7193C34.1309 10.5215 34.2284 10.3214 34.335 10.124C34.4983 10.5499 34.6578 10.9771 34.7911 11.4096C34.8111 11.484 34.8372 11.558 34.847 11.6338C34.8331 11.6939 34.81 11.7528 34.8081 11.8145C34.7499 11.7258 34.6913 11.6373 34.6323 11.5491C34.7066 12.6554 34.7963 13.7612 34.8966 14.8665C34.9276 15.2219 34.973 15.5767 34.9895 15.9329C35.0197 16.5926 34.9906 17.2667 34.7373 17.9009C34.6421 18.1302 34.521 18.3536 34.3671 18.5622C34.1602 18.8318 33.8531 19.0444 33.5153 19.2078C32.9137 19.4942 32.2252 19.6432 31.5377 19.7351C31.4988 19.7464 31.483 19.7106 31.4609 19.6943C32.0743 19.4606 32.6639 19.186 33.2144 18.8687C33.4896 18.7056 33.759 18.5338 33.9905 18.3318C34.2559 18.0954 34.4561 17.8106 34.5471 17.5016C34.6468 17.1909 34.6125 16.8677 34.5906 16.5514C34.5331 15.8225 34.4619 15.0942 34.4012 14.3654C34.3078 13.2422 34.2137 12.119 34.1201 10.9958C34.1003 10.9169 34.038 10.8492 34.0093 10.7724C34.0016 10.7536 34.0195 10.7366 34.0256 10.7193Z" fill="white"/>
<path d="M7.98786 10.716C8.1074 10.5327 8.22222 10.3475 8.33879 10.1631C8.5281 10.5543 8.67797 10.9577 8.78192 11.3685C8.78875 11.4432 8.76299 11.5177 8.75458 11.592C8.66904 11.5005 8.61768 11.3902 8.53056 11.2988C8.57807 11.6074 8.59508 11.9185 8.6261 12.2284C8.66063 12.629 8.69323 13.0299 8.72566 13.4307C8.98526 13.3963 9.21857 13.2749 9.37527 13.1093C9.61103 12.8613 9.71568 12.5493 9.74531 12.2439C9.74337 11.8515 9.71691 11.4524 9.56108 11.0768C9.53356 11 9.4829 10.9256 9.48394 10.8442C9.50253 10.6929 9.5665 10.5478 9.63417 10.4065C9.65134 10.3735 9.66256 10.3315 9.71304 10.3216C9.79 10.5098 9.86957 10.6979 9.92076 10.8918C10.0002 11.1955 10.0386 11.5048 10.0827 11.8127C10.1122 11.9991 10.1209 12.1885 10.1805 12.3712C10.2578 12.6168 10.4146 12.8562 10.6726 13.0124C10.8666 13.1289 11.1145 13.2086 11.3613 13.1777C11.5353 13.1529 11.7115 13.0981 11.8333 12.993C11.8884 12.9464 11.9262 12.8781 11.9028 12.8143C11.6535 12.3066 11.45 11.7858 11.2442 11.2662C11.1739 11.0855 11.1048 10.9044 11.0359 10.7234C11.0163 10.6775 11.0419 10.6302 11.0514 10.5848C11.0947 10.4464 11.1508 10.3093 11.2282 10.1806C11.3126 10.2126 11.3673 10.276 11.4223 10.3333C11.5883 10.5224 11.7206 10.7285 11.8423 10.9373C11.8365 10.9639 11.8309 10.9907 11.8263 11.0176C11.7646 10.957 11.6854 10.9026 11.5862 10.8872C11.5704 10.9169 11.5711 10.9493 11.5848 10.9794C11.6952 11.2436 11.813 11.5059 11.9254 11.7696C12.0209 12.0047 12.1168 12.2439 12.1292 12.4924C12.1387 12.6948 12.0989 12.8976 12.0263 13.0913C12.0169 13.1081 12.0149 13.1411 11.9828 13.1369C12.0105 13.1529 11.985 13.1787 11.9783 13.1987C11.8921 13.3686 11.758 13.5335 11.5534 13.6268C11.3779 13.7103 11.1613 13.7232 10.9635 13.6924C10.7032 13.6512 10.4799 13.5181 10.3201 13.3541C10.0953 13.1231 9.95738 12.8454 9.8757 12.563C9.86343 12.5633 9.83889 12.5641 9.82662 12.5646C9.75019 12.8486 9.63398 13.1283 9.45448 13.3826C9.29357 13.6099 9.07113 13.8247 8.76436 13.9332C8.818 14.6365 8.8741 15.3396 8.91248 16.0437C8.91809 16.3908 8.90038 16.7378 8.87865 17.0845C8.87829 17.1317 8.8534 17.1754 8.83483 17.2195C8.7747 17.37 8.71108 17.5196 8.64342 17.6683C8.63273 17.6931 8.61888 17.7174 8.59907 17.7388C8.59031 17.0759 8.51931 16.4148 8.4627 15.7538C8.41134 15.1717 8.35999 14.5896 8.31003 14.0075C8.06445 14.0032 7.81151 13.9463 7.63026 13.8099C7.41904 13.6561 7.31123 13.4343 7.2597 13.2154C7.21413 13.0215 7.20448 12.8228 7.2236 12.6265C7.26567 12.3702 7.34858 12.1196 7.42763 11.8691C7.43849 11.8244 7.44639 11.7773 7.4336 11.7323C7.42869 11.7159 7.42395 11.6965 7.39994 11.6919C7.36313 11.6881 7.33578 11.7099 7.31089 11.7275C7.17311 11.8329 7.08302 11.9693 7.00431 12.1057C6.85515 12.3877 6.76733 12.6883 6.71947 12.991C6.67985 13.1906 6.622 13.3893 6.52735 13.5776C6.45215 13.7174 6.35838 13.8613 6.19536 13.949C6.05617 14.0248 5.87212 14.0155 5.7198 13.972C5.52698 13.9154 5.38973 13.7787 5.31681 13.6305C5.19008 13.3759 5.18184 13.0971 5.18956 12.8271C5.20762 12.5106 5.26441 12.1957 5.35188 11.8867C5.36835 11.884 5.38501 11.8813 5.40148 11.8788C5.33067 12.2333 5.273 12.5928 5.30648 12.9522C5.32278 13.1079 5.35784 13.2652 5.44198 13.4078C5.5135 13.5295 5.63901 13.639 5.80518 13.6788C5.94646 13.7132 6.11387 13.7104 6.23411 13.6352C6.36488 13.5524 6.42676 13.423 6.4746 13.3002C6.58714 12.9888 6.62938 12.6644 6.74595 12.3539C6.85901 12.0494 7.01274 11.7542 7.20292 11.4748C7.31319 11.33 7.43238 11.1884 7.57086 11.0594C7.61187 11.0256 7.65306 10.9775 7.71828 10.9769C7.75403 10.9951 7.74125 11.0349 7.74212 11.0633C7.72388 11.2034 7.72213 11.3467 7.66919 11.4822C7.57243 11.7603 7.50722 12.0444 7.43623 12.3271C7.38698 12.5472 7.37383 12.7823 7.48022 12.9934C7.55858 13.1544 7.7216 13.285 7.91827 13.3577C8.02519 13.3977 8.14072 13.4221 8.25763 13.4354C8.19312 12.6501 8.11986 11.8652 8.05307 11.08C8.03781 10.9578 8.04799 10.8317 7.98786 10.716Z" fill="white"/>
<path d="M22.1914 10.3511C22.241 10.2859 22.2884 10.2139 22.373 10.1729C22.25 10.3679 22.1245 10.5662 22.0691 10.7814C22.0475 10.8745 22.0402 10.9878 22.1367 11.0576C22.1928 11.0792 22.2575 11.0921 22.3187 11.075C22.4305 11.0552 22.4828 10.9631 22.5264 10.8885C22.5385 10.9185 22.5466 10.9495 22.5336 10.9803C22.4938 11.1099 22.4409 11.2455 22.3211 11.3436C22.1863 11.4578 21.9145 11.3921 21.8631 11.2456C21.8181 11.1128 21.8593 10.9735 21.9087 10.8451C21.9806 10.6731 22.0801 10.509 22.1914 10.3511Z" fill="white"/>
<path d="M12.2009 10.758C12.3071 10.5683 12.4132 10.3784 12.5217 10.1895C12.7315 10.5714 12.9022 10.9667 13.0302 11.3707C13.0453 11.4524 13.0148 11.5345 13.0185 11.6166C12.9452 11.5137 12.8611 11.4159 12.7843 11.3147C12.8041 11.5 12.84 11.6843 12.8617 11.8696C13.0086 12.964 13.1378 14.06 13.2481 15.1572C13.3745 15.0848 13.4709 14.9809 13.525 14.8653C13.5957 14.7353 13.6719 14.6059 13.7752 14.4896C13.8139 14.4479 13.8651 14.3944 13.9401 14.4072C13.9825 14.4092 14.0027 14.4453 14.0069 14.4745C14.0257 14.5776 13.9272 14.6665 13.944 14.7687C13.9485 14.8526 14.0315 14.9246 14.13 14.95C14.3003 14.9986 14.4854 14.9769 14.6602 14.9573C14.7391 14.9436 14.8376 14.9318 14.876 14.867C14.835 14.763 14.7894 14.6601 14.7377 14.5591C14.8115 14.4103 14.8958 14.2647 14.9727 14.1167C14.9926 14.0817 15.0059 14.0432 15.0385 14.0138C15.0944 14.183 15.1084 14.3586 15.131 14.5319C15.1543 14.8122 15.0976 15.1032 14.9209 15.3498C14.8257 15.476 14.6835 15.5907 14.4981 15.6272C14.3364 15.6578 14.1589 15.6438 14.0123 15.58C13.8427 15.5036 13.7263 15.3694 13.6658 15.2247C13.5739 15.3917 13.4532 15.5495 13.2994 15.6853C13.3173 15.9019 13.3373 16.1184 13.351 16.3352C13.3611 16.5769 13.2828 16.8138 13.1922 17.0427C13.1482 17.141 13.1049 17.2399 13.0505 17.335C12.5674 17.9597 11.9289 18.5131 11.1627 18.9263C10.6612 19.1988 10.1064 19.4102 9.5239 19.549C9.21942 19.6189 8.90811 19.6759 8.59136 19.6942C8.26445 19.6978 7.93263 19.6644 7.6271 19.5695C7.34033 19.481 7.08984 19.3199 6.9291 19.1116C6.36431 19.1577 5.79621 19.1831 5.22827 19.1842C5.73486 19.0405 6.23635 18.8853 6.72944 18.7145C6.59781 18.2064 6.70665 17.6826 6.87125 17.1877C6.97204 16.8878 7.10211 16.5944 7.24813 16.3065C7.34418 16.0954 7.43954 15.879 7.60274 15.6939C7.50703 15.852 7.40729 16.0094 7.32841 16.1732L7.33279 16.1821C7.33489 16.1844 7.33927 16.1893 7.34156 16.1917C7.3363 16.1905 7.32561 16.1882 7.32035 16.1871C7.28687 16.2387 7.2583 16.2923 7.23919 16.3484C7.10597 16.6858 7.02112 17.0353 6.9929 17.3883C6.96504 17.7764 7.00026 18.1838 7.22884 18.535C7.83656 18.3102 8.42816 18.0575 8.9954 17.774C9.4764 17.5302 9.94108 17.2642 10.3634 16.9592C10.5635 16.8127 10.7581 16.6599 10.9225 16.4874C10.9711 16.4421 10.9474 16.3777 10.9316 16.3262C10.895 16.2398 10.8535 16.1548 10.8112 16.0702C10.5238 16.1623 10.2175 16.2254 9.90568 16.2243C9.73565 16.2281 9.56072 16.2025 9.41417 16.1316C9.28849 16.0703 9.19524 15.9696 9.15738 15.8567C9.10497 15.7086 9.12775 15.5523 9.15914 15.4029C9.20892 15.1867 9.30954 14.9705 9.50077 14.8068C9.63505 14.6925 9.81279 14.6046 10.0098 14.5816C10.2326 14.5824 10.4424 14.6684 10.6014 14.7878C10.8039 14.9397 10.942 15.1366 11.0482 15.3387C11.2465 15.2473 11.437 15.1391 11.5846 14.9986C11.7294 14.8795 11.8784 14.7579 12.0633 14.6778C12.1094 14.6569 12.189 14.6337 12.2197 14.6827C12.2531 14.7554 12.2212 14.8352 12.1988 14.9075C12.1392 15.0129 12.2112 15.1327 12.3003 15.2133C12.4242 15.324 12.6279 15.3347 12.8006 15.3098C12.6197 13.839 12.4358 12.3683 12.2547 10.8975C12.251 10.8481 12.2241 10.8031 12.2009 10.758ZM9.73741 15.2745C9.64871 15.3047 9.53776 15.3495 9.52461 15.434C9.54547 15.4982 9.64082 15.5181 9.71252 15.5318C9.94303 15.5671 10.1826 15.5665 10.413 15.5307C10.4088 15.5242 10.4 15.5113 10.3956 15.5047C10.2755 15.3971 10.1225 15.3045 9.94057 15.2773C9.87378 15.2694 9.80279 15.2543 9.73741 15.2745ZM11.2468 15.8753C11.2707 16.175 11.2175 16.4781 11.0982 16.7628C11.0521 16.8617 11.0137 16.9664 10.9267 17.0488C10.4992 17.5009 9.94846 17.8703 9.36808 18.1945C8.85098 18.4796 8.30496 18.7324 7.73422 18.9436C7.83168 18.9812 7.93405 19.0114 8.04045 19.0293C8.32548 19.0794 8.61978 19.0525 8.90533 19.0199C9.79931 18.9139 10.641 18.6052 11.366 18.1833C11.8467 17.9036 12.2846 17.5778 12.6667 17.2151C12.7945 17.0869 12.9517 16.9617 12.9829 16.793C12.9524 16.5069 12.9121 16.2215 12.8784 15.9355C12.6796 15.9986 12.4335 16.0135 12.2532 15.908C12.0342 15.7773 11.951 15.5541 11.9164 15.348C11.7276 15.5487 11.5055 15.7307 11.2468 15.8753Z" fill="white"/>
<path d="M20.8854 10.2144C20.9766 10.2518 21.0362 10.3202 21.0949 10.3843C21.2381 10.5501 21.3557 10.7289 21.4649 10.9099C21.4835 10.9365 21.49 10.9701 21.5233 10.9888C21.5126 10.9903 21.5021 10.9916 21.4921 10.9927C21.4909 11.0071 21.4888 11.0361 21.4877 11.0505C21.4218 10.9938 21.3447 10.939 21.2467 10.9224C21.2294 10.9528 21.2295 10.9855 21.2443 11.0166C21.3715 11.3254 21.5154 11.63 21.6387 11.94C21.7172 12.1421 21.7861 12.3497 21.7887 12.5624C21.7941 12.7599 21.7516 12.9571 21.6779 13.1455C21.604 13.3224 21.4906 13.4979 21.3014 13.6147C21.1458 13.7147 20.938 13.7561 20.74 13.7414C20.4982 13.7272 20.2693 13.6349 20.1016 13.4979C20.012 13.4304 19.9392 13.3506 19.8711 13.2693L19.8972 13.2645C19.89 13.2652 19.8758 13.2666 19.8686 13.2673C19.7172 13.0653 19.6048 12.8449 19.5399 12.6157C19.5457 12.586 19.4742 12.5885 19.4814 12.618C19.389 12.9524 19.2416 13.2822 18.9976 13.5671C18.8551 13.7307 18.6707 13.8768 18.4419 13.9632C18.1927 14.0563 17.8991 14.0624 17.6367 14.0027C17.373 13.9425 17.1641 13.7778 17.0508 13.5836C16.8868 13.3054 16.8617 12.9904 16.8798 12.6879C16.915 12.4435 16.9921 12.2046 17.0675 11.9664C17.0929 11.8932 17.1155 11.8144 17.0827 11.7401C17.0722 11.7358 17.0514 11.7272 17.041 11.7229C17.0058 11.7411 16.9695 11.759 16.942 11.7845C16.7488 11.9531 16.6391 12.1687 16.5514 12.3824C16.4852 12.5545 16.4335 12.7302 16.3988 12.9082C16.3527 13.1894 16.282 13.474 16.1185 13.7289C16.0298 13.8645 15.8966 14.0052 15.6959 14.0363C15.5099 14.056 15.3111 14.0098 15.1749 13.9061C15.008 13.7826 14.9349 13.6032 14.8909 13.4306C14.8208 13.1209 14.8426 12.8035 14.8865 12.4925C14.916 12.3008 14.9581 12.1105 15.0105 11.9221C15.0277 11.9208 15.045 11.9198 15.0627 11.919C14.9933 12.2368 14.9454 12.5594 14.9575 12.8824C14.9684 13.0664 14.9957 13.2539 15.0902 13.4242C15.1544 13.5409 15.2632 13.6495 15.4145 13.6997C15.5574 13.7457 15.7337 13.754 15.8674 13.6854C16.0057 13.6136 16.0706 13.4853 16.122 13.3664C16.2231 13.1033 16.2678 12.8297 16.3472 12.5624C16.4305 12.2911 16.5502 12.0272 16.6971 11.7734C16.7812 11.6254 16.874 11.4799 16.993 11.3473C17.0987 11.2293 17.1958 11.0998 17.3458 11.0131C17.357 11.0135 17.3791 11.0145 17.3903 11.0149C17.4179 11.1038 17.3854 11.1959 17.3805 11.2859C17.3712 11.4346 17.3029 11.5742 17.2636 11.7183C17.2149 11.8831 17.1732 12.0492 17.1314 12.2153C17.0669 12.453 17.021 12.7037 17.1022 12.9428C17.1635 13.1304 17.3271 13.2958 17.5479 13.3812C17.6915 13.441 17.8526 13.4714 18.0142 13.476C18.2414 13.4941 18.4789 13.4725 18.682 13.386C18.9269 13.285 19.1003 13.1019 19.2126 12.9064C19.3225 12.7109 19.3853 12.4993 19.4035 12.2861C19.406 11.8627 19.3688 11.4311 19.1858 11.0296C19.1625 10.9741 19.132 10.9165 19.1453 10.857C19.1742 10.6938 19.2431 10.5367 19.3239 10.3853C19.329 10.368 19.3553 10.3668 19.3711 10.3579C19.4575 10.5622 19.5415 10.7679 19.5939 10.9796C19.66 11.2549 19.698 11.5339 19.7371 11.8121C19.7681 12.0107 19.7772 12.2123 19.8402 12.4071C19.8924 12.5686 19.9737 12.7268 20.1015 12.8606C20.2568 13.0313 20.49 13.1581 20.7492 13.2065C20.9711 13.2473 21.2081 13.1948 21.3948 13.0968C21.493 13.0438 21.5948 12.9545 21.5622 12.8534C21.2514 12.2065 20.9959 11.5441 20.7419 10.8824C20.725 10.8278 20.693 10.7755 20.6877 10.7193C20.7207 10.5443 20.7981 10.3765 20.8854 10.2144Z" fill="white"/>
<path d="M17.6602 10.3271C17.8913 10.4521 18.0808 10.6324 18.1691 10.8443C18.2129 10.9556 18.2291 11.0741 18.212 11.1901C18.1994 11.2745 18.1824 11.3622 18.1226 11.4349C18.1142 11.4127 18.1198 11.3899 18.1251 11.3679C18.1649 11.2002 18.131 11.0205 18.0211 10.8729C17.9305 10.7499 17.7964 10.6467 17.6387 10.5786C17.6417 10.4945 17.652 10.4109 17.6602 10.3271Z" fill="white"/>
<path d="M5.5711 10.5578C5.61457 10.497 5.6626 10.4345 5.73797 10.3955C5.61773 10.6008 5.47784 10.8047 5.43314 11.0311C5.41912 11.1052 5.41859 11.1901 5.47854 11.2523C5.53464 11.3082 5.63665 11.3092 5.71606 11.2897C5.80493 11.2615 5.8463 11.1861 5.88784 11.1232C5.90643 11.1236 5.91029 11.141 5.91922 11.1514C5.87241 11.2969 5.82719 11.4547 5.68853 11.565C5.5597 11.6727 5.30553 11.6172 5.24225 11.4834C5.19632 11.3872 5.21157 11.2806 5.23857 11.1824C5.30484 10.9614 5.43034 10.7546 5.5711 10.5578Z" fill="white"/>
<path d="M25.8699 10.5017C25.9036 10.4553 25.9556 10.398 26.0328 10.406C26.1146 10.4206 26.1947 10.4554 26.245 10.5098C26.2706 10.5438 26.2918 10.5956 26.2464 10.6256C26.2226 10.644 26.2056 10.6752 26.1761 10.6845C26.135 10.642 26.103 10.566 26.0198 10.5682C25.9155 10.5985 25.8578 10.6822 25.8266 10.7616C25.7619 10.9256 25.7488 11.0984 25.7285 11.2681C25.7078 11.2851 25.6799 11.2945 25.655 11.3066C25.655 11.1344 25.6045 10.9501 25.4487 10.8229C25.3737 10.8156 25.2845 10.8085 25.2424 10.751C25.1912 10.6776 25.1544 10.587 25.1898 10.5044C25.2692 10.492 25.3336 10.5392 25.3875 10.5783C25.5302 10.6819 25.6224 10.8191 25.7057 10.9554C25.7409 10.8006 25.7763 10.6422 25.8699 10.5017Z" fill="white"/>
<path d="M15.0985 10.5921C15.1457 10.5013 15.2693 10.425 15.3981 10.4425C15.4624 10.4534 15.5075 10.4982 15.5304 10.5447C15.5755 10.6404 15.5821 10.7447 15.5664 10.8454C15.6454 10.9202 15.7313 10.9961 15.7644 11.0932C15.8258 11.2209 15.7709 11.3573 15.7187 11.4806C15.6519 11.6437 15.525 11.7918 15.5013 11.9652C15.4931 12.008 15.5139 12.0548 15.5693 12.0696C15.6584 12.0488 15.6722 11.965 15.6905 11.904C15.7183 11.8987 15.762 11.8964 15.7716 11.9242C15.7869 12.0014 15.7441 12.0756 15.7096 12.1459C15.6784 12.1993 15.6351 12.2624 15.555 12.2743C15.491 12.2836 15.4421 12.2392 15.4165 12.1986C15.3435 12.0815 15.3665 11.9427 15.4275 11.8258C15.5225 11.6395 15.648 11.452 15.6365 11.2453C15.6368 11.1576 15.5902 11.0738 15.5157 11.0098C15.4044 11.2477 15.2244 11.4621 15.017 11.6541C14.9097 11.7595 14.7556 11.8238 14.6086 11.888C14.4769 11.942 14.3434 11.9951 14.2031 12.0341C14.4731 11.8804 14.732 11.7125 14.956 11.5173C15.1408 11.3533 15.3108 11.1682 15.3793 10.9519L15.3748 10.9397C15.2749 10.8886 15.1548 10.8436 15.1027 10.7534C15.0806 10.7021 15.0834 10.6444 15.0985 10.5921ZM15.1986 10.6182C15.1728 10.6314 15.1905 10.6566 15.2116 10.6652C15.2745 10.6942 15.3392 10.7211 15.4046 10.7466C15.403 10.6945 15.4149 10.6297 15.3572 10.5925C15.3073 10.5595 15.2389 10.5881 15.1986 10.6182Z" fill="white"/>
<path d="M13.4115 10.7349C13.4486 10.7428 13.4755 10.7668 13.5061 10.7838C13.6919 10.9049 13.8467 11.0623 13.9205 11.2452C13.9896 11.4108 13.9854 11.5927 13.9239 11.7592C13.9154 11.7881 13.8923 11.8114 13.872 11.8355C13.8704 11.8325 13.8672 11.8262 13.8655 11.8232C13.9104 11.6692 13.9037 11.5035 13.8253 11.357C13.7407 11.1966 13.582 11.0637 13.3906 10.9801C13.3955 10.8982 13.4036 10.8164 13.4115 10.7349Z" fill="white"/>
<path d="M10.6185 10.8911L10.6323 10.9021C10.6018 10.9327 10.6174 10.9732 10.6223 11.0085C10.639 11.0843 10.6628 11.1595 10.6958 11.232C10.7066 11.2645 10.7492 11.28 10.7855 11.2908C10.8172 11.2961 10.8686 11.3084 10.8817 11.2749C10.86 11.1962 10.8078 11.1261 10.7755 11.0506C10.7907 11.0071 10.7979 10.9603 10.8241 10.92C10.8416 10.9202 10.8595 10.9208 10.8773 10.9218C10.8949 11.0064 10.9504 11.0808 10.9904 11.1589C10.9881 11.2392 10.985 11.3226 10.9467 11.398C10.9229 11.4491 10.847 11.4627 10.786 11.462C10.6968 11.452 10.6382 11.3924 10.5855 11.3405C10.5515 11.4162 10.4645 11.4754 10.3632 11.4858C10.278 11.4893 10.2058 11.4349 10.1834 11.3729C10.1537 11.291 10.1571 11.2029 10.1811 11.1204C10.1999 11.0627 10.2365 11.0003 10.3119 10.9781C10.2524 11.0575 10.2377 11.1553 10.271 11.2439C10.284 11.2806 10.308 11.3265 10.3627 11.3317C10.4233 11.3326 10.4684 11.296 10.5117 11.2675C10.5229 11.1768 10.5094 11.0853 10.5236 10.9947C10.5455 10.9557 10.5894 10.9269 10.6185 10.8911Z" fill="white"/>
<path d="M25.7868 11.4494C26.1239 11.334 26.461 11.2175 26.8058 11.1177C26.7952 11.1797 26.7669 11.2504 26.6906 11.2799C26.201 11.4453 25.7095 11.6078 25.2303 11.7914C25.1351 11.833 25.0373 11.8758 24.9631 11.9398C25.0161 11.986 25.0953 12.0034 25.1668 12.0242C25.1659 12.069 25.1661 12.1138 25.1661 12.1587C25.0648 12.1393 24.9633 12.11 24.8848 12.0541C24.8893 11.9905 24.8879 11.9264 24.899 11.8631C24.9104 11.8057 24.9845 11.7787 25.0381 11.7475C25.2757 11.6304 25.5328 11.5412 25.7868 11.4494Z" fill="white"/>
<path d="M18.0359 11.6273C18.0886 11.5756 18.1358 11.5161 18.2059 11.4784C18.1596 11.534 18.1791 11.6026 18.1901 11.6639C18.2161 11.7784 18.2546 11.891 18.3002 12.0015C18.3146 12.0477 18.3747 12.0674 18.4243 12.0852C18.4692 12.0985 18.5232 12.1108 18.5687 12.0931C18.5975 12.0731 18.584 12.039 18.5738 12.0143C18.53 11.9175 18.4851 11.8204 18.4234 11.7297C18.4376 11.6868 18.4473 11.6426 18.4709 11.6021C18.4757 11.6014 18.4853 11.6 18.4902 11.5993C18.4844 11.5904 18.479 11.5816 18.4737 11.5728C18.4806 11.5548 18.4872 11.5366 18.4942 11.5186C18.5251 11.5205 18.5559 11.5222 18.5873 11.5237C18.6015 11.6537 18.6918 11.7671 18.7568 11.8838C18.7546 11.9832 18.7454 12.0835 18.7183 12.1808C18.7028 12.2383 18.6694 12.2989 18.6008 12.3277C18.5221 12.3524 18.4283 12.3639 18.3514 12.3297C18.2622 12.2892 18.1908 12.2274 18.1349 12.16C18.09 12.2634 17.9822 12.3452 17.8513 12.3789C17.7612 12.4057 17.6541 12.3771 17.5926 12.3207C17.5142 12.2563 17.4932 12.1631 17.4856 12.0773C17.4795 11.9668 17.4907 11.853 17.5452 11.7502C17.5764 11.6906 17.6322 11.638 17.706 11.609C17.6336 11.7228 17.5964 11.8551 17.6369 11.9807C17.6548 12.0466 17.6846 12.1306 17.7773 12.1513C17.8774 12.1614 17.957 12.1012 18.0215 12.0491C18.0336 11.9087 18.026 11.7675 18.0359 11.6273Z" fill="white"/>
<path d="M10.5178 11.8057C10.7508 11.9251 10.9362 12.1068 11.0249 12.3158C11.097 12.4847 11.0919 12.6706 11.0277 12.8404C11.0191 12.868 10.9928 12.8887 10.9693 12.909C11.0167 12.7486 11.0116 12.5748 10.9268 12.4227C10.8403 12.2656 10.6819 12.136 10.4941 12.0522C10.5043 11.9702 10.5094 11.8878 10.5178 11.8057Z" fill="white"/>
<path d="M25.9856 12.7725C26.0345 12.7252 26.0822 12.6771 26.1358 12.6331C26.0848 12.7275 26.1238 12.8299 26.1479 12.9255C26.1755 13.013 26.2019 13.1014 26.2437 13.1854C26.2957 13.2394 26.387 13.2668 26.4712 13.2647C26.5103 13.2646 26.5288 13.2284 26.5153 13.2025C26.4741 13.0971 26.4207 12.9947 26.3599 12.8955C26.3716 12.8227 26.4058 12.7527 26.4298 12.6817C26.4589 12.6838 26.4885 12.6857 26.5183 12.6881C26.5378 12.8172 26.6231 12.9316 26.6901 13.0476C26.6873 13.1409 26.6791 13.2348 26.6563 13.3266C26.6391 13.3905 26.6091 13.4646 26.5274 13.4934C26.4578 13.5148 26.3763 13.5267 26.306 13.5009C26.2028 13.4647 26.1295 13.3935 26.0661 13.3222C26.0259 13.423 25.9239 13.5029 25.7987 13.5382C25.6959 13.5757 25.5707 13.5364 25.5055 13.4679C25.4306 13.3871 25.4175 13.2829 25.4163 13.1857C25.4205 13.0924 25.4298 12.9962 25.4806 12.9105C25.5135 12.853 25.5645 12.7964 25.6429 12.7749C25.5384 12.9115 25.5269 13.0867 25.604 13.2334C25.6262 13.275 25.672 13.3152 25.733 13.3166C25.8257 13.3129 25.8978 13.26 25.9591 13.21C25.9577 13.0908 25.9644 12.972 25.9646 12.8528C25.969 12.8259 25.9586 12.7936 25.9856 12.7725Z" fill="white"/>
<path d="M32.8451 12.6626C33.1298 12.8142 33.3645 13.0306 33.4916 13.2839C33.6167 13.5296 33.6157 13.8083 33.5149 14.0592C33.5012 14.0882 33.4719 14.11 33.4474 14.1333C33.4912 13.963 33.5063 13.7842 33.4453 13.6153C33.3591 13.3476 33.1124 13.1253 32.8125 12.9907C32.8274 12.8816 32.8307 12.7717 32.8451 12.6626Z" fill="white"/>
<path d="M14.0352 13.2754C14.2305 13.1801 14.4219 13.0794 14.6196 12.9873C14.6002 13.0856 14.5598 13.1995 14.4391 13.2485C14.0071 13.4576 13.58 13.673 13.1465 13.8799C13.1949 13.8016 13.2425 13.7224 13.2958 13.6461C13.5402 13.5202 13.7891 13.3992 14.0352 13.2754Z" fill="white"/>
<path d="M22.3535 13.5994C22.4126 13.5724 22.4992 13.5743 22.5391 13.6237C22.5942 13.6894 22.6089 13.7754 22.5791 13.8509C22.5228 14.0005 22.3986 14.1277 22.2631 14.2384C22.0983 14.3657 21.9011 14.483 21.668 14.5117C21.7071 14.4735 21.7642 14.4522 21.8145 14.4248C21.9589 14.3478 22.098 14.2629 22.2193 14.1637C22.2829 14.1055 22.3518 14.0425 22.3632 13.9628C22.3676 13.8959 22.2909 13.8388 22.2128 13.8277C22.0988 13.8436 22.0278 13.9216 21.9441 13.9764C21.9241 13.928 21.9775 13.894 22.0091 13.8585C22.1095 13.762 22.2107 13.6584 22.3535 13.5994Z" fill="white"/>
<path d="M25.5745 14.7786C26.2131 14.4658 26.8482 14.1486 27.4876 13.8369C27.4695 13.9341 27.4343 14.0407 27.3333 14.1047C26.7142 14.4103 26.0916 14.7116 25.4727 15.0177C25.4991 14.9362 25.5408 14.8584 25.5745 14.7786Z" fill="white"/>
<path d="M17.0223 14.0396C17.1154 14.101 17.172 14.1893 17.2349 14.2699C17.396 14.4942 17.5333 14.7286 17.6662 14.9639C17.9577 15.4692 18.1494 16.0086 18.2549 16.5571C18.2847 16.7271 18.3153 16.8981 18.3091 17.0704C18.3268 17.4123 18.3782 17.7618 18.5585 18.0765C18.5933 18.139 18.6413 18.1962 18.6862 18.2544C18.684 18.2623 18.68 18.278 18.6779 18.2859C18.6872 18.2795 18.6967 18.2731 18.706 18.2668C18.8232 18.3917 18.9536 18.5093 19.0937 18.6186C19.1293 18.6488 19.2013 18.6748 19.2364 18.6282C19.243 18.6292 19.2565 18.6312 19.2632 18.6323C19.2586 18.629 19.2495 18.6225 19.245 18.6192C19.2742 18.5487 19.2441 18.4734 19.2721 18.403C19.3121 18.2873 19.4036 18.1888 19.5009 18.0991C19.6097 18.0048 19.733 17.9182 19.8785 17.8612C20.1698 17.7443 20.4718 17.6449 20.7768 17.5528C21.0064 17.4854 21.2399 17.4256 21.4787 17.3822C20.4539 17.3879 19.4292 17.3945 18.4045 17.4038C18.4556 17.2069 18.5077 17.0101 18.5605 16.8134C18.6691 16.7005 18.8059 16.6077 18.9408 16.5155C19.5284 16.1319 20.2068 15.848 20.8937 15.5937C20.8133 15.494 20.7014 15.4011 20.6837 15.2786C20.6422 15.1066 20.7325 14.9366 20.8461 14.7935C20.9134 14.7122 20.9763 14.6234 21.0799 14.5675C21.1838 14.5105 21.3244 14.5069 21.4382 14.5473C21.5108 14.5734 21.5849 14.5968 21.6548 14.6276C21.6562 14.6337 21.6589 14.646 21.6603 14.6521C21.6641 14.6485 21.6717 14.6412 21.6755 14.6376C21.9789 14.7717 22.2508 14.9462 22.5025 15.1348C22.5316 15.1581 22.569 15.1782 22.5872 15.2086C22.5188 15.3837 22.4466 15.5582 22.3804 15.7341C22.0775 15.7876 21.773 15.8388 21.4778 15.9158C21.5078 16.0638 21.5612 16.2252 21.481 16.3686C21.4529 16.3655 21.4149 16.3617 21.4101 16.3345C21.3987 16.2101 21.323 16.0969 21.2452 15.9909C20.8685 16.1083 20.4927 16.2296 20.1376 16.384C19.8513 16.5098 19.561 16.6463 19.3489 16.8475C20.9244 16.8479 22.5001 16.8479 24.0758 16.8475C23.9748 17.0231 23.8668 17.1963 23.7639 17.3712C22.7324 17.5701 21.7027 17.7827 20.702 18.0654C20.282 18.1871 19.8623 18.3211 19.4899 18.5197C19.4513 18.543 19.429 18.586 19.4571 18.621C19.5149 18.6913 19.6205 18.7203 19.709 18.7603C19.9015 18.8447 20.1148 18.8906 20.3244 18.9398C20.4746 18.9749 20.6249 19.0099 20.7749 19.0454C20.7625 19.2558 20.7604 19.4667 20.7442 19.6768C20.6213 19.6768 20.496 19.6596 20.3724 19.651C20.1304 19.6283 19.8846 19.613 19.6511 19.5542C19.3332 19.4746 19.0467 19.3234 18.8224 19.129C18.5761 18.9193 18.398 18.6648 18.2704 18.3981C18.0961 18.0285 18.0085 17.6358 17.9748 17.2432C17.9594 17.2415 17.9443 17.2402 17.9294 17.2389C17.8858 17.412 17.8364 17.5851 17.7633 17.7521C17.7494 17.7917 17.7126 17.822 17.6802 17.8528C17.4457 18.0683 17.1955 18.2731 16.934 18.468C16.6663 18.6654 16.3873 18.8543 16.0858 19.0187C15.7687 19.1909 15.4256 19.3456 15.0463 19.4107C14.8424 19.4441 14.6107 19.4505 14.4321 19.3529C14.2326 19.245 14.1353 19.0574 14.0827 18.8777C13.901 18.9868 13.7178 19.0945 13.5306 19.1978C13.3616 19.2875 13.1933 19.3824 12.9998 19.4365C12.516 19.5787 12.0126 19.6719 11.5118 19.768C11.1526 19.8323 10.7933 19.8968 10.4316 19.9519C10.7666 19.8014 11.1069 19.6577 11.4404 19.5051C12.3454 19.0954 13.237 18.6649 14.088 18.1878C14.204 17.748 14.3914 17.3056 14.7544 16.9526C14.759 16.9517 14.7683 16.9496 14.7728 16.9486C14.7439 16.9973 14.7301 17.0507 14.7003 17.0991C14.4815 17.4023 14.326 17.7374 14.271 18.0845C14.6584 17.8616 15.0365 17.6279 15.3923 17.3738C15.6121 17.2179 15.8186 17.0504 16.0072 16.8707C16.0591 16.8198 16.1296 16.7761 16.1492 16.7092C16.1765 16.6332 16.1355 16.5576 16.0922 16.4912C16.0966 16.4825 16.101 16.4739 16.1056 16.4654C16.0872 16.4614 16.0752 16.4528 16.0696 16.4398C15.8412 15.9744 15.6102 15.5098 15.3822 15.0444C15.4531 14.8306 15.5189 14.6158 15.5906 14.4022C15.6861 14.452 15.7483 14.5302 15.8163 14.601C15.9552 14.7623 16.0858 14.9282 16.203 15.1C16.2686 15.1944 16.281 15.3041 16.3051 15.4085C16.2109 15.3415 16.1454 15.2506 16.0409 15.1933C16.0454 15.2086 16.0518 15.2234 16.06 15.238C16.2253 15.4961 16.3383 15.7742 16.4116 16.0574C16.4568 16.2256 16.4765 16.3982 16.4639 16.5701C16.4544 16.7565 16.4223 16.9475 16.3142 17.1158C16.2181 17.2651 16.0889 17.399 15.9539 17.5274C15.4964 17.9522 14.9602 18.3184 14.4156 18.6709C14.4163 18.6914 14.4458 18.697 14.4633 18.7082C14.6582 18.8045 14.9021 18.7948 15.1198 18.7648C15.2838 18.7347 15.4528 18.7118 15.603 18.6483C15.9973 18.4851 16.341 18.2575 16.6728 18.0256C17.1079 17.7123 17.5177 17.3773 17.9086 17.0298C17.778 16.6631 17.6423 16.2976 17.5042 15.9327C17.4292 15.7422 17.3594 15.5499 17.2697 15.3634C17.1209 15.1173 16.9778 14.8684 16.8481 14.6158C16.9005 14.4229 16.9664 14.2321 17.0223 14.0396ZM20.9875 15.0319C20.9398 15.0469 20.8999 15.0885 20.9198 15.1302C20.9272 15.1618 20.9709 15.1728 20.9938 15.1962C21.0893 15.284 21.1798 15.3754 21.2629 15.471C21.4703 15.4114 21.6808 15.3596 21.8901 15.3048C21.7343 15.1871 21.5612 15.075 21.3533 15.0218C21.235 14.99 21.1027 14.9939 20.9875 15.0319Z" fill="white"/>
<path d="M6.40477 14.1459C6.54746 14.1215 6.67735 14.1921 6.77884 14.263C6.91468 14.368 7.02792 14.4931 7.09961 14.6327C7.12135 14.6749 7.13098 14.7209 7.12292 14.7663C7.11257 14.8265 7.10662 14.8925 7.05823 14.9426C7.00144 14.984 6.91187 14.975 6.85157 14.9431C6.79162 14.9118 6.72904 14.8836 6.66384 14.8598C6.56602 15.0646 6.36619 15.2266 6.14832 15.3559C5.97724 15.4582 5.79073 15.5442 5.59791 15.6182C5.45979 15.6596 5.3185 15.6953 5.17511 15.7236C5.11797 15.7359 5.05855 15.7347 5 15.7334C5.03436 15.727 5.07099 15.725 5.10236 15.7109C5.41613 15.5707 5.72218 15.4186 6.00738 15.2441C6.20002 15.1214 6.39126 14.9914 6.52798 14.8265C6.46155 14.8146 6.39477 14.8033 6.32693 14.7982C6.27346 14.6749 6.27188 14.5249 6.38459 14.4214C6.33025 14.3838 6.32237 14.3219 6.31255 14.269C6.30222 14.2176 6.33535 14.1567 6.40477 14.1459ZM6.67121 14.4528C6.69645 14.5448 6.6989 14.6393 6.70364 14.7329C6.79864 14.7413 6.89435 14.777 6.99005 14.7584C7.0344 14.7387 7.0032 14.6936 6.98006 14.6706C6.8926 14.5856 6.78181 14.5178 6.67121 14.4528ZM6.4379 14.4924C6.40669 14.529 6.37041 14.5711 6.37532 14.6173C6.43054 14.6723 6.52379 14.6951 6.60811 14.7072C6.61634 14.6809 6.62616 14.6551 6.63264 14.6286C6.65578 14.5748 6.60319 14.5265 6.56112 14.489C6.52975 14.4589 6.46507 14.458 6.4379 14.4924Z" fill="white"/>
<path d="M18.9453 14.4359C18.9942 14.3799 19.0494 14.3262 19.1113 14.2785C19.0657 14.3603 19.0928 14.4496 19.1141 14.5333C19.1381 14.6248 19.1705 14.7147 19.2068 14.8037C19.2322 14.8708 19.3295 14.8944 19.4073 14.9076C19.4539 14.9194 19.5111 14.8919 19.493 14.8497C19.4501 14.741 19.3952 14.6355 19.3325 14.5331C19.3547 14.4645 19.38 14.3965 19.4013 14.3277C19.4308 14.3277 19.4606 14.328 19.4906 14.3283C19.5163 14.4554 19.5929 14.5708 19.6634 14.6851C19.6636 14.8087 19.6543 14.9375 19.5989 15.0547C19.5619 15.1378 19.4382 15.1636 19.3382 15.157C19.2056 15.1367 19.1176 15.0461 19.0397 14.9665C19.001 15.071 18.8914 15.152 18.7617 15.1847C18.652 15.2166 18.5254 15.1703 18.4665 15.0937C18.402 15.0088 18.3898 14.9063 18.3927 14.8093C18.3985 14.6704 18.4325 14.5086 18.5899 14.4252C18.601 14.4252 18.6231 14.4254 18.6341 14.4254C18.6271 14.4278 18.6127 14.4327 18.6057 14.4352C18.51 14.5738 18.5041 14.7478 18.5891 14.8905C18.6138 14.9356 18.6764 14.9681 18.7397 14.9575C18.8185 14.9424 18.8809 14.898 18.9347 14.8523C18.9367 14.7134 18.936 14.5744 18.9453 14.4359Z" fill="white"/>
<path d="M5.63897 16.1041C6.27458 15.7883 6.9128 15.4755 7.54962 15.1613C7.53139 15.271 7.48389 15.3979 7.35032 15.4529C6.76082 15.742 6.16993 16.0295 5.58131 16.3197C5.56606 16.3261 5.5501 16.3313 5.53345 16.3353C5.57097 16.2589 5.59954 16.1797 5.63897 16.1041Z" fill="white"/>
<path d="M23.318 15.4775C23.3711 15.4231 23.461 15.3966 23.5459 15.3945C23.6048 15.3941 23.6333 15.4442 23.6468 15.4823C23.6724 15.5723 23.677 15.6703 23.6216 15.7542C23.6503 15.7707 23.6793 15.7874 23.7087 15.8038C23.701 15.8614 23.6956 15.9193 23.6942 15.9773C23.6356 15.9525 23.5906 15.913 23.5404 15.8797C23.3844 16.0926 23.1564 16.2772 22.8722 16.3815C22.722 16.4414 22.55 16.4676 22.3828 16.4511C22.6996 16.3615 23.0072 16.2322 23.237 16.0339C23.316 15.9659 23.3841 15.8908 23.4416 15.8103C23.397 15.7727 23.3437 15.7406 23.309 15.6966C23.2814 15.6263 23.261 15.5422 23.318 15.4775ZM23.4049 15.5468C23.4279 15.5983 23.4719 15.6407 23.5176 15.6807C23.5369 15.6361 23.5622 15.5877 23.5339 15.542C23.4907 15.5353 23.4472 15.5391 23.4049 15.5468Z" fill="white"/>
<path d="M29.2501 15.606C29.357 15.5769 29.4696 15.6151 29.557 15.664C29.703 15.7494 29.817 15.8655 29.905 15.9902C29.952 16.0624 30.0056 16.1416 29.9867 16.2257C29.9754 16.2823 29.9698 16.343 29.9271 16.3913C29.8797 16.4376 29.7909 16.4329 29.7313 16.4053C29.6632 16.3748 29.5984 16.34 29.5272 16.3142C29.431 16.5211 29.2282 16.6841 29.0084 16.8133C28.8595 16.9035 28.6964 16.9775 28.5311 17.0467C28.429 17.0903 28.3161 17.1136 28.2068 17.1419C28.0976 17.1664 27.9864 17.1987 27.8711 17.1897C27.9438 17.1864 28.0013 17.1491 28.0627 17.1225C28.3824 16.9753 28.6956 16.8171 28.9801 16.6294C29.1312 16.5259 29.2857 16.4182 29.3875 16.2803C29.3218 16.2691 29.2559 16.2594 29.1894 16.2523C29.136 16.1293 29.1354 15.9788 29.2508 15.877C29.1933 15.8421 29.1866 15.7787 29.177 15.726C29.1688 15.6801 29.1882 15.6218 29.2501 15.606ZM29.5369 15.9107C29.5586 16.0018 29.5651 16.0947 29.5669 16.1874C29.6569 16.1977 29.7465 16.2259 29.8384 16.2178C29.8852 16.2124 29.8834 16.1637 29.8575 16.1405C29.7721 16.0475 29.6536 15.9774 29.5369 15.9107ZM29.2317 16.0594C29.2778 16.1269 29.3823 16.1441 29.4676 16.1658C29.4852 16.1222 29.5078 16.0766 29.4992 16.0304C29.4683 15.9827 29.4264 15.9203 29.349 15.9206C29.282 15.9477 29.2555 16.0071 29.2317 16.0594Z" fill="white"/>
<path d="M14.5527 16.0321C14.5884 15.9783 14.6585 15.9145 14.7446 15.9414C14.848 15.9661 14.9711 16.031 14.9546 16.1284C14.9269 16.1615 14.8913 16.1899 14.86 16.2209C14.8265 16.1707 14.789 16.1065 14.7104 16.0958C14.6082 16.1223 14.5471 16.2034 14.5148 16.2807C14.447 16.4494 14.4319 16.6277 14.413 16.8031C14.3883 16.8135 14.3635 16.8238 14.3383 16.8332C14.339 16.6718 14.2946 16.5004 14.1577 16.3753C14.1267 16.3338 14.0578 16.3546 14.0112 16.3346C13.9243 16.3099 13.8927 16.2349 13.8717 16.1707C13.8612 16.1273 13.8424 16.0751 13.879 16.0364C13.956 16.019 14.0163 16.0724 14.0711 16.1061C14.2124 16.2123 14.3101 16.349 14.39 16.4883C14.4236 16.3328 14.4592 16.1733 14.5527 16.0321Z" fill="white"/>
<path d="M5.61985 16.9099C5.67787 16.828 5.73239 16.7388 5.83388 16.6848C5.71066 16.8816 5.58252 17.081 5.5287 17.2983C5.51082 17.3814 5.50188 17.4774 5.56972 17.5488C5.62248 17.5936 5.70715 17.6018 5.77937 17.5879C5.88893 17.5688 5.93994 17.4781 5.98516 17.4061C6.01987 17.4598 5.98393 17.5177 5.96798 17.5713C5.92258 17.6846 5.86842 17.8073 5.74309 17.881C5.64685 17.9392 5.5089 17.9159 5.41634 17.8646C5.29434 17.7892 5.29154 17.6523 5.31293 17.5415C5.36113 17.3172 5.48575 17.109 5.61985 16.9099Z" fill="white"/>
<path d="M23.7931 18.278C23.7993 18.273 23.8073 18.2711 23.8173 18.2723C23.7809 18.3054 23.7609 18.347 23.7328 18.3844C23.6531 18.5037 23.5609 18.6303 23.5821 18.7707C23.5843 18.8365 23.6312 18.9217 23.7284 18.9211C23.7759 18.9024 23.7882 18.8544 23.8121 18.8199C23.8091 18.9227 23.79 19.0475 23.668 19.1063C23.5667 19.0934 23.4906 19.0223 23.4866 18.9419C23.4659 18.6991 23.5944 18.4596 23.7931 18.278Z" fill="white"/>
<path d="M17.6537 18.314C17.7475 18.2776 17.8768 18.2829 17.9508 18.3461C18.0127 18.4041 18.0194 18.4839 18.0148 18.5564C17.9652 18.6087 17.908 18.6568 17.8665 18.7138C17.7796 18.7266 17.6882 18.7153 17.6032 18.7356C17.5604 18.7553 17.5045 18.7672 17.484 18.8069C17.4572 18.8581 17.4696 18.9149 17.481 18.9679C17.5252 19.1529 17.6069 19.3347 17.6027 19.5253C17.5979 19.5921 17.5923 19.6615 17.5524 19.722C17.5431 19.616 17.4959 19.5159 17.4618 19.4139C17.3972 19.2282 17.3461 19.0376 17.3385 18.8446C17.3301 18.7702 17.3841 18.7063 17.4386 18.6503C17.5191 18.5612 17.6633 18.5352 17.7915 18.5159C17.7582 18.4916 17.7205 18.4636 17.6712 18.469C17.6023 18.4769 17.5557 18.5225 17.5178 18.5646C17.511 18.4718 17.5431 18.3622 17.6537 18.314Z" fill="white"/>
<path d="M21.8867 18.4773C21.981 18.4142 22.1119 18.4081 22.2299 18.4082C22.3484 18.4147 22.4737 18.4189 22.5782 18.469C22.6276 18.5144 22.5807 18.5683 22.53 18.5968C22.3246 18.7142 22.0983 18.816 21.9316 18.9701C21.8864 19.0099 21.9098 19.0718 21.967 19.0951C22.0534 19.1294 22.1535 19.1311 22.2485 19.1291C22.4741 19.1194 22.6908 19.0519 22.8795 18.9556C22.9321 18.9291 22.9793 18.8961 23.0336 18.8716C22.9172 18.9832 22.7865 19.0857 22.6422 19.1748C22.5205 19.247 22.3835 19.3097 22.2313 19.3286C22.1116 19.3366 21.9828 19.332 21.8793 19.2785C21.7642 19.2245 21.7102 19.1037 21.7528 19.004C21.7785 18.948 21.8262 18.9006 21.8763 18.8569C22.0057 18.7484 22.1638 18.6655 22.3216 18.5855C22.2147 18.5814 22.1063 18.5769 22.0001 18.5871C21.9307 18.5927 21.8841 18.6339 21.8348 18.6673C21.8199 18.6022 21.8196 18.5251 21.8867 18.4773Z" fill="white"/>
<path d="M27.6931 18.5952C27.8398 18.6739 27.9691 18.7739 28.0659 18.8917C28.0741 18.892 28.0903 18.8926 28.0985 18.893C28.0936 18.8959 28.0838 18.9019 28.0789 18.9049C28.2577 19.1228 28.3038 19.4053 28.1928 19.6504C28.1832 19.6705 28.1628 19.6855 28.1455 19.7016C28.1798 19.5659 28.19 19.4222 28.1362 19.289C28.0624 19.0953 27.8792 18.9342 27.6562 18.839L27.6724 18.8376C27.6761 18.7565 27.6871 18.6759 27.6931 18.5952Z" fill="white"/>
<path d="M29.8821 19.532C30.5857 19.2625 31.2869 18.9891 31.9906 18.7202C31.9535 18.8197 31.9048 18.9334 31.7798 18.9836C31.131 19.2312 30.4835 19.4808 29.8349 19.7282C29.7922 19.7453 29.7498 19.7639 29.7031 19.7729C29.7459 19.7048 29.7862 19.6359 29.8274 19.5673C29.8362 19.5482 29.8609 19.5406 29.8821 19.532Z" fill="white"/>
</g>
<defs>
<clipPath id="clip0_1_5884">
<rect width="40" height="40" rx="20" fill="white"/>
</clipPath>
</defs>
</svg>
