<svg width="40" height="40" viewBox="0 0 40 40" fill="none" xmlns="http://www.w3.org/2000/svg">
<g clip-path="url(#clip0_1_16170)">
<path d="M40 -5H0V46H40V-5Z" fill="#00853F"/>
<path d="M40 -5H13V46H40V-5Z" fill="#FDEF42"/>
<path d="M40 -4H27V45H40V-4Z" fill="#E31B23"/>
<path d="M19.9895 15.889L18.6161 20.116L20.7296 20.8027L19.9895 15.889Z" fill="#00853F"/>
<path d="M19.9895 15.889L21.3629 20.116L19.2495 20.8027L19.9895 15.889Z" fill="#00853F"/>
<path d="M24.2279 18.9609H19.7835V21.1832L24.2279 18.9609Z" fill="#00853F"/>
<path d="M24.2279 18.9609L20.6323 21.5733L19.3261 19.7755L24.2279 18.9609Z" fill="#00853F"/>
<path d="M22.6133 23.9291L21.2399 19.7022L19.1264 20.3889L22.6133 23.9291Z" fill="#00853F"/>
<path d="M22.6133 23.9291L19.0177 21.3167L20.3238 19.5189L22.6133 23.9291Z" fill="#00853F"/>
<path d="M17.3881 23.9291L20.9837 21.3167L19.6775 19.5189L17.3881 23.9291Z" fill="#00853F"/>
<path d="M17.3881 23.9291L18.7615 19.7022L20.8749 20.3889L17.3881 23.9291Z" fill="#00853F"/>
<path d="M15.7734 18.959L19.3691 21.5714L20.6753 19.7735L15.7734 18.959Z" fill="#00853F"/>
<path d="M15.7734 18.959H20.2179V21.1812L15.7734 18.959Z" fill="#00853F"/>
</g>
<defs>
<clipPath id="clip0_1_16170">
<rect width="40" height="40" rx="20" fill="white"/>
</clipPath>
</defs>
</svg>
