<svg width="40" height="40" viewBox="0 0 40 40" fill="none" xmlns="http://www.w3.org/2000/svg">
<g clip-path="url(#clip0_1_5926)">
<path d="M-10 0H50V40H-10V0Z" fill="white"/>
<path d="M-10 0H50V20H-10V0Z" fill="#ED2939"/>
<path d="M18.4999 16.5344C22.0897 16.5344 24.9999 13.6243 24.9999 10.0344C24.9999 6.44463 22.0897 3.53452 18.4999 3.53452C14.9101 3.53452 12 6.44463 12 10.0344C12 13.6243 14.9101 16.5344 18.4999 16.5344Z" fill="white"/>
<path d="M21.4439 16.5344C25.0337 16.5344 27.9438 13.6243 27.9438 10.0344C27.9438 6.44463 25.0337 3.53452 21.4439 3.53452C17.8541 3.53452 14.944 6.44463 14.944 10.0344C14.944 13.6243 17.8541 16.5344 21.4439 16.5344Z" fill="#ED2939"/>
<path d="M22.0569 4.61371L21.0621 7.67535L23.6665 5.78315H20.4473L23.0517 7.67535L22.0569 4.61371Z" fill="white"/>
<path d="M27.2137 8.35937L23.9945 8.35937L26.5989 10.2516L25.6041 7.18993L24.6093 10.2516L27.2137 8.35937Z" fill="white"/>
<path d="M18.8709 14.4198L21.4753 12.5276L18.2561 12.5276L20.8605 14.4198L19.8657 11.3582L18.8709 14.4198Z" fill="white"/>
<path d="M25.2433 14.4196L24.2485 11.358L23.2538 14.4196L25.8582 12.5274L22.639 12.5274L25.2433 14.4196Z" fill="white"/>
<path d="M16.9021 8.35938L19.5064 10.2516L18.5117 7.18993L17.5169 10.2516L20.1213 8.35938L16.9021 8.35938Z" fill="white"/>
</g>
<defs>
<clipPath id="clip0_1_5926">
<rect width="40" height="40" rx="20" fill="white"/>
</clipPath>
</defs>
</svg>
