<svg width="40" height="40" viewBox="0 0 40 40" fill="none" xmlns="http://www.w3.org/2000/svg">
<g clip-path="url(#clip0_1_3987)">
<path d="M-10 0H49.9868V40H-10V0Z" fill="#FF0000"/>
<path d="M-10 0H49.9868V26.6667H-10V0Z" fill="#0000FF"/>
<path d="M-10 0H49.9868V13.3333H-10V0Z" fill="white"/>
<path fill-rule="evenodd" clip-rule="evenodd" d="M20.1514 7.05127C20.0619 7.0514 19.9726 7.05324 19.8836 7.05583C18.1518 7.10072 16.526 7.54793 15.3684 8.09333L15.3685 8.09489C15.2419 8.1478 15.1179 8.20084 15 8.25387L15.3979 14.4866C15.6736 17.7436 17.7962 19.64 20.1546 20.3846C22.5129 19.64 24.6354 17.7436 24.9111 14.4866L25.3068 8.27367C25.1886 8.21251 25.0647 8.15323 24.9383 8.09489L24.9384 8.09333C23.7217 7.52009 21.9879 7.05449 20.1574 7.0514C20.1561 7.0514 20.1547 7.05127 20.1534 7.05127C20.1527 7.05127 20.1521 7.05127 20.1514 7.05127Z" fill="#0000FF"/>
<path fill-rule="evenodd" clip-rule="evenodd" d="M20.1542 11.3641L18.9902 13.6372L18.2376 12.6596L16.2712 15.2582C16.3068 15.4196 16.3485 15.5753 16.3941 15.7273C16.6137 16.0979 17.0357 16.5211 17.577 16.5211C18.0065 16.5211 18.4361 16.1774 18.8656 16.1774C19.2951 16.1774 19.7247 16.5211 20.1542 16.5211C20.5837 16.5211 21.0133 16.1774 21.4428 16.1774C21.8723 16.1774 22.3019 16.5211 22.7314 16.5211C23.2678 16.5211 23.687 16.1058 23.9083 15.7376C23.9555 15.5815 23.998 15.4207 24.0346 15.2548L22.0708 12.6596L21.3182 13.6372L20.1542 11.3641ZM18.8656 16.5211C18.4361 16.5211 18.0065 16.8647 17.577 16.8647C17.2371 16.8647 16.945 16.7443 16.7188 16.5735C16.7987 16.743 16.8832 16.9079 16.9757 17.064C17.1529 17.1742 17.3543 17.2487 17.577 17.2487C18.0065 17.2487 18.4361 16.9051 18.8656 16.9051C19.2951 16.9051 19.7247 17.2487 20.1542 17.2487C20.5837 17.2487 21.0133 16.9051 21.4428 16.9051C21.8723 16.9051 22.3019 17.2487 22.7314 17.2487C22.951 17.2487 23.1496 17.1758 23.325 17.0683C23.4174 16.9127 23.5019 16.7484 23.5819 16.5795C23.3567 16.7471 23.0674 16.8647 22.7314 16.8647C22.3019 16.8647 21.8723 16.5211 21.4428 16.5211C21.0133 16.5211 20.5837 16.8647 20.1542 16.8647C19.7247 16.8647 19.2951 16.5211 18.8656 16.5211ZM18.8656 17.2487C18.4361 17.2487 18.0065 17.5923 17.577 17.5923C17.4837 17.5923 17.395 17.5814 17.309 17.5648C18.0521 18.5576 19.0659 19.2221 20.1533 19.6042C21.2385 19.2227 22.2507 18.5577 22.9934 17.5666C22.9093 17.5823 22.8225 17.5923 22.7314 17.5923C22.3019 17.5923 21.8723 17.2487 21.4428 17.2487C21.0133 17.2487 20.5837 17.5923 20.1542 17.5923C19.7247 17.5923 19.2951 17.2487 18.8656 17.2487Z" fill="white"/>
<path fill-rule="evenodd" clip-rule="evenodd" d="M18.217 7.88481H19.1916L18.7043 8.72864" fill="#FFFF00"/>
<path fill-rule="evenodd" clip-rule="evenodd" d="M18.217 8.44742H19.1916L18.7043 7.60359" fill="#FFFF00"/>
<path fill-rule="evenodd" clip-rule="evenodd" d="M21.1191 7.88503H22.0937L21.6064 8.72886" fill="#FFFF00"/>
<path fill-rule="evenodd" clip-rule="evenodd" d="M21.1191 8.44762H22.0937L21.6064 7.60379" fill="#FFFF00"/>
<path fill-rule="evenodd" clip-rule="evenodd" d="M19.6699 9.82759H20.6444L20.1572 10.6714" fill="#FFFF00"/>
<path fill-rule="evenodd" clip-rule="evenodd" d="M19.6699 10.3902H20.6444L20.1572 9.54635" fill="#FFFF00"/>
<path fill-rule="evenodd" clip-rule="evenodd" d="M15.3685 8.09489C15.2419 8.14782 15.1179 8.20082 15 8.25388L15.3979 14.4867C15.6736 17.7437 17.7961 19.64 20.1544 20.3846C22.5128 19.64 24.6352 17.7437 24.9109 14.4867L25.3066 8.27367C25.1885 8.21253 25.0646 8.15323 24.9381 8.09489L24.5689 14.2803C24.3129 17.4469 22.3427 19.2906 20.1534 20.0146C17.9641 19.2906 15.9937 17.4469 15.7378 14.2803L15.3685 8.09489Z" fill="#FF0000"/>
</g>
<defs>
<clipPath id="clip0_1_3987">
<rect width="40" height="40" rx="20" fill="white"/>
</clipPath>
</defs>
</svg>
