<svg width="40" height="40" viewBox="0 0 40 40" fill="none" xmlns="http://www.w3.org/2000/svg">
<g clip-path="url(#clip0_1_3978)">
<path d="M50 0H-10V40H50V0Z" fill="#EE1C25"/>
<path d="M50 0H-10V26.6667H50V0Z" fill="#0B4EA2"/>
<path d="M50 0H-10V13.3333H50V0Z" fill="white"/>
<path d="M28.2323 9.3999H27.6921H19.9949H12.2978H11.7576L11.7011 9.93717C11.6889 10.054 11.4004 12.8686 11.4004 19.0498C11.4004 21.954 12.3821 24.5162 14.3184 26.6652C15.675 28.1708 17.4466 29.4384 19.7345 30.5404L19.9949 30.6658L20.2553 30.5404C22.5433 29.4384 24.315 28.1708 25.6717 26.6652C27.6079 24.5162 28.5897 21.954 28.5897 19.0498C28.5897 12.8686 28.3012 10.054 28.2889 9.93717L28.2323 9.3999Z" fill="white"/>
<path d="M19.9945 30C16.7051 28.4156 12 25.2708 12 19.0499C12 12.8291 12.2974 10 12.2974 10H19.9945H27.6917C27.6917 10 27.9893 12.8291 27.9893 19.0499C27.9893 25.2708 23.2841 28.4156 19.9945 30Z" fill="#EE1C25"/>
<path d="M20.6995 17.4189C21.5902 17.4333 23.3279 17.4682 24.8752 16.9505C24.8752 16.9505 24.8343 17.5042 24.8343 18.1491C24.8343 18.7943 24.8752 19.3479 24.8752 19.3479C23.4559 18.8729 21.7032 18.8631 20.6995 18.8758V22.3117H19.2926V18.8758C18.2889 18.8631 16.5363 18.8729 15.1169 19.3479C15.1169 19.3479 15.1578 18.7943 15.1578 18.1491C15.1578 17.5041 15.1169 16.9505 15.1169 16.9505C16.6643 17.4682 18.4019 17.4333 19.2926 17.4189V15.2611C18.4808 15.2539 17.3111 15.2926 15.9884 15.7353C15.9884 15.7353 16.0293 15.1816 16.0293 14.5365C16.0293 13.8914 15.9884 13.3377 15.9884 13.3377C17.3091 13.7796 18.4775 13.819 19.289 13.812C19.2473 12.4455 18.8492 10.7232 18.8492 10.7232C18.8492 10.7232 19.6685 10.7871 19.996 10.7871C20.3239 10.7871 21.1429 10.7232 21.1429 10.7232C21.1429 10.7232 20.7449 12.4455 20.7031 13.8119C21.5147 13.8189 22.6831 13.7795 24.0037 13.3376C24.0037 13.3376 23.9629 13.8913 23.9629 14.5363C23.9629 15.1815 24.0037 15.7351 24.0037 15.7351C22.6811 15.2925 21.5113 15.2537 20.6995 15.2609V17.4188V17.4189Z" fill="white"/>
<path d="M19.9932 21.9395C18.3364 21.9395 17.449 24.2374 17.449 24.2374C17.449 24.2374 16.9567 23.1478 15.605 23.1478C14.6904 23.1478 14.0164 23.9612 13.5879 24.7145C15.2518 27.3615 17.9066 28.9949 19.9932 29.9999C22.0802 28.9949 24.7366 27.3618 26.4006 24.7145C25.9722 23.9612 25.2982 23.1478 24.3836 23.1478C23.0318 23.1478 22.5374 24.2374 22.5374 24.2374C22.5374 24.2374 21.6502 21.9395 19.9932 21.9395Z" fill="#0B4EA2"/>
</g>
<defs>
<clipPath id="clip0_1_3978">
<rect width="40" height="40" rx="20" fill="white"/>
</clipPath>
</defs>
</svg>
