<svg width="40" height="40" viewBox="0 0 40 40" fill="none" xmlns="http://www.w3.org/2000/svg">
<g clip-path="url(#clip0_1_15029)">
<rect width="40" height="40" rx="20" fill="#0051BA"/>
<path d="M40 7L-2 13.5L0 33.6667L40 52.5V7Z" fill="#215B33"/>
<path d="M0 33.6667V7H40" fill="#0051BA"/>
<mask id="mask0_1_15029" style="mask-type:luminance" maskUnits="userSpaceOnUse" x="0" y="7" width="40" height="27">
<path d="M40 7H0V33.6667H40V7Z" fill="white"/>
</mask>
<g mask="url(#mask0_1_15029)">
<path d="M40 7L0 33.6667L40 7Z" fill="black"/>
<path d="M40 7L0 33.6667" stroke="#FCD116" stroke-width="2.07846"/>
</g>
<path d="M13.2263 10.4248L12.6007 12.3501L13.5634 12.6629L13.2263 10.4248Z" fill="white"/>
<path d="M13.2263 10.4248L13.8519 12.3501L12.8892 12.6629L13.2263 10.4248Z" fill="white"/>
<path d="M15.1484 11.8226H13.124V12.8348L15.1484 11.8226Z" fill="white"/>
<path d="M15.1484 11.8226L13.5107 13.0125L12.9157 12.1936L15.1484 11.8226Z" fill="white"/>
<path d="M11.2988 11.8238L12.9366 13.0137L13.5316 12.1948L11.2988 11.8238Z" fill="white"/>
<path d="M11.2988 11.8238H13.3232V12.836L11.2988 11.8238Z" fill="white"/>
<path d="M14.4104 14.0891L13.7848 12.1637L12.8222 12.4765L14.4104 14.0891Z" fill="white"/>
<path d="M14.4104 14.0891L12.7726 12.8991L13.3676 12.0803L14.4104 14.0891Z" fill="white"/>
<path d="M12.0315 14.0853L13.6693 12.8954L13.0743 12.0765L12.0315 14.0853Z" fill="white"/>
<path d="M12.0315 14.0853L12.6571 12.16L13.6197 12.4727L12.0315 14.0853Z" fill="white"/>
<path d="M17.2205 7L16.5949 8.92532L17.5575 9.2381L17.2205 7Z" fill="white"/>
<path d="M17.2205 7L17.846 8.92532L16.8834 9.2381L17.2205 7Z" fill="white"/>
<path d="M19.1387 8.39789H17.1143V9.41009L19.1387 8.39789Z" fill="white"/>
<path d="M19.1387 8.39789L17.5009 9.5878L16.9059 8.76891L19.1387 8.39789Z" fill="white"/>
<path d="M15.2871 8.39856L16.9249 9.58847L17.5198 8.76958L15.2871 8.39856Z" fill="white"/>
<path d="M15.2871 8.39856H17.3115V9.41076L15.2871 8.39856Z" fill="white"/>
<path d="M18.4045 10.6647L17.779 8.73936L16.8163 9.05214L18.4045 10.6647Z" fill="white"/>
<path d="M18.4045 10.6647L16.7668 9.47476L17.3617 8.65588L18.4045 10.6647Z" fill="white"/>
<path d="M16.0256 10.6595L17.6634 9.46957L17.0685 8.65069L16.0256 10.6595Z" fill="white"/>
<path d="M16.0256 10.6595L16.6512 8.73417L17.6139 9.04696L16.0256 10.6595Z" fill="white"/>
<path d="M17.2205 13.8501L16.5949 15.7754L17.5575 16.0882L17.2205 13.8501Z" fill="white"/>
<path d="M17.2205 13.8501L17.846 15.7754L16.8834 16.0882L17.2205 13.8501Z" fill="white"/>
<path d="M19.1367 15.2479H17.1123V16.2601L19.1367 15.2479Z" fill="white"/>
<path d="M19.1367 15.2479L17.4989 16.4378L16.904 15.6189L19.1367 15.2479Z" fill="white"/>
<path d="M15.2871 15.2487L16.9249 16.4386L17.5198 15.6197L15.2871 15.2487Z" fill="white"/>
<path d="M15.2871 15.2487H17.3115V16.2609L15.2871 15.2487Z" fill="white"/>
<path d="M18.4045 17.5143L17.779 15.589L16.8163 15.9018L18.4045 17.5143Z" fill="white"/>
<path d="M18.4045 17.5143L16.7668 16.3244L17.3617 15.5055L18.4045 17.5143Z" fill="white"/>
<path d="M16.0256 17.5096L17.6634 16.3197L17.0685 15.5008L16.0256 17.5096Z" fill="white"/>
<path d="M16.0256 17.5096L16.6512 15.5843L17.6139 15.8971L16.0256 17.5096Z" fill="white"/>
<path d="M9.22437 13.8501L8.59879 15.7754L9.56145 16.0882L9.22437 13.8501Z" fill="white"/>
<path d="M9.22437 13.8501L9.84994 15.7754L8.88728 16.0882L9.22437 13.8501Z" fill="white"/>
<path d="M11.1504 15.2485H9.126V16.2607L11.1504 15.2485Z" fill="white"/>
<path d="M11.1504 15.2485L9.51262 16.4384L8.91766 15.6195L11.1504 15.2485Z" fill="white"/>
<path d="M7.29688 15.2492L8.93465 16.4391L9.5296 15.6202L7.29688 15.2492Z" fill="white"/>
<path d="M7.29688 15.2492H9.32127V16.2614L7.29688 15.2492Z" fill="white"/>
<path d="M10.4084 17.5143L9.78287 15.589L8.82022 15.9018L10.4084 17.5143Z" fill="white"/>
<path d="M10.4084 17.5143L8.77068 16.3244L9.36563 15.5055L10.4084 17.5143Z" fill="white"/>
<path d="M8.0354 17.5101L9.67317 16.3202L9.07822 15.5013L8.0354 17.5101Z" fill="white"/>
<path d="M8.0354 17.5101L8.66097 15.5848L9.62363 15.8975L8.0354 17.5101Z" fill="white"/>
<path d="M9.22437 7L8.59879 8.92532L9.56145 9.2381L9.22437 7Z" fill="white"/>
<path d="M9.22437 7L9.84994 8.92532L8.88728 9.2381L9.22437 7Z" fill="white"/>
<path d="M11.1504 8.39789H9.126V9.41009L11.1504 8.39789Z" fill="white"/>
<path d="M11.1504 8.39789L9.51262 9.5878L8.91766 8.76891L11.1504 8.39789Z" fill="white"/>
<path d="M7.29688 8.3996L8.93465 9.58951L9.5296 8.77062L7.29688 8.3996Z" fill="white"/>
<path d="M7.29688 8.3996H9.32127V9.41179L7.29688 8.3996Z" fill="white"/>
<path d="M10.4084 10.6642L9.78287 8.73893L8.82022 9.05172L10.4084 10.6642Z" fill="white"/>
<path d="M10.4084 10.6642L8.77068 9.47434L9.36563 8.65545L10.4084 10.6642Z" fill="white"/>
<path d="M8.0354 10.66L9.67317 9.47006L9.07822 8.65118L8.0354 10.66Z" fill="white"/>
<path d="M8.0354 10.66L8.66097 8.73466L9.62363 9.04744L8.0354 10.66Z" fill="white"/>
</g>
<defs>
<clipPath id="clip0_1_15029">
<rect width="40" height="40" rx="20" fill="white"/>
</clipPath>
</defs>
</svg>
