<svg width="40" height="40" viewBox="0 0 40 40" fill="none" xmlns="http://www.w3.org/2000/svg">
<rect width="40" height="40" rx="20" fill="#F7B718"/>
<path d="M5.98828 8H9.78488V31.1937H5.98828V8Z" fill="#005F56"/>
<path d="M15.291 9.75684H34.9918V30.8092H15.291V9.75684Z" fill="#941E32"/>
<path d="M31.4004 26.6428C31.4004 26.6428 31.6722 27.1965 31.9725 27.4221C32.4175 27.7563 33.3299 27.7322 33.7171 28.1222C34.1812 28.582 33.6905 29.1897 33.6853 29.2423C33.6747 29.3493 33.7023 29.4562 33.7107 29.5632C33.7107 29.5632 33.3979 29.567 33.2661 29.5875C33.068 29.6184 32.9908 29.7797 32.622 29.7557C31.6947 29.6955 31.7321 28.8597 31.6797 28.1455C31.6331 27.8735 31.5253 27.519 31.4641 27.2471C31.4116 27.0139 31.4004 26.6428 31.4004 26.6428Z" fill="#F7B718" stroke="black" stroke-width="0.0850487" stroke-linejoin="round"/>
<path d="M31.4004 13.3565C31.4004 13.3565 31.6722 12.8029 31.9725 12.5773C32.4175 12.243 33.3299 12.2671 33.7171 11.8772C34.1812 11.4173 33.6905 10.8096 33.6853 10.757C33.6747 10.65 33.7023 10.5431 33.7107 10.4362C33.7107 10.4362 33.3979 10.4324 33.2661 10.4118C33.068 10.3809 32.9908 10.2197 32.622 10.2436C31.6947 10.3038 31.7321 11.1396 31.6797 11.8538C31.6331 12.1258 31.5253 12.4804 31.4641 12.7523C31.4116 12.9854 31.4004 13.3565 31.4004 13.3565Z" fill="#F7B718" stroke="black" stroke-width="0.0850487" stroke-linejoin="round"/>
<path d="M18.3359 26.5981C18.3359 26.5981 18.0641 27.1518 17.7638 27.3774C17.3188 27.7117 16.4065 27.6876 16.0192 28.0775C15.5552 28.5374 16.0458 29.145 16.051 29.1977C16.0616 29.3047 16.0341 29.4116 16.0256 29.5185C16.0256 29.5185 16.3385 29.5223 16.4702 29.5429C16.6683 29.5738 16.7455 29.735 17.1143 29.7111C18.0416 29.6509 18.0042 28.8151 18.0567 28.1009C18.1032 27.8289 18.211 27.4743 18.2722 27.2024C18.3247 26.9693 18.3359 26.5981 18.3359 26.5981Z" fill="#F7B718" stroke="black" stroke-width="0.0850487" stroke-linejoin="round"/>
<path d="M18.3359 13.311C18.3359 13.311 18.0641 12.7573 17.7638 12.5318C17.3188 12.1975 16.4065 12.2216 16.0192 11.8316C15.5552 11.3718 16.0458 10.7641 16.051 10.7115C16.0616 10.6045 16.0341 10.4976 16.0256 10.3907C16.0256 10.3907 16.3385 10.3869 16.4702 10.3663C16.6683 10.3354 16.7455 10.1742 17.1143 10.1981C18.0416 10.2583 18.0042 11.0941 18.0567 11.8083C18.1032 12.0803 18.211 12.4349 18.2722 12.7068C18.3247 12.9399 18.3359 13.311 18.3359 13.311Z" fill="#F7B718" stroke="black" stroke-width="0.0850487" stroke-linejoin="round"/>
<path d="M4 8H5.98714V32H4V8Z" fill="#F7B718"/>
<path d="M9.7832 8H13.5798V31.1937H9.7832V8Z" fill="#DF7500"/>
<path d="M4 30.0035H35.741V32H4V30.0035Z" fill="#F7B718"/>
<path d="M4 8H35.3366V9.99645H4V8Z" fill="#F7B718"/>
<path d="M13.582 8H15.5692V31.9785H13.582V8Z" fill="#F7B718"/>
<path d="M34.0996 8.01367H36.0867V31.9921H34.0996V8.01367Z" fill="#F7B718"/>
<path d="M21.9876 24.5877L22.0955 24.5221L22.1424 24.5877C22.2034 24.6722 22.377 24.6675 22.4896 24.5877L22.5787 24.5174L22.6538 24.583C22.7476 24.6722 22.9259 24.6722 23.0432 24.583C23.123 24.5267 23.137 24.5221 23.1839 24.569C23.2168 24.5971 23.3106 24.6253 23.3904 24.6393C23.5405 24.6581 23.5405 24.6581 23.625 24.5267C23.7 24.4188 23.7094 24.3766 23.6953 24.2687C23.6822 24.1863 23.6729 24.1033 23.6672 24.02C23.6578 23.8981 23.6625 23.8981 23.8361 23.8324C23.9223 23.8059 24.0069 23.7746 24.0895 23.7385C24.1598 23.6963 24.3569 23.4664 24.3569 23.4195C24.3569 23.4101 24.2818 23.3913 24.188 23.382C23.8126 23.335 23.7516 23.138 23.9956 22.772C24.385 22.1621 24.6243 21.5756 24.6243 21.205C24.6243 21.0361 24.6384 20.9798 24.6572 21.0173C24.7463 21.1628 24.5868 21.7868 24.3522 22.2372L24.2584 22.4155L24.3475 22.3967C24.3944 22.3826 24.6947 22.2559 25.0043 22.1152C25.8582 21.7305 26.1491 21.6554 26.7027 21.6789C27.1672 21.6976 27.3596 21.7868 27.688 22.1293C27.8616 22.3169 28.0305 22.4436 28.3355 22.636C28.9829 23.0395 29.0111 23.077 29.0439 23.5556C29.0768 24.0388 29.058 24.067 28.692 24.1467C28.3777 24.2171 28.1806 24.3625 28.129 24.569C28.1009 24.6722 28.1619 24.6769 28.3167 24.5737L28.434 24.4986L28.4856 24.5737C28.556 24.6722 28.6967 24.6722 28.814 24.5737L28.9079 24.5033L29.0017 24.5737C29.1425 24.691 29.3301 24.6628 29.3864 24.5174C29.3958 24.4939 29.424 24.4986 29.4803 24.5502C29.5882 24.644 29.8556 24.6816 29.8837 24.6065C29.8931 24.5784 29.8744 24.5127 29.8368 24.4564C29.682 24.2218 29.6304 24.1139 29.6304 23.9872C29.6304 23.8089 29.6773 23.7198 29.8837 23.579C30.1277 23.4007 30.2028 23.1755 30.0151 23.1755C29.9025 23.1755 29.7852 23.0723 29.7101 22.9081C29.56 22.5703 29.5929 22.195 29.8181 21.5663C29.9907 21.1964 30.0773 20.7921 30.0714 20.3839C30.0714 20.0368 30.062 19.9805 29.987 19.7881C29.9282 19.6544 29.8559 19.527 29.7711 19.4081L29.6398 19.2345L29.804 19.0937C30.3107 18.6762 30.2075 17.9912 29.5976 17.7284C29.4099 17.644 29.363 17.6393 29.0345 17.6393C28.8469 17.6393 28.5419 17.6674 28.3777 17.7003C28.1573 17.7352 27.9346 17.754 27.7115 17.7566C27.3924 17.7566 27.3361 17.7472 27.2141 17.6815C27.0875 17.6158 27.064 17.583 27.0406 17.4235C27.0383 17.4084 27.0324 17.3942 27.0234 17.3819C27.0144 17.3696 27.0026 17.3598 26.9889 17.3531C26.942 17.339 26.745 17.5126 26.7168 17.5877C26.6981 17.6299 26.6887 17.6252 26.6464 17.5736C26.6067 17.5225 26.575 17.4655 26.5526 17.4047C26.5057 17.2499 26.5667 17.1373 26.7497 17.0481L26.8904 16.9824L26.806 16.9308C26.6371 16.8229 26.3462 16.898 26.243 17.0716C26.2101 17.1185 26.1773 17.1654 26.1679 17.1654C26.1585 17.1654 26.1022 17.1185 26.0459 17.0575C25.8254 16.8417 25.9005 16.5226 26.196 16.4288C26.3509 16.3772 26.4916 16.4147 26.5198 16.5226C26.5667 16.6775 26.6981 16.471 26.6746 16.2787C26.6605 16.152 26.6605 16.1473 26.7497 16.1473C26.8717 16.1473 27.125 16.3068 27.2095 16.4288C27.3033 16.5743 27.2939 16.8042 27.1907 16.9731L27.1109 17.1044L27.2188 17.0857C27.369 17.0528 27.5191 16.959 27.5942 16.8417C27.6337 16.767 27.656 16.6843 27.6592 16.5999C27.6625 16.5154 27.6466 16.4313 27.6129 16.3537C27.5426 16.2271 27.552 16.2083 27.6552 16.2505C27.8241 16.3209 27.9179 16.4007 27.9836 16.5367C28.0493 16.6587 28.054 16.6869 28.0211 16.8182C27.9987 16.8982 27.9638 16.9742 27.9179 17.0434C27.8616 17.1185 27.8569 17.1326 27.9038 17.1326C27.9883 17.1326 28.1572 17.0528 28.2182 16.9918C28.251 16.9543 28.2979 16.8745 28.3214 16.8042L28.3683 16.6869L28.4152 16.7807C28.4856 16.9074 28.6264 17.0247 28.7953 17.0997C28.9782 17.1748 29.0533 17.1795 28.9595 17.1091C28.8938 17.0622 28.7718 16.7103 28.814 16.6775C29.0165 16.7909 29.2014 16.9331 29.363 17.0997C29.6304 17.339 29.7993 17.4188 30.0433 17.4188C30.3576 17.4188 30.5406 17.1466 30.3998 16.8886C30.3201 16.7385 30.1371 16.715 30.0245 16.8417C29.9776 16.9027 29.9635 16.9496 29.9776 17.0153C29.9963 17.0903 29.9917 17.0997 29.9213 17.0997C29.8274 17.0997 29.6492 16.9824 29.3301 16.715C28.886 16.3328 28.3756 16.0354 27.8241 15.8377C27.4505 15.7513 27.0647 15.7307 26.684 15.7767C26.3837 15.833 26.0271 16.0066 25.8301 16.1895C25.4876 16.518 25.4829 16.9543 25.816 17.3531L25.9098 17.4657L25.8489 17.5689C25.803 17.6428 25.7802 17.7288 25.7836 17.8157C25.7869 17.9027 25.8162 17.9867 25.8676 18.0568C25.9145 18.1225 25.9615 18.1741 25.9755 18.1741C25.9849 18.1741 25.9943 18.1319 25.999 18.0803C26.0084 17.9536 26.0647 17.8692 26.1585 17.8363C26.243 17.8035 26.2993 17.8223 26.684 17.9771C27.0922 18.1366 27.7631 18.146 28.4762 18.0052C28.7853 17.9339 29.107 17.9371 29.4146 18.0146C29.7524 18.1554 29.8274 18.5166 29.5835 18.7888C29.4756 18.9107 29.377 18.9577 29.0345 19.0515C28.7364 19.1301 28.4264 19.154 28.1197 19.1219C27.6129 19.1172 27.43 19.1266 27.2282 19.1688C26.9983 19.2157 26.8623 19.2204 26.2054 19.2063L25.4407 19.1876L25.5251 19.2532C25.5703 19.2934 25.619 19.3295 25.6706 19.3611C25.7316 19.394 25.7269 19.3987 25.6424 19.4315C25.5955 19.4503 25.4829 19.4644 25.3938 19.4644H25.2389L25.2202 19.5957C25.2075 19.6577 25.2075 19.7215 25.2202 19.7834C25.2389 19.8303 25.2295 19.8397 25.1826 19.8209C25.1498 19.8069 25.0606 19.7834 24.9809 19.7693C24.9004 19.7521 24.8218 19.7269 24.7463 19.6943C24.6572 19.6473 24.6478 19.6473 24.6149 19.7083C24.5868 19.7553 24.324 19.9523 24.2865 19.9523C24.2695 19.8306 24.2348 19.712 24.1833 19.6004C24.1364 19.5019 24.0941 19.3893 24.0801 19.3565C24.066 19.3048 24.0566 19.3002 24.0332 19.3424C24.0191 19.3658 24.0003 19.4362 23.9862 19.4925C23.9698 19.5685 23.9413 19.6414 23.9018 19.7083L23.8314 19.8116L23.7845 19.7224C23.7376 19.6286 23.6625 19.5254 23.6344 19.5254C23.625 19.5254 23.6109 19.5535 23.6015 19.5957C23.5781 19.6708 23.3951 19.8913 23.3482 19.8913C23.3341 19.8913 23.32 19.8303 23.32 19.7506C23.32 19.6802 23.3059 19.6145 23.2872 19.6145C23.2684 19.6145 23.2543 19.638 23.2543 19.6614C23.2543 19.7177 23.0995 19.896 23.0432 19.896C23.0244 19.896 22.9869 19.9148 22.9634 19.9429C22.9071 20.0039 22.8602 19.9945 22.8837 19.9242C22.8903 19.8641 22.8839 19.8033 22.8649 19.7459L22.818 19.5957C22.8086 19.5723 22.7523 19.5817 22.6303 19.6192C22.4427 19.6802 22.377 19.6661 22.4755 19.591C22.513 19.5629 22.5693 19.4644 22.5975 19.3752C22.6303 19.2814 22.6772 19.2016 22.7007 19.1922C22.7335 19.1829 22.7335 19.1922 22.6913 19.2485C22.6642 19.2842 22.6464 19.3262 22.6397 19.3705C22.6397 19.394 22.6162 19.455 22.5928 19.5066C22.5646 19.5535 22.5459 19.6004 22.5506 19.6051C22.5553 19.6098 22.6303 19.5817 22.7148 19.5441L22.8649 19.4691V19.5347C22.8649 19.5723 22.8837 19.6661 22.9071 19.7459L22.9494 19.8866L23.0526 19.8397C23.1558 19.7928 23.2543 19.6239 23.2543 19.4878C23.2543 19.4221 23.2919 19.4315 23.3106 19.5019C23.3106 19.5207 23.3388 19.6004 23.3575 19.6755L23.4045 19.8069L23.4748 19.7224C23.5171 19.6755 23.564 19.5817 23.5827 19.5207C23.6203 19.4081 23.6766 19.3565 23.6766 19.4409C23.6766 19.4972 23.8361 19.713 23.8643 19.6943C23.883 19.6849 23.9112 19.6051 23.9346 19.516C23.9815 19.3283 24.0519 19.2063 24.0988 19.2345C24.1176 19.2439 24.1223 19.2626 24.1129 19.2814C24.1035 19.2908 24.1411 19.4128 24.1974 19.5441C24.2382 19.6426 24.2788 19.7411 24.3193 19.8397C24.3381 19.8866 24.3569 19.8866 24.4742 19.7787C24.5446 19.713 24.6149 19.6427 24.6196 19.6192C24.6337 19.5817 24.6478 19.5864 24.7135 19.6286C24.8518 19.7017 25.0033 19.7463 25.1592 19.7599C25.1686 19.7506 25.1779 19.6661 25.1779 19.5723L25.1826 19.3987L25.2765 19.4174C25.3234 19.4315 25.4313 19.4315 25.511 19.4174L25.6518 19.3987L25.5251 19.3048C25.4547 19.2579 25.3844 19.1969 25.3656 19.1688C25.3515 19.1406 25.2858 19.1125 25.2155 19.1078C25.0231 19.089 24.6806 18.9014 24.6806 18.8075C24.6806 18.7888 24.7275 18.8216 24.7838 18.8732C24.9152 18.9905 25.0935 19.0609 25.253 19.0609H25.3656L25.2952 18.967C25.2451 18.8943 25.2129 18.8107 25.2014 18.7231C25.192 18.5823 25.1779 18.5636 25.0325 18.465C24.9482 18.4053 24.8696 18.3377 24.7979 18.2633L24.7181 18.1741L24.6759 18.282C24.6525 18.343 24.629 18.39 24.6149 18.39C24.6055 18.39 24.5586 18.3524 24.5211 18.3102C24.4947 18.2796 24.4629 18.2542 24.4273 18.2351C24.4132 18.2351 24.3803 18.2914 24.3428 18.3618L24.2771 18.4885L24.2302 18.4181C24.1885 18.3606 24.1413 18.3072 24.0895 18.2586C24.0332 18.2117 24.0097 18.1741 24.0285 18.1741C24.0472 18.1741 24.1082 18.2211 24.1692 18.282L24.2724 18.39L24.3193 18.3102C24.3465 18.2549 24.3547 18.1923 24.3428 18.1319C24.324 18.0475 24.3287 18.0428 24.3569 18.0991C24.3973 18.152 24.4447 18.1994 24.4976 18.2398L24.6009 18.3243L24.6712 18.1976C24.7416 18.0662 24.7416 18.0662 24.7698 18.146C24.8167 18.2445 25.1216 18.4979 25.3797 18.6433C25.4266 18.6668 25.4078 18.5917 25.3328 18.4087C25.3102 18.3486 25.2975 18.2852 25.2952 18.2211C25.2952 18.1366 25.2718 18.0991 25.1639 18.0146C25.0968 17.9717 25.0406 17.9138 24.9999 17.8453C24.9592 17.7769 24.935 17.6999 24.9293 17.6205C24.9152 17.5408 24.887 17.4563 24.8636 17.4282C24.8354 17.3812 24.8261 17.4094 24.8354 17.5501C24.8448 17.6487 24.8307 17.7706 24.8073 17.8223L24.7698 17.9161L24.7416 17.8363C24.7228 17.7941 24.6478 17.719 24.5774 17.6721C24.507 17.6252 24.4554 17.5783 24.4648 17.5689C24.4742 17.5595 24.5492 17.6017 24.629 17.6627C24.7557 17.7613 24.7791 17.7706 24.7979 17.7284C24.8167 17.6815 24.7979 17.4657 24.7604 17.3156C24.7416 17.2405 24.7416 17.2405 24.8354 17.3343C24.9011 17.4 24.9387 17.4845 24.9715 17.6252C25.009 17.8035 25.0278 17.8363 25.192 17.9818C25.2905 18.0709 25.3797 18.1366 25.3844 18.1319C25.3938 18.1225 25.4031 17.8973 25.4125 17.6252C25.4313 17.1044 25.4125 16.9777 25.2858 16.8182L25.2202 16.7338L25.3234 16.6259C25.439 16.5153 25.5163 16.3706 25.5439 16.213L25.5627 16.0863L25.4501 16.1942C25.3562 16.2834 25.3093 16.3021 25.2014 16.3021C25.0935 16.3021 25.0513 16.2834 24.9809 16.2083C24.8713 16.1028 24.7376 16.0255 24.5915 15.9831C24.5352 15.9643 24.5164 15.9737 24.5164 16.0112C24.5164 16.0394 24.4883 16.1145 24.4507 16.1848L24.385 16.3068L24.2443 16.1661C24.1551 16.0863 24.0566 16.0159 23.9769 15.9972C23.7845 15.9503 23.7751 15.9503 23.7751 16.0957C23.7751 16.3162 23.6813 16.3584 23.5124 16.213C23.381 16.1004 23.2778 16.0722 23.0291 16.1051L22.8415 16.1239L22.8743 16.2083C22.9024 16.2787 22.8978 16.3115 22.8368 16.3913C22.7382 16.5226 22.6116 16.5789 22.4145 16.5789C22.3207 16.5789 22.2081 16.5977 22.1612 16.6212C22.1142 16.6446 21.9922 16.6681 21.8937 16.6775C21.7999 16.6869 21.692 16.7056 21.6591 16.715C21.6122 16.7338 21.6122 16.715 21.6263 16.6118C21.6498 16.4523 21.5325 16.3303 21.3589 16.3303C21.129 16.3303 21.0258 16.5367 21.1149 16.8088C21.1331 16.8676 21.1488 16.927 21.1618 16.9871C21.2234 17.1045 21.3061 17.2094 21.4058 17.2968C21.5278 17.4188 21.6404 17.5454 21.6591 17.5783C21.6969 17.6272 21.745 17.6673 21.7999 17.6956L21.9031 17.7519L21.889 17.6393C21.875 17.5173 21.8984 17.4985 21.9641 17.5877C21.9876 17.6158 22.0485 17.6674 22.0955 17.6956C22.1752 17.7425 22.1893 17.7425 22.1893 17.705C22.1893 17.6768 22.2034 17.6158 22.2221 17.5689L22.255 17.4845L22.316 17.6017C22.3488 17.6674 22.4567 17.8129 22.5553 17.9302C22.7476 18.1507 22.8696 18.3993 22.8086 18.4556C22.7805 18.4791 22.7148 18.4791 22.574 18.451C22.4708 18.4322 22.3394 18.4181 22.2831 18.4275C22.1752 18.4416 22.1658 18.4275 22.2362 18.343C22.3066 18.2492 22.2925 18.2351 22.1518 18.2351C21.9876 18.2351 21.5794 18.1554 21.4199 18.0944C21.2697 18.0334 21.2322 18.0475 21.1853 18.1929L21.1055 18.4556L21.0586 18.5964L21.2275 18.5823C21.3146 18.5732 21.4008 18.5575 21.4855 18.5354C21.5188 18.5243 21.5538 18.5196 21.5888 18.5213C21.5981 18.526 21.5747 18.5823 21.5418 18.648L21.4762 18.7606L21.5794 18.7418C21.6357 18.7278 21.7201 18.6996 21.767 18.6762C21.8515 18.6386 21.8609 18.6386 21.9266 18.7465C22.0063 18.8732 22.0673 18.8685 22.0814 18.7325C22.0955 18.5917 22.1424 18.6105 22.2315 18.7981C22.316 18.9764 22.4004 19.0421 22.4192 18.9389C22.4239 18.9014 22.4661 18.8451 22.5177 18.8075C22.6209 18.7371 22.696 18.7606 22.7382 18.8685C22.7852 18.9858 22.6819 19.1031 22.391 19.2814C22.1217 19.4301 21.8899 19.6385 21.7134 19.8906C21.5369 20.1427 21.4205 20.4318 21.3729 20.7358C21.2838 21.2895 21.5606 21.8618 22.1048 22.2794C22.3676 22.4765 22.7852 22.6829 22.757 22.6078C22.6444 22.2653 22.6491 21.6226 22.7617 21.5147C22.7805 21.4959 22.7758 21.5616 22.7476 21.6601C22.6538 22.0307 22.7007 22.3216 22.9353 23.0066C23.1417 23.6259 23.1136 23.8934 22.8133 24.067C22.7195 24.1233 22.6585 24.1326 22.4004 24.1279C22.1189 24.1279 22.0861 24.1279 21.9969 24.203C21.8891 24.3131 21.8186 24.4542 21.7952 24.6065C21.7952 24.6675 21.8609 24.6581 21.9829 24.5877H21.9876Z" fill="#FFB700" stroke="black" stroke-width="0.262737"/>
<path d="M26.5395 24.5738L26.6568 24.4988L26.7365 24.5738C26.8398 24.6724 26.9664 24.6677 27.065 24.5692C27.1119 24.5222 27.1494 24.4941 27.1541 24.4988L27.1963 24.5738C27.2198 24.6161 27.2714 24.6348 27.3652 24.6442C27.4731 24.6489 27.506 24.6442 27.5529 24.5785L27.5998 24.4988L27.7171 24.5738C28.0362 24.7803 28.2051 24.5645 28.0596 24.1375C27.9892 23.9217 28.0315 23.7997 28.2614 23.5276C28.3599 23.4103 28.4396 23.2836 28.4396 23.2461C28.4396 23.1945 28.4209 23.1851 28.2895 23.1898C28.1675 23.1898 28.13 23.1757 28.0643 23.1053C27.9564 22.988 27.9658 22.852 28.0831 22.7018L28.1769 22.5846L28.008 22.472C27.8732 22.3724 27.7476 22.2609 27.6327 22.1388C27.5303 22.018 27.405 21.9185 27.2642 21.846C27.1233 21.7736 26.9695 21.7296 26.8116 21.7166L26.5911 21.6931V21.862C26.5911 22.0732 26.6943 22.2796 26.9664 22.6268C27.2761 23.0209 27.2949 23.0819 27.3089 23.598L27.323 24.0343L27.2292 24.1188C27.1494 24.1938 27.1166 24.2079 26.8538 24.222C26.6052 24.236 26.5489 24.2501 26.4785 24.3158C26.3961 24.3759 26.3392 24.4646 26.319 24.5645C26.3049 24.6348 26.3096 24.6489 26.3612 24.6489C26.394 24.6489 26.4738 24.6161 26.5395 24.5738ZM19.8678 23.4478C19.8962 23.4062 19.9125 23.3574 19.9148 23.3071C19.9148 23.2602 19.9429 23.2414 20.0649 23.2226L20.2103 23.2039L20.1165 23.1241C19.9992 23.0303 19.9851 22.9599 20.0884 22.9599C20.1916 22.9599 20.3605 22.8567 20.3886 22.7769C20.4027 22.7394 20.3886 22.6925 20.3699 22.669C20.3136 22.6033 20.2056 22.6127 20.1869 22.6878C20.1634 22.7628 20.1306 22.7628 20.0461 22.6878C19.9288 22.5705 19.9241 22.3312 20.0461 22.1904C20.0977 22.1248 20.0977 22.1248 20.0274 22.0544C19.9523 21.9793 19.896 21.8386 19.9335 21.801C19.9429 21.7917 20.0039 21.801 20.0649 21.8245C20.1587 21.8526 20.1916 21.8526 20.2291 21.8245C20.337 21.7353 20.2197 21.6227 20.0414 21.6509C19.9664 21.6603 19.9382 21.6509 19.9288 21.6134C19.9195 21.5852 19.8585 21.5477 19.7881 21.5289C19.6614 21.4961 19.6614 21.4961 19.6614 21.5852C19.6614 21.679 19.6051 21.6978 19.5019 21.6368C19.4174 21.5899 19.3377 21.6274 19.3377 21.7166C19.3377 21.801 19.4174 21.8386 19.5723 21.8292C19.6849 21.8245 19.6896 21.9089 19.5816 22.0309L19.5019 22.1248L19.5629 22.2139C19.6567 22.3453 19.6473 22.5658 19.5488 22.6784L19.469 22.7628L19.4174 22.6925C19.3424 22.5986 19.2438 22.6033 19.2157 22.7065C19.2016 22.7722 19.2157 22.8004 19.3001 22.8754C19.3564 22.9224 19.4409 22.9599 19.4831 22.9599C19.591 22.9599 19.5863 23.049 19.4737 23.1335L19.3799 23.2039L19.5207 23.2226C19.5957 23.2367 19.6614 23.2555 19.6614 23.2695C19.6614 23.3305 19.7552 23.5135 19.7834 23.5135C19.8022 23.5135 19.8397 23.4807 19.8678 23.4431V23.4478Z" fill="#FFB700" stroke="black" stroke-width="0.262737"/>
<path d="M21.6597 22.6689C21.7864 22.622 22.0585 22.3874 22.0585 22.3358C22.0585 22.3171 21.9834 22.2326 21.8896 22.1482C21.7019 21.9793 21.4908 21.6837 21.4345 21.5148C21.4064 21.4209 21.2703 21.2708 20.8856 20.8955L20.3742 20.4028L20.2287 20.4404C20.1443 20.4591 20.0457 20.4779 20.0082 20.4779C19.9378 20.4779 19.9378 20.4779 20.0317 20.553L20.1255 20.628L20.2663 20.553C20.3929 20.4779 20.3976 20.4779 20.4117 20.5389C20.4211 20.5717 20.4023 20.6327 20.3648 20.675C20.3319 20.7172 20.3132 20.7688 20.3179 20.7829C20.3319 20.7969 20.2991 20.8298 20.2475 20.8579C20.1537 20.9048 20.0833 21.0597 20.1584 21.0597C20.2287 21.0597 20.3789 20.872 20.3601 20.811C20.3507 20.7782 20.3601 20.7453 20.3695 20.7359C20.4305 20.7031 20.4258 20.8485 20.3695 20.9236C20.3319 20.9611 20.3132 21.0081 20.3226 21.0268C20.3319 21.0409 20.2991 21.0737 20.2475 21.1019C20.1537 21.1488 20.0833 21.3036 20.1584 21.3036C20.2334 21.3036 20.3789 21.1254 20.3648 21.0597C20.3554 21.0268 20.3554 20.9893 20.3695 20.9799C20.4117 20.9611 20.4305 21.0737 20.3976 21.1301C20.389 21.1459 20.3845 21.1636 20.3845 21.1817C20.3845 21.1997 20.389 21.2174 20.3976 21.2333C20.4305 21.2943 20.3976 21.4069 20.3366 21.4444C20.3132 21.4585 20.3273 21.4913 20.3929 21.5382C20.4868 21.6039 20.4868 21.6133 20.4868 21.9136C20.4868 22.1669 20.4962 22.2326 20.5431 22.2748C20.59 22.3218 20.5994 22.3218 20.5994 22.2748C20.5994 22.2279 20.6932 22.1622 20.7636 22.1622C20.787 22.1622 20.9231 22.2795 21.0685 22.4203C21.214 22.561 21.3688 22.6877 21.411 22.6924L21.5143 22.7112C21.5283 22.7112 21.594 22.6971 21.6597 22.6642V22.6689ZM20.0974 21.4444C20.0974 21.3646 19.9285 21.2755 19.7267 21.2567C19.5625 21.2333 19.5625 21.238 19.5625 21.3177C19.5625 21.3834 19.586 21.4116 19.7033 21.4585C19.8815 21.5382 20.0974 21.5288 20.0974 21.4444Z" fill="#FFB700" stroke="black" stroke-width="0.262737"/>
<path d="M20.2799 21.4352C20.3643 21.3601 20.4019 21.2756 20.3503 21.2756C20.294 21.2756 20.1438 21.407 20.1438 21.4633C20.1438 21.5384 20.172 21.5337 20.2846 21.4352H20.2799ZM20.1063 21.1959C20.111 21.149 20.0828 21.1208 19.9984 21.0786C19.8107 20.9988 19.5949 20.9566 19.5433 20.9988C19.4448 21.0786 19.5104 21.1818 19.6653 21.2006C19.7309 21.2053 19.8154 21.224 19.8576 21.2428C19.9796 21.2897 20.0922 21.2663 20.1063 21.1959ZM20.1063 20.9472C20.1157 20.8862 20.0734 20.8628 19.7309 20.7408C19.4729 20.647 19.3603 20.6939 19.4448 20.8487C19.4729 20.9003 19.5198 20.9238 19.6277 20.9425C19.7075 20.9519 19.8154 20.9754 19.867 20.9941C20.0078 21.0411 20.0922 21.0223 20.1016 20.9472H20.1063ZM20.2752 20.7173C20.3268 20.6657 20.369 20.6047 20.369 20.5766C20.369 20.5062 20.1673 20.6376 20.1391 20.7314C20.111 20.8393 20.1626 20.8346 20.2799 20.7173H20.2752ZM20.1063 20.7033C20.1157 20.6282 19.9937 20.5625 19.7497 20.5109C19.5667 20.4687 19.487 20.4921 19.5011 20.5766C19.5104 20.6235 19.5714 20.6563 19.7356 20.7079C20.0125 20.7924 20.0922 20.7924 20.1063 20.7033ZM20.3409 20.3561C20.6599 20.2153 20.6834 19.8634 20.3878 19.7696C20.2658 19.7321 20.1907 19.7555 20.1438 19.8353C20.1063 19.901 20.1297 20.0136 20.1767 20.0136C20.1954 20.0136 20.2095 20.037 20.2095 20.0605C20.2095 20.1872 19.7309 20.2388 19.5339 20.1402C19.4635 20.1074 19.4401 20.0136 19.4917 20.0136C19.5386 20.0136 19.5667 19.9197 19.5433 19.8587C19.5151 19.7649 19.4213 19.7368 19.2946 19.7743C18.999 19.8494 19.0084 20.1965 19.3087 20.3373C19.6409 20.4592 20.0045 20.4658 20.3409 20.3561Z" fill="#FFB700" stroke="black" stroke-width="0.262737"/>
<path d="M20.1502 20.0836C20.169 20.0649 20.1596 20.0367 20.1314 20.018C20.0657 19.9663 20.0704 19.8866 20.1408 19.7974C20.1971 19.7318 20.2018 19.6285 20.2206 18.6198C20.2534 16.8792 20.3848 15.5702 20.5537 15.2512C20.6241 15.1292 20.6147 15.1292 20.4364 15.2512C20.2025 15.4141 20.0137 15.6336 19.8875 15.8892C19.5966 16.4288 19.498 17.156 19.498 18.7137C19.498 19.5957 19.5027 19.713 19.5543 19.7928C19.6013 19.8772 19.6013 19.9054 19.5731 19.9898C19.5497 20.0414 19.5403 20.0977 19.5497 20.1071C19.6153 20.1681 20.0845 20.154 20.1502 20.0836ZM22.7823 18.4228C22.7963 18.4087 22.7729 18.3289 22.7353 18.2539C22.679 18.1319 22.6556 18.1131 22.5758 18.1131C22.2007 18.0805 21.8348 17.9787 21.4967 17.8128C21.2574 17.7049 21.1683 17.6815 21.1448 17.7096C21.0698 17.78 21.1918 17.9442 21.3794 18.0334C21.6556 18.1329 21.9449 18.1914 22.238 18.2069C22.3647 18.2069 22.3694 18.2069 22.2943 18.3149L22.2474 18.3899H22.3882L22.6227 18.4181C22.7635 18.4509 22.7635 18.4509 22.7823 18.4228Z" fill="#FFB700" stroke="black" stroke-width="0.262737"/>
<path d="M24.2632 19.2065C24.2632 19.1596 24.1271 19.0423 23.9958 18.9625C23.8879 18.9015 23.8691 18.8968 23.8691 18.9484C23.8691 19.0235 23.8034 19.2159 23.7753 19.2159C23.7612 19.2159 23.7377 19.1783 23.7283 19.1361C23.7143 19.0892 23.6627 18.9954 23.611 18.9344L23.5172 18.8171L23.4515 18.925C23.3858 19.0282 23.2686 19.1267 23.2169 19.1267C23.2076 19.1267 23.2029 19.0704 23.2169 19.0094C23.2216 18.9344 23.2169 18.8781 23.1935 18.8687C23.1747 18.8546 23.1559 18.8593 23.1559 18.8781C23.1559 18.9156 22.9964 19.0939 22.9683 19.0939C22.9495 19.0939 22.9307 19.047 22.9214 18.9813L22.8838 18.7561C22.8744 18.6998 22.8979 18.7373 22.9307 18.8499L23.0058 19.0423L23.0809 18.925C23.1149 18.8765 23.1403 18.8225 23.1559 18.7655C23.1559 18.742 23.17 18.7326 23.1888 18.742C23.2076 18.7514 23.231 18.8311 23.2404 18.9156L23.2639 19.0751L23.3483 18.9813C23.3925 18.9342 23.4333 18.884 23.4703 18.8311C23.5031 18.7748 23.5078 18.7748 23.5782 18.8311C23.6157 18.8687 23.6767 18.9484 23.7143 19.0141C23.7518 19.0798 23.7846 19.1267 23.7893 19.122L23.8175 18.9719L23.8362 18.8311C23.8409 18.8077 24.0896 18.9719 24.1834 19.0517C24.2397 19.1033 24.296 19.1408 24.3054 19.1314C24.3148 19.122 24.3242 19.047 24.3242 18.9578C24.3242 18.8265 24.3101 18.7889 24.2304 18.7185C24.1365 18.6341 24.1365 18.6341 24.099 18.6951C24.0521 18.7748 24.0005 18.7748 24.0005 18.6951C24.0005 18.6388 23.8222 18.4183 23.7799 18.4183C23.7659 18.4183 23.7283 18.4652 23.6955 18.5262C23.6627 18.5872 23.6251 18.6341 23.6157 18.6341C23.5688 18.6341 23.3202 18.3526 23.3202 18.3057C23.3202 18.2681 23.3389 18.2775 23.3812 18.3432C23.4231 18.4048 23.4719 18.4615 23.5266 18.5121C23.6204 18.5966 23.658 18.5778 23.6955 18.4136C23.7096 18.3667 23.7283 18.3291 23.7424 18.3291C23.7799 18.3291 23.9958 18.559 24.0239 18.6341L24.0568 18.7092L24.0802 18.6247C24.1084 18.5215 24.1412 18.5215 24.1881 18.6153C24.2069 18.6529 24.3007 18.7373 24.3946 18.7936L24.5682 18.9062L24.601 18.7936C24.6198 18.7326 24.6479 18.6998 24.6573 18.7185C24.6761 18.742 24.6292 18.9297 24.5963 18.9672C24.5963 18.9719 24.5353 18.9391 24.4743 18.8968L24.357 18.8124V18.9625C24.357 19.0423 24.3476 19.1408 24.3383 19.1783C24.3148 19.2534 24.2585 19.2722 24.2585 19.2065H24.2632ZM23.3952 18.0148C23.1888 17.8459 23.1606 17.8083 23.1606 17.7239L23.1653 17.6394L23.1794 17.7192C23.1888 17.7661 23.2451 17.8412 23.3108 17.8975L23.4328 17.9913L23.5031 17.9069C23.5454 17.86 23.5782 17.8037 23.5782 17.7849C23.5782 17.7286 23.5876 17.7333 23.7283 17.8553C23.8503 17.9632 23.855 17.9632 23.8691 17.8928C23.8832 17.8553 23.8785 17.7802 23.8691 17.7286C23.8222 17.5878 23.8316 17.5691 23.8926 17.6535L24.0052 17.7849C24.0521 17.8365 24.0568 17.8365 24.0755 17.7708C24.0896 17.7286 24.099 17.6582 24.099 17.6113V17.5222L24.2069 17.6488C24.3148 17.7708 24.3242 17.7755 24.3523 17.7145C24.3758 17.6817 24.3899 17.6019 24.3899 17.5409C24.3899 17.4565 24.3993 17.4377 24.418 17.4659C24.4556 17.5222 24.4321 17.6629 24.3664 17.7849L24.3195 17.8787L24.2585 17.7802C24.1787 17.6582 24.1506 17.6582 24.1037 17.7896C24.0568 17.9163 24.0239 17.9256 23.977 17.8271C23.9489 17.7661 23.9395 17.7755 23.9207 17.9069L23.8972 18.0476L23.7565 17.9397L23.6157 17.8318L23.5454 17.9022C23.5125 17.9444 23.4844 17.996 23.4844 18.0148C23.4844 18.0617 23.4468 18.0617 23.3952 18.0148ZM25.225 17.3767C25.1546 17.311 25.103 17.2453 25.1124 17.236C25.1265 17.2219 25.1359 17.2172 25.1406 17.2266C25.186 17.275 25.2329 17.3219 25.2813 17.3673C25.4408 17.5362 25.408 17.5409 25.2297 17.3767H25.225ZM22.7853 17.1234C22.7196 17.0295 22.7243 16.9732 22.8088 16.87C22.8651 16.7996 22.8932 16.7902 22.9964 16.8043C23.0668 16.809 23.2122 16.87 23.3202 16.9357C23.4761 17.0289 23.6546 17.0775 23.8362 17.0764L23.7565 16.9451C23.6533 16.7902 23.6533 16.7715 23.7753 16.8653C23.8972 16.9638 24.0427 16.992 24.3711 16.9826L24.5306 16.9779L24.4368 16.8841C24.3101 16.7574 24.3476 16.7433 24.4931 16.87C24.6245 16.9873 24.6198 16.9967 24.3336 17.0248C24.2142 17.0369 24.0937 17.029 23.977 17.0014C23.8175 16.9545 23.8081 16.9591 23.8409 17.0108C23.8597 17.0436 23.8879 17.0671 23.9019 17.0671C23.9207 17.0671 23.9348 17.0858 23.9348 17.1046C23.9348 17.1656 23.5876 17.1093 23.4187 17.0295C23.0433 16.8372 22.9964 16.8184 22.9026 16.8465C22.8776 16.8562 22.8548 16.8706 22.8354 16.8892C22.8161 16.9077 22.8007 16.9299 22.79 16.9545C22.729 17.1093 22.9495 17.2313 23.0387 17.0952C23.0668 17.053 23.0621 17.0295 23.0152 16.9779C22.9495 16.9122 22.9589 16.9028 23.0433 16.931C23.1043 16.9545 23.109 17.0999 23.0527 17.1562C22.9917 17.2172 22.8416 17.2031 22.7853 17.1234Z" fill="black" stroke="black" stroke-width="0.262737"/>
<path d="M24.2816 16.7432C24.2347 16.6963 24.2723 16.6869 24.4834 16.6822C24.7461 16.6775 24.9056 16.6353 25.0933 16.5133C25.2434 16.4195 25.2857 16.4383 25.1402 16.5368C25.0135 16.6306 24.8118 16.6963 24.6101 16.7151L24.3708 16.7479C24.3332 16.7573 24.291 16.7526 24.2769 16.7432H24.2816Z" fill="black" stroke="black" stroke-width="0.262737"/>
<path d="M21.9876 24.5877L22.0955 24.5221L22.1424 24.5877C22.2034 24.6722 22.377 24.6675 22.4896 24.5877L22.5787 24.5174L22.6538 24.583C22.7476 24.6722 22.9259 24.6722 23.0432 24.583C23.123 24.5267 23.137 24.5221 23.1839 24.569C23.2168 24.5971 23.3106 24.6253 23.3904 24.6393C23.5405 24.6581 23.5405 24.6581 23.625 24.5267C23.7 24.4188 23.7094 24.3766 23.6953 24.2687C23.6822 24.1863 23.6729 24.1033 23.6672 24.02C23.6578 23.8981 23.6625 23.8981 23.8361 23.8324C23.9223 23.8059 24.0069 23.7746 24.0895 23.7385C24.1598 23.6963 24.3569 23.4664 24.3569 23.4195C24.3569 23.4101 24.2818 23.3913 24.188 23.382C23.8126 23.335 23.7516 23.138 23.9956 22.772C24.385 22.1621 24.6243 21.5756 24.6243 21.205C24.6243 21.0361 24.6384 20.9798 24.6572 21.0173C24.7463 21.1628 24.5868 21.7868 24.3522 22.2372L24.2584 22.4155L24.3475 22.3967C24.3944 22.3826 24.6947 22.2559 25.0043 22.1152C25.8582 21.7305 26.1491 21.6554 26.7027 21.6789C27.1672 21.6976 27.3596 21.7868 27.688 22.1293C27.8616 22.3169 28.0305 22.4436 28.3355 22.636C28.9829 23.0395 29.0111 23.077 29.0439 23.5556C29.0768 24.0388 29.058 24.067 28.692 24.1467C28.3777 24.2171 28.1806 24.3625 28.129 24.569C28.1009 24.6722 28.1619 24.6769 28.3167 24.5737L28.434 24.4986L28.4856 24.5737C28.556 24.6722 28.6967 24.6722 28.814 24.5737L28.9079 24.5033L29.0017 24.5737C29.1425 24.691 29.3301 24.6628 29.3864 24.5174C29.3958 24.4939 29.424 24.4986 29.4803 24.5502C29.5882 24.644 29.8556 24.6816 29.8837 24.6065C29.8931 24.5784 29.8744 24.5127 29.8368 24.4564C29.682 24.2218 29.6304 24.1139 29.6304 23.9872C29.6304 23.8089 29.6773 23.7198 29.8837 23.579C30.1277 23.4007 30.2028 23.1755 30.0151 23.1755C29.9025 23.1755 29.7852 23.0723 29.7101 22.9081C29.56 22.5703 29.5929 22.195 29.8181 21.5663C29.9907 21.1964 30.0773 20.7921 30.0714 20.3839C30.0714 20.0368 30.062 19.9805 29.987 19.7881C29.9282 19.6544 29.8559 19.527 29.7711 19.4081L29.6398 19.2345L29.804 19.0937C30.3107 18.6762 30.2075 17.9912 29.5976 17.7284C29.4099 17.644 29.363 17.6393 29.0345 17.6393C28.8469 17.6393 28.5419 17.6674 28.3777 17.7003C28.1573 17.7352 27.9346 17.754 27.7115 17.7566C27.3924 17.7566 27.3361 17.7472 27.2141 17.6815C27.0875 17.6158 27.064 17.583 27.0406 17.4235C27.0383 17.4084 27.0324 17.3942 27.0234 17.3819C27.0144 17.3696 27.0026 17.3598 26.9889 17.3531C26.942 17.339 26.745 17.5126 26.7168 17.5877C26.6981 17.6299 26.6887 17.6252 26.6464 17.5736C26.6067 17.5225 26.575 17.4655 26.5526 17.4047C26.5057 17.2499 26.5667 17.1373 26.7497 17.0481L26.8904 16.9824L26.806 16.9308C26.6371 16.8229 26.3462 16.898 26.243 17.0716C26.2101 17.1185 26.1773 17.1654 26.1679 17.1654C26.1585 17.1654 26.1022 17.1185 26.0459 17.0575C25.8254 16.8417 25.9005 16.5226 26.196 16.4288C26.3509 16.3772 26.4916 16.4147 26.5198 16.5226C26.5667 16.6775 26.6981 16.471 26.6746 16.2787C26.6605 16.152 26.6605 16.1473 26.7497 16.1473C26.8717 16.1473 27.125 16.3068 27.2095 16.4288C27.3033 16.5743 27.2939 16.8042 27.1907 16.9731L27.1109 17.1044L27.2188 17.0857C27.369 17.0528 27.5191 16.959 27.5942 16.8417C27.6337 16.767 27.656 16.6843 27.6592 16.5999C27.6625 16.5154 27.6466 16.4313 27.6129 16.3537C27.5426 16.2271 27.552 16.2083 27.6552 16.2505C27.8241 16.3209 27.9179 16.4007 27.9836 16.5367C28.0493 16.6587 28.054 16.6869 28.0211 16.8182C27.9987 16.8982 27.9638 16.9742 27.9179 17.0434C27.8616 17.1185 27.8569 17.1326 27.9038 17.1326C27.9883 17.1326 28.1572 17.0528 28.2182 16.9918C28.251 16.9543 28.2979 16.8745 28.3214 16.8042L28.3683 16.6869L28.4152 16.7807C28.4856 16.9074 28.6264 17.0247 28.7953 17.0997C28.9782 17.1748 29.0533 17.1795 28.9595 17.1091C28.8938 17.0622 28.7718 16.7103 28.814 16.6775C29.0165 16.7909 29.2014 16.9331 29.363 17.0997C29.6304 17.339 29.7993 17.4188 30.0433 17.4188C30.3576 17.4188 30.5406 17.1466 30.3998 16.8886C30.3201 16.7385 30.1371 16.715 30.0245 16.8417C29.9776 16.9027 29.9635 16.9496 29.9776 17.0153C29.9963 17.0903 29.9917 17.0997 29.9213 17.0997C29.8274 17.0997 29.6492 16.9824 29.3301 16.715C28.886 16.3328 28.3756 16.0354 27.8241 15.8377C27.4505 15.7513 27.0647 15.7307 26.684 15.7767C26.3837 15.833 26.0271 16.0066 25.8301 16.1895C25.4876 16.518 25.4829 16.9543 25.816 17.3531L25.9098 17.4657L25.8489 17.5689C25.803 17.6428 25.7802 17.7288 25.7836 17.8157C25.7869 17.9027 25.8162 17.9867 25.8676 18.0568C25.9145 18.1225 25.9615 18.1741 25.9755 18.1741C25.9849 18.1741 25.9943 18.1319 25.999 18.0803C26.0084 17.9536 26.0647 17.8692 26.1585 17.8363C26.243 17.8035 26.2993 17.8223 26.684 17.9771C27.0922 18.1366 27.7631 18.146 28.4762 18.0052C28.7853 17.9339 29.107 17.9371 29.4146 18.0146C29.7524 18.1554 29.8274 18.5166 29.5835 18.7888C29.4756 18.9107 29.377 18.9577 29.0345 19.0515C28.7364 19.1301 28.4264 19.154 28.1197 19.1219C27.6129 19.1172 27.43 19.1266 27.2282 19.1688C26.9983 19.2157 26.8623 19.2204 26.2054 19.2063L25.4407 19.1876L25.5251 19.2532C25.5703 19.2934 25.619 19.3295 25.6706 19.3611C25.7316 19.394 25.7269 19.3987 25.6424 19.4315C25.5955 19.4503 25.4829 19.4644 25.3938 19.4644H25.2389L25.2202 19.5957C25.2075 19.6577 25.2075 19.7215 25.2202 19.7834C25.2389 19.8303 25.2295 19.8397 25.1826 19.8209C25.1498 19.8069 25.0606 19.7834 24.9809 19.7693C24.9004 19.7521 24.8218 19.7269 24.7463 19.6943C24.6572 19.6473 24.6478 19.6473 24.6149 19.7083C24.5868 19.7553 24.324 19.9523 24.2865 19.9523C24.2695 19.8306 24.2348 19.712 24.1833 19.6004C24.1364 19.5019 24.0941 19.3893 24.0801 19.3565C24.066 19.3048 24.0566 19.3002 24.0332 19.3424C24.0191 19.3658 24.0003 19.4362 23.9862 19.4925C23.9698 19.5685 23.9413 19.6414 23.9018 19.7083L23.8314 19.8116L23.7845 19.7224C23.7376 19.6286 23.6625 19.5254 23.6344 19.5254C23.625 19.5254 23.6109 19.5535 23.6015 19.5957C23.5781 19.6708 23.3951 19.8913 23.3482 19.8913C23.3341 19.8913 23.32 19.8303 23.32 19.7506C23.32 19.6802 23.3059 19.6145 23.2872 19.6145C23.2684 19.6145 23.2543 19.638 23.2543 19.6614C23.2543 19.7177 23.0995 19.896 23.0432 19.896C23.0244 19.896 22.9869 19.9148 22.9634 19.9429C22.9071 20.0039 22.8602 19.9945 22.8837 19.9242C22.8903 19.8641 22.8839 19.8033 22.8649 19.7459L22.818 19.5957C22.8086 19.5723 22.7523 19.5817 22.6303 19.6192C22.4427 19.6802 22.377 19.6661 22.4755 19.591C22.513 19.5629 22.5693 19.4644 22.5975 19.3752C22.6303 19.2814 22.6772 19.2016 22.7007 19.1922C22.7335 19.1829 22.7335 19.1922 22.6913 19.2485C22.6642 19.2842 22.6464 19.3262 22.6397 19.3705C22.6397 19.394 22.6162 19.455 22.5928 19.5066C22.5646 19.5535 22.5459 19.6004 22.5506 19.6051C22.5553 19.6098 22.6303 19.5817 22.7148 19.5441L22.8649 19.4691V19.5347C22.8649 19.5723 22.8837 19.6661 22.9071 19.7459L22.9494 19.8866L23.0526 19.8397C23.1558 19.7928 23.2543 19.6239 23.2543 19.4878C23.2543 19.4221 23.2919 19.4315 23.3106 19.5019C23.3106 19.5207 23.3388 19.6004 23.3575 19.6755L23.4045 19.8069L23.4748 19.7224C23.5171 19.6755 23.564 19.5817 23.5827 19.5207C23.6203 19.4081 23.6766 19.3565 23.6766 19.4409C23.6766 19.4972 23.8361 19.713 23.8643 19.6943C23.883 19.6849 23.9112 19.6051 23.9346 19.516C23.9815 19.3283 24.0519 19.2063 24.0988 19.2345C24.1176 19.2439 24.1223 19.2626 24.1129 19.2814C24.1035 19.2908 24.1411 19.4128 24.1974 19.5441C24.2382 19.6426 24.2788 19.7411 24.3193 19.8397C24.3381 19.8866 24.3569 19.8866 24.4742 19.7787C24.5446 19.713 24.6149 19.6427 24.6196 19.6192C24.6337 19.5817 24.6478 19.5864 24.7135 19.6286C24.8518 19.7017 25.0033 19.7463 25.1592 19.7599C25.1686 19.7506 25.1779 19.6661 25.1779 19.5723L25.1826 19.3987L25.2765 19.4174C25.3234 19.4315 25.4313 19.4315 25.511 19.4174L25.6518 19.3987L25.5251 19.3048C25.4547 19.2579 25.3844 19.1969 25.3656 19.1688C25.3515 19.1406 25.2858 19.1125 25.2155 19.1078C25.0231 19.089 24.6806 18.9014 24.6806 18.8075C24.6806 18.7888 24.7275 18.8216 24.7838 18.8732C24.9152 18.9905 25.0935 19.0609 25.253 19.0609H25.3656L25.2952 18.967C25.2451 18.8943 25.2129 18.8107 25.2014 18.7231C25.192 18.5823 25.1779 18.5636 25.0325 18.465C24.9482 18.4053 24.8696 18.3377 24.7979 18.2633L24.7181 18.1741L24.6759 18.282C24.6525 18.343 24.629 18.39 24.6149 18.39C24.6055 18.39 24.5586 18.3524 24.5211 18.3102C24.4947 18.2796 24.4629 18.2542 24.4273 18.2351C24.4132 18.2351 24.3803 18.2914 24.3428 18.3618L24.2771 18.4885L24.2302 18.4181C24.1885 18.3606 24.1413 18.3072 24.0895 18.2586C24.0332 18.2117 24.0097 18.1741 24.0285 18.1741C24.0472 18.1741 24.1082 18.2211 24.1692 18.282L24.2724 18.39L24.3193 18.3102C24.3465 18.2549 24.3547 18.1923 24.3428 18.1319C24.324 18.0475 24.3287 18.0428 24.3569 18.0991C24.3973 18.152 24.4447 18.1994 24.4976 18.2398L24.6009 18.3243L24.6712 18.1976C24.7416 18.0662 24.7416 18.0662 24.7698 18.146C24.8167 18.2445 25.1216 18.4979 25.3797 18.6433C25.4266 18.6668 25.4078 18.5917 25.3328 18.4087C25.3102 18.3486 25.2975 18.2852 25.2952 18.2211C25.2952 18.1366 25.2718 18.0991 25.1639 18.0146C25.0968 17.9717 25.0406 17.9138 24.9999 17.8453C24.9592 17.7769 24.935 17.6999 24.9293 17.6205C24.9152 17.5408 24.887 17.4563 24.8636 17.4282C24.8354 17.3812 24.8261 17.4094 24.8354 17.5501C24.8448 17.6487 24.8307 17.7706 24.8073 17.8223L24.7698 17.9161L24.7416 17.8363C24.7228 17.7941 24.6478 17.719 24.5774 17.6721C24.507 17.6252 24.4554 17.5783 24.4648 17.5689C24.4742 17.5595 24.5492 17.6017 24.629 17.6627C24.7557 17.7613 24.7791 17.7706 24.7979 17.7284C24.8167 17.6815 24.7979 17.4657 24.7604 17.3156C24.7416 17.2405 24.7416 17.2405 24.8354 17.3343C24.9011 17.4 24.9387 17.4845 24.9715 17.6252C25.009 17.8035 25.0278 17.8363 25.192 17.9818C25.2905 18.0709 25.3797 18.1366 25.3844 18.1319C25.3938 18.1225 25.4031 17.8973 25.4125 17.6252C25.4313 17.1044 25.4125 16.9777 25.2858 16.8182L25.2202 16.7338L25.3234 16.6259C25.439 16.5153 25.5163 16.3706 25.5439 16.213L25.5627 16.0863L25.4501 16.1942C25.3562 16.2834 25.3093 16.3021 25.2014 16.3021C25.0935 16.3021 25.0513 16.2834 24.9809 16.2083C24.8713 16.1028 24.7376 16.0255 24.5915 15.9831C24.5352 15.9643 24.5164 15.9737 24.5164 16.0112C24.5164 16.0394 24.4883 16.1145 24.4507 16.1848L24.385 16.3068L24.2443 16.1661C24.1551 16.0863 24.0566 16.0159 23.9769 15.9972C23.7845 15.9503 23.7751 15.9503 23.7751 16.0957C23.7751 16.3162 23.6813 16.3584 23.5124 16.213C23.381 16.1004 23.2778 16.0722 23.0291 16.1051L22.8415 16.1239L22.8743 16.2083C22.9024 16.2787 22.8978 16.3115 22.8368 16.3913C22.7382 16.5226 22.6116 16.5789 22.4145 16.5789C22.3207 16.5789 22.2081 16.5977 22.1612 16.6212C22.1142 16.6446 21.9922 16.6681 21.8937 16.6775C21.7999 16.6869 21.692 16.7056 21.6591 16.715C21.6122 16.7338 21.6122 16.715 21.6263 16.6118C21.6498 16.4523 21.5325 16.3303 21.3589 16.3303C21.129 16.3303 21.0258 16.5367 21.1149 16.8088C21.1331 16.8676 21.1488 16.927 21.1618 16.9871C21.2234 17.1045 21.3061 17.2094 21.4058 17.2968C21.5278 17.4188 21.6404 17.5454 21.6591 17.5783C21.6969 17.6272 21.745 17.6673 21.7999 17.6956L21.9031 17.7519L21.889 17.6393C21.875 17.5173 21.8984 17.4985 21.9641 17.5877C21.9876 17.6158 22.0485 17.6674 22.0955 17.6956C22.1752 17.7425 22.1893 17.7425 22.1893 17.705C22.1893 17.6768 22.2034 17.6158 22.2221 17.5689L22.255 17.4845L22.316 17.6017C22.3488 17.6674 22.4567 17.8129 22.5553 17.9302C22.7476 18.1507 22.8696 18.3993 22.8086 18.4556C22.7805 18.4791 22.7148 18.4791 22.574 18.451C22.4708 18.4322 22.3394 18.4181 22.2831 18.4275C22.1752 18.4416 22.1658 18.4275 22.2362 18.343C22.3066 18.2492 22.2925 18.2351 22.1518 18.2351C21.9876 18.2351 21.5794 18.1554 21.4199 18.0944C21.2697 18.0334 21.2322 18.0475 21.1853 18.1929L21.1055 18.4556L21.0586 18.5964L21.2275 18.5823C21.3146 18.5732 21.4008 18.5575 21.4855 18.5354C21.5188 18.5243 21.5538 18.5196 21.5888 18.5213C21.5981 18.526 21.5747 18.5823 21.5418 18.648L21.4762 18.7606L21.5794 18.7418C21.6357 18.7278 21.7201 18.6996 21.767 18.6762C21.8515 18.6386 21.8609 18.6386 21.9266 18.7465C22.0063 18.8732 22.0673 18.8685 22.0814 18.7325C22.0955 18.5917 22.1424 18.6105 22.2315 18.7981C22.316 18.9764 22.4004 19.0421 22.4192 18.9389C22.4239 18.9014 22.4661 18.8451 22.5177 18.8075C22.6209 18.7371 22.696 18.7606 22.7382 18.8685C22.7852 18.9858 22.6819 19.1031 22.391 19.2814C22.1217 19.4301 21.8899 19.6385 21.7134 19.8906C21.5369 20.1427 21.4205 20.4318 21.3729 20.7358C21.2838 21.2895 21.5606 21.8618 22.1048 22.2794C22.3676 22.4765 22.7852 22.6829 22.757 22.6078C22.6444 22.2653 22.6491 21.6226 22.7617 21.5147C22.7805 21.4959 22.7758 21.5616 22.7476 21.6601C22.6538 22.0307 22.7007 22.3216 22.9353 23.0066C23.1417 23.6259 23.1136 23.8934 22.8133 24.067C22.7195 24.1233 22.6585 24.1326 22.4004 24.1279C22.1189 24.1279 22.0861 24.1279 21.9969 24.203C21.8891 24.3131 21.8186 24.4542 21.7952 24.6065C21.7952 24.6675 21.8609 24.6581 21.9829 24.5877H21.9876Z" fill="#FFB700"/>
<path d="M26.5395 24.5738L26.6568 24.4988L26.7365 24.5738C26.8398 24.6724 26.9664 24.6677 27.065 24.5692C27.1119 24.5222 27.1494 24.4941 27.1541 24.4988L27.1963 24.5738C27.2198 24.6161 27.2714 24.6348 27.3652 24.6442C27.4731 24.6489 27.506 24.6442 27.5529 24.5785L27.5998 24.4988L27.7171 24.5738C28.0362 24.7803 28.2051 24.5645 28.0596 24.1375C27.9892 23.9217 28.0315 23.7997 28.2614 23.5276C28.3599 23.4103 28.4396 23.2836 28.4396 23.2461C28.4396 23.1945 28.4209 23.1851 28.2895 23.1898C28.1675 23.1898 28.13 23.1757 28.0643 23.1053C27.9564 22.988 27.9658 22.852 28.0831 22.7018L28.1769 22.5846L28.008 22.472C27.8732 22.3724 27.7476 22.2609 27.6327 22.1388C27.5303 22.018 27.405 21.9185 27.2642 21.846C27.1233 21.7736 26.9695 21.7296 26.8116 21.7166L26.5911 21.6931V21.862C26.5911 22.0732 26.6943 22.2796 26.9664 22.6268C27.2761 23.0209 27.2949 23.0819 27.3089 23.598L27.323 24.0343L27.2292 24.1188C27.1494 24.1938 27.1166 24.2079 26.8538 24.222C26.6052 24.236 26.5489 24.2501 26.4785 24.3158C26.3961 24.3759 26.3392 24.4646 26.319 24.5645C26.3049 24.6348 26.3096 24.6489 26.3612 24.6489C26.394 24.6489 26.4738 24.6161 26.5395 24.5738ZM19.8678 23.4478C19.8962 23.4062 19.9125 23.3574 19.9148 23.3071C19.9148 23.2602 19.9429 23.2414 20.0649 23.2226L20.2103 23.2039L20.1165 23.1241C19.9992 23.0303 19.9851 22.9599 20.0884 22.9599C20.1916 22.9599 20.3605 22.8567 20.3886 22.7769C20.4027 22.7394 20.3886 22.6925 20.3699 22.669C20.3136 22.6033 20.2056 22.6127 20.1869 22.6878C20.1634 22.7628 20.1306 22.7628 20.0461 22.6878C19.9288 22.5705 19.9241 22.3312 20.0461 22.1904C20.0977 22.1248 20.0977 22.1248 20.0274 22.0544C19.9523 21.9793 19.896 21.8386 19.9335 21.801C19.9429 21.7917 20.0039 21.801 20.0649 21.8245C20.1587 21.8526 20.1916 21.8526 20.2291 21.8245C20.337 21.7353 20.2197 21.6227 20.0414 21.6509C19.9664 21.6603 19.9382 21.6509 19.9288 21.6134C19.9195 21.5852 19.8585 21.5477 19.7881 21.5289C19.6614 21.4961 19.6614 21.4961 19.6614 21.5852C19.6614 21.679 19.6051 21.6978 19.5019 21.6368C19.4174 21.5899 19.3377 21.6274 19.3377 21.7166C19.3377 21.801 19.4174 21.8386 19.5723 21.8292C19.6849 21.8245 19.6896 21.9089 19.5816 22.0309L19.5019 22.1248L19.5629 22.2139C19.6567 22.3453 19.6473 22.5658 19.5488 22.6784L19.469 22.7628L19.4174 22.6925C19.3424 22.5986 19.2438 22.6033 19.2157 22.7065C19.2016 22.7722 19.2157 22.8004 19.3001 22.8754C19.3564 22.9224 19.4409 22.9599 19.4831 22.9599C19.591 22.9599 19.5863 23.049 19.4737 23.1335L19.3799 23.2039L19.5207 23.2226C19.5957 23.2367 19.6614 23.2555 19.6614 23.2695C19.6614 23.3305 19.7552 23.5135 19.7834 23.5135C19.8022 23.5135 19.8397 23.4807 19.8678 23.4431V23.4478Z" fill="#FFB700"/>
<path d="M21.6597 22.6689C21.7864 22.622 22.0585 22.3874 22.0585 22.3358C22.0585 22.3171 21.9834 22.2326 21.8896 22.1482C21.7019 21.9793 21.4908 21.6837 21.4345 21.5148C21.4064 21.4209 21.2703 21.2708 20.8856 20.8955L20.3742 20.4028L20.2287 20.4404C20.1443 20.4591 20.0457 20.4779 20.0082 20.4779C19.9378 20.4779 19.9378 20.4779 20.0317 20.553L20.1255 20.628L20.2663 20.553C20.3929 20.4779 20.3976 20.4779 20.4117 20.5389C20.4211 20.5717 20.4023 20.6327 20.3648 20.675C20.3319 20.7172 20.3132 20.7688 20.3179 20.7829C20.3319 20.7969 20.2991 20.8298 20.2475 20.8579C20.1537 20.9048 20.0833 21.0597 20.1584 21.0597C20.2287 21.0597 20.3789 20.872 20.3601 20.811C20.3507 20.7782 20.3601 20.7453 20.3695 20.7359C20.4305 20.7031 20.4258 20.8485 20.3695 20.9236C20.3319 20.9611 20.3132 21.0081 20.3226 21.0268C20.3319 21.0409 20.2991 21.0737 20.2475 21.1019C20.1537 21.1488 20.0833 21.3036 20.1584 21.3036C20.2334 21.3036 20.3789 21.1254 20.3648 21.0597C20.3554 21.0268 20.3554 20.9893 20.3695 20.9799C20.4117 20.9611 20.4305 21.0737 20.3976 21.1301C20.389 21.1459 20.3845 21.1636 20.3845 21.1817C20.3845 21.1997 20.389 21.2174 20.3976 21.2333C20.4305 21.2943 20.3976 21.4069 20.3366 21.4444C20.3132 21.4585 20.3273 21.4913 20.3929 21.5382C20.4868 21.6039 20.4868 21.6133 20.4868 21.9136C20.4868 22.1669 20.4962 22.2326 20.5431 22.2748C20.59 22.3218 20.5994 22.3218 20.5994 22.2748C20.5994 22.2279 20.6932 22.1622 20.7636 22.1622C20.787 22.1622 20.9231 22.2795 21.0685 22.4203C21.214 22.561 21.3688 22.6877 21.411 22.6924L21.5143 22.7112C21.5283 22.7112 21.594 22.6971 21.6597 22.6642V22.6689ZM20.0974 21.4444C20.0974 21.3646 19.9285 21.2755 19.7267 21.2567C19.5625 21.2333 19.5625 21.238 19.5625 21.3177C19.5625 21.3834 19.586 21.4116 19.7033 21.4585C19.8815 21.5382 20.0974 21.5288 20.0974 21.4444Z" fill="#FFB700"/>
<path d="M20.2799 21.4352C20.3643 21.3601 20.4019 21.2756 20.3503 21.2756C20.294 21.2756 20.1438 21.407 20.1438 21.4633C20.1438 21.5384 20.172 21.5337 20.2846 21.4352H20.2799ZM20.1063 21.1959C20.111 21.149 20.0828 21.1208 19.9984 21.0786C19.8107 20.9988 19.5949 20.9566 19.5433 20.9988C19.4448 21.0786 19.5104 21.1818 19.6653 21.2006C19.7309 21.2053 19.8154 21.224 19.8576 21.2428C19.9796 21.2897 20.0922 21.2663 20.1063 21.1959ZM20.1063 20.9472C20.1157 20.8862 20.0734 20.8628 19.7309 20.7408C19.4729 20.647 19.3603 20.6939 19.4448 20.8487C19.4729 20.9003 19.5198 20.9238 19.6277 20.9425C19.7075 20.9519 19.8154 20.9754 19.867 20.9941C20.0078 21.0411 20.0922 21.0223 20.1016 20.9472H20.1063ZM20.2752 20.7173C20.3268 20.6657 20.369 20.6047 20.369 20.5766C20.369 20.5062 20.1673 20.6376 20.1391 20.7314C20.111 20.8393 20.1626 20.8346 20.2799 20.7173H20.2752ZM20.1063 20.7033C20.1157 20.6282 19.9937 20.5625 19.7497 20.5109C19.5667 20.4687 19.487 20.4921 19.5011 20.5766C19.5104 20.6235 19.5714 20.6563 19.7356 20.7079C20.0125 20.7924 20.0922 20.7924 20.1063 20.7033ZM20.3409 20.3561C20.6599 20.2153 20.6834 19.8634 20.3878 19.7696C20.2658 19.7321 20.1907 19.7555 20.1438 19.8353C20.1063 19.901 20.1297 20.0136 20.1767 20.0136C20.1954 20.0136 20.2095 20.037 20.2095 20.0605C20.2095 20.1872 19.7309 20.2388 19.5339 20.1402C19.4635 20.1074 19.4401 20.0136 19.4917 20.0136C19.5386 20.0136 19.5667 19.9197 19.5433 19.8587C19.5151 19.7649 19.4213 19.7368 19.2946 19.7743C18.999 19.8494 19.0084 20.1965 19.3087 20.3373C19.6409 20.4592 20.0045 20.4658 20.3409 20.3561Z" fill="#FFB700"/>
<path d="M20.1502 20.0836C20.169 20.0649 20.1596 20.0367 20.1314 20.018C20.0657 19.9663 20.0704 19.8866 20.1408 19.7974C20.1971 19.7318 20.2018 19.6285 20.2206 18.6198C20.2534 16.8792 20.3848 15.5702 20.5537 15.2512C20.6241 15.1292 20.6147 15.1292 20.4364 15.2512C20.2025 15.4141 20.0137 15.6336 19.8875 15.8892C19.5966 16.4288 19.498 17.156 19.498 18.7137C19.498 19.5957 19.5027 19.713 19.5543 19.7928C19.6013 19.8772 19.6013 19.9054 19.5731 19.9898C19.5497 20.0414 19.5403 20.0977 19.5497 20.1071C19.6153 20.1681 20.0845 20.154 20.1502 20.0836ZM22.7823 18.4228C22.7963 18.4087 22.7729 18.3289 22.7353 18.2539C22.679 18.1319 22.6556 18.1131 22.5758 18.1131C22.2007 18.0805 21.8348 17.9787 21.4967 17.8128C21.2574 17.7049 21.1683 17.6815 21.1448 17.7096C21.0698 17.78 21.1918 17.9442 21.3794 18.0334C21.6556 18.1329 21.9449 18.1914 22.238 18.2069C22.3647 18.2069 22.3694 18.2069 22.2943 18.3149L22.2474 18.3899H22.3882L22.6227 18.4181C22.7635 18.4509 22.7635 18.4509 22.7823 18.4228Z" fill="#FFB700"/>
<path d="M24.2632 19.2065C24.2632 19.1596 24.1271 19.0423 23.9958 18.9625C23.8879 18.9015 23.8691 18.8968 23.8691 18.9484C23.8691 19.0235 23.8034 19.2159 23.7753 19.2159C23.7612 19.2159 23.7377 19.1783 23.7283 19.1361C23.7143 19.0892 23.6627 18.9954 23.611 18.9344L23.5172 18.8171L23.4515 18.925C23.3858 19.0282 23.2686 19.1267 23.2169 19.1267C23.2076 19.1267 23.2029 19.0704 23.2169 19.0094C23.2216 18.9344 23.2169 18.8781 23.1935 18.8687C23.1747 18.8546 23.1559 18.8593 23.1559 18.8781C23.1559 18.9156 22.9964 19.0939 22.9683 19.0939C22.9495 19.0939 22.9307 19.047 22.9214 18.9813L22.8838 18.7561C22.8744 18.6998 22.8979 18.7373 22.9307 18.8499L23.0058 19.0423L23.0809 18.925C23.1149 18.8765 23.1403 18.8225 23.1559 18.7655C23.1559 18.742 23.17 18.7326 23.1888 18.742C23.2076 18.7514 23.231 18.8311 23.2404 18.9156L23.2639 19.0751L23.3483 18.9813C23.3925 18.9342 23.4333 18.884 23.4703 18.8311C23.5031 18.7748 23.5078 18.7748 23.5782 18.8311C23.6157 18.8687 23.6767 18.9484 23.7143 19.0141C23.7518 19.0798 23.7846 19.1267 23.7893 19.122L23.8175 18.9719L23.8362 18.8311C23.8409 18.8077 24.0896 18.9719 24.1834 19.0517C24.2397 19.1033 24.296 19.1408 24.3054 19.1314C24.3148 19.122 24.3242 19.047 24.3242 18.9578C24.3242 18.8265 24.3101 18.7889 24.2304 18.7185C24.1365 18.6341 24.1365 18.6341 24.099 18.6951C24.0521 18.7748 24.0005 18.7748 24.0005 18.6951C24.0005 18.6388 23.8222 18.4183 23.7799 18.4183C23.7659 18.4183 23.7283 18.4652 23.6955 18.5262C23.6627 18.5872 23.6251 18.6341 23.6157 18.6341C23.5688 18.6341 23.3202 18.3526 23.3202 18.3057C23.3202 18.2681 23.3389 18.2775 23.3812 18.3432C23.4231 18.4048 23.4719 18.4615 23.5266 18.5121C23.6204 18.5966 23.658 18.5778 23.6955 18.4136C23.7096 18.3667 23.7283 18.3291 23.7424 18.3291C23.7799 18.3291 23.9958 18.559 24.0239 18.6341L24.0568 18.7092L24.0802 18.6247C24.1084 18.5215 24.1412 18.5215 24.1881 18.6153C24.2069 18.6529 24.3007 18.7373 24.3946 18.7936L24.5682 18.9062L24.601 18.7936C24.6198 18.7326 24.6479 18.6998 24.6573 18.7185C24.6761 18.742 24.6292 18.9297 24.5963 18.9672C24.5963 18.9719 24.5353 18.9391 24.4743 18.8968L24.357 18.8124V18.9625C24.357 19.0423 24.3476 19.1408 24.3383 19.1783C24.3148 19.2534 24.2585 19.2722 24.2585 19.2065H24.2632ZM23.3952 18.0148C23.1888 17.8459 23.1606 17.8083 23.1606 17.7239L23.1653 17.6394L23.1794 17.7192C23.1888 17.7661 23.2451 17.8412 23.3108 17.8975L23.4328 17.9913L23.5031 17.9069C23.5454 17.86 23.5782 17.8037 23.5782 17.7849C23.5782 17.7286 23.5876 17.7333 23.7283 17.8553C23.8503 17.9632 23.855 17.9632 23.8691 17.8928C23.8832 17.8553 23.8785 17.7802 23.8691 17.7286C23.8222 17.5878 23.8316 17.5691 23.8926 17.6535L24.0052 17.7849C24.0521 17.8365 24.0568 17.8365 24.0755 17.7708C24.0896 17.7286 24.099 17.6582 24.099 17.6113V17.5222L24.2069 17.6488C24.3148 17.7708 24.3242 17.7755 24.3523 17.7145C24.3758 17.6817 24.3899 17.6019 24.3899 17.5409C24.3899 17.4565 24.3993 17.4377 24.418 17.4659C24.4556 17.5222 24.4321 17.6629 24.3664 17.7849L24.3195 17.8787L24.2585 17.7802C24.1787 17.6582 24.1506 17.6582 24.1037 17.7896C24.0568 17.9163 24.0239 17.9256 23.977 17.8271C23.9489 17.7661 23.9395 17.7755 23.9207 17.9069L23.8972 18.0476L23.7565 17.9397L23.6157 17.8318L23.5454 17.9022C23.5125 17.9444 23.4844 17.996 23.4844 18.0148C23.4844 18.0617 23.4468 18.0617 23.3952 18.0148ZM25.225 17.3767C25.1546 17.311 25.103 17.2453 25.1124 17.236C25.1265 17.2219 25.1359 17.2172 25.1406 17.2266C25.186 17.275 25.2329 17.3219 25.2813 17.3673C25.4408 17.5362 25.408 17.5409 25.2297 17.3767H25.225ZM22.7853 17.1234C22.7196 17.0295 22.7243 16.9732 22.8088 16.87C22.8651 16.7996 22.8932 16.7902 22.9964 16.8043C23.0668 16.809 23.2122 16.87 23.3202 16.9357C23.4761 17.0289 23.6546 17.0775 23.8362 17.0764L23.7565 16.9451C23.6533 16.7902 23.6533 16.7715 23.7753 16.8653C23.8972 16.9638 24.0427 16.992 24.3711 16.9826L24.5306 16.9779L24.4368 16.8841C24.3101 16.7574 24.3476 16.7433 24.4931 16.87C24.6245 16.9873 24.6198 16.9967 24.3336 17.0248C24.2142 17.0369 24.0937 17.029 23.977 17.0014C23.8175 16.9545 23.8081 16.9591 23.8409 17.0108C23.8597 17.0436 23.8879 17.0671 23.9019 17.0671C23.9207 17.0671 23.9348 17.0858 23.9348 17.1046C23.9348 17.1656 23.5876 17.1093 23.4187 17.0295C23.0433 16.8372 22.9964 16.8184 22.9026 16.8465C22.8776 16.8562 22.8548 16.8706 22.8354 16.8892C22.8161 16.9077 22.8007 16.9299 22.79 16.9545C22.729 17.1093 22.9495 17.2313 23.0387 17.0952C23.0668 17.053 23.0621 17.0295 23.0152 16.9779C22.9495 16.9122 22.9589 16.9028 23.0433 16.931C23.1043 16.9545 23.109 17.0999 23.0527 17.1562C22.9917 17.2172 22.8416 17.2031 22.7853 17.1234Z" fill="black"/>
<path d="M24.2816 16.7432C24.2347 16.6963 24.2723 16.6869 24.4834 16.6822C24.7461 16.6775 24.9056 16.6353 25.0933 16.5133C25.2434 16.4195 25.2857 16.4383 25.1402 16.5368C25.0135 16.6306 24.8118 16.6963 24.6101 16.7151L24.3708 16.7479C24.3332 16.7573 24.291 16.7526 24.2769 16.7432H24.2816Z" fill="black"/>
</svg>
