<svg width="40" height="40" viewBox="0 0 40 40" fill="none" xmlns="http://www.w3.org/2000/svg">
<g clip-path="url(#clip0_1_5944)">
<path d="M-10 0H50V40H-10V0Z" fill="#006600"/>
<path d="M-10 0H50V28.5714H-10V0Z" fill="white"/>
<path d="M-10 0H50V11.4286H-10V0Z" fill="#CC0000"/>
<path d="M18.4002 19.4493C18.4782 19.3152 18.5977 19.2101 18.7408 19.1499C18.8838 19.0898 19.0426 19.0779 19.193 19.1159C19.3434 19.154 19.4773 19.2401 19.5745 19.3611C19.6717 19.482 19.7268 19.6314 19.7316 19.7865V22.6436H20.2687V19.7865C20.2735 19.6314 20.3286 19.482 20.4258 19.3611C20.523 19.2401 20.6569 19.154 20.8074 19.1159C20.9578 19.0779 21.1165 19.0898 21.2596 19.1499C21.4026 19.2101 21.5222 19.3152 21.6002 19.4493C21.6842 19.196 21.7069 18.9263 21.6663 18.6625C21.6258 18.3988 21.5232 18.1484 21.367 17.932C21.2107 17.7156 21.0054 17.5393 20.7678 17.4178C20.5301 17.2963 20.2671 17.2329 20.0002 17.2329C19.7333 17.2329 19.4702 17.2963 19.2326 17.4178C18.995 17.5393 18.7896 17.7156 18.6334 17.932C18.4772 18.1484 18.3746 18.3988 18.334 18.6625C18.2935 18.9263 18.3161 19.196 18.4002 19.4493Z" fill="#F8C300"/>
<path d="M18.7832 18.704C19.0177 18.656 19.2613 18.6829 19.4796 18.7808C19.698 18.8787 19.8801 19.0427 20.0003 19.2497C20.1205 19.0427 20.3027 18.8787 20.521 18.7808C20.7394 18.6829 20.983 18.656 21.2175 18.704C21.1771 18.4098 21.0316 18.1403 20.8078 17.9452C20.5841 17.7501 20.2972 17.6426 20.0003 17.6426C19.7035 17.6426 19.4166 17.7501 19.1929 17.9452C18.9691 18.1403 18.8236 18.4098 18.7832 18.704Z" fill="white"/>
<path d="M19.7316 21.5024C19.6952 21.9078 19.5456 22.2948 19.2998 22.6193C19.0541 22.9437 18.7221 23.1926 18.3417 23.3374C17.9613 23.4823 17.5479 23.5173 17.1486 23.4386C16.7493 23.3598 16.3801 23.1704 16.0833 22.8919C15.9564 23.2103 15.7587 23.4957 15.5052 23.7263C15.2516 23.957 14.9489 24.1268 14.6199 24.223C14.2909 24.3192 13.9444 24.3392 13.6065 24.2815C13.2686 24.2238 12.9483 24.09 12.6699 23.89C12.8785 25.9715 15.9986 25.5466 16.2311 23.5227C17.2113 25.2435 19.3667 24.7507 19.9973 22.6427L19.7316 21.5024Z" fill="#F8C300"/>
<path d="M20.2684 21.5024C20.3048 21.9078 20.4544 22.2948 20.7002 22.6193C20.9459 22.9437 21.2779 23.1926 21.6583 23.3374C22.0387 23.4823 22.4521 23.5173 22.8514 23.4386C23.2507 23.3598 23.6199 23.1704 23.9167 22.8919C24.0436 23.2103 24.2413 23.4957 24.4948 23.7263C24.7484 23.957 25.0511 24.1268 25.3801 24.223C25.7091 24.3192 26.0556 24.3392 26.3935 24.2815C26.7314 24.2238 27.0517 24.09 27.3301 23.89C27.1215 25.9715 24.0014 25.5466 23.7689 23.5227C22.7887 25.2435 20.6333 24.7507 20.0027 22.6427L20.2684 21.5024Z" fill="#F8C300"/>
<path d="M17.6466 25.199C17.2113 26.1387 16.3412 26.3002 15.5801 25.5416C15.5801 25.5416 15.886 25.3254 16.2136 25.2658C16.1521 25.0044 16.2781 24.6428 16.4556 24.4473C16.6417 24.5745 16.9015 24.8295 16.9676 25.1258C17.4264 25.0664 17.6466 25.199 17.6466 25.199Z" fill="#F8C300"/>
<path d="M21.0533 25.0923C20.4708 25.9486 19.586 25.9662 18.9586 25.0938C18.9586 25.0938 19.2956 24.9304 19.6285 24.9249C19.6105 24.657 19.7936 24.3207 20.0005 24.1567C20.1635 24.3125 20.3783 24.6064 20.3952 24.9095C20.8576 24.9256 21.0533 25.0923 21.0533 25.0923Z" fill="#F8C300"/>
<path d="M24.4305 25.5418C23.7164 26.2919 22.8405 26.1653 22.3635 25.2023C22.3635 25.2023 22.7227 25.0959 23.052 25.1447C23.0778 24.8775 23.3133 24.5755 23.5442 24.4474C23.6796 24.6276 23.8437 24.9526 23.811 25.2544C24.2646 25.3455 24.4305 25.5418 24.4305 25.5418Z" fill="#F8C300"/>
<path d="M14.457 27.2952C18.0739 26.2186 21.9259 26.2186 25.5427 27.2952" stroke="#F8C300" stroke-width="0.914286"/>
<path d="M18.6426 13.2537H21.3599L19.1615 14.8509L20.0012 12.2666L20.8409 14.8509L18.6426 13.2537Z" fill="#F8C300"/>
<path d="M14.6427 14.3257H17.36L15.1617 15.9228L16.0014 13.3385L16.841 15.9228L14.6427 14.3257Z" fill="#F8C300"/>
<path d="M11.7148 17.2539H14.4321L12.2338 18.8511L13.0735 16.2668L13.9132 18.8511L11.7148 17.2539Z" fill="#F8C300"/>
<path d="M10.6426 21.2539H13.3599L11.1615 22.8511L12.0012 20.2668L12.8409 22.8511L10.6426 21.2539Z" fill="#F8C300"/>
<path d="M25.3573 14.3255H22.64L24.8383 15.9227L23.9986 13.3384L23.159 15.9227L25.3573 14.3255Z" fill="#F8C300"/>
<path d="M28.2852 17.2537H25.5679L27.7662 18.8509L26.9265 16.2666L26.0868 18.8509L28.2852 17.2537Z" fill="#F8C300"/>
<path d="M29.3574 21.2538H26.6401L28.8385 22.8509L27.9988 20.2666L27.1591 22.8509L29.3574 21.2538Z" fill="#F8C300"/>
</g>
<defs>
<clipPath id="clip0_1_5944">
<rect width="40" height="40" rx="20" fill="white"/>
</clipPath>
</defs>
</svg>
