<svg width="40" height="40" viewBox="0 0 40 40" fill="none" xmlns="http://www.w3.org/2000/svg">
<g clip-path="url(#clip0_1_16260)">
<path d="M-10 0H50V40H-10V0Z" fill="#E70013"/>
<path d="M20 30C25.5228 30 30 25.5228 30 20C30 14.4772 25.5228 10 20 10C14.4772 10 10 14.4772 10 20C10 25.5228 14.4772 30 20 30Z" fill="white"/>
<path d="M20 27.5C24.1421 27.5 27.5 24.1421 27.5 20C27.5 15.8579 24.1421 12.5 20 12.5C15.8579 12.5 12.5 15.8579 12.5 20C12.5 24.1421 15.8579 27.5 20 27.5Z" fill="#E70013"/>
<path d="M22 26C25.3137 26 28 23.3137 28 20C28 16.6863 25.3137 14 22 14C18.6863 14 16 16.6863 16 20C16 23.3137 18.6863 26 22 26Z" fill="white"/>
<path d="M17.5 20L25.6405 17.355L20.61 24.28V15.72L25.64 22.645L17.5 20Z" fill="#E70013"/>
</g>
<defs>
<clipPath id="clip0_1_16260">
<rect width="40" height="40" rx="20" fill="white"/>
</clipPath>
</defs>
</svg>
