<svg width="40" height="40" viewBox="0 0 40 40" fill="none" xmlns="http://www.w3.org/2000/svg">
<g clip-path="url(#clip0_1_5975)">
<path d="M58 0H-2V40H58V0Z" fill="#00843D"/>
<path d="M27.7879 4.43607C29.5612 5.19743 30.8036 6.95947 30.8036 9.01125C30.8036 11.7595 28.5749 13.9883 25.8267 13.9883C24.5963 13.9883 23.4703 13.5413 22.6016 12.8013C23.139 13.0317 23.7262 13.171 24.3449 13.198C27.0906 13.3179 29.4144 11.1885 29.5342 8.44286C29.6038 6.84878 28.9151 5.39701 27.7879 4.43607Z" fill="white"/>
<path d="M23.0413 8.09474L23.6052 6.35922L22.1289 7.43182H23.9537L22.4774 6.35922L23.0413 8.09474Z" fill="white"/>
<path d="M23.0413 5.53468L23.6052 3.79916L22.1289 4.87176H23.9537L22.4774 3.79916L23.0413 5.53468Z" fill="white"/>
<path d="M25.5706 6.8467L26.1345 5.11118L24.6582 6.18378H26.483L25.0067 5.11118L25.5706 6.8467Z" fill="white"/>
<path d="M20.512 9.34273L21.0759 7.60721L19.5996 8.67981H21.4244L19.9481 7.60721L20.512 9.34273Z" fill="white"/>
<path d="M23.0413 10.6543L23.6052 8.91879L22.1289 9.99139H23.9537L22.4774 8.91879L23.0413 10.6543Z" fill="white"/>
<path d="M15.9992 0H5.19922V40H15.9992V0Z" fill="#D22630"/>
<path d="M5.19922 -2.6416V-2.24965L5.80656 -1.68115L5.60175 -1.49047L6.03608 -1.08793L5.8454 -0.914906V-1.16561H5.47463V-0.865471L6.3115 -0.0815711H6.73523L6.78114 -0.356995H6.53749L6.80231 -0.60417L7.46615 -0.000356913L6.80231 0.606987L6.53749 0.359812H6.78114L6.73523 0.0808578H6.3115L5.47463 0.864764V1.16491H5.8454V0.9142L6.03608 1.08722L5.60175 1.48976L5.80656 1.68397L5.19922 2.24894V2.64089L6.22675 1.68397L6.02195 1.48976L6.45274 1.08722L6.08197 0.741177L6.32916 0.515188L6.80231 0.953042L7.84046 -0.000344992L6.80231 -0.953732L6.32916 -0.512348L6.08197 -0.741868L6.45274 -1.08791L6.02195 -1.49046L6.22675 -1.68113L5.19922 -2.6416ZM5.19922 -0.738348V0.737638L5.43933 0.493994V0.207982H5.69357L5.89836 -0.000351667L5.69357 -0.205154H5.43933V-0.494702L5.19922 -0.738348ZM6.95063 -0.21575L6.91531 -0.0144784L6.95063 0.190324L7.16955 -0.0144784L6.95063 -0.21575Z" fill="#383739"/>
<path d="M5.19932 -2.59921V-2.28847L5.84903 -1.68113L5.64422 -1.49045L6.07855 -1.08791L5.81725 -0.844265V-1.13734H5.50298V-0.876045L6.32572 -0.109805H6.70708L6.74592 -0.328732H6.46343L6.80241 -0.646529L7.50863 -0.000341892L6.80241 0.645845L6.46343 0.331579H6.74592L6.70698 0.109122H6.32563L5.50288 0.875362V1.13666H5.81715V0.843582L6.07845 1.08723L5.64412 1.48977L5.84894 1.68397L5.19922 2.28779V2.59853L6.18438 1.68397L5.97958 1.48977L6.41037 1.08723L6.0396 0.741181L6.32916 0.47282L6.80231 0.914204L7.79455 -0.000342607L6.80231 -0.914889L6.32916 -0.473505L6.0396 -0.741867L6.41037 -1.08791L5.97958 -1.49045L6.18438 -1.68113L5.19922 -2.59921L5.19932 -2.59921ZM5.19932 -0.695956V0.695284L5.41118 0.483419V0.176221H5.68307L5.85962 -0.000333309L5.68307 -0.176887H5.41118V-0.484091L5.19932 -0.695956ZM6.9719 -0.159233L6.94719 -0.0144587L6.9719 0.130316L7.12727 -0.0144587L6.9719 -0.159233Z" fill="#FFC72C"/>
<path d="M5.19922 4.63916V5.03111L5.80656 5.59961L5.60175 5.79029L6.03608 6.19283L5.8454 6.36586V6.11515H5.47463V6.41529L6.3115 7.19919H6.73523L6.78114 6.92377H6.53749L6.80231 6.67659L7.46615 7.2804L6.80231 7.88775L6.53749 7.64057H6.78114L6.73523 7.36162H6.3115L5.47463 8.14553V8.44567H5.8454V8.19496L6.03608 8.36798L5.60175 8.77053L5.80656 8.96473L5.19922 9.5297V9.92166L6.22675 8.96473L6.02195 8.77053L6.45274 8.36798L6.08197 8.02194L6.32916 7.79595L6.80231 8.2338L7.84046 7.28042L6.80231 6.32703L6.32916 6.76841L6.08197 6.53889L6.45274 6.19285L6.02195 5.79031L6.22675 5.59963L5.19922 4.63916ZM5.19922 6.54241V8.0184L5.43933 7.77476V7.48874H5.69357L5.89836 7.28041L5.69357 7.07561H5.43933V6.78606L5.19922 6.54241ZM6.95063 7.06501L6.91531 7.26628L6.95063 7.47109L7.16955 7.26628L6.95063 7.06501Z" fill="#383739"/>
<path d="M5.19932 4.68155V4.99229L5.84903 5.59963L5.64422 5.79031L6.07855 6.19285L5.81725 6.4365V6.14342H5.50298V6.40472L6.32572 7.17096H6.70708L6.74592 6.95203H6.46343L6.80241 6.63423L7.50863 7.28042L6.80241 7.92661L6.46343 7.61234H6.74592L6.70698 7.38988H6.32563L5.50288 8.15612V8.41742H5.81715V8.12434L6.07845 8.36799L5.64412 8.77053L5.84894 8.96473L5.19922 9.56855V9.87929L6.18438 8.96473L5.97958 8.77053L6.41037 8.36799L6.0396 8.02194L6.32916 7.75358L6.80231 8.19497L7.79455 7.28042L6.80231 6.36587L6.32916 6.80726L6.0396 6.5389L6.41037 6.19285L5.97958 5.79031L6.18438 5.59963L5.19922 4.68155L5.19932 4.68155ZM5.19932 6.58481V7.97605L5.41118 7.76418V7.45698H5.68307L5.85962 7.28043L5.68307 7.10387H5.41118V6.79667L5.19932 6.58481ZM6.9719 7.12153L6.94719 7.2663L6.9719 7.41108L7.12727 7.2663L6.9719 7.12153Z" fill="#FFC72C"/>
<path d="M5.19922 12.1592V12.5511L5.80656 13.1196L5.60175 13.3103L6.03608 13.7129L5.8454 13.8859V13.6352H5.47463V13.9353L6.3115 14.7192H6.73523L6.78114 14.4438H6.53749L6.80231 14.1966L7.46615 14.8004L6.80231 15.4078L6.53749 15.1606H6.78114L6.73523 14.8816H6.3115L5.47463 15.6655V15.9657H5.8454V15.715L6.03608 15.888L5.60175 16.2905L5.80656 16.4847L5.19922 17.0497V17.4417L6.22675 16.4847L6.02195 16.2905L6.45274 15.888L6.08197 15.542L6.32916 15.316L6.80231 15.7538L7.84046 14.8004L6.80231 13.847L6.32916 14.2884L6.08197 14.0589L6.45274 13.7129L6.02195 13.3103L6.22675 13.1196L5.19922 12.1592ZM5.19922 14.0624V15.5384L5.43933 15.2948V15.0088H5.69357L5.89836 14.8004L5.69357 14.5956H5.43933V14.3061L5.19922 14.0624ZM6.95063 14.585L6.91531 14.7863L6.95063 14.9911L7.16955 14.7863L6.95063 14.585Z" fill="#383739"/>
<path d="M5.19932 12.2016V12.5123L5.84903 13.1197L5.64422 13.3103L6.07855 13.7129L5.81725 13.9565V13.6634H5.50298V13.9247L6.32572 14.691H6.70708L6.74592 14.472H6.46343L6.80241 14.1543L7.50863 14.8004L6.80241 15.4466L6.46343 15.1324H6.74592L6.70698 14.9099H6.32563L5.50288 15.6761V15.9374H5.81715V15.6444L6.07845 15.888L5.64412 16.2905L5.84894 16.4848L5.19922 17.0886V17.3993L6.18438 16.4848L5.97958 16.2906L6.41037 15.888L6.0396 15.542L6.32916 15.2736L6.80231 15.715L7.79455 14.8004L6.80231 13.8859L6.32916 14.3273L6.0396 14.0589L6.41037 13.7129L5.97958 13.3103L6.18438 13.1196L5.19922 12.2016L5.19932 12.2016ZM5.19932 14.1048V15.4961L5.41118 15.2842V14.977H5.68307L5.85962 14.8004L5.68307 14.6239H5.41118V14.3167L5.19932 14.1048ZM6.9719 14.6415L6.94719 14.7863L6.9719 14.9311L7.12727 14.7863L6.9719 14.6415Z" fill="#FFC72C"/>
<path d="M5.19922 19.6787V20.0707L5.80656 20.6392L5.60175 20.8298L6.03608 21.2324L5.8454 21.4054V21.1547H5.47463V21.4548L6.3115 22.2387H6.73523L6.78114 21.9633H6.53749L6.80231 21.7161L7.46615 22.32L6.80231 22.9273L6.53749 22.6801H6.78114L6.73523 22.4012H6.3115L5.47463 23.1851V23.4852H5.8454V23.2345L6.03608 23.4075L5.60175 23.8101L5.80656 24.0043L5.19922 24.5693V24.9612L6.22675 24.0043L6.02195 23.8101L6.45274 23.4075L6.08197 23.0615L6.32916 22.8355L6.80231 23.2734L7.84046 22.32L6.80231 21.3666L6.32916 21.808L6.08197 21.5784L6.45274 21.2324L6.02195 20.8299L6.22675 20.6392L5.19922 19.6787ZM5.19922 21.582V23.058L5.43933 22.8143V22.5283H5.69357L5.89836 22.32L5.69357 22.1152H5.43933V21.8256L5.19922 21.582ZM6.95063 22.1046L6.91531 22.3058L6.95063 22.5106L7.16955 22.3058L6.95063 22.1046Z" fill="#383739"/>
<path d="M5.19932 19.7211V20.0318L5.84903 20.6392L5.64422 20.8299L6.07855 21.2324L5.81725 21.476V21.183H5.50298V21.4443L6.32572 22.2105H6.70708L6.74592 21.9916H6.46343L6.80241 21.6738L7.50863 22.32L6.80241 22.9662L6.46343 22.6519H6.74592L6.70698 22.4294H6.32563L5.50288 23.1957V23.457H5.81715V23.1639L6.07845 23.4075L5.64412 23.8101L5.84894 24.0043L5.19922 24.6081V24.9188L6.18438 24.0043L5.97958 23.8101L6.41037 23.4075L6.0396 23.0615L6.32916 22.7931L6.80231 23.2345L7.79455 22.32L6.80231 21.4054L6.32916 21.8468L6.0396 21.5784L6.41037 21.2324L5.97958 20.8299L6.18438 20.6392L5.19922 19.7211L5.19932 19.7211ZM5.19932 21.6244V23.0156L5.41118 22.8037V22.4965H5.68307L5.85962 22.32L5.68307 22.1434H5.41118V21.8362L5.19932 21.6244ZM6.9719 22.1611L6.94719 22.3059L6.9719 22.4506L7.12727 22.3059L6.9719 22.1611Z" fill="#FFC72C"/>
<path d="M5.19922 27.1982V27.5902L5.80656 28.1587L5.60175 28.3494L6.03608 28.7519L5.8454 28.9249V28.6742H5.47463V28.9744L6.3115 29.7583H6.73523L6.78114 29.4828H6.53749L6.80231 29.2357L7.46615 29.8395L6.80231 30.4468L6.53749 30.1997H6.78114L6.73523 29.9207H6.3115L5.47463 30.7046V31.0047H5.8454V30.754L6.03608 30.9271L5.60175 31.3296L5.80656 31.5238L5.19922 32.0888V32.4807L6.22675 31.5238L6.02195 31.3296L6.45274 30.9271L6.08197 30.581L6.32916 30.355L6.80231 30.7929L7.84046 29.8395L6.80231 28.8861L6.32916 29.3275L6.08197 29.098L6.45274 28.7519L6.02195 28.3494L6.22675 28.1587L5.19922 27.1982ZM5.19922 29.1015V30.5775L5.43933 30.3338V30.0478H5.69357L5.89836 29.8395L5.69357 29.6347H5.43933V29.3451L5.19922 29.1015ZM6.95063 29.6241L6.91531 29.8254L6.95063 30.0302L7.16955 29.8254L6.95063 29.6241Z" fill="#383739"/>
<path d="M5.19932 27.2406V27.5514L5.84903 28.1587L5.64422 28.3494L6.07855 28.7519L5.81725 28.9956V28.7025H5.50298V28.9638L6.32572 29.73H6.70708L6.74592 29.5111H6.46343L6.80241 29.1933L7.50863 29.8395L6.80241 30.4857L6.46343 30.1714H6.74592L6.70698 29.949H6.32563L5.50288 30.7152V30.9765H5.81715V30.6834L6.07845 30.9271L5.64412 31.3296L5.84894 31.5238L5.19922 32.1276V32.4384L6.18438 31.5238L5.97958 31.3296L6.41037 30.9271L6.0396 30.581L6.32916 30.3127L6.80231 30.754L7.79455 29.8395L6.80231 28.925L6.32916 29.3663L6.0396 29.098L6.41037 28.7519L5.97958 28.3494L6.18438 28.1587L5.19922 27.2406L5.19932 27.2406ZM5.19932 29.1439V30.5351L5.41118 30.3233V30.0161H5.68307L5.85962 29.8395L5.68307 29.663H5.41118V29.3558L5.19932 29.1439ZM6.9719 29.6806L6.94719 29.8254L6.9719 29.9702L7.12727 29.8254L6.9719 29.6806Z" fill="#FFC72C"/>
<path d="M16.002 -2.6416V-2.24965L15.3946 -1.68115L15.5994 -1.49047L15.1651 -1.08793L15.3558 -0.914906V-1.16561H15.7265V-0.865471L14.8897 -0.0815711H14.4659L14.42 -0.356995H14.6637L14.3989 -0.60417L13.735 -0.000356913L14.3989 0.606987L14.6637 0.359812H14.42L14.4659 0.0808578H14.8897L15.7265 0.864764V1.16491H15.3558V0.9142L15.1651 1.08722L15.5994 1.48976L15.3946 1.68397L16.002 2.24894V2.64089L14.9744 1.68397L15.1792 1.48976L14.7484 1.08722L15.1192 0.741177L14.872 0.515188L14.3989 0.953042L13.3607 -0.000344992L14.3989 -0.953732L14.872 -0.512348L15.1192 -0.741868L14.7484 -1.08791L15.1792 -1.49046L14.9744 -1.68113L16.002 -2.6416ZM16.002 -0.738348V0.737638L15.7618 0.493994V0.207982H15.5076L15.3028 -0.000351667L15.5076 -0.205154H15.7618V-0.494702L16.002 -0.738348ZM14.2505 -0.21575L14.2859 -0.0144784L14.2505 0.190324L14.0316 -0.0144784L14.2505 -0.21575Z" fill="#383739"/>
<path d="M16.0019 -2.59921V-2.28847L15.3521 -1.68113L15.557 -1.49045L15.1226 -1.08791L15.3839 -0.844265V-1.13734H15.6982V-0.876045L14.8754 -0.109805H14.4941L14.4553 -0.328732H14.7377L14.3988 -0.646529L13.6925 -0.000341892L14.3988 0.645845L14.7377 0.331579H14.4553L14.4942 0.109122H14.8755L15.6983 0.875362V1.13666H15.384V0.843582L15.1227 1.08723L15.557 1.48977L15.3522 1.68397L16.002 2.28779V2.59853L15.0168 1.68397L15.2216 1.48977L14.7908 1.08723L15.1616 0.741181L14.872 0.47282L14.3989 0.914204L13.4066 -0.000342607L14.3989 -0.914889L14.872 -0.473505L15.1616 -0.741867L14.7908 -1.08791L15.2216 -1.49045L15.0168 -1.68113L16.002 -2.59921L16.0019 -2.59921ZM16.0019 -0.695956V0.695284L15.79 0.483419V0.176221H15.5181L15.3416 -0.000333309L15.5181 -0.176887H15.79V-0.484091L16.0019 -0.695956ZM14.2293 -0.159233L14.254 -0.0144587L14.2293 0.130316L14.0739 -0.0144587L14.2293 -0.159233Z" fill="#FFC72C"/>
<path d="M16.002 4.63901V5.03096L15.3946 5.59946L15.5994 5.79014L15.1651 6.19268L15.3558 6.3657V6.115H15.7265V6.41514L14.8897 7.19904H14.4659L14.42 6.92361H14.6637L14.3989 6.67644L13.735 7.28025L14.3989 7.8876L14.6637 7.64042H14.42L14.4659 7.36147H14.8897L15.7265 8.14537V8.44551H15.3558V8.19481L15.1651 8.36783L15.5994 8.77037L15.3946 8.96458L16.002 9.52955V9.9215L14.9744 8.96458L15.1792 8.77037L14.7484 8.36783L15.1192 8.02179L14.872 7.7958L14.3989 8.23365L13.3607 7.28026L14.3989 6.32688L14.872 6.76826L15.1192 6.53874L14.7484 6.1927L15.1792 5.79015L14.9744 5.59948L16.002 4.63901ZM16.002 6.54226V8.01825L15.7618 7.7746V7.48859H15.5076L15.3028 7.28026L15.5076 7.07546H15.7618V6.78591L16.002 6.54226ZM14.2505 7.06486L14.2859 7.26613L14.2505 7.47093L14.0316 7.26613L14.2505 7.06486Z" fill="#383739"/>
<path d="M16.0019 4.6814V4.99213L15.3521 5.59948L15.557 5.79016L15.1226 6.1927L15.3839 6.43634V6.14326H15.6982V6.40456L14.8754 7.1708H14.4941L14.4553 6.95188H14.7377L14.3988 6.63408L13.6925 7.28027L14.3988 7.92645L14.7377 7.61219H14.4553L14.4942 7.38973H14.8755L15.6983 8.15597V8.41727H15.384V8.12419L15.1227 8.36784L15.557 8.77038L15.3522 8.96458L16.002 9.5684V9.87914L15.0168 8.96458L15.2216 8.77038L14.7908 8.36784L15.1616 8.02179L14.872 7.75343L14.3989 8.19481L13.4066 7.28027L14.3989 6.36572L14.872 6.8071L15.1616 6.53874L14.7908 6.1927L15.2216 5.79015L15.0168 5.59948L16.002 4.6814L16.0019 4.6814ZM16.0019 6.58465V7.97589L15.79 7.76403V7.45683H15.5181L15.3416 7.28028L15.5181 7.10372H15.79V6.79652L16.0019 6.58465ZM14.2293 7.12138L14.254 7.26615L14.2293 7.41092L14.0739 7.26615L14.2293 7.12138Z" fill="#FFC72C"/>
<path d="M16.002 12.1586V12.5506L15.3946 13.1191L15.5994 13.3098L15.1651 13.7123L15.3558 13.8853V13.6346H15.7265V13.9348L14.8897 14.7187H14.4659L14.42 14.4432H14.6637L14.3989 14.1961L13.735 14.7999L14.3989 15.4072L14.6637 15.16H14.42L14.4659 14.8811H14.8897L15.7265 15.665V15.9651H15.3558V15.7144L15.1651 15.8875L15.5994 16.29L15.3946 16.4842L16.002 17.0492V17.4411L14.9744 16.4842L15.1792 16.29L14.7484 15.8875L15.1192 15.5414L14.872 15.3154L14.3989 15.7533L13.3607 14.7999L14.3989 13.8465L14.872 14.2879L15.1192 14.0584L14.7484 13.7123L15.1792 13.3098L14.9744 13.1191L16.002 12.1586ZM16.002 14.0619V15.5379L15.7618 15.2942V15.0082H15.5076L15.3028 14.7999L15.5076 14.5951H15.7618V14.3055L16.002 14.0619ZM14.2505 14.5845L14.2859 14.7858L14.2505 14.9906L14.0316 14.7858L14.2505 14.5845Z" fill="#383739"/>
<path d="M16.0019 12.201V12.5118L15.3521 13.1191L15.557 13.3098L15.1226 13.7123L15.3839 13.956V13.6629H15.6982V13.9242L14.8754 14.6904H14.4941L14.4553 14.4715H14.7377L14.3988 14.1537L13.6925 14.7999L14.3988 15.4461L14.7377 15.1318H14.4553L14.4942 14.9094H14.8755L15.6983 15.6756V15.9369H15.384V15.6438L15.1227 15.8875L15.557 16.29L15.3522 16.4842L16.002 17.088V17.3988L15.0168 16.4842L15.2216 16.29L14.7908 15.8875L15.1616 15.5414L14.872 15.2731L14.3989 15.7144L13.4066 14.7999L14.3989 13.8853L14.872 14.3267L15.1616 14.0584L14.7908 13.7123L15.2216 13.3098L15.0168 13.1191L16.002 12.201L16.0019 12.201ZM16.0019 14.1043V15.4955L15.79 15.2837V14.9765H15.5181L15.3416 14.7999L15.5181 14.6233H15.79V14.3161L16.0019 14.1043ZM14.2293 14.641L14.254 14.7858L14.2293 14.9305L14.0739 14.7858L14.2293 14.641Z" fill="#FFC72C"/>
<path d="M16.002 19.679V20.0709L15.3946 20.6394L15.5994 20.8301L15.1651 21.2327L15.3558 21.4057V21.155H15.7265V21.4551L14.8897 22.239H14.4659L14.42 21.9636H14.6637L14.3989 21.7164L13.735 22.3202L14.3989 22.9276L14.6637 22.6804H14.42L14.4659 22.4014H14.8897L15.7265 23.1854V23.4855H15.3558V23.2348L15.1651 23.4078L15.5994 23.8104L15.3946 24.0046L16.002 24.5695V24.9615L14.9744 24.0046L15.1792 23.8104L14.7484 23.4078L15.1192 23.0618L14.872 22.8358L14.3989 23.2736L13.3607 22.3202L14.3989 21.3669L14.872 21.8082L15.1192 21.5787L14.7484 21.2327L15.1792 20.8301L14.9744 20.6395L16.002 19.679ZM16.002 21.5822V23.0582L15.7618 22.8146V22.5286H15.5076L15.3028 22.3202L15.5076 22.1154H15.7618V21.8259L16.002 21.5822ZM14.2505 22.1048L14.2859 22.3061L14.2505 22.5109L14.0316 22.3061L14.2505 22.1048Z" fill="#383739"/>
<path d="M16.0019 19.7214V20.0321L15.3521 20.6395L15.557 20.8301L15.1226 21.2327L15.3839 21.4763V21.1832H15.6982V21.4445L14.8754 22.2108H14.4941L14.4553 21.9919H14.7377L14.3988 21.6741L13.6925 22.3202L14.3988 22.9664L14.7377 22.6522H14.4553L14.4942 22.4297H14.8755L15.6983 23.1959V23.4572H15.384V23.1642L15.1227 23.4078L15.557 23.8104L15.3522 24.0046L16.002 24.6084V24.9191L15.0168 24.0046L15.2216 23.8104L14.7908 23.4078L15.1616 23.0618L14.872 22.7934L14.3989 23.2348L13.4066 22.3202L14.3989 21.4057L14.872 21.8471L15.1616 21.5787L14.7908 21.2327L15.2216 20.8301L15.0168 20.6395L16.002 19.7214L16.0019 19.7214ZM16.0019 21.6246V23.0159L15.79 22.804V22.4968H15.5181L15.3416 22.3203L15.5181 22.1437H15.79V21.8365L16.0019 21.6246ZM14.2293 22.1614L14.254 22.3061L14.2293 22.4509L14.0739 22.3061L14.2293 22.1614Z" fill="#FFC72C"/>
<path d="M16.002 27.1983V27.5903L15.3946 28.1588L15.5994 28.3494L15.1651 28.752L15.3558 28.925V28.6743H15.7265V28.9744L14.8897 29.7583H14.4659L14.42 29.4829H14.6637L14.3989 29.2357L13.735 29.8395L14.3989 30.4469L14.6637 30.1997H14.42L14.4659 29.9208H14.8897L15.7265 30.7047V31.0048H15.3558V30.7541L15.1651 30.9271L15.5994 31.3297L15.3946 31.5239L16.002 32.0888V32.4808L14.9744 31.5239L15.1792 31.3297L14.7484 30.9271L15.1192 30.5811L14.872 30.3551L14.3989 30.7929L13.3607 29.8396L14.3989 28.8862L14.872 29.3276L15.1192 29.098L14.7484 28.752L15.1792 28.3494L14.9744 28.1588L16.002 27.1983ZM16.002 29.1016V30.5775L15.7618 30.3339V30.0479H15.5076L15.3028 29.8396L15.5076 29.6348H15.7618V29.3452L16.002 29.1016ZM14.2505 29.6242L14.2859 29.8254L14.2505 30.0302L14.0316 29.8254L14.2505 29.6242Z" fill="#383739"/>
<path d="M16.0019 27.2407V27.5514L15.3521 28.1588L15.557 28.3495L15.1226 28.752L15.3839 28.9956V28.7026H15.6982V28.9639L14.8754 29.7301H14.4941L14.4553 29.5112H14.7377L14.3988 29.1934L13.6925 29.8396L14.3988 30.4857L14.7377 30.1715H14.4553L14.4942 29.949H14.8755L15.6983 30.7153V30.9766H15.384V30.6835L15.1227 30.9271L15.557 31.3297L15.3522 31.5239L16.002 32.1277V32.4384L15.0168 31.5239L15.2216 31.3297L14.7908 30.9271L15.1616 30.5811L14.872 30.3127L14.3989 30.7541L13.4066 29.8396L14.3989 28.925L14.872 29.3664L15.1616 29.098L14.7908 28.752L15.2216 28.3495L15.0168 28.1588L16.002 27.2407L16.0019 27.2407ZM16.0019 29.1439V30.5352L15.79 30.3233V30.0161H15.5181L15.3416 29.8396L15.5181 29.663H15.79V29.3558L16.0019 29.1439ZM14.2293 29.6807L14.254 29.8254L14.2293 29.9702L14.0739 29.8254L14.2293 29.6807Z" fill="#FFC72C"/>
<path d="M6.07717 35.3883C6.13045 35.6154 6.31105 35.7869 6.35409 36.0225C6.44025 35.7768 6.51969 35.5709 6.46037 35.3022C6.41793 35.11 6.25625 34.9729 6.23753 34.7754C6.06125 34.9339 6.02329 35.1587 6.07717 35.3883ZM6.03249 36.34C6.18201 36.545 6.38985 36.7023 6.61937 36.8071C6.57417 36.6276 6.65897 36.4924 6.75309 36.3498C6.86649 36.1782 6.92177 36.0096 6.82933 35.812C6.78625 35.9148 6.72837 36.0001 6.66045 36.0879C6.56001 36.225 6.49397 36.3468 6.47849 36.5226C6.36233 36.4365 6.31129 36.3079 6.24917 36.1835C6.15449 36.0053 6.00169 35.8564 5.82617 35.759C5.87281 35.9588 5.90873 36.1702 6.03249 36.34ZM6.87105 36.9511C6.83909 37.0649 6.81153 37.1778 6.81769 37.2968C6.71889 37.1903 6.58769 37.1102 6.47065 37.0245C6.31125 36.8956 6.12545 36.8046 5.99513 36.6405C6.01457 36.8821 6.11797 37.079 6.31429 37.226C6.52181 37.3813 6.77209 37.4649 6.97649 37.6279C6.94589 37.4082 7.02661 37.2322 7.09545 37.0302C7.15281 36.8372 7.09729 36.6413 6.96641 36.4942C6.96837 36.6572 6.91693 36.7972 6.87105 36.9511ZM7.33677 37.6933C7.37977 37.8599 7.49921 37.9955 7.58077 38.1442C7.36085 38.076 7.16681 37.9568 6.96801 37.8445C6.73121 37.7156 6.47409 37.6335 6.25973 37.4633C6.36641 37.8582 6.63081 38.0872 7.01761 38.204C7.28209 38.2838 7.50497 38.244 7.82589 38.3737C7.78909 38.1564 7.72425 37.9219 7.62153 37.7261C7.54181 37.5844 7.45341 37.4447 7.40417 37.2886C7.33285 37.4168 7.29909 37.5472 7.33677 37.6933ZM8.14601 38.2976C8.22173 38.4273 8.32169 38.5365 8.44565 38.6226C8.13345 38.6425 7.88221 38.4447 7.57785 38.4361C7.38985 38.4308 7.21137 38.4891 7.01965 38.4716C7.24717 38.6251 7.48537 38.7592 7.76237 38.795C8.12245 38.8416 8.45453 38.751 8.85177 38.7864C8.66613 38.6554 8.57325 38.4801 8.45753 38.2915C8.30685 38.056 8.16465 37.8882 7.87157 37.8503C7.98921 37.9825 8.05769 38.1463 8.14601 38.2976ZM9.25477 38.8158C8.70477 38.9093 8.17773 39.0303 7.61601 39.0359C8.24477 39.2551 8.83721 39.2947 9.46081 39.0684C9.79781 38.9461 10.0562 38.8806 10.3107 38.8988C10.6827 38.9255 11.1347 39.0723 11.635 39.5999L11.8316 39.4426C11.1146 38.8037 10.1765 38.6591 9.2548 38.8158L9.25477 38.8158Z" fill="#FFC72C"/>
<path d="M6.55107 4.68926L5.68567 4.15858V2.8829L6.55107 2.35222V1.67722L7.36887 1.18474H8.02223L9.26539 0.485504H11.9343L13.1775 1.18474H13.8308L14.6486 1.67722V2.35222L15.514 2.8829L15.514 4.15858L14.6486 4.68926V5.36426L13.8308 5.85674H13.1775L11.9343 6.55598H9.26539L8.02223 5.85674H7.36887L6.55107 5.36426V4.68926Z" fill="#383739"/>
<path d="M9.27064 0.515625L8.0277 1.21478H7.37798L6.57996 1.695V2.36944L5.71484 2.8991V4.14203L6.57996 4.67169V5.34966L7.37445 5.82989H8.0277L9.27063 6.52904H11.926L13.1689 5.82989H13.8222L14.6202 5.34966V4.67169L15.4853 4.14203V2.8991L14.6202 2.36944V1.695L13.8222 1.21478H13.1689L11.926 0.515625H9.27064ZM9.34479 0.773394H11.8554L13.0983 1.47255H13.748L14.3518 1.83625V2.51068L15.2205 3.04034V4.0008L14.3518 4.53046V5.20489L13.748 5.56859H13.0983L11.8554 6.26775H9.34479L8.10185 5.56859H7.45214L6.84479 5.20489V4.53046L5.97968 4.0008V3.04034L6.84479 2.51068V1.83625L7.45214 1.47255H8.10185L9.34479 0.773394Z" fill="#00843D"/>
<path d="M10.5846 3.53517V0.80127H9.35085L8.10761 1.50051H7.45949L6.87317 1.85359V2.52695L6.00781 3.05759V3.50663L10.6132 3.50658V6.24055H11.8469L13.0901 5.54131H13.7383L14.3246 5.18823V4.51491L15.19 3.98423V3.53519L10.5846 3.53517Z" fill="#FFC72C"/>
<path d="M6.00785 3.53519L6.00781 3.98423L6.87321 4.51491V5.18823L7.45949 5.54131H8.10765L9.35085 6.24055H10.5846V3.50658L15.19 3.50663V3.05759L14.3246 2.52695V1.85359L13.7383 1.50051H13.0902L11.847 0.80127H10.6132V3.53517L6.00785 3.53519Z" fill="white"/>
<path d="M7.895 1.75267L7.68196 1.55411L7.47088 1.68427L7.68428 1.88323L7.41028 2.05299H8.0082L8.52348 2.53903L8.68832 2.36495L8.18732 1.89235V1.57155L7.895 1.75267Z" fill="#383739"/>
<path d="M8.90293 1.66533L8.68989 1.46677L8.47881 1.59693L8.69221 1.79589L8.41821 1.96565H9.01613L9.53141 2.45169L9.69625 2.27761L9.19525 1.80501V1.48421L8.90293 1.66533Z" fill="#383739"/>
<path d="M7.82074 2.32289L7.6077 2.12433L7.39666 2.25449L7.61002 2.45345L7.33606 2.62321H7.93398L8.44922 3.10925L8.61406 2.93517L8.11306 2.46257V2.14177L7.82074 2.32289Z" fill="#383739"/>
<path d="M10.5974 0.772858H10.0578L9.77552 1.04494H9.22516L8.81848 1.25602L8.91332 1.4871L9.276 1.29662H9.43484L9.99092 1.93974L10.5974 1.57042L10.5974 0.772858Z" fill="#383739"/>
<path d="M7.67789 1.58978L7.86933 1.76822L7.70893 1.86758L7.51721 1.68886L7.67789 1.58978ZM8.15825 1.62278V1.90458L8.64741 2.36602L8.52181 2.49866L8.01905 2.02438H7.51001L8.15825 1.62278Z" fill="#D22630"/>
<path d="M8.68558 1.50235L8.87702 1.68079L8.71662 1.78015L8.52494 1.60143L8.68558 1.50235ZM9.16594 1.53535V1.81715L9.6551 2.27859L9.5295 2.41123L9.02674 1.93699H8.5177L9.16594 1.53535Z" fill="#D22630"/>
<path d="M7.60359 2.16006L7.79499 2.3385L7.63459 2.43786L7.44291 2.25914L7.60359 2.16006ZM8.08391 2.19306V2.47486L8.57307 2.9363L8.44751 3.06894L7.94475 2.5947H7.43567L8.08391 2.19306Z" fill="#D22630"/>
<path d="M10.5839 0.801666H10.0702L9.78787 1.07375H9.23295L8.85559 1.26959L8.92859 1.44751L9.26971 1.26839H9.44871L9.99751 1.90311L10.5839 1.54603L10.5839 0.801666Z" fill="#D22630"/>
<path d="M7.895 5.28914L7.68196 5.4877L7.47088 5.35754L7.68428 5.15858L7.41028 4.98882H8.0082L8.52348 4.50278L8.68832 4.67686L8.18732 5.14946V5.47026L7.895 5.28914Z" fill="#383739"/>
<path d="M8.90293 5.3766L8.68989 5.57516L8.47881 5.445L8.69221 5.24604L8.41821 5.07628H9.01613L9.53141 4.59024L9.69625 4.76432L9.19525 5.23692V5.55772L8.90293 5.3766Z" fill="#383739"/>
<path d="M7.82074 4.71907L7.6077 4.91763L7.39666 4.78747L7.61002 4.58851L7.33606 4.41875H7.93398L8.44922 3.93271L8.61406 4.10679L8.11306 4.57939V4.90019L7.82074 4.71907Z" fill="#383739"/>
<path d="M10.5974 6.26895H10.0578L9.77552 5.99687H9.22516L8.81848 5.78579L8.91332 5.55471L9.276 5.74519H9.43484L9.99092 5.10207L10.5974 5.47139L10.5974 6.26895Z" fill="#383739"/>
<path d="M7.67789 5.45218L7.86933 5.27374L7.70893 5.17438L7.51721 5.3531L7.67789 5.45218ZM8.15825 5.41918V5.13738L8.64741 4.67594L8.52181 4.5433L8.01905 5.01758H7.51001L8.15825 5.41918Z" fill="#D22630"/>
<path d="M8.68558 5.53946L8.87702 5.36102L8.71662 5.26166L8.52494 5.44038L8.68558 5.53946ZM9.16594 5.50646V5.22466L9.6551 4.76322L9.5295 4.63058L9.02674 5.10482H8.5177L9.16594 5.50646Z" fill="#D22630"/>
<path d="M7.60359 4.88174L7.79499 4.7033L7.63459 4.60394L7.44291 4.78266L7.60359 4.88174ZM8.08391 4.84874V4.56694L8.57307 4.10551L8.44751 3.97287L7.94475 4.4471H7.43567L8.08391 4.84874Z" fill="#D22630"/>
<path d="M10.5839 6.24014H10.0702L9.78787 5.96806H9.23295L8.85559 5.77222L8.92859 5.5943L9.26971 5.77342H9.44871L9.99751 5.1387L10.5839 5.49578L10.5839 6.24014Z" fill="#D22630"/>
<path d="M7.53589 2.64769L7.27865 2.55157L7.27249 2.55585L6.94033 2.78633V2.84829L6.40833 3.52105L6.94033 4.19381V4.25581L7.27865 4.49053L7.53589 4.39441L7.37889 4.29045V4.09265L7.44129 4.01801H7.72005V3.02409H7.44129L7.37889 2.94945V2.75165L7.53589 2.64769Z" fill="#383739"/>
<path d="M6.9696 2.80108L7.28336 2.5834L7.47416 2.65468L7.35104 2.7362V2.95968L7.42864 3.05248H7.69216V3.98936H7.42864L7.35104 4.08216V4.30564L7.47416 4.38716L7.28336 4.45844L6.9696 4.24076L6.96964 4.18376L6.44543 3.52093L6.96964 2.85805L6.9696 2.80108Z" fill="#D22630"/>
<path d="M13.3024 1.75227L13.5154 1.55371L13.7265 1.68387L13.5131 1.88283L13.7871 2.05259H13.1892L12.6739 2.53863L12.5091 2.36455L13.0101 1.89195V1.57115L13.3024 1.75227Z" fill="#383739"/>
<path d="M12.2945 1.6652L12.5075 1.46664L12.7186 1.5968L12.5052 1.79576L12.7792 1.96552H12.1813L11.666 2.45157L11.5011 2.27749L12.0021 1.80488V1.48408L12.2945 1.6652Z" fill="#383739"/>
<path d="M13.3766 2.32277L13.5897 2.12421L13.8007 2.25437L13.5874 2.45333L13.8613 2.62309H13.2634L12.7482 3.10913L12.5833 2.93505L13.0843 2.46245V2.14165L13.3766 2.32277Z" fill="#383739"/>
<path d="M10.6 0.772949H11.1395L11.4219 1.04503H11.9722L12.3789 1.25611L12.2841 1.48719L11.9214 1.29671H11.7625L11.2065 1.93983L10.6 1.57051L10.6 0.772949Z" fill="#383739"/>
<path d="M13.5195 1.58951L13.3281 1.76795L13.4885 1.86731L13.6802 1.68859L13.5195 1.58951ZM13.0391 1.62251V1.90431L12.55 2.36575L12.6756 2.49839L13.1783 2.02411H13.6874L13.0391 1.62251Z" fill="#D22630"/>
<path d="M12.5118 1.50244L12.3204 1.68088L12.4808 1.78024L12.6724 1.60152L12.5118 1.50244ZM12.0314 1.53544V1.81724L11.5423 2.27868L11.6679 2.41132L12.1706 1.93708H12.6797L12.0314 1.53544Z" fill="#D22630"/>
<path d="M13.5938 2.16016L13.4024 2.3386L13.5628 2.43796L13.7545 2.25924L13.5938 2.16016ZM13.1135 2.19316V2.47496L12.6243 2.9364L12.7499 3.06903L13.2526 2.5948H13.7617L13.1135 2.19316Z" fill="#D22630"/>
<path d="M10.6135 0.80127H11.1272L11.4095 1.07335H11.9644L12.3418 1.26919L12.2688 1.44711L11.9277 1.26799H11.7487L11.1999 1.90271L10.6135 1.54563L10.6135 0.80127Z" fill="#D22630"/>
<path d="M13.3024 5.28923L13.5154 5.48779L13.7265 5.35763L13.5131 5.15867L13.7871 4.98891H13.1892L12.6739 4.50287L12.5091 4.67695L13.0101 5.14955V5.47035L13.3024 5.28923Z" fill="#383739"/>
<path d="M12.2945 5.3763L12.5075 5.57486L12.7186 5.4447L12.5052 5.24574L12.7792 5.07598H12.1813L11.666 4.58994L11.5011 4.76402L12.0021 5.23662V5.55742L12.2945 5.3763Z" fill="#383739"/>
<path d="M13.3766 4.71874L13.5897 4.9173L13.8007 4.78714L13.5874 4.58818L13.8613 4.41842H13.2634L12.7482 3.93238L12.5833 4.10646L13.0843 4.57906V4.89986L13.3766 4.71874Z" fill="#383739"/>
<path d="M10.6 6.26855H11.1395L11.4219 5.99647H11.9722L12.3789 5.78539L12.2841 5.55431L11.9214 5.74479H11.7625L11.2065 5.10167L10.6 5.47099L10.6 6.26855Z" fill="#383739"/>
<path d="M13.5195 5.452L13.3281 5.27356L13.4885 5.1742L13.6802 5.35292L13.5195 5.452ZM13.0391 5.419V5.1372L12.55 4.67576L12.6756 4.54312L13.1783 5.0174H13.6874L13.0391 5.419Z" fill="#D22630"/>
<path d="M12.5118 5.53906L12.3204 5.36062L12.4808 5.26126L12.6724 5.43998L12.5118 5.53906ZM12.0314 5.50606V5.22426L11.5423 4.76282L11.6679 4.63018L12.1706 5.10442H12.6797L12.0314 5.50606Z" fill="#D22630"/>
<path d="M13.5938 4.88135L13.4024 4.70291L13.5628 4.60355L13.7545 4.78227L13.5938 4.88135ZM13.1135 4.84835V4.56655L12.6243 4.10511L12.7499 3.97247L13.2526 4.44671H13.7617L13.1135 4.84835Z" fill="#D22630"/>
<path d="M10.6135 6.24023H11.1272L11.4095 5.96815H11.9644L12.3418 5.77231L12.2688 5.59439L11.9277 5.77351H11.7487L11.1999 5.13879L10.6135 5.49587L10.6135 6.24023Z" fill="#D22630"/>
<path d="M13.6615 2.64745L13.9187 2.55133L13.9249 2.55561L14.2571 2.78609V2.84805L14.7891 3.52081L14.2571 4.19357V4.25557L13.9187 4.49029L13.6615 4.39417L13.8185 4.29021V4.09241L13.7561 4.01777H13.4773V3.02385H13.7561L13.8185 2.94921V2.75141L13.6615 2.64745Z" fill="#383739"/>
<path d="M14.2278 2.80118L13.914 2.5835L13.7232 2.65478L13.8464 2.7363V2.95978L13.7688 3.05258H13.5052V3.98946H13.7688L13.8464 4.08226V4.30574L13.7232 4.38726L13.914 4.45854L14.2278 4.24086L14.2278 4.18386L14.752 3.52102L14.2278 2.85814L14.2278 2.80118Z" fill="#D22630"/>
<path d="M7.08032 4.0854L6.93548 3.96008V3.89968L6.62476 3.52068L6.93552 3.14164V3.08128L7.08036 2.95596L7.34052 3.16752L7.19036 3.16636L7.41224 3.39156H7.91924L8.31796 3.07976V2.25748H9.3152L10.4734 1.54676V1.36036L10.2962 1.24232H10.2401L10.0472 1.3714L10.0174 1.46768L9.86648 1.26168L10.1597 1.01532H10.2066L10.5375 0.772522H10.6623L10.9932 1.01532H11.0401L11.3333 1.26168L11.1824 1.46768L11.1526 1.3714L10.9597 1.24232H10.9036L10.7264 1.36036V1.54676L11.8846 2.25748H12.8818V3.07976L13.2806 3.39156H13.7876L14.0094 3.16636L13.8593 3.16752L14.1194 2.95596L14.2643 3.08128V3.14164L14.575 3.52068L14.2643 3.89968V3.96008L14.1194 4.0854L13.8593 3.87384L14.0094 3.875L13.7876 3.64976H13.2806L12.8818 3.9616V4.78388H11.8846L10.7264 5.4946V5.681L10.9036 5.79904H10.9597L11.1526 5.66996L11.1824 5.57368L11.3333 5.77964L11.0401 6.02604H10.9932L10.6623 6.26884H10.5375L10.2066 6.02604H10.1597L9.86644 5.77964L10.0174 5.57368L10.0472 5.66996L10.2401 5.79904H10.2962L10.4734 5.681V5.4946L9.3152 4.78388H8.31796V3.9616L7.9192 3.64976H7.41224L7.19036 3.875L7.34052 3.87384L7.08032 4.0854Z" fill="#383739"/>
<path d="M10.6147 5.82143L10.7414 5.91835L10.6147 6.01527V5.82143ZM10.2118 5.99771H10.2164L10.5474 6.24055H10.586V6.05111L10.4124 5.91835L10.586 5.78559V5.42975L9.34675 4.66923H8.43063V3.90507L7.95763 3.53515H7.24419L7.06487 3.73791L6.88555 3.53515L6.67383 3.53519L6.96447 3.88967V3.94723L7.07959 4.04723L7.26455 3.90323L7.15599 3.90407V3.86807L7.39791 3.62147H7.92951L8.34699 3.94795V4.75559H9.32375L10.5024 5.47887V5.69647L10.3053 5.82779H10.2318L10.0234 5.68827L10.0074 5.63651L9.90571 5.77523L10.1706 5.99771L10.2118 5.99771ZM7.06503 3.34703L7.20623 3.50663H6.92379L7.06503 3.34703ZM10.5861 1.02655L10.4594 1.12347L10.5861 1.22035V1.02655ZM13.9945 3.53519L14.1358 3.69479L14.277 3.53519H13.9945ZM10.9843 1.04407L10.6534 0.80127H10.6147V0.99063L10.7884 1.12347L10.6147 1.25631V1.61207L11.854 2.37259H12.7701V3.13675L13.2431 3.50667H13.9564L14.1358 3.30395L14.3151 3.50663H14.5269L14.2362 3.15215V3.09459L14.1211 2.99459L13.9362 3.13859L14.0447 3.13771V3.17375L13.8028 3.42031H13.2712L12.8537 3.09383V2.28623H11.8769L10.6983 1.56295V1.34531L10.8954 1.21403H10.9689L11.1773 1.35355L11.1933 1.40531L11.295 1.26659L11.0301 1.04407L10.9843 1.04407Z" fill="#FFC72C"/>
<path d="M10.586 6.01523L10.4593 5.91835L10.586 5.82147V6.01523ZM7.20615 3.53519L7.06495 3.69479L6.92375 3.53519H7.20615ZM10.9889 5.99771H10.9842L10.6533 6.24055H10.6146V6.19095V6.05119L10.7883 5.91835L10.6146 5.78551V5.42975L11.8539 4.66923H12.77V3.90507L13.243 3.53515H13.9564L14.1357 3.73791L14.315 3.53515L14.5268 3.53519L14.2362 3.88967V3.94723L14.121 4.04723L13.9361 3.90323L14.0446 3.90407V3.86807L13.8027 3.62147H13.2711L12.8537 3.94795V4.75559H11.8769L10.6983 5.47887V5.69647L10.8953 5.82779H10.9688L11.1772 5.68827L11.1933 5.63651L11.2949 5.77523L11.03 5.99771L10.9889 5.99771ZM14.1357 3.34703L13.9945 3.50663H14.2769L14.1357 3.34703ZM10.2164 1.04407L10.5473 0.80127H10.586V0.99063L10.4123 1.12347L10.586 1.25631L10.5861 1.61207L9.34675 2.37259H8.43067V3.13675L7.95763 3.50667H7.24411L7.06479 3.30395L6.88543 3.50663H6.67383L6.96451 3.15215V3.09459L7.07963 2.99459L7.26455 3.13859L7.15599 3.13771V3.17375L7.39795 3.42031H7.92951L8.34699 3.09383V2.28623H9.32375L10.5024 1.56295V1.34531L10.3053 1.21403H10.2318L10.0234 1.35355L10.0073 1.40531L9.90575 1.26659L10.1706 1.04407L10.2164 1.04407ZM10.6146 1.22039L10.7413 1.12347L10.6146 1.02655V1.22039Z" fill="white"/>
<path d="M10.586 3.53517V1.64551L9.35475 2.40111H8.45911V3.15063L8.00391 3.50663L10.6146 3.50658V5.39627L11.8457 4.64071H12.7414V3.89119L13.1966 3.53519L10.586 3.53517Z" fill="#00843D"/>
<path d="M8.00391 3.53515L8.45915 3.89115V4.64067H9.35475L10.586 5.39627V3.50654L13.1966 3.50659L12.7414 3.15059V2.40107H11.8458L10.6146 1.64551V3.53513L8.00391 3.53515Z" fill="#D22630"/>
<path d="M9.2757 2.60432L9.0627 2.40576L8.85162 2.53588L9.06502 2.73484L8.79102 2.9046H9.38893L9.90421 3.39068L10.0691 3.21656L9.56806 2.74396V2.4232L9.2757 2.60432Z" fill="#383739"/>
<path d="M11.9242 4.43724L12.1372 4.6358L12.3483 4.50564L12.1349 4.30668L12.4089 4.13696H11.8109L11.2957 3.65088L11.1309 3.82496L11.6319 4.2976V4.61836L11.9242 4.43724Z" fill="#383739"/>
<path d="M9.2757 4.43724L9.06266 4.6358L8.85162 4.50564L9.06497 4.30668L8.79102 4.13696H9.38893L9.90417 3.65088L10.069 3.82496L9.56801 4.2976V4.61836L9.2757 4.43724Z" fill="#383739"/>
<path d="M11.9242 2.60432L12.1372 2.40576L12.3483 2.53588L12.1349 2.73484L12.4089 2.9046H11.8109L11.2957 3.39068L11.1309 3.21656L11.6319 2.74396V2.4232L11.9242 2.60432Z" fill="#383739"/>
<path d="M12.1419 4.60017L11.9505 4.42173L12.1109 4.32237L12.3026 4.50109L12.1419 4.60017ZM11.6616 4.56717V4.28541L11.1725 3.82397L11.2981 3.69129L11.8008 4.16557H12.3099L11.6616 4.56717ZM9.05851 2.44141L9.24995 2.61985L9.0895 2.71925L8.89783 2.54053L9.05851 2.44141ZM9.53887 2.47445V2.75621L10.028 3.21765L9.90243 3.35033L9.39966 2.87605H8.89062L9.53887 2.47445Z" fill="#D22630"/>
<path d="M12.142 2.44141L11.9506 2.61985L12.111 2.71925L12.3027 2.54053L12.142 2.44141ZM11.6617 2.47445V2.75621L11.1725 3.21765L11.2981 3.35033L11.8009 2.87605H12.3099L11.6617 2.47445ZM9.05854 4.60017L9.24994 4.42173L9.08954 4.32237L8.89786 4.50109L9.05854 4.60017ZM9.53887 4.56717V4.28541L10.028 3.82397L9.90247 3.69129L9.3997 4.16557H8.89062L9.53887 4.56717Z" fill="#00843D"/>
<path d="M11.9233 3.52058L10.5993 4.40292L9.27539 3.52058L10.5993 2.63818L11.9233 3.52058Z" fill="#383739"/>
<path d="M10.5845 2.68213L9.3477 3.50641H11.8498L10.6131 2.68213V4.35925L11.8499 3.53497H9.34766L10.5845 4.35925V2.68213Z" fill="white"/>
<path d="M10.9534 3.82409V4.06669H10.2453V3.82409H9.78711V3.21721H10.2453V2.97461H10.9534V3.21721H11.4116V3.82409H10.9534Z" fill="#383739"/>
<path d="M10.2745 3.00324V3.24584H9.81629V3.50648H10.5856V3.00323L10.2745 3.00324ZM10.6142 3.50648H11.3836V3.24584H10.9254V3.00324H10.6142L10.6142 3.50648ZM9.81628 3.53504V3.79568H10.2745V4.03828H10.5856V3.53504L9.81628 3.53504ZM10.6142 4.03828H10.9254V3.79568H11.3836V3.53504H10.6142V4.03828Z" fill="#D22630"/>
<path d="M12.8583 13.574V13.1853H13.9241V12.7966H14.99V9.28454H13.9241V8.89586H12.8583V8.50718H11.7924V8.1185H9.40691V8.50718H8.34103V8.89586H7.27511V9.28454H6.20923V12.7966H7.27511V13.1853H8.34103V13.574H9.40691V13.9627H11.7924V13.574H12.8583Z" fill="#383739"/>
<path d="M9.43747 8.146V8.5344H8.37105V8.92283H7.30467V9.31124H6.23828V12.7682H7.30467V13.1566H8.37105V13.545H9.43747V13.9334H11.7644V13.545H12.8308V13.1566H13.8972V12.7682H14.9636V9.31124H13.8972V8.92283H12.8308V8.5344H11.7644V8.146H9.43747ZM9.71995 8.42848H11.4819V8.81689H12.5483V9.20532H13.6148V9.59372H14.6811V12.4857H13.6148V12.8742H12.5483V13.2625H11.4819V13.6509H9.71995V13.2625H8.65353V12.8742H7.58716V12.4857H6.52077V9.59372H7.58716V9.20532H8.65353V8.81689H9.71995V8.42848Z" fill="#FFC72C"/>
<path d="M8.68063 13.2346V12.8459H7.61475V12.4572H6.54883V9.62385H7.61475V9.23518H8.68063V8.8465H9.74651V8.45786H11.4532V8.8465H12.5191V9.23518H13.585V9.62385H14.6509V12.4572H13.585V12.8459H12.5191V13.2346H11.4532V13.6232H9.74651V13.2346H8.68063Z" fill="#D22630"/>
<path d="M8.92788 9.13435L8.6518 8.92567V9.32639L8.38744 9.49438L8.38676 9.24354L8.1332 9.47131L7.87964 9.24354L7.87896 9.49438L7.586 9.30822V9.67975L7.34924 9.85115L7.34858 9.62335L7.0673 9.82707L6.78602 9.62335L6.78535 9.85115L6.52003 9.65906V10.7845H6.20923V11.2968H6.52003V12.4222L6.78535 12.2301L6.78602 12.4579L7.0673 12.2542L7.34854 12.4579L7.34922 12.2301L7.58598 12.4015V12.7731L7.87894 12.5869L7.87962 12.8377L8.13318 12.61L8.38674 12.8377L8.38742 12.5869L8.65178 12.7549V13.1556L8.92786 12.9469L8.92846 13.2268L9.19902 12.9849L9.46962 13.2268L9.47022 12.9469L9.71774 13.134V13.5614L10.0878 13.2241V13.6205L10.5997 13.2914L11.1115 13.6205V13.2241L11.4816 13.5614V13.134L11.7291 12.9469L11.7297 13.2268L12.0003 12.9849L12.2709 13.2268L12.2715 12.9469L12.5475 13.1556V12.7549L12.8119 12.5869L12.8126 12.8377L13.0662 12.61L13.3198 12.8377L13.3204 12.5869L13.6134 12.7731V12.4015L13.8502 12.2301L13.8509 12.4579L14.1321 12.2542L14.4134 12.4579L14.414 12.2301L14.6794 12.4222V11.2968H14.9902V10.7845H14.6794V9.65906L14.414 9.85115L14.4134 9.62335L14.1321 9.82707L13.8508 9.62335L13.8502 9.85115L13.6135 9.67975V9.30822L13.3205 9.49438L13.3198 9.24354L13.0662 9.47131L12.8126 9.24354L12.812 9.49438L12.5475 9.32634V8.92567L12.2715 9.1343L12.2709 8.85443L12.0003 9.09643L11.7297 8.85443L11.7291 9.13435L11.4816 8.94719V8.51986L11.1116 8.85718V8.46078L10.5997 8.78987L10.0878 8.46078V8.85718L9.71776 8.51986V8.94722L9.47024 9.13435L9.46964 8.85443L9.19904 9.09643L8.92848 8.85443L8.92788 9.13435Z" fill="#383739"/>
<path d="M6.81428 9.90719L6.81495 9.67935L7.06779 9.86251L7.07631 9.85631L7.32063 9.67935L7.3213 9.90719L7.58649 9.71523V12.3664L7.3213 12.1745L7.32063 12.4023L7.06779 12.2192L6.81495 12.4023L6.81428 12.1745L6.54908 12.3664V11.2684H6.23828V10.8133H6.54908V9.71523L6.81428 9.90719Z" fill="#00843D"/>
<path d="M8.95614 8.91846L9.1983 9.13502L9.44046 8.91846L9.44106 9.19194L9.71698 8.98334V13.0985L9.44106 12.8899L9.44046 13.1634L9.1983 12.9468L8.95614 13.1634L8.95561 12.8899L8.67969 13.0985V8.98334L8.95561 9.19194L8.95614 8.91846Z" fill="#00843D"/>
<path d="M12.2432 8.91846L12.0011 9.13502L11.7589 8.91846L11.7583 9.19194L11.4824 8.98334V13.0985L11.7583 12.8899L11.7589 13.1634L12.0011 12.9468L12.2432 13.1634L12.2438 12.8899L12.5197 13.0985V8.98334L12.2438 9.19194L12.2432 8.91846Z" fill="#00843D"/>
<path d="M14.3855 9.90704L14.3848 9.6792L14.132 9.86236L14.1234 9.85616L13.8791 9.6792L13.8784 9.90704L13.6133 9.71508V12.3663L13.8784 12.1743L13.8791 12.4022L14.132 12.219L14.3848 12.4022L14.3855 12.1743L14.6507 12.3663V11.2682H14.9615V10.8131H14.6507V9.71508L14.3855 9.90704Z" fill="#00843D"/>
<path d="M7.90703 9.3075L8.13219 9.50978L8.35735 9.3075L8.35802 9.54638L8.65086 9.36026V12.7211L8.35802 12.535L8.35735 12.7739L8.13219 12.5716L7.90703 12.7739L7.90637 12.535L7.61353 12.7211V9.36026L7.90637 9.54638L7.90703 9.3075Z" fill="#FFC72C"/>
<path d="M10.1145 8.92185L9.74438 8.58453V13.4967L10.1145 13.1594V13.5681L10.5977 13.2575H10.5978L11.081 13.5681V13.1594L11.4511 13.4967V8.58453L11.081 8.92185V8.51309L10.5978 8.82377H10.5977L10.1145 8.51309V8.92185Z" fill="#FFC72C"/>
<path d="M13.291 9.30753L13.0658 9.50981L12.8406 9.30753L12.84 9.54641L12.5471 9.36029V12.7211L12.84 12.535L12.8406 12.7739L13.0658 12.5716L13.291 12.7739L13.2916 12.535L13.5845 12.7211V9.36029L13.2916 9.54641L13.291 9.30753Z" fill="#FFC72C"/>
<path d="M6.9534 10.5578C6.98576 10.5904 7.02444 10.6069 7.06836 10.6069C7.11224 10.6069 7.15092 10.5904 7.18332 10.5578C7.28456 10.4558 7.28796 10.2713 7.28696 10.1385C7.28696 10.1385 7.16992 10.2622 7.1488 10.2845C7.13408 10.2591 7.06836 10.1456 7.06836 10.1456C7.06836 10.1456 7.00264 10.2591 6.98788 10.2845C6.96676 10.2622 6.84972 10.1385 6.84972 10.1385C6.84872 10.2713 6.85216 10.4558 6.9534 10.5578Z" fill="#383739"/>
<path d="M8.06628 10.2722L7.981 10.187V10.0172L7.78516 10.1987L8.13524 10.5488L8.48532 10.1987L8.28948 10.0172V10.187L8.20424 10.2722V9.97142L8.35524 9.84178L8.13524 9.65286L7.91524 9.84178L8.06628 9.97142V10.2722Z" fill="#383739"/>
<path d="M9.13093 9.93478L9.04569 9.84954V9.67978L8.84985 9.8613L9.19993 10.2114L9.55001 9.8613L9.35417 9.67978V9.84954L9.26889 9.93478V9.63398L9.41993 9.50434L9.19993 9.31546L8.97993 9.50434L9.13093 9.63398V9.93478Z" fill="#383739"/>
<path d="M7.06771 10.2027C7.08519 10.2328 7.14259 10.332 7.14259 10.332C7.14259 10.332 7.22347 10.2465 7.25651 10.2116C7.25255 10.3615 7.21963 10.48 7.16239 10.5376C7.13555 10.5647 7.10371 10.5784 7.06771 10.5784C7.03167 10.5784 6.99983 10.5647 6.97303 10.5377C6.91579 10.48 6.88287 10.3615 6.87891 10.2116C6.91191 10.2465 6.99279 10.332 6.99279 10.332C7.01775 10.2889 7.04275 10.2457 7.06771 10.2027Z" fill="white"/>
<path d="M9.23995 9.62082V10.0037L9.38235 9.86134V9.74518L9.50842 9.86206L9.19955 10.1709L8.89062 9.86206L9.01671 9.74518V9.86134L9.15911 10.0037V9.62082L9.02339 9.5043L9.19955 9.35306L9.37567 9.5043L9.23995 9.62082Z" fill="white"/>
<path d="M8.17549 9.95822V10.3411L8.31789 10.1987V10.0826L8.44397 10.1994L8.13505 10.5083L7.82617 10.1994L7.95225 10.0826V10.1987L8.09465 10.3411V9.95822L7.95893 9.8417L8.13505 9.69046L8.31121 9.8417L8.17549 9.95822Z" fill="#D22630"/>
<path d="M14.2458 10.5578C14.2135 10.5904 14.1748 10.6069 14.1309 10.6069C14.087 10.6069 14.0483 10.5904 14.0159 10.5578C13.9147 10.4558 13.9113 10.2713 13.9123 10.1385C13.9123 10.1385 14.0293 10.2622 14.0504 10.2845C14.0651 10.2591 14.1309 10.1456 14.1309 10.1456C14.1309 10.1456 14.1966 10.2591 14.2113 10.2845C14.2325 10.2622 14.3495 10.1385 14.3495 10.1385C14.3505 10.2713 14.3471 10.4558 14.2458 10.5578Z" fill="#383739"/>
<path d="M13.1329 10.2722L13.2182 10.187V10.0172L13.4141 10.1987L13.064 10.5488L12.7139 10.1987L12.9097 10.0172V10.187L12.995 10.2722V9.97139L12.844 9.84175L13.064 9.65283L13.284 9.84175L13.1329 9.97139V10.2722Z" fill="#383739"/>
<path d="M12.0683 9.93475L12.1535 9.84951V9.67975L12.3494 9.86127L11.9993 10.2114L11.6492 9.86127L11.845 9.67975V9.84951L11.9303 9.93475V9.63395L11.7793 9.50431L11.9993 9.31543L12.2193 9.50431L12.0683 9.63395V9.93475Z" fill="#383739"/>
<path d="M14.1315 10.2026C14.114 10.2328 14.0566 10.332 14.0566 10.332C14.0566 10.332 13.9758 10.2464 13.9427 10.2116C13.9467 10.3615 13.9796 10.48 14.0368 10.5376C14.0637 10.5646 14.0955 10.5784 14.1315 10.5784C14.1676 10.5784 14.1994 10.5646 14.2262 10.5376C14.2834 10.48 14.3164 10.3615 14.3203 10.2116C14.2873 10.2465 14.2064 10.332 14.2064 10.332C14.1815 10.2888 14.1565 10.2457 14.1315 10.2026Z" fill="white"/>
<path d="M11.9593 9.62079V10.0037L11.8169 9.86131V9.74515L11.6908 9.86203L11.9997 10.1709L12.3086 9.86203L12.1825 9.74515V9.86131L12.0401 10.0037V9.62079L12.1758 9.50427L11.9997 9.35303L11.8236 9.50427L11.9593 9.62079Z" fill="white"/>
<path d="M13.0237 9.95819V10.3411L12.8813 10.1987V10.0825L12.7552 10.1994L13.0642 10.5083L13.373 10.1994L13.247 10.0825V10.1987L13.1046 10.3411V9.95819L13.2403 9.84167L13.0642 9.69043L12.888 9.84167L13.0237 9.95819Z" fill="#D22630"/>
<path d="M11.0194 10.0627L10.9048 9.9042L11.1988 9.63271L10.9246 9.40744V9.56703L10.81 9.66515V9.37568L11.069 9.18476L10.6004 8.83936L10.1318 9.18476L10.3909 9.37568V9.66515L10.2762 9.56703V9.40744L10.002 9.63271L10.2961 9.9042L10.1814 10.0627H11.0194Z" fill="#383739"/>
<path d="M10.2368 10.0342L10.3335 9.90052L10.0449 9.63412L10.247 9.46804V9.58032L10.4189 9.72736V9.36136L10.1794 9.18488L10.5998 8.875L11.0203 9.18488L10.7808 9.36136V9.72736L10.9526 9.58032V9.46804L11.1548 9.63412L10.8662 9.90052L10.963 10.0342H10.2368Z" fill="#D22630"/>
<path d="M10.3848 9.1847L10.5989 9.3425L10.813 9.1847L10.5989 9.02686L10.5904 9.03314L10.3848 9.1847Z" fill="#383739"/>
<path d="M10.5994 9.0625C10.6136 9.0729 10.7404 9.16638 10.7654 9.18482C10.7404 9.20326 10.6136 9.29674 10.5994 9.30714C10.5853 9.29674 10.4585 9.20326 10.4335 9.18482C10.4585 9.16638 10.5853 9.0729 10.5994 9.0625Z" fill="#00843D"/>
<path d="M6.9534 11.5233C6.98576 11.4907 7.02444 11.4742 7.06836 11.4742C7.11224 11.4742 7.15092 11.4907 7.18332 11.5233C7.28456 11.6253 7.28796 11.8098 7.28696 11.9426C7.28696 11.9426 7.16992 11.8189 7.1488 11.7966C7.13408 11.822 7.06836 11.9355 7.06836 11.9355C7.06836 11.9355 7.00264 11.822 6.98788 11.7966C6.96676 11.8189 6.84972 11.9426 6.84972 11.9426C6.84872 11.8098 6.85216 11.6253 6.9534 11.5233Z" fill="#383739"/>
<path d="M8.06628 11.8089L7.981 11.8941V12.0639L7.78516 11.8824L8.13524 11.5323L8.48532 11.8824L8.28948 12.0639V11.8941L8.20424 11.8089V12.1097L8.35524 12.2393L8.13524 12.4283L7.91524 12.2393L8.06628 12.1097V11.8089Z" fill="#383739"/>
<path d="M9.13093 12.1463L9.04569 12.2316V12.4013L8.84985 12.2198L9.19993 11.8697L9.55001 12.2198L9.35417 12.4013V12.2316L9.26889 12.1463V12.4471L9.41993 12.5768L9.19993 12.7657L8.97993 12.5768L9.13093 12.4471V12.1463Z" fill="#383739"/>
<path d="M7.06771 11.8784C7.08519 11.8483 7.14259 11.7491 7.14259 11.7491C7.14259 11.7491 7.22347 11.8346 7.25651 11.8695C7.25255 11.7196 7.21963 11.6011 7.16239 11.5435C7.13555 11.5164 7.10371 11.5027 7.06771 11.5027C7.03167 11.5027 6.99983 11.5164 6.97303 11.5434C6.91579 11.6011 6.88287 11.7196 6.87891 11.8695C6.91191 11.8346 6.99279 11.7491 6.99279 11.7491C7.01775 11.7922 7.04275 11.8354 7.06771 11.8784Z" fill="white"/>
<path d="M9.23995 12.4603V12.0774L9.38235 12.2198V12.3359L9.50842 12.2191L9.19955 11.9102L8.89062 12.2191L9.01671 12.3359V12.2198L9.15911 12.0774V12.4603L9.02339 12.5768L9.19955 12.7281L9.37567 12.5768L9.23995 12.4603Z" fill="white"/>
<path d="M8.17549 12.1229V11.74L8.31789 11.8824V11.9985L8.44397 11.8817L8.13505 11.5728L7.82617 11.8817L7.95225 11.9985V11.8824L8.09465 11.74V12.1229L7.95893 12.2394L8.13505 12.3907L8.31121 12.2394L8.17549 12.1229Z" fill="#D22630"/>
<path d="M14.2458 11.5233C14.2135 11.4907 14.1748 11.4741 14.1309 11.4741C14.087 11.4741 14.0483 11.4907 14.0159 11.5233C13.9147 11.6253 13.9113 11.8098 13.9123 11.9425C13.9123 11.9425 14.0293 11.8189 14.0504 11.7965C14.0651 11.822 14.1309 11.9355 14.1309 11.9355C14.1309 11.9355 14.1966 11.822 14.2113 11.7965C14.2325 11.8189 14.3495 11.9425 14.3495 11.9425C14.3505 11.8098 14.3471 11.6253 14.2458 11.5233Z" fill="#383739"/>
<path d="M13.1329 11.8089L13.2182 11.8941V12.0639L13.4141 11.8823L13.064 11.5323L12.7139 11.8823L12.9097 12.0639V11.8941L12.995 11.8089V12.1097L12.844 12.2393L13.064 12.4282L13.284 12.2393L13.1329 12.1097V11.8089Z" fill="#383739"/>
<path d="M12.0683 12.1463L12.1535 12.2315V12.4013L12.3494 12.2198L11.9993 11.8697L11.6492 12.2198L11.845 12.4013V12.2315L11.9303 12.1463V12.4471L11.7793 12.5767L11.9993 12.7656L12.2193 12.5767L12.0683 12.4471V12.1463Z" fill="#383739"/>
<path d="M14.1315 11.8784C14.114 11.8483 14.0566 11.7491 14.0566 11.7491C14.0566 11.7491 13.9758 11.8346 13.9427 11.8695C13.9467 11.7195 13.9796 11.6011 14.0368 11.5435C14.0637 11.5164 14.0955 11.5027 14.1315 11.5027C14.1676 11.5027 14.1994 11.5164 14.2262 11.5434C14.2834 11.6011 14.3164 11.7195 14.3203 11.8695C14.2873 11.8346 14.2064 11.7491 14.2064 11.7491C14.1815 11.7922 14.1565 11.8353 14.1315 11.8784Z" fill="white"/>
<path d="M11.9593 12.4603V12.0774L11.8169 12.2197V12.3359L11.6908 12.219L11.9997 11.9101L12.3086 12.219L12.1825 12.3359V12.2197L12.0401 12.0774V12.4603L12.1758 12.5768L11.9997 12.728L11.8236 12.5768L11.9593 12.4603Z" fill="white"/>
<path d="M13.0237 12.1229V11.74L12.8813 11.8824V11.9985L12.7552 11.8817L13.0642 11.5727L13.373 11.8817L13.247 11.9985V11.8824L13.1046 11.74V12.1229L13.2403 12.2394L13.0642 12.3906L12.888 12.2394L13.0237 12.1229Z" fill="#D22630"/>
<path d="M11.0194 12.0184L10.9048 12.1769L11.1988 12.4483L10.9246 12.6736V12.514L10.81 12.4159V12.7054L11.069 12.8963L10.6004 13.2417L10.1318 12.8963L10.3909 12.7054V12.4159L10.2762 12.514V12.6736L10.002 12.4483L10.2961 12.1769L10.1814 12.0184H11.0194Z" fill="#383739"/>
<path d="M10.2368 12.0468L10.3335 12.1805L10.0449 12.4469L10.247 12.613V12.5007L10.4189 12.3537V12.7197L10.1794 12.8962L10.5998 13.2061L11.0203 12.8962L10.7808 12.7197V12.3537L10.9526 12.5007V12.613L11.1548 12.4469L10.8662 12.1805L10.963 12.0468H10.2368Z" fill="#D22630"/>
<path d="M10.3848 12.8964L10.5989 12.7386L10.813 12.8964L10.5989 13.0542L10.5904 13.0479L10.3848 12.8964Z" fill="#383739"/>
<path d="M10.5994 13.0186C10.6136 13.0082 10.7404 12.9147 10.7654 12.8962C10.7404 12.8778 10.6136 12.7843 10.5994 12.7739C10.5853 12.7843 10.4585 12.8778 10.4335 12.8962C10.4585 12.9147 10.5853 13.0082 10.5994 13.0186Z" fill="#00843D"/>
<path d="M14.3938 10.8767H13.9246V10.6897H12.4906L11.4923 10.0339H11.4881H9.708L8.70976 10.6897H7.27568V10.8767H6.80652V11.2045H7.27568V11.3915H8.70976L9.708 12.0473H11.4923L12.4906 11.3915H13.9246V11.2045H14.3938V10.8767Z" fill="#383739"/>
<path d="M9.71534 10.0635L8.71604 10.7167H7.30362V10.9039H6.83398V11.1758H7.30362V11.3629H8.71604L9.71534 12.0197H11.4844L12.4802 11.3629H13.8961V11.1758H14.3657V10.9039H13.8961V10.7167H12.4802L11.4844 10.0635H9.71534ZM9.73652 10.1588H11.4597L12.3742 10.7591V10.8509H13.3947V11.2323H12.3742V11.3241L11.4597 11.9208H9.73652L8.82551 11.3241V11.2323H7.8015V10.8509H8.82551V10.7591L9.73652 10.1588Z" fill="#D22630"/>
<path d="M11.4532 10.1884L12.3451 10.7739V10.8779H13.3672V11.2032H12.3451V11.3072L11.4532 11.8927H9.74619L8.85427 11.3072V11.2032H7.83215V10.8779H8.85427V10.7739L9.74619 10.1884H11.4532Z" fill="#D22630"/>
<path d="M9.30444 11.373L9.69064 11.663L9.94468 11.4722L9.79701 11.3613L9.69064 11.4412L9.59984 11.373L11.0542 10.2811H10.7588L9.30444 11.373ZM10.1474 11.7998H10.4428L11.8972 10.7078L11.511 10.418L11.257 10.6087L11.4046 10.7195L11.511 10.6396L11.6018 10.7078L10.1474 11.7998ZM10.7588 11.7998H11.0542L9.59984 10.7078L9.69064 10.6396L9.797 10.7195L9.94468 10.6087L9.69064 10.418L9.30444 10.7078L10.7588 11.7998ZM11.6018 11.373L11.511 11.4412L11.4046 11.3613L11.257 11.4722L11.511 11.663L11.8972 11.373L10.4428 10.2811H10.1474L11.6018 11.373Z" fill="#383739"/>
<path d="M9.01147 11.0404L9.27103 11.2128L9.53059 11.0404L9.27103 10.868L9.01147 11.0404Z" fill="#383739"/>
<path d="M10.3416 11.0404L10.6011 11.2128L10.8607 11.0404L10.6011 10.868L10.3416 11.0404Z" fill="#383739"/>
<path d="M12.1888 11.0404L11.9292 11.2128L11.6697 11.0404L11.9292 10.868L12.1888 11.0404Z" fill="#383739"/>
<path d="M11.8489 11.3733L11.5103 11.6275L11.3038 11.4724L11.4039 11.3973L11.5103 11.4771L11.6487 11.3733L10.2324 10.3099H10.4326L11.8489 11.3733ZM10.9678 11.7714H10.7676L9.35132 10.7081L9.68992 10.4539L9.89636 10.6089L9.79628 10.684L9.68992 10.6041L9.55152 10.7081L10.9678 11.7714ZM10.4326 11.7714H10.2324L11.6487 10.7081L11.5103 10.6041L11.4039 10.684L11.3038 10.6089L11.5103 10.4539L11.8489 10.7081L10.4326 11.7714ZM10.7676 10.3099H10.9678L9.55152 11.3733L9.68992 11.4771L9.79628 11.3973L9.89636 11.4724L9.68992 11.6275L9.35132 11.3733L10.7676 10.3099Z" fill="#FFC72C"/>
<path d="M9.27018 10.9022L9.4781 11.0403L9.27018 11.1784L9.06226 11.0403L9.27018 10.9022Z" fill="#00843D"/>
<path d="M10.6001 10.9024L10.808 11.0405L10.6001 11.1785L10.3922 11.0405L10.6001 10.9024Z" fill="#00843D"/>
<path d="M11.9303 10.9022L11.7224 11.0403L11.9303 11.1784L12.1382 11.0403L11.9303 10.9022Z" fill="#00843D"/>
<path d="M6.03376 18.2766L5.93192 18.4206L6.11448 18.5602L5.93188 18.6998L6.03372 18.8439L6.24584 18.8685L6.45124 18.7098L6.96337 19.0351V18.765L6.64105 18.5602L6.96337 18.3555V18.0853L6.45124 18.4106L6.24584 18.252L6.03376 18.2766Z" fill="#383739"/>
<path d="M6.03376 17.3381L5.93192 17.4822L6.11448 17.6218L5.93188 17.7614L6.03372 17.9055L6.24584 17.93L6.45124 17.7713L6.96337 18.0967V17.8265L6.64105 17.6218L6.96337 17.417V17.1469L6.45124 17.4722L6.24584 17.3135L6.03376 17.3381Z" fill="#383739"/>
<path d="M6.03376 19.7824L5.93192 19.6383L6.11448 19.4987L5.93188 19.3591L6.03372 19.215L6.24584 19.1904L6.45124 19.3491L6.96337 19.0238V19.294L6.64105 19.4987L6.96337 19.7034V19.9736L6.45124 19.6483L6.24584 19.807L6.03376 19.7824Z" fill="#383739"/>
<path d="M15.1643 18.2768L15.2661 18.4208L15.0835 18.5604L15.2661 18.7001L15.1643 18.8441L14.9522 18.8687L14.7468 18.71L14.2346 19.0353V18.7652L14.557 18.5604L14.2346 18.3557V18.0855L14.7468 18.4109L14.9522 18.2522L15.1643 18.2768Z" fill="#383739"/>
<path d="M15.1643 17.3383L15.2661 17.4824L15.0835 17.622L15.2661 17.7616L15.1643 17.9057L14.9522 17.9303L14.7468 17.7715L14.2346 18.0969V17.8267L14.557 17.622L14.2346 17.4172V17.1471L14.7468 17.4724L14.9522 17.3137L15.1643 17.3383Z" fill="#383739"/>
<path d="M15.1643 19.7826L15.2661 19.6385L15.0835 19.4989L15.2661 19.3593L15.1643 19.2153L14.9522 19.1907L14.7468 19.3493L14.2346 19.024V19.2942L14.557 19.4989L14.2346 19.7037V19.9738L14.7468 19.6485L14.9522 19.8072L15.1643 19.7826Z" fill="#383739"/>
<path d="M13.1135 15.7149V16.1053H13.3975V16.2779H13.6764V15.9637H13.4276V15.7149H13.1135Z" fill="#383739"/>
<path d="M13.9517 16.3308V16.7212H14.2353V16.8938H14.5146V16.5796H14.2658V16.3308H13.9517Z" fill="#383739"/>
<path d="M8.08465 15.7149V16.1053H7.80061V16.2779H7.52173V15.9637H7.77049V15.7149H8.08465Z" fill="#383739"/>
<path d="M13.1135 21.4053V21.0149H13.3975V20.8424H13.6764V21.1565H13.4276V21.4053H13.1135Z" fill="#383739"/>
<path d="M8.08465 21.4053V21.0149H7.80061V20.8424H7.52173V21.1565H7.77049V21.4053H8.08465Z" fill="#383739"/>
<path d="M13.9517 20.7898V20.3994H14.2353V20.2268H14.5146V20.541H14.2658V20.7898H13.9517Z" fill="#383739"/>
<path d="M7.24676 16.3307V16.721H6.963V16.8936H6.68384V16.5794H6.9326V16.3307H7.24676Z" fill="#383739"/>
<path d="M7.24676 20.7896V20.3992H6.963V20.2267H6.68384V20.5408H6.9326V20.7896H7.24676Z" fill="#383739"/>
<path d="M11.6498 15.7061C11.6317 15.6885 11.4331 15.4957 11.4331 15.4957L11.2202 15.6929C11.2202 15.6929 11.387 15.8548 11.4058 15.8731L11.1663 16.1056H11.5219L11.6498 15.9813L11.7778 16.1056H12.1333L11.8938 15.8731C11.9126 15.8548 12.0793 15.6929 12.0793 15.6929L11.8665 15.4957C11.7942 15.5657 11.722 15.6359 11.6498 15.7061Z" fill="#383739"/>
<path d="M10.599 15.7061C10.5809 15.6885 10.3823 15.4957 10.3823 15.4957L10.1694 15.6929C10.1694 15.6929 10.3362 15.8548 10.355 15.8731L10.1155 16.1056H10.471L10.599 15.9813L10.727 16.1056H11.0825L10.843 15.8731C10.8618 15.8548 11.0286 15.6929 11.0286 15.6929L10.8157 15.4957C10.7434 15.5657 10.6712 15.6359 10.599 15.7061Z" fill="#383739"/>
<path d="M9.55017 15.7061C9.56829 15.6885 9.76689 15.4957 9.76689 15.4957L9.97977 15.6929C9.97977 15.6929 9.81297 15.8548 9.79421 15.8731L10.0337 16.1056H9.67813L9.55017 15.9813L9.42221 16.1056H9.06665L9.30617 15.8731C9.28741 15.8548 9.12061 15.6929 9.12061 15.6929L9.33349 15.4957C9.40581 15.5657 9.47797 15.6359 9.55017 15.7061Z" fill="#383739"/>
<path d="M11.6498 21.4143C11.6317 21.4319 11.4331 21.6247 11.4331 21.6247L11.2202 21.4275C11.2202 21.4275 11.387 21.2656 11.4058 21.2474L11.1663 21.0149H11.5219L11.6498 21.1391L11.7778 21.0149H12.1333L11.8938 21.2474C11.9126 21.2656 12.0793 21.4275 12.0793 21.4275L11.8665 21.6247C11.7942 21.5547 11.722 21.4845 11.6498 21.4143Z" fill="#383739"/>
<path d="M10.599 21.4142C10.5809 21.4318 10.3823 21.6246 10.3823 21.6246L10.1694 21.4273C10.1694 21.4273 10.3362 21.2655 10.355 21.2473L10.1155 21.0147H10.471L10.599 21.139L10.727 21.0147H11.0825L10.843 21.2473C10.8618 21.2655 11.0286 21.4273 11.0286 21.4273L10.8157 21.6246C10.7434 21.5545 10.6712 21.4843 10.599 21.4142Z" fill="#383739"/>
<path d="M9.55017 21.4142C9.56829 21.4318 9.76689 21.6246 9.76689 21.6246L9.97977 21.4273C9.97977 21.4273 9.81297 21.2655 9.79421 21.2473L10.0337 21.0147H9.67813L9.55017 21.139L9.42221 21.0147H9.06665L9.30617 21.2473C9.28741 21.2655 9.12061 21.4273 9.12061 21.4273L9.33349 21.6246C9.40581 21.5545 9.47797 21.4843 9.55017 21.4142Z" fill="#383739"/>
<path d="M6.93634 18.7808V18.9832L6.45114 18.675L6.2391 18.8389L6.05122 18.8171L5.97266 18.7059L6.16306 18.5603L5.97266 18.4147L6.05126 18.3036L6.2391 18.2818L6.45114 18.4456L6.93634 18.1374V18.3398L6.58926 18.5603L6.93634 18.7808Z" fill="#00843D"/>
<path d="M6.93634 17.8422V18.0447L6.45114 17.7365L6.2391 17.9004L6.05122 17.8786L5.97266 17.7674L6.16306 17.6218L5.97266 17.4762L6.05126 17.3651L6.2391 17.3432L6.45114 17.5071L6.93634 17.1989V17.4014L6.58926 17.6218L6.93634 17.8422Z" fill="#00843D"/>
<path d="M6.93634 19.2784V19.076L6.45114 19.3842L6.2391 19.2203L6.05122 19.2421L5.97266 19.3533L6.16306 19.4989L5.97266 19.6445L6.05126 19.7556L6.2391 19.7774L6.45114 19.6136L6.93634 19.9218V19.7194L6.58926 19.4989L6.93634 19.2784Z" fill="#00843D"/>
<path d="M14.2655 18.7808V18.9832L14.7507 18.675L14.9627 18.8389L15.1506 18.8171L15.2291 18.7059L15.0387 18.5603L15.2291 18.4147L15.1506 18.3036L14.9627 18.2818L14.7507 18.4456L14.2655 18.1374V18.3398L14.6125 18.5603L14.2655 18.7808Z" fill="#00843D"/>
<path d="M14.2655 17.8422V18.0447L14.7507 17.7365L14.9627 17.9004L15.1506 17.8786L15.2291 17.7674L15.0387 17.6218L15.2291 17.4762L15.1506 17.3651L14.9627 17.3432L14.7507 17.5071L14.2655 17.1989V17.4014L14.6125 17.6218L14.2655 17.8422Z" fill="#00843D"/>
<path d="M14.2655 19.2784V19.076L14.7507 19.3842L14.9627 19.2203L15.1506 19.2421L15.2291 19.3533L15.0387 19.4989L15.2291 19.6445L15.1506 19.7556L14.9627 19.7774L14.7507 19.6136L14.2655 19.9218V19.7194L14.6125 19.4989L14.2655 19.2784Z" fill="#00843D"/>
<path d="M13.4017 15.7438V15.9926H13.6504V16.2496H13.4287V16.0771H13.1447V15.7438H13.4017Z" fill="#00843D"/>
<path d="M14.2394 16.3594V16.6081H14.4882V16.8652H14.2664V16.6927H13.9824V16.3594H14.2394Z" fill="#00843D"/>
<path d="M7.79954 15.7437V15.9925H7.55078V16.2495H7.77258V16.0769H8.05654V15.7437H7.79954Z" fill="#00843D"/>
<path d="M13.4017 21.3767V21.1279H13.6504V20.8709H13.4287V21.0435H13.1447V21.3767H13.4017Z" fill="#00843D"/>
<path d="M7.79958 21.3769V21.1281H7.55078V20.8711H7.77258V21.0436H8.05658V21.3769H7.79958Z" fill="#00843D"/>
<path d="M14.2394 20.7611V20.5124H14.4882V20.2554H14.2664V20.4279H13.9824V20.7611H14.2394Z" fill="#00843D"/>
<path d="M6.9636 16.3594V16.6081H6.71484V16.8652H6.93664V16.6927H7.2206V16.3594H6.9636Z" fill="#00843D"/>
<path d="M6.96364 20.7611V20.5124H6.71484V20.2554H6.93664V20.4279H7.22064V20.7611H6.96364Z" fill="#00843D"/>
<path d="M11.434 15.5352C11.4517 15.5524 11.6511 15.746 11.6511 15.746C11.6511 15.746 11.8505 15.5524 11.8682 15.5352C11.885 15.5507 12.0206 15.6763 12.0392 15.6935C12.02 15.7121 11.8541 15.8731 11.8541 15.8731L12.0642 16.0771H11.7907L11.6511 15.9416L11.5115 16.0771H11.238L11.4481 15.8731C11.4481 15.8731 11.2822 15.7121 11.263 15.6935C11.2816 15.6763 11.4172 15.5507 11.434 15.5352Z" fill="#00843D"/>
<path d="M10.3835 15.5352C10.4012 15.5524 10.6006 15.746 10.6006 15.746C10.6006 15.746 10.8 15.5524 10.8177 15.5352C10.8345 15.5507 10.9701 15.6763 10.9886 15.6935C10.9695 15.7121 10.8036 15.8731 10.8036 15.8731L11.0137 16.0771H10.7401L10.6006 15.9416L10.461 16.0771H10.1875L10.3976 15.8731C10.3976 15.8731 10.2317 15.7121 10.2125 15.6935C10.2311 15.6763 10.3667 15.5507 10.3835 15.5352Z" fill="#00843D"/>
<path d="M9.76692 15.5352C9.74916 15.5524 9.54976 15.746 9.54976 15.746C9.54976 15.746 9.35036 15.5524 9.33264 15.5352C9.31584 15.5507 9.18028 15.6763 9.16172 15.6935C9.18092 15.7121 9.3468 15.8731 9.3468 15.8731L9.13672 16.0771H9.4102L9.54976 15.9416L9.68936 16.0771H9.96284L9.75276 15.8731C9.75276 15.8731 9.91864 15.7121 9.93784 15.6935C9.91928 15.6763 9.78372 15.5507 9.76692 15.5352Z" fill="#00843D"/>
<path d="M11.434 21.5854C11.4517 21.5682 11.6511 21.3746 11.6511 21.3746C11.6511 21.3746 11.8505 21.5682 11.8682 21.5854C11.885 21.5699 12.0206 21.4443 12.0392 21.4271C12.02 21.4085 11.8541 21.2475 11.8541 21.2475L12.0642 21.0435H11.7907L11.6511 21.179L11.5115 21.0435H11.238L11.4481 21.2475C11.4481 21.2475 11.2822 21.4085 11.263 21.4271C11.2816 21.4443 11.4172 21.5699 11.434 21.5854Z" fill="#00843D"/>
<path d="M10.3835 21.5854C10.4012 21.5681 10.6006 21.3745 10.6006 21.3745C10.6006 21.3745 10.8 21.5681 10.8177 21.5854C10.8345 21.5698 10.9701 21.4442 10.9886 21.4271C10.9695 21.4084 10.8036 21.2474 10.8036 21.2474L11.0137 21.0435H10.7401L10.6006 21.1789L10.461 21.0435H10.1875L10.3976 21.2474C10.3976 21.2474 10.2317 21.4084 10.2125 21.4271C10.2311 21.4442 10.3667 21.5698 10.3835 21.5854Z" fill="#00843D"/>
<path d="M9.76692 21.5854C9.74916 21.5681 9.54976 21.3745 9.54976 21.3745C9.54976 21.3745 9.35036 21.5681 9.33264 21.5854C9.31584 21.5698 9.18028 21.4442 9.16172 21.4271C9.18092 21.4084 9.3468 21.2474 9.3468 21.2474L9.13672 21.0435H9.4102L9.54976 21.1789L9.68936 21.0435H9.96284L9.75276 21.2474C9.75276 21.2474 9.91864 21.4084 9.93784 21.4271C9.91928 21.4442 9.78372 21.5698 9.76692 21.5854Z" fill="#00843D"/>
<path d="M7.77227 20.428V21.0436H13.428V20.428H14.2647V16.6927H13.428V16.0771H7.77227V16.6927H6.93555V20.428H7.77227Z" fill="#383739"/>
<path d="M7.8017 16.105V16.7195H6.96484V20.3988H7.8017V21.0133H13.3984V20.3988H14.2354V16.7194H13.3984V16.105L7.8017 16.105ZM8.16187 16.3416H13.0383V16.9348L13.2396 17.0832H13.9988V20.0387H13.2361L13.0383 20.1834V20.7802H8.16188V20.1869L7.96061 20.0387H7.19789V17.0832H7.95708L8.16188 16.9348L8.16187 16.3416Z" fill="#FFC72C"/>
<path d="M8.19082 16.3701V16.9139L8.92529 16.3701H8.19082ZM12.2727 16.3701L13.0072 16.9139V16.3701H12.2727ZM7.23037 17.1117V17.6201L7.92246 17.1117H7.23037ZM13.2756 17.1117L13.9712 17.6236V17.1117H13.2756ZM13.9712 19.4951L13.2756 20.0106H13.9712V19.4951ZM7.23035 19.4986V20.0106H7.92244L7.23035 19.4986ZM8.1908 20.2084V20.7486H8.92173L8.1908 20.2084ZM13.0071 20.2084L12.2763 20.7486H13.0071V20.2084Z" fill="#D22630"/>
<path d="M12.2252 16.3707C12.2327 16.3762 13.9596 17.6516 13.971 17.6601V19.4608C13.9596 19.4693 12.2327 20.7447 12.2252 20.7503H8.97456C8.96708 20.7447 7.24024 19.4693 7.22876 19.4608V17.6601C7.24024 17.6516 8.96708 16.3762 8.97456 16.3707H12.2252Z" fill="#00843D"/>
<path d="M7.64408 19.6681L7.44336 19.4352L7.6318 19.2165L7.44336 18.9978L7.6318 18.7792L7.44336 18.5605L7.6318 18.3418L7.44336 18.1231L7.63176 17.9045L7.44336 17.6858L7.64408 17.4529H13.5548L13.7556 17.6858L13.5671 17.9045L13.7556 18.1231L13.5671 18.3418L13.7556 18.5605L13.5671 18.7792L13.7556 18.9978L13.5671 19.2165L13.7556 19.4352L13.5548 19.6681H7.64408ZM11.7071 16.6524L11.4742 16.4517L11.2554 16.6401L11.0368 16.4517L10.8181 16.6401L10.5994 16.4517L10.3808 16.6401L10.1621 16.4517L9.94344 16.6401L9.72476 16.4517L9.4918 16.6524V20.4686L9.72476 20.6693L9.94344 20.4809L10.1621 20.6693L10.3808 20.4809L10.5994 20.6693L10.8181 20.4809L11.0368 20.6693L11.2554 20.4809L11.4742 20.6693L11.7071 20.4686V16.6524Z" fill="#383739"/>
<path d="M11.2426 16.6656L11.0383 16.4895L10.8339 16.6656V20.4556L11.0383 20.6317L11.2426 20.4556V16.6656Z" fill="#FFC72C"/>
<path d="M10.3677 16.6656L10.1633 16.4895L9.95898 16.6656V20.4556L10.1633 20.6317L10.3677 20.4556V16.6656Z" fill="#FFC72C"/>
<path d="M7.65838 19.6397L7.4823 19.4353L7.65838 19.2309H13.543L13.7191 19.4353L13.543 19.6397H7.65838Z" fill="#FFC72C"/>
<path d="M13.5429 18.3562L13.7191 18.5606L13.5429 18.7649H7.65842L7.4823 18.5606L7.65842 18.3562H13.5429Z" fill="#FFC72C"/>
<path d="M13.543 17.8903L13.7191 17.6859L13.543 17.4815H7.65838L7.4823 17.6859L7.65838 17.8903H13.543Z" fill="#FFC72C"/>
<path d="M11.6801 16.6656L11.4758 16.4895L11.2714 16.6656V20.4556L11.4758 20.6317L11.6801 20.4556L11.6801 16.6656Z" fill="#D22630"/>
<path d="M9.93016 16.6656L9.72576 16.4895L9.52136 16.6656V20.4556L9.72576 20.6317L9.93016 20.4556V16.6656Z" fill="#D22630"/>
<path d="M7.65842 19.2024L7.4823 18.998L7.65842 18.7936H13.5429L13.7191 18.998L13.5429 19.2024H7.65842Z" fill="#D22630"/>
<path d="M7.65842 18.3277L7.4823 18.1233L7.65842 17.9189H13.5429L13.7191 18.1233L13.5429 18.3277H7.65842Z" fill="#D22630"/>
<path d="M10.805 20.4556L10.6006 20.6317L10.3962 20.4556V16.6656L10.6006 16.4895L10.805 16.6656V20.4556Z" fill="#D22630"/>
<path d="M12.5756 16.7393H8.61028V17.0542H8.10352V20.0665H8.61028V20.3814H12.5899V20.0665H13.0967V17.0542H12.5899V16.7393H12.5756Z" fill="#383739"/>
<path d="M8.63921 16.769V17.0834H8.13074V20.0389H8.63921V20.3531H9.05589L8.22608 19.6575V17.4646L9.05589 16.769H8.63921ZM12.1456 16.769L12.9718 17.4646V19.6575L12.1456 20.3531H12.5622V20.0389H13.0672V17.0834H12.5622V16.769L12.1456 16.769Z" fill="#D22630"/>
<path d="M9.10124 16.769C9.0934 16.7756 8.26382 17.4704 8.25378 17.4788V19.6433C8.26382 19.6518 9.0934 20.3465 9.10124 20.3531H12.0991C12.107 20.3465 12.933 19.6517 12.943 19.6433V17.4788C12.933 17.4704 12.107 16.7756 12.0991 16.769H9.10124ZM9.14362 16.8891H12.0532L12.823 17.5353V19.5868L12.0532 20.2295H9.14362L8.37738 19.5868V17.5353L9.14362 16.8891Z" fill="#00843D"/>
<path d="M9.91299 19.6191L10.0432 19.6754L10.0672 19.8275L9.90323 19.9718L10.1414 20.2021H9.91223L9.74839 20.0443L9.58451 20.2021H9.35535L9.59355 19.9718L9.42955 19.8275L9.45355 19.6754L9.58375 19.6191L9.74839 19.7508L9.75731 19.7437L9.91299 19.6191Z" fill="#00843D"/>
<path d="M10.7646 19.6191L10.8948 19.6754L10.9188 19.8275L10.7548 19.9718L10.993 20.2021H10.7638L10.5999 20.0443L10.4361 20.2021H10.2069L10.4451 19.9718L10.2811 19.8275L10.3051 19.6754L10.4353 19.6191L10.5999 19.7508L10.6089 19.7437L10.7646 19.6191Z" fill="#00843D"/>
<path d="M11.2849 19.6191L11.1547 19.6754L11.1307 19.8275L11.2947 19.9718L11.0565 20.2021H11.2857L11.4496 20.0443L11.6134 20.2021H11.8426L11.6044 19.9718L11.7684 19.8275L11.7444 19.6754L11.6142 19.6191L11.4496 19.7508L11.4406 19.7437L11.2849 19.6191Z" fill="#00843D"/>
<path d="M9.91299 17.5013L10.0432 17.4451L10.0672 17.293L9.90323 17.1487L10.1414 16.9185H9.91223L9.74839 17.0761L9.58451 16.9185H9.35535L9.59355 17.1487L9.42955 17.2929L9.45355 17.4451L9.58375 17.5013L9.74839 17.3697L9.75731 17.3769L9.91299 17.5013Z" fill="#00843D"/>
<path d="M10.7646 17.5013L10.8948 17.4451L10.9188 17.293L10.7548 17.1487L10.993 16.9185H10.7638L10.5999 17.0761L10.4361 16.9185H10.2069L10.4451 17.1487L10.2811 17.2929L10.3051 17.4451L10.4353 17.5013L10.5999 17.3697L10.6089 17.3769L10.7646 17.5013Z" fill="#00843D"/>
<path d="M11.2849 17.5013L11.1547 17.4451L11.1307 17.293L11.2947 17.1487L11.0565 16.9185H11.2857L11.4496 17.0761L11.6134 16.9185H11.8426L11.6044 17.1487L11.7684 17.2929L11.7444 17.4451L11.6142 17.5013L11.4496 17.3697L11.4406 17.3769L11.2849 17.5013Z" fill="#00843D"/>
<path d="M12.7935 17.7443L12.6635 17.852L12.7935 17.9596V18.138L12.5936 17.9732C12.5936 17.9732 12.4591 18.095 12.4501 18.1032C12.4386 18.1018 12.3091 18.0855 12.2963 18.0839C12.2905 18.0734 12.2501 17.9988 12.2421 17.9839C12.2555 17.9706 12.3745 17.852 12.3745 17.852C12.3745 17.852 12.2555 17.7333 12.2421 17.72C12.2501 17.705 12.2905 17.6304 12.2963 17.62C12.3091 17.6184 12.4386 17.602 12.4501 17.6006C12.4591 17.6088 12.5936 17.7306 12.5936 17.7306L12.7935 17.5659V17.7443Z" fill="#00843D"/>
<path d="M12.7935 18.4528L12.6635 18.5605L12.7935 18.668V18.8465L12.5936 18.6817C12.5936 18.6817 12.4591 18.8035 12.4501 18.8117C12.4386 18.8103 12.3091 18.794 12.2963 18.7924C12.2905 18.7819 12.2501 18.7073 12.2421 18.6924C12.2555 18.6791 12.3745 18.5605 12.3745 18.5605C12.3745 18.5605 12.2555 18.4418 12.2421 18.4284C12.2501 18.4135 12.2905 18.3389 12.2963 18.3284C12.3091 18.3269 12.4386 18.3105 12.4501 18.3091C12.4591 18.3173 12.5936 18.4391 12.5936 18.4391L12.7935 18.2744V18.4528Z" fill="#00843D"/>
<path d="M12.7935 19.3766L12.6635 19.269L12.7935 19.1614V18.9829L12.5936 19.1477C12.5936 19.1477 12.4591 19.0258 12.4501 19.0176C12.4386 19.0191 12.3091 19.0354 12.2963 19.037C12.2905 19.0475 12.2501 19.1221 12.2421 19.137C12.2555 19.1504 12.3745 19.269 12.3745 19.269C12.3745 19.269 12.2555 19.3876 12.2421 19.401C12.2501 19.4158 12.2905 19.4904 12.2963 19.501C12.3091 19.5026 12.4386 19.5188 12.4501 19.5203C12.4591 19.5121 12.5936 19.3903 12.5936 19.3903L12.7935 19.555V19.3766Z" fill="#00843D"/>
<path d="M8.40601 17.7445L8.53597 17.8521L8.40601 17.9597V18.1382L8.60593 17.9734C8.60593 17.9734 8.74037 18.0952 8.74941 18.1034C8.76089 18.102 8.89045 18.0857 8.90325 18.0841C8.90897 18.0735 8.94937 17.999 8.95745 17.9841C8.94405 17.9707 8.82505 17.8521 8.82505 17.8521C8.82505 17.8521 8.94405 17.7335 8.95745 17.7201C8.94937 17.7052 8.90897 17.6306 8.90325 17.6201C8.89045 17.6185 8.76089 17.6022 8.74941 17.6008C8.74037 17.609 8.60593 17.7308 8.60593 17.7308L8.40601 17.5661V17.7445Z" fill="#00843D"/>
<path d="M8.40601 18.4529L8.53597 18.5605L8.40601 18.6681V18.8466L8.60593 18.6818C8.60593 18.6818 8.74037 18.8036 8.74941 18.8118C8.76089 18.8104 8.89045 18.794 8.90325 18.7925C8.90897 18.782 8.94937 18.7074 8.95745 18.6925C8.94405 18.6791 8.82505 18.5605 8.82505 18.5605C8.82505 18.5605 8.94405 18.4418 8.95745 18.4285C8.94937 18.4136 8.90897 18.339 8.90325 18.3285C8.89045 18.3269 8.76089 18.3106 8.74941 18.3092C8.74037 18.3174 8.60593 18.4392 8.60593 18.4392L8.40601 18.2745V18.4529Z" fill="#00843D"/>
<path d="M8.40601 19.3764L8.53597 19.2688L8.40601 19.1612V18.9827L8.60593 19.1475C8.60593 19.1475 8.74037 19.0256 8.74941 19.0174C8.76089 19.0189 8.89045 19.0352 8.90325 19.0368C8.90897 19.0473 8.94937 19.1219 8.95745 19.1368C8.94405 19.1502 8.82505 19.2688 8.82505 19.2688C8.82505 19.2688 8.94405 19.3874 8.95745 19.4008C8.94937 19.4156 8.90897 19.4902 8.90325 19.5008C8.89045 19.5024 8.76089 19.5186 8.74941 19.5201C8.74037 19.5119 8.60593 19.3901 8.60593 19.3901L8.40601 19.5548V19.3764Z" fill="#00843D"/>
<path d="M9.15472 16.9174C9.147 16.9239 8.44791 17.5092 8.41673 17.5354C8.47974 17.5876 8.54069 17.6422 8.60387 17.6943C8.61986 17.6798 8.74158 17.5706 8.74158 17.5706L8.92166 17.5954L8.99229 17.726C8.99229 17.726 8.88245 17.8359 8.86517 17.8531C8.88245 17.8703 8.99229 17.9802 8.99229 17.9802L8.92166 18.1109L8.74158 18.1321C8.74158 18.1321 8.61987 18.0265 8.60387 18.012L8.40613 18.178V18.2345C8.47265 18.2895 8.53711 18.3454 8.60387 18.4004C8.61987 18.386 8.74158 18.2804 8.74158 18.2804L8.92166 18.3016L8.99229 18.4322C8.99229 18.4322 8.88245 18.5421 8.86517 18.5593C8.88245 18.5765 8.99229 18.6865 8.99229 18.6865L8.92166 18.8206L8.74158 18.8418C8.74158 18.8418 8.61987 18.7327 8.60387 18.7182L8.40613 18.8842V18.9442L8.60387 19.1102C8.61987 19.0957 8.74158 18.9866 8.74158 18.9866L8.92166 19.0113L8.99229 19.142C8.99229 19.142 8.88245 19.2519 8.86517 19.2691C8.88245 19.2863 8.99229 19.3962 8.99229 19.3962L8.92166 19.5269L8.74158 19.5516C8.74158 19.5516 8.61987 19.4425 8.60387 19.428C8.54094 19.4798 8.47951 19.5316 8.41672 19.5834C8.44791 19.6095 9.14699 20.1948 9.15471 20.2013H9.31714L9.55373 19.9718L9.40189 19.8376L9.43014 19.654L9.58904 19.5869L9.75146 19.714L9.91036 19.5869L10.0693 19.654L10.101 19.8376L9.94567 19.9718L10.1752 20.1907L10.4047 19.9718L10.2493 19.8376L10.2776 19.654L10.44 19.5869L10.5989 19.714L10.7614 19.5869L10.9203 19.654L10.9485 19.8376L10.7967 19.9718L11.0227 20.1942L11.2522 19.9718L11.1003 19.8376L11.1286 19.654L11.291 19.5869L11.4499 19.714L11.6088 19.5869L11.7712 19.654L11.7995 19.8376L11.6477 19.9718L11.8842 20.2013H12.0431C12.0508 20.1948 12.7499 19.6095 12.7811 19.5834C12.7182 19.5315 12.657 19.4799 12.594 19.428C12.578 19.4425 12.4598 19.5516 12.4598 19.5516L12.2797 19.5269L12.2056 19.3962C12.2056 19.3962 12.3154 19.2863 12.3327 19.2691C12.3154 19.2519 12.2056 19.142 12.2056 19.142L12.2797 19.0113L12.4598 18.9866C12.4598 18.9866 12.578 19.0957 12.594 19.1102L12.7917 18.9442V18.8842L12.594 18.7182C12.578 18.7327 12.4598 18.8418 12.4598 18.8418L12.2797 18.8206L12.2056 18.6865C12.2056 18.6865 12.3154 18.5765 12.3327 18.5593C12.3154 18.5421 12.2056 18.4322 12.2056 18.4322L12.2797 18.3016L12.4598 18.2804C12.4598 18.2804 12.578 18.386 12.594 18.4004C12.6603 18.3458 12.7256 18.2924 12.7917 18.238V18.1745L12.594 18.012C12.578 18.0265 12.4598 18.1321 12.4598 18.1321L12.2797 18.1109L12.2056 17.9802C12.2056 17.9802 12.3154 17.8703 12.3327 17.8531C12.3154 17.8359 12.2056 17.726 12.2056 17.726L12.2797 17.5954L12.4598 17.5706C12.4598 17.5706 12.578 17.6798 12.594 17.6942C12.6573 17.6421 12.7214 17.591 12.7847 17.5389C12.7603 17.5185 12.0509 16.9239 12.0431 16.9174H11.8842L11.6476 17.1469L11.7995 17.2811L11.7712 17.4647L11.6088 17.5353L11.4499 17.4082L11.291 17.5353L11.1286 17.4647L11.1003 17.2811L11.2522 17.1469L11.0262 16.928L10.7967 17.1469L10.9485 17.2811L10.9202 17.4647L10.7614 17.5353L10.5989 17.4082L10.44 17.5353L10.2776 17.4647L10.2493 17.2811L10.4047 17.1469L10.1752 16.928L9.94567 17.1469L10.101 17.2811L10.0693 17.4647L9.91036 17.5353L9.75146 17.4082L9.58903 17.5353L9.43014 17.4647L9.40189 17.2811L9.55372 17.1469L9.31361 16.9174L9.15472 16.9174ZM8.40613 18.4887V18.6335L8.49088 18.5594L8.40613 18.4887Z" fill="#D22630"/>
<path d="M9.75045 20.0849L9.62683 20.2014H9.87045L9.75045 20.0849Z" fill="white"/>
<path d="M10.5984 20.0849L10.4784 20.2014H10.722L10.5984 20.0849Z" fill="white"/>
<path d="M11.4496 20.0847L11.326 20.2012H11.5732L11.4496 20.0847Z" fill="white"/>
<path d="M9.62488 16.9174L9.752 17.0374L9.87561 16.9174H9.62488Z" fill="white"/>
<path d="M10.4745 16.9174L10.5981 17.0374L10.7252 16.9174H10.4745Z" fill="white"/>
<path d="M11.326 16.9174L11.4496 17.0374L11.5732 16.9174H11.326Z" fill="white"/>
<path d="M12.7915 17.7823L12.7068 17.853L12.7915 17.9201V17.7823Z" fill="white"/>
<path d="M12.7915 18.4885L12.7068 18.5591L12.7915 18.6298V18.4885Z" fill="white"/>
<path d="M12.7915 19.1983L12.7068 19.2689L12.7915 19.3395V19.1983Z" fill="white"/>
<path d="M8.40601 17.7789V17.9236L8.49075 17.853L8.40601 17.7789Z" fill="white"/>
<path d="M8.40601 18.4885V18.6333L8.49075 18.5591L8.40601 18.4885Z" fill="white"/>
<path d="M8.40601 19.1948V19.3396L8.49075 19.2689L8.40601 19.1948Z" fill="white"/>
<path d="M11.3265 18.3238V18.071H11.0707V17.7939H10.1286V18.071H9.87281V18.3238H9.51953V18.797H9.87281V19.0497H10.1286V19.3268H11.0707V19.0497H11.3265V18.797H11.6798V18.3238H11.3265Z" fill="#383739"/>
<path d="M10.5841 17.8223V18.1079L10.1792 18.3381V18.5459H9.54688V18.3521H9.90011V18.0994H10.1559V17.8223H10.5841Z" fill="#FFC72C"/>
<path d="M10.6133 19.2983V19.0127L11.0182 18.7824V18.5747H11.6505V18.7684H11.2973V19.0212H11.0415V19.2983H10.6133Z" fill="#FFC72C"/>
<path d="M11.0182 18.5459V18.3381L10.6133 18.1079V17.8223H11.0415V18.0994H11.2973V18.3521H11.6505V18.5459H11.0182Z" fill="white"/>
<path d="M9.54883 18.5747H10.1811V18.7824L10.5861 19.0127V19.2983H10.1579V19.0212H9.90207V18.7684H9.54883V18.5747Z" fill="white"/>
<path d="M10.2089 18.5748V18.7673L10.5852 18.9813V18.5748H10.2089Z" fill="#D22630"/>
<path d="M10.5852 18.1396L10.2089 18.3535V18.5461H10.5852V18.1396Z" fill="#00843D"/>
<path d="M10.9896 18.5462V18.3536L10.6133 18.1396V18.5462H10.9896Z" fill="#D22630"/>
<path d="M10.6133 18.9813L10.9896 18.7673V18.5747H10.6133V18.9813Z" fill="#00843D"/>
<path d="M7.17666 23.582V24.3631H6.4323V25.0716H5.67786V27.0888H6.4323V27.7973H7.17666V28.5784H9.88318L10.3591 28.8644L10.1304 29.0018H9.16534L9.0821 28.9079H9.9567L9.7103 28.6598H8.45922L9.02606 29.2499H10.1993L10.6 29.0091L11.0008 29.2499H12.1741L12.7409 28.6598H11.4898L11.2434 28.9079H12.118L12.0347 29.0018H11.0696L10.8409 28.8644L11.3169 28.5784H14.0234V27.7973H14.7678V27.0888H15.5222V25.0716H14.7678V24.3631H14.0234V23.582H11.3169L10.8409 23.296L11.0696 23.1586H12.0347L12.118 23.2524H11.2434L11.4898 23.5006H12.7409L12.1741 22.9104H11.0008L10.6 23.1512L10.1993 22.9104H9.02606L8.45922 23.5006H9.7103L9.9567 23.2524H9.0821L9.16534 23.1586H10.1304L10.3591 23.296L9.88318 23.582H7.17666Z" fill="#D22630"/>
<path d="M11.3088 28.5487H13.9959V27.7684H14.7374V27.0586H15.4931V25.0989H14.7374V24.3927H13.9959V23.6123H11.3088L10.1929 22.9379H9.03828L8.52627 23.4711H9.69859L9.88927 23.2804H9.01709L9.15128 23.1285H10.14L11.4041 23.8913H13.7134V24.6716H14.4585V25.3814H15.2141V26.7797H14.4585V27.4894H13.7134V28.2698H11.4041L10.14 29.029H9.15128L9.01709 28.8807H9.88927L9.69859 28.69H8.52627L9.03828 29.2232H10.1929L11.3088 28.5487ZM9.79394 28.2698H7.48462V27.4894H6.74309V26.7797H5.98744V25.3814H6.74309V24.6716H7.48462V23.8913H9.79394L11.0616 23.1285H12.0468L12.1809 23.2804H11.3123L11.503 23.4711H12.6753L12.1633 22.9379H11.0086L9.8928 23.6123H7.20566V24.3927H6.46061V25.0989H5.70496V27.0586H6.46061V27.7684H7.20566V28.5487H9.8928L11.0086 29.2232H12.1633L12.6753 28.69H11.503L11.3123 28.8807H12.1809L12.0468 29.029H11.0616L9.79394 28.2698Z" fill="#FFC72C"/>
<path d="M13.489 27.2637V28.0448H11.3423L10.5993 28.4912L9.85638 28.0448H7.70974V27.2637H6.96534V26.5552H6.21094V25.6054H6.96534V24.8969H7.70974V24.1158H9.85242H9.85638L10.5993 23.6694L11.3423 24.1158H13.489V24.8969H14.2333V25.6054H14.9877V26.5552H14.2333V27.2637H13.489Z" fill="#00843D"/>
<path d="M7.99023 26.99V27.746H9.17023L7.99023 26.9633V26.99Z" fill="#383739"/>
<path d="M7.99023 25.1706V24.4146H9.17023L7.99023 25.1972V25.1706Z" fill="#383739"/>
<path d="M13.2072 26.99V27.746H12.0272L13.2072 26.9633V26.99Z" fill="#383739"/>
<path d="M13.2072 25.1706V24.4146H12.0272L13.2072 25.1972V25.1706Z" fill="#383739"/>
<path d="M8.01953 27.0166L9.07617 27.7174H8.01953V27.0166Z" fill="#D22630"/>
<path d="M8.01953 25.1442C8.06061 25.1169 9.00417 24.4911 9.07617 24.4434H8.01953V25.1442Z" fill="#D22630"/>
<path d="M13.1777 27.0166C13.1366 27.0439 12.1931 27.6697 12.1211 27.7174H13.1777V27.0166Z" fill="#D22630"/>
<path d="M13.1777 25.1442C13.1366 25.117 12.1931 24.4911 12.1211 24.4434H13.1777V25.1442Z" fill="#D22630"/>
<path d="M9.49767 25.8729V25.4868H9.36599L8.73423 25.0918L8.72667 25.0966L8.10251 25.4868H7.97083V25.8729H7.67383V26.2875H7.97083V26.6736H8.10251L8.73423 27.0686L9.36599 26.6736H9.49767V26.2875H9.94979V25.8729H9.49767Z" fill="#383739"/>
<path d="M8.73417 25.1256L9.31205 25.4869H8.15637L8.73417 25.1256ZM9.31197 26.6737L8.73417 27.0349L8.15641 26.6737H9.31197Z" fill="#D22630"/>
<path d="M9.17177 25.9014V26.2589H8.45117V25.9014H9.17177Z" fill="#D22630"/>
<path d="M9.4706 26.2876V26.6451H8.75V26.2876H9.4706Z" fill="#FFC72C"/>
<path d="M8.7206 26.2876V26.6451H8V26.2876H8.7206Z" fill="#FFC72C"/>
<path d="M9.92177 25.9014V26.2589H9.20117V25.9014H9.92177Z" fill="#FFC72C"/>
<path d="M8.42385 25.9015V26.259H7.70325V25.9015H8.42385Z" fill="#FFC72C"/>
<path d="M9.4706 25.5156V25.8731H8.75V25.5156H9.4706Z" fill="#FFC72C"/>
<path d="M8.7206 25.5156V25.8731H8V25.5156H8.7206Z" fill="#FFC72C"/>
<path d="M8.22395 25.9809V26.1795H7.90027V25.9809H8.22395Z" fill="#383739"/>
<path d="M8.52095 25.5948V25.7935H8.19727V25.5948H8.52095Z" fill="#383739"/>
<path d="M9.27082 25.5948V25.7935H8.94714V25.5948H9.27082Z" fill="#383739"/>
<path d="M8.97395 25.9811V26.1797H8.65027V25.9811H8.97395Z" fill="#383739"/>
<path d="M9.72212 25.9809V26.1795H9.39844V25.9809H9.72212Z" fill="#383739"/>
<path d="M9.27082 26.3668V26.5655H8.94714V26.3668H9.27082Z" fill="#383739"/>
<path d="M8.52095 26.3669V26.5656H8.19727V26.3669H8.52095Z" fill="#383739"/>
<path d="M8.19436 26.0115H7.93164V26.1492H8.19436V26.0115Z" fill="white"/>
<path d="M8.49136 25.6255H8.22864V25.7632H8.49136V25.6255Z" fill="white"/>
<path d="M9.24124 25.6255H8.97852V25.7632H9.24124V25.6255Z" fill="white"/>
<path d="M8.94436 26.0117H8.68164V26.1494H8.94436V26.0117Z" fill="white"/>
<path d="M9.69253 26.0115H9.42981V26.1492H9.69253V26.0115Z" fill="white"/>
<path d="M9.24124 26.3975H8.97852V26.5351H9.24124V26.3975Z" fill="white"/>
<path d="M8.49136 26.3976H8.22864V26.5353H8.49136V26.3976Z" fill="white"/>
<path d="M11.7035 25.8729V25.4868H11.8352L12.4669 25.0918L12.4745 25.0966L13.0987 25.4868H13.2303V25.8729H13.5273V26.2875H13.2303V26.6736H13.0987L12.4669 27.0686L11.8352 26.6736H11.7035V26.2875H11.2514V25.8729H11.7035Z" fill="#383739"/>
<path d="M12.467 25.1256L11.8891 25.4869H13.0448L12.467 25.1256ZM11.8892 26.6737L12.467 27.0349L13.0448 26.6737H11.8892Z" fill="#D22630"/>
<path d="M12.0294 25.9014V26.2589H12.75V25.9014H12.0294Z" fill="#D22630"/>
<path d="M11.7325 26.2871V26.6446H12.4531V26.2871H11.7325Z" fill="#FFC72C"/>
<path d="M12.4824 26.2872V26.6448H13.203V26.2872H12.4824Z" fill="#FFC72C"/>
<path d="M11.2812 25.9012V26.2587H12.0018V25.9012H11.2812Z" fill="#FFC72C"/>
<path d="M12.7794 25.9012V26.2587H13.5V25.9012H12.7794Z" fill="#FFC72C"/>
<path d="M11.7325 25.5151V25.8726H12.4531V25.5151H11.7325Z" fill="#FFC72C"/>
<path d="M12.4824 25.5151V25.8726H13.203V25.5151H12.4824Z" fill="#FFC72C"/>
<path d="M12.9771 25.9808V26.1794H13.3008V25.9808H12.9771Z" fill="#383739"/>
<path d="M12.6801 25.5947V25.7934H13.0038V25.5947H12.6801Z" fill="#383739"/>
<path d="M11.9302 25.5947V25.7934H12.2539V25.5947H11.9302Z" fill="#383739"/>
<path d="M12.2271 25.981V26.1796H12.5508V25.981H12.2271Z" fill="#383739"/>
<path d="M11.4789 25.9808V26.1794H11.8026V25.9808H11.4789Z" fill="#383739"/>
<path d="M11.9302 26.3667V26.5653H12.2539V26.3667H11.9302Z" fill="#383739"/>
<path d="M12.6801 26.3668V26.5655H13.0038V26.3668H12.6801Z" fill="#383739"/>
<path d="M13.0067 26.0114H13.2694V26.149H13.0067V26.0114Z" fill="white"/>
<path d="M12.7097 25.6253H12.9724V25.763H12.7097V25.6253Z" fill="white"/>
<path d="M11.9598 25.6253H12.2225V25.763H11.9598V25.6253Z" fill="white"/>
<path d="M12.2567 26.0115H12.5194V26.1492H12.2567V26.0115Z" fill="white"/>
<path d="M11.5085 26.0114H11.7712V26.149H11.5085V26.0114Z" fill="white"/>
<path d="M11.9598 26.3973H12.2225V26.535H11.9598V26.3973Z" fill="white"/>
<path d="M12.7097 26.3974H12.9724V26.5351H12.7097V26.3974Z" fill="white"/>
<path d="M11.3623 25.2279V25.614H11.2307L10.5989 26.009L10.5913 26.0043L9.96718 25.614H9.8355V25.2279H9.46094V24.8133H9.8355V24.4273H9.96718L10.5989 24.0322L11.2307 24.4273H11.3623V24.8133H11.7369V25.2279H11.3623Z" fill="#383739"/>
<path d="M10.5993 25.9753L11.1771 25.614H10.0215L10.5993 25.9753ZM11.1771 24.4272L10.5993 24.0659L10.0215 24.4272H11.1771Z" fill="#FFC72C"/>
<path d="M11.3319 24.8135V24.4561H10.6113V24.8135H11.3319Z" fill="#D22630"/>
<path d="M10.5836 24.8134V24.4559H9.86304V24.8134H10.5836Z" fill="#D22630"/>
<path d="M11.7069 25.1993V24.8418H10.9863V25.1993H11.7069Z" fill="#D22630"/>
<path d="M10.9589 25.1993V24.8418H10.2383V25.1993H10.9589Z" fill="#D22630"/>
<path d="M10.2091 25.1995V24.8419H9.48853V25.1995H10.2091Z" fill="#D22630"/>
<path d="M11.3319 25.5855V25.228H10.6113V25.5855H11.3319Z" fill="#D22630"/>
<path d="M10.5836 25.5855V25.228H9.86304V25.5855H10.5836Z" fill="#D22630"/>
<path d="M10.3862 24.5352V24.7338H10.0625V24.5352H10.3862Z" fill="#383739"/>
<path d="M11.1342 24.5352V24.7338H10.8105V24.5352H11.1342Z" fill="#383739"/>
<path d="M10.0111 24.9213V25.12H9.68738V24.9213H10.0111Z" fill="#383739"/>
<path d="M10.7612 24.9214V25.12H10.4375V24.9214H10.7612Z" fill="#383739"/>
<path d="M11.5093 24.9213V25.12H11.1857V24.9213H11.5093Z" fill="#383739"/>
<path d="M10.3862 25.3076V25.5063H10.0625V25.3076H10.3862Z" fill="#383739"/>
<path d="M11.1342 25.3076V25.5063H10.8105V25.3076H11.1342Z" fill="#383739"/>
<path d="M10.3545 24.5654H10.0918V24.7031H10.3545V24.5654Z" fill="white"/>
<path d="M11.1026 24.5654H10.8398V24.7031H11.1026V24.5654Z" fill="white"/>
<path d="M9.97952 24.9515H9.7168V25.0892H9.97952V24.9515Z" fill="white"/>
<path d="M10.7295 24.9517H10.4668V25.0893H10.7295V24.9517Z" fill="white"/>
<path d="M11.4777 24.9515H11.215V25.0892H11.4777V24.9515Z" fill="white"/>
<path d="M10.3545 25.3374H10.0918V25.4751H10.3545V25.3374Z" fill="white"/>
<path d="M11.1026 25.3374H10.8398V25.4751H11.1026V25.3374Z" fill="white"/>
<path d="M11.3623 27.3476V27.7336H11.2307L10.5989 28.1286L10.5913 28.1239L9.96718 27.7336H9.8355V27.3476H9.46094V26.9329H9.8355V26.5469H9.96718L10.5989 26.1519L11.2307 26.5469H11.3623V26.9329H11.7369V27.3476H11.3623Z" fill="#383739"/>
<path d="M10.5993 28.0949L11.1771 27.7336H10.0215L10.5993 28.0949ZM11.1771 26.5469L10.5993 26.1855L10.0215 26.5469H11.1771Z" fill="#FFC72C"/>
<path d="M11.3319 26.9332V26.5757H10.6113V26.9332H11.3319Z" fill="#D22630"/>
<path d="M10.5836 26.9331V26.5756H9.86304V26.9331H10.5836Z" fill="#D22630"/>
<path d="M11.7069 27.3189V26.9614H10.9863V27.3189H11.7069Z" fill="#D22630"/>
<path d="M10.9589 27.3189V26.9614H10.2383V27.3189H10.9589Z" fill="#D22630"/>
<path d="M10.2091 27.3192V26.9616H9.48853V27.3192H10.2091Z" fill="#D22630"/>
<path d="M11.3319 27.7052V27.3477H10.6113V27.7052H11.3319Z" fill="#D22630"/>
<path d="M10.5836 27.7052V27.3477H9.86304V27.7052H10.5836Z" fill="#D22630"/>
<path d="M10.3862 26.6548V26.8534H10.0625V26.6548H10.3862Z" fill="#383739"/>
<path d="M11.1342 26.6548V26.8534H10.8105V26.6548H11.1342Z" fill="#383739"/>
<path d="M10.0111 27.041V27.2397H9.68738V27.041H10.0111Z" fill="#383739"/>
<path d="M10.7612 27.041V27.2397H10.4375V27.041H10.7612Z" fill="#383739"/>
<path d="M11.5093 27.041V27.2397H11.1857V27.041H11.5093Z" fill="#383739"/>
<path d="M10.3862 27.4272V27.6259H10.0625V27.4272H10.3862Z" fill="#383739"/>
<path d="M11.1342 27.4272V27.6259H10.8105V27.4272H11.1342Z" fill="#383739"/>
<path d="M10.3545 26.6851H10.0918V26.8227H10.3545V26.6851Z" fill="white"/>
<path d="M11.1026 26.6851H10.8398V26.8227H11.1026V26.6851Z" fill="white"/>
<path d="M9.97952 27.0711H9.7168V27.2088H9.97952V27.0711Z" fill="white"/>
<path d="M10.7295 27.0713H10.4668V27.209H10.7295V27.0713Z" fill="white"/>
<path d="M11.4777 27.0711H11.215V27.2088H11.4777V27.0711Z" fill="white"/>
<path d="M10.3545 27.457H10.0918V27.5947H10.3545V27.457Z" fill="white"/>
<path d="M11.1026 27.457H10.8398V27.5947H11.1026V27.457Z" fill="white"/>
<path d="M6.51172 31.9569L9.31516 30.4481H9.31876H11.8844L14.6879 31.9569V34.4429L11.8844 35.9516H9.31516L6.51172 34.4429V31.9569Z" fill="#383739"/>
<path d="M9.32352 30.4766L6.54102 31.9737V34.4242L9.32352 35.9214H11.8764L14.659 34.4242V31.9737L11.8764 30.4766H9.32352ZM9.3729 30.6778H11.827L14.4613 32.0937V34.3078L11.827 35.7237H9.37142L6.73727 34.3078V32.0937L9.3729 30.6778Z" fill="#00843D"/>
<path d="M10.6147 33.1853V35.6947H11.8211L14.4333 34.2889V33.2139L10.5861 33.2139V30.7046H9.37982L6.76758 32.1104V33.1853L10.6147 33.1853Z" fill="#FFC72C"/>
<path d="M10.5861 33.1853V35.6947H9.37982L6.76758 34.2889V33.2139L10.6147 33.2139V30.7046H11.8211L14.4333 32.1104V33.1853L10.5861 33.1853Z" fill="white"/>
<path d="M10.8349 35.5547V34.8294L10.6004 34.9782L10.3659 34.8294V35.5547H9.63648L10.1287 35.1937V34.6789L9.37804 34.2026H8.85352V32.1978H9.37804L10.1287 31.7215V31.2067L9.63648 30.8457H9.68012H10.3659V31.571L10.6004 31.4222L10.8349 31.571V30.8457H11.5644L11.0722 31.2067V31.7215L11.8228 32.1978H12.3473V34.2026H11.8228L11.0722 34.6789V35.1937L11.5644 35.5547H10.8349Z" fill="#383739"/>
<path d="M10.8637 30.8757V31.6243L10.6129 31.4654V31.6773L11.7605 32.4082H12.1383V33.1851H12.3185V32.2247H11.8135L11.0438 31.7373V31.1935L11.478 30.8757H10.8637ZM8.88269 33.2134V34.1738H9.38411L10.1574 34.6645V35.2084L9.72309 35.5261H10.3376V34.7775L10.5847 34.9365V34.7175L9.4371 33.9937H9.06277V33.2134L8.88269 33.2134Z" fill="#FFC72C"/>
<path d="M9.72309 30.8757L10.1574 31.1935V31.7373L9.3841 32.2247H8.88269V33.1851H9.06277V32.4082H9.4371L10.5847 31.6808V31.4655L10.3376 31.6243V30.8757L9.72309 30.8757ZM12.1383 33.2134V33.9937H11.7605L10.6129 34.7175V34.9365L10.8636 34.7775V35.5261H11.478L11.0438 35.2084V34.6645L11.8135 34.1738H12.3185V33.2134L12.1383 33.2134Z" fill="white"/>
<path d="M9.08984 33.9639H9.44568L10.5995 34.6959L11.7533 33.9639H12.1092V32.4361H11.7575H11.7533L10.5995 31.7041L9.44568 32.4361H9.08984V33.9639Z" fill="#D22630"/>
<path d="M11.3983 33.5629H11.6446V33.4464H11.4593V33.2345H11.8554V33.7749H11.4757L11.4757 34.1435H10.6941V33.6138H11.0381V33.8257H10.9048V33.9316H11.265V33.7291L9.80087 32.8369H9.55451V32.9534H9.73987V33.1653H9.34375V32.625H9.72347V32.2563H9.73775H10.5051V32.786H10.1611V32.5741H10.2943V32.4682H9.93423V32.6707L11.3983 33.5629ZM11.265 32.6707V32.4682H10.9048V32.5741H11.0381V32.786H10.6941V32.2563H11.4757V32.625H11.8554V33.1653H11.4593V32.9534H11.6447V32.8369H11.3983L9.93423 33.7291V33.9316H10.2943V33.8257H10.1611V33.6138H10.5051V34.1435H9.72347V33.7748H9.34375V33.2345H9.73987V33.4464H9.55451V33.5629H9.80087L11.265 32.6707Z" fill="#383739"/>
<path d="M11.2942 33.7133V33.9604H10.8769V33.7974H11.0102V33.6426H10.7233V34.1152H11.4478V33.7465H11.8275V33.2634H11.4886V33.4181H11.6739V33.5918H11.391L9.90633 32.687V32.4399H10.3236V32.603H10.1904V32.7577H10.4772V32.2852H9.75273V32.6538H9.37305V33.137H9.71197V32.9822H9.52665V32.8086H9.80957L11.2942 33.7133ZM11.391 32.8086H11.6739V32.9822H11.4886V33.137H11.8275V32.6538H11.4478V32.2852H10.7234V32.7577H11.0102V32.603H10.877V32.4399H11.2942V32.687L9.80957 33.5918H9.52665V33.4181H9.71197V33.2633H9.37305V33.7465H9.75273V34.1152H10.4772V33.6426H10.1904V33.7974H10.3236V33.9604H9.90633V33.7133L11.391 32.8086Z" fill="white"/>
<path d="M13.869 33.3258V34.11H13.5353V33.833H13.1989V34.11H12.8652V33.3258H13.1989V33.6028H13.5353V33.3258H13.869Z" fill="#383739"/>
<path d="M12.6756 34.3667V35.1508H12.3419V34.8739H12.0056V35.1508H11.6719V34.3667H12.0056V34.6437H12.3419V34.3667H12.6756Z" fill="#383739"/>
<path d="M13.869 33.0743V32.2902H13.5353V32.5671H13.1989V32.2902H12.8652V33.0743H13.1989V32.7974H13.5353V33.0743H13.869Z" fill="#383739"/>
<path d="M7.33008 33.3257V34.1098H7.66376V33.8329H8.00012V34.1098H8.3338V33.3257H8.00012V33.6026H7.66376V33.3257H7.33008Z" fill="#383739"/>
<path d="M7.33008 33.0744V32.2903H7.66376V32.5672H8.00012V32.2903H8.3338V33.0744H8.00012V32.7975H7.66376V33.0744H7.33008Z" fill="#383739"/>
<path d="M12.6756 32.0334V31.2493H12.3419V31.5262H12.0056V31.2493H11.6719V32.0334H12.0056V31.7565H12.3419V32.0334H12.6756Z" fill="#383739"/>
<path d="M8.52344 34.3669V35.151H8.85712V34.874H9.19348V35.151H9.52716V34.3669H9.19348V34.6438H8.85712V34.3669H8.52344Z" fill="#383739"/>
<path d="M8.52344 32.0333V31.2492H8.85712V31.5261H9.19348V31.2492H9.52716V32.0333H9.19348V31.7564H8.85712V32.0333H8.52344Z" fill="#383739"/>
<path d="M12.8748 31.4838V32.0793H13.9812L12.8748 31.4838Z" fill="#383739"/>
<path d="M8.32523 34.9163V34.3209H7.21875L8.32523 34.9163Z" fill="#383739"/>
<path d="M8.32523 31.4838V32.0793H7.21875L8.32523 31.4838Z" fill="#383739"/>
<path d="M12.8748 34.9163V34.3209H13.9812L12.8748 34.9163Z" fill="#383739"/>
<path d="M13.5647 33.8039V34.0808H13.8413V33.3539H13.5647V33.6308H13.1712V33.3539H12.8947V34.0808H13.1712V33.8039H13.5647Z" fill="#D22630"/>
<path d="M12.3712 34.8448V35.1217H12.6477V34.3947H12.3712V34.6716H11.9777V34.3947H11.7012V35.1217H11.9777V34.8448H12.3712Z" fill="#D22630"/>
<path d="M13.5647 32.5952V32.3183H13.8413V33.0453H13.5647V32.7683H13.1712V33.0453H12.8947V32.3183H13.1712V32.5952H13.5647Z" fill="#D22630"/>
<path d="M7.63589 33.8039V34.0808H7.35938V33.3539H7.63589V33.6308H8.02941V33.3539H8.30593V34.0808H8.02941V33.8039H7.63589Z" fill="#D22630"/>
<path d="M7.63589 32.5952V32.3183H7.35938V33.0453H7.63589V32.7683H8.02941V33.0453H8.30593V32.3183H8.02941V32.5952H7.63589Z" fill="#D22630"/>
<path d="M12.3712 31.5543V31.2773H12.6477V32.0043H12.3712V31.7274H11.9777V32.0043H11.7012V31.2773H11.9777V31.5543H12.3712Z" fill="#D22630"/>
<path d="M8.82925 34.8446V35.1215H8.55273V34.3945H8.82925V34.6714H9.22277V34.3945H9.49933V35.1215H9.22277V34.8446H8.82925Z" fill="#D22630"/>
<path d="M8.82925 31.5543V31.2773H8.55273V32.0043H8.82925V31.7274H9.22277V32.0043H9.49933V31.2773H9.22277V31.5543H8.82925Z" fill="#D22630"/>
<path d="M12.9041 31.5322V32.0513H13.8682L12.9041 31.5322ZM7.33209 34.3501L8.29607 34.8692V34.3501H7.33209Z" fill="#FFC72C"/>
<path d="M8.29601 31.5322L7.33203 32.0513H8.29601V31.5322ZM12.904 34.3501V34.8692L13.8681 34.3501H12.904Z" fill="white"/>
<path d="M15.1256 35.3883C15.0723 35.6154 14.8917 35.7869 14.8487 36.0225C14.7625 35.7768 14.6831 35.5709 14.7424 35.3022C14.7848 35.11 14.9465 34.9729 14.9652 34.7754C15.1415 34.9339 15.1795 35.1587 15.1256 35.3883ZM15.1703 36.34C15.0207 36.545 14.8129 36.7023 14.5834 36.8071C14.6286 36.6276 14.5438 36.4924 14.4497 36.3498C14.3363 36.1782 14.281 36.0096 14.3734 35.812C14.4165 35.9148 14.4744 36.0001 14.5423 36.0879C14.6427 36.225 14.7088 36.3468 14.7243 36.5226C14.8404 36.4365 14.8915 36.3079 14.9536 36.1835C15.0483 36.0053 15.2011 35.8564 15.3766 35.759C15.3299 35.9588 15.294 36.1702 15.1703 36.34ZM14.3317 36.9511C14.3637 37.0649 14.3912 37.1778 14.3851 37.2968C14.4839 37.1903 14.6151 37.1102 14.7321 37.0245C14.8915 36.8956 15.0773 36.8046 15.2076 36.6405C15.1882 36.8821 15.0848 37.079 14.8885 37.226C14.6809 37.3813 14.4307 37.4649 14.2263 37.6279C14.2569 37.4082 14.1761 37.2322 14.1073 37.0302C14.0499 36.8372 14.1055 36.6413 14.2363 36.4942C14.2344 36.6572 14.2858 36.7972 14.3317 36.9511ZM13.866 37.6933C13.823 37.8599 13.7035 37.9955 13.622 38.1442C13.8419 38.076 14.0359 37.9568 14.2347 37.8445C14.4715 37.7156 14.7287 37.6335 14.943 37.4633C14.8363 37.8582 14.5719 38.0872 14.1851 38.204C13.9207 38.2838 13.6978 38.244 13.3769 38.3737C13.4137 38.1564 13.4785 37.9219 13.5812 37.7261C13.6609 37.5844 13.7493 37.4447 13.7986 37.2886C13.8699 37.4168 13.9037 37.5472 13.866 37.6933ZM13.0567 38.2976C12.981 38.4273 12.8811 38.5365 12.7571 38.6226C13.0693 38.6425 13.3205 38.4447 13.6249 38.4361C13.8129 38.4308 13.9914 38.4891 14.1831 38.4716C13.9556 38.6251 13.7174 38.7592 13.4404 38.795C13.0803 38.8416 12.7482 38.751 12.351 38.7864C12.5366 38.6554 12.6295 38.4801 12.7452 38.2915C12.8959 38.056 13.0381 37.8882 13.3312 37.8503C13.2135 37.9825 13.1451 38.1463 13.0567 38.2976ZM11.948 38.8158C12.498 38.9093 13.025 39.0303 13.5867 39.0359C12.958 39.2551 12.3655 39.2947 11.7419 39.0684C11.4049 38.9461 11.1465 38.8806 10.892 38.8988C10.5201 38.9255 10.068 39.0723 9.56773 39.5999L9.37109 39.4426C10.0881 38.8037 11.0263 38.6591 11.9479 38.8158L11.948 38.8158Z" fill="#FFC72C"/>
</g>
<defs>
<clipPath id="clip0_1_5975">
<rect width="40" height="40" rx="20" fill="white"/>
</clipPath>
</defs>
</svg>
