<svg width="40" height="40" viewBox="0 0 40 40" fill="none" xmlns="http://www.w3.org/2000/svg">
<rect width="40" height="40" rx="20" fill="#009CDE"/>
<path d="M40 7H0V33.7159H40V7Z" fill="#012169"/>
<mask id="mask0_1_15121" style="mask-type:luminance" maskUnits="userSpaceOnUse" x="0" y="7" width="22" height="16">
<path d="M0 7H21.6667V22.5843H0V7Z" fill="white"/>
</mask>
<g mask="url(#mask0_1_15121)">
<path d="M0 7L20 20.3579L0 7ZM20 7L0 20.3579L20 7Z" fill="black"/>
<path d="M0 7L20 20.3579M20 7L0 20.3579" stroke="white" stroke-width="2.31153"/>
</g>
<mask id="mask1_1_15121" style="mask-type:luminance" maskUnits="userSpaceOnUse" x="0" y="7" width="22" height="16">
<path d="M0 7V13.679H21.6667V20.3579H20L0 7ZM0 20.3579V22.5843H10V7H20L0 20.3579Z" fill="white"/>
</mask>
<g mask="url(#mask1_1_15121)">
<path d="M0 7L20 20.3579L0 7ZM20 7L0 20.3579L20 7Z" fill="black"/>
<path d="M0 7L20 20.3579M20 7L0 20.3579" stroke="#C8102E" stroke-width="1.54102"/>
</g>
<path d="M0 13.679H21.6667H0ZM10 7V22.5843V7Z" fill="black"/>
<path d="M0 13.679H21.6667M10 7V22.5843" stroke="white" stroke-width="3.85255"/>
<path d="M0 13.679H21.6667H0ZM10 7V22.5843V7Z" fill="black"/>
<path d="M0 13.679H21.6667M10 7V22.5843" stroke="#C8102E" stroke-width="2.31153"/>
<path d="M0 20.3579H20V7H40V33.7159H0V20.3579Z" fill="#009CDE"/>
<path d="M13.9809 29.8583L15.205 33.6256L12.0002 31.2973H15.9615L12.7568 33.6257L13.9809 29.8583Z" fill="#FEDD00"/>
<path d="M21.1383 28.7393L19.9142 32.5066L18.6901 28.7393L21.8949 31.0676L17.9336 31.0676L21.1383 28.7393Z" fill="#FEDD00"/>
<path d="M21.1383 23.6669L19.9142 27.4342L18.6901 23.6669L21.8949 25.9952L17.9336 25.9953L21.1383 23.6669Z" fill="#FEDD00"/>
<path d="M26.3786 27.457L25.1545 31.2244L23.9304 27.457L27.1351 29.7854L23.1738 29.7854L26.3786 27.457Z" fill="#FEDD00"/>
<path d="M26.3786 16.4199L25.1545 20.1873L23.9304 16.4199L27.1351 18.7483L23.1738 18.7483L26.3786 16.4199Z" fill="#FEDD00"/>
<path d="M28.5802 23.5815L29.8043 27.3489L26.5996 25.0205H30.5608L27.3561 27.3489L28.5802 23.5815Z" fill="#FEDD00"/>
<path d="M30.7809 14.915L29.5568 18.6824L28.3327 14.915L31.5374 17.2434L27.5762 17.2434L30.7809 14.915Z" fill="#FEDD00"/>
<path d="M33.006 20.7334L34.2301 24.5008L31.0254 22.1724H34.9866L31.7819 24.5008L33.006 20.7334Z" fill="#FEDD00"/>
<path d="M33.006 11L34.2301 14.7674L31.0254 12.439H34.9866L31.7819 14.7674L33.006 11Z" fill="#FEDD00"/>
</svg>
