<svg width="40" height="40" viewBox="0 0 40 40" fill="none" xmlns="http://www.w3.org/2000/svg">
<g clip-path="url(#clip0_1_16266)">
<path d="M-10 0H50V40H-10V0Z" fill="black"/>
<path d="M-10 6.66687H50V16.6669H-10V6.66687ZM-10 26.6669H50V40.0002H-10V26.6669Z" fill="#FCDC04"/>
<path d="M-10 13.3333H50V19.9999H-10V13.3333ZM-10 33.3333H50V39.9999H-10V33.3333Z" fill="#D90000"/>
<path d="M19.999 26.2333C23.4415 26.2333 26.2323 23.4425 26.2323 19.9999C26.2323 16.5574 23.4415 13.7666 19.999 13.7666C16.5564 13.7666 13.7656 16.5574 13.7656 19.9999C13.7656 23.4425 16.5564 26.2333 19.999 26.2333Z" fill="white"/>
<path d="M18.9023 15.2259L18.498 14.4812C18.6541 14.3252 18.9165 14.2046 19.335 14.2046C19.335 14.233 19.2924 15.0202 19.2924 15.0202L18.9023 15.2259Z" fill="#D90000" stroke="black" stroke-width="0.0666667"/>
<path d="M19.291 15.0275L19.3478 14.2048C19.3478 14.2048 20.1847 14.1552 20.6386 14.7012C20.6457 14.6941 20.1918 15.3395 20.1918 15.3395L19.291 15.0275Z" fill="#FCDC04" stroke="black" stroke-width="0.0666667"/>
<path d="M20.207 15.3325L20.6184 14.6942C20.895 14.985 21.0084 15.1907 21.051 15.5027C21.0581 15.5098 20.3985 15.6658 20.3985 15.6588C20.3985 15.6517 20.2141 15.3396 20.207 15.3325Z" fill="#D90000" stroke="black" stroke-width="0.0666667"/>
<path d="M19.1071 25.8716C19.1071 25.8716 19.8802 24.9851 21.3837 25.1766C21.1568 24.8078 20.4263 24.8503 20.4263 24.8503C20.4263 24.8503 20.1994 23.1269 20.3766 23.0418C20.5539 22.9567 21.3057 23.0489 21.3057 23.0489C21.405 23.0489 21.5752 22.7794 21.4405 22.6092C21.3057 22.4389 20.9086 21.7865 21.0717 21.6588C21.2348 21.5312 22.1213 21.7297 22.1213 21.7297L19.6178 18.524C19.6178 18.524 19.3624 17.3184 19.8731 16.7368C20.4901 16.2261 20.4263 15.6729 20.405 15.68C20.3199 15.1197 19.4689 14.7154 18.8944 15.2332C18.5539 15.6446 18.7809 15.9566 18.7809 15.9566C18.7809 15.9566 17.8873 16.1978 17.8518 16.3538C17.8163 16.5098 18.8589 16.3255 18.8589 16.3255L18.7596 17.0418C18.7596 17.0418 16.7312 18.8857 18.2844 20.4815C18.2986 20.4744 18.3341 20.4106 18.3341 20.4106C18.3341 20.4106 18.8802 21.0844 19.4546 21.2333C19.9936 21.7865 19.944 21.7014 19.944 21.7014C19.944 21.7014 20.0504 22.5737 19.9511 22.7439C19.8163 22.7014 18.4405 22.6518 18.2347 22.7297C18.0504 22.7865 17.3411 22.751 17.5184 23.9071C17.6532 23.595 17.7738 23.3184 17.7738 23.3184C17.7738 23.3184 17.7525 23.7368 17.9227 23.8858C17.8944 23.446 18.0858 23.1482 18.0858 23.1482C18.0858 23.1482 18.1213 23.6305 18.2277 23.7014C18.3341 23.7723 18.3341 22.9212 18.9227 22.9921C19.5114 23.0631 19.9369 23.0418 19.9369 23.0418C19.9369 23.0418 20.1355 24.7085 20.0717 24.8645C19.6461 24.7652 18.6319 24.9071 18.5681 25.1624C19.1638 25.1269 19.4405 25.1978 19.4405 25.1978C19.4405 25.1978 18.9582 25.6234 19.1071 25.8716Z" fill="black" stroke="black" stroke-width="0.0666667"/>
<path d="M19.3463 16.7775C19.3463 16.7775 17.8703 18.4043 18.5071 19.6492C18.541 19.4755 18.5262 19.3665 18.5475 19.3736C18.512 19.3523 18.7305 19.5234 18.7139 19.4901C18.7186 19.4001 18.6474 19.2072 18.6474 19.2072C18.7139 19.2238 18.7805 19.2405 18.8471 19.2571C18.8082 19.185 18.7694 19.1129 18.7305 19.0408C18.8249 19.0519 18.9191 19.0629 19.0135 19.074C19.0135 19.074 18.9136 18.8078 18.9469 18.8078C18.9802 18.8078 19.1799 18.8244 19.1799 18.8244C18.7602 18.0711 19.1561 17.4456 19.3463 16.7775Z" fill="#9CA69C" stroke="#9CA69C" stroke-width="0.0666667"/>
<path d="M19.8586 15.3818C19.8586 15.3818 19.9366 15.9421 19.6316 16.1052C19.582 16.1407 19.3905 16.2046 19.4189 16.3181C19.4543 16.4741 19.5394 16.4457 19.66 16.4173C19.9791 16.3606 20.3479 15.6797 19.8586 15.3818Z" fill="#9CA69C" stroke="#9CA69C" stroke-width="0.0666667"/>
<path d="M19.2001 15.9866C19.2664 15.9866 19.3201 15.9329 19.3201 15.8666C19.3201 15.8003 19.2664 15.7466 19.2001 15.7466C19.1338 15.7466 19.0801 15.8003 19.0801 15.8666C19.0801 15.9329 19.1338 15.9866 19.2001 15.9866Z" fill="white"/>
<path d="M18.8384 16.3325C18.7604 16.3964 18.3491 16.8219 18.7533 16.9779C19.1718 16.8644 19.0583 16.7865 19.1505 16.6942C19.1529 16.5028 18.9424 16.4531 18.8384 16.3325Z" fill="#D90000" stroke="black" stroke-width="0.0666667"/>
<path d="M19.7318 20.3538C19.7105 20.446 19.6183 20.7864 19.746 21.0488C20.1006 20.8999 20.2637 20.9424 20.3843 21.0204C20.0936 20.7864 19.9801 20.6871 19.7318 20.3538Z" fill="#9CA69C" stroke="#9CA69C" stroke-width="0.0666667"/>
<path d="M20.3418 21.9639L20.3631 22.7582C20.3631 22.7582 20.6397 22.8079 20.7673 22.7582C20.895 22.7086 20.7602 22.205 20.3418 21.9639Z" fill="white" stroke="white" stroke-width="0.0666667"/>
<path d="M22.3472 22.0628C22.3472 22.0628 21.8365 20.8287 20.5315 20.5166C19.2265 20.2046 19.3967 18.8145 19.5031 18.7294C19.5599 18.6088 19.6025 18.4244 19.9783 18.6018C20.3542 18.779 22.0847 19.6514 22.333 19.6939C22.5812 19.7365 22.3684 22.0911 22.3472 22.0628Z" fill="#9CA69C" stroke="black" stroke-width="0.0666667"/>
<path d="M21.1076 20.5098C21.0863 20.524 22.8523 21.5524 22.3204 22.4389C22.824 22.1056 22.6608 21.524 22.6608 21.524C22.6608 21.524 23.0722 22.595 22.0722 23.1198C22.1786 23.212 22.2495 23.1907 22.2495 23.1907L22.0792 23.3609C22.0792 23.3609 22.0012 23.4886 22.675 23.1623C22.4906 23.3113 22.4764 23.4176 22.4764 23.4176C22.4764 23.4176 22.526 23.5595 22.9658 23.1765C22.6112 23.5595 22.5331 23.7581 22.5331 23.751C23.4906 23.6659 25.5757 20.5524 21.8736 19.6304C22.0722 19.8361 22.0438 19.8077 22.0438 19.8077L21.1076 20.5098Z" fill="#D90000" stroke="black" stroke-width="0.0666667"/>
<path d="M21.1857 20.2049C21.4268 20.3751 21.5119 20.4318 21.5402 20.517C21.3204 20.4674 21.1218 20.4815 21.1218 20.4815C21.1218 20.4815 20.6466 20.0276 20.5615 19.9921C20.4977 19.9921 20.1289 19.7581 20.1289 19.7581C19.9445 19.6659 19.7743 19.0276 20.4552 19.212C21.1572 19.5453 21.2565 19.5737 21.2565 19.5737C21.5355 19.6611 21.8145 19.7487 22.0934 19.8361C22.2542 20.0158 22.4149 20.1955 22.5757 20.3751C22.5757 20.3751 21.7176 19.9496 21.6112 19.9425C21.8452 20.1339 21.98 20.3964 21.98 20.3964C21.7081 20.3183 21.4717 20.2474 21.1857 20.2049Z" fill="white" stroke="black" stroke-width="0.0666667"/>
<path d="M17.8438 16.3961C17.8438 16.3961 18.6665 16.1975 18.7657 16.2259L17.8438 16.3961Z" fill="black"/>
<path d="M17.8438 16.3961C17.8438 16.3961 18.6665 16.1975 18.7657 16.2259" stroke="white" stroke-width="0.0666667"/>
</g>
<defs>
<clipPath id="clip0_1_16266">
<rect width="40" height="40" rx="20" fill="white"/>
</clipPath>
</defs>
</svg>
