<svg width="40" height="40" viewBox="0 0 40 40" fill="none" xmlns="http://www.w3.org/2000/svg">
<g clip-path="url(#clip0_1_14523)">
<path d="M-1 0H59V40H-1V0Z" fill="white"/>
<path d="M21.2227 4.44446H59.0004V8.8889H21.2227V4.44446Z" fill="#0038A8"/>
<path d="M21.2227 13.3336H59.0004V17.7781H21.2227V13.3336Z" fill="#0038A8"/>
<path d="M-1 22.2223H59V26.6667H-1V22.2223Z" fill="#0038A8"/>
<path d="M-1 31.1112H59V35.5557H-1V31.1112Z" fill="#0038A8"/>
<path d="M11.3088 13.395L11.8249 14.1657C9.70424 15.7004 10.9989 16.6079 9.49609 17.0991C10.4308 16.1869 9.37254 16.0462 10.1601 14.145" fill="#FCD116"/>
<path d="M11.3088 13.395L11.8249 14.1657C9.70424 15.7004 10.9989 16.6079 9.49609 17.0991C10.4308 16.1869 9.37254 16.0462 10.1601 14.145" stroke="#7B3F00" stroke-width="0.111627" stroke-miterlimit="20" stroke-linecap="square"/>
<path d="M10.3332 12.6992L10.1532 13.6091C7.56846 13.1947 7.84223 14.7519 6.4322 14.0366C7.73816 14.0525 7.11884 13.1932 9.02012 12.4056" fill="#FCD116"/>
<path d="M10.3332 12.6992L10.1532 13.6091C7.56846 13.1947 7.84223 14.7519 6.4322 14.0366C7.73816 14.0525 7.11884 13.1932 9.02012 12.4056" stroke="#7B3F00" stroke-width="0.111661" stroke-miterlimit="20" stroke-linecap="square"/>
<path d="M10.3331 12.6989L9.92593 12.6255L9.93012 12.6423C8.84369 12.9086 8.25378 13.359 7.79173 13.7013C7.5606 13.8724 7.36119 14.0179 7.14491 14.0967C7.00168 14.1498 6.84794 14.1683 6.6962 14.1508C7.81774 14.5492 7.74347 13.2227 10.1532 13.6089L10.3331 12.6989Z" fill="#7B3F00" stroke="#7B3F00" stroke-width="0.050806" stroke-miterlimit="20" stroke-linecap="square"/>
<path d="M9.91646 12.5927C7.72549 13.1289 7.51831 14.4213 6.43079 14.0365" stroke="#7B3F00" stroke-width="0.111661" stroke-miterlimit="20"/>
<path d="M11.6619 11.8707L10.9343 11.1431L7.66016 15.8724L12.3895 12.5982L11.6619 11.8707L7.66016 15.8724L11.6619 11.8707Z" fill="#FCD116"/>
<path d="M11.6619 11.8707L10.9343 11.1431L7.66016 15.8724M11.6619 11.8707L12.3895 12.5982L7.66016 15.8724M11.6619 11.8707L7.66016 15.8724" stroke="#7B3F00" stroke-width="0.111627" stroke-miterlimit="20"/>
<path d="M10.1386 11.5182L9.36792 12.0343C7.83323 9.91365 6.9257 11.2084 6.43445 9.70551C7.34665 10.6402 7.49607 9.5837 9.39735 10.3712" fill="#FCD116"/>
<path d="M10.1386 11.5182L9.36792 12.0343C7.83323 9.91365 6.9257 11.2084 6.43445 9.70551C7.34665 10.6402 7.49607 9.5837 9.39735 10.3712" stroke="#7B3F00" stroke-width="0.111661" stroke-miterlimit="20" stroke-linecap="square"/>
<path d="M10.1376 11.5187L9.9015 11.1789L9.89256 11.1937C8.93607 10.6138 8.20047 10.5151 7.63171 10.4305C7.34729 10.388 7.10338 10.3499 6.89472 10.2527C6.7559 10.189 6.63409 10.0934 6.5392 9.97365C7.05053 11.0484 7.93601 10.0579 9.36685 12.035L10.1376 11.5187Z" fill="#7B3F00" stroke="#7B3F00" stroke-width="0.050806" stroke-miterlimit="20" stroke-linecap="square"/>
<path d="M9.91947 11.1493C7.99101 9.97925 6.93067 10.7466 6.4338 9.70548" stroke="#7B3F00" stroke-width="0.111661" stroke-miterlimit="20"/>
<path d="M11.6602 11.8713V10.8423L6.00085 11.8713L11.6602 12.9003V11.8713H6.00085H11.6602Z" fill="#FCD116"/>
<path d="M11.6602 11.8713V10.8423L6.00085 11.8713M11.6602 11.8713V12.9003L6.00085 11.8713M11.6602 11.8713H6.00085" stroke="#7B3F00" stroke-width="0.111661" stroke-miterlimit="20"/>
<path d="M11.6602 11.8713H6.00085L11.6602 12.9003" fill="#7B3F00"/>
<path d="M10.8333 10.5439L9.92343 10.3639C10.3378 7.77915 8.78057 8.05292 9.49588 6.64289C9.47996 7.94885 10.3834 7.43396 11.171 9.33524" fill="#FCD116"/>
<path d="M10.8333 10.5439L9.92343 10.3639C10.3378 7.77915 8.78057 8.05292 9.49588 6.64289C9.47996 7.94885 10.3834 7.43396 11.171 9.33524" stroke="#7B3F00" stroke-width="0.111661" stroke-miterlimit="20" stroke-linecap="square"/>
<path d="M10.8333 10.5436L10.9067 10.1364L10.8899 10.1406C10.6236 9.05414 10.1733 8.46423 9.83095 8.00218C9.65985 7.77104 9.51432 7.57163 9.43551 7.35536C9.38241 7.21213 9.36389 7.05839 9.38144 6.90664C8.98303 8.02819 10.3095 7.95392 9.92332 10.3637L10.8333 10.5436Z" fill="#7B3F00" stroke="#7B3F00" stroke-width="0.050806" stroke-miterlimit="20" stroke-linecap="square"/>
<path d="M10.9415 10.1284C10.4052 7.9374 9.11287 7.73023 9.49771 6.6427" stroke="#7B3F00" stroke-width="0.111661" stroke-miterlimit="20"/>
<path d="M11.6611 11.8716L12.3887 11.144L7.65935 7.8699L10.9335 12.5992L11.6611 11.8716L7.65935 7.8699L11.6611 11.8716Z" fill="#FCD116"/>
<path d="M11.6611 11.8716L12.3887 11.144L7.65935 7.8699M11.6611 11.8716L10.9335 12.5992L7.65935 7.8699M11.6611 11.8716L7.65935 7.8699" stroke="#7B3F00" stroke-width="0.111661" stroke-miterlimit="20"/>
<path d="M11.6621 11.8716L7.66038 7.86985L10.9345 12.5992" fill="#7B3F00"/>
<path d="M11.9987 10.3463L11.4826 9.57568C13.6033 8.04098 12.3086 7.13345 13.8114 6.64221C12.8767 7.5544 13.9296 7.70483 13.142 9.60611" fill="#FCD116"/>
<path d="M11.9987 10.3463L11.4826 9.57568C13.6033 8.04098 12.3086 7.13345 13.8114 6.64221C12.8767 7.5544 13.9296 7.70483 13.142 9.60611" stroke="#7B3F00" stroke-width="0.111661" stroke-miterlimit="20" stroke-linecap="square"/>
<path d="M11.9974 10.3466L12.3372 10.1105L12.3224 10.1016C12.9023 9.14512 13.001 8.40952 13.0857 7.84076C13.1281 7.55633 13.1662 7.31243 13.2634 7.10377C13.3271 6.96494 13.4228 6.84313 13.5425 6.74824C12.4677 7.25958 13.4582 8.14505 11.4811 9.57589L11.9974 10.3466Z" fill="#7B3F00" stroke="#7B3F00" stroke-width="0.050806" stroke-miterlimit="20" stroke-linecap="square"/>
<path d="M12.3693 10.128C13.5393 8.19957 12.772 7.13923 13.8131 6.64236" stroke="#7B3F00" stroke-width="0.111661" stroke-miterlimit="20"/>
<path d="M11.6605 11.8711H12.6895L11.6605 6.21179L10.6315 11.8711H11.6605V6.21179V11.8711Z" fill="#FCD116"/>
<path d="M11.6605 11.8711H12.6895L11.6605 6.21179M11.6605 11.8711H10.6315L11.6605 6.21179M11.6605 11.8711V6.21179" stroke="#7B3F00" stroke-width="0.111661" stroke-miterlimit="20"/>
<path d="M11.6582 11.8711V6.21179L10.6292 11.8711" fill="#7B3F00"/>
<path d="M12.9696 11.0428L13.1496 10.133C15.7343 10.5473 15.4606 8.99009 16.8706 9.70541C15.5646 9.68948 16.1465 10.5531 14.2452 11.3407" fill="#FCD116"/>
<path d="M12.9696 11.0428L13.1496 10.133C15.7343 10.5473 15.4606 8.99009 16.8706 9.70541C15.5646 9.68948 16.1465 10.5531 14.2452 11.3407" stroke="#7B3F00" stroke-width="0.111661" stroke-miterlimit="20" stroke-linecap="square"/>
<path d="M12.9696 11.0423L13.3768 11.1157L13.3726 11.0989C14.459 10.8326 15.049 10.3822 15.511 10.0399C15.7421 9.86883 15.9415 9.72331 16.1578 9.64449C16.3011 9.5914 16.4548 9.57287 16.6065 9.59042C15.485 9.19201 15.5593 10.5185 13.1495 10.1323L12.9696 11.0423Z" fill="#7B3F00" stroke="#7B3F00" stroke-width="0.050806" stroke-miterlimit="20" stroke-linecap="square"/>
<path d="M13.3843 11.149C15.5753 10.6128 15.7825 9.32039 16.87 9.70523" stroke="#7B3F00" stroke-width="0.111661" stroke-miterlimit="20"/>
<path d="M11.6435 11.871L12.3711 12.5986L15.6452 7.86931L10.9159 11.1435L11.6435 11.871L15.6452 7.86931L11.6435 11.871Z" fill="#FCD116"/>
<path d="M11.6435 11.871L12.3711 12.5986L15.6452 7.86931M11.6435 11.871L10.9159 11.1435L15.6452 7.86931M11.6435 11.871L15.6452 7.86931" stroke="#7B3F00" stroke-width="0.111661" stroke-miterlimit="20"/>
<path d="M11.6406 11.8706L15.6424 7.86887L10.913 11.143" fill="#7B3F00"/>
<path d="M13.1851 12.2244L13.9557 11.7083C15.4904 13.829 16.398 12.5342 16.8892 14.0371C15.977 13.1024 15.8058 14.1483 13.9045 13.3608" fill="#FCD116"/>
<path d="M13.1851 12.2244L13.9557 11.7083C15.4904 13.829 16.398 12.5342 16.8892 14.0371C15.977 13.1024 15.8058 14.1483 13.9045 13.3608" stroke="#7B3F00" stroke-width="0.111661" stroke-miterlimit="20" stroke-linecap="square"/>
<path d="M13.1867 12.2245L13.4227 12.5643L13.4317 12.5495C14.3881 13.1294 15.1237 13.2281 15.6925 13.3128C15.9769 13.3552 16.2208 13.3933 16.4295 13.4905C16.5683 13.5543 16.6901 13.6499 16.785 13.7696C16.2737 12.6948 15.3882 13.6853 13.9574 11.7083L13.1867 12.2245Z" fill="#7B3F00" stroke="#7B3F00" stroke-width="0.050806" stroke-miterlimit="20" stroke-linecap="square"/>
<path d="M13.4047 12.5939C15.3332 13.764 16.3935 12.9966 16.8904 14.0377" stroke="#7B3F00" stroke-width="0.111661" stroke-miterlimit="20"/>
<path d="M11.6602 11.871V12.9L17.3195 11.871L11.6602 10.842V11.871H17.3195H11.6602Z" fill="#FCD116"/>
<path d="M11.6602 11.871V12.9L17.3195 11.871M11.6602 11.871V10.842L17.3195 11.871M11.6602 11.871H17.3195" stroke="#7B3F00" stroke-width="0.111661" stroke-miterlimit="20"/>
<path d="M11.6602 11.8712H17.3195L11.6602 10.8422" fill="#7B3F00"/>
<path d="M12.4721 13.1952L13.3819 13.3752C12.9676 15.9599 14.5248 15.6861 13.8095 17.0962C13.8254 15.7902 12.9656 16.3951 12.178 14.4938" fill="#FCD116"/>
<path d="M12.4721 13.1952L13.3819 13.3752C12.9676 15.9599 14.5248 15.6861 13.8095 17.0962C13.8254 15.7902 12.9656 16.3951 12.178 14.4938" stroke="#7B3F00" stroke-width="0.111661" stroke-miterlimit="20" stroke-linecap="square"/>
<path d="M12.4718 13.1952L12.3985 13.6024L12.4153 13.5983C12.6815 14.6847 13.1319 15.2746 13.4742 15.7366C13.6453 15.9678 13.7909 16.1672 13.8697 16.3835C13.9228 16.5267 13.9413 16.6804 13.9237 16.8322C14.3221 15.7106 12.9956 15.7849 13.3819 13.3752L12.4718 13.1952Z" fill="#7B3F00" stroke="#7B3F00" stroke-width="0.050806" stroke-miterlimit="20" stroke-linecap="square"/>
<path d="M12.3654 13.6104C12.9016 15.8014 14.194 16.0085 13.8092 17.0961" stroke="#7B3F00" stroke-width="0.111661" stroke-miterlimit="20"/>
<path d="M11.6478 11.8681L10.9202 12.5957L15.6495 15.8698L12.3753 11.1405L11.6478 11.8681L15.6495 15.8698L11.6478 11.8681Z" fill="#FCD116"/>
<path d="M11.6478 11.8681L10.9202 12.5957L15.6495 15.8698M11.6478 11.8681L12.3753 11.1405L15.6495 15.8698M11.6478 11.8681L15.6495 15.8698" stroke="#7B3F00" stroke-width="0.111661" stroke-miterlimit="20"/>
<path d="M11.6448 11.8682L15.6465 15.8699L12.3724 11.1406" fill="#7B3F00"/>
<path d="M11.3107 13.395L10.9709 13.6311L10.9857 13.64C10.4058 14.5965 10.3071 15.3321 10.2224 15.9009C10.18 16.1853 10.1419 16.4292 10.0447 16.6379C9.98094 16.7767 9.88533 16.8985 9.76562 16.9934C10.8404 16.482 9.84989 15.5966 11.8269 14.1657L11.3107 13.395Z" fill="#7B3F00" stroke="#7B3F00" stroke-width="0.0507895" stroke-miterlimit="20" stroke-linecap="square"/>
<path d="M10.9421 13.6136C9.77206 15.542 10.5394 16.6024 9.49829 17.0993" stroke="#7B3F00" stroke-width="0.111627" stroke-miterlimit="20"/>
<path d="M11.6637 11.8706H10.6348L11.6637 17.5299L12.6927 11.8706H11.6637V17.5299V11.8706Z" fill="#FCD116"/>
<path d="M11.6637 11.8706H10.6348L11.6637 17.5299M11.6637 11.8706H12.6927L11.6637 17.5299M11.6637 11.8706V17.5299" stroke="#7B3F00" stroke-width="0.111627" stroke-miterlimit="20"/>
<path d="M11.6621 11.8711V17.5304L12.6911 11.8711" fill="#7B3F00"/>
<path d="M11.6619 11.8711L7.66016 15.8728L12.3895 12.5987" fill="#7B3F00"/>
<path d="M11.6618 13.7572C12.7036 13.7572 13.5482 12.9126 13.5482 11.8708C13.5482 10.829 12.7036 9.98438 11.6618 9.98438C10.62 9.98438 9.77539 10.829 9.77539 11.8708C9.77539 12.9126 10.62 13.7572 11.6618 13.7572Z" fill="#FCD116" stroke="#7B3F00" stroke-width="0.111627" stroke-miterlimit="20"/>
<path d="M13.054 11.1125C12.9339 11.2497 12.8653 11.0096 12.4366 11.0096C12.0079 11.0096 11.9393 11.2669 11.8707 11.2154C11.8021 11.164 12.2308 10.8553 12.368 10.8381C12.5052 10.821 12.8996 10.9582 13.054 11.1125ZM12.5566 11.2669C12.6767 11.3698 12.5738 11.5927 12.4537 11.5927C12.3337 11.5927 12.1108 11.3869 12.2136 11.2497" fill="#7B3F00"/>
<path d="M11.9883 11.4215C12.0054 11.2157 12.1769 11.1814 12.4513 11.1814C12.7257 11.1814 12.8458 11.3872 12.9486 11.4386C12.8286 11.4386 12.7257 11.2671 12.4513 11.2671C12.1769 11.2671 12.1769 11.2671 11.9883 11.4386M12.0397 11.4729C12.1083 11.37 12.1941 11.5758 12.3827 11.5758C12.5714 11.5758 12.6743 11.5244 12.7943 11.4386C12.9143 11.3529 12.6228 11.6444 12.4342 11.6444C12.2455 11.6444 11.9883 11.5415 12.0397 11.4729Z" fill="#7B3F00"/>
<path d="M10.705 11.2498C10.6192 11.2841 10.4821 11.4555 10.705 11.5756C10.5335 11.4555 10.6707 11.2841 10.705 11.2498Z" fill="#7B3F00"/>
<path d="M12.625 11.2498C12.6593 11.2841 12.7965 11.4555 12.625 11.5756C12.8479 11.4555 12.7107 11.2841 12.625 11.2498Z" fill="#7B3F00"/>
<path d="M11.3903 11.988C11.236 12.0223 11.2874 12.2453 11.1502 12.2624C11.013 12.2796 10.9444 12.4339 10.9616 12.4168C11.0473 12.3482 11.236 12.2967 11.3732 12.2967C11.5104 12.2967 11.5447 12.3825 11.6647 12.3825C11.7848 12.3825 11.819 12.2967 11.9562 12.2967C12.0934 12.2967 12.2821 12.3482 12.3678 12.4168C12.385 12.4339 12.3164 12.2796 12.1792 12.2624C12.042 12.2453 12.0934 12.0223 11.9391 11.988C11.9391 12.0566 11.9905 12.0395 12.0077 12.1424C12.0077 12.2281 11.8533 12.2281 11.819 12.1424C11.8533 12.2796 11.7505 12.2796 11.6647 12.2796C11.579 12.2796 11.4761 12.2796 11.5104 12.1424C11.4761 12.2281 11.3218 12.2281 11.3218 12.1424C11.3389 12.0395 11.3903 12.0566 11.3903 11.988Z" fill="#7B3F00"/>
<path d="M10.8585 12.5706C10.7213 12.6735 10.6871 12.7249 10.6699 12.845C10.7111 12.773 10.7313 12.7434 10.7625 12.7011C10.7542 12.6975 10.7471 12.6942 10.7386 12.6906C10.7485 12.6918 10.7575 12.6934 10.7671 12.6947C10.7878 12.6667 10.8063 12.6424 10.8585 12.5706Z" fill="#7B3F00"/>
<path d="M10.7658 12.6946C10.7654 12.6953 10.7642 12.6969 10.7637 12.6975C10.7851 12.7025 10.8079 12.7048 10.8317 12.7049C10.8108 12.7012 10.7887 12.6978 10.7658 12.6946Z" fill="#7B3F00"/>
<path d="M10.832 12.7051C10.939 12.7239 11.0229 12.7485 11.0999 12.7734C11.1959 12.7663 11.3283 12.742 11.6637 12.742C11.999 12.742 12.1314 12.7663 12.2274 12.7734C12.3044 12.7485 12.3883 12.7239 12.4953 12.7051C12.3063 12.7057 12.0544 12.5706 11.9381 12.5706C11.8009 12.5706 11.7666 12.6048 11.6637 12.6048C11.5608 12.6048 11.5265 12.5706 11.3893 12.5706C11.2729 12.5706 11.021 12.7057 10.832 12.7051Z" fill="#7B3F00"/>
<path d="M12.4961 12.7049C12.5199 12.7048 12.5427 12.7025 12.5641 12.6975C12.5636 12.6969 12.5624 12.6953 12.562 12.6946C12.5391 12.6978 12.517 12.7012 12.4961 12.7049Z" fill="#7B3F00"/>
<path d="M12.5602 12.6947C12.5698 12.6934 12.5787 12.6919 12.5887 12.6906C12.5802 12.6942 12.5731 12.6975 12.5648 12.7011C12.596 12.7434 12.6162 12.773 12.6574 12.845C12.6402 12.7249 12.6059 12.6735 12.4688 12.5706C12.521 12.6424 12.5394 12.6667 12.5602 12.6947Z" fill="#7B3F00"/>
<path d="M12.5659 12.7006C12.5657 12.7003 12.5653 12.6996 12.5651 12.6995C12.3861 12.7684 12.3231 12.7801 12.2276 12.7731C12.065 12.8257 11.931 12.8789 11.6638 12.8789C11.3967 12.8789 11.2627 12.8257 11.1001 12.7731C11.0046 12.7801 10.9416 12.7684 10.7626 12.6995C10.7624 12.6998 10.7619 12.7005 10.7617 12.7006C11.3005 12.9325 11.2416 13.016 11.6638 13.016C12.0861 13.016 12.0272 12.9325 12.5659 12.7006Z" fill="#7B3F00"/>
<path d="M10.7631 12.6994C10.7634 12.6989 10.7643 12.6977 10.7646 12.6972C10.7557 12.6952 10.7467 12.6933 10.7383 12.6902C10.7481 12.694 10.7539 12.6959 10.7631 12.6994Z" fill="#7B3F00"/>
<path d="M12.566 12.6994C12.5752 12.6959 12.581 12.694 12.5908 12.6902C12.5824 12.6932 12.5734 12.6952 12.5645 12.6972C12.5648 12.6977 12.5657 12.6989 12.566 12.6994Z" fill="#7B3F00"/>
<path d="M10.2761 11.1125C10.3962 11.2497 10.4648 11.0096 10.8935 11.0096C11.3222 11.0096 11.3908 11.2669 11.4594 11.2154C11.528 11.164 11.0993 10.8553 10.9621 10.8381C10.8249 10.821 10.4305 10.9582 10.2761 11.1125ZM10.7734 11.2669C10.6534 11.3698 10.7563 11.5927 10.8763 11.5927C10.9964 11.5927 11.2193 11.3869 11.1164 11.2497" fill="#7B3F00"/>
<path d="M11.3398 11.4215C11.3227 11.2157 11.1512 11.1814 10.8768 11.1814C10.6024 11.1814 10.4824 11.3872 10.3795 11.4386C10.4995 11.4386 10.6024 11.2671 10.8768 11.2671C11.1512 11.2671 11.1512 11.2671 11.3398 11.4386M11.2884 11.4729C11.2198 11.37 11.1341 11.5758 10.9454 11.5758C10.7568 11.5758 10.6539 11.5244 10.5338 11.4386C10.4138 11.3529 10.7053 11.6444 10.894 11.6444C11.0826 11.6444 11.3398 11.5415 11.2884 11.4729Z" fill="#7B3F00"/>
<path d="M11.6642 13.1707C11.5784 13.1707 11.3555 13.2221 11.6642 13.2221C11.9729 13.2221 11.7499 13.1707 11.6642 13.1707Z" fill="#7B3F00"/>
</g>
<defs>
<clipPath id="clip0_1_14523">
<rect width="40" height="40" rx="20" fill="white"/>
</clipPath>
</defs>
</svg>
