<svg width="40" height="40" viewBox="0 0 40 40" fill="none" xmlns="http://www.w3.org/2000/svg">
<g clip-path="url(#clip0_1_14618)">
<path d="M50 0H-10V40H50V0Z" fill="#B22234"/>
<path d="M-10 4.61536H50.0586H-10ZM50.0586 10.7692H-10H50.0586ZM-10 16.9231H50.0586H-10ZM50.0586 23.0769H-10H50.0586ZM-10 29.2307H50.0586H-10ZM50.0586 35.3846H-10H50.0586Z" fill="black"/>
<path d="M-10 4.61536H50.0586M50.0586 10.7692H-10M-10 16.9231H50.0586M50.0586 23.0769H-10M-10 29.2307H50.0586M50.0586 35.3846H-10" stroke="white" stroke-width="2.73525"/>
<path d="M20.4 0H-10V21.7093H20.4V0Z" fill="#3C3B6E"/>
<path d="M0.135131 3.07751L0.858559 5.304L-1.0354 3.92796H1.30566L-0.588297 5.304L0.135131 3.07751Z" fill="white"/>
<path d="M0.135375 7.38519L0.858803 9.61168L-1.03516 8.23563H1.30591L-0.588053 9.61168L0.135375 7.38519Z" fill="white"/>
<path d="M0.135375 11.6927L0.858803 13.9192L-1.03516 12.5431H1.30591L-0.588053 13.9192L0.135375 11.6927Z" fill="white"/>
<path d="M0.135375 16.0004L0.858803 18.2269L-1.03516 16.8509H1.30591L-0.588053 18.2269L0.135375 16.0004Z" fill="white"/>
<path d="M2.66638 0.92395L3.38981 3.15043L1.49585 1.77439H3.83691L1.94295 3.15043L2.66638 0.92395Z" fill="white"/>
<path d="M2.66638 5.23169L3.38981 7.45817L1.49585 6.08213H3.83691L1.94295 7.45817L2.66638 5.23169Z" fill="white"/>
<path d="M2.66638 9.53925L3.38981 11.7657L1.49585 10.3897H3.83691L1.94295 11.7657L2.66638 9.53925Z" fill="white"/>
<path d="M2.66638 13.847L3.38981 16.0735L1.49585 14.6974H3.83691L1.94295 16.0735L2.66638 13.847Z" fill="white"/>
<path d="M2.66638 18.1544L3.38981 20.3809L1.49585 19.0049H3.83691L1.94295 20.3809L2.66638 18.1544Z" fill="white"/>
<path d="M5.19958 3.07727L5.92301 5.30375L4.02905 3.92771H6.37012L4.47616 5.30375L5.19958 3.07727Z" fill="white"/>
<path d="M5.19958 7.38501L5.92301 9.61149L4.02905 8.23545H6.37012L4.47616 9.61149L5.19958 7.38501Z" fill="white"/>
<path d="M5.19958 11.6926L5.92301 13.919L4.02905 12.543H6.37012L4.47616 13.919L5.19958 11.6926Z" fill="white"/>
<path d="M5.19958 16.0003L5.92301 18.2268L4.02905 16.8507H6.37012L4.47616 18.2268L5.19958 16.0003Z" fill="white"/>
<path d="M7.7345 0.923523L8.45792 3.15001L6.56396 1.77396H8.90503L7.01107 3.15001L7.7345 0.923523Z" fill="white"/>
<path d="M7.73425 5.23151L8.45768 7.45799L6.56372 6.08195H8.90478L7.01082 7.45799L7.73425 5.23151Z" fill="white"/>
<path d="M7.73425 9.539L8.45768 11.7655L6.56372 10.3894H8.90478L7.01082 11.7655L7.73425 9.539Z" fill="white"/>
<path d="M7.73425 13.8468L8.45768 16.0733L6.56372 14.6972H8.90478L7.01082 16.0733L7.73425 13.8468Z" fill="white"/>
<path d="M7.7345 18.1543L8.45792 20.3808L6.56396 19.0047H8.90503L7.01107 20.3808L7.7345 18.1543Z" fill="white"/>
<path d="M10.266 3.07758L10.9894 5.30406L9.09546 3.92802H11.4365L9.54256 5.30406L10.266 3.07758Z" fill="white"/>
<path d="M10.266 7.38531L10.9894 9.6118L9.09546 8.23576H11.4365L9.54256 9.6118L10.266 7.38531Z" fill="white"/>
<path d="M10.266 11.6931L10.9894 13.9195L9.09546 12.5435H11.4365L9.54256 13.9195L10.266 11.6931Z" fill="white"/>
<path d="M10.266 16.0009L10.9894 18.2273L9.09546 16.8513H11.4365L9.54256 18.2273L10.266 16.0009Z" fill="white"/>
<path d="M12.7992 0.923279L13.5226 3.14976L11.6287 1.77372H13.9697L12.0758 3.14976L12.7992 0.923279Z" fill="white"/>
<path d="M12.7994 5.23126L13.5229 7.45775L11.6289 6.0817H13.97L12.076 7.45775L12.7994 5.23126Z" fill="white"/>
<path d="M12.7994 9.53876L13.5229 11.7652L11.6289 10.3892H13.97L12.076 11.7652L12.7994 9.53876Z" fill="white"/>
<path d="M12.7994 13.8466L13.5229 16.073L11.6289 14.697H13.97L12.076 16.073L12.7994 13.8466Z" fill="white"/>
<path d="M12.7994 18.1543L13.5229 20.3808L11.6289 19.0047H13.97L12.076 20.3808L12.7994 18.1543Z" fill="white"/>
<path d="M15.3343 3.07758L16.0578 5.30406L14.1638 3.92802H16.5049L14.6109 5.30406L15.3343 3.07758Z" fill="white"/>
<path d="M15.3343 7.38531L16.0578 9.6118L14.1638 8.23576H16.5049L14.6109 9.6118L15.3343 7.38531Z" fill="white"/>
<path d="M15.3343 11.6931L16.0578 13.9195L14.1638 12.5435H16.5049L14.6109 13.9195L15.3343 11.6931Z" fill="white"/>
<path d="M15.3343 16.0009L16.0578 18.2273L14.1638 16.8513H16.5049L14.6109 18.2273L15.3343 16.0009Z" fill="white"/>
<path d="M17.8676 0.923279L18.591 3.14976L16.697 1.77372H19.0381L17.1441 3.14976L17.8676 0.923279Z" fill="white"/>
<path d="M17.8676 5.23102L18.591 7.4575L16.697 6.08146H19.0381L17.1441 7.4575L17.8676 5.23102Z" fill="white"/>
<path d="M17.8676 9.53857L18.591 11.7651L16.697 10.389H19.0381L17.1441 11.7651L17.8676 9.53857Z" fill="white"/>
<path d="M17.8676 13.8463L18.591 16.0728L16.697 14.6968H19.0381L17.1441 16.0728L17.8676 13.8463Z" fill="white"/>
<path d="M17.8676 18.1541L18.591 20.3805L16.697 19.0045H19.0381L17.1441 20.3805L17.8676 18.1541Z" fill="white"/>
</g>
<defs>
<clipPath id="clip0_1_14618">
<rect width="40" height="40" rx="20" fill="white"/>
</clipPath>
</defs>
</svg>
