<svg width="40" height="40" viewBox="0 0 40 40" fill="none" xmlns="http://www.w3.org/2000/svg">
<g clip-path="url(#clip0_1_6396)">
<path d="M-10 0H50.0457V40H-10V0Z" fill="#1EB53A"/>
<path d="M-10 0H50.0457V20H-10V0Z" fill="#0099B5"/>
<path d="M-10 12.8H50.0721V27.2H-10V12.8Z" fill="#CE1126"/>
<path d="M-10 13.6001H50.0854V26.4001H-10V13.6001Z" fill="white"/>
<path d="M14.5858 10.1722C16.5662 10.1722 18.1717 8.56673 18.1717 6.58632C18.1717 4.60592 16.5662 3.00049 14.5858 3.00049C12.6054 3.00049 11 4.60592 11 6.58632C11 8.56673 12.6054 10.1722 14.5858 10.1722Z" fill="white"/>
<path d="M15.7811 10.1722C17.7615 10.1722 19.367 8.56673 19.367 6.58632C19.367 4.60592 17.7615 3.00049 15.7811 3.00049C13.8007 3.00049 12.1953 4.60592 12.1953 6.58632C12.1953 8.56673 13.8007 10.1722 15.7811 10.1722Z" fill="#0099B5"/>
<path d="M22.4749 8.73785L22.2532 9.41992L22.5943 9.53073" fill="white"/>
<path d="M22.4749 8.73785L22.6965 9.41992L22.3554 9.53073" fill="white"/>
<path d="M23.1525 9.23358H22.4353V9.59216" fill="white"/>
<path d="M23.1525 9.23358L22.5723 9.65512L22.3615 9.36502" fill="white"/>
<path d="M21.7872 9.23236L22.3674 9.6539L22.5782 9.3638" fill="white"/>
<path d="M21.7872 9.23236H22.5044V9.59094" fill="white"/>
<path d="M22.8928 10.0347L22.6712 9.35266L22.3302 9.46347" fill="white"/>
<path d="M22.8928 10.0347L22.3126 9.61319L22.5234 9.32309" fill="white"/>
<path d="M22.053 10.0294L22.6332 9.60785L22.4224 9.31775" fill="white"/>
<path d="M22.053 10.0294L22.2746 9.34732L22.6156 9.45813" fill="white"/>
<path d="M22.4749 5.86957L22.2532 6.55163L22.5943 6.66244" fill="white"/>
<path d="M22.4749 5.86957L22.6965 6.55163L22.3554 6.66244" fill="white"/>
<path d="M23.1525 6.3653H22.4353V6.72388" fill="white"/>
<path d="M23.1525 6.3653L22.5723 6.78684L22.3615 6.49674" fill="white"/>
<path d="M21.7872 6.36456L22.3674 6.7861L22.5782 6.496" fill="white"/>
<path d="M21.7872 6.36456H22.5044V6.72315" fill="white"/>
<path d="M22.8928 7.16644L22.6712 6.48438L22.3302 6.59518" fill="white"/>
<path d="M22.8928 7.16644L22.3126 6.7449L22.5234 6.4548" fill="white"/>
<path d="M22.053 7.1611L22.6332 6.73956L22.4224 6.44946" fill="white"/>
<path d="M22.053 7.1611L22.2746 6.47904L22.6156 6.58984" fill="white"/>
<path d="M22.4749 3L22.2532 3.68207L22.5943 3.79287" fill="white"/>
<path d="M22.4749 3L22.6965 3.68207L22.3554 3.79287" fill="white"/>
<path d="M23.1525 3.49622H22.4353V3.8548" fill="white"/>
<path d="M23.1525 3.49622L22.5723 3.91776L22.3615 3.62766" fill="white"/>
<path d="M21.7872 3.49548L22.3674 3.91702L22.5782 3.62692" fill="white"/>
<path d="M21.7872 3.49548H22.5044V3.85407" fill="white"/>
<path d="M22.8928 4.29834L22.6712 3.61627L22.3302 3.72708" fill="white"/>
<path d="M22.8928 4.29834L22.3126 3.8768L22.5234 3.5867" fill="white"/>
<path d="M22.053 4.29251L22.6332 3.87097L22.4224 3.58087" fill="white"/>
<path d="M22.053 4.29251L22.2746 3.61044L22.6156 3.72125" fill="white"/>
<path d="M25.3438 8.73779L25.1221 9.41986L25.4632 9.53067" fill="white"/>
<path d="M25.3438 8.73779L25.5654 9.41986L25.2243 9.53067" fill="white"/>
<path d="M26.0233 9.23303H25.3061V9.59162" fill="white"/>
<path d="M26.0233 9.23303L25.4431 9.65457L25.2323 9.36447" fill="white"/>
<path d="M24.66 9.23279L25.2402 9.65433L25.451 9.36423" fill="white"/>
<path d="M24.66 9.23279H25.3772V9.59137" fill="white"/>
<path d="M25.7637 10.0361L25.5421 9.35407L25.201 9.46487" fill="white"/>
<path d="M25.7637 10.0361L25.1835 9.61459L25.3942 9.32449" fill="white"/>
<path d="M24.9199 10.0313L25.5001 9.60974L25.2894 9.31964" fill="white"/>
<path d="M24.9199 10.0313L25.1415 9.34921L25.4826 9.46002" fill="white"/>
<path d="M25.344 5.86948L25.1224 6.55154L25.4634 6.66235" fill="white"/>
<path d="M25.344 5.86948L25.5656 6.55154L25.2246 6.66235" fill="white"/>
<path d="M26.0236 6.3652H25.3064V6.72379" fill="white"/>
<path d="M26.0236 6.3652L25.4434 6.78674L25.2326 6.49664" fill="white"/>
<path d="M24.6602 6.36493L25.2404 6.78647L25.4511 6.49637" fill="white"/>
<path d="M24.6602 6.36493H25.3773V6.72351" fill="white"/>
<path d="M25.7639 7.16733L25.5423 6.48526L25.2013 6.59607" fill="white"/>
<path d="M25.7639 7.16733L25.1837 6.74579L25.3945 6.45569" fill="white"/>
<path d="M24.9202 7.16199L25.5004 6.74045L25.2896 6.45035" fill="white"/>
<path d="M24.9202 7.16199L25.1418 6.47992L25.4828 6.59073" fill="white"/>
<path d="M25.344 3L25.1224 3.68207L25.4634 3.79287" fill="white"/>
<path d="M25.344 3L25.5656 3.68207L25.2246 3.79287" fill="white"/>
<path d="M26.0236 3.49573H25.3064V3.85431" fill="white"/>
<path d="M26.0236 3.49573L25.4434 3.91727L25.2326 3.62717" fill="white"/>
<path d="M24.6602 3.49545L25.2404 3.91699L25.4511 3.62689" fill="white"/>
<path d="M24.6602 3.49545H25.3773V3.85404" fill="white"/>
<path d="M25.7639 4.29834L25.5423 3.61627L25.2013 3.72708" fill="white"/>
<path d="M25.7639 4.29834L25.1837 3.8768L25.3945 3.5867" fill="white"/>
<path d="M24.9202 4.29251L25.5004 3.87097L25.2896 3.58087" fill="white"/>
<path d="M24.9202 4.29251L25.1418 3.61044L25.4828 3.72125" fill="white"/>
<path d="M28.2148 8.73779L27.9932 9.41986L28.3343 9.53067" fill="white"/>
<path d="M28.2148 8.73779L28.4365 9.41986L28.0954 9.53067" fill="white"/>
<path d="M28.8965 9.23291H28.1793V9.59149" fill="white"/>
<path d="M28.8965 9.23291L28.3163 9.65445L28.1055 9.36435" fill="white"/>
<path d="M27.5311 9.23279L28.1113 9.65433L28.3221 9.36423" fill="white"/>
<path d="M27.5311 9.23279H28.2483V9.59137" fill="white"/>
<path d="M28.6367 10.0361L28.4151 9.35407L28.0741 9.46487" fill="white"/>
<path d="M28.6367 10.0361L28.0565 9.61459L28.2673 9.32449" fill="white"/>
<path d="M27.7949 10.0313L28.3751 9.60974L28.1644 9.31964" fill="white"/>
<path d="M27.7949 10.0313L28.0165 9.34921L28.3576 9.46002" fill="white"/>
<path d="M28.2148 5.86914L27.9932 6.55121L28.3343 6.66202" fill="white"/>
<path d="M28.2148 5.86914L28.4365 6.55121L28.0954 6.66202" fill="white"/>
<path d="M28.8965 6.36475H28.1793V6.72333" fill="white"/>
<path d="M28.8965 6.36475L28.3163 6.78629L28.1055 6.49619" fill="white"/>
<path d="M27.5311 6.36462L28.1113 6.78616L28.3221 6.49606" fill="white"/>
<path d="M27.5311 6.36462H28.2483V6.72321" fill="white"/>
<path d="M28.6367 7.16699L28.4151 6.48493L28.0741 6.59573" fill="white"/>
<path d="M28.6367 7.16699L28.0565 6.74545L28.2673 6.45535" fill="white"/>
<path d="M27.7949 7.16165L28.3751 6.74011L28.1644 6.45001" fill="white"/>
<path d="M27.7949 7.16165L28.0165 6.47959L28.3576 6.59039" fill="white"/>
<path d="M28.2148 3L27.9932 3.68207L28.3343 3.79287" fill="white"/>
<path d="M28.2148 3L28.4365 3.68207L28.0954 3.79287" fill="white"/>
<path d="M28.8925 3.49573H28.1753V3.85431" fill="white"/>
<path d="M28.8925 3.49573L28.3123 3.91727L28.1015 3.62717" fill="white"/>
<path d="M27.535 3.49548L28.1152 3.91702L28.326 3.62692" fill="white"/>
<path d="M27.535 3.49548H28.2522V3.85407" fill="white"/>
<path d="M28.6367 4.29688L28.4151 3.61481L28.0741 3.72562" fill="white"/>
<path d="M28.6367 4.29688L28.0565 3.87533L28.2673 3.58523" fill="white"/>
<path d="M27.793 4.29202L28.3732 3.87048L28.1624 3.58038" fill="white"/>
<path d="M27.793 4.29202L28.0146 3.60996L28.3556 3.72076" fill="white"/>
<path d="M16.7402 8.73749L16.5186 9.41955L16.8597 9.53036" fill="white"/>
<path d="M16.7402 8.73749L16.9619 9.41955L16.6208 9.53036" fill="white"/>
<path d="M17.4178 9.23322H16.7007V9.5918" fill="white"/>
<path d="M17.4178 9.23322L16.8376 9.65476L16.6269 9.36466" fill="white"/>
<path d="M16.0546 9.23248L16.6348 9.65402L16.8455 9.36392" fill="white"/>
<path d="M16.0546 9.23248H16.7717V9.59107" fill="white"/>
<path d="M17.1602 10.0363L16.9385 9.35425L16.5975 9.46506" fill="white"/>
<path d="M17.1602 10.0363L16.58 9.61478L16.7907 9.32468" fill="white"/>
<path d="M16.3164 10.0305L16.8966 9.60895L16.6858 9.31885" fill="white"/>
<path d="M16.3164 10.0305L16.538 9.34842L16.8791 9.45923" fill="white"/>
<path d="M19.6074 8.73785L19.3858 9.41992L19.7268 9.53073" fill="white"/>
<path d="M19.6074 8.73785L19.829 9.41992L19.488 9.53073" fill="white"/>
<path d="M20.2871 9.23309H19.5699V9.59168" fill="white"/>
<path d="M20.2871 9.23309L19.7069 9.65463L19.4961 9.36453" fill="white"/>
<path d="M18.9257 9.23236L19.5059 9.6539L19.7166 9.3638" fill="white"/>
<path d="M18.9257 9.23236H19.6428V9.59094" fill="white"/>
<path d="M20.0254 10.0352L19.8038 9.35315L19.4627 9.46396" fill="white"/>
<path d="M20.0254 10.0352L19.4452 9.61368L19.656 9.32358" fill="white"/>
<path d="M19.1836 10.0304L19.7638 9.60882L19.553 9.31872" fill="white"/>
<path d="M19.1836 10.0304L19.4052 9.3483L19.7462 9.45911" fill="white"/>
<path d="M19.6094 5.86948L19.3878 6.55154L19.7288 6.66235" fill="white"/>
<path d="M19.6094 5.86948L19.831 6.55154L19.49 6.66235" fill="white"/>
<path d="M20.2889 6.36472H19.5718V6.7233" fill="white"/>
<path d="M20.2889 6.36472L19.7087 6.78626L19.498 6.49616" fill="white"/>
<path d="M18.9257 6.36447L19.5059 6.78601L19.7166 6.49591" fill="white"/>
<path d="M18.9257 6.36447H19.6428V6.72305" fill="white"/>
<path d="M20.0254 7.16782L19.8038 6.48575L19.4627 6.59656" fill="white"/>
<path d="M20.0254 7.16782L19.4452 6.74628L19.656 6.45618" fill="white"/>
<path d="M19.1836 7.16199L19.7638 6.74045L19.553 6.45035" fill="white"/>
<path d="M19.1836 7.16199L19.4052 6.47992L19.7462 6.59073" fill="white"/>
</g>
<defs>
<clipPath id="clip0_1_6396">
<rect width="40" height="40" rx="20" fill="white"/>
</clipPath>
</defs>
</svg>
