<svg width="40" height="40" viewBox="0 0 40 40" fill="none" xmlns="http://www.w3.org/2000/svg">
<g clip-path="url(#clip0_1_14730)">
<path d="M60 0H0V20H60V0Z" fill="#D21034"/>
<path d="M60 20H0V40H60V20Z" fill="#009543"/>
<path d="M0 0L38.7939 20L0 40V0Z" fill="black"/>
<path d="M60.0402 16.421H0V23.5789H60.0402V16.421Z" fill="black"/>
<path d="M0 2.84216L33.2808 19.9999L0 37.1576V2.84216Z" fill="#FDCE12"/>
<path d="M60.0522 18.9474H0V21.0527H60.0522V18.9474Z" fill="#FDCE12"/>
<path d="M0 5.21082L28.6864 20L0 34.7891V5.21082Z" fill="black"/>
<path d="M8.10297 23.826C8.10297 23.826 8.10297 25.2713 8.10297 26.1051C10.0856 26.1051 13.9767 24.5858 13.9767 19.6941C13.9767 14.8025 9.8262 13.8945 8.58472 13.8945C7.34332 13.8945 3.50781 14.7839 3.50781 18.7862C3.50781 22.7884 7.26922 23.159 8.01034 23.159C8.75146 23.159 11.5308 22.4919 11.2159 19.4903C11.2159 20.3426 10.2524 22.1399 8.23265 22.1399C6.21301 22.1399 4.95308 20.639 4.95308 19.1568C4.95308 17.6744 6.17595 15.6918 8.30676 15.6918C10.4376 15.6918 11.994 17.5817 11.994 19.4903C11.994 21.3987 10.4932 23.826 8.10297 23.826Z" fill="#FDCE12"/>
<path d="M6.36523 20.8597L6.48334 20.9362C6.48334 20.9362 7.42138 18.7961 9.94362 17.2744C9.62397 17.4481 7.93555 18.2889 6.36523 20.8597Z" fill="#FDCE12" stroke="#FDCE12" stroke-width="0.0701754"/>
<path d="M6.60937 20.4914C6.60937 20.4914 6.31758 19.8939 6.57464 19.6299C6.83176 19.3658 6.71365 20.3316 6.71365 20.3316L6.82481 20.1718C6.82481 20.1718 6.65106 19.4422 6.84565 19.2894C7.04018 19.1365 6.94292 19.9911 6.94292 19.9911L7.06102 19.8383C7.06102 19.8383 6.93597 19.1296 7.12355 18.9975C7.3112 18.8655 7.19309 19.6646 7.19309 19.6646L7.33204 19.5047C7.33204 19.5047 7.22783 18.8308 7.45709 18.671C7.68643 18.5111 7.48488 19.3102 7.48488 19.3102L7.63772 19.1435C7.63772 19.1435 7.56825 18.525 7.76285 18.3861C7.95737 18.2471 7.79064 18.9697 7.79064 18.9697L7.92958 18.8238C7.92958 18.8238 7.8879 18.2471 8.07548 18.1151C8.26313 17.9831 8.08937 18.664 8.08937 18.664L8.23534 18.525C8.23534 18.525 8.2006 17.9483 8.43681 17.8372C8.67302 17.726 8.39513 18.3791 8.39513 18.3791L8.55492 18.2402C8.55492 18.2402 8.60355 17.5662 8.80509 17.5036C9.00657 17.4411 8.71478 18.1012 8.71478 18.1012L8.86067 17.9831C8.86067 17.9831 8.93709 17.4064 9.15941 17.3369C9.3818 17.2674 9.02046 17.865 9.02046 17.865L9.16636 17.7538C9.16636 17.7538 9.32622 17.1771 9.53464 17.1146C9.74313 17.052 9.31927 17.6565 9.31927 17.6565L9.45822 17.5593C9.45822 17.5593 9.68748 17.0381 9.87513 17.0033C10.0627 16.9686 9.66664 17.4342 9.66664 17.4342L9.84039 17.3299C9.84039 17.3299 10.1391 16.788 10.2434 16.9547C10.3476 17.1215 9.8265 17.3647 9.8265 17.3647L9.65274 17.4619C9.65274 17.4619 10.2851 17.1632 10.3615 17.316C10.4379 17.4689 9.49295 17.5662 9.49295 17.5662L9.34011 17.6704C9.34011 17.6704 9.97239 17.4967 9.89597 17.6565C9.81955 17.8163 9.19422 17.7816 9.19422 17.7816L9.04825 17.8858C9.04825 17.8858 9.68053 17.733 9.59716 17.8789C9.51379 18.0247 8.89541 18.0109 8.89541 18.0109L8.74257 18.136C8.74257 18.136 9.36095 17.9761 9.27064 18.1638C9.18025 18.3513 8.4785 18.3444 8.4785 18.3444L8.30481 18.5042C8.30481 18.5042 8.95793 18.2819 8.90236 18.4556C8.84678 18.6293 8.10327 18.7196 8.10327 18.7196L7.93653 18.8864C7.93653 18.8864 8.63829 18.6502 8.42987 18.8655C8.22144 19.081 7.71422 19.1365 7.71422 19.1365L7.51267 19.3797C7.51267 19.3797 8.20755 18.9628 8.11022 19.1991C8.01295 19.4353 7.33204 19.5951 7.33204 19.5951L7.19309 19.7619C7.19309 19.7619 7.81843 19.4005 7.7559 19.6021C7.69337 19.8036 7.02629 20.0189 7.02629 20.0189L6.91513 20.1718C6.91513 20.1718 7.65162 19.7341 7.58909 19.9564C7.52657 20.1788 6.82481 20.3386 6.82481 20.3386L6.7345 20.4775C6.7345 20.4775 7.41541 20.0885 7.42236 20.276C7.4293 20.4636 6.62327 20.6513 6.62327 20.6513L6.60937 20.4914Z" fill="#FDCE12"/>
<path d="M10.3711 20.8597L10.253 20.9362C10.253 20.9362 9.31495 18.7961 6.79271 17.2744C7.11236 17.4481 8.80078 18.2889 10.3711 20.8597Z" fill="#FDCE12" stroke="#FDCE12" stroke-width="0.0701754"/>
<path d="M10.127 20.4914C10.127 20.4914 10.4187 19.8939 10.1617 19.6299C9.90457 19.3658 10.0227 20.3316 10.0227 20.3316L9.91152 20.1718C9.91152 20.1718 10.0853 19.4422 9.89067 19.2894C9.69615 19.1365 9.79341 19.9911 9.79341 19.9911L9.67531 19.8383C9.67531 19.8383 9.80036 19.1296 9.61278 18.9975C9.42513 18.8655 9.54324 19.6646 9.54324 19.6646L9.40429 19.5047C9.40429 19.5047 9.5085 18.8308 9.27924 18.671C9.0499 18.5111 9.25145 19.3102 9.25145 19.3102L9.0986 19.1435C9.0986 19.1435 9.16808 18.525 8.97348 18.3861C8.77895 18.2471 8.94569 18.9697 8.94569 18.9697L8.80674 18.8238C8.80674 18.8238 8.84843 18.2471 8.66085 18.1151C8.4732 17.9831 8.64695 18.664 8.64695 18.664L8.50099 18.525C8.50099 18.525 8.53573 17.9483 8.29952 17.8372C8.06331 17.726 8.3412 18.3791 8.3412 18.3791L8.18141 18.2402C8.18141 18.2402 8.13278 17.5662 7.93124 17.5036C7.72976 17.4411 8.02155 18.1012 8.02155 18.1012L7.87566 17.9831C7.87566 17.9831 7.79923 17.4064 7.57692 17.3369C7.35453 17.2674 7.71587 17.865 7.71587 17.865L7.56997 17.7538C7.56997 17.7538 7.41011 17.1771 7.20169 17.1146C6.9932 17.052 7.41706 17.6565 7.41706 17.6565L7.27811 17.5593C7.27811 17.5593 7.04885 17.0381 6.8612 17.0033C6.67362 16.9686 7.06969 17.4342 7.06969 17.4342L6.89594 17.3299C6.89594 17.3299 6.5972 16.788 6.49292 16.9547C6.38871 17.1215 6.90983 17.3647 6.90983 17.3647L7.08359 17.4619C7.08359 17.4619 6.45124 17.1632 6.37481 17.316C6.29839 17.4689 7.24338 17.5662 7.24338 17.5662L7.39622 17.6704C7.39622 17.6704 6.76394 17.4967 6.84036 17.6565C6.91678 17.8163 7.54211 17.7816 7.54211 17.7816L7.68808 17.8858C7.68808 17.8858 7.0558 17.733 7.13917 17.8789C7.22253 18.0247 7.84092 18.0109 7.84092 18.0109L7.99376 18.136C7.99376 18.136 7.37538 17.9761 7.46569 18.1638C7.55608 18.3513 8.25783 18.3444 8.25783 18.3444L8.43152 18.5042C8.43152 18.5042 7.77839 18.2819 7.83397 18.4556C7.88955 18.6293 8.63306 18.7196 8.63306 18.7196L8.7998 18.8864C8.7998 18.8864 8.09804 18.6502 8.30646 18.8655C8.51488 19.081 9.02211 19.1365 9.02211 19.1365L9.22366 19.3797C9.22366 19.3797 8.52878 18.9628 8.62611 19.1991C8.72338 19.4353 9.40429 19.5951 9.40429 19.5951L9.54324 19.7619C9.54324 19.7619 8.9179 19.4005 8.98043 19.6021C9.04295 19.8036 9.71004 20.0189 9.71004 20.0189L9.8212 20.1718C9.8212 20.1718 9.08471 19.7341 9.14724 19.9564C9.20976 20.1788 9.91152 20.3386 9.91152 20.3386L10.0018 20.4775C10.0018 20.4775 9.32092 20.0885 9.31397 20.276C9.30702 20.4636 10.1131 20.6513 10.1131 20.6513L10.127 20.4914Z" fill="#FDCE12"/>
</g>
<defs>
<clipPath id="clip0_1_14730">
<rect width="40" height="40" rx="20" fill="white"/>
</clipPath>
</defs>
</svg>
