<svg width="40" height="40" viewBox="0 0 40 40" fill="none" xmlns="http://www.w3.org/2000/svg">
<g clip-path="url(#clip0_1_9176)">
<path d="M-10 0H50V40H-10V0Z" fill="#CF142B"/>
<path d="M-10 0H50V26.6667H-10V0Z" fill="#00247D"/>
<path d="M-10 0H50V13.3333H-10V0Z" fill="#FFCC00"/>
<path d="M22.3887 14.54L21.6062 16.0116L22.4892 16.4811L22.3887 14.54Z" fill="white"/>
<path d="M22.3887 14.54L22.6206 16.1905L21.6304 16.3297L22.3887 14.54Z" fill="white"/>
<path d="M23.7518 15.9496L22.1105 15.6602L21.9368 16.645L23.7518 15.9496Z" fill="white"/>
<path d="M23.7518 15.9496L22.2538 16.6803L21.8155 15.7815L23.7518 15.9496Z" fill="white"/>
<path d="M20.6289 15.3989L21.7867 16.5978L22.506 15.9032L20.6289 15.3989Z" fill="white"/>
<path d="M20.6289 15.3989L22.2703 15.6883L22.0966 16.6731L20.6289 15.3989Z" fill="white"/>
<path d="M22.8105 17.6802L22.5786 16.0297L21.5883 16.1689L22.8105 17.6802Z" fill="white"/>
<path d="M22.8105 17.6802L21.6528 16.4813L22.3721 15.7866L22.8105 17.6802Z" fill="white"/>
<path d="M20.9005 17.3398L22.3985 16.6092L21.9601 15.7104L20.9005 17.3398Z" fill="white"/>
<path d="M20.9005 17.3398L21.683 15.8683L22.5659 16.3377L20.9005 17.3398Z" fill="white"/>
<path d="M26.8319 16.168L25.5933 17.2832L26.2625 18.0263L26.8319 16.168Z" fill="white"/>
<path d="M26.8319 16.168L26.4854 17.7982L25.5072 17.5903L26.8319 16.168Z" fill="white"/>
<path d="M27.6288 17.9565L26.1854 17.1232L25.6854 17.9892L27.6288 17.9565Z" fill="white"/>
<path d="M27.6288 17.9565L25.9712 18.1308L25.8667 17.1362L27.6288 17.9565Z" fill="white"/>
<path d="M24.8848 16.3726L25.5627 17.8951L26.4762 17.4884L24.8848 16.3726Z" fill="white"/>
<path d="M24.8848 16.3726L26.3281 17.2059L25.8281 18.0719L24.8848 16.3726Z" fill="white"/>
<path d="M26.1738 19.2681L26.5203 17.6378L25.5422 17.4299L26.1738 19.2681Z" fill="white"/>
<path d="M26.1738 19.2681L25.4959 17.7455L26.4095 17.3388L26.1738 19.2681Z" fill="white"/>
<path d="M24.4764 18.2884L26.134 18.1142L26.0294 17.1197L24.4764 18.2884Z" fill="white"/>
<path d="M24.4764 18.2884L25.715 17.1732L26.3841 17.9163L24.4764 18.2884Z" fill="white"/>
<path d="M30.4861 19.2185L28.9408 19.8429L29.3154 20.77L30.4861 19.2185Z" fill="white"/>
<path d="M30.4861 19.2185L29.6029 20.6319L28.7548 20.102L30.4861 19.2185Z" fill="white"/>
<path d="M30.6228 21.173L29.5515 19.8963L28.7854 20.5391L30.6228 21.173Z" fill="white"/>
<path d="M30.6228 21.173L29.0056 20.7698L29.2476 19.7995L30.6228 21.173Z" fill="white"/>
<path d="M28.5859 18.7446L28.7022 20.4072L29.6998 20.3375L28.5859 18.7446Z" fill="white"/>
<path d="M28.5859 18.7446L29.6573 20.0214L28.8912 20.6642L28.5859 18.7446Z" fill="white"/>
<path d="M28.8066 21.9072L29.6898 20.4938L28.8418 19.9639L28.8066 21.9072Z" fill="white"/>
<path d="M28.8066 21.9072L28.6904 20.2446L29.6879 20.1749L28.8066 21.9072Z" fill="white"/>
<path d="M27.5469 20.4062L29.164 20.8095L29.406 19.8392L27.5469 20.4062Z" fill="white"/>
<path d="M27.5469 20.4062L29.0922 19.7819L29.4668 20.7091L27.5469 20.4062Z" fill="white"/>
<path d="M32.8574 23.3276L31.1918 23.3858L31.2267 24.3852L32.8574 23.3276Z" fill="white"/>
<path d="M32.8574 23.3276L31.5441 24.3537L30.9284 23.5657L32.8574 23.3276Z" fill="white"/>
<path d="M32.2988 25.2114L31.7288 23.6453L30.7891 23.9873L32.2988 25.2114Z" fill="white"/>
<path d="M32.2988 25.2114L30.9171 24.2794L31.4763 23.4504L32.2988 25.2114Z" fill="white"/>
<path d="M31.2344 22.2329L30.775 23.835L31.7362 24.1107L31.2344 22.2329Z" fill="white"/>
<path d="M31.2344 22.2329L31.8044 23.7991L30.8647 24.1411L31.2344 22.2329Z" fill="white"/>
<path d="M30.3496 25.2808L31.663 24.2547L31.0473 23.4666L30.3496 25.2808Z" fill="white"/>
<path d="M30.3496 25.2808L30.809 23.6787L31.7703 23.9543L30.3496 25.2808Z" fill="white"/>
<path d="M29.6797 23.4395L31.0614 24.3714L31.6206 23.5424L29.6797 23.4395Z" fill="white"/>
<path d="M29.6797 23.4395L31.3453 23.3813L31.3802 24.3807L29.6797 23.4395Z" fill="white"/>
<path d="M7.16602 23.3286L8.47937 24.3547L9.09503 23.5667L7.16602 23.3286Z" fill="white"/>
<path d="M7.16602 23.3286L8.83167 23.3868L8.79677 24.3862L7.16602 23.3286Z" fill="white"/>
<path d="M8.79089 22.2319L8.22086 23.7981L9.16055 24.1401L8.79089 22.2319Z" fill="white"/>
<path d="M8.79089 22.2319L9.25029 23.834L8.28903 24.1097L8.79089 22.2319Z" fill="white"/>
<path d="M7.69141 25.2109L9.07314 24.2789L8.51394 23.4499L7.69141 25.2109Z" fill="white"/>
<path d="M7.69141 25.2109L8.26144 23.6448L9.20113 23.9868L7.69141 25.2109Z" fill="white"/>
<path d="M10.3242 23.4355L8.65857 23.3773L8.62367 24.3767L10.3242 23.4355Z" fill="white"/>
<path d="M10.3242 23.4355L8.94249 24.3675L8.3833 23.5384L10.3242 23.4355Z" fill="white"/>
<path d="M9.65234 25.2768L9.19295 23.6747L8.23169 23.9503L9.65234 25.2768Z" fill="white"/>
<path d="M9.65234 25.2768L8.33899 24.2507L8.95465 23.4627L9.65234 25.2768Z" fill="white"/>
<path d="M9.53101 19.2153L10.4142 20.6287L11.2623 20.0988L9.53101 19.2153Z" fill="white"/>
<path d="M9.53101 19.2153L11.0763 19.8396L10.7017 20.7668L9.53101 19.2153Z" fill="white"/>
<path d="M11.4294 18.7417L10.3581 20.0184L11.1242 20.6612L11.4294 18.7417Z" fill="white"/>
<path d="M11.4294 18.7417L11.3132 20.4043L10.3156 20.3345L11.4294 18.7417Z" fill="white"/>
<path d="M9.39221 21.1705L11.0094 20.7673L10.7674 19.797L9.39221 21.1705Z" fill="white"/>
<path d="M9.39221 21.1705L10.4635 19.8938L11.2296 20.5366L9.39221 21.1705Z" fill="white"/>
<path d="M12.4706 20.4028L10.9253 19.7785L10.5507 20.7057L12.4706 20.4028Z" fill="white"/>
<path d="M12.4706 20.4028L10.8534 20.806L10.6115 19.8357L12.4706 20.4028Z" fill="white"/>
<path d="M11.2107 21.9038L11.327 20.2412L10.3294 20.1714L11.2107 21.9038Z" fill="white"/>
<path d="M11.2107 21.9038L10.3275 20.4904L11.1755 19.9605L11.2107 21.9038Z" fill="white"/>
<path d="M13.1719 16.1635L13.5184 17.7938L14.4965 17.5858L13.1719 16.1635Z" fill="white"/>
<path d="M13.1719 16.1635L14.4104 17.2787L13.7413 18.0219L13.1719 16.1635Z" fill="white"/>
<path d="M15.1191 16.3685L13.6758 17.2019L14.1758 18.0679L15.1191 16.3685Z" fill="white"/>
<path d="M15.1191 16.3685L14.4412 17.8911L13.5277 17.4844L15.1191 16.3685Z" fill="white"/>
<path d="M12.373 17.9545L14.0306 18.1287L14.1351 17.1342L12.373 17.9545Z" fill="white"/>
<path d="M12.373 17.9545L13.8164 17.1212L14.3164 17.9872L12.373 17.9545Z" fill="white"/>
<path d="M15.5214 18.2849L14.2828 17.1697L13.6137 17.9128L15.5214 18.2849Z" fill="white"/>
<path d="M15.5214 18.2849L13.8638 18.1107L13.9684 17.1162L15.5214 18.2849Z" fill="white"/>
<path d="M13.8262 19.2647L14.5041 17.7421L13.5905 17.3354L13.8262 19.2647Z" fill="white"/>
<path d="M13.8262 19.2647L13.4797 17.6345L14.4578 17.4266L13.8262 19.2647Z" fill="white"/>
<path d="M17.6406 14.5419L17.4087 16.1924L18.3989 16.3316L17.6406 14.5419Z" fill="white"/>
<path d="M17.6406 14.5419L18.4231 16.0135L17.5401 16.483L17.6406 14.5419Z" fill="white"/>
<path d="M19.4022 15.4008L17.7609 15.6902L17.9345 16.675L19.4022 15.4008Z" fill="white"/>
<path d="M19.4022 15.4008L18.2445 16.5997L17.5251 15.9051L19.4022 15.4008Z" fill="white"/>
<path d="M16.2754 15.9496L17.7734 16.6803L18.2118 15.7815L16.2754 15.9496Z" fill="white"/>
<path d="M16.2754 15.9496L17.9167 15.6602L18.0904 16.645L16.2754 15.9496Z" fill="white"/>
<path d="M19.127 17.3393L18.3445 15.8677L17.4616 16.3372L19.127 17.3393Z" fill="white"/>
<path d="M19.127 17.3393L17.629 16.6087L18.0673 15.7099L19.127 17.3393Z" fill="white"/>
<path d="M17.1757 17.6791L18.3334 16.4802L17.6141 15.7856L17.1757 17.6791Z" fill="white"/>
<path d="M17.1757 17.6791L17.4076 16.0287L18.3979 16.1679L17.1757 17.6791Z" fill="white"/>
</g>
<defs>
<clipPath id="clip0_1_9176">
<rect width="40" height="40" rx="20" fill="white"/>
</clipPath>
</defs>
</svg>
