<svg width="40" height="40" viewBox="0 0 40 40" fill="none" xmlns="http://www.w3.org/2000/svg">
<g clip-path="url(#clip0_1_15684)">
<path d="M30.0006 12.8569H15.7148V39.9998H30.0006V12.8569Z" fill="#DE2010"/>
<path d="M40.0006 12.8569H25.7148V39.9998H40.0006V12.8569Z" fill="#EF7D00"/>
<path d="M32.8577 12.8569H25.7148V39.9998H32.8577V12.8569Z" fill="black"/>
<path d="M-20 0H40V14.2857H18.5714V40H-20V0Z" fill="#198A00"/>
<path d="M30.0261 7.46369C30.0261 7.46369 31.8685 6.74165 32.047 6.59277C32.1281 6.6821 31.3084 7.59024 29.7177 7.92521C31.1623 7.61257 32.396 6.62999 32.6475 6.65977C32.7206 6.67465 32.7043 7.62001 29.3931 8.43883C31.6817 7.88798 33.0127 6.87563 32.9965 6.98729C33.0127 7.00962 32.7693 7.78377 30.7647 8.38672C31.3247 8.2676 32.8423 7.41903 32.8261 7.5828C32.8748 7.64979 31.3571 9.43628 28.614 8.85569C30.8053 9.37674 32.2255 8.11874 32.4284 8.14107C32.469 8.14852 32.0226 9.24275 29.2633 9.30975C30.5862 9.18321 30.2047 9.30229 30.2047 9.30229C30.2047 9.30229 29.4256 9.86057 28.4841 9.48097C29.2227 9.66707 29.3038 9.6745 29.3201 9.73403C29.2714 9.80845 28.6627 9.92014 28.0784 9.62981C28.5491 9.80845 28.9711 9.83826 28.9792 9.90526C28.9711 9.92756 28.6708 10.0839 28.403 9.97225C28.1352 9.86057 25.668 8.4686 25.668 8.4686L29.872 7.41159L30.0261 7.46369Z" fill="#EF7D00" stroke="black" stroke-width="0.0481989" stroke-linecap="round" stroke-linejoin="round"/>
<path d="M25.0827 11.2289C24.7129 11.2289 24.7027 11.5307 24.7027 11.5307C24.7027 11.5307 24.6722 11.5525 24.6925 11.6988C24.7536 11.5991 24.7842 11.568 24.7842 11.568C24.8249 11.5743 24.9945 11.6209 25.2625 11.428C25.0182 11.6614 25.1641 11.7485 25.1641 11.7485C25.1641 11.7485 25.1064 11.9321 25.293 11.9694C25.2354 11.8947 25.2693 11.8294 25.2693 11.8294C25.2693 11.8294 25.5305 11.8045 25.5135 11.512C25.5237 11.7765 25.6798 11.8418 25.6798 11.8418C25.6798 11.8418 25.6798 11.9881 25.8494 12.0006C25.7578 11.9259 25.7781 11.8107 25.7781 11.8107C25.7781 11.8107 25.9987 11.6645 25.8121 11.4156C25.924 11.3564 26.0156 11.1915 26.0156 11.1915C26.0156 11.1915 25.863 11.1324 25.7917 11.0826C25.7578 11.0173 25.7883 10.6594 25.7883 10.6594L25.6967 10.1958L25.4355 10.9177C25.4456 10.815 25.4524 11.2289 25.0827 11.2289Z" fill="#EF7D00" stroke="black" stroke-width="0.0481989" stroke-linecap="round" stroke-linejoin="round"/>
<path d="M26.9098 10.188C26.9179 10.1955 27.1858 10.471 27.4456 10.4561C27.543 10.3816 27.2426 10.2178 27.2426 10.1806C27.3481 10.2699 27.7946 10.6199 28.0788 10.4933C28.1924 10.3444 27.8758 10.3667 27.5267 9.96465C27.7702 10.1136 28.3791 10.4412 28.6632 10.3146C28.785 10.1955 28.03 9.82316 27.7784 9.53279L27.129 9.22754L26.2441 9.89021L26.9098 10.188Z" fill="#EF7D00" stroke="black" stroke-width="0.0481989" stroke-linecap="round" stroke-linejoin="round"/>
<path d="M25.9121 7.92485C25.9121 7.92485 26.2124 7.76109 27.4135 7.84297C27.5434 7.85785 28.2332 7.6271 28.4523 7.56011C28.8013 7.50056 29.9132 7.27724 30.2135 7.06882C30.4245 7.04649 30.1566 7.42612 29.8888 7.51544C29.6047 7.63455 28.5741 7.96207 28.2088 7.91741C28.6471 7.92485 28.4037 8.25238 27.6732 8.09606C28.0222 8.27471 27.8923 8.30448 27.8923 8.30448C27.8923 8.30448 27.2756 8.33426 27.1132 8.20771C27.5272 8.34915 27.3567 8.40125 27.3567 8.40125C27.3567 8.40125 26.9347 8.43847 26.7399 8.35659C27.0402 8.43847 26.886 8.49058 26.886 8.49058C26.886 8.49058 26.6425 8.5278 26.4396 8.4608C26.2367 8.39381 25.9283 7.92485 25.9121 7.92485Z" fill="#EF7D00" stroke="black" stroke-width="0.0481989" stroke-linecap="round" stroke-linejoin="round"/>
<path d="M26.3921 10.3416L26.4362 11.0697C26.4362 11.0697 26.4124 11.1071 26.3921 11.1288C26.3717 11.1506 25.8289 11.051 25.9035 11.4306C25.9035 11.5862 25.9069 11.6267 26.0223 11.7138C25.9917 11.6111 26.0019 11.5396 26.0019 11.5396C26.0019 11.5396 26.1546 11.6236 26.3039 11.3933C26.2021 11.6205 26.2733 11.7014 26.2971 11.7076C26.3208 11.7481 26.2564 11.9316 26.4599 11.9285C26.3819 11.8601 26.4192 11.7605 26.4192 11.7605C26.4192 11.7605 26.6329 11.7294 26.5583 11.3747C26.6363 11.3031 26.6669 11.3715 26.6669 11.3715C26.6669 11.3715 26.6906 11.5831 26.8772 11.5396C26.962 11.5831 26.8636 11.6983 26.8636 11.6983C26.8636 11.6983 26.9993 11.7014 27.04 11.5956C27.0808 11.4898 27.1282 11.3 26.9043 11.2222C26.8772 11.1475 26.9926 11.1413 26.9926 11.1413C26.9926 11.1413 27.135 11.1848 27.1757 11.2502C27.2164 11.3155 27.2029 11.0791 27.0265 11.0541C26.8093 11.0479 26.7958 11.0075 26.7958 10.9982C26.7958 10.9888 26.7585 10.4692 26.7415 10.3198L26.3921 10.3416Z" fill="#EF7D00" stroke="black" stroke-width="0.0481989" stroke-linecap="round" stroke-linejoin="round"/>
<path d="M27.1477 10.9623C27.1504 10.9289 26.7775 10.4683 26.8721 10.4088C26.9666 10.4267 27.1218 10.6361 27.2474 10.5681C27.2093 10.4865 27.0971 10.5325 26.9696 10.3234C26.8422 10.0871 26.8236 9.73234 26.3772 9.34536C26.6662 9.75487 27.3217 9.99491 27.3495 9.8755C27.3772 9.7561 26.7722 9.30457 26.8032 9.19574C26.9236 9.41922 27.531 9.91719 27.9786 9.87595C28.0093 9.78008 27.6121 9.58658 27.5099 9.4059C27.2239 9.22974 26.4588 8.62482 26.4435 8.48453C26.1651 8.11208 25.9912 7.9994 25.9103 7.95651C25.879 7.92271 25.8712 7.8904 25.8651 7.86987C25.6922 7.49614 25.9212 7.37479 26.0551 7.35684C26.1654 7.3456 26.1974 7.36074 26.2768 7.3255C26.1828 7.29178 26.0889 7.26025 25.995 7.22654C26.1175 7.30895 26.4304 7.23639 26.3625 7.47377C26.4997 7.4259 26.7916 7.10738 26.0317 7.03549C25.7844 6.77528 24.7677 6.62573 24.5132 7.76143C24.5335 7.77735 24.5441 7.79043 24.6088 7.83473C24.2877 7.69199 23.4216 7.58192 23.1094 7.53566C22.2662 7.31251 21.3905 6.77476 21.3063 6.84089C21.1937 6.88673 21.8158 7.41755 21.7834 7.4293C21.244 7.14084 20.7513 6.93648 20.2928 6.75051C19.9702 6.63992 19.6472 6.38244 19.6115 6.43142C19.4928 6.65697 20.1287 7.22394 20.247 7.29063C20.3653 7.35443 21.2955 7.7502 21.2818 7.75514C19.8807 7.17186 19.6458 7.06611 19.5755 6.99886C19.452 6.97335 19.1512 6.60082 19.0673 6.62477C19.0214 6.66613 19.1135 7.25476 19.782 7.51899C19.891 7.59184 21.2152 8.02752 21.2022 8.06168C21.199 8.07022 19.6856 7.48878 19.6268 7.46799C19.335 7.36305 18.977 6.9952 18.9101 7.03657C18.8462 7.0741 19.0751 7.47225 19.3699 7.59713C19.5245 7.65968 20.1173 7.92897 20.6514 8.10037C20.6854 8.11168 19.6914 7.75461 19.2134 7.57142C18.9967 7.46111 18.8946 7.3236 18.8616 7.35319C18.8128 7.38277 18.9405 7.97093 20.4764 8.3028C20.5169 8.3186 21.017 8.19413 20.9923 8.21063C20.9861 8.21476 20.4957 8.3127 20.4479 8.30936C20.4054 8.3034 20.1367 8.33853 20.1318 8.35131C20.1156 8.39109 20.2292 8.60169 21.0222 8.55777C21.1236 8.55218 21.6737 8.37401 21.6275 8.41233C21.6044 8.43151 20.8783 8.6479 20.823 8.65217C20.775 8.6584 20.52 8.68286 20.5105 8.70774C20.499 8.74168 20.6993 8.89156 21.1252 8.91558C21.5023 8.93395 22.2187 8.70426 22.2044 8.71915C22.19 8.73404 21.5137 8.94661 21.496 8.95956C21.4715 8.97226 21.2238 8.98458 21.2151 9.00202C21.1949 9.04541 21.5724 9.36915 22.6886 9.02366C22.5765 9.16259 22.0354 9.25761 22.0362 9.28263C22.0337 9.30078 22.1554 9.40864 22.3446 9.44725C22.4392 9.46655 22.5687 9.46261 22.6869 9.44546C22.8994 9.40645 23.1233 9.32936 23.4078 9.08821C23.4418 9.16389 22.6971 9.50953 22.7321 9.54249C22.8936 9.67982 23.4299 9.52478 23.4651 9.50678C23.5002 9.48874 24.4979 8.97274 24.4945 8.91302C24.51 8.98955 23.2082 9.63833 23.2223 9.66494C23.3058 9.78724 23.7505 9.65852 23.7718 9.64727C23.793 9.63606 24.3393 9.36537 24.3543 9.35739C24.3692 9.34941 23.7122 9.71007 23.7707 9.76497C23.7424 9.99918 24.7968 9.60332 24.8794 9.55403C24.9207 9.52939 24.3729 9.77495 24.3715 9.89161C24.5479 10.1652 25.1127 10.0784 25.1999 10.0182C25.2434 9.98812 25.1486 10.2214 25.1791 10.2002C25.1898 10.1959 25.302 10.0742 25.3451 9.98608C25.3314 10.0625 25.2695 10.1829 25.2333 10.3211C25.1971 10.4592 25.1868 10.6151 25.1371 10.7807C25.1258 10.8535 25.4852 10.6385 25.433 10.1246C25.4637 10.3919 25.3195 10.8917 25.3572 10.9177C25.4327 10.9697 25.6415 10.6688 25.6626 10.4653C25.7246 10.5681 25.8547 10.7826 25.9666 10.832C25.9545 10.6765 25.9688 10.6836 25.9184 10.5308C25.9475 10.3279 25.9515 10.0471 25.9585 9.73008C26.2627 10.2645 26.384 10.4902 26.299 10.8994C26.3895 10.934 26.534 10.6138 26.5223 10.4489C26.6385 10.907 27.1398 10.9756 27.1477 10.9623Z" fill="#EF7D00" stroke="black" stroke-width="0.0481989" stroke-linecap="round" stroke-linejoin="round"/>
<path d="M22.082 7.56934C22.082 7.56934 21.8749 7.71284 21.6172 7.7044C21.6816 7.94075 22.2154 7.75927 22.2154 7.75927C22.2154 7.75927 21.9577 8.02095 21.7736 8.06315C21.8841 8.14756 22.3489 8.11802 22.4271 8.07582C22.5053 8.03361 22.6434 7.869 22.6434 7.869C22.6434 7.869 22.1648 8.37548 22.0958 8.37126C22.0866 8.43035 22.5973 8.40924 22.7032 8.32061C22.809 8.23198 23.0759 8.10114 23.0759 8.10114C23.0759 8.10114 22.3765 8.54852 22.3442 8.54852C22.6065 8.61184 23.1311 8.47255 23.4671 8.28263C22.9701 8.58651 22.9241 8.64138 22.671 8.74267C22.8965 8.7891 23.0115 8.92839 23.7754 8.6245C24.2125 8.43457 24.461 8.08848 24.461 8.08848C24.1895 8.42191 23.7615 8.70471 23.2876 8.98326C23.26 9.0339 23.7938 9.24069 24.4748 8.59073" fill="#EF7D00"/>
<path d="M22.082 7.56934C22.082 7.56934 21.8749 7.71284 21.6172 7.7044C21.6816 7.94075 22.2154 7.75927 22.2154 7.75927C22.2154 7.75927 21.9577 8.02095 21.7736 8.06315C21.8841 8.14756 22.3489 8.11802 22.4271 8.07582C22.5053 8.03361 22.6434 7.869 22.6434 7.869C22.6434 7.869 22.1648 8.37548 22.0958 8.37126C22.0866 8.43035 22.5973 8.40924 22.7032 8.32061C22.809 8.23198 23.0759 8.10114 23.0759 8.10114C23.0759 8.10114 22.3765 8.54852 22.3442 8.54852C22.6065 8.61184 23.1311 8.47255 23.4671 8.28263C22.9701 8.58651 22.9241 8.64138 22.671 8.74267C22.8965 8.7891 23.0115 8.92839 23.7754 8.6245C24.2125 8.43457 24.461 8.08848 24.461 8.08848C24.1895 8.42191 23.7615 8.70471 23.2876 8.98326C23.26 9.0339 23.7938 9.24069 24.4748 8.59073" stroke="black" stroke-width="0.0481989" stroke-linecap="round" stroke-linejoin="round"/>
<path d="M25.7812 8.97852C25.7812 8.97852 25.8273 9.17688 26.0113 9.32884C26.1954 9.48076 26.2092 9.62849 26.2092 9.62849" fill="#EF7D00"/>
<path d="M25.7812 8.97852C25.7812 8.97852 25.8273 9.17688 26.0113 9.32884C26.1954 9.48076 26.2092 9.62849 26.2092 9.62849" stroke="black" stroke-width="0.0481989" stroke-linecap="round" stroke-linejoin="round"/>
<path d="M25.6873 7.68738C25.6873 7.68738 25.7517 7.86464 25.9403 7.9786C26.1336 8.09256 26.4236 8.45131 26.4465 8.51462C26.4688 8.59124 26.58 9.14351 26.5708 9.20257" fill="#EF7D00"/>
<path d="M25.6873 7.68738C25.6873 7.68738 25.7517 7.86464 25.9403 7.9786C26.1336 8.09256 26.4236 8.45131 26.4465 8.51462C26.4688 8.59124 26.58 9.14351 26.5708 9.20257" stroke="black" stroke-width="0.0481989" stroke-linecap="round" stroke-linejoin="round"/>
<path d="M24.5159 7.96185C24.5297 8.02938 24.2444 8.37126 24.6356 8.77222C24.2812 9.16893 24.2813 9.2196 24.2813 9.2196C24.2813 9.2196 24.4791 9.32089 24.8335 9.04233C25.4178 9.70076 25.2231 10.0021 25.2231 10.0021" fill="#EF7D00"/>
<path d="M24.5159 7.96185C24.5297 8.02938 24.2444 8.37126 24.6356 8.77222C24.2812 9.16893 24.2813 9.2196 24.2813 9.2196C24.2813 9.2196 24.4791 9.32089 24.8335 9.04233C25.4178 9.70076 25.2231 10.0021 25.2231 10.0021" stroke="black" stroke-width="0.0481989" stroke-linecap="round" stroke-linejoin="round"/>
<path d="M25.1752 9.53687C25.1752 9.53687 25.1214 9.46614 25.2173 9.20203C25.3038 9.29752 25.3999 9.3179 25.442 9.35655C25.4841 9.3952 25.9253 9.45378 25.9534 9.72425" fill="#EF7D00"/>
<path d="M25.1752 9.53687C25.1752 9.53687 25.1214 9.46614 25.2173 9.20203C25.3038 9.29752 25.3999 9.3179 25.442 9.35655C25.4841 9.3952 25.9253 9.45378 25.9534 9.72425" stroke="black" stroke-width="0.0481989" stroke-linecap="round" stroke-linejoin="round"/>
<path d="M25.6938 7.05832C25.6938 7.03845 25.6049 6.86359 25.2734 7.08217C25.4511 7.0921 25.6266 7.1855 25.6938 7.05832Z" fill="#EF7D00" stroke="black" stroke-width="0.0481989" stroke-linecap="round" stroke-linejoin="round"/>
<path d="M28.8577 7.85791C28.8739 7.86535 29.8481 8.05894 30.1728 7.96215C29.7588 8.46845 28.9308 8.12595 28.9308 8.12595C29.3366 8.23763 29.3529 8.23019 29.4828 8.33443C29.5234 8.43122 28.736 8.38655 28.4762 8.25253C29.1987 8.461 29.2149 8.44611 29.2393 8.52801C29.2718 8.6397 28.0541 8.49823 27.9485 8.34932C28.2732 8.58013 28.4518 8.62481 28.6304 8.72904C28.4112 8.81839 28.0054 8.90772 27.2585 8.42378C28.2407 9.24279 29.1256 9.19067 29.2636 9.33958C28.9227 9.80121 27.5995 9.0641 26.9906 8.69181C26.3818 8.31954 28.3219 9.59274 28.5006 9.57039C28.4112 9.69696 27.7699 9.58528 27.7293 9.52573" fill="#EF7D00"/>
<path d="M28.8577 7.85791C28.8739 7.86535 29.8481 8.05894 30.1728 7.96215C29.7588 8.46845 28.9308 8.12595 28.9308 8.12595C29.3366 8.23763 29.3529 8.23019 29.4828 8.33443C29.5234 8.43122 28.736 8.38655 28.4762 8.25253C29.1987 8.461 29.2149 8.44611 29.2393 8.52801C29.2718 8.6397 28.0541 8.49823 27.9485 8.34932C28.2732 8.58013 28.4518 8.62481 28.6304 8.72904C28.4112 8.81839 28.0054 8.90772 27.2585 8.42378C28.2407 9.24279 29.1256 9.19067 29.2636 9.33958C28.9227 9.80121 27.5995 9.0641 26.9906 8.69181C26.3818 8.31954 28.3219 9.59274 28.5006 9.57039C28.4112 9.69696 27.7699 9.58528 27.7293 9.52573" stroke="black" stroke-width="0.0481989" stroke-linecap="round" stroke-linejoin="round"/>
<path d="M29.1087 8.71375C28.9951 8.72864 28.6542 8.72864 28.6055 8.72119L29.1087 8.71375Z" fill="#EF7D00"/>
<path d="M29.1087 8.71375C28.9951 8.72864 28.6542 8.72864 28.6055 8.72119" stroke="black" stroke-width="0.0481989" stroke-linecap="round" stroke-linejoin="round"/>
<path d="M21.7969 7.43408C21.7969 7.43408 22.5377 7.79283 22.8506 7.76751C22.7678 7.83926 22.6436 7.86881 22.6436 7.86881C22.7218 7.89835 22.9381 8.00387 23.2648 7.93634C23.1866 8.00808 23.0853 8.08828 23.0853 8.08828C23.0853 8.08828 23.366 8.18535 23.6836 8.03341C23.5869 8.14314 23.5317 8.22334 23.5317 8.22334L23.7526 8.236" fill="#EF7D00"/>
<path d="M21.7969 7.43408C21.7969 7.43408 22.5377 7.79283 22.8506 7.76751C22.7678 7.83926 22.6436 7.86881 22.6436 7.86881C22.7218 7.89835 22.9381 8.00387 23.2648 7.93634C23.1866 8.00808 23.0853 8.08828 23.0853 8.08828C23.0853 8.08828 23.366 8.18535 23.6836 8.03341C23.5869 8.14314 23.5317 8.22334 23.5317 8.22334L23.7526 8.236" stroke="black" stroke-width="0.0481989" stroke-linecap="round" stroke-linejoin="round"/>
</g>
<defs>
<clipPath id="clip0_1_15684">
<rect width="40" height="40" rx="20" fill="white"/>
</clipPath>
</defs>
</svg>
