<svg width="40" height="40" viewBox="0 0 40 40" fill="none" xmlns="http://www.w3.org/2000/svg">
<g clip-path="url(#clip0_1_15705)">
<path d="M0 0H60V40H0V0Z" fill="#006400"/>
<path d="M0 5.71429H60.0082V34.2857H0V5.71429Z" fill="#FFD200"/>
<path d="M0 11.4286H60.0082V28.5715H0V11.4286Z" fill="#D40000"/>
<path d="M0 17.1429H60.0061V22.8572H0V17.1429Z" fill="black"/>
<mask id="mask0_1_15705" style="mask-type:luminance" maskUnits="userSpaceOnUse" x="0" y="0" width="80" height="40">
<path d="M0 0H80V40H0V0Z" fill="white"/>
</mask>
<g mask="url(#mask0_1_15705)">
<path d="M0 0V40L26.6667 20L0 0Z" fill="black" stroke="black" stroke-width="1.90476"/>
</g>
<path d="M0 0V40L26.6667 20L0 0Z" fill="white"/>
<path d="M10.1438 9.94434L15.4257 26.2001L1.59766 16.1535H18.6899L4.86197 26.2001L10.1438 9.94434Z" fill="#D40000"/>
<path fill-rule="evenodd" clip-rule="evenodd" d="M9.68486 13.705C9.49602 13.4887 9.21645 13.3739 8.9301 13.3951C8.64378 13.4162 8.38411 13.5709 8.22909 13.8125C8.06468 13.8085 7.90026 13.8206 7.73821 13.8484C7.58661 13.8745 7.45512 13.968 7.38077 14.1027C7.30634 14.2373 7.29725 14.3985 7.35588 14.5406L7.9098 14.5078C8.13674 14.6359 8.27999 14.8735 8.28743 15.1339L8.34984 17.3351C8.24281 17.5561 8.18875 17.7991 8.19184 18.0448C8.19564 18.3405 8.21909 18.6356 8.2622 18.9282C8.30543 19.222 8.20882 19.5191 8.00103 19.7313C7.67897 20.0602 7.39892 20.4278 7.16733 20.8256C6.98953 21.1312 7.02085 21.5151 7.24581 21.7878L7.87695 24.2298H12.6139L12.8768 22.1578C12.9884 21.2782 13.4899 20.4956 14.2425 20.0268L14.4289 20.0797C14.5542 20.1152 14.687 20.0572 14.746 19.9411C14.8049 19.825 14.7735 19.6835 14.6709 19.6033L10.1899 16.0993L10.0721 14.6245C10.045 14.2844 9.90919 13.962 9.68486 13.705Z" fill="#FFD200"/>
<path d="M9.63935 13.7451L9.63563 13.7409L9.7264 13.6606L9.73012 13.6648L9.63935 13.7451ZM9.63563 13.7409C9.61116 13.7131 9.58447 13.6868 9.55639 13.6623L9.63626 13.571C9.66765 13.5984 9.69791 13.6284 9.7264 13.6606L9.63563 13.7409ZM9.63636 13.5708V13.571L9.59644 13.6167L9.63636 13.5708ZM9.55649 13.6625C9.52837 13.638 9.49898 13.6156 9.46898 13.5957L9.536 13.4945C9.57133 13.5179 9.6049 13.5434 9.63636 13.5708L9.55649 13.6625ZM9.46898 13.5957C9.31332 13.4922 9.12555 13.4418 8.93438 13.4558L8.92581 13.3342C9.14341 13.3181 9.35782 13.376 9.536 13.4945L9.46898 13.5957ZM8.93438 13.4558L8.92878 13.4564L8.92024 13.3347L8.92581 13.3342L8.93438 13.4558ZM8.91975 13.3346H8.92026L8.92454 13.3954L8.91975 13.3346ZM8.92927 13.4563C8.89051 13.4593 8.85363 13.4647 8.81906 13.472L8.79383 13.3533C8.83645 13.3442 8.87866 13.3378 8.91975 13.3346L8.92927 13.4563ZM8.81906 13.472C8.783 13.4797 8.74748 13.4898 8.71301 13.502L8.6726 13.3876C8.71196 13.3736 8.75259 13.3621 8.79383 13.3533L8.81906 13.472ZM8.71301 13.502C8.53667 13.5644 8.3835 13.6842 8.28017 13.8452L8.17799 13.7797C8.29599 13.5958 8.47101 13.4589 8.6726 13.3876L8.71301 13.502ZM8.28017 13.8452L8.22762 13.8733L8.22908 13.8124L8.28017 13.8452ZM8.22762 13.8733C8.22171 13.8732 8.21556 13.873 8.21137 13.873L8.21283 13.7514C8.22001 13.7514 8.22546 13.7516 8.23064 13.7516L8.22772 13.8733L8.22762 13.8733ZM8.21137 13.873H8.21112L8.21209 13.8122L8.21137 13.873ZM8.21112 13.873C8.18878 13.8728 8.1663 13.8725 8.14424 13.8728L8.14326 13.7511C8.16657 13.7509 8.1901 13.751 8.21306 13.7514L8.21112 13.873ZM8.14424 13.8728C8.12312 13.8729 8.10064 13.8735 8.0776 13.8742L8.07335 13.7526C8.09568 13.7519 8.11906 13.7511 8.14326 13.7511L8.14424 13.8728ZM8.0776 13.8742C7.96678 13.8782 7.85657 13.8897 7.74845 13.9082L7.72802 13.7885C7.84278 13.7688 7.95829 13.7567 8.07335 13.7526L8.0776 13.8742ZM7.74845 13.9082L7.74602 13.9088L7.72561 13.789L7.72802 13.7885L7.74845 13.9082ZM7.72534 13.7889H7.7256L7.73581 13.8488L7.72534 13.7889ZM7.74631 13.9087C7.72726 13.912 7.70885 13.9165 7.6914 13.9219L7.65583 13.8059C7.67885 13.7988 7.70223 13.793 7.72534 13.7889L7.74631 13.9087ZM7.6914 13.9219C7.67423 13.9272 7.65671 13.934 7.63941 13.9418L7.58949 13.8311C7.61044 13.8216 7.63258 13.8131 7.65583 13.8059L7.6914 13.9219ZM7.58927 13.8311H7.58949L7.61442 13.8864L7.58927 13.8311ZM7.63961 13.9418C7.55334 13.9811 7.48067 14.0473 7.43403 14.1319L7.32756 14.0734C7.38707 13.9654 7.47955 13.8809 7.58927 13.8311L7.63961 13.9418ZM7.32735 14.0739L7.32756 14.0734L7.38077 14.1026L7.32735 14.0739ZM7.43425 14.1314L7.43094 14.1375L7.32404 14.08L7.32735 14.0739L7.43425 14.1314ZM7.32404 14.0803L7.32404 14.08L7.37749 14.1088L7.32404 14.0803ZM7.43094 14.1373C7.42252 14.1531 7.41466 14.1702 7.40775 14.1884L7.29426 14.1451C7.30224 14.124 7.31238 14.1022 7.32404 14.0803L7.43094 14.1373ZM7.29426 14.1454V14.1451L7.35099 14.1668L7.29426 14.1454ZM7.40775 14.1882C7.40114 14.2057 7.39549 14.2237 7.39106 14.2415L7.27329 14.2126C7.27886 14.1898 7.28596 14.1673 7.29426 14.1454L7.40775 14.1882ZM7.27329 14.2128V14.2126L7.33219 14.2271L7.27329 14.2128ZM7.39106 14.2413C7.3688 14.3322 7.37557 14.4291 7.41196 14.5175L7.29983 14.5636C7.25356 14.4513 7.24502 14.3283 7.27329 14.2128L7.39106 14.2413ZM7.35948 14.6014L7.29983 14.5636L7.35591 14.5406L7.35948 14.6014ZM7.35231 14.4798L7.90623 14.4469L7.9134 14.5686L7.35948 14.6014L7.35231 14.4798ZM7.90623 14.4469L7.93927 14.4548L7.90983 14.5077L7.90623 14.4469ZM7.93927 14.4548C7.94754 14.4594 7.95114 14.4615 7.95325 14.4627L7.89134 14.5672C7.88518 14.5636 7.88022 14.5607 7.88022 14.5607L7.93912 14.4547L7.93927 14.4548ZM7.95325 14.4627C7.98671 14.4824 8.01872 14.5047 8.04877 14.5289L7.97279 14.6235C7.94746 14.6031 7.92024 14.5842 7.89148 14.5673L7.95325 14.4627ZM8.04877 14.5289C8.07872 14.5531 8.10699 14.5793 8.13292 14.6073L8.0441 14.69C8.02215 14.6663 7.99824 14.644 7.97279 14.6235L8.04877 14.5289ZM8.13292 14.6073C8.26423 14.7483 8.34264 14.9344 8.34828 15.1322L8.22664 15.1355C8.22187 14.9673 8.1554 14.8095 8.0441 14.69L8.13292 14.6073ZM8.34828 15.1322L8.41071 17.3333L8.28904 17.3366L8.22664 15.1355L8.34828 15.1322ZM8.41071 17.3333L8.40451 17.3613L8.34986 17.335L8.41071 17.3333ZM8.40451 17.3613C8.40098 17.3686 8.39602 17.3792 8.39105 17.39L8.28084 17.3391C8.28483 17.3304 8.28933 17.3208 8.29525 17.3086L8.40451 17.3613ZM8.28084 17.3394V17.3391L8.33595 17.3646L8.28084 17.3394ZM8.39105 17.3897C8.37767 17.4189 8.36497 17.4493 8.35312 17.48L8.24002 17.4363C8.25236 17.4042 8.26603 17.3717 8.28084 17.3394L8.39105 17.3897ZM8.2398 17.4365L8.24002 17.4363L8.29653 17.4581L8.2398 17.4365ZM8.35332 17.4798C8.34167 17.5102 8.33098 17.541 8.32133 17.5719L8.20533 17.5358C8.21574 17.5025 8.22725 17.4693 8.2398 17.4365L8.35332 17.4798ZM8.32133 17.5719C8.27401 17.7239 8.2507 17.8834 8.25269 18.044L8.13105 18.0455C8.12886 17.8725 8.15409 17.7004 8.20533 17.5359L8.32133 17.572V17.5719ZM8.25269 18.044C8.25276 18.0543 8.25295 18.0648 8.2532 18.076L8.13156 18.0779C8.13143 18.0678 8.1313 18.0565 8.13105 18.0454L8.25269 18.0439V18.044ZM8.2532 18.076C8.25393 18.1154 8.2549 18.1562 8.25651 18.1976L8.13487 18.2019C8.13341 18.1618 8.13224 18.1203 8.13156 18.0779L8.2532 18.076ZM8.25651 18.1976C8.25772 18.2364 8.25977 18.277 8.2621 18.3192L8.14046 18.3259C8.13827 18.2864 8.13637 18.245 8.13487 18.2019L8.25651 18.1976ZM8.2621 18.3192C8.27315 18.521 8.29327 18.7213 8.32237 18.9194L8.20211 18.9369C8.17218 18.7332 8.15155 18.5292 8.14046 18.3259L8.2621 18.3192ZM8.32237 18.9194L8.32287 18.9222L8.20262 18.9397L8.20211 18.9369L8.32237 18.9194ZM8.32287 18.9222V18.9224L8.26276 18.9309L8.32287 18.9222ZM8.32287 18.9224C8.32922 18.9664 8.33268 19.0103 8.33324 19.0535L8.21157 19.0549C8.21106 19.0163 8.20807 18.9776 8.20262 18.9396L8.32287 18.9224V18.9224ZM8.33324 19.0535C8.33375 19.0964 8.33154 19.14 8.32648 19.1832L8.20578 19.1694C8.21006 19.1321 8.21206 19.0936 8.21157 19.0549L8.33324 19.0534V19.0535ZM8.32648 19.1832C8.30081 19.4033 8.20303 19.6118 8.04441 19.7738L7.95794 19.6887C8.0973 19.5464 8.18323 19.3631 8.20578 19.1694L8.32648 19.1832ZM8.04441 19.7738L8.04422 19.7743L8.00118 19.7313L8.04441 19.7738ZM8.04422 19.7743C8.04251 19.776 8.05448 19.7607 8.05125 19.7656L7.95001 19.6982C7.95352 19.6929 7.95593 19.6905 7.95814 19.6882L8.04422 19.7743ZM8.05125 19.7656L8.04385 19.7744L8.00062 19.7319L8.05125 19.7656ZM8.04385 19.7744C8.00215 19.8171 7.95836 19.8635 7.91277 19.9133L7.82297 19.8312C7.86413 19.7861 7.90897 19.7388 7.95739 19.6893L8.04385 19.7744ZM7.82297 19.8313V19.8312L7.86786 19.8722L7.82297 19.8313ZM7.91277 19.9131C7.86883 19.9613 7.8265 20.0092 7.78621 20.0564L7.69407 19.9775C7.73719 19.927 7.78027 19.8781 7.82297 19.8313L7.91277 19.9131ZM7.69381 19.9775H7.69407L7.74014 20.017L7.69381 19.9775ZM7.7865 20.0564C7.57408 20.306 7.38429 20.5737 7.21995 20.8559L7.115 20.7951C7.28382 20.5051 7.47767 20.2315 7.69381 19.9775L7.7865 20.0564ZM7.11471 20.7951H7.115L7.16744 20.8255L7.11471 20.7951ZM7.22022 20.8559L7.21779 20.86L7.11227 20.7992L7.11471 20.7951L7.22022 20.8559ZM7.21779 20.86C7.19455 20.9004 7.17543 20.9417 7.16047 20.9828L7.04642 20.9414C7.06435 20.892 7.08634 20.8443 7.11227 20.7992L7.21779 20.86ZM7.16047 20.9828C7.14517 21.025 7.13351 21.0682 7.1258 21.1112L7.00649 21.0899C7.01552 21.0394 7.0289 20.9897 7.04642 20.9414L7.16047 20.9828ZM7.1258 21.1112C7.08573 21.3337 7.1431 21.568 7.29267 21.7492L7.19903 21.8262C7.02649 21.6171 6.96027 21.3466 7.00649 21.0899L7.1258 21.1112ZM7.29267 21.7492L7.30455 21.7725L7.24586 21.7877L7.29267 21.7492ZM7.30455 21.7725L7.93571 24.2145L7.81832 24.245L7.18716 21.803L7.30455 21.7725ZM7.877 24.2905L7.81832 24.245L7.877 24.2297V24.2905ZM7.877 24.1689H12.6139V24.2905H7.877V24.1689ZM12.6741 24.2373L12.6139 24.2905V24.2297L12.6741 24.2373ZM12.5538 24.2221L12.8167 22.1502L12.9369 22.1654L12.6741 24.2373L12.5538 24.2221ZM12.9372 22.1651L12.9369 22.1654L12.8768 22.1577L12.9372 22.1651ZM12.8165 22.1504C12.8174 22.143 12.8148 22.1652 12.8172 22.1467L12.9375 22.1624C12.9353 22.1789 12.9385 22.1556 12.9373 22.1651L12.8166 22.1504H12.8165ZM12.9374 22.1621V22.1624L12.8772 22.1545L12.9374 22.1621ZM12.8171 22.1469C12.8332 22.0205 12.8572 21.8967 12.8881 21.7767L13.0059 21.8066C12.9757 21.9236 12.9526 22.0425 12.9374 22.1621L12.8171 22.1469ZM12.8881 21.7767C12.9194 21.6553 12.9582 21.5365 13.0038 21.4214L13.1169 21.4661C13.073 21.577 13.0358 21.6908 13.0059 21.8066L12.8881 21.7767ZM13.0038 21.4214C13.2384 20.8286 13.6583 20.3192 14.2105 19.9752L14.2746 20.0784C13.7449 20.4084 13.3421 20.8972 13.1169 21.4661L13.0038 21.4214ZM14.2105 19.9752L14.259 19.9683L14.2426 20.0268L14.2105 19.9752ZM14.259 19.9683L14.4454 20.0212L14.4126 20.1382L14.2262 20.0853L14.259 19.9683ZM14.4454 20.0212H14.4456L14.429 20.0797L14.4454 20.0212ZM14.4456 20.0212L14.447 20.0217L14.4138 20.1387L14.4123 20.1382L14.4456 20.0212ZM14.4143 20.1386H14.4138L14.4304 20.0801L14.4143 20.1386ZM14.4465 20.0216C14.4591 20.0251 14.4729 20.0274 14.4876 20.0284L14.4787 20.1501C14.4583 20.1486 14.4366 20.1447 14.4143 20.1386L14.4465 20.0216ZM14.4876 20.0284C14.502 20.0294 14.5158 20.0292 14.5283 20.0277L14.5425 20.1484C14.5209 20.151 14.4994 20.1516 14.4787 20.1501L14.4876 20.0284ZM14.5283 20.0277C14.5967 20.0196 14.6591 19.9781 14.6918 19.9137L14.8002 19.9683C14.7485 20.0701 14.6503 20.1355 14.5425 20.1484L14.5283 20.0277ZM14.8004 19.9681L14.8002 19.9683L14.746 19.941L14.8004 19.9681ZM14.6916 19.9139L14.6923 19.9125L14.8011 19.9667L14.8004 19.9681L14.6916 19.9139ZM14.6923 19.9125C14.6988 19.8994 14.7039 19.8862 14.7074 19.8734L14.8244 19.9057C14.8186 19.9267 14.8108 19.9473 14.8011 19.9667L14.6923 19.9125ZM14.8246 19.9055L14.8244 19.9057L14.7659 19.8895L14.8246 19.9055ZM14.7072 19.8736C14.7106 19.861 14.7129 19.8475 14.714 19.8335L14.8356 19.8424C14.8342 19.863 14.8303 19.8842 14.8246 19.9055L14.7072 19.8736ZM14.8356 19.8422V19.8424L14.7748 19.838L14.8356 19.8422ZM14.714 19.8337C14.7191 19.7647 14.6904 19.6954 14.6336 19.651L14.7082 19.5554C14.7981 19.6257 14.8436 19.7344 14.8356 19.8422L14.714 19.8337ZM14.6336 19.651L10.1526 16.147L10.2272 16.0514L14.7082 19.5554L14.6336 19.651ZM10.1526 16.147L10.1291 16.104L10.1899 16.0992L10.1526 16.147ZM10.1291 16.104L10.0113 14.6292L10.133 14.6197L10.2508 16.0945L10.1291 16.104ZM10.0113 14.6292L10.0108 14.624L10.1325 14.6145L10.133 14.6197L10.0113 14.6292ZM10.1326 14.6143V14.6145L10.0717 14.6193L10.1326 14.6143ZM10.0109 14.6242C10.007 14.5764 10.0012 14.5309 9.99374 14.4881L10.1135 14.4677C10.1222 14.5181 10.1287 14.5673 10.1326 14.6143L10.0109 14.6242ZM9.99374 14.4881C9.986 14.4435 9.97607 14.3991 9.9643 14.3551L10.0817 14.3238C10.0944 14.3709 10.105 14.419 10.1135 14.4677L9.99374 14.4881ZM9.9643 14.3551C9.90416 14.1306 9.79331 13.9215 9.63919 13.7449L9.7305 13.665C9.89705 13.8559 10.0168 14.0816 10.0817 14.3238" fill="black"/>
<path d="M9.67347 17.7068C9.67296 17.708 9.67444 17.7043 9.67274 17.7093L9.55632 17.6741C9.55683 17.6724 9.55729 17.6714 9.55887 17.667L9.67337 17.7068L9.67347 17.7068ZM9.67274 17.7093L9.67223 17.7107L9.61452 17.6917L9.67274 17.7093ZM9.67223 17.7107C9.66133 17.7435 9.65252 17.7759 9.64588 17.8077L9.52713 17.783C9.53506 17.745 9.54499 17.7082 9.55679 17.6726L9.67223 17.7107ZM9.64588 17.8077C9.63899 17.8406 9.63396 17.8737 9.63092 17.9061L9.51025 17.8952C9.51375 17.8572 9.51949 17.8197 9.52713 17.783L9.64588 17.8077ZM9.63092 17.9061C9.61506 18.0746 9.64817 18.2459 9.72838 18.3984L9.62092 18.455C9.52976 18.2817 9.49224 18.0869 9.51025 17.8952L9.63092 17.9061ZM9.72838 18.3984L9.72911 18.3996L9.62167 18.4562L9.62092 18.455L9.72838 18.3984ZM9.72911 18.3996C9.74483 18.4295 9.76229 18.4583 9.7811 18.4858L9.68084 18.5542C9.65938 18.5229 9.63953 18.49 9.62167 18.4562L9.72911 18.3996ZM9.7811 18.4858C9.80008 18.5135 9.82056 18.54 9.84195 18.5648L9.7502 18.6441C9.72539 18.6153 9.70201 18.5851 9.68084 18.5542L9.7811 18.4858ZM9.84195 18.5648C9.95325 18.6935 10.1008 18.7884 10.2674 18.8356L10.2345 18.9526C10.045 18.8989 9.8771 18.7908 9.7502 18.6441" fill="black"/>
<path d="M10.2243 16.1493L8.38482 17.4063L8.31641 17.306L10.1559 16.049" fill="black"/>
<path d="M9.15263 14.1558V14.1552H9.27427V14.1558H9.15263ZM9.15263 14.1552C9.15256 14.1055 9.13236 14.0603 9.09988 14.0279L9.1854 13.9419C9.24014 13.9965 9.27415 14.0721 9.27427 14.1552H9.15263ZM9.09988 14.0279C9.06745 13.9956 9.02242 13.9753 8.97291 13.9752L8.97342 13.8535C9.05604 13.8538 9.13107 13.8876 9.18549 13.9419L9.09998 14.0279H9.09988ZM8.9731 13.8535H8.97329L8.9731 13.9143V13.8535ZM8.9731 13.9752H8.97213V13.8535H8.9731V13.9752ZM8.97213 13.9752H8.97163V13.8535H8.97213V13.9752ZM8.97163 13.9752C8.9219 13.9752 8.87674 13.9955 8.84431 14.0279L8.75826 13.9424C8.81295 13.8876 8.88847 13.8537 8.97163 13.8535V13.9752ZM8.84431 14.0279C8.81198 14.0603 8.79171 14.1054 8.79157 14.1549L8.66992 14.1544C8.67018 14.0717 8.70398 13.9967 8.75826 13.9423L8.84431 14.0279V14.0279ZM8.66992 14.1547V14.1545L8.73074 14.1547H8.66992ZM8.79157 14.1547V14.1557H8.66992V14.1547H8.79157ZM8.79157 14.1557V14.1562H8.66992V14.1557H8.79157ZM8.79157 14.1562C8.79163 14.206 8.81183 14.2511 8.84431 14.2835L8.7588 14.3696C8.70406 14.3149 8.67004 14.2393 8.66992 14.1562H8.79157ZM8.84431 14.2835C8.87674 14.3158 8.92178 14.3361 8.97128 14.3362L8.97078 14.4579C8.88808 14.4576 8.81305 14.4238 8.7587 14.3696L8.84422 14.2835H8.84431ZM8.97106 14.4579H8.97087L8.97106 14.3971V14.4579ZM8.97106 14.3362H8.97204V14.4579H8.97106V14.3362ZM8.97204 14.3362H8.97254V14.4579H8.97204V14.3362ZM8.97254 14.3362C9.02232 14.3362 9.06743 14.316 9.09986 14.2835L9.18591 14.369C9.13122 14.4238 9.05565 14.4577 8.97254 14.4579V14.3362ZM9.09986 14.2835C9.13219 14.2511 9.15246 14.206 9.1526 14.1565L9.27425 14.157C9.27399 14.2396 9.24019 14.3147 9.18591 14.3691L9.09986 14.2836V14.2835ZM9.27425 14.1567V14.1569L9.21343 14.1567H9.27425ZM9.1526 14.1567L9.15263 14.1558H9.27427L9.27425 14.1567" fill="black"/>
<path d="M8.72461 19.9173L8.72889 19.9152L8.78309 20.024L8.77881 20.0262L8.72461 19.9173ZM8.78329 20.0238L8.78309 20.024L8.756 19.9696L8.78329 20.0238ZM8.72867 19.9154C8.77847 19.8902 8.8255 19.8613 8.86895 19.8291L8.94121 19.9265C8.89185 19.963 8.83896 19.9957 8.78329 20.0238L8.72867 19.9154ZM8.86895 19.8291C8.91253 19.7968 8.95328 19.7609 8.99053 19.7221L9.07796 19.8063C9.03631 19.8496 8.99052 19.89 8.94121 19.9265L8.86895 19.8291ZM8.99053 19.7221C9.18095 19.5241 9.28237 19.2494 9.25763 18.9648L9.37928 18.9543C9.40713 19.274 9.29274 19.5829 9.07796 19.8063" fill="black"/>
<path d="M9.55892 18.6332L9.55466 18.6354L9.50046 18.5266L9.50472 18.5244L9.55892 18.6332ZM9.49997 18.5267L9.50046 18.5266L9.52759 18.581L9.49997 18.5267ZM9.55515 18.6352C9.53783 18.6441 9.52197 18.6538 9.5081 18.6643L9.43543 18.5673C9.45618 18.5517 9.47784 18.5381 9.49997 18.5267L9.55515 18.6352ZM9.5081 18.6643C9.49362 18.6751 9.4799 18.6874 9.46742 18.7005L9.37957 18.6169C9.39646 18.5992 9.41529 18.5824 9.43543 18.5673L9.5081 18.6643ZM9.46742 18.7005C9.40424 18.7668 9.37067 18.8589 9.37894 18.9543L9.25729 18.9648C9.24598 18.8346 9.2924 18.7085 9.37957 18.6169" fill="black"/>
<path d="M10.2426 20.4184L10.2416 20.4189L10.1965 20.3062L10.1975 20.3057L10.2426 20.4184ZM10.2416 20.4189C10.179 20.4441 10.1138 20.4708 10.0473 20.4984L10.0007 20.3862C10.0638 20.3601 10.1291 20.3333 10.1965 20.3062L10.2416 20.4189ZM10.0473 20.4984C9.9824 20.5253 9.91771 20.5526 9.8535 20.5799L9.80592 20.4682C9.8708 20.4405 9.93591 20.4131 10.0007 20.3862L10.0473 20.4984ZM9.8535 20.5799C9.52295 20.721 9.19546 20.871 8.87159 21.0297L8.81836 20.9204C9.14298 20.7614 9.47234 20.6105 9.80592 20.4682" fill="black"/>
<path d="M10.1975 20.3052L10.1997 20.3045L10.2434 20.4176L10.2412 20.4183L10.1975 20.3052ZM10.2443 20.4173L10.2434 20.4175L10.2215 20.3609L10.2443 20.4173ZM10.1987 20.3046C10.2679 20.2766 10.334 20.2441 10.3964 20.2078L10.4572 20.3127C10.3889 20.3525 10.3176 20.3876 10.2443 20.4173L10.1987 20.3046ZM10.3964 20.2078C10.4581 20.1719 10.5181 20.1309 10.5757 20.0854L10.6513 20.181C10.5912 20.2284 10.5263 20.2726 10.4572 20.3127L10.3964 20.2078ZM10.5757 20.0854C10.8667 19.8557 11.0697 19.5254 11.1381 19.1518L11.2574 19.1736C11.1836 19.5772 10.9648 19.9336 10.6513 20.181" fill="black"/>
<path d="M9.59961 20.5625H13.5525V20.6842H9.59961" fill="black"/>
<path d="M10.4496 21.3648V21.3643H10.5712V21.3648H10.4496ZM10.4496 21.3643C10.4495 21.2548 10.4048 21.1553 10.333 21.0835L10.419 20.9974C10.5128 21.0912 10.5711 21.221 10.5712 21.3643H10.4496ZM10.4187 20.9974H10.419L10.376 21.0404L10.4187 20.9974ZM10.3332 21.0835C10.2615 21.0119 10.1624 20.9674 10.0531 20.9672V20.8455C10.1958 20.8458 10.3251 20.9039 10.4187 20.9974L10.3332 21.0835ZM10.0531 20.9672H10.0521V20.8455H10.0531V20.9672ZM10.0521 20.9672H10.0516V20.8455H10.0521V20.9672ZM10.0516 20.9672C9.9419 20.9672 9.84254 21.0117 9.7709 21.0835L9.68482 20.998C9.77875 20.9039 9.9086 20.8457 10.0516 20.8455V20.9672ZM9.7709 21.0835C9.6993 21.1552 9.65482 21.2543 9.6546 21.3637H9.53296C9.53321 21.221 9.5913 21.0917 9.68482 20.998L9.7709 21.0835ZM9.6546 21.3637V21.3647H9.53296V21.3637H9.6546ZM9.6546 21.3647V21.3652H9.53296V21.3647H9.6546ZM9.6546 21.3652C9.65467 21.4749 9.69922 21.5743 9.77094 21.646L9.68543 21.732C9.59137 21.638 9.53311 21.5082 9.53296 21.3652H9.6546ZM9.77094 21.646C9.84262 21.7175 9.94178 21.762 10.0511 21.7622V21.8839C9.9084 21.8836 9.77902 21.8255 9.68543 21.732L9.77094 21.646ZM10.0511 21.7622H10.0521V21.8839H10.0511V21.7622ZM10.0521 21.7622H10.0526V21.8839H10.0521V21.7622ZM10.0526 21.7622C10.162 21.7622 10.2615 21.7175 10.3333 21.6456L10.4194 21.7317C10.3256 21.8255 10.1957 21.8838 10.0526 21.8839V21.7622ZM10.4194 21.7314V21.7317L10.3764 21.6886L10.4194 21.7314ZM10.3333 21.6459C10.4049 21.5742 10.4494 21.4751 10.4496 21.3658H10.5712C10.571 21.5084 10.5129 21.6377 10.4194 21.7314L10.3333 21.6459ZM10.4496 21.3658L10.4496 21.3648H10.5712L10.5712 21.3658" fill="black"/>
<path d="M12.2722 21.365V21.3644H12.3938V21.365H12.2722ZM12.2722 21.3644C12.2721 21.2549 12.2274 21.1555 12.1555 21.0836L12.2416 20.9976C12.3354 21.0914 12.3937 21.2212 12.3938 21.3644H12.2722ZM12.2414 20.9976H12.2416L12.1986 21.0406L12.2414 20.9976ZM12.1558 21.0836C12.0841 21.012 11.985 20.9676 11.8757 20.9673V20.8457C12.0184 20.846 12.1477 20.904 12.2414 20.9976L12.1558 21.0836ZM11.8757 20.9673H11.8747V20.8457H11.8757V20.9673ZM11.8747 20.9673H11.8742V20.8457H11.8747V20.9673ZM11.8742 20.9673C11.7645 20.9674 11.665 21.012 11.5934 21.0837L11.5073 20.9982C11.6013 20.9041 11.7311 20.8458 11.8742 20.8457V20.9673ZM11.5934 21.0837C11.5218 21.1554 11.4773 21.2545 11.4771 21.3639H11.3555C11.3557 21.2211 11.4138 21.0918 11.5073 20.9982L11.5934 21.0837ZM11.4771 21.3639V21.3649H11.3555V21.3639H11.4771ZM11.4771 21.3649V21.3654H11.3555V21.3649H11.4771ZM11.4771 21.3654C11.4772 21.475 11.5217 21.5745 11.5935 21.6461L11.5079 21.7322C11.4139 21.6382 11.3556 21.5083 11.3555 21.3654H11.4771ZM11.5935 21.6461C11.6652 21.7177 11.7643 21.7622 11.8736 21.7624V21.8841C11.7309 21.8838 11.6016 21.8257 11.5079 21.7322L11.5935 21.6461ZM11.8736 21.7624H11.8746V21.8841H11.8736V21.7624ZM11.8746 21.7624H11.8751V21.8841H11.8746V21.7624ZM11.8751 21.7624C11.9846 21.7623 12.084 21.7176 12.1559 21.6458L12.2419 21.7319C12.1481 21.8256 12.0183 21.8839 11.8751 21.8841V21.7624ZM12.2419 21.7316V21.7319L12.1989 21.6888L12.2419 21.7316ZM12.1559 21.6461C12.2275 21.5743 12.2719 21.4752 12.2722 21.3659H12.3938C12.3935 21.5086 12.3355 21.6379 12.2419 21.7316L12.1559 21.6461ZM12.2722 21.3659L12.2722 21.365H12.3938L12.3938 21.3659" fill="black"/>
<path d="M10.9451 19.7448C10.9666 19.7511 10.988 19.7572 11.0093 19.7629L10.978 19.8803C10.9554 19.8743 10.9326 19.8678 10.9104 19.8611L10.9451 19.7448ZM11.0093 19.7629C11.043 19.772 11.0755 19.7801 11.1064 19.7871L11.0798 19.9054C11.0443 19.8974 11.0102 19.889 10.978 19.8803L11.0093 19.7629ZM11.1064 19.7871C11.1391 19.7944 11.1718 19.8011 11.2043 19.8072L11.1825 19.9265C11.148 19.9201 11.1136 19.913 11.0798 19.9054L11.1064 19.7871ZM11.2043 19.8072C11.3568 19.8352 11.5127 19.8489 11.6694 19.848L11.6699 19.9696C11.5071 19.9706 11.3438 19.956 11.1826 19.9265" fill="black"/>
<path d="M11.6681 19.8482C11.6896 19.8481 11.7102 19.847 11.7292 19.8451L11.7416 19.9658C11.7163 19.9683 11.6919 19.9697 11.6685 19.9698L11.668 19.8482L11.6681 19.8482ZM11.7292 19.8451H11.7294L11.7353 19.9054L11.7292 19.8451ZM11.7294 19.8451C11.7637 19.8417 11.7978 19.8354 11.8312 19.8266L11.862 19.944C11.8231 19.9543 11.7826 19.9616 11.7413 19.9658L11.7294 19.8451ZM11.8312 19.8266C11.8639 19.818 11.8963 19.8065 11.9275 19.7928L11.9764 19.904C11.9399 19.9201 11.9015 19.9336 11.862 19.944L11.8312 19.8266ZM11.9275 19.7928C12.0745 19.728 12.1958 19.6098 12.2627 19.457L12.3739 19.5054C12.2944 19.6869 12.1506 19.8271 11.9764 19.904" fill="black"/>
<path d="M14.2266 20.0851L10.2344 18.9525L10.2672 18.8356L14.2594 19.9682" fill="black"/>
<path d="M7.32617 22.0376H12.8849V22.1592H7.32617" fill="black"/>
<path d="M8.60962 23.2457H12.7312V23.3674H8.60962" fill="black"/>
<path d="M10.5362 22.834L10.0438 23.3183L9.95874 23.2318L10.4511 22.7476" fill="black"/>
<path d="M9.63588 22.7476L10.1283 23.2318L10.0432 23.3183L9.55078 22.834" fill="black"/>
<path d="M9.72203 22.834L9.22963 23.3183L9.14453 23.2318L9.63693 22.7476" fill="black"/>
<path d="M8.82143 22.7476L9.31384 23.2318L9.22874 23.3183L8.73633 22.834" fill="black"/>
<path d="M11.3509 22.834L10.8585 23.3183L10.7734 23.2318L11.2658 22.7476" fill="black"/>
<path d="M10.4503 22.7476L10.9427 23.2318L10.8576 23.3183L10.3652 22.834" fill="black"/>
<path d="M12.1654 22.834L11.673 23.3183L11.5879 23.2318L12.0803 22.7476" fill="black"/>
<path d="M11.2648 22.7476L11.7572 23.2318L11.6721 23.3183L11.1797 22.834" fill="black"/>
<path d="M12.8189 22.9925L12.4877 23.3182L12.4026 23.2318L12.7338 22.906" fill="black"/>
<path d="M12.0812 22.7476L12.5736 23.2318L12.4885 23.3183L11.9961 22.834" fill="black"/>
<path d="M10.5364 22.2169L10.0441 22.7011L9.95898 22.6146L10.4513 22.1304" fill="black"/>
<path d="M9.63588 22.1304L10.1283 22.6146L10.0432 22.7011L9.55078 22.2169" fill="black"/>
<path d="M9.72202 22.2169L9.22963 22.7011L9.14453 22.6146L9.63692 22.1304" fill="black"/>
<path d="M8.82338 22.1299L9.31511 22.6148L9.23 22.7013L8.73828 22.2164" fill="black"/>
<path d="M11.3509 22.2169L10.8585 22.7011L10.7734 22.6147L11.2658 22.1304" fill="black"/>
<path d="M10.4503 22.1304L10.9428 22.6146L10.8577 22.7011L10.3652 22.2169" fill="black"/>
<path d="M12.1654 22.2169L11.673 22.7011L11.5879 22.6147L12.0803 22.1304" fill="black"/>
<path d="M11.2648 22.1304L11.7572 22.6146L11.6721 22.7011L11.1797 22.2169" fill="black"/>
<path d="M12.9085 22.2874L12.4877 22.7011L12.4026 22.6147L12.8234 22.2009" fill="black"/>
<path d="M12.0812 22.1304L12.5736 22.6146L12.4885 22.7011L11.9961 22.2169" fill="black"/>
<path d="M8.44606 14.5368L7.91367 14.5684L7.90649 14.4467L8.43891 14.4152" fill="black"/>
<path d="M8.77748 20.0268L8.77578 20.0275L8.72352 19.9177L8.72523 19.917L8.77748 20.0268ZM8.72253 19.9183L8.7235 19.9178L8.74962 19.9727L8.72253 19.9183ZM8.77673 20.0271C8.67336 20.0788 8.57687 20.1394 8.48826 20.2071L8.41459 20.1107C8.50984 20.0379 8.6128 19.9731 8.72253 19.9183L8.77673 20.0271ZM8.48826 20.2071C8.39956 20.275 8.31791 20.3508 8.24412 20.4329L8.15379 20.3517C8.23213 20.2644 8.31942 20.1835 8.41459 20.1107L8.48826 20.2071ZM8.24412 20.4329C7.86578 20.8541 7.69855 21.4419 7.82586 22.0205L7.70711 22.0466C7.57116 21.4289 7.74986 20.8014 8.15379 20.3517" fill="black"/>
<path d="M8.87008 21.0292L8.86264 21.0328L8.80941 20.9236L8.81685 20.9199L8.87008 21.0292ZM8.80892 20.9238L8.80941 20.9236L8.83604 20.9782L8.80892 20.9238ZM8.86313 21.0326C8.81126 21.0585 8.76223 21.0884 8.71664 21.1215L8.64533 21.0232C8.6965 20.986 8.75126 20.9526 8.80892 20.9238L8.86313 21.0326ZM8.71664 21.1215C8.67071 21.1549 8.62796 21.1917 8.58899 21.2312L8.50252 21.1461C8.54658 21.1014 8.59444 21.0601 8.64533 21.0232L8.71664 21.1215ZM8.58899 21.2312C8.38837 21.4342 8.27631 21.716 8.29108 22.0118L8.16941 22.0175C8.15294 21.6876 8.27824 21.373 8.50252 21.1461" fill="black"/>
<path d="M7.44438 21.4514C7.45294 21.4807 7.46299 21.5099 7.47423 21.5387L7.36115 21.5828C7.34886 21.5514 7.33981 21.476 7.33008 21.4429L7.44438 21.4514ZM7.47423 21.5387C7.48542 21.5674 7.4979 21.5956 7.51128 21.6227L7.40246 21.6763C7.38735 21.6456 7.37341 21.6143 7.36115 21.5828L7.47423 21.5387ZM7.51128 21.6227C7.58057 21.7631 7.68058 21.8876 7.80452 21.9861L7.72893 22.0811C7.59105 21.9715 7.47968 21.8329 7.40246 21.6763" fill="black"/>
<path d="M7.44187 21.4913L7.30256 21.8119L7.19141 21.7635L7.33071 21.4429" fill="black"/>
<path d="M7.82074 22.0604L7.71289 22.0042L7.72863 22.0811L7.82074 22.0604ZM7.71289 22.0042C7.72793 21.9756 7.74213 21.9475 7.75551 21.9203L7.86475 21.9736C7.85006 22.0035 7.83531 22.0327 7.82074 22.0604L7.71289 22.0042ZM7.75551 21.9203C7.77138 21.888 7.7851 21.8594 7.79612 21.8354L7.90633 21.8857C7.89088 21.9194 7.87696 21.9487 7.86475 21.9736L7.75551 21.9203ZM7.79612 21.8354C7.86317 21.6895 7.92076 21.5387 7.96834 21.3843L8.08432 21.4198C8.03544 21.5786 7.97591 21.7343 7.90633 21.8857" fill="black"/>
<path d="M7.97128 21.4265L7.96875 21.3842L8.08244 21.3775L7.97128 21.4265ZM8.17168 22.0269L8.29002 21.9993L8.29221 22.0121L8.17168 22.0269ZM8.17168 22.0269C8.16424 21.9951 8.15699 21.966 8.15037 21.9404L8.26776 21.91C8.27629 21.9427 8.28376 21.9725 8.29002 21.9993L8.17168 22.0269ZM8.15037 21.9404C8.14404 21.9162 8.13604 21.8876 8.12657 21.8546L8.24355 21.8213C8.25072 21.8462 8.25885 21.876 8.26776 21.91L8.15037 21.9404ZM8.24328 21.8211L8.24355 21.8213L8.18505 21.838L8.24328 21.8211ZM8.12687 21.8549C8.0848 21.7095 8.03271 21.5662 7.97128 21.4265L8.08244 21.3775C8.14555 21.521 8.19934 21.6694 8.24328 21.8211" fill="black"/>
<path d="M8.54907 24.2297V23.3067H8.67072V24.2297" fill="black"/>
<path d="M8.55204 23.3262L8.13867 22.1181L8.2537 22.0791L8.66707 23.2872" fill="black"/>
<path d="M8.90609 22.834L8.58315 23.1516L8.49805 23.0651L8.82099 22.7476" fill="black"/>
<path d="M8.90853 22.2163L8.4269 22.6899L8.3418 22.6035L8.82343 22.1298" fill="black"/>
</g>
<defs>
<clipPath id="clip0_1_15705">
<rect width="40" height="40" rx="20" fill="white"/>
</clipPath>
</defs>
</svg>
